<?xml version="1.0" encoding="utf-8"?>
<!-- Generator: Adobe Illustrator 19.2.0, SVG Export Plug-In . SVG Version: 6.00 Build 0)  -->
<svg version="1.1" xmlns="http://www.w3.org/2000/svg" xmlns:xlink="http://www.w3.org/1999/xlink" x="0px" y="0px"
	 viewBox="0 0 125 40" enable-background="new 0 0 125 40" xml:space="preserve">
<g id="bg" display="none">
	<rect display="inline" fill="#FFFFFF" width="125" height="40"/>
</g>
<g id="icons">
	<g>
		<g>
			<g>
				<ellipse fill="none" stroke="#E43367" stroke-width="2" stroke-miterlimit="10" cx="13.944" cy="20" rx="12.944" ry="13.013"/>
				<path fill="#E43367" d="M13.944,9.64C8.252,9.64,3.639,14.278,3.639,20s4.613,10.36,10.305,10.36
					c5.691,0,10.304-4.638,10.304-10.36S19.635,9.64,13.944,9.64z M20.688,17.893l-2.629-0.432v8.892H9.904V17.46l-2.705,0.432
					v-3.136l5.081-1.081c0.009,0.021,0.088,1.675,1.65,1.695c1.424,0.018,1.65-1.695,1.65-1.695l5.108,1.081V17.893z"/>
			</g>
		</g>
		<g>
			<path fill="#0091D1" d="M39.31,13.451l4.989,13.413h-3.046l-1.009-2.987h-4.989l-1.046,2.987h-2.952l5.045-13.413H39.31z
				 M39.478,21.68l-1.682-4.923h-0.037l-1.738,4.923H39.478z"/>
			<path fill="#0091D1" d="M47.295,17.152v1.803h0.038c0.124-0.3,0.292-0.579,0.505-0.836c0.211-0.256,0.455-0.476,0.728-0.657
				c0.274-0.182,0.567-0.322,0.878-0.423c0.311-0.1,0.635-0.15,0.972-0.15c0.174,0,0.367,0.032,0.579,0.094v2.48
				c-0.125-0.025-0.274-0.047-0.448-0.066c-0.175-0.019-0.343-0.029-0.505-0.029c-0.486,0-0.897,0.082-1.234,0.244
				c-0.336,0.163-0.607,0.385-0.812,0.667c-0.206,0.282-0.352,0.611-0.439,0.987c-0.088,0.375-0.131,0.783-0.131,1.22v4.377h-2.653
				v-9.712H47.295z"/>
			<path fill="#0091D1" d="M57.656,17.152v1.784h-1.943v4.809c0,0.452,0.075,0.752,0.224,0.902c0.149,0.15,0.448,0.225,0.897,0.225
				c0.15,0,0.293-0.006,0.43-0.019c0.137-0.012,0.267-0.031,0.392-0.056v2.067c-0.224,0.038-0.473,0.062-0.747,0.075
				c-0.274,0.012-0.542,0.019-0.803,0.019c-0.412,0-0.8-0.028-1.168-0.085c-0.367-0.056-0.691-0.165-0.972-0.328
				c-0.28-0.162-0.502-0.394-0.663-0.695c-0.162-0.3-0.243-0.695-0.243-1.183v-5.73h-1.607v-1.784h1.607V14.24h2.653v2.912H57.656z"
				/>
			<path fill="#0091D1" d="M58.693,15.65v-2.198h2.653v2.198H58.693z M61.347,17.152v9.712h-2.653v-9.712H61.347z"/>
			<path fill="#0091D1" d="M64.954,24.45c0.118,0.206,0.27,0.375,0.458,0.508c0.187,0.131,0.401,0.228,0.645,0.29
				c0.243,0.063,0.495,0.094,0.757,0.094c0.186,0,0.382-0.021,0.589-0.065c0.205-0.044,0.391-0.113,0.56-0.207
				c0.168-0.094,0.308-0.219,0.421-0.375c0.112-0.156,0.168-0.353,0.168-0.592c0-0.4-0.264-0.701-0.794-0.902
				c-0.53-0.2-1.268-0.4-2.214-0.601c-0.386-0.087-0.763-0.191-1.131-0.31c-0.367-0.118-0.694-0.275-0.981-0.47
				c-0.287-0.194-0.517-0.439-0.691-0.732c-0.175-0.294-0.262-0.654-0.262-1.08c0-0.626,0.122-1.139,0.364-1.54
				c0.243-0.4,0.564-0.717,0.962-0.949c0.398-0.231,0.847-0.394,1.346-0.488c0.498-0.094,1.009-0.141,1.532-0.141
				c0.524,0,1.03,0.05,1.523,0.15c0.492,0.101,0.931,0.27,1.318,0.508c0.385,0.238,0.707,0.554,0.962,0.949
				c0.255,0.394,0.408,0.892,0.458,1.493h-2.522c-0.038-0.514-0.231-0.861-0.58-1.043c-0.348-0.181-0.76-0.272-1.234-0.272
				c-0.149,0-0.311,0.01-0.486,0.028c-0.174,0.019-0.333,0.06-0.477,0.122c-0.143,0.063-0.264,0.154-0.364,0.272
				c-0.099,0.119-0.149,0.279-0.149,0.479c0,0.238,0.087,0.432,0.261,0.583c0.174,0.15,0.402,0.272,0.683,0.366
				c0.28,0.094,0.601,0.179,0.962,0.254c0.36,0.075,0.728,0.157,1.102,0.244c0.385,0.088,0.763,0.194,1.13,0.319
				c0.367,0.125,0.694,0.29,0.981,0.498c0.286,0.206,0.517,0.464,0.691,0.77c0.174,0.307,0.261,0.686,0.261,1.136
				c0,0.639-0.127,1.174-0.382,1.607c-0.255,0.432-0.589,0.779-1,1.042c-0.41,0.263-0.881,0.448-1.411,0.554
				c-0.53,0.107-1.068,0.16-1.616,0.16c-0.561,0-1.108-0.056-1.644-0.169c-0.536-0.113-1.012-0.3-1.43-0.564
				c-0.418-0.263-0.76-0.611-1.027-1.042c-0.268-0.433-0.415-0.974-0.44-1.625h2.522C64.776,23.997,64.835,24.244,64.954,24.45z"/>
			<path fill="#0091D1" d="M77.817,17.152v1.784h-1.943v4.809c0,0.452,0.075,0.752,0.224,0.902c0.149,0.15,0.449,0.225,0.897,0.225
				c0.149,0,0.292-0.006,0.43-0.019c0.137-0.012,0.267-0.031,0.392-0.056v2.067c-0.224,0.038-0.474,0.062-0.748,0.075
				c-0.274,0.012-0.542,0.019-0.803,0.019c-0.411,0-0.801-0.028-1.168-0.085c-0.367-0.056-0.691-0.165-0.971-0.328
				c-0.28-0.162-0.502-0.394-0.663-0.695c-0.162-0.3-0.243-0.695-0.243-1.183v-5.73h-1.607v-1.784h1.607V14.24h2.653v2.912H77.817z"
				/>
			<path fill="#E43367" d="M83.068,23.558c0.162,0.313,0.376,0.567,0.645,0.761c0.267,0.194,0.582,0.337,0.943,0.432
				c0.361,0.094,0.735,0.141,1.121,0.141c0.261,0,0.542-0.022,0.841-0.066c0.298-0.043,0.579-0.128,0.841-0.253
				c0.261-0.125,0.479-0.297,0.654-0.517c0.174-0.219,0.261-0.498,0.261-0.836c0-0.363-0.115-0.658-0.345-0.883
				c-0.23-0.225-0.533-0.414-0.906-0.564c-0.373-0.15-0.798-0.281-1.271-0.393c-0.474-0.113-0.953-0.238-1.439-0.376
				c-0.499-0.125-0.984-0.278-1.458-0.46s-0.897-0.417-1.271-0.704c-0.373-0.288-0.676-0.648-0.906-1.08s-0.345-0.955-0.345-1.568
				c0-0.689,0.146-1.287,0.439-1.794c0.293-0.507,0.676-0.93,1.149-1.268c0.474-0.338,1.009-0.589,1.607-0.751
				s1.195-0.244,1.794-0.244c0.697,0,1.367,0.079,2.008,0.235c0.641,0.157,1.211,0.411,1.709,0.761
				c0.499,0.351,0.894,0.798,1.186,1.343c0.292,0.545,0.44,1.205,0.44,1.982h-2.84c-0.025-0.4-0.109-0.733-0.252-0.996
				c-0.143-0.263-0.333-0.47-0.57-0.62c-0.236-0.15-0.508-0.257-0.813-0.319c-0.305-0.063-0.638-0.094-0.999-0.094
				c-0.237,0-0.474,0.026-0.71,0.075c-0.237,0.051-0.452,0.138-0.645,0.263c-0.193,0.125-0.352,0.282-0.477,0.47
				c-0.124,0.188-0.187,0.426-0.187,0.714c0,0.263,0.05,0.476,0.15,0.639c0.099,0.163,0.295,0.313,0.589,0.451
				c0.292,0.138,0.697,0.276,1.214,0.414c0.517,0.138,1.192,0.313,2.026,0.526c0.249,0.051,0.595,0.141,1.037,0.273
				c0.443,0.131,0.881,0.341,1.318,0.629c0.436,0.288,0.813,0.673,1.13,1.155c0.317,0.483,0.477,1.099,0.477,1.85
				c0,0.614-0.119,1.183-0.355,1.71c-0.236,0.526-0.589,0.98-1.055,1.362c-0.468,0.382-1.046,0.68-1.738,0.892
				c-0.691,0.213-1.492,0.319-2.401,0.319c-0.735,0-1.448-0.091-2.14-0.272c-0.691-0.181-1.302-0.467-1.831-0.855
				c-0.529-0.387-0.949-0.882-1.261-1.484c-0.311-0.601-0.462-1.315-0.449-2.142h2.84C82.826,22.863,82.906,23.245,83.068,23.558z"
				/>
			<path fill="#E43367" d="M97.816,17.152v1.784h-1.943v4.809c0,0.452,0.075,0.752,0.224,0.902c0.149,0.15,0.449,0.225,0.897,0.225
				c0.149,0,0.292-0.006,0.43-0.019c0.137-0.012,0.267-0.031,0.392-0.056v2.067c-0.224,0.038-0.474,0.062-0.748,0.075
				c-0.274,0.012-0.542,0.019-0.803,0.019c-0.412,0-0.801-0.028-1.168-0.085c-0.367-0.056-0.691-0.165-0.971-0.328
				c-0.28-0.162-0.502-0.394-0.663-0.695c-0.162-0.3-0.243-0.695-0.243-1.183v-5.73h-1.607v-1.784h1.607V14.24h2.653v2.912H97.816z"
				/>
			<path fill="#E43367" d="M98.539,19.904c0.236-0.632,0.573-1.171,1.008-1.615c0.437-0.445,0.959-0.789,1.57-1.033
				s1.296-0.366,2.056-0.366s1.448,0.122,2.065,0.366c0.617,0.244,1.142,0.589,1.579,1.033c0.436,0.445,0.772,0.983,1.009,1.615
				c0.236,0.632,0.354,1.337,0.354,2.113c0,0.777-0.118,1.478-0.354,2.105c-0.237,0.626-0.574,1.161-1.009,1.606
				c-0.437,0.445-0.962,0.786-1.579,1.023c-0.617,0.238-1.305,0.357-2.065,0.357s-1.445-0.119-2.056-0.357
				c-0.611-0.237-1.133-0.579-1.57-1.023c-0.436-0.445-0.772-0.98-1.008-1.606c-0.237-0.627-0.355-1.328-0.355-2.105
				C98.184,21.241,98.302,20.537,98.539,19.904z M100.949,23.154c0.075,0.369,0.202,0.702,0.383,0.996
				c0.18,0.294,0.421,0.529,0.719,0.704c0.299,0.176,0.673,0.263,1.121,0.263s0.825-0.087,1.13-0.263
				c0.305-0.175,0.548-0.41,0.729-0.704c0.18-0.294,0.308-0.627,0.382-0.996c0.075-0.368,0.112-0.748,0.112-1.136
				c0-0.387-0.037-0.77-0.112-1.146c-0.074-0.375-0.202-0.707-0.382-0.995c-0.181-0.288-0.424-0.523-0.729-0.705
				c-0.305-0.181-0.682-0.272-1.13-0.272s-0.822,0.091-1.121,0.272c-0.298,0.182-0.539,0.417-0.719,0.705
				c-0.181,0.288-0.308,0.62-0.383,0.995c-0.075,0.376-0.112,0.758-0.112,1.146C100.837,22.406,100.874,22.785,100.949,23.154z"/>
			<path fill="#E43367" d="M111.661,17.152v1.803h0.037c0.125-0.3,0.293-0.579,0.505-0.836c0.212-0.256,0.455-0.476,0.729-0.657
				s0.567-0.322,0.878-0.423c0.311-0.1,0.636-0.15,0.972-0.15c0.174,0,0.366,0.032,0.579,0.094v2.48
				c-0.124-0.025-0.274-0.047-0.449-0.066c-0.174-0.019-0.342-0.029-0.505-0.029c-0.486,0-0.896,0.082-1.233,0.244
				c-0.336,0.163-0.608,0.385-0.813,0.667c-0.205,0.282-0.352,0.611-0.44,0.987c-0.087,0.375-0.13,0.783-0.13,1.22v4.377h-2.653
				v-9.712H111.661z"/>
			<path fill="#E43367" d="M118.668,24.534c0.398,0.388,0.972,0.583,1.719,0.583c0.536,0,0.996-0.134,1.383-0.403
				c0.386-0.269,0.623-0.555,0.71-0.855h2.336c-0.373,1.164-0.946,1.997-1.719,2.498c-0.772,0.502-1.706,0.752-2.802,0.752
				c-0.76,0-1.445-0.122-2.056-0.366c-0.611-0.244-1.127-0.592-1.551-1.042c-0.424-0.452-0.75-0.989-0.981-1.616
				c-0.23-0.626-0.345-1.315-0.345-2.067c0-0.726,0.118-1.402,0.355-2.028c0.236-0.626,0.573-1.168,1.009-1.625
				c0.436-0.457,0.955-0.817,1.56-1.08c0.604-0.263,1.274-0.394,2.008-0.394c0.822,0,1.538,0.16,2.149,0.479
				s1.111,0.748,1.504,1.287c0.392,0.538,0.676,1.152,0.85,1.841c0.175,0.689,0.237,1.409,0.187,2.16h-6.97
				C118.052,23.52,118.269,24.147,118.668,24.534z M121.667,19.425c-0.318-0.35-0.801-0.526-1.449-0.526
				c-0.424,0-0.775,0.073-1.055,0.216c-0.28,0.144-0.505,0.322-0.673,0.535c-0.168,0.213-0.286,0.439-0.354,0.676
				c-0.069,0.238-0.11,0.451-0.122,0.639h4.316C122.206,20.289,121.985,19.776,121.667,19.425z"/>
		</g>
	</g>
</g>
</svg>
