<?xml version="1.0" encoding="utf-8"?>
<!-- Generator: Adobe Illustrator 20.1.0, SVG Export Plug-In . SVG Version: 6.00 Build 0)  -->
<svg version="1.1" id="logos" xmlns="http://www.w3.org/2000/svg" xmlns:xlink="http://www.w3.org/1999/xlink" x="0px" y="0px"
	 viewBox="0 0 125 40" enable-background="new 0 0 125 40" xml:space="preserve">
<g>
	<g>
		<path fill="#3F3FFF" d="M24.134,0.71c-0.222,0-0.805,0.387-1.434,0.681c-0.411,0.192-1.102,0.472-1.899,0.708
			c-0.983,0.291-1.857,0.471-3.476,0.471c-1.341,0-2.947-0.237-4.911-0.735c-0.848-0.215-1.739-0.418-2.676-0.583
			C8.8,1.085,7.926,0.993,7.117,0.993c-1.209,0-2.369,0.133-3.476,0.4c-1.184,0.284-2.308,0.722-3.366,1.31
			C0.088,2.808,0,2.979,0,3.2v6.179c0,0.266,0.121,0.387,0.331,0.387c0.136,0,0.246-0.073,0.294-0.102
			c0.758-0.472,1.839-0.928,3.016-1.222C4.818,8.147,5.961,8,7.117,8C7.944,8,8.8,8.082,9.738,8.248
			c0.938,0.166,1.825,0.376,2.676,0.579c2.213,0.528,3.842,0.772,4.911,0.772c1.126,0,2.261-0.184,3.476-0.551
			C21.465,8.847,22.1,8.605,22.7,8.316c0.495-0.238,0.965-0.507,1.41-0.813c0.185-0.127,0.276-0.265,0.276-0.497V1.017
			C24.386,0.821,24.319,0.71,24.134,0.71"/>
		<path fill="#3F3FFF" d="M54.124,32.22H43.09c-0.883,0-1.582-0.257-2.097-0.772c-0.516-0.514-0.772-1.214-0.772-2.097V1.103
			c0-0.294-0.148-0.442-0.442-0.442h-6.29c-0.295,0-0.442,0.148-0.442,0.442v29.628c0,2.575,0.781,4.644,2.345,6.207
			c1.563,1.564,3.631,2.344,6.206,2.344h12.524c0.294,0,0.442-0.146,0.442-0.44v-6.18C54.566,32.368,54.418,32.22,54.124,32.22"/>
		<path fill="#3F3FFF" d="M93.765,9.959c-1.747-3.071-4.119-5.499-7.117-7.283C83.65,0.892,80.387,0,76.855,0
			c-3.531,0-6.805,0.892-9.821,2.675c-3.016,1.784-5.406,4.212-7.172,7.283c-1.765,3.071-2.648,6.41-2.648,10.013
			c0,3.642,0.883,6.99,2.648,10.042c1.766,3.053,4.156,5.481,7.172,7.283C70.05,39.099,73.324,40,76.855,40
			c3.531,0,6.795-0.891,9.793-2.676c2.998-1.784,5.37-4.211,7.117-7.283c1.747-3.07,2.621-6.428,2.621-10.07
			C96.386,16.368,95.513,13.03,93.765,9.959 M87.696,26.565c-1.122,2.042-2.639,3.661-4.552,4.855
			c-1.912,1.196-4.009,1.793-6.289,1.793c-2.244,0-4.341-0.606-6.29-1.821c-1.95-1.214-3.495-2.832-4.635-4.855
			c-1.14-2.023-1.71-4.211-1.71-6.566c0-2.317,0.57-4.496,1.71-6.538c1.14-2.041,2.685-3.659,4.635-4.855
			c1.949-1.194,4.045-1.793,6.29-1.793c2.28,0,4.377,0.599,6.289,1.793c1.913,1.196,3.429,2.805,4.552,4.828
			c1.121,2.024,1.683,4.212,1.683,6.565C89.379,22.326,88.818,24.524,87.696,26.565"/>
		<path fill="#3F3FFF" d="M23.945,14.675H8.552c-2.575,0-4.644,0.783-6.207,2.345C0.781,18.584,0,20.653,0,23.227V38.84
			c0,0.296,0.147,0.442,0.442,0.442h6.29c0.294,0,0.442-0.146,0.442-0.442V24.607c0-0.883,0.257-1.581,0.772-2.097
			c0.515-0.514,1.214-0.772,2.097-0.772h13.903c0.294,0,0.442-0.147,0.442-0.442v-6.18C24.386,14.823,24.239,14.675,23.945,14.675"
			/>
	</g>
	<rect x="0" y="0" fill="none" width="125" height="40"/>
</g>
</svg>
