<?xml version="1.0" encoding="utf-8"?>
<!-- Generator: Adobe Illustrator 16.0.0, SVG Export Plug-In . SVG Version: 6.00 Build 0)  -->
<!DOCTYPE svg PUBLIC "-//W3C//DTD SVG 1.1//EN" "http://www.w3.org/Graphics/SVG/1.1/DTD/svg11.dtd">
<svg version="1.1" id="Layer_2" xmlns="http://www.w3.org/2000/svg" xmlns:xlink="http://www.w3.org/1999/xlink" x="0px" y="0px"
	 width="125px" height="40px" viewBox="0 0 125 40" enable-background="new 0 0 125 40" xml:space="preserve">
<g>
	<path d="M43.9,16.3c-1.4-1.3-1.9-1.9-2.6-1.9c-0.3,0-0.9,0.3-0.9,0.8s0.2,0.6,0.8,1.1c0.3,0.2,0.7,0.6,1.2,1.1
		c-0.8,0-5.1,0.2-8.2,0.4c0.3-0.3,0.7-0.8,1.3-1.6c1.2-1.6,1.4-1.8,1.4-2.2c0-0.4-0.2-0.5-0.3-0.6c-0.4-0.3-1-0.3-1.5,0.5
		c-0.4,0.7-1.4,2.1-3.3,4c-0.3,0-0.6,0-0.7,0.1c-0.8,0.1-0.9,0.6-0.9,0.8c0,0.3,0.2,0.9,1,0.8c0.7-0.1,11.1-0.6,12.7-0.7
		c0.4,0.3,0.7,0.7,1.1,1.1c0.5,0.4,1.1,0.6,1.5,0.2c0.4-0.4,0.2-0.8-0.2-1.4S45.2,17.6,43.9,16.3z"/>
	<path d="M44.1,20.5c-0.6,0-11.3,0-11.3,0c-0.2,0-1,0.5-1,1.1c0,0.6,0,5.3,0,5.7s0.6,1,1.2,1c0.5,0,10.7,0,11,0
		c0.3,0,1.2-0.3,1.2-1.1c0-0.8,0-5.1,0-5.4S44.7,20.5,44.1,20.5z M43.3,26.2c0,0.2-0.3,0.4-0.5,0.4c-0.2,0-8.7,0-8.9,0
		c-0.2,0-0.3-0.1-0.3-0.3c0-0.2,0-3.7,0-3.9c0-0.2,0.1-0.3,0.3-0.3c0,0,8.8,0,9.1,0c0.3,0,0.4,0.2,0.4,0.4
		C43.3,22.6,43.3,25.9,43.3,26.2z"/>
	<path d="M51.3,15.6c0.8,0.8,1.3,1.3,1.7,1.3s0.9-0.3,0.9-0.6c0.1-0.3-0.2-0.9-1.1-1.6c-0.9-0.8-1.5-1.4-2.2-1.4
		c-0.4,0-0.9,0.4-0.9,0.9C49.8,14.5,50.5,14.8,51.3,15.6z"/>
	<path d="M50.7,19.5c0.5,0.4,1.1,0.9,1.5,1.2c0.4,0.3,0.9,0.5,1.3,0c0.5-0.5,0.2-1-0.3-1.5c-0.6-0.5-1.9-1.6-2.5-1.6
		c-0.3,0-0.9,0.2-0.9,0.8S50.2,19.1,50.7,19.5z"/>
	<path d="M57.4,17.5c0.1-0.3,0.2-1.1-0.8-1.1c-0.5,0-0.6,0.4-1.4,1c-0.9,0.7-1.5,1.1-1.5,1.5s0.2,0.8,0.9,0.8S56.9,18.2,57.4,17.5z"
		/>
	<path d="M64.7,23.7c-1,0-8,0-8.1,0c-0.1,0-0.2,0-0.2-0.4c0-0.3,0.1-0.4,0.2-0.4s6.8,0,7.2,0s1.4-0.5,1.4-1.4c0-0.5,0-0.7,0-1
		s-0.5-1.2-1.1-1.2c-0.2,0-0.7,0-1.4,0V16c1.8,0,3.2,0,3.3,0c0.3,0,0.9-0.2,0.9-0.8c0-0.5-0.5-0.8-0.9-0.8c-0.3,0-3.1,0-4.9,0
		c-0.1-0.2-0.2-0.6-0.4-0.9c-0.2-0.5-0.6-0.6-0.9-0.6c-0.3,0-0.9,0.3-0.9,0.7c0,0.3,0.1,0.6,0.2,0.8c-1.2,0-4.2,0-4.5,0
		c-0.3,0-0.8,0.1-0.8,0.8c0,0.5,0.4,0.7,0.8,0.7c0.2,0,1.5,0,3.2,0v3.3c-1.2,0-2.1,0-2.1,0c-0.3,0-0.7,0.3-0.7,0.7
		c0,0.4,0.5,0.7,0.7,0.7c0.3,0,7.1,0,7.3,0c0.2,0,0.3,0.2,0.3,0.4c0,0.2-0.2,0.3-0.3,0.3s-6.8,0-7.2,0c-0.3,0-1.1,0.2-1.3,1.2
		c-0.1,1-0.2,1.7,0.1,2c0.3,0.4,0.8,0.5,1.1,0.5s7.8,0,8.1,0c0.2,0,0.3,0.1,0.3,0.3s-0.2,1.2-2.4,1.2c-1.1,0-1.5,0-1.9,0
		c-0.4,0-2.6-0.2-4.1-0.5c-0.5,0-1,0.2-1,0.8c0.1,0.5,0.5,0.7,1.4,0.9c0.9,0.2,2.8,0.4,5.1,0.3c2.3-0.1,3.7-0.6,4.1-1.3
		c0.4-0.7,0.5-1.5,0.5-2.1C66.1,24.1,65.7,23.7,64.7,23.7z M59.7,16c0.5,0,0.9,0,1.4,0v3.3c-0.5,0-0.9,0-1.4,0V16z"/>
	<path d="M53.1,21.6c-0.5,0-0.8,0.2-1,0.8c-0.1,0.6-0.3,2.1-2,4.4c-0.5,0.6-0.4,1-0.1,1.3c0.4,0.3,1,0.3,1.4-0.1
		c0.4-0.4,2.1-2.7,2.4-5.4C54,22,53.8,21.6,53.1,21.6z"/>
	<path d="M65.3,17c-0.4-0.3-0.7-0.4-1-0.4c-0.2,0-0.9,0.3-0.8,0.8c0,0.5,0.4,0.6,0.9,1c0.5,0.4,1.1,1,1.4,1.2
		c0.3,0.2,0.9,0.2,1.2-0.1c0.2-0.4,0.2-0.7-0.3-1.2C66.1,17.6,65.6,17.3,65.3,17z"/>
	<path d="M85,26.1c-0.6-0.4-2.7-1.8-3.9-3.5c-1.1-1.6-1.6-2.4-2-4.3c3.1,0,5.9,0,6,0c0.2,0,0.8-0.3,0.8-0.8c0-0.5-0.4-0.9-0.7-0.9
		c-0.1,0-3.1,0-6.3,0c0-0.3,0-2.3,0-2.6c0-0.3-0.2-0.9-1-0.9c-0.4,0-0.9,0.3-0.9,0.8s0,2,0,2.5c0,0,0,0.1,0,0.1c-3.3,0-6.3,0-6.3,0
		c-0.4,0-0.8,0.3-0.8,0.9c0,0.5,0.5,0.8,0.9,0.8c0.2,0,2.9,0,6,0c-0.3,1.2-0.8,2.9-2,4.5c-1.8,2.5-4.4,3.6-4.7,3.7
		c-0.4,0.2-0.6,0.9-0.3,1.2c0.3,0.3,0.7,0.5,1.5,0.2c0.8-0.3,5-2.3,6.8-7.4c0,0,1.2,2.9,3.4,5c2.2,2,3.2,2.7,3.8,2.7
		c0.6,0,1-0.4,1-0.9C86.2,26.8,85.7,26.5,85,26.1z"/>
	<path d="M122.5,26.1c-0.7-0.4-2.7-1.8-3.9-3.5c-1.1-1.6-1.6-2.4-2-4.3c3.1,0,5.9,0,6,0c0.2,0,0.8-0.3,0.8-0.8
		c0-0.5-0.4-0.9-0.7-0.9c-0.1,0-3.1,0-6.3,0c0-0.3,0-2.3,0-2.6c0-0.3-0.2-0.9-1-0.9c-0.4,0-0.9,0.3-0.9,0.8s0,2,0,2.5
		c0,0,0,0.1,0,0.1c-3.3,0-6.3,0-6.3,0c-0.4,0-0.8,0.3-0.8,0.9c0,0.5,0.5,0.8,0.9,0.8c0.2,0,2.9,0,6,0c-0.3,1.2-0.8,2.9-2,4.5
		c-1.8,2.5-4.4,3.6-4.7,3.7c-0.4,0.2-0.6,0.9-0.3,1.2c0.3,0.3,0.7,0.5,1.5,0.2c0.8-0.3,5-2.3,6.8-7.4c0,0,1.2,2.9,3.4,5
		c2.2,2,3.2,2.7,3.8,2.7s1-0.4,1-0.9C123.7,26.8,123.1,26.5,122.5,26.1z"/>
</g>
<path d="M89.6,13.5c-0.3,0-0.7,0.3-0.7,0.8c0,0.5,0.4,0.8,0.6,0.8s14.3,0,14.5,0c0.2,0,0.7-0.2,0.7-0.8c0-0.4-0.4-0.7-0.7-0.7
	C103.7,13.5,89.6,13.5,89.6,13.5z"/>
<path d="M101.2,14.8c0,0,0,3.3,0,3.4c0,0.1-0.1,0.2-0.2,0.2c-0.1,0-0.5,0-0.7,0s-0.6,0.2-0.6,0.9c0,0.6,0.6,0.8,1.4,0.8
	c0.8,0,1.9-0.3,1.9-1.7c0-1.4,0-3.8,0-3.8L101.2,14.8z"/>
<path d="M88.8,20.4c-0.3,0-0.7,0.3-0.7,0.8c0,0.5,0.4,0.8,0.6,0.8s15.5,0,15.6,0s0.7-0.2,0.7-0.8c0-0.4-0.4-0.7-0.7-0.7
	C104.1,20.4,88.8,20.4,88.8,20.4z"/>
<path d="M101,21.7c0,0,0,4.7,0,4.8c0,0.1-0.1,0.2-0.2,0.2c-0.8,0.1-1.5-0.3-2.1-0.1c-0.2,0.1-0.7,0.3-0.6,0.9c0,0.3,0.4,0.6,0.9,0.7
	c0.6,0.1,1.4,0.2,1.8,0.2c0.8,0,1.8-0.4,1.8-1.6c0-1.4,0-5.2,0-5.2L101,21.7z"/>
<path d="M98.7,15.7c-0.9,0-7.1,0-7.1,0c-0.5,0-1,0.5-1,0.9c0,0.4,0,1.9,0,2.2c0,0.3,0.4,1,0.9,1c0.5,0,6.8,0,7.3,0
	c0.5,0,1.1-0.5,1.1-1.2s0-1.4,0-1.7S99.6,15.7,98.7,15.7z M97.8,18.4c-0.2,0-4.9,0-5.2,0c-0.2,0-0.4-0.2-0.4-0.3c0-0.2,0-0.4,0-0.6
	c0-0.2,0.2-0.4,0.4-0.4c0,0,4.4,0,4.9,0c0.5,0,0.6,0.2,0.6,0.7C98.2,18.3,98,18.4,97.8,18.4z"/>
<path d="M98.6,22.5c-0.9,0-7.1,0-7.1,0c-0.5,0-1,0.5-1,0.9s0,2.3,0,2.5c0,0.3,0.4,1,0.9,1s6.8,0,7.3,0c0.5,0,1.2-0.5,1.2-1.2
	c0-0.8,0-1.7,0-2.1S99.5,22.5,98.6,22.5z M97.8,25.6c-0.2,0-5,0-5.3,0c-0.2,0-0.4-0.2-0.4-0.3s0-0.7,0-0.9s0.2-0.4,0.4-0.4
	c0,0,4.5,0,5,0c0.5,0,0.6,0.2,0.6,0.7C98.2,25.5,97.9,25.6,97.8,25.6z"/>
<g>
	<linearGradient id="SVGID_1_" gradientUnits="userSpaceOnUse" x1="1.6436" y1="26.5557" x2="1.6689" y2="26.5557">
		<stop  offset="0" style="stop-color:#FFFFFF"/>
		<stop  offset="1" style="stop-color:#000000"/>
	</linearGradient>
	<path fill="url(#SVGID_1_)" d="M1.7,26.5L1.7,26.5L1.7,26.5L1.7,26.5C1.7,26.6,1.7,26.6,1.7,26.5z"/>
	<linearGradient id="SVGID_2_" gradientUnits="userSpaceOnUse" x1="12.4512" y1="7.7383" x2="12.4565" y2="7.7383">
		<stop  offset="0" style="stop-color:#FFFFFF"/>
		<stop  offset="1" style="stop-color:#000000"/>
	</linearGradient>
	<rect x="12.5" y="7.7" fill="url(#SVGID_2_)" width="0" height="0"/>
	<linearGradient id="SVGID_3_" gradientUnits="userSpaceOnUse" x1="12.5332" y1="32.7471" x2="12.5439" y2="32.7471">
		<stop  offset="0" style="stop-color:#FFFFFF"/>
		<stop  offset="1" style="stop-color:#000000"/>
	</linearGradient>
	<polygon fill="url(#SVGID_3_)" points="12.5,32.8 12.5,32.7 12.5,32.7 	"/>
	<linearGradient id="SVGID_4_" gradientUnits="userSpaceOnUse" x1="23.353" y1="13.9146" x2="23.3545" y2="13.9146">
		<stop  offset="0" style="stop-color:#FFFFFF"/>
		<stop  offset="1" style="stop-color:#000000"/>
	</linearGradient>
	<polygon fill="url(#SVGID_4_)" points="23.4,13.9 23.4,13.9 23.4,13.9 	"/>
	<linearGradient id="SVGID_5_" gradientUnits="userSpaceOnUse" x1="1.5981" y1="14.002" x2="1.6045" y2="14.002">
		<stop  offset="0" style="stop-color:#FFFFFF"/>
		<stop  offset="1" style="stop-color:#000000"/>
	</linearGradient>
	<polygon fill="url(#SVGID_5_)" points="1.6,14 1.6,14 1.6,14 1.6,14 	"/>
	<linearGradient id="SVGID_6_" gradientUnits="userSpaceOnUse" x1="23.3838" y1="26.5273" x2="23.4326" y2="26.5273">
		<stop  offset="0" style="stop-color:#FFFFFF"/>
		<stop  offset="1" style="stop-color:#000000"/>
	</linearGradient>
	<polygon fill="url(#SVGID_6_)" points="23.4,26.5 23.4,26.5 23.4,26.5 	"/>
	<linearGradient id="SVGID_7_" gradientUnits="userSpaceOnUse" x1="18.3843" y1="25.4277" x2="23.7251" y2="23.042">
		<stop  offset="0" style="stop-color:#00A0C6"/>
		<stop  offset="1" style="stop-color:#67C6DD"/>
	</linearGradient>
	<polygon fill="url(#SVGID_7_)" points="22.5,20.2 17.6,28.8 17.6,28.8 23.4,26.5 23.4,26.5 	"/>
	<linearGradient id="SVGID_8_" gradientUnits="userSpaceOnUse" x1="20.2549" y1="13.6187" x2="21.2324" y2="8.194">
		<stop  offset="0.1495" style="stop-color:#5F8F13"/>
		<stop  offset="0.2644" style="stop-color:#79A712"/>
		<stop  offset="0.461" style="stop-color:#A2CD11"/>
		<stop  offset="0.5629" style="stop-color:#B1DB10"/>
	</linearGradient>
	<polygon fill="url(#SVGID_8_)" points="17.5,11.7 23.4,13.9 23.4,13.9 18.8,9.4 17.5,11.7 	"/>
	<linearGradient id="SVGID_9_" gradientUnits="userSpaceOnUse" x1="22.4624" y1="23.4121" x2="25.5699" y2="23.1872">
		<stop  offset="0.1957" style="stop-color:#075FA6"/>
		<stop  offset="0.7044" style="stop-color:#32AFCF"/>
		<stop  offset="0.8242" style="stop-color:#34B3D1"/>
	</linearGradient>
	<polygon fill="url(#SVGID_9_)" points="23.4,26.5 23.4,26.5 25.1,20.3 25.1,20.2 22.5,20.2 	"/>
	<linearGradient id="SVGID_10_" gradientUnits="userSpaceOnUse" x1="17.4673" y1="15.9736" x2="23.3703" y2="15.9736">
		<stop  offset="0.2292" style="stop-color:#66B820"/>
		<stop  offset="0.4872" style="stop-color:#94CD16"/>
		<stop  offset="0.7452" style="stop-color:#BDE00E"/>
		<stop  offset="0.8786" style="stop-color:#CCE70B"/>
	</linearGradient>
	<polygon fill="url(#SVGID_10_)" points="22.5,20.2 23.4,13.9 23.4,13.9 17.5,11.7 	"/>
	<linearGradient id="SVGID_11_" gradientUnits="userSpaceOnUse" x1="7.5859" y1="28.834" x2="7.5859" y2="28.834">
		<stop  offset="0" style="stop-color:#FFFFFF"/>
		<stop  offset="1" style="stop-color:#000000"/>
	</linearGradient>
	<polygon fill="url(#SVGID_11_)" points="7.6,28.8 7.6,28.8 7.6,28.8 	"/>
	<linearGradient id="SVGID_12_" gradientUnits="userSpaceOnUse" x1="7.498" y1="11.6973" x2="7.498" y2="11.6973">
		<stop  offset="0" style="stop-color:#FFFFFF"/>
		<stop  offset="1" style="stop-color:#000000"/>
	</linearGradient>
	<polygon fill="url(#SVGID_12_)" points="7.5,11.7 7.5,11.7 7.5,11.7 	"/>
	<linearGradient id="SVGID_13_" gradientUnits="userSpaceOnUse" x1="17.4478" y1="11.6919" x2="17.4673" y2="11.6919">
		<stop  offset="0" style="stop-color:#FFFFFF"/>
		<stop  offset="1" style="stop-color:#000000"/>
	</linearGradient>
	<polygon fill="url(#SVGID_13_)" points="17.5,11.7 17.4,11.7 17.5,11.7 	"/>
	<linearGradient id="SVGID_14_" gradientUnits="userSpaceOnUse" x1="14.6958" y1="11.5996" x2="16.5305" y2="5.5503">
		<stop  offset="0.1918" style="stop-color:#FE9901"/>
		<stop  offset="0.5297" style="stop-color:#FDFF00"/>
	</linearGradient>
	<polygon fill="url(#SVGID_14_)" points="18.8,9.4 18.8,9.4 12.5,7.7 17.5,11.7 	"/>
	<linearGradient id="SVGID_15_" gradientUnits="userSpaceOnUse" x1="17.5693" y1="28.8262" x2="17.585" y2="28.8262">
		<stop  offset="0" style="stop-color:#FFFFFF"/>
		<stop  offset="1" style="stop-color:#000000"/>
	</linearGradient>
	<polygon fill="url(#SVGID_15_)" points="17.6,28.8 17.6,28.8 17.6,28.8 	"/>
	<linearGradient id="SVGID_16_" gradientUnits="userSpaceOnUse" x1="22.459" y1="17.083" x2="25.0825" y2="17.083">
		<stop  offset="9.905923e-002" style="stop-color:#3D6E14"/>
		<stop  offset="0.3741" style="stop-color:#528113"/>
		<stop  offset="0.8915" style="stop-color:#82AE12"/>
	</linearGradient>
	<polygon fill="url(#SVGID_16_)" points="25.1,20.2 23.4,13.9 22.5,20.2 	"/>
	<linearGradient id="SVGID_17_" gradientUnits="userSpaceOnUse" x1="7.498" y1="9.7178" x2="17.4536" y2="9.7178">
		<stop  offset="0.4062" style="stop-color:#FFFF66"/>
		<stop  offset="0.4778" style="stop-color:#FFF34F"/>
		<stop  offset="0.602" style="stop-color:#FFE22D"/>
		<stop  offset="0.72" style="stop-color:#FFD614"/>
		<stop  offset="0.8279" style="stop-color:#FFCF05"/>
		<stop  offset="0.9165" style="stop-color:#FFCC00"/>
	</linearGradient>
	<polygon fill="url(#SVGID_17_)" points="17.4,11.7 17.5,11.7 12.5,7.7 12.5,7.7 12.5,7.7 7.5,11.7 	"/>
	<linearGradient id="SVGID_18_" gradientUnits="userSpaceOnUse" x1="14.019" y1="30.2334" x2="18.2969" y2="32.5031">
		<stop  offset="0.3313" style="stop-color:#0F218B"/>
		<stop  offset="0.7616" style="stop-color:#0571B0"/>
	</linearGradient>
	<polygon fill="url(#SVGID_18_)" points="17.6,28.8 12.5,32.7 12.6,32.8 18.9,31.1 18.9,31.1 17.6,28.8 	"/>
	<linearGradient id="SVGID_19_" gradientUnits="userSpaceOnUse" x1="0" y1="23.3896" x2="2.6338" y2="23.3896">
		<stop  offset="0.3703" style="stop-color:#FF0000"/>
		<stop  offset="0.767" style="stop-color:#B20100"/>
	</linearGradient>
	<path fill="url(#SVGID_19_)" d="M0,20.2L0,20.2c0,0.1,1.4,5.7,1.6,6.3l1-6.3H0z"/>
	<linearGradient id="SVGID_20_" gradientUnits="userSpaceOnUse" x1="2.1143" y1="23.3955" x2="7.3409" y2="26.2085">
		<stop  offset="0.1959" style="stop-color:#FB6747"/>
		<stop  offset="0.9704" style="stop-color:#FF0201"/>
	</linearGradient>
	<path fill="url(#SVGID_20_)" d="M2.6,20.2L2.6,20.2l-1,6.3c0,0,0,0,0,0.1l0,0l5.9,2.3L2.6,20.2z"/>
	<linearGradient id="SVGID_21_" gradientUnits="userSpaceOnUse" x1="2.392578e-002" y1="17.1289" x2="2.6343" y2="17.1289">
		<stop  offset="0" style="stop-color:#FF5500"/>
		<stop  offset="1" style="stop-color:#FF3300"/>
	</linearGradient>
	<polygon fill="url(#SVGID_21_)" points="2.6,20.2 1.6,14 0,20.2 2.6,20.2 	"/>
	<linearGradient id="SVGID_22_" gradientUnits="userSpaceOnUse" x1="10.7495" y1="30.2959" x2="6.6338" y2="33.2417">
		<stop  offset="0.171" style="stop-color:#0F218B"/>
		<stop  offset="0.465" style="stop-color:#0571B0"/>
	</linearGradient>
	<polygon fill="url(#SVGID_22_)" points="6.3,31.2 12.5,32.7 7.6,28.8 	"/>
	<linearGradient id="SVGID_23_" gradientUnits="userSpaceOnUse" x1="3.9277" y1="31.4678" x2="5.0092" y2="25.6503">
		<stop  offset="0.3604" style="stop-color:#FF0000"/>
		<stop  offset="0.5651" style="stop-color:#B20100"/>
	</linearGradient>
	<polygon fill="url(#SVGID_23_)" points="7.6,28.8 1.7,26.6 6.2,31.1 6.3,31.2 7.6,28.8 	"/>
	<linearGradient id="SVGID_24_" gradientUnits="userSpaceOnUse" x1="7.5859" y1="30.791" x2="17.5693" y2="30.791">
		<stop  offset="0.1758" style="stop-color:#34B3D1"/>
		<stop  offset="0.2956" style="stop-color:#32AFCF"/>
		<stop  offset="0.5194" style="stop-color:#2291C0"/>
		<stop  offset="0.833" style="stop-color:#0E6DAD"/>
		<stop  offset="1" style="stop-color:#075FA6"/>
	</linearGradient>
	<polygon fill="url(#SVGID_24_)" points="7.6,28.8 7.6,28.8 12.5,32.7 12.5,32.7 17.6,28.8 	"/>
	<linearGradient id="SVGID_25_" gradientUnits="userSpaceOnUse" x1="19.2061" y1="31.7275" x2="20.9558" y2="26.1995">
		<stop  offset="0.1758" style="stop-color:#34B3D1"/>
		<stop  offset="0.2956" style="stop-color:#32AFCF"/>
		<stop  offset="0.8043" style="stop-color:#075FA6"/>
	</linearGradient>
	<polygon fill="url(#SVGID_25_)" points="18.9,31.1 23.4,26.5 17.6,28.8 	"/>
	<linearGradient id="SVGID_26_" gradientUnits="userSpaceOnUse" x1="9.8022" y1="11.1572" x2="8.8782" y2="6.4244">
		<stop  offset="0.1429" style="stop-color:#FE9901"/>
		<stop  offset="0.3292" style="stop-color:#FEC001"/>
		<stop  offset="0.653" style="stop-color:#FDFF00"/>
	</linearGradient>
	<polygon fill="url(#SVGID_26_)" points="7.5,11.7 12.5,7.7 6.2,9.4 6.1,9.4 7.5,11.7 	"/>
	<linearGradient id="SVGID_27_" gradientUnits="userSpaceOnUse" x1="2.2583" y1="16.9629" x2="6.1584" y2="12.538">
		<stop  offset="0.1916" style="stop-color:#FFCB00"/>
		<stop  offset="0.8621" style="stop-color:#FE6602"/>
	</linearGradient>
	<polygon fill="url(#SVGID_27_)" points="7.5,11.7 7.5,11.7 1.6,14 1.6,14 1.6,14 2.6,20.2 	"/>
	<linearGradient id="SVGID_28_" gradientUnits="userSpaceOnUse" x1="2.6338" y1="20.2476" x2="2.6362" y2="20.2476">
		<stop  offset="0" style="stop-color:#FFFFFF"/>
		<stop  offset="1" style="stop-color:#000000"/>
	</linearGradient>
	<polygon fill="url(#SVGID_28_)" points="2.6,20.2 2.6,20.2 2.6,20.2 	"/>
	<linearGradient id="SVGID_29_" gradientUnits="userSpaceOnUse" x1="4.8315" y1="13.668" x2="2.9319" y2="8.0906">
		<stop  offset="0.1557" style="stop-color:#FD3400"/>
		<stop  offset="0.5327" style="stop-color:#FF9500"/>
	</linearGradient>
	<polygon fill="url(#SVGID_29_)" points="6.1,9.4 1.6,14 7.5,11.7 	"/>
	<linearGradient id="SVGID_30_" gradientUnits="userSpaceOnUse" x1="13.0869" y1="20.0327" x2="20.0715" y2="15.9037">
		<stop  offset="0" style="stop-color:#B0D911"/>
		<stop  offset="0.8719" style="stop-color:#3C6E12"/>
	</linearGradient>
	<polygon fill="url(#SVGID_30_)" points="17.4,11.7 12.5,20.2 12.5,20.2 22.5,20.2 17.5,11.7 	"/>
	<linearGradient id="SVGID_31_" gradientUnits="userSpaceOnUse" x1="12.5825" y1="29.0898" x2="12.5825" y2="20.2787">
		<stop  offset="0.1379" style="stop-color:#0F218B"/>
		<stop  offset="0.187" style="stop-color:#0E298F"/>
		<stop  offset="0.4059" style="stop-color:#0A489D"/>
		<stop  offset="0.6186" style="stop-color:#075FA8"/>
		<stop  offset="0.8205" style="stop-color:#066CAE"/>
		<stop  offset="1" style="stop-color:#0571B0"/>
	</linearGradient>
	<polygon fill="url(#SVGID_31_)" points="12.5,20.2 7.6,28.8 17.6,28.8 17.6,28.8 12.5,20.2 	"/>
	<linearGradient id="SVGID_32_" gradientUnits="userSpaceOnUse" x1="12.7573" y1="20.5044" x2="20.3761" y2="24.7317">
		<stop  offset="0" style="stop-color:#34B3D2"/>
		<stop  offset="0.7586" style="stop-color:#0860A8"/>
	</linearGradient>
	<polygon fill="url(#SVGID_32_)" points="17.6,28.8 22.5,20.2 12.5,20.2 	"/>
	<linearGradient id="SVGID_33_" gradientUnits="userSpaceOnUse" x1="12.4731" y1="20.5835" x2="12.4731" y2="10.6336">
		<stop  offset="0.3077" style="stop-color:#FDFF00"/>
		<stop  offset="0.5024" style="stop-color:#FECB01"/>
		<stop  offset="0.6635" style="stop-color:#FEA701"/>
		<stop  offset="0.7491" style="stop-color:#FE9901"/>
	</linearGradient>
	<polygon fill="url(#SVGID_33_)" points="17.4,11.7 7.5,11.7 7.5,11.7 12.5,20.2 	"/>
	<linearGradient id="SVGID_34_" gradientUnits="userSpaceOnUse" x1="3.1704" y1="25.6826" x2="11.6938" y2="20.6668">
		<stop  offset="0.2709" style="stop-color:#B30000"/>
		<stop  offset="0.798" style="stop-color:#FF0000"/>
	</linearGradient>
	<polygon fill="url(#SVGID_34_)" points="2.6,20.2 7.6,28.8 7.6,28.8 12.5,20.2 	"/>
	<linearGradient id="SVGID_35_" gradientUnits="userSpaceOnUse" x1="3.9395" y1="15.3613" x2="12.1735" y2="19.8311">
		<stop  offset="0.2033" style="stop-color:#FC3300"/>
		<stop  offset="0.7377" style="stop-color:#FF9201"/>
		<stop  offset="0.8075" style="stop-color:#FF9901"/>
	</linearGradient>
	<polygon fill="url(#SVGID_35_)" points="12.5,20.2 7.5,11.7 2.6,20.2 2.6,20.2 12.5,20.2 	"/>
	<linearGradient id="SVGID_36_" gradientUnits="userSpaceOnUse" x1="12.5264" y1="20.2461" x2="12.5337" y2="20.2461">
		<stop  offset="0" style="stop-color:#FFFFFF"/>
		<stop  offset="1" style="stop-color:#000000"/>
	</linearGradient>
	<polygon fill="url(#SVGID_36_)" points="12.5,20.2 12.5,20.2 12.5,20.2 	"/>
</g>
</svg>
