<?xml version="1.0" encoding="utf-8"?>
<!-- Generator: Adobe Illustrator 21.1.0, SVG Export Plug-In . SVG Version: 6.00 Build 0)  -->
<svg version="1.1" xmlns="http://www.w3.org/2000/svg" xmlns:xlink="http://www.w3.org/1999/xlink" x="0px" y="0px"
	 viewBox="0 0 125 40" enable-background="new 0 0 125 40" xml:space="preserve">
<g id="bg" display="none">
	<rect display="inline" fill="#FFFFFF" width="125" height="40"/>
</g>
<g id="icons">
	<g>
		<linearGradient id="SVGID_1_" gradientUnits="userSpaceOnUse" x1="-1.116243e-06" y1="25.7306" x2="37.7492" y2="25.7306">
			<stop  offset="0" style="stop-color:#0195FF"/>
			<stop  offset="1" style="stop-color:#3E68FF"/>
		</linearGradient>
		<path fill="url(#SVGID_1_)" d="M32.404,14.033c-1.368-0.628-2.821-0.875-4.31-0.951c-2.097-0.106-4.114,0.207-5.944,1.29
			c-0.778,0.46-1.486,1.039-2.253,1.583c-1.611-1.816-3.704-2.755-6.188-2.89c-2.484-0.135-4.701,0.499-6.604,2.285
			c0-0.631,0-1.155,0-1.701c-2.364,0-4.702,0-7.068,0c-0.006,0.115-0.016,0.222-0.016,0.329C0.013,20.99,0.005,28.003,0,35.015
			c-0.001,1.92,1.439,3.364,3.358,3.372c1.167,0.005,2.334,0.002,3.5,0.002c0.104,0,0.209-0.009,0.328-0.014
			c0-0.161,0-0.281,0-0.401C7.19,33.924,7.191,29.872,7.2,25.821c0.002-0.961,0.059-1.916,0.322-2.852
			c0.47-1.676,1.498-3.089,3.584-3.248c1.701-0.129,3.185,0.567,3.836,2.363c0.29,0.799,0.36,1.628,0.359,2.468
			c-0.003,3.501-0.011,7.001-0.008,10.502c0.002,1.916,1.422,3.333,3.342,3.344c1.167,0.007,2.333,0.003,3.5,0.002
			c0.096,0,0.193-0.008,0.324-0.014c0-0.134,0-0.252,0-0.37c0.004-4.194,0-8.389,0.02-12.583c0.003-0.678,0.061-1.367,0.187-2.033
			c0.472-2.49,2.153-3.841,4.54-3.65c1.372,0.11,2.359,0.812,2.916,2.085c0.397,0.908,0.464,1.869,0.462,2.844
			c-0.007,3.49-0.013,6.979-0.006,10.469c0.003,1.797,1.427,3.233,3.223,3.256c1.244,0.016,2.488,0.004,3.732,0.002
			c0.062,0,0.125-0.016,0.198-0.026c0.005-0.1,0.014-0.187,0.014-0.274c0.003-4.833,0.01-9.665,0.006-14.498
			c-0.001-1.171-0.145-2.329-0.442-3.463C36.58,17.383,35.06,15.253,32.404,14.033z"/>
		<linearGradient id="SVGID_2_" gradientUnits="userSpaceOnUse" x1="92.4897" y1="20" x2="125" y2="20">
			<stop  offset="0" style="stop-color:#9D27DE"/>
			<stop  offset="1" style="stop-color:#CD0AB8"/>
		</linearGradient>
		<path fill="url(#SVGID_2_)" d="M111.854,0.961c0,4.611,0,9.198,0,13.866c-0.178-0.084-0.285-0.131-0.388-0.184
			c-2.688-1.361-5.497-1.809-8.479-1.23c-1.329,0.258-2.566,0.707-3.752,1.335c-1.923,1.017-3.456,2.465-4.64,4.274
			c-1.655,2.529-2.325,5.314-2.044,8.325c0.25,2.673,1.261,5.03,2.981,7.076c1.765,2.099,3.987,3.514,6.646,4.185
			c3.728,0.941,7.218,0.324,10.446-1.755c1.499-0.965,2.704-2.235,3.678-3.718c1.416-2.155,2.092-4.54,2.097-7.112
			c0.011-5.735,0.01-11.471,0.014-17.207c0-0.139,0-0.278,0-0.46c2.228,0,4.411,0,6.586,0c0-2.492,0-4.942,0-7.397
			C120.612,0.961,116.248,0.961,111.854,0.961z M105.42,32.473c-3.572-0.023-6.404-2.855-6.398-6.473
			c0.006-3.438,2.904-6.297,6.429-6.28c3.426-0.034,6.405,2.768,6.393,6.394C111.83,29.689,108.896,32.495,105.42,32.473z"/>
		<linearGradient id="SVGID_3_" gradientUnits="userSpaceOnUse" x1="40.8388" y1="26.0725" x2="63.8774" y2="26.0725">
			<stop  offset="0" style="stop-color:#4861FF"/>
			<stop  offset="1" style="stop-color:#6C46FF"/>
		</linearGradient>
		<path fill="url(#SVGID_3_)" d="M56.664,31.828c-1.763,0-3.482,0.063-5.195-0.018c-1.668-0.079-2.719-0.943-3.165-2.478
			c-0.169-0.585-0.27-1.21-0.275-1.818c-0.026-2.983-0.009-5.967-0.008-8.95c0-1.607,0-3.213,0-4.856c-2.403,0-4.765,0-7.167,0
			c0,0.132,0,0.251,0,0.369c-0.005,4.514-0.009,9.027-0.015,13.541c-0.002,1.38,0.114,2.746,0.449,4.09
			c1.076,4.316,4.15,6.72,8.598,6.721c4.536,0.001,9.072,0.004,13.607,0.006c0.12,0,0.24,0,0.384,0c0-8.25,0-16.479,0-24.709
			c-2.401,0-4.784,0-7.213,0C56.664,19.775,56.664,25.801,56.664,31.828z"/>
		<linearGradient id="SVGID_4_" gradientUnits="userSpaceOnUse" x1="67.0145" y1="26.0948" x2="90.0317" y2="26.0948">
			<stop  offset="0" style="stop-color:#763FFD"/>
			<stop  offset="1" style="stop-color:#972BE3"/>
		</linearGradient>
		<path fill="url(#SVGID_4_)" d="M82.854,22.802c0,3.012,0,6.024,0,9.043c-0.104,0.012-0.158,0.024-0.21,0.024
			c-1.662-0.002-3.325,0.013-4.986-0.013c-1.48-0.023-2.632-0.904-3.153-2.294c-0.314-0.84-0.332-1.706-0.332-2.578
			c0-4.293,0.003-8.586,0.005-12.879c0-0.118,0-0.235,0-0.373c-2.396,0-4.757,0-7.153,0c0,0.132,0,0.251,0,0.369
			c-0.003,2.906-0.02,5.812-0.003,8.718c0.013,2.343-0.001,4.69,0.121,7.028c0.092,1.753,0.625,3.42,1.59,4.911
			c1.652,2.551,4.098,3.655,7.051,3.68c4.623,0.038,9.247,0.01,13.87,0.01c0.117,0,0.234,0,0.378,0c0-8.246,0-16.453,0-24.676
			c-2.386,0-4.767,0-7.178,0C82.854,16.796,82.854,19.799,82.854,22.802z"/>
	</g>
</g>
</svg>
