<?xml version="1.0" encoding="utf-8"?>
<!-- Generator: Adobe Illustrator 19.2.0, SVG Export Plug-In . SVG Version: 6.00 Build 0)  -->
<svg version="1.1" xmlns="http://www.w3.org/2000/svg" xmlns:xlink="http://www.w3.org/1999/xlink" x="0px" y="0px"
	 viewBox="0 0 125 40" enable-background="new 0 0 125 40" xml:space="preserve">
<g id="bg" display="none">
	<rect display="inline" fill="#FFFFFF" width="125" height="40"/>
</g>
<g id="icons">
	<g id="Claro_musica">
		<path fill-rule="evenodd" clip-rule="evenodd" fill="#242021" d="M71.663,30.669c-0.961,0-1.877,0-2.821,0
			c0-0.125,0-0.235,0-0.345c0-2.146,0.001-4.291-0.002-6.438c0-0.193-0.002-0.391-0.037-0.579c-0.207-1.085-0.951-1.629-2.071-1.529
			c-0.954,0.085-1.602,0.851-1.607,1.94c-0.008,2.115-0.002,4.231-0.002,6.346c0,0.193,0,0.386,0,0.599c-0.952,0-1.884,0-2.829,0
			c0-3.769,0-7.526,0-11.309c0.897,0,1.8,0,2.727,0c0,0.296,0,0.607,0,0.942c2.039-1.496,3.98-1.596,5.857,0.277
			c0.042-0.04,0.117-0.106,0.188-0.177c1.603-1.594,4.195-1.432,5.446-0.581c1.069,0.727,1.65,1.786,1.678,3.048
			c0.056,2.593,0.017,5.188,0.017,7.801c-0.921,0-1.845,0-2.804,0c0-0.11,0.001-0.219,0-0.328c-0.004-2.238,0.001-4.476-0.014-6.713
			c-0.006-0.87-0.479-1.533-1.211-1.77c-0.77-0.249-1.648-0.007-2.11,0.587c-0.322,0.417-0.404,0.907-0.405,1.415
			c-0.003,2.156-0.002,4.312-0.002,6.468C71.663,30.434,71.663,30.544,71.663,30.669z"/>
		<path fill-rule="evenodd" clip-rule="evenodd" fill="#E21E1B" d="M14.223,21.302c-0.961,0-1.89,0.007-2.818-0.011
			c-0.09-0.002-0.205-0.139-0.262-0.238c-0.723-1.258-1.771-2.063-3.213-2.318c-2.36-0.416-4.792,1.429-5.093,3.813
			c-0.336,2.658,1.244,4.289,2.732,4.918c1.831,0.774,4.229,0.288,5.494-1.897c0.166-0.287,0.34-0.382,0.663-0.371
			c0.826,0.025,1.653,0.008,2.585,0.008c-0.273,0.622-0.47,1.215-0.777,1.745c-1.327,2.287-3.306,3.528-5.972,3.677
			c-4.182,0.234-7.359-3.224-7.549-6.798c-0.175-3.28,1.543-6.284,4.462-7.45c4.227-1.689,8.509,0.651,9.718,4.73
			C14.206,21.158,14.208,21.209,14.223,21.302z"/>
		<path fill-rule="evenodd" clip-rule="evenodd" fill="#E21E1B" d="M23.19,22.751c-0.952,0-1.878,0-2.805,0
			c0.061-2.266,1.294-3.44,2.879-3.794c1.533-0.343,3.05-0.305,4.549,0.233c1.394,0.501,2.037,1.514,2.046,2.943
			c0.02,2.789,0.006,5.578,0.005,8.367c0,0.05-0.008,0.099-0.014,0.166c-0.936,0-1.861,0-2.812,0c0-0.351,0-0.705,0-1.112
			c-0.121,0.082-0.199,0.137-0.279,0.189c-1.381,0.902-2.889,1.167-4.478,0.773c-1.192-0.296-1.907-1.118-2.082-2.339
			c-0.158-1.096-0.084-2.168,0.639-3.088c0.58-0.738,1.4-1.084,2.279-1.272c0.956-0.204,1.927-0.344,2.893-0.501
			c0.52-0.085,0.881-0.39,0.934-0.823c0.06-0.487-0.186-0.943-0.656-1.128c-0.698-0.275-1.426-0.302-2.127-0.05
			C23.526,21.543,23.289,22.102,23.19,22.751z M26.875,24.997c-0.465,0.14-0.906,0.285-1.355,0.404
			c-0.491,0.131-0.999,0.209-1.484,0.359c-0.847,0.264-1.228,0.955-1.059,1.844c0.14,0.733,0.691,1.129,1.587,1.035
			c1.415-0.148,2.194-0.823,2.304-2.157C26.911,25.977,26.875,25.466,26.875,24.997z"/>
		<path fill-rule="evenodd" clip-rule="evenodd" fill="#E21E1B" d="M38.529,24.766c0.003-3.351,2.608-5.994,5.904-5.989
			c3.274,0.005,5.841,2.67,5.856,6.04c0.015,3.428-2.921,6.019-6.014,5.968C41.356,30.737,38.435,28.084,38.529,24.766z
			 M44.324,27.915c1.702,0.027,3.164-1.376,3.171-3.1c0.008-1.928-1.475-3.085-2.842-3.18c-2.075-0.145-3.298,1.62-3.352,3
			C41.238,26.266,42.619,27.928,44.324,27.915z"/>
		<path fill-rule="evenodd" clip-rule="evenodd" fill="#242021" d="M122.233,30.67c0-0.299,0-0.581,0-0.878
			c-0.051,0.017-0.084,0.018-0.102,0.036c-0.943,0.941-2.117,1.061-3.355,0.936c-0.947-0.095-1.811-0.405-2.388-1.201
			c-0.843-1.162-0.998-2.453-0.423-3.764c0.519-1.184,1.569-1.694,2.791-1.795c1.026-0.085,2.061-0.048,3.092-0.064
			c0.099-0.001,0.198,0,0.354,0c-0.039-0.419-0.044-0.807-0.117-1.181c-0.126-0.641-0.58-0.993-1.192-1.066
			c-0.54-0.065-1.099-0.059-1.641-0.003c-0.551,0.057-0.965,0.415-1.32,0.838c-0.581-0.613-1.153-1.217-1.746-1.843
			c0.543-0.643,1.302-1.149,2.243-1.332c1.247-0.242,2.501-0.243,3.737,0.07c1.802,0.456,2.798,1.688,2.82,3.551
			c0.03,2.523,0.007,5.047,0.006,7.571c0,0.039-0.011,0.077-0.018,0.128C124.067,30.67,123.171,30.67,122.233,30.67z
			 M122.194,25.901c-0.712,0-1.363-0.004-2.015,0.002c-0.254,0.003-0.512,0.008-0.761,0.052c-0.656,0.116-1.039,0.567-1.048,1.199
			c-0.01,0.656,0.354,1.155,1.023,1.242c0.507,0.066,1.043,0.071,1.544-0.02c0.621-0.113,1.07-0.514,1.167-1.18
			C122.166,26.785,122.165,26.365,122.194,25.901z"/>
		<path fill-rule="evenodd" clip-rule="evenodd" fill="#231F20" d="M86.809,19.343c0.965,0,1.89,0,2.828,0c0,3.781,0,7.548,0,11.328
			c-0.911,0-1.807,0-2.746,0c0-0.31,0-0.616,0-0.999c-0.553,0.522-1.123,0.863-1.789,1.02c-2.505,0.59-4.7-0.846-4.794-3.468
			c-0.09-2.521-0.033-5.047-0.041-7.57c0-0.101,0-0.201,0-0.313c0.945,0,1.862,0,2.822,0c0,0.107,0,0.215,0,0.322
			c0,2.136-0.001,4.271,0.003,6.408c0,0.234,0.01,0.472,0.055,0.699c0.198,0.997,0.946,1.553,1.969,1.479
			c0.976-0.071,1.666-0.777,1.683-1.804c0.026-1.553,0.009-3.106,0.01-4.66C86.81,20.98,86.809,20.174,86.809,19.343z"/>
		<path fill-rule="evenodd" clip-rule="evenodd" fill="#242021" d="M90.734,29.23c0.704-0.679,1.321-1.274,1.952-1.884
			c0.552,0.527,1.232,0.853,2.009,0.968c0.754,0.112,1.507,0.148,2.231-0.153c0.625-0.258,0.886-0.795,0.657-1.347
			c-0.186-0.449-0.59-0.565-1.017-0.618c-0.881-0.108-1.772-0.161-2.643-0.317c-1.131-0.203-2.02-0.763-2.373-1.941
			c-0.573-1.913,0.339-3.758,2.274-4.405c1.814-0.607,3.62-0.457,5.36,0.352c0.192,0.09,0.365,0.223,0.54,0.346
			c0.116,0.081,0.219,0.181,0.35,0.291c-0.607,0.567-1.2,1.121-1.823,1.703c-0.695-0.56-1.625-0.702-2.586-0.677
			c-0.336,0.009-0.688,0.1-0.999,0.234c-0.415,0.179-0.58,0.547-0.532,0.974c0.044,0.393,0.264,0.67,0.73,0.752
			c0.652,0.114,1.319,0.14,1.973,0.243c0.56,0.089,1.136,0.171,1.664,0.366c1.245,0.462,1.858,1.428,1.905,2.73
			c0.067,1.862-0.793,3.109-2.587,3.639c-1.851,0.548-3.716,0.517-5.51-0.252C91.769,30.005,91.303,29.6,90.734,29.23z"/>
		<path fill-rule="evenodd" clip-rule="evenodd" fill="#242021" d="M113.308,27.384c0.638,0.637,1.26,1.257,1.904,1.9
			c-0.498,0.552-1.09,0.995-1.81,1.221c-1.886,0.592-3.674,0.448-5.246-0.855c-0.85-0.705-1.288-1.672-1.504-2.738
			c-0.311-1.536-0.302-3.067,0.205-4.563c0.632-1.861,2.154-3.002,4.119-3.136c1.625-0.111,3.08,0.256,4.224,1.476
			c-0.647,0.631-1.293,1.261-1.942,1.895c-0.402-0.416-0.903-0.787-1.604-0.816c-0.996-0.04-1.757,0.438-2.105,1.387
			c-0.329,0.896-0.291,1.828-0.212,2.755c0.027,0.302,0.102,0.605,0.196,0.893c0.552,1.687,2.443,1.803,3.425,0.912
			C113.08,27.604,113.197,27.489,113.308,27.384z"/>
		<path fill-rule="evenodd" clip-rule="evenodd" fill="#E21E1B" d="M34.554,30.675c-0.953,0-1.862,0-2.79,0c0-3.785,0-7.56,0-11.349
			c0.883,0,1.765,0,2.678,0c0,0.46,0,0.892,0,1.429c0.992-1.335,2.278-1.885,3.834-1.942c0,0.976,0,1.922,0,2.906
			c-0.175-0.009-0.353-0.012-0.531-0.029c-1.559-0.153-2.965,0.982-3.127,2.536c-0.04,0.385-0.059,0.773-0.061,1.161
			c-0.006,1.655-0.003,3.311-0.003,4.966C34.554,30.461,34.554,30.568,34.554,30.675z"/>
		<path fill-rule="evenodd" clip-rule="evenodd" fill="#E21E1B" d="M15.678,30.663c0-4.934,0-9.855,0-14.797
			c0.926,0,1.849,0,2.796,0c0,4.923,0,9.85,0,14.797C17.558,30.663,16.633,30.663,15.678,30.663z"/>
		<path fill-rule="evenodd" clip-rule="evenodd" fill="#231F20" d="M104.729,19.348c0,3.778,0,7.537,0,11.316
			c-0.929,0-1.854,0-2.796,0c0-3.768,0-7.533,0-11.316C102.851,19.348,103.775,19.348,104.729,19.348z"/>
		<path fill-rule="evenodd" clip-rule="evenodd" fill="#E21E1B" d="M50.711,19.113c-0.527-0.509-1.129-1.088-1.765-1.702
			c2.322-2.261,4.623-4.502,6.91-6.728c0.499,0.499,1.095,1.092,1.728,1.724C55.291,14.643,52.99,16.889,50.711,19.113z"/>
		<path fill-rule="evenodd" clip-rule="evenodd" fill="#E21E1B" d="M43.471,16.482c0-2.451,0-4.887,0-7.343c0.832,0,1.664,0,2.518,0
			c0,2.444,0,4.886,0,7.343C45.148,16.482,44.318,16.482,43.471,16.482z"/>
		<path fill-rule="evenodd" clip-rule="evenodd" fill="#E21E1B" d="M52.016,24.592c0-0.844,0-1.667,0-2.512c2.48,0,4.946,0,7.437,0
			c0,0.827,0,1.659,0,2.512C56.99,24.592,54.517,24.592,52.016,24.592z"/>
		<path fill-rule="evenodd" clip-rule="evenodd" fill="#242021" d="M105.083,16.154c-0.009,1.007-0.789,1.774-1.796,1.765
			c-0.96-0.009-1.75-0.825-1.742-1.802c0.009-1.005,0.804-1.764,1.839-1.755C104.341,14.37,105.092,15.162,105.083,16.154z"/>
		<path fill-rule="evenodd" clip-rule="evenodd" fill="#242021" d="M83.741,17.541c0.386-1.036,0.754-2.027,1.125-3.016
			c0.268-0.715,0.269-0.714,1.022-0.714c0.724,0,1.449,0,2.209,0c-0.049,0.087-0.082,0.156-0.123,0.218
			c-0.732,1.104-1.462,2.211-2.207,3.307c-0.07,0.103-0.234,0.191-0.357,0.197C84.87,17.554,84.329,17.541,83.741,17.541z"/>
		<path fill-rule="evenodd" clip-rule="evenodd" fill="none" d="M26.875,24.997c0,0.469,0.035,0.98-0.007,1.485
			c-0.11,1.334-0.888,2.01-2.304,2.157c-0.895,0.093-1.447-0.303-1.587-1.035c-0.169-0.888,0.211-1.58,1.059-1.844
			c0.485-0.151,0.992-0.229,1.484-0.359C25.969,25.281,26.41,25.136,26.875,24.997z"/>
		<path fill-rule="evenodd" clip-rule="evenodd" fill="none" d="M44.324,27.915c-1.705,0.013-3.086-1.649-3.023-3.279
			c0.053-1.38,1.277-3.145,3.352-3c1.367,0.095,2.85,1.252,2.842,3.18C47.488,26.539,46.026,27.942,44.324,27.915z"/>
		<path fill-rule="evenodd" clip-rule="evenodd" fill="none" d="M122.194,25.901c-0.029,0.464-0.028,0.884-0.089,1.295
			c-0.097,0.665-0.546,1.066-1.167,1.18c-0.501,0.091-1.037,0.085-1.544,0.02c-0.669-0.087-1.033-0.585-1.023-1.242
			c0.009-0.632,0.393-1.083,1.048-1.199c0.248-0.044,0.506-0.049,0.761-0.052C120.831,25.897,121.482,25.901,122.194,25.901z"/>
	</g>
</g>
</svg>
