<?xml version="1.0" encoding="utf-8"?>
<!-- Generator: Adobe Illustrator 16.0.0, SVG Export Plug-In . SVG Version: 6.00 Build 0)  -->
<!DOCTYPE svg PUBLIC "-//W3C//DTD SVG 1.1//EN" "http://www.w3.org/Graphics/SVG/1.1/DTD/svg11.dtd">
<svg version="1.1" id="Layer_1" xmlns="http://www.w3.org/2000/svg" xmlns:xlink="http://www.w3.org/1999/xlink" x="0px" y="0px"
	 width="125px" height="40px" viewBox="0 0 125 40" enable-background="new 0 0 125 40" xml:space="preserve">
<path d="M18.104,34.176h5.767L14.089,5.268H9.503L0,34.176h5.366l2.539-7.956h7.587L18.104,34.176z M9.43,21.437l2.213-6.934
	l2.277,6.934H9.43z"/>
<path d="M77.051,34.176h5.767L73.035,5.268h-4.584l-9.504,28.908h5.365l2.54-7.956h7.585L77.051,34.176z M68.378,21.437l2.212-6.934
	l2.278,6.934H68.378z"/>
<polygon points="26.364,5.268 20.84,5.268 30.491,34.176 35.043,34.176 41.427,13.945 48.214,34.176 52.887,34.176 61.93,5.268 
	56.589,5.268 50.641,24.747 44.025,5.268 38.745,5.268 32.858,24.687 "/>
</svg>
