<?xml version="1.0" encoding="utf-8"?>
<!-- Generator: Adobe Illustrator 20.1.0, SVG Export Plug-In . SVG Version: 6.00 Build 0)  -->
<svg version="1.1" id="logos" xmlns="http://www.w3.org/2000/svg" xmlns:xlink="http://www.w3.org/1999/xlink" x="0px" y="0px"
	 viewBox="0 0 125 40" enable-background="new 0 0 125 40" xml:space="preserve">
<g>
	<g>
		<g>
			<path d="M51.281,20.334c-0.1,0.616-0.203,1.232-0.299,1.848c-0.114,0.732-0.232,1.464-0.325,2.199
				c-0.033,0.265-0.123,0.366-0.402,0.379c-1.203,0.057-1.211,0.068-1.401-1.114c-0.18-1.12-0.34-2.243-0.6-3.36
				c0,0.736,0,1.471,0,2.207c0,0.597-0.009,1.195,0.003,1.792c0.006,0.316-0.111,0.471-0.44,0.469
				c-1.418-0.008-1.221,0.131-1.224-1.148c-0.007-2.679-0.003-5.358-0.002-8.038c0-0.686,0.003-0.686,0.698-0.687
				c0.434-0.001,0.87,0.019,1.303-0.006c0.356-0.02,0.499,0.088,0.546,0.467c0.204,1.631,0.448,3.258,0.763,4.897
				c0.106-0.72,0.214-1.439,0.317-2.159c0.136-0.949,0.278-1.897,0.396-2.848c0.034-0.273,0.141-0.365,0.411-0.357
				c0.561,0.017,1.122,0.014,1.683,0.002c0.331-0.007,0.441,0.138,0.44,0.459c-0.007,2.987-0.006,5.974-0.001,8.961
				c0.001,0.324-0.132,0.466-0.452,0.457c-0.271-0.008-0.544-0.015-0.814,0.002c-0.377,0.024-0.515-0.141-0.512-0.511
				c0.011-1.195,0.004-2.39,0.004-3.584c0-0.105,0-0.21,0-0.315C51.342,20.343,51.312,20.339,51.281,20.334z"/>
			<path d="M90.354,18.857c0-0.938,0-1.876,0-2.813c0-0.199-0.003-0.398,0.001-0.597c0.008-0.524,0.038-0.564,0.552-0.561
				c1.363,0.006,1.144-0.144,1.149,1.149c0.01,2.66,0.003,5.321,0.003,7.981c0,0.739-0.001,0.739-0.762,0.74
				c-0.018,0-0.036,0-0.054,0c-1.057,0.001-1.057,0.001-1.321-1.038c-0.334-1.313-0.668-2.626-1.006-3.938
				c-0.034-0.132-0.09-0.259-0.211-0.372c0,1.516,0,3.031,0,4.547c0,0.145-0.003,0.29-0.002,0.434
				c0.003,0.249-0.127,0.363-0.368,0.364c-0.308,0.001-0.615-0.001-0.923,0.001c-0.279,0.002-0.385-0.152-0.384-0.411
				c0.001-0.235-0.002-0.471-0.002-0.706c0-2.697-0.001-5.393,0.001-8.09c0-0.662,0.004-0.662,0.666-0.664
				c0.38-0.001,0.763,0.027,1.139-0.008c0.336-0.031,0.436,0.13,0.504,0.411c0.291,1.19,0.596,2.377,0.896,3.565
				C90.273,18.853,90.313,18.855,90.354,18.857z"/>
			<path d="M65.01,19.723c0.564,0.447,0.683,1.069,0.718,1.711c0.054,0.991,0.092,1.984,0.104,2.976
				c0.001,0.113-0.192,0.315-0.31,0.327c-0.413,0.041-0.833,0.037-1.247,0.003c-0.116-0.01-0.282-0.164-0.313-0.282
				c-0.068-0.259-0.081-0.536-0.085-0.806c-0.011-0.616,0.005-1.232-0.008-1.847c-0.005-0.251-0.027-0.509-0.091-0.751
				c-0.072-0.269-0.448-0.437-0.759-0.389c-0.354,0.055-0.21,0.336-0.213,0.517c-0.015,0.996-0.004,1.992-0.009,2.989
				c-0.002,0.536-0.05,0.578-0.598,0.584c-0.254,0.003-0.508-0.014-0.761,0.004c-0.385,0.026-0.504-0.157-0.503-0.52
				c0.007-2.953,0.008-5.905-0.001-8.858c-0.001-0.374,0.131-0.516,0.513-0.504c0.724,0.023,1.449-0.008,2.173,0.011
				c1.23,0.033,1.923,0.656,2.056,1.868c0.051,0.464,0.055,0.941,0.017,1.406C65.631,18.913,65.53,19.095,65.01,19.723z
				 M62.799,18.886c0.84,0.097,1.021-0.055,1.033-0.804c0.003-0.163,0.004-0.326,0-0.488c-0.006-0.198,0.008-0.402-0.034-0.594
				c-0.07-0.322-0.309-0.421-0.725-0.401c-0.366,0.017-0.266,0.275-0.27,0.468C62.792,17.662,62.799,18.257,62.799,18.886z"/>
			<path d="M98.734,19.802c0,0.869,0.017,1.739-0.004,2.608c-0.029,1.17-0.516,1.906-1.429,2.199
				c-0.205,0.066-0.423,0.126-0.636,0.131c-0.796,0.017-1.593,0.009-2.39,0.014c-0.271,0.002-0.401-0.128-0.4-0.396
				c0-0.091-0.002-0.181-0.002-0.272c0-2.843-0.001-5.686,0-8.53c0-0.671,0.004-0.673,0.657-0.674
				c0.652-0.002,1.304-0.008,1.956,0.001c1.309,0.018,2.128,0.739,2.211,2.04c0.061,0.956,0.012,1.918,0.012,2.877
				C98.718,19.802,98.726,19.802,98.734,19.802z M95.734,19.811c0,0.94,0.008,1.879-0.005,2.819
				c-0.004,0.296,0.081,0.42,0.397,0.411c0.552-0.016,0.74-0.17,0.744-0.758c0.011-1.644,0.005-3.289,0.003-4.933
				c0-0.108-0.007-0.219-0.031-0.323c-0.084-0.355-0.31-0.449-0.813-0.429c-0.403,0.016-0.288,0.296-0.291,0.502
				C95.728,18.004,95.733,18.907,95.734,19.811z"/>
			<path d="M76.855,18.722c0-1.136-0.002-2.184,0.001-3.233c0.001-0.593,0.012-0.611,0.611-0.605
				c1.453,0.016,1.228-0.202,1.234,1.228c0.011,2.645,0.004,5.289,0.003,7.934c0,0.706-0.002,0.71-0.68,0.708
				c-1.34-0.004-1.159,0.127-1.168-1.149c-0.006-0.906-0.011-1.812,0.004-2.717c0.005-0.306-0.047-0.463-0.409-0.452
				c-0.986,0.03-0.815-0.075-0.824,0.797c-0.01,0.996,0.002,1.993-0.005,2.989c-0.003,0.462-0.071,0.522-0.54,0.532
				c-0.253,0.005-0.507,0.005-0.761,0c-0.509-0.009-0.553-0.046-0.555-0.568c-0.005-1.666-0.002-3.333-0.002-4.999
				c0-1.25-0.003-2.5,0.002-3.75c0.002-0.523,0.034-0.558,0.558-0.552c1.52,0.016,1.28-0.209,1.298,1.282
				c0.009,0.724,0.009,1.449-0.002,2.174c-0.004,0.266,0.065,0.407,0.363,0.385C76.251,18.707,76.521,18.722,76.855,18.722z"/>
			<path d="M82.838,14.861c0.377,0.023,0.868-0.089,1.098,0.106c0.228,0.193,0.209,0.694,0.27,1.064
				c0.442,2.676,0.877,5.353,1.313,8.03c0.1,0.617,0.035,0.689-0.594,0.693c-1.198,0.008-1.198,0.008-1.343-1.153
				c-0.016-0.125-0.057-0.249-0.062-0.374c-0.01-0.256-0.139-0.316-0.383-0.327c-1.056-0.045-1.056-0.053-1.185,0.975
				c-0.11,0.879-0.11,0.876-0.985,0.88c-0.678,0.004-0.961,0.165-0.773-0.906c0.484-2.76,0.89-5.534,1.359-8.297
				c0.13-0.768-0.065-0.655,0.794-0.671c0.163-0.003,0.326,0,0.489,0C82.837,14.876,82.838,14.869,82.838,14.861z M83.234,21.186
				c-0.141-0.974-0.275-1.906-0.41-2.838c-0.032,0.002-0.064,0.003-0.096,0.005c-0.127,0.934-0.255,1.868-0.386,2.833
				C82.675,21.186,82.934,21.186,83.234,21.186z"/>
			<path d="M67.352,19.795c0-0.869-0.009-1.738,0.002-2.607c0.026-1.976,1.692-3.038,3.512-2.238
				c0.71,0.312,1.082,0.901,1.184,1.641c0.066,0.481,0.041,0.975,0.053,1.463c0.006,0.267-0.126,0.4-0.397,0.397
				c-0.326-0.004-0.652-0.001-0.978-0.001c-0.268,0-0.397-0.13-0.394-0.402c0.004-0.326,0.013-0.653-0.01-0.977
				c-0.03-0.423-0.206-0.594-0.557-0.593c-0.348,0.001-0.537,0.173-0.54,0.601c-0.013,1.829-0.013,3.657,0.002,5.486
				c0.003,0.414,0.21,0.594,0.555,0.588c0.335-0.007,0.517-0.194,0.541-0.615c0.023-0.415,0.021-0.833,0.006-1.249
				c-0.012-0.328,0.129-0.465,0.448-0.458c0.29,0.007,0.58,0.01,0.869-0.001c0.317-0.012,0.47,0.116,0.461,0.445
				c-0.012,0.416,0.006,0.833-0.004,1.249c-0.046,1.858-1.333,2.566-2.92,2.319c-1.052-0.164-1.719-0.87-1.786-1.953
				c-0.063-1.028-0.014-2.062-0.014-3.094C67.373,19.795,67.362,19.795,67.352,19.795z"/>
			<path d="M107.685,17.907c-0.09,0-0.181,0.001-0.271,0c-0.532-0.008-0.548-0.029-0.576-0.542c-0.01-0.179-0.037-0.358-0.073-0.534
				c-0.058-0.285-0.274-0.369-0.528-0.361c-0.261,0.009-0.443,0.135-0.497,0.411c-0.096,0.493,0.003,0.949,0.335,1.318
				c0.374,0.415,0.78,0.803,1.189,1.184c0.904,0.843,1.436,1.828,1.368,3.112c-0.101,1.899-1.36,2.563-2.921,2.357
				c-1.16-0.153-1.826-0.967-1.898-2.219c-0.06-1.045-0.06-1.045,0.997-1.043c0.127,0,0.253,0.005,0.38,0.002
				c0.273-0.006,0.389,0.128,0.394,0.397c0.004,0.252,0.018,0.507,0.059,0.755c0.05,0.299,0.269,0.412,0.553,0.41
				c0.293-0.002,0.487-0.152,0.536-0.438c0.097-0.562-0.005-1.09-0.392-1.522c-0.301-0.336-0.634-0.644-0.961-0.955
				c-0.717-0.681-1.405-1.393-1.494-2.439c-0.042-0.495-0.027-1.02,0.091-1.5c0.22-0.895,0.849-1.402,1.769-1.521
				c0.232-0.03,0.47-0.042,0.703-0.032c1.231,0.054,2.01,0.802,2.13,2.032c0.005,0.054,0.009,0.108,0.011,0.162
				C108.64,17.907,108.64,17.907,107.685,17.907z"/>
			<path d="M57.152,14.883c0.561,0,1.123-0.004,1.684,0.001c0.517,0.005,0.541,0.031,0.55,0.563
				c0.004,0.235-0.007,0.471,0.001,0.706c0.011,0.322-0.136,0.458-0.458,0.453c-0.579-0.01-1.159,0.009-1.739-0.006
				c-0.282-0.007-0.384,0.093-0.375,0.375c0.016,0.47,0.015,0.942,0.001,1.413c-0.008,0.265,0.104,0.347,0.354,0.339
				c0.398-0.013,0.797,0.01,1.195-0.006c0.366-0.014,0.528,0.125,0.523,0.506c-0.019,1.43,0.135,1.203-1.153,1.216
				c-0.916,0.009-0.917,0.002-0.916,0.92c0,0.435,0.012,0.87-0.003,1.304c-0.01,0.285,0.102,0.381,0.381,0.374
				c0.561-0.015,1.124,0.014,1.684-0.01c0.385-0.017,0.513,0.137,0.509,0.507c-0.015,1.423,0.112,1.206-1.16,1.217
				c-0.887,0.008-1.775,0.004-2.663,0.001c-0.565-0.002-0.606-0.036-0.607-0.57c-0.004-2.916-0.004-5.832,0-8.748
				c0.001-0.523,0.033-0.548,0.56-0.552C56.065,14.88,56.609,14.883,57.152,14.883z"/>
			<path d="M110.178,19.768c0-1.431-0.003-2.862,0.001-4.293c0.002-0.572,0.02-0.59,0.575-0.591c1.105-0.003,2.21-0.004,3.315,0.001
				c0.496,0.002,0.533,0.034,0.533,0.523c0.002,1.4,0.115,1.173-1.176,1.198c-0.446,0.009-0.891,0.046-1.337,0.07
				c-0.017,0.43-0.049,0.861-0.048,1.291c0.003,0.864-0.111,0.743,0.743,0.756c0.235,0.003,0.471,0,0.706,0.001
				c0.091,0,0.191-0.023,0.27,0.008c0.648,0.251,0.245,0.806,0.334,1.217c0.06,0.277-0.034,0.503-0.394,0.496
				c-0.416-0.009-0.834,0.012-1.25-0.005c-0.293-0.012-0.427,0.075-0.418,0.394c0.019,0.597,0.023,1.196-0.001,1.793
				c-0.015,0.357,0.144,0.425,0.454,0.414c0.543-0.018,1.087,0.008,1.63-0.009c0.343-0.011,0.51,0.108,0.492,0.466
				c-0.014,0.271-0.009,0.543-0.002,0.815c0.009,0.326-0.147,0.448-0.465,0.446c-1.159-0.008-2.319-0.013-3.478,0.002
				c-0.398,0.005-0.49-0.188-0.488-0.536C110.183,22.739,110.178,21.253,110.178,19.768z"/>
			<path d="M100.395,19.841c0-1.465-0.003-2.929,0.002-4.394c0.002-0.532,0.032-0.556,0.547-0.564c0.253-0.004,0.506-0.004,0.759,0
				c0.513,0.008,0.55,0.039,0.551,0.562c0.003,2.495,0.001,4.99,0.001,7.485c0,0.416,0.004,0.832-0.001,1.248
				c-0.006,0.513-0.057,0.565-0.551,0.575c-0.253,0.005-0.506,0.005-0.759,0c-0.501-0.01-0.545-0.048-0.547-0.574
				C100.392,22.734,100.395,21.287,100.395,19.841z"/>
		</g>
		<g>
			<circle fill="#231F20" cx="20" cy="20" r="20"/>
			<path fill="#FFFFFF" d="M20.308,10.046c-0.886,0-2.305-0.441-3.324-1.894c-0.113-0.151-0.623,0.359-2.51,0.359
				c-1.585,0-3.604,0.83-4.189,1.547s-1.793,5.171-1.812,5.322c-0.019,0.151,0.717,0.528,2.548,0.566
				c0.604,0,0.849,0.019,1.019-0.132s0.679-1.076,0.981-1.83c0.057,0.642,0,4.095,0,5.038s-0.566,5.199-0.679,6.954
				s-0.057,3.029-0.368,4.84c0,0.17,3.425,1.132,7.501,1.132s8.605-0.51,8.662-0.651c0.057-0.142-0.566-4.529-0.821-6.312
				s-0.057-3.057-0.057-5.322s0.113-3.651,0.311-4.472c0.226,0.821,0.51,1.302,1.189,1.387s2.661-0.453,2.746-0.736
				c0.085-0.283-1.076-4.104-1.472-5.803c-0.283-0.934-1.33-1.387-2.689-1.472s-3.482-0.142-3.623-0.142
				S23.207,10.046,20.308,10.046z"/>
		</g>
	</g>
	<rect x="0" y="0" fill="none" width="125" height="40"/>
</g>
</svg>
