<?xml version="1.0" encoding="utf-8"?>
<!-- Generator: Adobe Illustrator 21.1.0, SVG Export Plug-In . SVG Version: 6.00 Build 0)  -->
<svg version="1.1" xmlns="http://www.w3.org/2000/svg" xmlns:xlink="http://www.w3.org/1999/xlink" x="0px" y="0px"
	 viewBox="0 0 125 40" enable-background="new 0 0 125 40" xml:space="preserve">
<g id="bg" display="none">
	<rect display="inline" fill="#FFFFFF" width="125" height="40"/>
</g>
<g id="icons">
	<g>
		<g>
			<g>
				<g>
					<path d="M35.723,10.149C35.723,10.149,35.723,10.149,35.723,10.149V5.872c0-1.754-1.422-3.175-3.175-3.175H4.292
						c-1.753,0-3.175,1.421-3.175,3.175v4.256C0.617,12.028,0,13.708,0,14.722c0,0.246,0.006,0.487,0.019,0.725
						c0.053,0.964,0.465,1.826,1.098,2.467v16.215c0,1.753,1.422,3.175,3.175,3.175h28.257c1.753,0,3.175-1.421,3.175-3.175V17.907
						c0.629-0.64,1.038-1.499,1.092-2.461c0.013-0.238,0.019-0.479,0.019-0.725C36.834,13.711,36.222,12.04,35.723,10.149z
						 M2.704,6.189c0-1.052,0.853-1.905,1.905-1.905h27.621c1.052,0,1.905,0.853,1.905,1.905v1.746h-3.651h-1.27H24.77H23.5h-4.444
						h-1.27H13.34h-1.27H7.62H6.355H2.704V6.189z M29.214,9.523v6.032c0,1.378-1.261,2.467-2.689,2.175
						c-1.038-0.213-1.755-1.178-1.755-2.239V9.523c0-0.175,0.142-0.318,0.317-0.318h3.81C29.072,9.205,29.214,9.348,29.214,9.523z
						 M23.5,9.523v6.032c0,1.378-1.261,2.467-2.689,2.175c-1.038-0.213-1.755-1.178-1.755-2.239V9.523
						c0-0.175,0.142-0.318,0.317-0.318h3.81C23.358,9.205,23.5,9.348,23.5,9.523z M17.785,9.523v6.032
						c0,1.378-1.261,2.467-2.689,2.175c-1.038-0.213-1.755-1.178-1.755-2.239V9.523c0-0.175,0.142-0.318,0.317-0.318h3.81
						C17.643,9.205,17.785,9.348,17.785,9.523z M12.07,9.523v6.032c0,1.378-1.261,2.467-2.689,2.175
						c-1.039-0.213-1.756-1.178-1.756-2.239V9.523c0-0.175,0.142-0.318,0.318-0.318h3.81C11.928,9.205,12.07,9.348,12.07,9.523z
						 M1.29,15.419c-0.014-0.228-0.02-0.46-0.02-0.697c0-1.183,1.027-2.936,1.434-5.206c0.019-0.105,0.044-0.204,0.06-0.311h3.269
						c0.175,0,0.317,0.142,0.317,0.318v6.032c0,1.227-0.995,2.222-2.222,2.222H3.824c-0.402,0-0.779-0.102-1.119-0.269
						C1.914,17.121,1.344,16.348,1.29,15.419z M12.705,35.716H6.99V23.971c0-0.175,0.142-0.317,0.318-0.317h5.08
						c0.175,0,0.318,0.142,0.318,0.317V35.716z M34.136,33.811c0,1.052-0.853,1.905-1.905,1.905H13.975V23.018
						c0-0.351-0.284-0.635-0.635-0.635H6.355c-0.351,0-0.635,0.284-0.635,0.635v12.698H4.609c-1.052,0-1.905-0.853-1.905-1.905
						V18.879c0.355,0.109,0.73,0.169,1.119,0.169h0.304c1.182,0,2.228-0.592,2.86-1.495c0.632,0.902,1.677,1.495,2.86,1.495
						c1.181,0,2.225-0.591,2.858-1.491c0.632,0.9,1.676,1.491,2.857,1.491c1.181,0,2.225-0.591,2.857-1.491
						c0.632,0.9,1.676,1.491,2.857,1.491c1.181,0,2.225-0.591,2.857-1.491c0.632,0.9,1.676,1.491,2.857,1.491
						c1.181,0,2.225-0.591,2.857-1.491c0.632,0.9,1.676,1.491,2.857,1.491h0.303c0.391,0,0.769-0.061,1.125-0.171V33.811z
						 M35.542,15.451c-0.056,0.916-0.625,1.674-1.407,2.056c-0.343,0.168-0.722,0.271-1.125,0.271h-0.303
						c-1.228,0-2.222-0.995-2.222-2.222V9.523c0-0.175,0.142-0.318,0.317-0.318h3.269c0.017,0.117,0.044,0.227,0.065,0.342
						c0.411,2.255,1.429,3.997,1.429,5.175C35.564,14.97,35.557,15.212,35.542,15.451z"/>
					<path d="M30.485,22.383h-12.7c-0.351,0-0.635,0.284-0.635,0.635v9.525c0,0.351,0.284,0.635,0.635,0.635h12.7
						c0.351,0,0.635-0.284,0.635-0.635v-9.525C31.12,22.668,30.835,22.383,30.485,22.383z M29.85,31.59
						c0,0.175-0.142,0.317-0.318,0.317H18.737c-0.175,0-0.317-0.142-0.317-0.317v-7.62c0-0.175,0.142-0.317,0.317-0.317h10.795
						c0.175,0,0.318,0.142,0.318,0.317V31.59z"/>
				</g>
			</g>
			<g>
				<circle fill-rule="evenodd" clip-rule="evenodd" cx="4.885" cy="6.285" r="0.635"/>
				<circle fill-rule="evenodd" clip-rule="evenodd" cx="7.425" cy="6.285" r="0.635"/>
				<circle fill-rule="evenodd" clip-rule="evenodd" cx="9.965" cy="6.285" r="0.635"/>
			</g>
		</g>
		<g>
			<path d="M47.453,16.228l3.012,8.032l3.025-8.032h1.74v9.558h-1.205v-7.952h-0.027l-2.986,7.952H49.93l-2.986-7.952h-0.027v7.952
				h-1.205v-9.558H47.453z"/>
			<path d="M62.058,25.344c-0.518,0.393-1.17,0.589-1.954,0.589c-0.553,0-1.033-0.089-1.439-0.267
				c-0.406-0.179-0.748-0.429-1.024-0.75c-0.277-0.321-0.484-0.705-0.623-1.152s-0.217-0.933-0.234-1.459
				c0-0.526,0.08-1.008,0.241-1.446c0.161-0.437,0.386-0.817,0.676-1.138s0.634-0.571,1.031-0.75
				c0.397-0.179,0.832-0.268,1.305-0.268c0.616,0,1.126,0.127,1.533,0.382c0.406,0.254,0.732,0.578,0.977,0.97
				c0.245,0.393,0.415,0.821,0.509,1.286c0.094,0.464,0.131,0.906,0.113,1.325h-5.18c-0.009,0.303,0.027,0.591,0.107,0.863
				c0.081,0.272,0.21,0.513,0.388,0.723c0.178,0.21,0.406,0.377,0.683,0.502c0.277,0.125,0.602,0.187,0.977,0.187
				c0.482,0,0.877-0.112,1.185-0.335c0.308-0.223,0.511-0.562,0.609-1.017h1.125C62.91,24.367,62.575,24.951,62.058,25.344z
				 M61.783,20.9c-0.103-0.241-0.241-0.449-0.415-0.623c-0.174-0.174-0.38-0.312-0.616-0.415c-0.237-0.102-0.498-0.154-0.783-0.154
				c-0.295,0-0.561,0.052-0.796,0.154c-0.237,0.103-0.44,0.243-0.61,0.422c-0.169,0.179-0.303,0.386-0.401,0.623
				c-0.098,0.236-0.156,0.489-0.174,0.757h3.976C61.946,21.395,61.886,21.141,61.783,20.9z"/>
			<path d="M65.377,18.865v1.459h0.027c0.277-0.562,0.616-0.977,1.018-1.245c0.401-0.267,0.91-0.392,1.526-0.375v1.205
				c-0.455,0-0.843,0.063-1.165,0.187c-0.321,0.125-0.581,0.308-0.777,0.549c-0.196,0.241-0.339,0.533-0.428,0.877
				c-0.089,0.343-0.134,0.738-0.134,1.185v3.079h-1.138v-6.921H65.377z"/>
			<path d="M72.701,20.07c-0.286-0.241-0.669-0.362-1.152-0.362c-0.41,0-0.754,0.076-1.031,0.228
				c-0.277,0.152-0.498,0.353-0.663,0.602c-0.165,0.25-0.283,0.538-0.355,0.863c-0.071,0.326-0.107,0.663-0.107,1.011
				c0,0.321,0.038,0.634,0.113,0.937c0.076,0.303,0.194,0.574,0.355,0.81c0.161,0.236,0.37,0.427,0.629,0.569
				c0.259,0.143,0.567,0.215,0.924,0.215c0.562,0,1.002-0.148,1.318-0.442c0.317-0.295,0.511-0.71,0.582-1.245h1.165
				c-0.125,0.857-0.444,1.518-0.957,1.981c-0.513,0.464-1.211,0.696-2.095,0.696c-0.527,0-0.993-0.085-1.399-0.254
				c-0.406-0.169-0.745-0.41-1.018-0.723c-0.272-0.312-0.478-0.685-0.616-1.118c-0.139-0.433-0.208-0.908-0.208-1.426
				c0-0.517,0.067-1.002,0.2-1.453c0.134-0.45,0.337-0.843,0.61-1.178c0.272-0.335,0.613-0.598,1.024-0.79
				c0.41-0.192,0.888-0.288,1.432-0.288c0.393,0,0.761,0.047,1.105,0.141c0.343,0.094,0.647,0.239,0.91,0.435
				c0.263,0.197,0.479,0.444,0.649,0.743c0.169,0.299,0.277,0.654,0.321,1.064h-1.178C73.173,20.65,72.986,20.31,72.701,20.07z"/>
			<path d="M76.891,16.228v3.655h0.027c0.089-0.214,0.214-0.395,0.375-0.542c0.161-0.148,0.342-0.268,0.542-0.362
				c0.201-0.094,0.411-0.163,0.63-0.208c0.218-0.045,0.43-0.067,0.636-0.067c0.455,0,0.835,0.063,1.138,0.187
				c0.303,0.125,0.549,0.299,0.736,0.522c0.187,0.223,0.319,0.489,0.394,0.796c0.076,0.308,0.114,0.649,0.114,1.024v4.552h-1.138
				V21.1c0-0.428-0.125-0.767-0.375-1.017c-0.25-0.25-0.593-0.375-1.031-0.375c-0.348,0-0.649,0.054-0.904,0.161
				c-0.254,0.107-0.466,0.259-0.636,0.455c-0.17,0.197-0.297,0.427-0.382,0.69c-0.085,0.263-0.127,0.551-0.127,0.863v3.909h-1.138
				v-9.558H76.891z"/>
			<path d="M91.891,17.533c-0.424-0.308-0.966-0.462-1.627-0.462c-0.268,0-0.531,0.027-0.79,0.08
				c-0.259,0.054-0.489,0.143-0.69,0.268c-0.2,0.125-0.361,0.293-0.482,0.502c-0.12,0.21-0.18,0.471-0.18,0.783
				c0,0.295,0.087,0.533,0.261,0.716c0.174,0.183,0.406,0.333,0.696,0.448c0.29,0.117,0.618,0.212,0.984,0.288
				s0.739,0.159,1.118,0.247c0.38,0.089,0.752,0.194,1.118,0.315c0.366,0.12,0.694,0.283,0.984,0.489
				c0.29,0.205,0.522,0.464,0.696,0.776c0.174,0.313,0.261,0.705,0.261,1.178c0,0.509-0.114,0.944-0.342,1.305
				c-0.228,0.362-0.52,0.656-0.876,0.884c-0.357,0.228-0.757,0.393-1.198,0.496C91.382,25.949,90.942,26,90.505,26
				c-0.535,0-1.042-0.067-1.519-0.2c-0.478-0.134-0.897-0.337-1.258-0.61c-0.362-0.272-0.647-0.62-0.857-1.044
				c-0.21-0.424-0.315-0.925-0.315-1.506h1.205c0,0.401,0.078,0.747,0.234,1.037c0.156,0.29,0.362,0.529,0.616,0.716
				c0.254,0.187,0.551,0.326,0.89,0.415c0.339,0.089,0.687,0.134,1.044,0.134c0.285,0,0.574-0.027,0.863-0.081
				c0.29-0.053,0.551-0.145,0.783-0.275c0.232-0.129,0.419-0.306,0.562-0.528c0.143-0.223,0.214-0.509,0.214-0.857
				c0-0.33-0.087-0.598-0.261-0.803c-0.174-0.205-0.406-0.373-0.696-0.502c-0.29-0.13-0.618-0.234-0.984-0.315
				c-0.366-0.08-0.739-0.163-1.118-0.248c-0.38-0.084-0.752-0.182-1.118-0.294c-0.366-0.112-0.695-0.259-0.984-0.442
				c-0.29-0.183-0.522-0.419-0.696-0.71c-0.174-0.29-0.261-0.654-0.261-1.091c0-0.482,0.098-0.899,0.295-1.252
				c0.196-0.352,0.457-0.642,0.783-0.87c0.326-0.228,0.696-0.397,1.111-0.509C89.454,16.056,89.88,16,90.317,16
				c0.491,0,0.946,0.058,1.366,0.174c0.419,0.117,0.788,0.3,1.104,0.549c0.317,0.25,0.567,0.564,0.75,0.944
				c0.182,0.379,0.283,0.832,0.301,1.359h-1.205C92.562,18.338,92.314,17.841,91.891,17.533z"/>
			<path d="M98.55,18.865v1.004h-1.379v4.297c0,0.134,0.011,0.241,0.033,0.321c0.022,0.081,0.065,0.143,0.127,0.187
				c0.062,0.045,0.149,0.074,0.261,0.087c0.112,0.014,0.257,0.02,0.435,0.02h0.522v1.004h-0.87c-0.295,0-0.547-0.02-0.757-0.06
				c-0.21-0.04-0.379-0.113-0.509-0.221c-0.129-0.107-0.226-0.259-0.288-0.455c-0.063-0.196-0.094-0.455-0.094-0.776v-4.405h-1.178
				v-1.004h1.178V16.79h1.138v2.075H98.55z"/>
			<path d="M99.648,20.906c0.143-0.442,0.357-0.825,0.643-1.151c0.285-0.326,0.638-0.583,1.057-0.77
				c0.419-0.187,0.902-0.281,1.446-0.281c0.553,0,1.038,0.094,1.453,0.281c0.415,0.187,0.765,0.444,1.051,0.77
				c0.285,0.326,0.5,0.709,0.643,1.151c0.143,0.442,0.214,0.917,0.214,1.426c0,0.509-0.071,0.982-0.214,1.419
				c-0.143,0.437-0.357,0.819-0.643,1.145c-0.286,0.326-0.636,0.58-1.051,0.763c-0.415,0.182-0.899,0.274-1.453,0.274
				c-0.544,0-1.026-0.092-1.446-0.274c-0.419-0.183-0.772-0.437-1.057-0.763c-0.286-0.326-0.5-0.708-0.643-1.145
				c-0.143-0.437-0.214-0.91-0.214-1.419C99.434,21.824,99.505,21.348,99.648,20.906z M100.806,23.45
				c0.111,0.326,0.265,0.598,0.462,0.817c0.196,0.218,0.426,0.386,0.689,0.502s0.543,0.174,0.837,0.174
				c0.295,0,0.574-0.058,0.837-0.174s0.493-0.283,0.69-0.502c0.196-0.219,0.35-0.491,0.462-0.817
				c0.112-0.325,0.167-0.698,0.167-1.118c0-0.419-0.056-0.791-0.167-1.118c-0.112-0.326-0.266-0.6-0.462-0.823
				c-0.197-0.223-0.427-0.393-0.69-0.509s-0.542-0.174-0.837-0.174c-0.294,0-0.574,0.058-0.837,0.174s-0.493,0.286-0.689,0.509
				c-0.197,0.223-0.351,0.497-0.462,0.823c-0.112,0.326-0.167,0.698-0.167,1.118C100.639,22.752,100.694,23.124,100.806,23.45z"/>
			<path d="M108.523,18.865v1.459h0.027c0.277-0.562,0.616-0.977,1.018-1.245c0.401-0.267,0.91-0.392,1.526-0.375v1.205
				c-0.455,0-0.843,0.063-1.165,0.187c-0.321,0.125-0.581,0.308-0.777,0.549c-0.196,0.241-0.339,0.533-0.428,0.877
				c-0.089,0.343-0.134,0.738-0.134,1.185v3.079h-1.138v-6.921H108.523z"/>
			<path d="M116.609,25.344c-0.518,0.393-1.17,0.589-1.954,0.589c-0.553,0-1.033-0.089-1.439-0.267
				c-0.406-0.179-0.748-0.429-1.024-0.75c-0.277-0.321-0.484-0.705-0.623-1.152s-0.217-0.933-0.234-1.459
				c0-0.526,0.08-1.008,0.241-1.446c0.161-0.437,0.386-0.817,0.676-1.138s0.634-0.571,1.031-0.75
				c0.397-0.179,0.832-0.268,1.305-0.268c0.616,0,1.126,0.127,1.533,0.382c0.406,0.254,0.732,0.578,0.977,0.97
				c0.245,0.393,0.415,0.821,0.509,1.286c0.094,0.464,0.131,0.906,0.113,1.325h-5.18c-0.009,0.303,0.027,0.591,0.107,0.863
				c0.081,0.272,0.21,0.513,0.388,0.723c0.178,0.21,0.406,0.377,0.683,0.502c0.277,0.125,0.602,0.187,0.977,0.187
				c0.482,0,0.877-0.112,1.185-0.335c0.308-0.223,0.511-0.562,0.609-1.017h1.125C117.461,24.367,117.127,24.951,116.609,25.344z
				 M116.335,20.9c-0.103-0.241-0.241-0.449-0.415-0.623c-0.174-0.174-0.38-0.312-0.616-0.415c-0.237-0.102-0.498-0.154-0.783-0.154
				c-0.295,0-0.561,0.052-0.796,0.154c-0.237,0.103-0.44,0.243-0.61,0.422c-0.169,0.179-0.303,0.386-0.401,0.623
				c-0.098,0.236-0.156,0.489-0.174,0.757h3.976C116.498,21.395,116.437,21.141,116.335,20.9z"/>
		</g>
	</g>
</g>
</svg>
