<?xml version="1.0" encoding="utf-8"?>
<!-- Generator: Adobe Illustrator 19.2.0, SVG Export Plug-In . SVG Version: 6.00 Build 0)  -->
<svg version="1.1" xmlns="http://www.w3.org/2000/svg" xmlns:xlink="http://www.w3.org/1999/xlink" x="0px" y="0px"
	 viewBox="0 0 125 40" enable-background="new 0 0 125 40" xml:space="preserve">
<g id="bg" display="none">
	<rect display="inline" fill="#FFFFFF" width="125" height="40"/>
</g>
<g id="icons">
	<path id="Fill-1" fill="#414141" d="M77.087,26.432L77.087,26.432c-1.013,1.317-2.026,2.026-3.748,2.026
		c-2.026,0-3.545-1.114-3.545-3.241c0-3.748,4.153-4.052,6.989-4.052h1.013c0.101-0.304,0.101-0.608,0.101-1.013
		c0-1.114-1.216-1.519-2.229-1.519c-1.317,0-2.532,0.304-3.748,0.912l0.405-2.33c1.216-0.405,2.532-0.709,3.849-0.709
		c2.229,0,4.457,0.81,4.457,3.545c0,1.519-1.114,5.976-1.418,8.104h-2.532L77.087,26.432L77.087,26.432z M74.149,26.331
		c2.229,0,2.836-1.519,3.343-3.343h-1.013c-1.418,0-3.849,0.203-3.849,2.127C72.731,25.926,73.44,26.331,74.149,26.331z
		 M0.506,16.809h2.127l0.506-2.33l3.14-1.013l-0.709,3.343h2.634l-0.506,2.127H5.065L3.951,23.9
		c-0.101,0.304-0.101,0.709-0.101,1.114c0,0.709,0.506,1.114,1.114,1.114c0.506,0,1.013-0.101,1.418-0.304l-0.405,2.33
		c-0.506,0.101-1.114,0.304-1.621,0.304c-2.026,0-3.444-0.81-3.444-3.039c0-0.912,0.203-1.722,0.405-2.634l0.81-3.849H0
		L0.506,16.809z M9.421,16.809h2.938L9.927,28.154H6.989L9.421,16.809z M10.535,11.846h2.938l-0.608,2.836H9.927L10.535,11.846z
		 M21.272,19.443c-0.608-0.405-1.317-0.608-2.127-0.608c-2.33,0-3.647,2.229-3.647,4.356c0,1.519,0.506,2.938,2.532,2.938
		c0.709,0,1.621-0.203,2.431-0.608l-0.304,2.33c-0.912,0.405-1.925,0.506-2.836,0.506c-2.938,0-4.862-1.925-4.862-4.964
		c0-3.951,2.634-6.989,6.686-6.989c1.114,0,2.127,0.203,2.938,0.405L21.272,19.443z M24.514,11.542h2.938l-1.925,9.319l0,0
		l4.153-4.153h3.849l-5.47,5.166l3.444,6.179H28.16l-2.938-6.078l0,0l-1.317,6.078H21.07L24.514,11.542z M44.165,16.809h2.127
		l0.506-2.33l3.14-1.013l-0.709,3.343h2.634l-0.506,2.127h-2.634L47.609,23.9c-0.101,0.304-0.101,0.709-0.101,1.114
		c0,0.709,0.506,1.114,1.114,1.114c0.506,0,1.013-0.101,1.418-0.304l-0.506,2.33c-0.506,0.101-1.114,0.304-1.621,0.304
		c-2.026,0-3.444-0.81-3.444-3.039c0-0.912,0.203-1.722,0.405-2.634l0.81-3.849h-2.127L44.165,16.809z M43.254,20.861
		c0-2.938-1.823-4.356-4.66-4.356c-3.748,0-6.483,3.444-6.483,6.989c0,3.343,2.229,4.964,5.47,4.964
		c1.216,0,2.431-0.304,3.647-0.608l0.405-2.33c-1.114,0.506-2.229,0.81-3.444,0.81c-1.925,0-3.039-0.709-3.14-2.431l0,0
		c0-0.101,0-0.203,0-0.304c0,0,0,0,0-0.101l0,0l0,0c0-0.81,0.203-1.519,0.506-2.229c0.608-1.418,1.418-2.431,3.14-2.431
		c1.216,0,1.925,0.709,1.925,1.925c0,0.304,0,0.506-0.101,0.81h-4.052c-0.304,0.912-0.304,1.519-0.304,2.026h6.989
		C43.051,22.583,43.254,21.773,43.254,20.861z M53.181,18.025c0.101-0.405,0.203-0.912,0.203-1.216h2.735l-0.304,1.519l0,0
		c0.81-1.216,2.127-1.823,3.444-1.823s2.735,0.81,2.938,2.127l0,0c0.709-1.519,2.431-2.127,3.951-2.127
		c1.722,0,3.14,1.418,3.14,3.14c0,1.013-0.304,2.127-0.506,3.14l-1.216,5.47h-2.938l1.216-5.571
		c0.203-0.709,0.405-1.722,0.405-2.431c0-0.81-0.608-1.418-1.418-1.418c-2.026,0-2.532,2.431-2.938,3.951l-1.216,5.47h-2.938
		l1.216-5.571c0.203-0.709,0.405-1.722,0.405-2.431c0-0.81-0.608-1.418-1.418-1.418c-2.026,0-2.532,2.431-2.938,3.951l-1.216,5.47
		h-2.938L53.181,18.025z M89.445,19.139c-0.304-0.203-1.114-0.405-1.925-0.405c-0.912,0-2.026,0.203-2.026,1.114
		c0,1.418,3.849,1.925,3.849,4.761c0,2.938-2.532,3.849-5.166,3.849c-1.216,0-2.33-0.203-3.444-0.709l0.608-2.33
		c0.81,0.506,1.722,0.912,2.836,0.912c1.013,0,2.026-0.304,2.026-1.216c0-1.823-3.849-2.026-3.849-4.862
		c0-2.634,2.532-3.647,4.964-3.647c1.114,0,2.229,0.203,2.735,0.304L89.445,19.139L89.445,19.139z M91.268,16.809h2.127l0.506-2.33
		l3.14-1.013l-0.709,3.343h2.634l-0.506,2.127h-2.634L94.712,23.9c-0.101,0.304-0.101,0.709-0.101,1.114
		c0,0.709,0.506,1.114,1.114,1.114c0.506,0,1.013-0.101,1.418-0.304l-0.506,2.33c-0.506,0.101-1.114,0.304-1.621,0.304
		c-2.026,0-3.444-0.81-3.444-3.039c0-0.912,0.203-1.722,0.405-2.634l0.81-3.849H90.66L91.268,16.809L91.268,16.809z M111.325,18.329
		c0.101-0.506,0.203-1.013,0.304-1.519h2.836l-0.405,2.127l0,0c0.506-1.216,2.026-2.431,3.343-2.431c0.405,0,0.81,0,1.114,0.101
		l-0.608,2.938c-0.304-0.101-0.709-0.203-1.114-0.203c-2.127,0-3.14,1.925-3.444,3.748l-1.013,5.065h-3.039L111.325,18.329z
		 M109.299,20.861c0-2.938-1.823-4.356-4.66-4.356c-3.748,0-6.483,3.444-6.483,6.989c0,3.343,2.229,4.964,5.47,4.964
		c1.216,0,2.431-0.304,3.647-0.608l0.405-2.33c-1.114,0.506-2.229,0.81-3.444,0.81c-1.925,0-3.039-0.709-3.14-2.431l0,0
		c0-0.101,0-0.203,0-0.304v-0.101l0,0c0-0.81,0.203-1.519,0.506-2.229c0.608-1.418,1.418-2.431,3.14-2.431
		c1.216,0,1.823,0.709,1.823,1.925c0,0.304,0,0.506-0.101,0.81h-4.052c-0.304,0.912-0.304,1.519-0.304,2.026h6.989
		C109.198,22.583,109.299,21.773,109.299,20.861L109.299,20.861z M122.468,16.505c1.418,0,2.532,1.114,2.532,2.532
		s-1.114,2.634-2.532,2.634c-1.418,0-2.532-1.114-2.532-2.532S121.049,16.505,122.468,16.505z M122.468,21.266
		c1.114,0,2.026-0.912,2.026-2.127c0-1.216-0.912-2.127-2.026-2.127c-1.216,0-2.026,0.912-2.026,2.127
		C120.442,20.355,121.353,21.266,122.468,21.266z M121.556,17.62h1.114c0.709,0,1.013,0.304,1.013,0.81s-0.304,0.81-0.81,0.81
		l0.81,1.317h-0.506l-0.81-1.317h-0.405v1.317h-0.506V17.62H121.556z M121.961,18.835h0.608c0.405,0,0.608-0.101,0.608-0.506
		c0-0.304-0.304-0.405-0.608-0.405h-0.608V18.835z"/>
</g>
</svg>
