<?xml version="1.0" encoding="utf-8"?>
<!-- Generator: Adobe Illustrator 19.2.0, SVG Export Plug-In . SVG Version: 6.00 Build 0)  -->
<svg version="1.1" xmlns="http://www.w3.org/2000/svg" xmlns:xlink="http://www.w3.org/1999/xlink" x="0px" y="0px"
	 viewBox="0 0 125 40" enable-background="new 0 0 125 40" xml:space="preserve">
<g id="bg" display="none">
	<rect display="inline" fill="#FFFFFF" width="125" height="40"/>
</g>
<g id="icons">
	<g>
		<g>
			<path fill-rule="evenodd" clip-rule="evenodd" fill="#520F41" d="M21.329,9.392c-0.456,1.186-0.956,2.291-1.306,3.442
				c-0.528,1.731-0.325,3.486,0.015,5.233c0.158,0.814,0.242,1.643,0.333,2.468c0.026,0.237-0.025,0.489-0.079,0.726
				c-0.278,1.199-1.386,1.722-2.454,1.095c-0.449-0.264-0.847-0.671-1.162-1.092c-0.564-0.753-1.034-1.575-1.569-2.351
				c-0.641-0.928-1.401-1.738-2.474-2.176c-0.898-0.366-1.825-0.466-2.768-0.211c-1.556,0.421-2.408,1.489-2.505,3.099
				c-0.084,1.391,0.115,2.759,0.326,4.128c0.072,0.469,0.121,0.949,0.113,1.423c-0.017,0.958-0.843,1.486-1.715,1.081
				c-0.319-0.148-0.588-0.427-0.844-0.683c-0.205-0.205-0.36-0.464-0.532-0.702c-0.814-1.129-2.38-1.617-3.643-0.498
				C-0.786,20.57-0.602,13.767,4.691,9.365C10.001,4.948,17.238,5.742,21.329,9.392z"/>
			<path fill-rule="evenodd" clip-rule="evenodd" fill="#520F41" d="M24.701,13.678c0.546,1.087,0.912,2.209,1.11,3.384
				c1.211,7.169-3.324,13.775-10.476,15.086c-4.22,0.774-7.981-0.367-11.176-3.258c-1.118-1.012-1.994-2.215-2.707-3.544
				c-0.137-0.258-0.08-0.388,0.128-0.543c0.505-0.376,1.068-0.463,1.573-0.113c0.453,0.312,0.852,0.728,1.198,1.159
				c0.403,0.499,0.779,1.009,1.354,1.323c1.663,0.91,3.614-0.08,3.876-1.95c0.138-0.986-0.012-1.952-0.112-2.926
				c-0.066-0.656-0.115-1.318-0.108-1.976c0.008-0.66,0.265-1.217,0.916-1.51c0.653-0.294,1.3-0.203,1.77,0.287
				c0.666,0.692,1.246,1.469,1.838,2.228c0.713,0.916,1.323,1.926,2.117,2.762c1.422,1.498,3.126,1.714,5.032,0.978
				c1.264-0.488,1.904-1.562,2.138-2.874c0.211-1.181,0.123-2.367,0.037-3.552c-0.079-1.091-0.121-2.18,0.192-3.245
				C23.615,14.675,23.971,14.051,24.701,13.678z"/>
			<path fill-rule="evenodd" clip-rule="evenodd" fill="#520F41" d="M49.24,15.162c-0.237,0.472-0.39,0.731-0.501,1.006
				c-1.614,4.007-3.22,8.018-4.833,12.025c-0.377,0.937-1.003,1.365-1.83,1.26c-0.781-0.098-1.181-0.61-1.453-1.308
				c-2.124-5.448-4.262-10.891-6.395-16.337c-0.106-0.268-0.229-0.531-0.316-0.805c-0.318-0.984,0.072-1.895,0.935-2.216
				c0.882-0.327,1.772,0.08,2.162,1.047c0.754,1.87,1.479,3.752,2.216,5.63c0.862,2.199,1.722,4.399,2.588,6.598
				c0.102,0.257,0.236,0.502,0.453,0.961c0.249-0.461,0.43-0.729,0.548-1.021c1.583-3.929,3.168-7.858,4.723-11.798
				c0.323-0.819,0.766-1.454,1.713-1.45c0.946,0.003,1.396,0.647,1.718,1.458c1.553,3.909,3.124,7.81,4.695,11.712
				c0.122,0.304,0.285,0.593,0.54,1.117c0.285-0.586,0.488-0.945,0.639-1.324c1.521-3.86,3.028-7.726,4.559-11.582
				c0.154-0.39,0.365-0.814,0.674-1.075c0.613-0.516,1.33-0.516,1.999-0.05c0.649,0.451,0.845,1.217,0.506,2.095
				c-0.937,2.418-1.897,4.827-2.845,7.241c-1.275,3.244-2.558,6.485-3.817,9.736c-0.308,0.793-0.758,1.366-1.672,1.375
				c-0.914,0.009-1.387-0.554-1.701-1.342c-1.569-3.933-3.148-7.862-4.729-11.791C49.682,15.998,49.501,15.688,49.24,15.162z"/>
			<path fill-rule="evenodd" clip-rule="evenodd" fill="#520F41" d="M88.736,22.755c0.14-0.307,0.291-0.61,0.417-0.924
				c1.575-3.899,3.154-7.797,4.712-11.703c0.328-0.82,0.797-1.419,1.751-1.4c0.914,0.019,1.347,0.62,1.654,1.406
				c2.187,5.577,4.391,11.147,6.585,16.723c0.463,1.175,0.158,2.068-0.807,2.449c-0.97,0.382-1.82-0.063-2.282-1.232
				c-1.57-3.963-3.129-7.931-4.695-11.896c-0.112-0.283-0.256-0.553-0.482-1.038c-0.257,0.471-0.44,0.741-0.56,1.038
				c-1.577,3.898-3.154,7.797-4.711,11.704c-0.32,0.803-0.721,1.453-1.696,1.465c-1.017,0.013-1.432-0.652-1.765-1.49
				c-1.54-3.882-3.106-7.753-4.667-11.626c-0.122-0.305-0.284-0.593-0.534-1.11c-0.253,0.508-0.418,0.788-0.537,1.086
				c-1.563,3.966-3.119,7.935-4.68,11.901c-0.434,1.101-1.286,1.561-2.219,1.217c-0.983-0.362-1.321-1.269-0.864-2.438
				c1.594-4.077,3.203-8.148,4.805-12.223c0.59-1.501,1.2-2.995,1.761-4.507c0.308-0.83,0.766-1.431,1.722-1.43
				c0.918,0.001,1.36,0.594,1.672,1.378c1.567,3.933,3.151,7.86,4.733,11.788c0.124,0.304,0.285,0.592,0.429,0.889
				C88.564,22.774,88.65,22.764,88.736,22.755z"/>
			<path fill-rule="evenodd" clip-rule="evenodd" fill="#520F41" d="M109.117,25.645c-0.041,0.543-0.084,0.846-0.084,1.149
				c-0.006,1.932,0.005,3.864-0.007,5.796c-0.008,1.181-0.604,1.862-1.583,1.859c-0.976-0.003-1.577-0.687-1.576-1.857
				c0.004-5.017-0.102-10.038,0.068-15.051c0.157-4.678,4.045-8.429,8.772-8.803c4.66-0.368,9.028,2.839,10.05,7.378
				c0.876,3.896-0.652,7.83-3.917,10.085c-3.226,2.228-7.483,2.228-10.814,0.005C109.796,26.052,109.555,25.916,109.117,25.645z
				 M115.401,24.689c3.51,0.018,6.413-2.843,6.438-6.344c0.027-3.508-2.943-6.498-6.426-6.469c-3.468,0.028-6.362,2.897-6.384,6.327
				C109.006,21.785,111.842,24.671,115.401,24.689z"/>
			<path fill-rule="evenodd" clip-rule="evenodd" fill="#520F41" d="M67.31,20.618c0-2.306-0.011-4.614,0.005-6.922
				c0.008-1.131,0.676-1.796,1.687-1.746c0.88,0.044,1.437,0.622,1.445,1.609c0.038,4.728,0.063,9.458,0.071,14.185
				c0.001,1.04-0.642,1.702-1.553,1.717c-0.951,0.015-1.603-0.652-1.612-1.75c-0.023-2.364-0.007-4.729-0.007-7.094
				C67.334,20.618,67.322,20.618,67.31,20.618z"/>
			<path fill-rule="evenodd" clip-rule="evenodd" fill="#520F41" d="M68.925,5.551c0.891-0.006,1.593,0.68,1.598,1.561
				c0.005,0.881-0.689,1.582-1.573,1.588c-0.885,0.006-1.59-0.682-1.602-1.564C67.336,6.261,68.036,5.557,68.925,5.551z"/>
		</g>
	</g>
</g>
</svg>
