<?xml version="1.0" encoding="utf-8"?>
<!-- Generator: Adobe Illustrator 20.1.0, SVG Export Plug-In . SVG Version: 6.00 Build 0)  -->
<svg version="1.1" id="logos" xmlns="http://www.w3.org/2000/svg" xmlns:xlink="http://www.w3.org/1999/xlink" x="0px" y="0px"
	 viewBox="0 0 125 40" enable-background="new 0 0 125 40" xml:space="preserve">
<g>
	<g>
		<path fill="#1D1D1B" d="M23.561,22.801c0.056,0.15,0.148,0.203,0.276,0c0.128-0.202,0-0.436,0-0.436s-0.064-0.011-0.109,0.095
			C23.682,22.567,23.505,22.652,23.561,22.801z"/>
		<polygon fill="#1D1D1B" points="22.807,17.744 22.516,19.243 23.312,20.885 23.55,22.004 23.722,21.945 23.55,19.983 		"/>
		<polygon fill="#1D1D1B" points="22.002,16.651 21.628,15.626 20.823,15.571 21.473,16.423 		"/>
		<path fill="#1D1D1B" d="M20.166,15.587l-0.433-0.741c0,0-0.731-0.109-0.776-0.109l0.179,0.425h0.364L20.166,15.587z"/>
		<polygon fill="#1D1D1B" points="10.273,19.676 11.436,20.586 11.103,19.82 11.198,19.333 10.074,18.288 10.669,19.333 
			10.273,19.094 		"/>
		<polygon fill="#1D1D1B" points="11.867,21.317 10.917,20.692 11.121,21.231 		"/>
		<polygon fill="#1D1D1B" points="5.305,14.737 6.938,15.626 8.55,15.416 11.117,16.289 7.856,14.737 		"/>
		<polygon fill="#1D1D1B" points="9.908,15.011 10.49,15.503 11.296,15.67 10.602,15.109 		"/>
		<polygon fill="#1D1D1B" points="10.755,14.588 11.997,15.34 14.144,15.841 12.815,15.299 12.449,14.737 		"/>
		<polygon fill="#1D1D1B" points="14.553,13.01 14.464,12.518 12.45,12.274 13.718,12.897 		"/>
		<polygon fill="#1D1D1B" points="11.915,9.127 14.347,9.992 15.138,10.572 16.003,10.572 14.144,9.552 		"/>
		<path fill="#1D1D1B" d="M7.453,10.634l4.894,0.194l2.226,1.089l0.639,0.291c0,0-0.977-0.887-1.853-1.485
			c-0.876-0.598-0.91-0.614-0.91-0.614h-0.43L9.304,7.873l0.128,0.344l-2.74-1.508L8.88,8.701l0.08-0.376l0.306,0.98L8.304,8.798
			l0.702,0.791l1.749,0.641l-1.183-0.128L7.975,9.448l-0.94-0.964l0.631,1.082l1.19,0.743L7.17,10.127L5.936,9.612L4.719,8.325
			l0.747,1.381L7.453,10.634z"/>
		<polygon fill="#1D1D1B" points="7.419,9.753 5.305,8.142 6.437,9.559 		"/>
		<polygon fill="#1D1D1B" points="6.427,10.828 6.427,10.38 4.439,9.448 3.108,8.202 4.22,9.64 		"/>
		<polygon fill="#1D1D1B" points="2.261,10.201 2.765,11.499 4.767,12.372 4.275,11.835 6.362,12.372 4.976,11.32 6.066,11.589 
			3.715,10.447 2.663,8.813 3.447,10.828 4.454,11.589 2.932,11.096 		"/>
		<polygon fill="#1D1D1B" points="1.634,18.617 0,16.916 0.736,18.288 		"/>
		<polygon fill="#1D1D1B" points="2.037,20.692 3.108,21.317 1.929,20.318 2.765,20.586 0.439,18.93 2.261,21.571 		"/>
		<polygon fill="#1D1D1B" points="1.072,22.192 1.751,23.429 2.969,24.541 2.059,24.1 2.969,25.488 2.371,25.398 3.447,26.137 
			2.371,26.087 1.35,25.51 2.216,26.24 3.989,26.458 5.305,27.01 3.775,25.582 4.185,25.645 3.225,24.817 4.311,24.996 
			3.188,23.496 3.671,23.608 2.686,22.65 1.774,21.571 2.206,22.935 2.765,23.451 1.93,23.167 		"/>
		<polygon fill="#1D1D1B" points="4.767,28.51 6.558,28.219 3.317,26.752 2.377,26.603 1.384,26.227 2.394,26.961 3.188,27.223 
			2.261,27.465 3.536,27.995 2.865,27.995 		"/>
		<polygon fill="#1D1D1B" points="2.136,31.514 4.317,32.089 4.118,31.777 4.7,31.912 2.731,30.416 1.634,28.694 2.149,30.658 
			1.574,30.303 		"/>
		<polygon fill="#1D1D1B" points="6.558,31.569 8.259,31.442 8.93,30.906 8.016,30.906 7.751,30.285 6.855,29.868 7.346,29.609 
			6.744,29.196 4.469,28.694 5.513,29.286 6.409,29.609 5.305,29.675 3.188,28.912 4.484,30.082 6.346,30.516 6.941,31.18 
			5.215,30.906 		"/>
		<polygon fill="#1D1D1B" points="4.812,32.874 5.573,33.523 3.469,33.053 5.775,34.105 5.506,34.449 7.229,34.449 6.558,34.239 
			6.871,33.971 5.685,33.344 5.864,33.098 		"/>
		<path fill="#1D1D1B" d="M11.322,38.788C13.465,39.572,15.78,40,18.195,40c11.046,0,20-8.954,20-20c0-11.046-8.954-20-20-20
			c-0.779,0-1.546,0.049-2.302,0.136l0.083,0.038l-0.608,0.002l-0.794,0.177h1.318l-0.527,0.222c0,0,1.502-0.088,2.313,0.471
			c0.811,0.56,0.766,0.918,0.766,0.918h-1.522l1.442,0.697l-3.151-0.436l-2.763-0.798l-1.844,0.213L8.55,2.434l3.278-0.349
			l1.204,0.32l-0.99,0.255l1.918,0.646l-1.144,0.112l3.793,1.746l0.962,1.298l1.388,0.985L17.413,7l0.604,0.448l-1.091-0.493
			l0.062,0.493c0,0-1.161-1.191-1.855-1.726c-0.695-0.535-0.532-0.506-1.174-0.487c-0.642,0.02-1.134-0.377-1.738-0.302
			c-0.604,0.075-1.209,0.209-1.209,0.209l1.437,0.045l0.182,0.336l-1.67,0.172l-0.888-0.307l0.244,0.515L8.21,5.725L6.427,4.74
			l1.752,1.746l1.895,0.108l1.841,0.667l1.313,0.941l0.224,0.746l2.887,0.694l1.679,1.746l-0.806-0.163l0.962,0.983l-1.432-0.216
			l0.974,0.962l0.073-0.008l-0.005,0.007c0.137-0.008,0.272-0.021,0.411-0.021c4.015,0,7.27,3.255,7.27,7.27
			c0,2.197-0.979,4.161-2.519,5.494c-0.364,0.16-2.572,1.445-2.964,1.545c-0.436-0.332-0.982-0.739-1.023-0.722
			c-0.07,0.028-0.906-0.486-2.085-0.507c-1.178-0.021-2.299,0-2.299,0l1.631,0.507l0.067-0.224c0,0,1.371,0.142,1.813,0.403
			c0.442,0.261,0.442,0.261,0.442,0.261l-0.977,0.142l0.4,0.364c-0.13-0.006-0.259-0.014-0.388-0.025l-0.004,0.555l-2.433-0.995
			l0.215-0.143l-0.543-0.151l-0.474-0.405l0.355,0.867l-0.531-0.649v0.38l-1.07-0.716l-0.92-1.507l0.627,1.731l1.258,0.972
			l0.011,0.297l0.525,0.433h-0.734l-1.686-0.791L11.6,27.25l-0.55-0.732l0.313,1.081l0.7,0.22l1.329,0.902l1.283,0.355l0.716,0.746
			l0.761,0.259l-0.065-0.671l0.393,0.442l0.644,0.075l0.099,0.15l-0.254,0.34l-0.253,0.331l-0.499,0.506l0.697,0.597l-1.24-0.568
			l-0.401,0.001l0.041,0.376l-1.39,0.483h-1.471L11.12,32.77l-1.801-0.082l1.582-0.254l0.642-0.865l-0.657-0.317l-2.641,0.481
			l-1.955,0.119l0.651,0.179l-1.274,0.231l-0.526-0.059l0.91,0.395l1.15-0.299l0.209,0.269l1.313-0.298l-0.606,0.224l0.903-0.062
			l-1.268,0.286l0.823,0.429l2.358,0.116l-0.673,0.285h-0.97l0.433,0.348l0.731,0.091l-2.895,0.925h0.895l-1.701,0.582l1.119,0.06
			l0.244,0.162l0.547-0.281l1.97,0.209l-0.835,0.164l0.256,0.056L8.393,36.06l1.373,0.313l1.974-0.806l-0.004,0.239l0.996-0.781
			l0.646-0.099l-0.179,0.313l2.209-0.605l-0.955,0.993l-1.015,0.105l0.097,0.246l-1.321,0.619l-0.903,0.596l-0.768-0.103
			L9.93,37.671l0.865-0.149l0.642,0.373l1.388-0.805l2.432-0.657l1.164-0.821l0.314,0.233l-0.911,1.394l0.836,0.09l-1.716,1.015
			l-0.478-0.612l-1.73,0.765l-0.121-0.422c0,0-1.943,0.115-2.373-0.027c-0.431-0.143-1.331-0.362-1.331-0.362l2.227,0.811
			l0.297,0.065L11.322,38.788z M26.814,16.651l0.699,0.556l-0.498-1.268l0.718,1.157c-0.043-0.353-0.081-0.672-0.083-0.69
			c-0.003-0.039,0.355,0.814,0.355,0.814l0.042-0.791l0.37,0.682l-0.058-0.783l0.559,0.654l0.252,0.813l0.069-0.613l-0.164-0.657
			l-0.073-0.98l0.271,0.387l0.3,0.096l0.489,0.738l-0.219-1.218l0.553,1.088l-0.03-0.747l0.267,0.505l-0.074-0.992l0.572,1.336
			c0,0-0.103-0.531-0.24-1.177c-0.138-0.646-0.613-1.543-0.613-1.543l0.648,0.831c0,0-0.189-0.655-0.404-1.138
			c-0.215-0.483-1.036-1.577-1.036-1.577s0,0,0.439,0.401c0.437,0.4,0.98,1.003,0.98,1.003s0,0-0.167-0.368
			c-0.168-0.368-0.986-1.423-0.986-1.423s0.806,0.727,1.28,1.44c0.475,0.713,1.423,2.822,1.423,2.822s-0.006-0.079-0.208-0.733
			c-0.202-0.654-0.612-1.543-0.612-1.543l-0.809-1.436l0.873,0.933l0.843,1.394c0,0-0.095-0.426-0.382-1.192
			c-0.286-0.767-0.999-1.764-0.999-1.764l0.601,0.192c0,0,0,0,0.197,0.261c0.198,0.261,0.979,1.318,0.979,1.318l-0.504-1.118
			l-1.402-2.156l1.076,1.209c0,0,0.325,0.251,0.903,1.166c0.578,0.915,1.58,3.401,1.58,3.401s0,0-0.264-0.965
			c-0.263-0.965-1.201-2.772-1.201-2.772l0.827,1.002c0,0-0.047-0.272-0.247-0.731c-0.2-0.457-0.662-1.368-0.662-1.368
			s0.474,0.384,1.091,1.31c0.617,0.926,0.823,1.449,0.823,1.449s0.121,0.267-0.073-0.467c-0.195-0.734-0.475-1.518-0.475-1.518
			s1.503,1.919,2.05,5.134c0.547,3.216-0.148,6.646-0.148,6.646s-0.09-0.409-0.027-0.768c0.062-0.359,0.045-1.776,0.045-1.776
			s-0.125,0.206-0.198,0.763c-0.073,0.556-0.209,1.118-0.209,1.118l-0.348,1.313l-0.001-0.696l0.269-1.676L35.465,22.9
			c0,0-0.061,0.543-0.121,0.77c-0.059,0.228-0.552,0.961-0.552,0.961s0.304-1.388,0.352-2.101c0.048-0.713-0.037-2.545-0.037-2.545
			s-0.074,2.067-0.126,2.583c-0.05,0.516-0.665,1.835-0.665,1.835l0.059-0.91l-0.827,1.874l0.367-1.735l-0.78,1.332
			c0,0,0.241-0.53,0.353-1.077c0.112-0.547,0.221-2.157,0.221-2.157s-0.072,0.058-0.113,0.521c-0.042,0.462-0.824,1.769-0.824,1.769
			s0.162-0.721,0.247-1.463c0.084-0.742,0.072-1.936,0.072-1.936s-0.219,1.501-0.237,1.778c-0.018,0.277-0.37,1.366-0.37,1.366
			l-0.672,0.734l0.053-1.002l-0.667,1.31c0,0,0.218-0.489,0.299-1.125c0.079-0.636,0.1-2.91,0.1-2.91l-0.428,1.949
			c0,0,0,0,0.024-0.199c0.023-0.199,0.043-1.632,0.043-1.632l-0.208,0.803l-0.301-1.119c0,0-0.009,0.21-0.038,0.673
			c-0.004,0.057-0.015,0.134-0.029,0.218l-0.382,1.1l-0.383,0.417c-0.332,0.335-0.731,0.704-0.731,0.704l0.536-1.037l0.38-0.161
			l-0.388-0.076c0,0,0.086-0.217,0.084-0.926c-0.002-0.708-0.329-2.01-0.329-2.01s0,0,0.011,0.314
			c0.011,0.314-0.107,0.782-0.107,0.782l-0.069-0.415l-0.293,0.849l-0.144-0.895L28.4,21.144c0,0,0.098-0.573,0.11-1.086
			c0.013-0.513-0.283-0.884-0.283-0.884l-0.044,0.777l-0.162,0.052l-0.111,0.56l-0.201,0.413l0.109-1.299l-0.207,0.589l0.014-0.456
			l-0.301,0.852c0.009-0.165,0.014-0.331,0.014-0.498c0-1.513-0.375-2.938-1.035-4.192L26.814,16.651z"/>
		<path fill="#1D1D1B" d="M18.526,17.219c-0.885-0.347-1.71-0.391-1.822-0.386l-3.939-0.812l2.192,0.9
			c-0.556,0.06-1.171,0.14-1.884,0.215c-2.681,0.283-3.934,0.198-3.934,0.198l0.934-0.508L6.97,16.976l-1.994-0.732l1.656,1.119
			c0,0,1.615,0.341,3.061,0.589c1.446,0.247,1.849,0.706,1.849,0.706s0.68,4.745,3.322,5.453c8.686,2.328,8.14-0.134,8.14-0.134
			l-0.383-3.037c-0.25-0.932-0.828-1.692-1.677-2.353l-0.704-1.018L16.003,15.3L18.526,17.219z M18.405,18.937
			c0,0.23-0.187,0.418-0.418,0.418c-0.231,0-0.418-0.187-0.418-0.418c0-0.231,0.187-0.418,0.418-0.418
			C18.218,18.519,18.405,18.707,18.405,18.937z M20.609,20.386c0.175-0.51,0.131-0.953-0.054-1.32
			c0.608,0.394,0.984,0.714,0.984,0.714s0.552,0.925,0.222,1.642c-0.33,0.717-1.194,1.726-1.194,1.726l-0.666,0.338
			c0,0-2.123,0.353-3.361-0.293c-1.238-0.646-2.239-1.458-2.482-2.835c-0.244-1.377-0.264-2.293-0.264-2.293
			s0.567-0.686,3.034-0.445c0.405,0.04,0.802,0.127,1.185,0.241c-0.603,0.036-1.147,0.258-1.44,0.689
			c-1.063,1.567-0.076,2.396,0.19,2.767C17.391,22.192,19.798,22.749,20.609,20.386z"/>
		<rect x="61.528" y="15.946" fill="#1D1D1B" width="2.363" height="10.92"/>
		<polygon fill="#1D1D1B" points="80.54,24.799 68.411,15.946 65.861,15.946 65.861,26.865 68.224,26.865 68.224,17.936 
			80.169,26.865 82.79,26.865 82.79,15.946 80.54,15.946 		"/>
		<path fill="#1D1D1B" d="M84.651,26.865h16.817v-5.692l-7.218-5.228h-9.599V26.865z M86.903,17.843h6.398l5.933,4.279v2.864H86.903
			V17.843z"/>
		<rect x="103.44" y="15.946" fill="#1D1D1B" width="2.362" height="10.92"/>
		<polygon fill="#1D1D1B" points="125,17.843 125,15.946 107.774,15.946 107.774,26.865 125,26.865 125,20.373 116.537,20.373 
			116.537,22.252 122.637,22.252 122.637,24.985 110.119,24.985 110.119,17.843 		"/>
		<polygon fill="#1D1D1B" points="59.571,15.926 57.328,15.926 57.328,20.655 51.366,25.01 51.367,25.012 49.83,25.012 
			49.831,25.012 43.868,20.657 43.868,15.928 41.625,15.928 41.625,21.667 48.871,26.896 48.871,26.9 48.876,26.9 48.877,26.9 
			48.878,26.9 52.318,26.9 52.318,26.897 52.319,26.899 59.571,21.665 		"/>
	</g>
	<rect x="0" y="0" fill="none" width="125" height="40"/>
</g>
</svg>
