<?xml version="1.0" encoding="utf-8"?>
<!-- Generator: Adobe Illustrator 21.0.2, SVG Export Plug-In . SVG Version: 6.00 Build 0)  -->
<svg version="1.1" xmlns="http://www.w3.org/2000/svg" xmlns:xlink="http://www.w3.org/1999/xlink" x="0px" y="0px"
	 viewBox="0 0 125 40" enable-background="new 0 0 125 40" xml:space="preserve">
<g id="bg" display="none">
	<rect display="inline" fill="#FFFFFF" width="125" height="40"/>
</g>
<g id="icons">
	<g id="Sqohqt_1_">
		<g>
			<path fill="#E30378" d="M15.241,35.217C6.844,35.21,0.005,28.409,0,20.063C-0.005,11.723,6.852,4.912,15.243,4.919
				c8.454,0.008,15.267,6.783,15.259,15.174C30.495,28.436,23.645,35.224,15.241,35.217z M27.542,20.125
				c0.025-6.733-5.445-12.248-12.183-12.282C8.566,7.808,2.983,13.268,2.954,19.974C2.925,26.727,8.418,32.256,15.18,32.279
				C21.987,32.303,27.517,26.866,27.542,20.125z"/>
			<path fill="#E30378" d="M69.979,35.217c-8.42-0.014-15.252-6.839-15.235-15.221c0.016-8.3,6.874-15.078,15.255-15.077
				c8.46,0,15.277,6.808,15.26,15.241C85.243,28.441,78.352,35.231,69.979,35.217z M82.296,20.047
				C82.291,13.335,76.777,7.849,70.03,7.842c-6.785-0.007-12.318,5.475-12.322,12.209c-0.004,6.743,5.512,12.228,12.297,12.228
				C76.79,32.28,82.302,26.794,82.296,20.047z"/>
			<path fill="#E30278" d="M103.247,31.287c-1.522-0.361-2.909-0.689-4.351-1.03c0.189-0.839,0.375-1.653,0.555-2.467
				c0.274-1.243,0.367-2.492,0.185-3.76c-0.181-1.264-0.833-2.037-2.106-2.092c-1.251-0.054-2.512,0.106-3.768,0.178
				c-0.245,0.014-0.488,0.057-0.78,0.093c-0.234-0.712-0.46-1.397-0.712-2.164c0.925-0.129,0.755-0.817,0.754-1.436
				c-0.004-2.296-0.002-4.592-0.002-6.888c0-0.205,0-0.409,0-0.662c-2.47,0-4.874,0-7.314,0c-0.151-0.864-0.295-1.687-0.453-2.59
				c2.59,0,5.137,0,7.755,0c0-1.208,0-2.345,0-3.505c1.539,0,3.007,0,4.541,0c0,1.143,0,2.278,0,3.475c2.525,0,4.983,0,7.511,0
				c-0.134,0.897-0.258,1.723-0.39,2.606c-2.359,0-4.702,0-7.077,0c0,2.709,0,5.358,0,8.142c0.942,0,1.873-0.033,2.8,0.012
				c0.608,0.029,1.218,0.132,1.813,0.266c1.404,0.317,2.232,1.249,2.478,2.677c0.253,1.471-0.041,2.897-0.345,4.318
				C103.999,28.058,103.62,29.65,103.247,31.287z"/>
			<path fill="#E30277" d="M38.113,18.997c-2.063,0-4.05,0-6.037,0c-1.053,0-1.052,0-1.239-1.064
				c-0.079-0.448-0.161-0.895-0.252-1.397c2.514,0,4.973,0,7.504,0c0-3.881,0-7.714,0-11.581c1.517,0,2.964,0,4.479,0
				c0,3.835,0,7.669,0,11.551c2.702,0,5.336,0,8.03,0c-0.128,0.788-0.225,1.523-0.387,2.244c-0.026,0.116-0.343,0.236-0.526,0.237
				c-2.143,0.016-4.286,0.011-6.429,0.011c-0.206,0-0.413,0-0.674,0c0,5.408,0,10.757,0,16.139c-1.5,0-2.945,0-4.467,0
				C38.113,29.768,38.113,24.403,38.113,18.997z"/>
			<path fill="#E30277" d="M90.893,32.764c4.538,0,8.985,0,13.509,0c-0.235,0.793-0.441,1.524-0.679,2.244
				c-0.032,0.096-0.23,0.197-0.351,0.196c-4.684-0.009-9.369,0.016-14.052-0.07c-1.799-0.033-2.87-1.202-2.894-3.064
				c-0.056-4.321-0.026-8.643-0.029-12.964c0-0.053,0.029-0.107,0.053-0.19c1.462,0,2.925,0,4.443,0
				C90.893,23.514,90.893,28.093,90.893,32.764z"/>
			<path fill="#4F4C4B" d="M111.567,12.899c3.509-0.657,7.037-0.591,10.57-0.255c0.434,0.041,0.872,0.131,1.289,0.26
				c1.091,0.339,1.635,1.252,1.352,2.362c-0.177,0.696-0.488,1.357-0.753,2.074c0.187,0.02,0.398,0.042,0.612,0.065
				c-0.301,1.341-0.301,1.34-1.591,1.342c-4.035,0.005-8.069,0.011-12.104,0.015c-0.172,0-0.344,0.002-0.516-0.007
				c-0.918-0.044-1.304-0.35-1.38-1.272c-0.081-0.989-0.065-1.986-0.081-2.979c-0.01-0.666-0.002-1.332-0.002-2.067
				c0.784,0,1.503-0.012,2.221,0.014c0.098,0.004,0.189,0.202,0.284,0.31C111.5,12.808,111.533,12.854,111.567,12.899z
				 M111.458,15.099c3.594,0,7.122,0,10.666,0c0.096-0.57-0.162-0.891-0.669-0.952c-1.098-0.134-2.199-0.283-3.302-0.313
				c-2.077-0.056-4.153,0.018-6.206,0.502c-0.146-0.419-0.278-0.8-0.41-1.18c-0.026,0.009-0.052,0.018-0.079,0.026
				C111.458,13.807,111.458,14.432,111.458,15.099z M121.791,16.342c-3.484,0-6.9,0-10.331,0c0,0.347,0,0.662,0,0.992
				c3.81,0,7.591,0,11.542,0c-0.556-0.225-0.953-0.385-1.364-0.551C121.697,16.615,121.738,16.495,121.791,16.342z"/>
			<path fill="#4D4A49" d="M111.227,27.23c1.415,0,2.83,0,4.299,0c0-0.789,0-1.564,0-2.382c0.845,0,1.638,0,2.489,0
				c0,0.759,0,1.533,0,2.361c2.172,0,4.287,0,6.497,0c-0.147,0.524-0.244,0.987-0.417,1.419c-0.049,0.122-0.318,0.217-0.488,0.219
				c-1.626,0.016-3.252,0.01-4.879,0.01c-0.207,0-0.414,0-0.694,0c0,0.826,0.001,1.604,0,2.382
				c-0.002,0.746,0.021,1.494-0.016,2.238c-0.054,1.064-0.433,1.438-1.485,1.489c-0.84,0.041-1.683,0.031-2.524,0.063
				c-0.289,0.011-0.461-0.043-0.515-0.372c-0.06-0.369-0.185-0.728-0.312-1.207c0.559,0,1.051-0.018,1.541,0.005
				c0.529,0.024,0.818-0.24,0.828-0.731c0.026-1.259,0.009-2.518,0.009-3.849c-0.447,0-0.842,0.002-1.237,0
				c-1.415-0.01-2.833,0.013-4.245-0.052c-0.509-0.024-1.172-0.002-1.269-0.785c0.04-0.197,0.113-0.394,0.114-0.591
				c0.01-1.449,0.005-2.899,0.005-4.348c0-1.522,0-1.505,1.536-1.504c0.441,0,0.546,0.149,0.54,0.563
				c-0.021,1.506-0.016,3.013,0.002,4.519C111.006,26.861,111.149,27.045,111.227,27.23z"/>
			<path fill="#E30478" d="M50.628,34.268c-0.584,0.2-1.098,0.408-1.631,0.541c-0.156,0.039-0.424-0.087-0.541-0.223
				c-0.824-0.961-1.348-2.087-1.645-3.306c-0.765-3.138-0.902-6.347-1.058-9.602c1.178,0,2.315,0,3.515,0
				C49.515,25.861,49.491,30.096,50.628,34.268z"/>
			<path fill="#E30378" d="M35.273,21.748c-0.205,2.59-0.39,5.105-0.607,7.618c-0.14,1.617-0.539,3.165-1.427,4.551
				c-0.602,0.94-0.607,0.937-1.671,0.666c-0.368-0.094-0.735-0.192-1.163-0.304c1.179-4.105,1.127-8.32,1.319-12.532
				C32.883,21.748,34.003,21.748,35.273,21.748z"/>
			<path fill="#4E4B4B" d="M108.701,11.398c-0.093-0.536-0.177-1.022-0.277-1.601c0.252,0,0.451,0,0.65,0
				c3.117,0,6.235-0.023,9.351,0.02c0.629,0.009,1.035-0.202,1.166-0.742c0.258-1.065,0.935-1.265,1.891-1.131
				c0.45,0.063,0.915,0.011,1.536,0.011c-0.415,0.647-0.775,1.208-1.164,1.814c1.009,0,2.04,0,3.146,0
				c-0.115,0.597-0.213,1.109-0.313,1.63C119.349,11.398,114.058,11.398,108.701,11.398z"/>
			<path fill="#4F4C4B" d="M124.613,5.59c-0.109,0.588-0.201,1.091-0.297,1.612c-5.099,0-10.164,0-15.266,0
				c-0.094-0.509-0.187-1.011-0.293-1.582c0.248-0.011,0.448-0.028,0.647-0.028c1.684-0.002,3.368,0.009,5.051-0.014
				c0.233-0.003,0.508-0.119,0.687-0.272c0.827-0.708,2.383-0.696,3.19,0.027c0.161,0.144,0.423,0.244,0.639,0.246
				C120.824,5.598,122.678,5.59,124.613,5.59z"/>
			<path fill="#4F4C4B" d="M111.227,27.23c-0.078-0.184-0.221-0.368-0.223-0.554c-0.018-1.506-0.023-3.013-0.002-4.519
				c0.006-0.414-0.099-0.563-0.54-0.563c-1.536-0.001-1.536-0.018-1.536,1.504c0,1.449,0.005,2.899-0.005,4.348
				c-0.001,0.197-0.074,0.394-0.114,0.591c-0.027-0.091-0.077-0.181-0.077-0.272c-0.004-2.083-0.003-4.167-0.003-6.28
				c0.824,0,1.621,0,2.456,0c0.022,0.161,0.044,0.322,0.068,0.5c0.072,0,0.122,0.001,0.173,0c1.951-0.044,3.902-0.067,5.852-0.141
				c1.072-0.041,2.137-0.177,3.084-0.763c0.076-0.047,0.18-0.068,0.271-0.068c0.972-0.005,1.944-0.003,2.976-0.003
				c-0.452,1.045-1.151,1.701-2.2,1.977c-1.79,0.471-3.617,0.61-5.458,0.631c-1.205,0.014-2.412-0.002-3.616,0.039
				c-0.413,0.014-0.578-0.14-0.67-0.507c-0.081-0.322-0.217-0.63-0.434-0.924C111.227,23.893,111.227,25.561,111.227,27.23z"/>
			<path fill="#E30478" d="M50.095,5.92c-0.25,2.531-0.395,5.034-1.606,7.314c-0.177,0.333-0.346,0.476-0.75,0.357
				c-0.581-0.172-1.187-0.263-1.778-0.387c0.297-2.442,0.59-4.844,0.887-7.283C47.882,5.92,48.943,5.92,50.095,5.92z"/>
			<path fill="#E30478" d="M30.863,5.902c1.057,0,2.066,0,3.13,0c0.088,0.815,0.16,1.626,0.268,2.433
				c0.174,1.306,0.361,2.61,0.567,3.91c0.056,0.351,0.031,0.559-0.364,0.679c-0.616,0.186-1.211,0.439-1.798,0.657
				C31.518,12.257,31.001,8.443,30.863,5.902z"/>
			<path fill="#4F4C4B" d="M108.386,34.439c0.714-1.429,1.407-2.817,2.148-4.301c0.707,0,1.599,0,2.571,0
				c-0.448,1.899-1.102,3.628-2.815,4.736c-0.118,0.077-0.329,0.076-0.475,0.034C109.302,34.759,108.8,34.577,108.386,34.439z"/>
			<path fill="#4E4B4A" d="M120.072,30.079c0.855,0,1.671,0,2.534,0c0.295,1.563,0.675,3.094,1.826,4.376
				c-0.655,0.19-1.231,0.381-1.82,0.512c-0.136,0.03-0.341-0.119-0.474-0.233C120.92,33.687,120.081,31.802,120.072,30.079z"/>
			<path fill="#524F4E" d="M113.989,9.134c-0.684,0.137-1.31,0.283-1.943,0.376c-0.154,0.023-0.387-0.079-0.49-0.202
				c-0.323-0.384-0.601-0.806-0.997-1.352c1.011,0,1.835-0.013,2.658,0.015c0.112,0.004,0.238,0.2,0.32,0.33
				C113.687,8.543,113.81,8.801,113.989,9.134z"/>
			<path fill="#4D4A49" d="M15.002,22.774c0-3.425,0-6.787,0-10.238c0.588,0,1.153-0.011,1.716,0.01
				c0.105,0.004,0.226,0.116,0.303,0.209c0.806,0.969,1.612,1.939,2.402,2.921c0.419,0.52,0.847,1.04,1.2,1.604
				c0.918,1.466,0.821,2.559-0.289,3.873c-0.159,0.189-0.331,0.367-0.506,0.559c-0.462-0.212-0.655-0.439-0.501-1.007
				c0.355-1.312,0.179-2.584-0.651-3.706c-0.421-0.57-0.969-0.962-1.791-1.042c0,0.235-0.001,0.437,0,0.639
				c0.008,2.504,0.041,5.009,0.001,7.513c-0.007,0.44-0.22,0.956-0.505,1.298c-1.315,1.579-3.042,2.328-5.096,2.259
				c-0.624-0.021-1.238-0.215-1.517-0.856c-0.277-0.634-0.015-1.207,0.379-1.702c1.04-1.308,2.445-1.976,4.063-2.248
				C14.455,22.82,14.703,22.806,15.002,22.774z"/>
			<path fill="#4D4A49" d="M66.344,22.257c0-2.585,0-5.199,0-7.846c3.175,0,6.304,0,9.526,0c0,0.17,0,0.35,0,0.531
				c0,2.736-0.01,5.471,0.008,8.207c0.004,0.577-0.174,1.055-0.562,1.453c-1.052,1.08-2.329,1.649-3.85,1.6
				c-0.512-0.016-1.003-0.149-1.252-0.66c-0.253-0.52-0.02-0.979,0.294-1.379c0.767-0.978,1.818-1.491,3.008-1.751
				c0.148-0.032,0.298-0.054,0.481-0.086c0-1.593,0-3.169,0-4.78c-1.924,0-3.844,0-5.819,0c0,0.755,0,1.477,0,2.199
				c0,1.11-0.026,2.22,0.01,3.328c0.023,0.69-0.224,1.232-0.707,1.683c-1.036,0.966-2.253,1.498-3.686,1.449
				c-0.533-0.018-1.044-0.149-1.287-0.696c-0.233-0.526,0.016-0.979,0.332-1.375c0.762-0.954,1.797-1.458,2.966-1.718
				c0.13-0.029,0.264-0.043,0.395-0.071C66.234,22.335,66.264,22.305,66.344,22.257z"/>
		</g>
	</g>
</g>
</svg>
