<?xml version="1.0" encoding="utf-8"?>
<!-- Generator: Adobe Illustrator 16.0.0, SVG Export Plug-In . SVG Version: 6.00 Build 0)  -->
<!DOCTYPE svg PUBLIC "-//W3C//DTD SVG 1.1//EN" "http://www.w3.org/Graphics/SVG/1.1/DTD/svg11.dtd">
<svg version="1.1" xmlns="http://www.w3.org/2000/svg" xmlns:xlink="http://www.w3.org/1999/xlink" x="0px" y="0px" width="125px"
	 height="40px" viewBox="0 0 125 40" enable-background="new 0 0 125 40" xml:space="preserve">
<g id="Layer_1">
	<g>
		<path fill-rule="evenodd" clip-rule="evenodd" fill="none" d="M66.096,21.957c-0.1,0.381-0.471,0.396-0.743,0.51
			c-0.699,0.297-1.443,0.224-2.179,0.182c-0.105-0.033-0.211-0.068-0.316-0.098c-1.511-0.425-2.697-1.294-3.484-2.654
			c-0.432-0.741-0.804-1.518-1.162-2.297c-0.149-0.322-0.299-0.496-0.685-0.458c-0.438,0.042-0.884,0.022-1.324,0.01
			c-0.315-0.009-0.501,0.121-0.575,0.424c-0.023,0.098-0.056,0.194-0.084,0.287c-0.086-0.019-0.136-0.015-0.167-0.038
			c-1.54-1.067-3.151-0.986-4.773-0.245c-1.281,0.584-2.253,1.528-2.979,2.73c-0.104,0.17-0.221,0.332-0.385,0.578
			c-0.051-0.192-0.089-0.256-0.078-0.311c0.197-0.969,0.4-1.938,0.604-2.906c0.061-0.284-0.018-0.524-0.319-0.537
			c-0.697-0.029-1.4-0.098-2.126,0.06c-0.057,0.242-0.116,0.451-0.155,0.664c-0.158,0.845-0.308,1.691-0.464,2.538
			c-0.413,2.254-0.832,4.508-1.237,6.764c-0.042,0.241-0.005,0.498-0.005,0.736c0.84,0,1.604,0,2.391,0
			c0.329-1.239,0.422-2.498,0.786-3.697c0.073,0.178,0.092,0.349,0.109,0.52c0.177,1.64,1.899,3.575,3.876,3.528
			c1.115-0.026,2.127-0.303,3.08-0.856c0.05-0.028,0.112-0.035,0.17-0.053c0.021,0.183,0.037,0.35,0.059,0.559
			c0.747,0,1.463,0,2.246,0c0.496-2.688,0.99-5.364,1.497-8.106c0.11,0.092,0.175,0.14,0.231,0.195
			c0.67,0.641,1.309,1.316,2.013,1.915c0.856,0.728,1.853,1.181,2.994,1.257c1.355,0.283,3.061-0.27,3.548-1.166
			c-0.131-0.008-0.251-0.017-0.373-0.024c0.195-0.423,0.626-0.456,0.993-0.592c0.037,0.033,0.073,0.065,0.11,0.097
			c-0.192,0.67-0.643,1.152-1.185,1.545c-1.048,0.758-2.233,1.01-3.509,0.89c-1.123-0.105-2.129-0.533-3.079-1.115
			c-0.419-0.255-0.829-0.526-1.385-0.88c0.193,0.559,0.352,0.963,0.474,1.378c0.174,0.586,0.549,0.917,1.142,1.048
			c0.451,0.1,0.887,0.265,1.339,0.367c1.531,0.348,3.024,0.278,4.432-0.491c1.137-0.622,1.941-1.52,2.174-2.835
			c0.049-0.278,0.006-0.573,0.006-0.872c0.094,0.026,0.157,0.028,0.168,0.052c0.033,0.079,0.059,0.165,0.068,0.251
			c0.132,1.117-0.205,2.095-0.917,2.944c-1.079,1.287-2.487,1.948-4.146,2.051c-0.823,0.052-1.655,0.009-2.614,0.009
			c0.222,0.205,0.375,0.324,0.504,0.467c0.567,0.634,1.216,0.815,2.068,0.581c1.371-0.376,2.719-0.761,3.793-1.76
			c0.812-0.755,1.406-1.648,1.623-2.744c0.182-0.911,0.109-1.807-0.388-2.65c0.153,0.065,0.307,0.138,0.354,0.253
			c0.189,0.466,0.439,0.933,0.498,1.42c0.246,2.079-0.645,3.703-2.234,4.938c-0.725,0.561-1.586,0.947-2.384,1.408
			c-0.12,0.069-0.249,0.123-0.373,0.184c0.572,0.216,1.132,0.313,1.688,0.419c0.327,0.062,0.601-0.011,0.843-0.251
			c0.549-0.542,1.136-1.048,1.66-1.612c0.846-0.914,1.362-2.006,1.524-3.241c0.204-1.556-0.135-2.94-1.396-3.993
			c-0.073-0.061-0.125-0.146-0.187-0.219c0.029-0.035,0.058-0.07,0.087-0.105c0.452,0.189,0.832,0.493,1.146,0.878
			c0.966,1.187,1.229,2.56,1.039,4.043c-0.146,1.142-0.65,2.144-1.254,3.102c-0.251,0.4-0.523,0.787-0.785,1.18
			c0.586-0.101,1.111-0.304,1.644-0.492c0.296-0.104,0.476-0.301,0.56-0.599c0.213-0.763,0.479-1.514,0.638-2.288
			c0.329-1.625,0.089-3.176-0.879-4.544c-0.728-1.028-1.657-1.771-3.037-1.655c-0.14,0.012-0.288-0.072-0.431-0.111
			c0.929-0.261,1.494-0.198,2.527,0.192c0.647,0.391,1.227,0.86,1.678,1.476c0.654,0.893,1.043,1.902,1.17,2.987
			c0.172,1.493,0.318,2.999-0.549,4.373c-0.068,0.107-0.043,0.274-0.065,0.454c1.051,0,2.036,0,3.057,0
			c3.192-3.472,6.398-6.959,9.67-10.518c0,0.239,0.019,0.37-0.003,0.493c-0.546,3.081-1.097,6.162-1.642,9.243
			c-0.045,0.247-0.054,0.5-0.083,0.786c0.875,0,1.662,0,2.453,0c2.651-3.503,5.295-6.997,7.94-10.491
			c0.043,0.022,0.084,0.043,0.128,0.064c-0.301,1.729-0.615,3.457-0.897,5.188c-0.282,1.729-0.666,3.44-0.904,5.168
			c0.661,0.154,1.991,0.146,2.523-0.007c0.18-1.011,0.362-2.042,0.568-3.208c0.166,0.47,0.26,0.802,0.396,1.115
			c0.701,1.621,2.158,2.54,3.921,2.495c0.974-0.024,1.855-0.342,2.69-0.818c0.069-0.039,0.149-0.057,0.218-0.082
			c0.031,0.207,0.057,0.392,0.083,0.569c0.761,0,1.459,0,2.203,0c0.076-0.365,0.153-0.705,0.217-1.046
			c0.547-2.947,1.092-5.894,1.63-8.842c0.046-0.248,0.033-0.507,0.05-0.812c-0.791,0-1.505,0-2.227,0
			c-0.09,0.271-0.17,0.504-0.258,0.77c-1.428-1.127-2.965-1.146-4.543-0.571c-1.395,0.507-2.446,1.463-3.268,2.685
			c-0.103,0.151-0.211,0.299-0.316,0.449c0.163-1.488,0.434-2.923,0.694-4.36c0.262-1.441,0.587-2.871,0.778-4.381
			c-0.938,0-1.788,0-2.666,0c-0.847,1.11-1.701,2.233-2.558,3.354c-0.845,1.104-1.685,2.213-2.54,3.309s-1.675,2.223-2.625,3.244
			c0.255-1.666,0.555-3.301,0.844-4.937c0.289-1.637,0.621-3.269,0.814-5.012c-0.751,0-1.409,0.035-2.062-0.012
			c-0.495-0.035-0.81,0.142-1.126,0.51c-3.533,4.123-7.082,8.23-10.628,12.341c-0.091,0.104-0.2,0.188-0.324,0.302
			c-0.08-0.432-0.128-0.805-0.22-1.167c-0.345-1.346-0.68-2.7-1.555-3.828c-0.82-1.059-1.823-1.847-3.199-2.043
			c-0.166-0.001-0.332,0.008-0.496-0.005c-0.584-0.045-1.151,0.003-1.688,0.257c-0.055,0.026-0.129,0.015-0.195,0.021
			c-0.022-0.032-0.049-0.061-0.075-0.09c0.596-0.516,1.312-0.718,2.075-0.72c1.962-0.006,3.463,0.919,4.574,2.466
			c0.56,0.78,0.987,1.657,1.477,2.494c0.222-0.522,0.293-1.104,0.31-1.693c0.002-0.119-0.053-0.263-0.127-0.358
			c-1.026-1.281-2.134-2.463-3.722-3.071c-2.239-0.858-4.275-0.303-5.542,1.525c-0.036-0.031-0.074-0.062-0.11-0.094
			c0.262-0.794,0.802-1.36,1.497-1.786c0.668-0.41,1.398-0.625,2.184-0.694c1.623-0.144,3.031,0.423,4.365,1.256
			c0.421,0.262,0.822,0.554,1.232,0.832c-0.12-0.625-0.339-1.193-0.545-1.767c-0.106-0.299-0.317-0.462-0.61-0.547
			c-0.719-0.209-1.427-0.462-2.154-0.629c-1.548-0.353-3.034-0.149-4.395,0.684c-1.221,0.746-1.974,1.805-2.007,3.291
			c-0.004,0.15-0.04,0.299-0.082,0.595c-0.156-0.78-0.177-1.408,0-2.037c0.373-1.312,1.26-2.194,2.408-2.841
			c1.405-0.792,2.938-0.862,4.499-0.74c0.252,0.021,0.504,0.054,0.756,0.082c-0.349-0.45-0.758-0.775-1.155-1.113
			c-0.256-0.219-0.536-0.289-0.859-0.208c-0.769,0.192-1.556,0.329-2.3,0.591c-1.58,0.556-2.755,1.552-3.462,3.139
			c-0.464,1.036-0.537,2.006-0.168,3.047c0.051,0.139,0.058,0.294,0.084,0.441c-0.704-0.93-0.931-1.945-0.704-3.067
			c0.188-0.93,0.581-1.751,1.166-2.489c0.89-1.123,2.105-1.788,3.366-2.391c0.124-0.061,0.249-0.125,0.43-0.216
			c-0.133-0.06-0.186-0.096-0.243-0.107c-0.26-0.053-0.519-0.111-0.779-0.146c-1.487-0.203-1.116-0.252-2.161,0.674
			c-0.846,0.75-1.607,1.581-2.046,2.649c-0.763,1.856-0.819,3.642,0.543,5.283c0.051,0.062,0.036,0.177,0.071,0.376
			c-0.216-0.144-0.351-0.208-0.455-0.307c-0.59-0.563-0.979-1.25-1.179-2.034c-0.401-1.568-0.18-3.067,0.585-4.481
			c0.352-0.648,0.75-1.271,1.203-2.034c-0.582,0.235-1.039,0.431-1.504,0.603c-0.276,0.103-0.43,0.294-0.506,0.564
			c-0.195,0.699-0.417,1.393-0.577,2.101c-0.31,1.354-0.199,2.689,0.42,3.937c0.746,1.505,1.885,2.484,3.675,2.467
			c0.121-0.001,0.244,0.031,0.468,0.062c-1.373,0.351-2.502,0.062-3.511-0.744c-1.1-0.879-1.777-2.038-1.98-3.41
			c-0.141-0.953-0.09-1.934-0.125-2.902c-0.004-0.135-0.021-0.27-0.039-0.494c-0.945,0.856-1.642,1.685-1.118,2.974
			c0.099,0.244,0.149,0.506,0.221,0.762c0.342,1.241,0.935,2.339,1.922,3.179c1.307,1.113,2.766,1.625,4.467,0.972
			C65.923,21.938,66.013,21.959,66.096,21.957z M42.664,15.741c-0.158,0.705-0.318,1.41-0.486,2.155
			c-0.101-0.05-0.18-0.078-0.247-0.124c-1.109-0.774-2.334-0.896-3.604-0.574c-1.984,0.502-3.357,1.776-4.321,3.537
			c-0.104,0.188-0.199,0.381-0.328,0.63c-0.071-0.351-0.127-0.629-0.184-0.907c-0.558-2.74-3.14-3.675-5.088-3.309
			c-1.937,0.363-3.449,1.392-4.57,3.007c-0.074,0.106-0.157,0.204-0.332,0.424c0.516-3.015,1.094-5.855,1.565-8.778
			c-0.921,0-1.747,0-2.612,0c-0.064,0.078-0.151,0.175-0.232,0.278c-1.319,1.712-2.635,3.428-3.96,5.137
			c-1.041,1.342-2.093,2.677-3.147,4.009c-0.121,0.152-0.199,0.42-0.498,0.317c0.589-2.484,1.688-9.213,1.57-9.791
			c-0.617,0-1.254,0.024-1.887-0.009c-0.373-0.02-0.609,0.123-0.842,0.396c-1.1,1.294-2.215,2.576-3.328,3.861
			c-3.189,3.69-6.381,7.378-9.568,11.07C0.396,27.266,0.244,27.476,0,27.786c0.308,0.073,0.5,0.153,0.693,0.159
			c0.619,0.017,1.238-0.02,1.854,0.015c0.485,0.027,0.812-0.14,1.133-0.509c2.935-3.386,5.889-6.754,8.834-10.131
			c0.08-0.093,0.118-0.226,0.176-0.34c0.048,0.04,0.095,0.08,0.144,0.12c-0.312,1.798-0.611,3.599-0.935,5.395
			c-0.32,1.786-0.663,3.568-1.007,5.406c0.888,0,1.675,0,2.515,0c0.877-1.193,1.775-2.42,2.677-3.644
			c0.892-1.207,1.783-2.413,2.679-3.617c0.893-1.2,1.773-2.41,2.744-3.551c-0.164,1.222-0.368,2.414-0.567,3.606
			c-0.206,1.217-0.41,2.435-0.612,3.653c-0.195,1.179-0.518,2.336-0.675,3.55c0.877,0,1.66,0,2.483,0
			c0.237-1.265,0.468-2.498,0.699-3.73c0.107,0.145,0.154,0.288,0.17,0.434c0.245,2.192,2.16,3.571,4.014,3.615
			c2.197,0.053,3.915-0.879,5.205-2.632c0.168-0.229,0.321-0.479,0.437-0.738c0.157-0.351,0.024-0.549-0.366-0.568
			c-0.396-0.02-0.795,0.021-1.191-0.009c-0.41-0.032-0.709,0.103-0.985,0.407c-0.519,0.568-1.171,0.929-1.928,1.089
			c-1.429,0.303-2.683-0.57-2.869-2.03c2.642,0,5.279,0,7.933,0c0.039,0.331,0.078,0.657,0.117,0.983
			c0.195,1.633,1.881,3.624,4.015,3.528c1.065-0.048,2.033-0.334,2.947-0.857c0.048-0.027,0.108-0.03,0.165-0.045
			c0.021,0.188,0.039,0.356,0.061,0.557c0.752,0,1.47,0,2.211,0c0.047-0.165,0.101-0.309,0.129-0.456
			c0.483-2.622,0.97-5.245,1.447-7.869c0.233-1.278,0.449-2.559,0.673-3.839c0.09-0.426,0.2-0.849,0.264-1.279
			c0.056-0.371-0.049-0.502-0.399-0.516c-0.501-0.019-1.005-0.007-1.507-0.002c-0.256,0.002-0.405,0.136-0.451,0.387
			C42.838,14.798,42.751,15.269,42.664,15.741z M110.254,19.404c-0.021,0.218-0.028,0.387-0.056,0.553
			c-0.279,1.694-0.563,3.389-0.846,5.084c-0.131,0.782-0.267,1.563-0.393,2.346c-0.064,0.404,0.009,0.536,0.347,0.545
			c0.656,0.02,1.313,0.006,2.047,0.006c0.281-1.453,0.554-2.855,0.855-4.409c0.961,1.567,1.831,2.989,2.684,4.382
			c1.646,0,3.229,0,4.884,0c0.526-2.826,1.046-5.628,1.575-8.477c0.773,0,1.494,0,2.178,0c0.073-0.112,0.131-0.163,0.143-0.223
			c0.096-0.475,0.189-0.95,0.269-1.428c0.087-0.52-0.009-0.625-0.534-0.627c-0.521-0.002-1.045,0-1.592,0
			c0.029-1.097,0.464-2.071,0.431-3.152c-0.864-0.07-1.659-0.142-2.46,0.038c-0.207,1.068-0.401,2.076-0.603,3.115
			c-0.209,0-0.362,0-0.514,0c-0.967,0-1.935,0.013-2.899-0.007c-0.342-0.007-0.574,0.093-0.786,0.367
			c-0.526,0.679-1.083,1.336-1.629,2c-0.134,0.162-0.278,0.316-0.501,0.571c0.018-0.229,0.017-0.316,0.033-0.399
			c0.314-1.711,0.634-3.422,0.947-5.133c0.089-0.479-0.004-0.595-0.489-0.612c-0.44-0.015-0.882-0.027-1.322-0.014
			c-0.208,0.006-0.412,0.075-0.618,0.115c-0.199,1.034-0.387,2.003-0.578,3.002c-0.885-0.081-1.652,0.228-2.402,0.635
			c-0.057-0.172-0.105-0.325-0.158-0.486c-0.73,0-1.428,0-2.16,0c-0.053,0.195-0.106,0.359-0.139,0.526
			c-0.3,1.625-0.602,3.249-0.896,4.874c-0.278,1.539-0.559,3.078-0.824,4.619c-0.038,0.217-0.006,0.446-0.006,0.687
			c0.762,0,1.436,0,2.123,0c0.052-0.154,0.105-0.273,0.131-0.398c0.355-1.749,0.695-3.5,1.067-5.244
			c0.114-0.533,0.253-1.081,0.499-1.561C108.49,19.857,109.232,19.439,110.254,19.404z M48.41,14.099
			c-0.877-0.311-1.687-0.13-2.539-0.101c-0.153,0.833-0.313,1.607-0.432,2.387c-0.053,0.344,0.092,0.463,0.469,0.469
			c0.508,0.009,1.015,0.002,1.521,0.01c0.276,0.005,0.472-0.079,0.527-0.378C48.099,15.729,48.244,14.974,48.41,14.099z
			 M123.859,13.873c-0.627,0.006-1.175,0.569-1.159,1.188c0.016,0.622,0.581,1.175,1.198,1.168c0.611-0.006,1.158-0.58,1.149-1.208
			C125.039,14.377,124.51,13.867,123.859,13.873z"/>
		<path fill-rule="evenodd" clip-rule="evenodd" fill="#E20815" d="M45.017,15.739c-0.224,1.28-0.439,2.561-0.673,3.839
			c-0.478,2.624-0.964,5.247-1.447,7.869c-0.028,0.147-0.082,0.291-0.129,0.456c-0.741,0-1.459,0-2.211,0
			c-0.021-0.201-0.039-0.369-0.061-0.557c-0.057,0.016-0.117,0.019-0.165,0.045c-0.914,0.523-1.882,0.809-2.947,0.857
			c-2.134,0.096-3.819-1.895-4.015-3.528c-0.039-0.326-0.078-0.652-0.117-0.983c-2.653,0-5.291,0-7.933,0
			c0.187,1.46,1.44,2.333,2.869,2.03c0.757-0.16,1.409-0.521,1.928-1.089c0.276-0.304,0.575-0.439,0.985-0.407
			c0.396,0.03,0.795-0.011,1.191,0.009c0.391,0.019,0.523,0.217,0.366,0.568c-0.115,0.259-0.269,0.508-0.437,0.738
			c-1.29,1.753-3.008,2.685-5.205,2.632c-1.854-0.044-3.769-1.423-4.014-3.615c-0.016-0.146-0.062-0.29-0.17-0.434
			c-0.231,1.232-0.462,2.465-0.699,3.73c-0.823,0-1.606,0-2.483,0c0.157-1.214,0.479-2.371,0.675-3.55
			c0.202-1.218,0.406-2.436,0.612-3.653c0.199-1.192,0.403-2.385,0.567-3.606c-0.971,1.142-1.852,2.351-2.744,3.551
			c-0.896,1.204-1.787,2.41-2.679,3.617c-0.901,1.224-1.8,2.451-2.677,3.644c-0.84,0-1.627,0-2.515,0
			c0.344-1.838,0.687-3.62,1.007-5.406c0.323-1.796,0.623-3.597,0.935-5.395c-0.049-0.04-0.096-0.08-0.144-0.12
			c-0.058,0.114-0.096,0.247-0.176,0.34c-2.945,3.377-5.899,6.745-8.834,10.131c-0.32,0.369-0.647,0.536-1.133,0.509
			c-0.615-0.035-1.234,0.002-1.854-0.015C0.5,27.939,0.308,27.859,0,27.786c0.244-0.311,0.396-0.521,0.564-0.714
			c3.188-3.691,6.379-7.38,9.568-11.07c1.113-1.285,2.229-2.567,3.328-3.861c0.232-0.273,0.469-0.416,0.842-0.396
			c0.633,0.033,1.27,0.009,1.887,0.009c0.117,0.578-0.981,7.306-1.57,9.791c0.299,0.103,0.377-0.165,0.498-0.317
			c1.055-1.332,2.106-2.667,3.147-4.009c1.325-1.709,2.641-3.425,3.96-5.137c0.081-0.103,0.168-0.201,0.232-0.278
			c0.865,0,1.691,0,2.612,0c-0.472,2.923-1.05,5.763-1.565,8.778c0.175-0.221,0.258-0.318,0.332-0.424
			c1.121-1.616,2.634-2.645,4.57-3.007c1.948-0.366,4.53,0.569,5.088,3.309c0.057,0.278,0.112,0.556,0.184,0.907
			c0.129-0.25,0.225-0.442,0.328-0.63c0.964-1.761,2.337-3.035,4.321-3.537c1.27-0.321,2.494-0.2,3.604,0.574
			c0.067,0.046,0.146,0.074,0.247,0.124c0.168-0.745,0.328-1.451,0.486-2.155c0.079-0.057,0.207-0.099,0.228-0.172
			c0.069-0.246,0.118-0.501,0.142-0.756c0.031-0.317,0.182-0.58,0.477-0.617c0.502-0.062,1.035-0.188,1.531,0.2
			c-0.029,0.183-0.051,0.372-0.089,0.558C44.896,15.224,44.783,15.494,45.017,15.739z M35.626,23.358
			c-0.002,1.591,1.118,2.6,2.689,2.419c1.711-0.197,3.289-1.902,3.374-3.63c0.068-1.408-1.045-2.595-2.463-2.605
			C37.303,19.528,35.544,21.791,35.626,23.358z M31.085,21.265c-0.215-0.734-0.612-1.212-1.222-1.492
			c-1.253-0.573-3.166,0.197-3.723,1.492C27.768,21.265,29.391,21.265,31.085,21.265z"/>
		<path fill-rule="evenodd" clip-rule="evenodd" fill="#E20815" d="M68.473,17.858c1.376,0.197,2.379,0.985,3.199,2.043
			c0.875,1.128,1.21,2.482,1.555,3.828c0.092,0.362,0.14,0.735,0.22,1.167c0.124-0.114,0.233-0.199,0.324-0.302
			c3.546-4.111,7.095-8.219,10.628-12.341c0.316-0.369,0.631-0.545,1.126-0.51c0.652,0.046,1.311,0.012,2.062,0.012
			c-0.193,1.743-0.525,3.375-0.814,5.012c-0.289,1.636-0.589,3.271-0.844,4.937c0.95-1.021,1.77-2.148,2.625-3.244
			s1.695-2.204,2.54-3.309c0.856-1.121,1.711-2.244,2.558-3.354c0.878,0,1.729,0,2.666,0c-0.191,1.51-0.517,2.94-0.778,4.381
			c-0.261,1.437-0.531,2.872-0.694,4.36c0.105-0.15,0.214-0.298,0.316-0.449c0.821-1.222,1.873-2.178,3.268-2.685
			c1.578-0.575,3.115-0.556,4.543,0.571c0.088-0.266,0.168-0.5,0.258-0.77c0.722,0,1.436,0,2.227,0
			c-0.017,0.305-0.004,0.563-0.05,0.812c-0.538,2.948-1.083,5.896-1.63,8.842c-0.063,0.342-0.141,0.681-0.217,1.046
			c-0.744,0-1.442,0-2.203,0c-0.026-0.178-0.052-0.362-0.083-0.569c-0.068,0.025-0.148,0.043-0.218,0.082
			c-0.835,0.477-1.717,0.794-2.69,0.818c-1.763,0.044-3.22-0.875-3.921-2.495c-0.136-0.313-0.229-0.645-0.396-1.115
			c-0.206,1.167-0.389,2.197-0.568,3.208c-0.532,0.154-1.862,0.162-2.523,0.007c0.238-1.728,0.622-3.44,0.904-5.168
			c0.282-1.731,0.597-3.459,0.897-5.188c-0.044-0.021-0.085-0.042-0.128-0.064c-2.646,3.494-5.289,6.987-7.94,10.491
			c-0.791,0-1.578,0-2.453,0c0.029-0.286,0.038-0.539,0.083-0.786c0.545-3.081,1.096-6.162,1.642-9.243
			c0.021-0.124,0.003-0.254,0.003-0.493c-3.271,3.558-6.478,7.045-9.67,10.518c-1.021,0-2.006,0-3.057,0
			c0.022-0.18-0.003-0.347,0.065-0.454c0.867-1.374,0.721-2.879,0.549-4.373c-0.127-1.085-0.516-2.094-1.17-2.987
			c-0.451-0.616-1.03-1.084-1.678-1.476c-0.102-0.119-0.184-0.272-0.312-0.349c-0.162-0.097-0.361-0.131-0.634-0.222
			c0.164-0.035,0.229-0.036,0.281-0.063C68.393,17.955,68.43,17.9,68.473,17.858z M100.001,19.53
			c-0.28,0.049-0.567,0.074-0.839,0.153c-1.404,0.405-2.653,2.005-2.729,3.481c-0.094,1.788,1.196,2.909,2.956,2.567
			c1.395-0.27,2.847-1.803,3.069-3.291C102.664,21.062,101.845,19.52,100.001,19.53z"/>
		<path fill-rule="evenodd" clip-rule="evenodd" fill="#E20815" d="M110.254,19.404c-1.021,0.035-1.764,0.453-2.193,1.295
			c-0.246,0.479-0.385,1.027-0.499,1.561c-0.372,1.744-0.712,3.495-1.067,5.244c-0.025,0.125-0.079,0.245-0.131,0.398
			c-0.688,0-1.361,0-2.123,0c0-0.24-0.032-0.47,0.006-0.687c0.266-1.541,0.546-3.08,0.824-4.619c0.295-1.625,0.597-3.25,0.896-4.874
			c0.032-0.167,0.086-0.331,0.139-0.526c0.732,0,1.43,0,2.16,0c0.053,0.161,0.102,0.314,0.158,0.486
			c0.75-0.407,1.518-0.716,2.402-0.635c0.191-0.999,0.379-1.968,0.578-3.002c0.206-0.04,0.41-0.109,0.618-0.115
			c0.44-0.013,0.882-0.001,1.322,0.014c0.485,0.017,0.578,0.132,0.489,0.612c-0.313,1.711-0.633,3.422-0.947,5.133
			c-0.017,0.083-0.016,0.17-0.033,0.399c0.223-0.255,0.367-0.409,0.501-0.571c0.546-0.664,1.103-1.321,1.629-2
			c0.212-0.274,0.444-0.375,0.786-0.367c0.965,0.021,1.933,0.007,2.899,0.007c0.151,0,0.305,0,0.514,0
			c0.201-1.039,0.396-2.047,0.603-3.115c0.801-0.179,1.596-0.108,2.46-0.038c0.033,1.082-0.401,2.056-0.431,3.152
			c0.547,0,1.07-0.001,1.592,0c0.525,0.002,0.621,0.108,0.534,0.627c-0.079,0.478-0.173,0.953-0.269,1.428
			c-0.012,0.06-0.069,0.11-0.143,0.223c-0.684,0-1.404,0-2.178,0c-0.529,2.848-1.049,5.651-1.575,8.477c-1.655,0-3.237,0-4.884,0
			c-0.853-1.393-1.723-2.814-2.684-4.382c-0.302,1.554-0.574,2.956-0.855,4.409c-0.733,0-1.391,0.014-2.047-0.006
			c-0.338-0.01-0.411-0.141-0.347-0.545c0.126-0.783,0.262-1.564,0.393-2.346c0.282-1.695,0.566-3.39,0.846-5.084
			C110.226,19.791,110.232,19.623,110.254,19.404z M117.641,18.19c-0.047-0.017-0.094-0.033-0.141-0.049
			c-1.057,1.287-2.113,2.573-3.154,3.842c1.078,1.993,2.702,4.562,3.062,4.848c0.447-2.439,0.894-4.875,1.351-7.375
			c-0.271,0-0.466,0.005-0.66-0.001c-0.546-0.014-0.609-0.091-0.528-0.62C117.604,18.622,117.618,18.406,117.641,18.19z"/>
		<path fill-rule="evenodd" clip-rule="evenodd" fill="#E20815" d="M62.909,23.158c-1.142-0.076-2.138-0.529-2.994-1.257
			c-0.704-0.599-1.343-1.274-2.013-1.915c-0.057-0.056-0.121-0.103-0.231-0.195c-0.507,2.742-1.001,5.418-1.497,8.106
			c-0.783,0-1.499,0-2.246,0c-0.021-0.209-0.038-0.376-0.059-0.559c-0.058,0.018-0.12,0.025-0.17,0.053
			c-0.953,0.553-1.965,0.831-3.08,0.856c-1.977,0.047-3.699-1.888-3.876-3.528c-0.018-0.171-0.036-0.341-0.109-0.52
			c-0.364,1.2-0.457,2.458-0.786,3.697c-0.787,0-1.551,0-2.391,0c0-0.238-0.037-0.495,0.005-0.736
			c0.405-2.256,0.824-4.509,1.237-6.764c0.156-0.846,0.306-1.692,0.464-2.538c0.039-0.213,0.099-0.422,0.155-0.664
			c0.726-0.158,1.429-0.088,2.126-0.06c0.302,0.013,0.38,0.252,0.319,0.537c-0.203,0.968-0.406,1.937-0.604,2.906
			c-0.011,0.054,0.027,0.119,0.078,0.311c0.164-0.246,0.281-0.408,0.385-0.578c0.727-1.202,1.698-2.146,2.979-2.73
			c1.622-0.741,3.233-0.822,4.773,0.245c0.031,0.022,0.081,0.019,0.167,0.038c0.028-0.093,0.061-0.189,0.084-0.287
			c0.074-0.303,0.26-0.434,0.575-0.424c0.44,0.012,0.887,0.032,1.324-0.01c0.386-0.038,0.535,0.136,0.685,0.458
			c0.358,0.779,0.73,1.556,1.162,2.297c0.787,1.359,1.974,2.229,3.484,2.654c0.105,0.03,0.211,0.065,0.316,0.098
			c0.079,0.081,0.15,0.22,0.238,0.232c0.245,0.032,0.498,0.011,0.746,0.011c0,0.045,0,0.089,0,0.134c-0.26,0-0.52-0.015-0.779,0.006
			C63.221,23.045,63.065,23.114,62.909,23.158z M52.471,19.564c0,0-0.155,0.003-0.308,0.022c-0.108,0.014-0.216,0.04-0.32,0.073
			c-1.496,0.482-2.342,1.554-2.74,3.031c-0.195,0.723-0.049,1.396,0.3,2.034c0.239,0.439,0.576,0.79,1.073,0.92
			c0.909,0.239,1.789,0.169,2.604-0.338c1.019-0.636,1.681-1.545,1.949-2.712C55.327,21.292,54.576,19.53,52.471,19.564z"/>
		<path fill-rule="evenodd" clip-rule="evenodd" fill="#E20E18" d="M68.473,17.858c-0.043,0.042-0.08,0.097-0.134,0.125
			c-0.052,0.028-0.117,0.029-0.281,0.063c0.272,0.091,0.472,0.125,0.634,0.222c0.129,0.076,0.211,0.229,0.312,0.349
			c-1.033-0.39-1.599-0.454-2.527-0.192c0.143,0.04,0.291,0.123,0.431,0.111c1.38-0.116,2.31,0.626,3.037,1.655
			c0.968,1.368,1.208,2.92,0.879,4.544c-0.158,0.774-0.425,1.525-0.638,2.288c-0.084,0.298-0.264,0.494-0.56,0.599
			c-0.532,0.188-1.058,0.391-1.644,0.492c0.262-0.393,0.534-0.78,0.785-1.18c0.604-0.958,1.107-1.96,1.254-3.102
			c0.19-1.484-0.073-2.857-1.039-4.043c-0.314-0.385-0.694-0.688-1.146-0.878c-0.029,0.036-0.058,0.07-0.087,0.105
			c0.062,0.073,0.113,0.158,0.187,0.219c1.261,1.053,1.6,2.437,1.396,3.993c-0.162,1.235-0.679,2.328-1.524,3.241
			c-0.524,0.564-1.111,1.07-1.66,1.612c-0.242,0.24-0.516,0.313-0.843,0.251c-0.556-0.106-1.115-0.204-1.688-0.419
			c0.124-0.061,0.253-0.114,0.373-0.184c0.798-0.461,1.659-0.847,2.384-1.408c1.59-1.235,2.48-2.859,2.234-4.938
			c-0.059-0.487-0.309-0.954-0.498-1.42c-0.048-0.116-0.201-0.188-0.354-0.253c0.497,0.843,0.569,1.739,0.388,2.65
			c-0.217,1.096-0.811,1.989-1.623,2.744c-1.074,0.999-2.422,1.384-3.793,1.76c-0.853,0.234-1.501,0.054-2.068-0.581
			c-0.129-0.143-0.282-0.262-0.504-0.467c0.959,0,1.791,0.043,2.614-0.009c1.659-0.104,3.067-0.765,4.146-2.051
			c0.712-0.849,1.049-1.827,0.917-2.944c-0.01-0.086-0.035-0.172-0.068-0.251c-0.011-0.024-0.074-0.025-0.168-0.052
			c0,0.299,0.043,0.593-0.006,0.872c-0.232,1.315-1.037,2.213-2.174,2.835c-1.407,0.77-2.9,0.839-4.432,0.491
			c-0.452-0.102-0.888-0.268-1.339-0.367c-0.593-0.131-0.968-0.462-1.142-1.048c-0.122-0.415-0.28-0.82-0.474-1.378
			c0.556,0.354,0.966,0.625,1.385,0.88c0.95,0.582,1.956,1.009,3.079,1.115c1.275,0.12,2.461-0.132,3.509-0.89
			c0.542-0.393,0.992-0.875,1.185-1.545c0.033-0.117,0.068-0.234,0.102-0.351c-0.037-0.01-0.073-0.021-0.108-0.03
			c-0.035,0.095-0.068,0.189-0.104,0.284c-0.367,0.137-0.798,0.169-0.993,0.592l0.012-0.011c-0.083,0.002-0.173-0.019-0.247,0.009
			c-1.701,0.653-3.16,0.142-4.467-0.972c-0.987-0.84-1.58-1.938-1.922-3.179c-0.071-0.255-0.122-0.518-0.221-0.762
			c-0.523-1.289,0.173-2.118,1.118-2.974c0.019,0.224,0.035,0.359,0.039,0.494c0.035,0.968-0.016,1.949,0.125,2.902
			c0.203,1.372,0.881,2.53,1.98,3.41c1.009,0.806,2.138,1.095,3.511,0.744c-0.224-0.031-0.347-0.063-0.468-0.062
			c-1.79,0.018-2.929-0.961-3.675-2.467c-0.619-1.248-0.729-2.583-0.42-3.937c0.16-0.708,0.382-1.401,0.577-2.101
			c0.076-0.27,0.229-0.462,0.506-0.564c0.465-0.172,0.922-0.368,1.504-0.603c-0.453,0.763-0.852,1.386-1.203,2.034
			c-0.765,1.415-0.986,2.914-0.585,4.481c0.2,0.784,0.589,1.471,1.179,2.034c0.104,0.099,0.239,0.163,0.455,0.307
			c-0.035-0.199-0.021-0.315-0.071-0.376c-1.362-1.641-1.306-3.427-0.543-5.283c0.438-1.068,1.2-1.899,2.046-2.649
			c1.045-0.926,0.674-0.877,2.161-0.674c0.261,0.036,0.52,0.093,0.779,0.146c0.058,0.012,0.11,0.048,0.243,0.107
			c-0.181,0.091-0.306,0.156-0.43,0.216c-1.261,0.604-2.477,1.269-3.366,2.391c-0.585,0.738-0.979,1.56-1.166,2.489
			c-0.227,1.122,0,2.137,0.704,3.067c-0.026-0.147-0.033-0.302-0.084-0.441c-0.369-1.041-0.296-2.011,0.168-3.047
			c0.707-1.587,1.882-2.583,3.462-3.139c0.744-0.262,1.531-0.399,2.3-0.591c0.323-0.081,0.604-0.01,0.859,0.208
			c0.397,0.338,0.807,0.664,1.155,1.113c-0.252-0.028-0.504-0.062-0.756-0.082c-1.561-0.122-3.094-0.052-4.499,0.74
			c-1.148,0.647-2.035,1.529-2.408,2.841c-0.177,0.629-0.156,1.257,0,2.037c0.042-0.296,0.078-0.445,0.082-0.595
			c0.033-1.486,0.786-2.545,2.007-3.291c1.36-0.833,2.847-1.036,4.395-0.684c0.728,0.167,1.436,0.419,2.154,0.629
			c0.293,0.085,0.504,0.248,0.61,0.547c0.206,0.573,0.425,1.142,0.545,1.767c-0.41-0.278-0.812-0.57-1.232-0.832
			c-1.334-0.833-2.742-1.4-4.365-1.256c-0.785,0.07-1.516,0.285-2.184,0.694c-0.695,0.426-1.235,0.992-1.497,1.786
			c-0.054,0.092-0.108,0.185-0.163,0.276c0.035,0.021,0.07,0.042,0.106,0.064c0.055-0.082,0.11-0.164,0.167-0.246
			c1.267-1.829,3.303-2.384,5.542-1.525c1.588,0.608,2.695,1.79,3.722,3.071c0.074,0.095,0.129,0.239,0.127,0.358
			c-0.017,0.588-0.088,1.17-0.31,1.693c-0.489-0.837-0.917-1.714-1.477-2.494c-1.111-1.547-2.612-2.472-4.574-2.466
			c-0.763,0.002-1.479,0.205-2.075,0.72c-0.068,0.057-0.138,0.115-0.206,0.173c0.024,0.028,0.048,0.057,0.073,0.085
			c0.07-0.056,0.14-0.112,0.208-0.168c0.066-0.006,0.141,0.006,0.195-0.021c0.537-0.253,1.104-0.302,1.688-0.257
			C68.141,17.866,68.307,17.857,68.473,17.858z M64.033,20.684c-0.025,0.049-0.048,0.099-0.073,0.148
			c0.134,0.068,0.267,0.134,0.399,0.201c0.024-0.051,0.049-0.102,0.072-0.153C64.299,20.815,64.166,20.75,64.033,20.684z
			 M67.191,18.815c-0.002,0.023-0.002,0.046-0.004,0.07c0.154,0.019,0.309,0.038,0.463,0.056c0.002-0.042,0.003-0.083,0.004-0.126
			C67.501,18.815,67.345,18.815,67.191,18.815z M64.833,21.224c0.018-0.044,0.037-0.087,0.056-0.131
			c-0.121-0.023-0.243-0.047-0.364-0.07c-0.007,0.034-0.013,0.067-0.018,0.102C64.615,21.157,64.724,21.191,64.833,21.224z"/>
		<path fill-rule="evenodd" clip-rule="evenodd" fill="#E20815" d="M48.41,14.099c-0.166,0.875-0.312,1.631-0.453,2.388
			c-0.056,0.299-0.251,0.383-0.527,0.378c-0.507-0.008-1.014-0.001-1.521-0.01c-0.377-0.006-0.521-0.125-0.469-0.469
			c0.118-0.78,0.278-1.554,0.432-2.387C46.724,13.968,47.533,13.788,48.41,14.099z"/>
		<path fill-rule="evenodd" clip-rule="evenodd" fill="#E20E18" d="M123.859,13.873c0.65-0.006,1.18,0.504,1.188,1.148
			c0.009,0.628-0.538,1.202-1.149,1.208c-0.617,0.006-1.183-0.546-1.198-1.168C122.685,14.442,123.232,13.879,123.859,13.873z
			 M123.317,15.739c0.353,0.312,0.708,0.38,1.066,0.01c0.463-0.382,0.546-0.88,0.214-1.29c-0.333-0.413-0.812-0.441-1.316-0.079
			C122.814,14.936,122.82,15.206,123.317,15.739z"/>
		<path fill-rule="evenodd" clip-rule="evenodd" fill="#E20E18" d="M62.909,23.158c0.156-0.044,0.312-0.113,0.47-0.126
			c0.26-0.021,0.52-0.006,0.779-0.006c0-0.044,0-0.089,0-0.134c-0.248,0-0.501,0.021-0.746-0.011
			c-0.088-0.012-0.159-0.151-0.238-0.232c0.735,0.042,1.479,0.115,2.179-0.182c0.272-0.115,0.644-0.129,0.743-0.51l-0.012,0.011
			c0.122,0.008,0.242,0.016,0.373,0.024C65.97,22.888,64.265,23.441,62.909,23.158z"/>
		<path fill-rule="evenodd" clip-rule="evenodd" fill="#E20E18" d="M45.017,15.739c-0.233-0.245-0.12-0.515-0.064-0.785
			c0.038-0.186,0.06-0.375,0.089-0.558c-0.496-0.388-1.029-0.263-1.531-0.2c-0.295,0.037-0.445,0.3-0.477,0.617
			c-0.023,0.255-0.072,0.51-0.142,0.756c-0.021,0.073-0.148,0.115-0.228,0.172c0.087-0.472,0.174-0.942,0.259-1.413
			c0.046-0.25,0.195-0.385,0.451-0.387c0.502-0.004,1.006-0.017,1.507,0.002c0.351,0.014,0.455,0.145,0.399,0.516
			C45.217,14.89,45.106,15.312,45.017,15.739z"/>
		<path fill-rule="evenodd" clip-rule="evenodd" fill="none" d="M35.626,23.358c-0.082-1.567,1.677-3.83,3.601-3.816
			c1.418,0.01,2.531,1.197,2.463,2.605c-0.085,1.729-1.663,3.434-3.374,3.63C36.744,25.958,35.624,24.949,35.626,23.358z"/>
		<path fill-rule="evenodd" clip-rule="evenodd" fill="none" d="M31.085,21.265c-1.694,0-3.317,0-4.944,0
			c0.557-1.294,2.47-2.065,3.723-1.492C30.473,20.053,30.87,20.531,31.085,21.265z"/>
		<path fill-rule="evenodd" clip-rule="evenodd" fill="none" d="M100.001,19.53c1.844-0.01,2.663,1.532,2.458,2.91
			c-0.223,1.488-1.675,3.021-3.069,3.291c-1.76,0.342-3.05-0.78-2.956-2.567c0.075-1.476,1.324-3.076,2.729-3.481
			C99.434,19.604,99.721,19.579,100.001,19.53z"/>
		<path fill-rule="evenodd" clip-rule="evenodd" fill="none" d="M117.641,18.19c-0.022,0.215-0.037,0.432-0.071,0.646
			c-0.081,0.528-0.018,0.605,0.528,0.62c0.194,0.006,0.389,0.001,0.66,0.001c-0.457,2.499-0.903,4.935-1.351,7.375
			c-0.359-0.287-1.983-2.855-3.062-4.848c1.041-1.269,2.098-2.555,3.154-3.842C117.547,18.157,117.594,18.174,117.641,18.19z"/>
		<path fill-rule="evenodd" clip-rule="evenodd" fill="none" d="M52.471,19.564c2.105-0.034,2.856,1.728,2.558,3.03
			c-0.269,1.167-0.931,2.076-1.949,2.712c-0.814,0.507-1.694,0.577-2.604,0.338c-0.497-0.13-0.834-0.481-1.073-0.92
			c-0.349-0.639-0.495-1.311-0.3-2.034c0.398-1.477,1.244-2.548,2.74-3.031c0.104-0.033,0.212-0.059,0.32-0.073
			C52.315,19.567,52.471,19.564,52.471,19.564z"/>
		<path fill-rule="evenodd" clip-rule="evenodd" fill="none" d="M64.033,20.684c0.133,0.065,0.266,0.131,0.398,0.197
			c-0.023,0.051-0.048,0.102-0.072,0.153c-0.133-0.067-0.266-0.133-0.399-0.201C63.985,20.783,64.008,20.733,64.033,20.684z"/>
		<path fill-rule="evenodd" clip-rule="evenodd" fill="none" d="M67.191,18.815c0.153,0,0.31,0,0.463,0
			c-0.001,0.042-0.002,0.084-0.004,0.126c-0.154-0.019-0.309-0.038-0.463-0.056C67.189,18.861,67.189,18.838,67.191,18.815z"/>
		<path fill-rule="evenodd" clip-rule="evenodd" fill="none" d="M67.077,21.375c0.035-0.095,0.068-0.189,0.104-0.284
			c0.035,0.01,0.071,0.021,0.108,0.03c-0.033,0.117-0.068,0.234-0.102,0.351C67.15,21.44,67.114,21.408,67.077,21.375z"/>
		<path fill-rule="evenodd" clip-rule="evenodd" fill="none" d="M64.833,21.224c-0.109-0.033-0.218-0.067-0.326-0.1
			c0.005-0.035,0.011-0.068,0.018-0.102c0.121,0.023,0.243,0.047,0.364,0.07C64.87,21.137,64.851,21.18,64.833,21.224z"/>
		<path fill-rule="evenodd" clip-rule="evenodd" fill="none" d="M65.062,18.685c-0.057,0.083-0.112,0.165-0.167,0.246
			c-0.036-0.021-0.071-0.042-0.106-0.064c0.055-0.091,0.109-0.184,0.163-0.275C64.988,18.623,65.026,18.654,65.062,18.685z"/>
		<path fill-rule="evenodd" clip-rule="evenodd" fill="none" d="M66.093,18.13c-0.068,0.056-0.138,0.112-0.208,0.168
			c-0.025-0.028-0.049-0.057-0.073-0.085c0.068-0.058,0.138-0.116,0.206-0.173C66.044,18.069,66.07,18.099,66.093,18.13z"/>
		<path fill-rule="evenodd" clip-rule="evenodd" fill="none" d="M123.281,14.38c0.504-0.362,0.983-0.333,1.316,0.079
			c0.332,0.41,0.249,0.907-0.214,1.29l-0.015-0.018c0.039-0.295-0.165-0.58,0.062-0.902c0.118-0.168-0.12-0.397-0.368-0.411
			c-0.234-0.014-0.471,0.02-0.708,0.032C123.33,14.427,123.306,14.404,123.281,14.38z"/>
		<path fill-rule="evenodd" clip-rule="evenodd" fill="none" d="M124.384,15.749c-0.358,0.37-0.714,0.303-1.066-0.01l-0.007,0.007
			c0.368,0.007,0.335-0.347,0.473-0.589c0.215,0.211,0.401,0.392,0.586,0.574L124.384,15.749z"/>
		<path fill-rule="evenodd" clip-rule="evenodd" fill="none" d="M123.317,15.739c-0.497-0.533-0.503-0.804-0.036-1.359
			c0.024,0.023,0.049,0.047,0.073,0.07c-0.015,0.432-0.029,0.864-0.044,1.296L123.317,15.739z"/>
		<path fill-rule="evenodd" clip-rule="evenodd" fill="#E20E18" d="M123.311,15.747c0.015-0.433,0.029-0.864,0.044-1.296
			c0.237-0.013,0.474-0.046,0.708-0.032c0.248,0.014,0.486,0.243,0.368,0.411c-0.227,0.322-0.022,0.607-0.062,0.902
			c-0.185-0.182-0.371-0.363-0.586-0.574C123.646,15.4,123.679,15.753,123.311,15.747z"/>
	</g>
</g>
<g id="Layer_2">
</g>
<g id="template" display="none">
</g>
</svg>
