<?xml version="1.0" encoding="utf-8"?>
<!-- Generator: Adobe Illustrator 16.0.0, SVG Export Plug-In . SVG Version: 6.00 Build 0)  -->
<!DOCTYPE svg PUBLIC "-//W3C//DTD SVG 1.1//EN" "http://www.w3.org/Graphics/SVG/1.1/DTD/svg11.dtd">
<svg version="1.1" xmlns="http://www.w3.org/2000/svg" xmlns:xlink="http://www.w3.org/1999/xlink" x="0px" y="0px" width="125px"
	 height="40px" viewBox="0 0 125 40" enable-background="new 0 0 125 40" xml:space="preserve">
<g id="Layer_1">
</g>
<g id="Layer_2">
	<g>
		<linearGradient id="SVGID_2_" gradientUnits="userSpaceOnUse" x1="19.917" y1="10.7241" x2="4.3529" y2="29.2727">
			<stop  offset="0" style="stop-color:#C21F39"/>
			<stop  offset="1" style="stop-color:#772B88"/>
		</linearGradient>
		<path fill-rule="evenodd" clip-rule="evenodd" fill="url(#SVGID_2_)" d="M23.4,24.5c-1.1,2.7-2.9,4.7-5.5,6.1
			c-0.1,0-0.1,0-0.2,0.1c-1.3,0.8-2.8,1.2-4.3,1.3c-6.1,0.7-11.9-3.4-13.2-9.7c-0.5-2.6-0.2-5.1,0.9-7.5c0.3-0.5,0.5-1.1,0.9-1.5
			c1-1.6,2.3-2.8,4-3.7l0,10.4c0,3.3,2.5,5.6,5.1,6c0.7,0.1,1.4,0.1,2,0c2.6-0.6,4.2-2.1,4.8-4.7c0.4-1.9,0-3.6-1.3-5.1
			c-2.1-2.5-5.6-2.8-8-1.2c0,0-0.2,0.2-0.2,0.2s0-4.3,0-6.3c0-0.3,0.1-0.5,0.4-0.6c7-1.8,13.9,2.5,15.1,9.6
			C24.5,20.2,24.2,22.4,23.4,24.5z M10.8,22.9c0.4,0.2,0.7,0.1,1.1-0.1c0.9-0.7,1.8-1.3,2.7-2c0.7-0.5,0.7-1.1,0-1.6
			c-0.9-0.7-1.8-1.3-2.7-2c-0.3-0.2-0.7-0.3-1-0.1c-0.4,0.2-0.5,0.5-0.5,0.9c0,0.7,0,3.3,0,4C10.3,22.4,10.4,22.7,10.8,22.9z"/>
		<linearGradient id="SVGID_3_" gradientUnits="userSpaceOnUse" x1="50.8623" y1="45.916" x2="101.126" y2="-4.3476">
			<stop  offset="0" style="stop-color:#8F266C"/>
			<stop  offset="0.2827" style="stop-color:#8F266C"/>
			<stop  offset="0.3245" style="stop-color:#8F266C"/>
			<stop  offset="0.341" style="stop-color:#942567"/>
			<stop  offset="0.4156" style="stop-color:#A42356"/>
			<stop  offset="0.5081" style="stop-color:#B0224B"/>
			<stop  offset="0.6384" style="stop-color:#B62144"/>
			<stop  offset="1" style="stop-color:#B82142"/>
		</linearGradient>
		<path fill="url(#SVGID_3_)" d="M90,16.8c0,3.3,0,6.5,0,9.8c0,0.3-0.1,0.5-0.5,0.5c-0.7,0-1.3,0-2,0c-0.5,0-0.7-0.1-0.6-0.6
			c0-1.1,0-2.3,0-3.4c0-0.2,0-0.3,0-0.5c-0.1,0-0.1,0-0.2-0.1c-0.8,1.7-1.7,3.3-2.5,5c-0.1,0-0.1,0-0.2,0c-0.8-1.7-1.7-3.3-2.5-5
			c0,0-0.1,0-0.1,0c0,0.2,0,0.3,0,0.5c0,1.2,0,2.3,0,3.5c0,0.4-0.2,0.6-0.6,0.6c-0.7,0-1.3,0-2,0c-0.3,0-0.5-0.1-0.5-0.5
			c0-3.3,0-6.5,0-9.8c0-0.3,0.2-0.5,0.5-0.5c0.8,0,1.6,0,2.5,0c0.4,0,0.5,0.2,0.7,0.5c0.6,1.3,1.3,2.6,1.9,3.8
			c0.1,0.2,0.2,0.3,0.3,0.4c0.1-0.1,0.2-0.2,0.3-0.4c0.6-1.3,1.3-2.5,1.9-3.8c0.2-0.4,0.5-0.6,0.9-0.6c0.7,0,1.5,0,2.2,0
			C89.8,16.3,90,16.4,90,16.8z M99.3,16.3c-0.6,0-1.2,0-1.9,0c-0.6,0-0.7,0-0.7,0.7c0,2,0,4,0,6c0,0.6-0.4,1.1-0.9,1.3
			c-0.5,0.1-1.1-0.1-1.4-0.6c-0.1-0.3-0.2-0.6-0.2-0.9c0-1.9,0-3.9,0-5.8c0-0.6,0-0.7-0.6-0.7c-0.6,0-1.2,0-1.8,0
			c-0.5,0-0.6,0.2-0.6,0.6c0,1.9,0,3.9,0,5.8c0,0.3,0,0.6,0.1,0.9c0.5,2.3,2.4,3.7,4.7,3.5c2.2-0.2,3.8-2,3.9-4.3c0-1,0-1.9,0-2.9h0
			c0-1.1,0-2.1,0-3.2C99.9,16.4,99.7,16.2,99.3,16.3z M104.5,18.8c0.4-0.2,0.9,0.1,1.1,0.6c0.1,0.5,0.4,0.6,0.8,0.6
			c0.2,0,0.5,0,0.7,0c0.3,0,0.6,0,1,0c0.5,0,0.6-0.2,0.5-0.6c-0.1-0.5-0.2-0.9-0.4-1.3c-1.1-2.1-4.4-2.5-6.2-0.8
			c-1.7,1.6-1.3,4.2,0.7,5.2c0.4,0.2,0.8,0.3,1.2,0.5c0.4,0.2,0.9,0.3,1.3,0.5c0.2,0.1,0.4,0.4,0.3,0.6c0,0.2-0.3,0.4-0.6,0.5
			c-0.5,0.1-1-0.2-1.2-0.7c-0.1-0.3-0.3-0.5-0.6-0.4c-0.6,0-1.2,0-1.9,0c-0.4,0-0.6,0.2-0.5,0.5c0.2,0.6,0.3,1.3,0.7,1.8
			c0.9,1.3,3,1.8,4.6,1.3c1.5-0.5,2.4-1.6,2.5-2.9c0.1-1.5-0.6-2.6-2.1-3.3c-0.5-0.2-1-0.4-1.5-0.6c-0.3-0.1-0.5-0.2-0.8-0.4
			c-0.1-0.1-0.3-0.4-0.2-0.6C104.1,19.1,104.3,18.9,104.5,18.8z M118.2,19.3c0.9-0.5,1.9-0.4,2.7,0.4c0.3,0.3,0.5,0.2,0.8,0
			c0.4-0.4,0.8-0.8,1.2-1.2c0.6-0.6,0.6-0.6,0-1.1c-1.9-1.5-4.6-1.7-6.6-0.3c-2,1.4-3,3.9-2.3,6.2c0.7,2.3,2.9,3.9,5.3,3.9
			c1.4,0,2.7-0.5,3.7-1.4c0.3-0.3,0.4-0.5,0-0.8c-0.5-0.4-0.9-0.9-1.4-1.4c-0.3-0.3-0.5-0.3-0.8,0c-0.6,0.5-1.3,0.7-2.1,0.6
			c-1-0.2-1.8-1.1-1.9-2.1C116.7,20.9,117.2,19.9,118.2,19.3z M35.6,27c-3.1,0.7-6.2-1.4-6.6-4.5c-0.1-0.4-0.1-0.7-0.1-1.1
			c0-2.7,0-5.3,0-7.9c0-0.1,0-0.2,0-0.3c0-0.3,0.1-0.6,0.4-0.6c0.4,0,0.5,0.3,0.5,0.6c0,1.6,0,3.1,0,4.7c0,0.2,0,0.4,0,0.5
			c0,0,0.1,0,0.1,0c0.7-0.9,1.6-1.6,2.6-1.9c3-1.1,6.3,0.6,7.2,3.7C40.6,23.2,38.7,26.3,35.6,27z M39,21.6c0-2.6-2.1-4.7-4.6-4.7
			c-2.5,0-4.6,2.1-4.6,4.7c0,2.6,2.1,4.7,4.6,4.7C36.9,26.4,39,24.2,39,21.6z M41.9,21.9c0.1,1.5,0.8,2.7,1.9,3.6
			c2.1,1.5,4.9,1,6.4-1.1c0.1-0.1,0.1-0.2,0.2-0.3c0.2-0.3,0.4-0.5,0.7-0.3c0.3,0.2,0.2,0.5,0,0.7c-1.4,2.2-4.2,3.1-6.6,2.2
			c-2.5-1-3.9-3.5-3.4-6.2c0.4-2.5,2.7-4.4,5.3-4.4c2.9,0,5.3,2,5.6,4.9c0.1,0.7,0,0.9-0.8,0.9c-2.9,0-5.7,0-8.6,0
			C42.4,21.9,42.2,21.9,41.9,21.9z M42,21.1c3,0,6,0,9,0c0.1-2.1-2.2-4.2-4.6-4.2C44.1,17,41.8,19.1,42,21.1z M112.2,16.3
			c-0.7,0-1.4,0-2.1,0c-0.3,0-0.5,0.2-0.5,0.5c0,3.2,0,6.5,0,9.8c0,0.4,0.2,0.5,0.5,0.5c0.6,0,1.3,0,1.9,0c0.6,0,0.7,0,0.7-0.6
			c0-1.6,0-3.2,0-4.7c0-1.6,0-3.2,0-4.8C112.7,16.4,112.6,16.2,112.2,16.3z M64.1,26.4c0,0.3,0,0.6-0.5,0.6c-0.4,0-0.4-0.3-0.4-0.6
			c0-0.5,0-1,0-1.4c0,0-0.1,0-0.1,0c-0.1,0.1-0.2,0.3-0.3,0.4c-1.6,1.8-4.3,2.4-6.5,1.3c-2.2-1-3.5-3.4-3.1-5.9
			c0.3-2.3,2.2-4.2,4.6-4.6c3.3-0.5,6.3,1.9,6.4,5.2C64.2,23.1,64.1,24.7,64.1,26.4z M63.2,21.6c0-2.6-2.1-4.7-4.6-4.7
			c-2.5,0-4.6,2.1-4.6,4.7c0,2.6,2,4.7,4.6,4.7C61.1,26.4,63.2,24.3,63.2,21.6z M75.9,21.7c-0.6-0.3-1.2-0.5-1.8-0.8
			c-0.6-0.2-1.2-0.4-1.8-0.7c-1-0.6-1.1-1.9-0.3-2.6c0.6-0.5,1.2-0.7,2-0.6c0.8,0.1,1.4,0.5,1.8,1.2c0.1,0.3,0.4,0.5,0.7,0.3
			c0.3-0.2,0.3-0.5,0.1-0.7c-0.1-0.1-0.2-0.3-0.2-0.4c-1.2-1.6-4.1-1.6-5.3-0.1c-0.9,1.1-0.6,2.8,0.6,3.5c0.5,0.3,1.1,0.6,1.7,0.8
			c0.7,0.3,1.5,0.5,2.1,1c1.1,0.7,1.2,2.2,0.2,3.1c-1.4,1.2-3.6,0.7-4.4-1c-0.1-0.3-0.3-0.7-0.7-0.5c-0.4,0.2-0.3,0.5-0.2,0.8
			c0,0.1,0.1,0.2,0.1,0.3c0.7,1.3,1.9,1.7,3,1.7c1.2,0,1.8-0.2,2.4-0.6C77.8,25.3,77.8,22.8,75.9,21.7z M67.3,17.1c0.5,0,1,0,1.6,0
			c0.2,0,0.5-0.1,0.5-0.4c0-0.3-0.3-0.4-0.5-0.4c-0.5-0.1-1,0-1.5,0c-0.4,0-0.5-0.1-0.5-0.6c0-0.8,0-1.5,0-2.3
			c0-0.4,0.1-0.9-0.4-0.9c-0.6,0-0.5,0.5-0.5,0.9c0,1.8,0,3.6,0,5.3c0,1.8,0,3.5,0,5.3c0,0.3,0,0.6,0.1,0.9c0.3,1.2,1.6,2.2,2.8,2.1
			c0.2,0,0.5,0,0.5-0.4c0-0.4-0.6-0.5-0.7-0.5c-1.1-0.2-1.8-1-1.9-2.1c0-2.2,0-4.4,0-6.6C66.8,17.2,67,17,67.3,17.1z M123.5,26.1
			h0.2v0.7h0.1v-0.7h0.2v-0.1L123.5,26.1L123.5,26.1z M124.9,26.1h-0.1l-0.1,0.4c0,0.1-0.1,0.2-0.1,0.3h0c0-0.1,0-0.2-0.1-0.3
			l-0.1-0.4h-0.1l-0.1,0.8h0.1l0-0.3c0-0.1,0-0.3,0-0.4h0c0,0.1,0.1,0.2,0.1,0.3l0.1,0.4h0.1l0.1-0.4c0-0.1,0.1-0.2,0.1-0.3h0
			c0,0.1,0,0.2,0,0.3l0,0.4h0.1L124.9,26.1z"/>
	</g>
</g>
<g id="Layer_3">
</g>
<g id="Layer_4">
</g>
</svg>
