<?xml version="1.0" encoding="utf-8"?>
<!-- Generator: Adobe Illustrator 19.2.0, SVG Export Plug-In . SVG Version: 6.00 Build 0)  -->
<svg version="1.1" xmlns="http://www.w3.org/2000/svg" xmlns:xlink="http://www.w3.org/1999/xlink" x="0px" y="0px"
	 viewBox="0 0 125 40" enable-background="new 0 0 125 40" xml:space="preserve">
<g id="bg" display="none">
	<rect display="inline" fill="#FFFFFF" width="125" height="40"/>
</g>
<g id="icons">
	<g id="simfy">
		<path fill-rule="evenodd" clip-rule="evenodd" fill="#00A5FF" d="M38.66,31.345c0.635-1.247,0.166-2.486,0.907-3.558
			c1.888,0.192,3.591-0.075,4.331-2.431c-0.687-2.617-1.423-5.422-2.177-8.296c-1.002,0-1.976,0-3.096,0
			c-0.468,2.724-0.938,5.47-1.418,8.258c-1.258,0-2.441,0-3.717,0c-0.257-1.367,0.34-2.662,0.471-4.005
			c0.136-1.379,0.44-2.726,0.619-4.064c-0.24-0.502-0.77-0.104-1.098-0.415c-0.219-0.937,0.283-1.797,0.286-2.639
			c0.44-0.325,0.88-0.079,1.288-0.312c0.272-0.89,0.463-1.858,0.977-2.714c0.856-1.427,2.058-2.245,3.757-2.248
			c0.987-0.001,1.974,0,3.133,0c-0.479,1.086-0.101,2.172-0.722,3.192c-0.624,0-1.309,0-1.783,0c-0.962,0.393-1.08,1.105-1.329,1.87
			c1.859,0,3.682,0,5.495,0c0.901,2.078,1.223,4.24,2.04,6.359c1.14-2.164,2.216-4.21,3.308-6.283c1.321,0,2.598,0,3.983,0
			c-0.198,1.021-0.779,1.817-1.214,2.656c-1.435,2.765-2.926,5.5-4.399,8.244c-0.584,1.09-1.124,2.207-1.78,3.253
			c-1.228,1.959-2.887,3.246-5.354,3.138C40.43,31.318,39.69,31.345,38.66,31.345z"/>
		<path fill-rule="evenodd" clip-rule="evenodd" fill="#00A5FF" d="M79.993,9.519c-0.459,0.443-1.007,0.477-1.489,0.652
			c-2.154,0.781-3.321,2.299-3.677,4.577c-0.334,2.135-0.85,4.243-1.284,6.364c-0.266,1.299-0.399,2.627-0.923,3.988
			c-1.691,0.429-3.011,1.345-3.046,3.307c-1.517,0.697-2.944,0.785-4.299,0.158c-2.86-1.324-5.684-2.729-8.501-4.146
			c-1.582-0.797-1.962-1.854-1.281-3.425c1.195-2.762,2.399-5.521,3.655-8.256c0.722-1.573,1.792-2.825,3.564-3.328
			c0.496-0.142,0.977-0.146,1.467-0.149c2.683-0.021,5.365-0.013,8.047-0.048c1.881-0.024,3.754-0.269,5.64-0.206
			C78.597,9.031,79.308,9.067,79.993,9.519z"/>
		<path fill-rule="evenodd" clip-rule="evenodd" fill="#00A5FF" d="M15.532,25.12c0.586-3.684,1.172-7.369,1.76-11.073
			c1.329,0,2.51,0,3.623,0c0.332,0.098,0.126,0.543,0.48,0.551c2.742-1.442,3.737-0.9,5.297,0.284
			c0.752-0.372,1.476-0.786,2.305-1.003c0.856-0.225,1.673-0.17,2.468,0.149c0.784,0.315,1.321,0.867,1.333,1.781
			c0.012,0.988-0.003,1.964-0.199,2.952c-0.317,1.594-0.526,3.211-0.726,4.826c-0.074,0.592-0.264,1.136-0.402,1.786
			c-1.119,0-2.205,0.004-3.291-0.003c-0.189-0.002-0.379-0.05-0.581-0.077c0.237-2.68,0.943-5.248,1.07-7.909
			c-0.612-0.326-1.135-0.165-1.723-0.045c-0.714,2.591-0.815,5.311-1.418,7.965c-1.282,0-2.499,0-3.774,0
			c-0.115-2.732,0.919-5.279,0.916-7.963c-0.629-0.248-1.147-0.137-1.836,0.036c-0.418,2.566-0.844,5.175-1.269,7.781
			C18.346,25.472,16.555,25.455,15.532,25.12z"/>
		<path fill-rule="evenodd" clip-rule="evenodd" fill="#00A5FF" d="M121.522,18.216c-0.528-0.885-1.208-0.992-1.913-1.001
			c-1.539-0.021-3.078-0.03-4.617-0.022c-0.663,0.002-1.282-0.073-1.76-0.572c-0.16-1.505,0.012-1.919,1.349-2.085
			c2.656-0.329,5.358-0.406,7.96,0.241c2.159,0.535,2.777,2.111,2.315,3.953c-0.394,1.574-0.74,3.166-0.974,4.769
			c-0.122,0.831-0.473,1.376-1.214,1.812c-2.719,0-5.496,0.003-8.274-0.002c-0.877-0.002-1.628-0.389-2.326-0.864
			c-0.756-0.515-1.071-1.3-0.972-2.181c0.168-1.515,0.871-2.763,2.298-3.393c0.888-0.393,1.838-0.692,2.863-0.667
			C117.937,18.246,119.619,18.216,121.522,18.216z"/>
		<path fill-rule="evenodd" clip-rule="evenodd" fill="#00A5FF" d="M97.059,23.578c-0.179-1.528,0.454-2.876,0.626-4.293
			c0.034-0.278,0.194-0.552,0.21-0.856c0.108-2.125,1.53-3.237,3.32-3.717c2.457-0.658,4.999-0.639,7.504-0.069
			c0.331,0.075,0.66,0.214,0.957,0.383c1.341,0.76,1.758,2.14,1.045,3.392c-0.581,1.02-1.693,1.193-3.118,0.482
			c-0.308-0.379-0.009-0.885-0.258-1.277c-1.36-0.709-4.26-0.62-5.774,0.217c-0.319,1.472-0.885,2.958-0.75,4.675
			c1.815,0.807,3.627,0.531,5.411,0.051c1.31-2.421,1.898-2.369,3.823-1.492c0.166,0.535,0.066,1.074-0.007,1.596
			c-0.948,1.74-2.487,2.414-4.356,2.705c-1.934,0.302-3.83,0.324-5.75-0.029C98.663,25.109,97.987,24.745,97.059,23.578z"/>
		<path fill-rule="evenodd" clip-rule="evenodd" fill="#00A5FF" d="M81.187,18.714c-0.604,0-1.248,0-1.997,0
			c-0.348,1.709-0.688,3.383-1.029,5.056c-0.177,0.867-0.334,1.739-0.539,2.599c-0.491,2.064-1.503,2.953-3.566,3.121
			c-0.738,0.06-1.485,0.103-2.148-0.031c-0.533-0.243-0.636-0.686-0.771-1.101c0.211-0.922,0.686-1.507,1.709-1.556
			c0.38-0.017,0.751-0.217,1.221-0.363c0.275-1.265,0.58-2.552,0.832-3.85c0.537-2.755,0.991-5.528,1.592-8.268
			c0.235-1.073,0.87-2.006,1.968-2.47c1.001-0.423,2.005-0.819,3.122-0.84c0.739-0.013,1.48,0.043,2.219-0.156
			c0.588-0.157,1.16,0.129,1.707,0.268c0.726,1.224,0.651,1.469-0.848,2.574c-0.64,0-1.384,0.001-2.128,0
			c-0.447-0.002-0.868,0.057-1.307,0.205c-1.187,0.403-1.22,0.403-1.273,1.767c0.341,0.295,0.771,0.092,1.139,0.2
			c0.512,0.151,1.102,0.251,1.25,0.896c0.132,0.577-0.03,1.081-0.513,1.456C81.632,18.372,81.436,18.522,81.187,18.714z"/>
		<path fill-rule="evenodd" clip-rule="evenodd" fill="#00A5FF" d="M0.089,24.906c-0.218-0.625,0.018-1.08,0.123-1.56
			c0.103-0.473,0.099-0.97,0.155-1.614c0.905,0.597,1.843,0.701,2.743,0.859c0.649,0.115,1.488,0.437,1.963-0.427
			c-0.101-0.67-0.656-0.752-1.072-0.973c-0.52-0.277-1.085-0.454-1.618-0.721c-2.399-1.203-2.114-4.664,0.131-5.947
			c2.021-1.155,5.784-0.864,7.28,0.637c-0.208,0.425-0.413,0.87-0.643,1.302c-0.184,0.347-0.398,0.677-0.644,1.09
			c-1.072-0.327-2.035-1.066-3.218-0.854c-0.264,0.048-0.422,0.239-0.52,0.493c-0.017,0.488,0.363,0.66,0.715,0.839
			c0.661,0.336,1.322,0.672,1.999,0.974c2.264,1.013,2.189,4.309,0.281,5.706c-0.991,0.725-2.15,1.014-3.323,1.118
			C2.888,25.963,1.436,25.469,0.089,24.906z"/>
		<path fill-rule="evenodd" clip-rule="evenodd" fill="#00A5FF" d="M82.427,25.347c-0.811-0.482-0.979-0.997-0.773-1.825
			c0.43-1.719,0.714-3.477,1.041-5.222c0.275-1.476,1.051-2.52,2.476-3.086c2.126-0.843,4.356-0.815,6.578-0.805
			c0.518,0.003,1.123,0.183,1.314,0.8c0.195,0.632-0.012,1.174-0.549,1.578c-0.158,0.118-0.312,0.242-0.502,0.389
			c-1.559,0.262-3.28-0.272-4.819,0.831c-0.322,1.662-0.657,3.401-1.002,5.137c-0.067,0.338-0.148,0.678-0.266,1.001
			c-0.285,0.778-0.849,1.193-1.688,1.203C83.594,25.352,82.949,25.347,82.427,25.347z"/>
		<path fill-rule="evenodd" clip-rule="evenodd" fill="#00A5FF" d="M11.423,14.062c1.333,0,2.603,0,4.03,0
			c-0.608,3.782-1.205,7.495-1.808,11.251c-1.365,0-2.636,0-4.019,0C10.23,21.54,10.823,17.826,11.423,14.062z"/>
		<path fill-rule="evenodd" clip-rule="evenodd" fill="#00A5FF" d="M97.365,15.777c-0.562,2.83-1.126,5.667-1.686,8.485
			c-0.233,0.421-0.579,0.698-1.004,1.013c-0.757,0.027-1.6,0.337-2.276-0.34c-0.279-0.521-0.205-1.03-0.109-1.505
			c0.441-2.214,0.894-4.428,1.393-6.63C94.131,14.827,95.485,14.381,97.365,15.777z"/>
		<path fill-rule="evenodd" clip-rule="evenodd" fill="#00A5FF" d="M15.99,10.075c0.204,2.379-0.55,3.136-2.952,2.961
			c-0.934-0.588-1.632-1.31-1.4-2.541c0.158-0.837,0.944-1.628,1.782-1.807C14.313,8.497,15.081,8.911,15.99,10.075z"/>
		<path fill-rule="evenodd" clip-rule="evenodd" fill="#00A5FF" d="M94.359,13.113c0.048-1.093,0.465-1.948,1.52-2.325
			c0.884-0.316,1.586,0.003,2.27,0.939c-0.167,1.051-0.326,2.085-1.721,2.356C95.441,14.274,94.822,13.927,94.359,13.113z"/>
		<path fill-rule="evenodd" clip-rule="evenodd" fill="#FFFFFF" d="M70.588,22.939c-0.603,0.513-1.152,0.646-1.776,0.64
			c-2.138-0.02-4.277,0.01-6.415-0.017c-1.905-0.022-2.703-0.378-3.884-1.651c-0.111-0.864-0.227-1.778,0.152-2.701
			c0.747-1.814,2.29-2.396,4.032-2.52c1.634-0.118,3.281-0.039,4.923-0.059c0.289-0.004,0.598,0.095,0.925-0.134
			c0.019-0.585-0.408-0.864-0.88-0.961c-0.673-0.139-1.334-0.335-2.047-0.315c-1.635,0.047-3.273,0.015-4.773,0.015
			c-0.64-0.425-0.673-0.891-0.51-1.405c0.163-0.514,0.538-0.828,1.039-0.962c0.283-0.075,0.591-0.077,0.886-0.077
			c1.791-0.004,3.581,0.024,5.372-0.006c0.762-0.013,1.49,0.165,2.191,0.365c1.053,0.299,2.3,1.187,2.131,2.834
			c-0.071,0.69-0.145,1.367-0.308,2.046c-0.344,1.436-0.598,2.894-0.894,4.341C70.713,22.566,70.645,22.751,70.588,22.939z"/>
		<path fill-rule="evenodd" clip-rule="evenodd" fill="#FFFFFF" d="M120.75,20.64c0.279,0.784-0.045,1.351-0.292,2.041
			c-1.743-0.007-3.506,0.102-5.268-0.091c-0.228-0.025-0.418-0.247-0.534-0.512c-0.074-0.638,0.32-1.012,0.871-1.166
			c0.465-0.129,0.927-0.297,1.439-0.283C118.197,20.663,119.429,20.64,120.75,20.64z"/>
		<path fill-rule="evenodd" clip-rule="evenodd" fill="#00A5FF" d="M67.918,18.832c0.263,0.898-0.106,1.549-0.331,2.291
			c-1.418,0-2.798,0-4.18-0.001c-0.673,0-1.26-0.175-1.657-0.787c0.02-0.797,0.492-1.11,1.195-1.272
			C64.605,18.682,66.27,18.932,67.918,18.832z"/>
	</g>
</g>
</svg>
