<?xml version="1.0" encoding="utf-8"?>
<!-- Generator: Adobe Illustrator 16.0.0, SVG Export Plug-In . SVG Version: 6.00 Build 0)  -->
<!DOCTYPE svg PUBLIC "-//W3C//DTD SVG 1.1//EN" "http://www.w3.org/Graphics/SVG/1.1/DTD/svg11.dtd">
<svg version="1.1" id="Layer_1" xmlns="http://www.w3.org/2000/svg" xmlns:xlink="http://www.w3.org/1999/xlink" x="0px" y="0px"
	 width="125px" height="40px" viewBox="0 0 125 40" enable-background="new 0 0 125 40" xml:space="preserve">
<g>
	<path fill-rule="evenodd" clip-rule="evenodd" fill="#272727" d="M34.9,16.7c0.8,0,1.7,0,2.5,0c1.2,2,2.4,3.9,3.6,5.8
		c2-3.3,4-6.6,6.1-10c0,5.1,0,10,0,14.9c-1.2,0-1.7-0.5-1.7-1.6c0-1.6,0-3.2,0-4.8c0-0.4,0-0.8,0-1.5c-1.3,1.9-2.4,3.5-3.5,5.2
		c-0.6,0-1.1,0-1.8,0c-1.1-1.6-2.2-3.3-3.5-5.2c0,2.8,0,5.3,0,8c-0.6,0-1.2,0-1.8,0c0-0.9,0-1.8,0-2.8c0.1-0.1,0.2-0.2,0.2-0.4
		c0-1.8,0-3.5,0-5.3c0-0.1-0.2-0.2-0.2-0.4C34.9,18,34.9,17.4,34.9,16.7z"/>
	<path fill-rule="evenodd" clip-rule="evenodd" fill="#272727" d="M34.9,18.7c0.1,0.1,0.2,0.2,0.2,0.4c0,1.8,0,3.5,0,5.3
		c0,0.1-0.2,0.2-0.2,0.4C34.9,22.7,34.9,20.7,34.9,18.7z"/>
	<path fill-rule="evenodd" clip-rule="evenodd" fill="#272727" d="M61.4,27.5c0-5,0-9.8,0-14.7c0.1,0,0.1-0.1,0.2-0.1
		c1.9,3.2,3.9,6.4,5.9,9.7c0.9-0.8,1.3-1.9,1.9-2.8c0.6-0.9,1.2-1.9,1.8-2.8c0.9,0,1.6,0,2.5,0c0.1,0.3,0.1,0.6,0.1,0.8
		c0,3.2,0,6.4,0,9.7c-0.6,0.4-1.2,0-1.9,0.2c0-2.6,0-5,0-7.8c-1.4,1.7-2.3,3.4-3.5,4.9c-0.6,0-1.2,0-1.8,0c-1.1-1.6-2.1-3.2-3.3-4.9
		c0,0.5-0.1,0.8-0.1,1c0,1.5,0,3.1,0,4.6C63.2,26.6,62.8,27.1,61.4,27.5z"/>
	<path fill-rule="evenodd" clip-rule="evenodd" fill="#272727" d="M110.7,19.2c0.2-0.2,0.4-0.4,0.5-0.6c1.6,0,3.2,0,4.7,0
		c0.3,0,0.6,0.2,0.9,0.3c0,1.4,0,2.7,0,4.2c-0.1,0.1-0.3,0.3-0.6,0.5c-1.5,0-3,0-4.5,0c-0.1,0.9-0.2,1.8,0.1,2.8c1.3,0,2.4,0,3.6,0
		c0.3,0,0.6,0,0.9,0c0.5,0.1,0.7,0.4,0.6,0.9c-1.8,0-3.6,0-5.6,0c-0.1-0.1-0.4-0.3-0.6-0.5C110.7,24.4,110.7,21.9,110.7,19.2z
		 M112,19.7c-0.5,0.9-0.2,1.8-0.3,2.7c1.5,0,2.8,0,4.3,0c0-0.5,0-0.9,0-1.4c0-0.4,0.2-0.9-0.2-1.3C114.6,19.7,113.4,19.7,112,19.7z"
		/>
	<path fill-rule="evenodd" clip-rule="evenodd" fill="#272727" d="M99.9,23.2c-1.2,0-2.2,0-3.2,0c0-0.3,0-0.6-0.1-1
		c1.1,0,2.1,0,3.2,0c0.2-0.9,0-1.6,0.1-2.5c-1.4,0-2.8,0-4.2,0c0,2.5,0,5,0,7.6c-0.4,0-0.6,0-1,0.1c0-2.7,0-5.4,0-8.2
		c0.1-0.1,0.3-0.4,0.5-0.6c1.9,0,3.7,0,5.6,0c0,2.9,0,5.7,0,8.7c-0.3,0-0.5,0-0.9,0.1C99.9,26.1,99.9,24.7,99.9,23.2z"/>
	<path fill-rule="evenodd" clip-rule="evenodd" fill="#272727" d="M82.3,22.1c0.9-1.2,1.7-2.3,2.5-3.4c0.5,0,0.8,0,1.2,0
		c0,0.2,0,0.3-0.1,0.4c-0.8,1-1.5,2-2.3,3.1c-0.6,0.8-0.6,1,0.1,1.8c0.8,1,1.5,2.1,2.4,3.3c-0.5,0-0.9,0.1-1.3,0.1
		c-0.8-1.1-1.6-2.2-2.5-3.4c-1.1,1-1.7,2.3-2.9,3.3c-0.3,0-0.6,0-1,0c0-0.1-0.1-0.2,0-0.2c0.5-0.7,1.1-1.4,1.6-2.2
		c0.5-0.6,1-1.3,1.6-2c-1.1-1.4-2.2-2.8-3.5-4.4c0.5,0,0.9,0,1.3-0.1C80.4,19.8,81.3,20.9,82.3,22.1z"/>
	<path fill-rule="evenodd" clip-rule="evenodd" fill="#272727" d="M103.4,18.7c1.6,0,3.2,0,4.9,0c0.2,0.2,0.4,0.4,0.7,0.6
		c0,1.3,0,2.5,0,3.7c-0.3,0.6-0.8,0.7-1.4,0.7c-1.2,0-2.5,0-3.8,0c0,1.3,0,2.5,0,3.7c-0.4,0-0.6,0-1,0c0-0.2,0-0.5,0-0.7
		c0-2.2,0-4.4,0-6.6C102.6,19.5,102.8,19,103.4,18.7z M107.9,19.8c-1.4,0-2.6,0-3.9,0c-0.1,0-0.2,0.2-0.3,0.2c0,0.8,0,1.6,0,2.4
		c1.4,0,2.8,0,4.2,0C107.9,21.5,107.9,20.7,107.9,19.8z"/>
	<path fill-rule="evenodd" clip-rule="evenodd" fill="#272727" d="M118.8,27.4c0.8-1.4,1.4-2.7,2.1-3.9c0.7-1.2,1.4-2.4,2.1-3.7
		c-1.3-0.2-2.4,0-3.8-0.1c-0.2-0.2-0.4-0.5-0.8-0.9c2.2,0,4.2,0,6.4,0c-0.8,1.4-1.5,2.6-2.1,3.9c-0.6,1.2-1.5,2.3-1.9,3.8
		c1.3,0,2.4,0,3.5,0c0.7,0,0.7,0.1,0.8,1C123.1,27.4,121.1,27.4,118.8,27.4z"/>
	<path fill-rule="evenodd" clip-rule="evenodd" fill="#272727" d="M89.2,18.7c1.2,0,2.4,0,3.5,0c0.1,0.8,0,1-0.6,1c-1,0-1.9,0-2.9,0
		c-0.2,1.3-0.1,2.6-0.1,3.9c0,1.2,0,2.5,0,3.8c-0.3,0-0.6,0-0.8,0.1C88,27.2,88,20.4,88.1,17c0.1,0,0.3-0.1,0.4-0.1
		c0.1,0,0.2,0,0.4,0c0,0,0.1,0.1,0.1,0.1C89.1,17.6,89.1,18.1,89.2,18.7z"/>
	<path fill-rule="evenodd" clip-rule="evenodd" fill="#272727" d="M52.5,27.4c-0.3,0-0.6,0-0.9,0c0-1.5,0-3,0-4.3
		c-0.9-1.5-1.7-2.9-2.6-4.4c0.4,0,0.7,0,1.1-0.1c0.6,1.1,1.3,2.2,2,3.4c0.7-1.2,1.3-2.3,1.9-3.3c0.4,0,0.6,0,1,0
		c0,0.2,0.1,0.4,0,0.5c-0.5,0.8-0.9,1.6-1.4,2.3c-0.7,1-1.2,2.1-1,3.5C52.5,25.8,52.5,26.6,52.5,27.4z"/>
	<path fill-rule="evenodd" clip-rule="evenodd" fill="#272727" d="M76.5,18.6c0,3.1,0,5.9,0,8.8c-0.3,0-0.7,0.1-1,0.1
		c-0.1-0.2-0.1-0.3-0.1-0.4c0-2.2,0-4.4,0-6.6C75.3,19.7,75.6,19.1,76.5,18.6z"/>
</g>
<g>
	<path fill-rule="evenodd" clip-rule="evenodd" fill="#B02424" d="M14.6,9.6c0,6,0,11.9,0,17.9c-0.2,0-0.4-0.1-0.6-0.1
		c-0.9-0.3-1.5-1.1-1.5-2c0-2.4,0-4.8,0-7.2c0-0.1,0-0.1,0-0.2c0,0.1-0.1,0.1-0.1,0.2c-1.3,2-2.6,3.9-3.9,5.9
		c-0.1,0.1-0.2,0.2-0.3,0.2c-0.6,0-1.1,0-1.7,0c-0.1,0-0.2,0-0.3-0.2c-1.3-2-2.6-3.9-3.9-5.8c0-0.1-0.1-0.1-0.1-0.2
		c0,3.5,0,6.9,0,10.4c0.1,0,0.2,0,0.3,0c3.4,0,6.8,0,10.1,0c1.1,0,1.9,0.7,2.1,1.7c0,0.1,0,0.3,0.1,0.4c-0.1,0-0.1,0-0.2,0
		c-4.1,0-8.2,0-12.3,0c-1.2,0-2.1-0.9-2.1-2.2c0-4.4,0-8.8,0-13.3c0-0.2,0-0.2,0.2-0.2c0.9,0,1.8,0,2.7,0c0.2,0,0.3,0,0.3,0.2
		c1.3,2.2,2.6,4.3,3.9,6.4c0,0.1,0.1,0.1,0.2,0.3C9.8,17.6,12.2,13.6,14.6,9.6z"/>
	<path fill-rule="evenodd" clip-rule="evenodd" fill="#B02424" d="M17.2,18c0,0.1,0,0.1,0,0.2c0,2.4,0,4.8,0,7.2
		c0,1-0.7,1.9-1.6,2.1c-0.1,0-0.3,0-0.4,0.1c0-6,0-11.9,0-17.9c2.4,4,4.9,8,7.3,12.1c0.1-0.1,0.1-0.2,0.1-0.2
		c1.3-2.2,2.6-4.3,3.9-6.5c0.1-0.1,0.2-0.2,0.4-0.2c0.9,0,1.8,0,2.7,0c0.2,0,0.2,0.1,0.2,0.2c0,4.4,0,8.9,0,13.3
		c0,1.2-0.9,2.1-2.1,2.1c-4.1,0-8.2,0-12.3,0c0,0-0.1,0-0.2,0c0-0.2,0.1-0.4,0.1-0.6c0.3-0.9,1.1-1.5,2.1-1.5c2.9,0,5.7,0,8.6,0
		c0.5,0,1.1,0,1.6,0c0.1,0,0.1,0,0.2,0c0-3.5,0-6.9,0-10.4c-0.1,0.1-0.1,0.1-0.1,0.2c-1.3,1.9-2.6,3.9-3.9,5.8
		c-0.1,0.1-0.2,0.2-0.3,0.2c-0.6,0-1.1,0-1.7,0c-0.1,0-0.2,0-0.3-0.2c-1.3-2-2.6-3.9-3.9-5.9C17.4,18.1,17.3,18,17.2,18
		C17.3,18,17.3,18,17.2,18z"/>
</g>
</svg>
