<?xml version="1.0" encoding="utf-8"?>
<!-- Generator: Adobe Illustrator 20.1.0, SVG Export Plug-In . SVG Version: 6.00 Build 0)  -->
<svg version="1.1" id="logos" xmlns="http://www.w3.org/2000/svg" xmlns:xlink="http://www.w3.org/1999/xlink" x="0px" y="0px"
	 viewBox="0 0 125 40" enable-background="new 0 0 125 40" xml:space="preserve">
<g>
	<g>
		<g>
			<g>
				<path fill="none" stroke="#E73B00" stroke-width="0.7459" stroke-miterlimit="10" d="M93.054,4.662"/>
			</g>
		</g>
		<g>
			<g>
				<path fill="none" stroke="#E73B00" stroke-width="0.7459" stroke-miterlimit="10" d="M12.214,4.662"/>
			</g>
		</g>
		<g>
			<rect x="21.663" width="0.746" height="7.988"/>
			<path d="M15.571,5.19h2.611c1.285,0,2.331-1.046,2.331-2.331V2.486c0-1.285-1.046-2.331-2.331-2.331h-3.357v7.832h0.746V5.19z
				 M15.571,0.901h2.611c0.874,0,1.585,0.711,1.585,1.585v0.373c0,0.874-0.711,1.585-1.585,1.585h-2.611V0.901z"/>
			<path d="M26.333,8.221c0.856,0,1.622-0.414,2.137-1.064v0.83h0.746V2.424h-0.746V3.27c-0.515-0.65-1.281-1.064-2.137-1.064
				c-1.547,0-2.805,1.349-2.805,3.007S24.786,8.221,26.333,8.221z M26.333,2.953c1.135,0,2.176,0.824,2.176,2.261
				c0,1.43-1.04,2.261-2.176,2.261c-1.135,0-2.059-1.014-2.059-2.261S25.197,2.953,26.333,2.953z"/>
			<path d="M47.824,8.007c0.856,0,1.622-0.414,2.137-1.064v1.045c0,0.701-0.739,1.678-1.942,1.678c-0.906,0-1.537-0.321-1.878-0.954
				l-0.657,0.354c0.467,0.868,1.368,1.346,2.535,1.346c1.584,0,2.688-1.278,2.688-2.424V2.424h-0.746V3.27
				c-0.515-0.65-1.281-1.064-2.137-1.064c-1.547,0-2.805,1.349-2.805,3.007S46.278,8.007,47.824,8.007z M47.824,2.953
				c1.135,0,2.059,0.847,2.059,2.261c0,1.247-0.924,2.261-2.059,2.261s-2.059-1.014-2.059-2.261S46.689,2.953,47.824,2.953z"/>
			<rect x="36.581" y="2.424" width="0.746" height="5.563"/>
			<path d="M39.596,4.81c0-0.982,0.994-1.857,1.834-1.857c1.31,0,1.585,1.014,1.585,1.865v3.17h0.746v-3.17
				c0-1.635-0.871-2.611-2.331-2.611c-0.699,0-1.357,0.589-1.834,1.173V2.424H38.85v5.563h0.746V4.81z"/>
			<path d="M55.649,4.81c0-0.982,0.994-1.857,1.834-1.857c1.31,0,1.585,1.014,1.585,1.865v3.17h0.746v-3.17
				c0-1.635-0.871-2.611-2.331-2.611c-0.699,0-1.357,0.589-1.834,1.173V2.424h-0.746v5.563h0.746V4.81z"/>
			<path d="M86.03,4.81c0-0.982,0.994-1.857,1.834-1.857c1.31,0,1.585,1.014,1.585,1.865v3.17h0.746v-3.17
				c0-1.635-0.871-2.611-2.331-2.611c-0.699,0-1.357,0.589-1.834,1.173V2.424h-0.746v5.563h0.746V4.81z"/>
			<circle cx="36.954" cy="0.901" r="0.544"/>
			<path d="M63.869,8.174c1.577,0,2.859-1.339,2.859-2.984s-1.283-2.984-2.859-2.984c-1.577,0-2.859,1.339-2.859,2.984
				S62.293,8.174,63.869,8.174z M63.869,2.953c1.165,0,2.113,1.004,2.113,2.238s-0.948,2.238-2.113,2.238
				c-1.165,0-2.113-1.004-2.113-2.238S62.704,2.953,63.869,2.953z"/>
			<path d="M81.274,8.174c1.577,0,2.859-1.339,2.859-2.984s-1.283-2.984-2.859-2.984c-1.577,0-2.859,1.339-2.859,2.984
				S79.698,8.174,81.274,8.174z M81.274,2.953c1.165,0,2.114,1.004,2.114,2.238s-0.948,2.238-2.114,2.238
				c-1.165,0-2.113-1.004-2.113-2.238S80.109,2.953,81.274,2.953z"/>
			<path d="M100.047,4.289h-6.993v0.746h6.993c2.725,0,4.942,2.217,4.942,4.942v24.336c0,2.725-2.217,4.942-4.942,4.942H5.688
				c-2.725,0-4.942-2.217-4.942-4.942V9.977c0-2.725,2.217-4.942,4.942-4.942h6.527V4.289H5.688C2.551,4.289,0,6.84,0,9.977v24.336
				C0,37.448,2.551,40,5.688,40h94.359c3.136,0,5.688-2.552,5.688-5.688V9.977C105.734,6.84,103.183,4.289,100.047,4.289z"/>
			<polygon points="31.679,10.262 32.494,10.262 35.928,2.424 35.113,2.424 33.159,6.885 30.898,2.424 30.062,2.424 32.771,7.769 
							"/>
			<polygon points="69.793,7.988 71.318,3.718 72.754,7.988 73.446,7.988 75.381,2.424 74.592,2.424 73.106,6.695 71.67,2.424 
				70.988,2.424 69.467,6.683 67.975,2.424 67.184,2.424 69.134,7.988 			"/>
			<path d="M35.158,17.846v12.178h2.641v-4.009c0-2.051,1.128-6.107,5.697-5.501v-2.667h-1.166c-1.34,0-3.34,0.432-4.532,2.269
				v-2.269H35.158z"/>
			<path d="M50.132,30.256c2.503,0,4.814-1.261,5.766-3.439l-2.269-0.772c-0.583,1.181-1.69,1.973-3.42,1.973
				c-1.756,0-3.562-1.259-3.562-3.217h7.385h2.183c-0.017-0.292-0.038-0.574-0.038-0.797c0-3.453-2.706-6.252-6.045-6.252
				c-3.339,0-6.045,2.799-6.045,6.252S46.793,30.256,50.132,30.256z M50.21,19.953c1.696,0,3.31,1.259,3.519,3.03h-7.037
				C46.691,21.469,48.514,19.953,50.21,19.953z"/>
			<path d="M62.331,19.907c1.212,0,2.053,0.599,2.797,1.585l2.051-0.653c0,0-1.026-3.077-4.895-3.077
				c-2.797,0-4.615,1.538-4.615,3.683c0,3.562,7.036,2.923,7.319,5.035c0.107,0.797-0.606,1.585-2.378,1.585
				c-1.772,0-2.89-1.352-3.263-2.284l-2.284,0.793c0,0,1.212,3.59,5.548,3.59c3.916,0,4.942-2.331,4.942-3.869
				c0-4.103-7.459-2.751-7.459-5.035C60.093,20.466,61.119,19.907,62.331,19.907z"/>
			<path d="M69.091,21.445c0,3.562,7.036,2.923,7.319,5.035c0.107,0.797-0.606,1.585-2.378,1.585c-1.772,0-2.89-1.352-3.263-2.284
				l-2.284,0.793c0,0,1.212,3.59,5.548,3.59c3.916,0,4.942-2.331,4.942-3.869c0-4.103-7.459-2.751-7.459-5.035
				c0-0.793,1.026-1.352,2.238-1.352s2.053,0.599,2.797,1.585l2.051-0.653c0,0-1.026-3.077-4.895-3.077
				C70.909,17.762,69.091,19.301,69.091,21.445z"/>
			<path d="M79.845,23.963c0,3.45,2.797,6.247,6.247,6.247c3.45,0,6.247-2.797,6.247-6.247s-2.797-6.247-6.247-6.247
				C82.642,17.716,79.845,20.513,79.845,23.963z M89.946,23.963c0,2.128-1.725,3.854-3.854,3.854s-3.854-1.725-3.854-3.854
				s1.725-3.854,3.854-3.854S89.946,21.834,89.946,23.963z"/>
		</g>
		<linearGradient id="SVGID_1_" gradientUnits="userSpaceOnUse" x1="13.4771" y1="32.4141" x2="24.2308" y2="17.993">
			<stop  offset="0.4532" style="stop-color:#FD0164"/>
			<stop  offset="1" style="stop-color:#FD5364"/>
		</linearGradient>
		<path fill="url(#SVGID_1_)" d="M27.646,28.827c-0.209-0.137-0.875-0.549-1.757-1.092l1.429-0.876
			c2.606-1.597,2.61-5.382,0.006-6.984l-9.484-5.836c-2.73-1.68-6.246,0.284-6.246,3.49v4.724c0,0,1.211-1.554,3.465-1.834v-2.626
			c0-0.678,0.745-1.093,1.321-0.736l9.003,5.577c0.547,0.339,0.546,1.135-0.002,1.473l-2.703,1.664
			c-1.641-1.001-3.205-1.951-3.842-2.336c-1.492-0.901-1.772-1.243-3.17-1.243c-2.673,0-4.071,2.424-4.071,3.605v3.381
			c0,3.203,3.509,5.168,6.239,3.494l4.762-2.918c1.644,1.01,2.956,1.813,3.14,1.917c0.536,0.303,1.585,0.839,2.471-0.233
			C29.091,30.365,28.392,29.316,27.646,28.827z M16.377,29.647c-0.577,0.355-1.319-0.06-1.319-0.737v-2.284
			c0-0.661,0.724-1.066,1.287-0.719c0.799,0.493,1.894,1.167,3.053,1.881L16.377,29.647z"/>
	</g>
	<rect x="0" y="0" fill="none" width="125" height="40"/>
</g>
</svg>
