<?xml version="1.0" encoding="utf-8"?>
<!-- Generator: Adobe Illustrator 16.0.0, SVG Export Plug-In . SVG Version: 6.00 Build 0)  -->
<!DOCTYPE svg PUBLIC "-//W3C//DTD SVG 1.1//EN" "http://www.w3.org/Graphics/SVG/1.1/DTD/svg11.dtd">
<svg version="1.1" xmlns="http://www.w3.org/2000/svg" xmlns:xlink="http://www.w3.org/1999/xlink" x="0px" y="0px" width="125px"
	 height="40px" viewBox="0 0 125 40" enable-background="new 0 0 125 40" xml:space="preserve">
<g id="Layer_1">
</g>
<g id="Layer_2">
</g>
<g id="Layer_3">
</g>
<g id="Layer_4">
	<g>
		<g>
			<rect y="6.4" fill-rule="evenodd" clip-rule="evenodd" fill="#18478F" width="104.5" height="27.2"/>
		</g>
		<g>
			<path fill-rule="evenodd" clip-rule="evenodd" fill="#FFFFFF" d="M51.2,17c-0.1,0.1-0.3,0.2-0.5,0.4c0-0.6,0-1.1,0-1.6
				c0-1.5,0-3,0-4.4c0-1.4-0.6-2-2-2c-0.4,0-0.8,0-1.3,0.1c0,0.4-0.1,0.8-0.1,1.2c0,4.5,0,9.1,0,13.6c0,0.9,0.1,1.8,0.4,2.7
				c0.6,2,2,3.2,4,3.7c0.4,0.1,0.8,0.2,1.3,0.2c2.7,0,5-0.8,6-3.5c1-2.9,1-5.8-0.1-8.7C57.6,15.3,53.8,14.6,51.2,17z M55.5,26.2
				c-0.2,1-0.8,1.8-1.8,2.1c-1.2,0.3-2.3-0.4-2.7-1.7c-0.4-1.6-0.5-3.2-0.3-4.8c0.1-0.7,0.3-1.4,0.5-2.1c0.3-1,0.9-1.6,2-1.8
				c1.3,0.2,2,1,2.2,2.2C56,22.1,56,24.2,55.5,26.2z"/>
			<path fill-rule="evenodd" clip-rule="evenodd" fill="#FFFFFF" d="M86.2,9.4c-0.5,0-1,0-1.6,0.1c0,2.7,0,5.2,0,7.9
				c-3.1-3-6.9-2.1-8.2,1.7c-0.6,1.8-0.5,3.6-0.5,5.4c0,1.2,0.3,2.3,0.8,3.3c0.6,1.4,1.7,2.3,3.1,2.7c1.4,0.4,2.9,0.4,4.4,0
				c1.5-0.5,2.7-1.4,3.3-3c0.4-0.9,0.5-1.8,0.5-2.8c0-4.3,0-8.7,0-13c0-0.2,0-0.4,0-0.6C87.9,9.9,87.4,9.4,86.2,9.4z M84.2,26.6
				c-0.3,1-1,1.7-2,1.7c-1,0.1-1.9-0.5-2.2-1.5c-0.5-1.5-0.6-3-0.6-4.5c0-0.7,0.1-1.4,0.3-2.1c0.2-1.3,0.8-2.3,2.3-2.4
				c1.1,0.1,1.8,0.9,2.1,1.9c0.2,0.7,0.4,1.5,0.5,2.2C84.6,23.5,84.7,25.1,84.2,26.6z"/>
			<path fill-rule="evenodd" clip-rule="evenodd" fill="#FFFFFF" d="M26.6,21.8c-0.3-3.3-2.4-6.3-6.6-6.2c-2.9,0.1-4.8,1.5-5.7,4.2
				c-0.6,2-0.6,4.1-0.2,6.1c0.4,2.2,1.6,3.9,3.8,4.6c2.7,0.9,6.4,0.3,7.9-2.8c0.7-1.4,0.9-2.8,0.8-4.3
				C26.6,22.9,26.6,22.4,26.6,21.8z M23,24.7c-0.1,0.6-0.2,1.2-0.4,1.8c-0.4,1.3-1.2,1.9-2.4,1.8c-1.2,0-2-0.6-2.4-1.9
				c-0.1-0.3-0.2-0.6-0.2-1c-0.1-0.8-0.2-1.5-0.3-2.5c0.2-0.9,0.3-2.1,0.6-3.2c0.3-1.3,1.2-1.8,2.4-1.8c1.1,0,2,0.7,2.3,2
				C23,21.6,23.2,23.2,23,24.7z"/>
			<path fill-rule="evenodd" clip-rule="evenodd" fill="#FFFFFF" d="M101.7,19.4c0-1.5-0.9-2.7-2.3-3.3c-2-0.8-4.1-0.8-6.1,0.1
				c-1.6,0.7-2.5,2.3-2.3,4.1c1,0,2,0,3.1,0c0.1-0.4,0.2-0.7,0.3-1c0.4-0.9,1.4-1.3,2.5-1.1c0.8,0.2,1.3,0.7,1.4,1.7
				c0,0.7,0,1.4,0,2.2c-1.1,0.1-2.1,0.2-3,0.4c-1.4,0.2-2.7,0.7-3.8,1.6c-1.9,1.7-1.7,5.1,0.5,6.4c1.7,1.1,4.5,0.8,6-0.7
				c0.9-0.9,1.9-1.4,3.2-1.4c0.2,0,0.3-0.1,0.6-0.2C101.7,25.2,101.8,22.3,101.7,19.4z M96.5,28.1c-0.8,0.5-1.9,0.3-2.7-0.4
				c-0.6-1.8,0.4-2.7,1.8-3.1c0.3-0.1,0.5-0.2,0.8-0.2c0.6-0.1,1.1-0.1,1.8-0.2C98.4,25.9,97.9,27.3,96.5,28.1z"/>
			<path fill-rule="evenodd" clip-rule="evenodd" fill="#FFFFFF" d="M73.1,19.5c0-1.4-0.6-2.6-1.9-3.2c-2.3-1.1-4.7-1.1-7,0.1
				c-1.4,0.7-2.1,2.2-1.9,3.9c1,0,2,0,3.1,0c0.1-0.4,0.2-0.9,0.4-1.2c0.4-0.8,1.3-1.1,2.4-0.9c0.8,0.1,1.3,0.6,1.4,1.4
				c0.1,0.8,0.2,1.6,0.3,2.5c-1.2,0.1-2.2,0.2-3.2,0.4c-1.5,0.2-3,0.7-4.1,1.9c-1.3,1.5-1.4,4.1-0.1,5.4c1.8,1.8,5.3,1.7,6.6,0.3
				c1-1.2,2.2-1.7,3.8-1.7c0.1,0,0.1-0.1,0.3-0.3c0-0.7,0-1.4,0-2.2C73.1,23.7,73.1,21.6,73.1,19.5z M65.7,28.2
				c-1-1.4-0.8-2.5,0.6-3.3c0.8-0.4,1.6-0.6,3.3-0.7C70.2,26.9,68.3,28.8,65.7,28.2z"/>
			<path fill-rule="evenodd" clip-rule="evenodd" fill="#FFFFFF" d="M8.6,22.3c-0.8-0.6-1.6-1.1-2.3-1.7c-0.4-0.3-0.7-0.7-1-1
				c0.5-1,0.6-1.2,1.4-1.3c1-0.1,2-0.1,2.9,0.3c0.3,0.2,0.7,0.3,1.1,0.4c0-1,0-1.9,0-2.8c-1.8-0.8-4.1-0.9-5.7-0.3
				c-1.1,0.4-2,1-2.5,2.2c-0.7,1.6-0.3,3.5,1.2,4.8c1.2,1,2.5,1.9,3.7,2.9c0.4,0.3,0.7,0.7,1,1.1c-1.1,1.4-1.5,1.5-6.1,0.6
				c-0.3,0.9-0.1,1.8-0.1,2.8c0.8,0.2,1.5,0.4,2.2,0.5C6.1,31,7.7,31,9.2,30.3c2.5-1.1,3.2-4.1,1.5-6.2C10.1,23.4,9.4,22.8,8.6,22.3
				z"/>
			<path fill-rule="evenodd" clip-rule="evenodd" fill="#FFFFFF" d="M35.1,16.3c-0.7,0.5-1.3,1.2-2.1,1.9c0-0.8-0.1-1.4-0.1-2.2
				c-1.1,0-2.2,0-3.4,0c0,0.7,0,1.2,0,1.7c0,3.2,0,6.5,0,9.7c0,0.3,0,0.6,0,0.9c0.2,1.7,0.8,2.3,2.5,2.2c0.3,0,0.5-0.1,0.9-0.1
				c0-0.7,0-1.4,0-2c0.1-2,0.1-4,0.2-6c0.2-1.7,1.3-2.7,3-3c0.5-0.1,1-0.2,1.5-0.3c0-1.2,0-2.3,0-3.4C36.7,15.5,35.8,15.8,35.1,16.3
				z"/>
			<path fill-rule="evenodd" clip-rule="evenodd" fill="#FFFFFF" d="M40.1,16.2c0,4.1,0,8.1,0,12.1c0,0.7,0.2,1.4,0.9,2.2
				c0.7,0.1,1.5,0.2,2.4,0.3c0.3-1.7,0.3-13.5,0-14.6C42.2,16,41.2,15.9,40.1,16.2z"/>
		</g>
	</g>
	<g>
		<path display="none" fill-rule="evenodd" clip-rule="evenodd" fill="none" d="M48.8,15.7c-1,0.2-1.6,0.8-1.9,1.7
			c-0.2,0.6-0.4,1.3-0.5,1.9c-0.2,1.5-0.1,3,0.2,4.5c0.3,1.2,1.4,1.9,2.5,1.6c0.9-0.3,1.4-1,1.7-1.9c0.4-1.9,0.4-3.9,0.1-5.8
			C50.7,16.6,50.1,15.9,48.8,15.7z"/>
		<path display="none" fill-rule="evenodd" clip-rule="evenodd" fill="none" d="M77.4,17.4c-0.3-0.9-0.9-1.6-1.9-1.7
			c-1.4,0.1-1.9,1-2.1,2.2c-0.1,0.7-0.2,1.3-0.2,2c-0.1,1.4,0,2.9,0.5,4.2c0.3,0.9,1.1,1.4,2.1,1.4c0.9-0.1,1.6-0.6,1.9-1.6
			c0.4-1.4,0.3-2.9,0.3-4.4C77.8,18.8,77.6,18.1,77.4,17.4z"/>
		<path display="none" fill-rule="evenodd" clip-rule="evenodd" fill="none" d="M18,15.9c-1.1,0-1.9,0.4-2.3,1.7
			c-0.3,1-0.4,2.1-0.5,3c0.1,0.9,0.2,1.6,0.3,2.3c0,0.3,0.1,0.6,0.2,0.9c0.4,1.2,1.1,1.7,2.2,1.8c1.1,0,1.8-0.5,2.2-1.7
			c0.2-0.5,0.3-1.1,0.4-1.7c0.2-1.5,0-2.9-0.3-4.4C19.9,16.6,19.1,15.9,18,15.9z"/>
		<path display="none" fill-rule="evenodd" clip-rule="evenodd" fill="none" d="M90.7,21.6c-0.7,0.1-1.2,0.1-1.7,0.2
			c-0.3,0-0.5,0.1-0.8,0.2c-1.3,0.4-2.2,1.2-1.7,2.9c0.8,0.7,1.8,0.9,2.5,0.4C90.4,24.5,90.8,23.2,90.7,21.6z"/>
		<path display="none" fill-rule="evenodd" clip-rule="evenodd" fill="none" d="M60.9,22.3c-1.3,0.7-1.5,1.8-0.6,3.1
			c2.4,0.6,4.2-1.2,3.7-3.7C62.3,21.7,61.6,21.9,60.9,22.3z"/>
	</g>
</g>
</svg>
