<?xml version="1.0" encoding="utf-8"?>
<!-- Generator: Adobe Illustrator 25.4.0, SVG Export Plug-In . SVG Version: 6.00 Build 0)  -->
<svg version="1.1" id="logos" xmlns="http://www.w3.org/2000/svg" xmlns:xlink="http://www.w3.org/1999/xlink" x="0px" y="0px"
	 viewBox="0 0 125 40" enable-background="new 0 0 125 40" xml:space="preserve">
<g>
	<g>
		<path d="M4.579,23.947c-3.525-3.717-2.757-7.468-2.107-9.345c0.069-0.2,0.019-0.403-0.247-0.134C1.465,15.236,0,17.129,0,20.3
			c0,4.283,3.943,8.014,8.141,8.014c2.911,0,4.887-1.492,5.661-2.328c0.117-0.126,0.135-0.269-0.103-0.188
			C12.389,26.245,7.88,27.427,4.579,23.947z"/>
		<path d="M10.134,12.724c-2.082,0-3.515,1.458-3.924,2.197c-0.074,0.134,0.037,0.23,0.123,0.191
			c1.309-0.607,3.829-0.547,5.553,1.23h2.064v-1.979C13.95,14.364,12.594,12.724,10.134,12.724z"/>
		<path d="M10.036,18.315c-0.68,0-1.894,0.559-1.894,1.916c0,1.357,1.532,1.836,2.059,1.836s1.325-0.016,1.325-0.016v0.878
			c0,0,1.524-0.319,2.358-1.229V20.23c0,0-1.672,0-2.247,0C11.064,20.23,9.775,19.464,10.036,18.315z"/>
		<path d="M27.858,24.54V11.82h-0.297c-1.171,0-2.12,0.949-2.12,2.12v12.254c0,1.171,0.949,2.12,2.12,2.12h8.056
			c1.156,0,2.088-0.928,2.112-2.078h-8.175C28.618,26.236,27.858,25.477,27.858,24.54z"/>
		<path d="M51.74,24.642V11.82h-0.297c-1.171,0-2.12,0.949-2.12,2.12v12.254c0,0.993,0.682,1.826,1.604,2.057
			c0.828,0.105,2.136-0.512,2.081-1.968C52.278,26.094,51.74,25.431,51.74,24.642z"/>
		<path d="M77.219,24.642V11.82h-0.297c-1.171,0-2.12,0.949-2.12,2.12v12.254c0,0.993,0.682,1.826,1.604,2.057
			c0.828,0.105,2.136-0.512,2.081-1.968C77.758,26.094,77.219,25.431,77.219,24.642z"/>
		<path d="M98.755,26.321c-5.201,0-6.606-3.873-6.606-6.28c0-2.408,0-8.355,0-8.355h-0.297c-1.171,0-2.12,0.949-2.12,2.12
			c0,0,0,3.611,0,6.975s1.391,7.482,6.988,7.482c3.141,0,4.767-1.661,5.346-2.419c0.171-0.224,0.091-0.302-0.173-0.205
			C101.221,25.884,99.872,26.321,98.755,26.321z"/>
		<path d="M37.357,19.707H30.94v1.993c0,0,3.576,0,4.678,0C36.721,21.699,37.357,21.063,37.357,19.707z"/>
		<path d="M30.94,15.127c0,0,3.949,0,5.051,0s1.739-0.636,1.739-1.993h-6.79V15.127z"/>
		<path d="M60.763,25.106c-0.707-1.159-6.064-9.979-6.064-9.979v5.576l3.756,6.208c1.128,1.864,4.032,1.789,4.808-0.247
			c0.049-0.129,0.084-0.254,0.1-0.372c0,0-0.565,0-0.763,0C62.148,26.293,61.469,26.265,60.763,25.106z"/>
		<path d="M62.148,11.82c0,0-0.254,0-0.678,0c-1.244,0-1.668,1.272-1.668,2.007v3.816l2.346,3.703V11.82z"/>
		<path d="M99.801,13.6c0,1.329,0,6.301,0,8.028c0,0.929-0.188,1.382-0.362,1.603c-0.149,0.189-0.057,0.192,0.082,0.16
			c0.981-0.223,2.636-1.28,2.636-3.855c0-2.94,0-7.851,0-7.851C100.734,11.686,99.801,12.272,99.801,13.6z"/>
		<path d="M118.402,21.459c3.053,0.537,3.731,0.983,3.533,1.947c0,0,2.403,0.003,2.403-1.863c0-2.233-3.86-1.548-6.191-2.714
			c-2.488-1.244-2.883-2.855-2.883-4.127c0-0.97,0.463-1.848,0.831-2.331c0.115-0.15,0.012-0.263-0.152-0.201
			c-1.153,0.439-2.884,1.899-2.884,4.397C113.059,19.424,115.349,20.922,118.402,21.459z"/>
		<path d="M123.222,16.229c1.251,0,1.845-1.272,1.76-2.035c-0.742,0.085-1.548-1.484-3.944-1.484c-1.357,0-2.629,0.636-2.671,2.035
			C121.314,14.258,121.844,16.229,123.222,16.229z"/>
		<path d="M124.779,25.588c-0.535,0.282-1.726,0.733-3.868,0.733c-3.117,0-6.362-1.992-5.936-3.307
			c-0.424-0.212-2.417,0.17-2.417,1.866c0,1.018,2.65,3.383,6.636,3.383c3.411,0,5.191-1.701,5.754-2.55
			C125.042,25.569,125.022,25.46,124.779,25.588z"/>
	</g>
	<rect x="0" y="0" fill="none" width="125" height="40"/>
</g>
</svg>
