<?xml version="1.0" encoding="utf-8"?>
<!-- Generator: Adobe Illustrator 19.2.0, SVG Export Plug-In . SVG Version: 6.00 Build 0)  -->
<svg version="1.1" xmlns="http://www.w3.org/2000/svg" xmlns:xlink="http://www.w3.org/1999/xlink" x="0px" y="0px"
	 viewBox="0 0 125 40" enable-background="new 0 0 125 40" xml:space="preserve">
<g id="bg" display="none">
	<rect display="inline" fill="#FFFFFF" width="125" height="40"/>
</g>
<g id="icons">
	<g>
		<g>
			<g>
				<path fill="#2980C2" d="M40.297,15.099V28.1h-3.36V15.099h-4.658v-2.919h12.677v2.919H40.297z"/>
				<path fill="#2980C2" d="M52.51,12.179c1.158,0,2.229,0.169,3.21,0.51c0.98,0.34,1.834,0.846,2.561,1.519
					c0.726,0.671,1.294,1.502,1.703,2.491c0.409,0.989,0.614,2.132,0.614,3.43c0,1.205-0.189,2.298-0.568,3.279
					c-0.379,0.982-0.912,1.819-1.599,2.514c-0.687,0.697-1.518,1.233-2.491,1.611c-0.973,0.378-2.055,0.568-3.244,0.568H47.11
					V13.986c0-0.602,0.155-1.054,0.463-1.355c0.309-0.301,0.757-0.452,1.345-0.452H52.51z M57.122,20.128
					c0-1.127-0.217-2.117-0.649-2.966c-0.433-0.85-1.105-1.46-2.017-1.831c-0.309-0.124-0.649-0.216-1.019-0.278
					c-0.372-0.061-0.758-0.093-1.159-0.093H50.47v10.359h1.924c0.788,0,1.475-0.135,2.062-0.405c0.587-0.27,1.078-0.637,1.472-1.101
					c0.394-0.463,0.691-1.012,0.892-1.645C57.021,21.535,57.122,20.854,57.122,20.128z"/>
				<path fill="#2980C2" d="M70.47,11.785c0.665,0,1.406,0.082,2.225,0.243c0.819,0.162,1.669,0.537,2.549,1.124l-1.506,2.457
					c-0.278-0.186-0.541-0.336-0.788-0.452c-0.247-0.116-0.491-0.208-0.73-0.278c-0.24-0.069-0.491-0.12-0.753-0.15
					c-0.264-0.031-0.549-0.047-0.857-0.047c-0.634,0-1.229,0.116-1.785,0.348c-0.556,0.231-1.039,0.576-1.449,1.031
					c-0.41,0.456-0.73,1.024-0.961,1.704c-0.232,0.68-0.348,1.467-0.348,2.364c0,0.927,0.123,1.73,0.371,2.41
					c0.247,0.68,0.58,1.248,0.996,1.704c0.417,0.456,0.888,0.792,1.414,1.008c0.525,0.216,1.066,0.324,1.622,0.324
					c0.325,0,0.626-0.016,0.904-0.047c0.279-0.03,0.552-0.084,0.823-0.162c0.27-0.076,0.548-0.181,0.834-0.312
					c0.286-0.131,0.591-0.29,0.916-0.475l1.391,2.503c-0.711,0.495-1.492,0.854-2.341,1.078c-0.851,0.224-1.793,0.336-2.828,0.336
					c-1.082,0-2.082-0.182-3-0.544c-0.92-0.363-1.719-0.9-2.399-1.611c-0.68-0.71-1.213-1.587-1.599-2.63
					c-0.386-1.043-0.58-2.236-0.58-3.58c0-1.267,0.201-2.418,0.603-3.454c0.402-1.035,0.958-1.912,1.668-2.63
					c0.71-0.718,1.545-1.274,2.503-1.668C68.322,11.982,69.358,11.785,70.47,11.785z"/>
				<path fill="#2980C2" d="M87.781,12.179c0.772,0,1.491,0.12,2.156,0.359c0.664,0.239,1.239,0.587,1.727,1.043
					c0.486,0.456,0.869,1.02,1.147,1.691c0.278,0.672,0.417,1.441,0.417,2.306c0,0.68-0.104,1.341-0.313,1.982
					c-0.209,0.642-0.548,1.217-1.02,1.727c-0.471,0.509-1.092,0.919-1.865,1.228c-0.772,0.309-1.715,0.463-2.827,0.463
					c-0.525,0-0.97-0.027-1.333-0.081c-0.362-0.054-0.591-0.097-0.684-0.127v5.33h-3.29V13.986c0-0.602,0.154-1.054,0.463-1.355
					c0.309-0.301,0.757-0.452,1.344-0.452H87.781z M89.937,17.532c0-0.927-0.282-1.614-0.846-2.062
					c-0.564-0.448-1.286-0.672-2.167-0.672h-1.738v5.446c0.124,0.031,0.321,0.066,0.591,0.104c0.27,0.039,0.614,0.058,1.031,0.058
					c0.603,0,1.105-0.088,1.506-0.267c0.402-0.177,0.722-0.405,0.962-0.684c0.24-0.278,0.41-0.587,0.51-0.927
					C89.886,18.19,89.937,17.857,89.937,17.532z"/>
				<path fill="#2980C2" d="M98.812,11.275V28.1h-3.244V11.275H98.812z"/>
				<path fill="#2980C2" d="M106.529,15.957c0.664,0,1.31,0.089,1.936,0.267c0.626,0.178,1.178,0.468,1.656,0.869
					c0.479,0.402,0.861,0.923,1.148,1.565c0.286,0.641,0.429,1.425,0.429,2.352v6.976c-0.155,0.062-0.684,0.15-1.587,0.267
					c-0.904,0.116-2.106,0.174-3.604,0.174c-1.02,0-1.873-0.097-2.561-0.29c-0.687-0.192-1.236-0.459-1.646-0.799
					c-0.409-0.339-0.7-0.738-0.869-1.193c-0.17-0.456-0.254-0.954-0.254-1.495c0-1.359,0.409-2.348,1.229-2.966
					c0.818-0.618,2.132-0.926,3.939-0.926c0.649,0,1.159,0.015,1.529,0.045c0.371,0.031,0.587,0.055,0.649,0.069v-0.347
					c0-0.417-0.07-0.772-0.208-1.066c-0.139-0.293-0.317-0.524-0.533-0.695c-0.217-0.17-0.472-0.293-0.765-0.371
					c-0.294-0.077-0.588-0.115-0.881-0.115c-0.401,0-0.868,0.058-1.401,0.173c-0.533,0.116-1.094,0.375-1.681,0.776l-1.297-2.016
					c0.694-0.463,1.443-0.788,2.248-0.973C104.807,16.049,105.649,15.957,106.529,15.957z M108.499,22.886
					c-0.077-0.03-0.289-0.058-0.637-0.08c-0.347-0.024-0.745-0.035-1.193-0.035c-0.479,0-0.866,0.046-1.16,0.139
					c-0.293,0.092-0.525,0.22-0.695,0.382c-0.17,0.162-0.285,0.355-0.347,0.579c-0.062,0.225-0.093,0.46-0.093,0.707
					c0,0.217,0.031,0.425,0.093,0.626c0.062,0.201,0.173,0.382,0.336,0.544c0.162,0.162,0.389,0.294,0.683,0.394
					c0.294,0.101,0.672,0.15,1.136,0.15c0.479,0,0.865-0.019,1.159-0.058c0.293-0.038,0.533-0.073,0.718-0.104V22.886z"/>
				<path fill="#2980C2" d="M119.02,30.441c0.835,0,1.498-0.22,1.994-0.661c0.494-0.441,0.741-1.14,0.741-2.097
					c-0.262,0.062-0.557,0.104-0.88,0.127c-0.324,0.023-0.619,0.035-0.88,0.035c-0.727,0-1.426-0.089-2.098-0.267
					c-0.672-0.178-1.27-0.463-1.796-0.857c-0.525-0.394-0.942-0.915-1.252-1.565c-0.309-0.648-0.464-1.452-0.464-2.41v-6.466h3.245
					v6.142c0,0.943,0.216,1.661,0.649,2.155c0.433,0.495,1.174,0.741,2.226,0.741c0.309,0,0.564-0.008,0.765-0.022
					c0.201-0.016,0.362-0.039,0.486-0.07v-8.946H125v11.101c0,0.973-0.139,1.811-0.418,2.514c-0.278,0.703-0.668,1.282-1.17,1.739
					c-0.502,0.455-1.101,0.791-1.796,1.008c-0.695,0.216-1.46,0.324-2.294,0.324c-1.051,0-1.981-0.085-2.792-0.255
					c-0.811-0.17-1.634-0.479-2.468-0.927l1.136-2.364c0.479,0.263,1.028,0.498,1.645,0.707
					C117.46,30.337,118.187,30.441,119.02,30.441z"/>
			</g>
		</g>
		<g>
			<path fill="#2980C2" d="M16.682,17.475l-4.253-2.488c-0.377-0.222-0.686-0.041-0.686,0.402v4.977c0,0.442,0.31,0.624,0.686,0.402
				l4.253-2.488C17.06,18.059,17.06,17.696,16.682,17.475z"/>
			<path fill="#2980C2" d="M12.967,7.033C5.806,7.033,0,12.839,0,20c0,7.162,5.806,12.967,12.967,12.967
				c7.162,0,12.966-5.806,12.966-12.967C25.933,12.839,20.129,7.033,12.967,7.033z M14.406,23.689h-1.541v2.612
				c0,1.604-1.075,2.613-2.616,2.613c-1.54,0-2.616-1.009-2.616-2.613V14.359c0-1.604,1.076-2.612,2.616-2.612h4.157
				c2.986,0,5.971,1.88,5.971,5.971S17.392,23.689,14.406,23.689z"/>
		</g>
	</g>
</g>
</svg>
