<?xml version="1.0" encoding="utf-8"?>
<!-- Generator: Adobe Illustrator 20.1.0, SVG Export Plug-In . SVG Version: 6.00 Build 0)  -->
<svg version="1.1" id="logos" xmlns="http://www.w3.org/2000/svg" xmlns:xlink="http://www.w3.org/1999/xlink" x="0px" y="0px"
	 viewBox="0 0 125 40" enable-background="new 0 0 125 40" xml:space="preserve">
<title>aesoprock</title>
<title>atmospheresucks</title>
<title>sa-roc</title>
<g>
	<rect x="0" y="0" fill="none" width="125" height="40"/>
</g>
<g>
	<path fill="#D72829" d="M29.801,19.955c-0.522-0.04,2.071-4.032,0.166-5.578c-3.604-2.886-9.886,2.264-10.659,2.043
		c-0.773-0.221,0.663-6.903-0.939-7.953C13.658,5.402,3.402,16.972,1.248,22.329s-1.657,10.714,2.563,14.199
		c3.478,2.872,9.659,4.169,17.183,3.099c6.119-0.87,11.169-4.005,14.159-7.726C38.582,27.245,40.515,20.783,29.801,19.955z"/>
	<g>
		<path d="M51.054,30.374h-3.226l0.405-1.639h-1.186l-0.404,1.639h-3.357h0l-0.273,1.104h3.357l-1.042,4.227
			c-0.145,0.587-0.477,0.879-0.991,0.879c-0.363,0-0.854-0.034-1.473-0.103c-0.046,0.494-0.092,0.93-0.142,1.311
			c0.59,0.012,1.121,0.017,1.592,0.017c1.119,0,1.83-0.61,2.13-1.829l1.113-4.502h3.225L51.054,30.374z"/>
		<polygon points="48.809,32.34 48.809,32.34 48.809,32.34 		"/>
		<path d="M52.839,23.145h-3.497l0.618-0.276c-0.148-0.599-0.32-1.191-0.514-1.777l-1.181,0.517c0.153,0.508,0.295,1.02,0.427,1.535
			h-3.555l-0.273,1.103h7.702L52.839,23.145z"/>
		<path d="M112.697,23.181l0.75-0.967c-0.596-0.36-1.206-0.694-1.827-1.001l-0.726,0.88
			C111.511,22.425,112.112,22.788,112.697,23.181L112.697,23.181z"/>
		<path d="M52.281,27.148h-2.495c0.68-0.65,1.351-1.312,2.012-1.984l-0.998-0.69c-0.75,0.913-1.522,1.805-2.315,2.674h-2.171
			l1.104-0.708c-0.365-0.839-0.669-1.489-0.918-1.949l-1.051,0.656c0.274,0.557,0.549,1.225,0.823,2.001h-2.649l-0.273,1.103h8.657
			L52.281,27.148z"/>
		<path d="M84.758,21.921l-0.873-0.604c-1.069,1.53-2.477,3.032-4.221,4.503h0c0.031,0.448,0.052,0.896,0.062,1.345
			C81.598,25.65,83.288,23.889,84.758,21.921z"/>
		<polygon points="83.802,29.77 88.857,29.77 89.145,28.562 84.09,28.562 		"/>
		<polygon points="84.139,27.028 88.812,27.028 88.681,27.581 89.699,27.581 90.843,22.784 89.824,22.784 89.092,25.854 
			87.788,25.854 88.833,21.472 87.785,21.472 86.739,25.854 85.435,25.854 86.164,22.801 85.147,22.801 84.139,27.027 		"/>
		<path d="M48.584,35.515l1.24-0.759c-0.313-0.818-0.651-1.623-1.015-2.416l-1.137,0.673C48.027,33.824,48.332,34.66,48.584,35.515z
			"/>
		<path d="M63.418,29.407c0.295-0.263,0.706-0.637,1.231-1.12c-0.874-0.955-1.644-1.737-2.317-2.346v0l-1.07,1
			C61.747,27.425,62.466,28.247,63.418,29.407z"/>
		<path d="M66.269,23.991c-0.809-0.988-1.546-1.83-2.208-2.519l-1.073,0.949c0.478,0.552,1.161,1.432,2.049,2.638
			C65.387,24.749,65.799,24.394,66.269,23.991z"/>
		<path d="M44.089,32.254c-0.968,1.427-1.827,2.577-2.58,3.451c0.354,0.206,0.665,0.414,0.933,0.621
			c0.911-1.143,1.788-2.316,2.63-3.52L44.089,32.254z"/>
		<polygon points="101.898,27.321 102.205,26.078 100.624,26.078 101.827,21.213 100.608,21.213 99.407,26.078 97.744,26.078 
			97.438,27.321 99.1,27.321 96.416,38.19 97.633,38.19 100.318,27.321 		"/>
		<path d="M110.255,31.944h-1.217l-0.246,1h-8.444l-0.273,1.103h8.444l-0.449,1.812c-0.152,0.621-0.531,0.932-1.135,0.932
			c-0.691,0-1.47-0.041-2.34-0.121c-0.032,0.484-0.072,0.909-0.118,1.277c0.917,0.022,1.688,0.036,2.313,0.036
			c1.318,0,2.135-0.65,2.457-1.949l0.489-1.986h2.65l0.273-1.104h-2.65L110.255,31.944z"/>
		<path d="M60.31,27.855h-6.009l0.994-4.019c1.548-0.092,3.445-0.288,5.69-0.587l-0.099-1.329c-2.032,0.449-4.184,0.685-6.461,0.707
			l-1.776,7.194c-0.784,3.176-2.086,5.573-3.901,7.195c0.214,0.359,0.414,0.727,0.599,1.103c2.099-1.966,3.585-4.716,4.456-8.246
			l0.209-0.846h2.436l-2.231,9.039h1.218l2.231-9.039h2.355L60.31,27.855z"/>
		<path d="M114.393,24.317l0.274-1.103H109.4l0.494-2.001h-1.185l-0.494,2.001h-5.035l-0.273,1.103h5.037l-0.281,1.14h-4.231
			l-1.67,6.763h1.186l0.32-1.294h3.045l-0.274,1.103h1.186l0.271-1.103h3.078l-0.234,0.948h1.185l1.583-6.417h-4.263l0.283-1.14
			H114.393z M106.565,29.891h-3.044l0.289-1.174h3.044L106.565,29.891z M107.111,27.682h-3.045l0.287-1.156h3.044L107.111,27.682z
			 M110.828,29.891h-3.078l0,0l0.29-1.174h3.077L110.828,29.891z M111.658,26.527l-0.287,1.156h-3.076l0.286-1.156H111.658z"/>
		<polygon points="110.338,31.874 110.338,31.873 110.338,31.873 		"/>
		<path d="M102.737,34.135l-0.954,0.862l0,0c0.62,0.539,1.207,1.121,1.759,1.742l1.016-0.913
			C103.982,35.223,103.375,34.658,102.737,34.135z"/>
		<path d="M75.618,31.29l1.999-8.091h-4.081c-0.127-0.721-0.286-1.435-0.477-2.14l-1.272,0.483c0.148,0.546,0.275,1.099,0.381,1.657
			h-4.163L64.831,36.05c-0.122,0.494-0.35,0.835-0.68,1.018l0.459,1.207c0.308-0.173,0.623-0.334,0.942-0.483
			c1.335-0.563,2.668-1.074,4.001-1.535c0.055-0.357,0.17-0.845,0.345-1.466c-1.275,0.541-2.566,1.036-3.872,1.483l1.351-5.468
			h1.992c0.439,3.647,2.224,5.964,5.36,6.952c0.493-0.575,0.91-1.019,1.25-1.329c-1.541-0.333-2.738-0.953-3.589-1.862
			c1.497-0.726,2.828-1.426,3.993-2.106l-0.543-1.07l0,0c-1.43,0.909-2.802,1.685-4.114,2.33c-0.536-0.851-0.9-1.823-1.091-2.916
			h3.852l-0.12,0.484H75.618z M68.974,24.336h7.111l-0.519,2.104h-7.111L68.974,24.336z M67.658,29.666l0.523-2.122h7.11
			l-0.522,2.122H67.658z"/>
		<path d="M63.156,31.012c-1.244,2.507-2.439,4.721-3.582,6.643l1.304,0.516c1.098-2.093,2.247-4.284,3.45-6.573
			C63.934,31.415,63.544,31.219,63.156,31.012z"/>
		<path d="M95.662,25.539h0.774l0.301-1.261h-3.475c0.479-1.008,0.926-2.035,1.34-3.078l-1.045-0.21
			c-1.062,2.916-2.304,5.371-3.724,7.366c0.214,0.28,0.4,0.585,0.556,0.91c0.294-0.42,0.579-0.854,0.86-1.304
			c-0.353,2.013-0.419,3.829-0.204,5.451c-0.947,1.305-2.149,2.56-3.607,3.761c0.198,0.354,0.374,0.723,0.529,1.103
			c1.283-1.125,2.393-2.298,3.329-3.517c0.308,1.238,0.836,2.392,1.553,3.393c0.319-0.443,0.652-0.892,0.997-1.346
			c-0.778-0.922-1.323-2.033-1.631-3.334C93.49,31.526,94.639,28.881,95.662,25.539z M92.543,25.704l0.089-0.165h1.934h0
			c-0.912,2.851-1.777,5-2.593,6.446C91.799,30.189,91.989,28.095,92.543,25.704z"/>
		<path d="M83.648,26.544l-0.955-0.535c-1.373,2.06-2.869,3.848-4.484,5.365h0c0.04,0.459,0.069,0.919,0.087,1.38
			c0.659-0.595,1.292-1.222,1.897-1.881l-1.791,7.245h1.12l2.237-9.056C82.416,28.247,83.046,27.407,83.648,26.544z"/>
		<path d="M89.183,32.737c-0.68,0.548-1.365,1.088-2.055,1.621l0.716-3.001h-4.229l-0.436,1.829
			c-0.407,1.703-1.098,2.852-2.078,3.451c0.174,0.355,0.324,0.724,0.45,1.104c1.281-0.875,2.167-2.346,2.661-4.416l0.189-0.794
			h2.099l-0.415,1.741c-0.124,0.518-0.367,0.932-0.728,1.242l0.549,1.103c0.243-0.219,0.51-0.448,0.801-0.69
			c0.796-0.643,1.607-1.265,2.43-1.863C89.143,33.685,89.159,33.243,89.183,32.737z"/>
	</g>
	
		<ellipse transform="matrix(0.9917 -0.1287 0.1287 0.9917 -3.5952 2.4785)" fill="#FFFFFF" cx="17.376" cy="29.052" rx="14.532" ry="8.825"/>
	<path fill="#040000" d="M21.918,26.622c-1.566-2.941-5.632-3.836-9.081-1.999c-3.449,1.837-4.976,5.71-3.41,8.651
		c1.566,2.941,5.632,3.836,9.081,1.999C21.957,33.436,23.484,29.563,21.918,26.622z M14.888,32.891
		c-1.035,0.808-2.425,0.758-3.105-0.112c-0.68-0.87-0.391-2.231,0.644-3.04c1.035-0.808,2.425-0.758,3.105,0.112
		C16.212,30.722,15.923,32.083,14.888,32.891z M17.067,29.331c-0.128,0.36-0.526,0.575-0.888,0.48
		c-0.362-0.095-0.551-0.464-0.423-0.824c0.128-0.36,0.526-0.575,0.888-0.48C17.006,28.602,17.195,28.971,17.067,29.331z"/>
	<g>
		<path fill="#E89112" d="M42.932,14.213c-0.718,0-1.351-0.52-1.47-1.252c-0.912-5.596-5.117-9.793-10-9.98
			c-0.823-0.031-1.465-0.724-1.433-1.547s0.727-1.469,1.547-1.433c6.295,0.241,11.69,5.49,12.829,12.48
			c0.133,0.813-0.419,1.579-1.232,1.712C43.093,14.207,43.012,14.213,42.932,14.213z"/>
	</g>
	<g>
		<path fill="#E89112" d="M37.782,14.065c-0.595,0-1.136-0.403-1.285-1.006c-0.703-2.827-2.767-4.92-5.138-5.209
			c-0.727-0.089-1.244-0.75-1.155-1.476c0.089-0.726,0.748-1.244,1.476-1.155c3.508,0.428,6.409,3.255,7.39,7.201
			c0.177,0.71-0.256,1.43-0.967,1.606C37.996,14.053,37.888,14.065,37.782,14.065z"/>
	</g>
	<g>
		<path fill="#E89112" d="M33.766,14.353c-0.514,0-0.984-0.345-1.121-0.866c-0.215-0.819-0.839-1.46-1.591-1.634
			c-0.624-0.145-1.013-0.768-0.868-1.392c0.145-0.624,0.769-1.012,1.392-0.868c1.605,0.372,2.874,1.639,3.311,3.305
			c0.163,0.62-0.208,1.254-0.827,1.416C33.963,14.341,33.863,14.353,33.766,14.353z"/>
	</g>
</g>
</svg>
