<?xml version="1.0" encoding="utf-8"?>
<!-- Generator: Adobe Illustrator 20.1.0, SVG Export Plug-In . SVG Version: 6.00 Build 0)  -->
<svg version="1.1" id="logos" xmlns="http://www.w3.org/2000/svg" xmlns:xlink="http://www.w3.org/1999/xlink" x="0px" y="0px"
	 viewBox="0 0 125 40" style="enable-background:new 0 0 125 40;" xml:space="preserve">
<style type="text/css">
	.st0{fill:#009DE0;}
	.st1{fill:#E30171;}
	.st2{fill:none;}
</style>
<path class="st0" d="M0,12v17.2h14.4c1.5,0,2.7-1.2,2.7-2.7V12H0z M13.5,24.6c0,0.8-0.7,1.5-1.5,1.5H3.4V15.4h10.1V24.6z"/>
<rect x="19.6" y="17.5" class="st0" width="8.8" height="3.2"/>
<path class="st0" d="M45.3,15.7h1.5c2.1,0,2.6-2.1,2.6-2.9s0-2.3,0-2.3H46c0,1.2-0.3,1.8-1.2,1.8H33.5v3.3h7c-0.1,0.3-0.2,1-0.4,1.8
	H31v3.2h8.4c-0.4,1.8-0.8,3.5-0.9,3.9c-0.2,0.9-0.7,1.4-1.6,1.4c-1,0-5.9,0-5.9,0V29c0,0,7,0,8.1,0s2.3-0.9,2.6-2.6
	c0.2-0.8,0.7-3.4,1.2-5.8h6.6v-3.2h-5.8c0.2-0.8,0.3-1.5,0.4-1.8L45.3,15.7L45.3,15.7z"/>
<path class="st0" d="M70.5,13.6H58.6c0.6-1.7,1-3,1-3H56c0,0-1.9,5.5-2.2,6.3c-0.3,0.8-0.5,0.6-0.9,0.6c-0.5,0-0.8,0-0.8,0v3.2
	c0,0,1.7,0,2.6,0c0.8,0,1.7-0.5,2.2-2c0.1-0.4,0.4-1.1,0.7-1.9h4.2c-0.3,1.5-1.7,7.4-1.8,8.1c-0.2,0.8-0.8,1-1.3,1s-6.7,0-6.7,0v3.3
	c0,0,6.5,0,8,0s3.1-1.1,3.5-3c0.3-1.7,1.6-7.9,2-9.5h5.2v-3.1H70.5z"/>
<g>
	<g>
		<g>
			<path class="st1" d="M87.3,10.6c-0.9,0-1.6,0.7-1.6,1.6v6.2h-7.5v-6.2c0-0.9-0.7-1.6-1.6-1.6S75,11.3,75,12.2v15.5
				c0,0.9,0.7,1.6,1.6,1.6s1.6-0.7,1.6-1.6v-6.2h7.5v6.2c0,0.9,0.7,1.6,1.6,1.6s1.6-0.7,1.6-1.6V12.2C88.9,11.3,88.2,10.6,87.3,10.6
				z"/>
		</g>
		<g>
			<path class="st1" d="M106.3,10.6c-2.3,0-2.8,2.1-3,2.6s-2.8,9-2.8,9s-0.1,0.1-0.2,0c0,0-2.6-8.5-2.8-9s-0.6-2.6-3-2.6
				c-2.3,0-3,2.2-3,3.2v13.9c0,0.9,0.7,1.6,1.6,1.6c0.9,0,1.6-0.7,1.6-1.6V17.4c0-0.4,0.4-0.5,0.6-0.1c0.2,0.5,2.8,9.3,3.1,10.2
				s0.8,1.8,1.8,1.8h0.2c1.1,0,1.5-0.9,1.8-1.8s2.9-9.7,3.1-10.2c0.2-0.5,0.6-0.3,0.6,0.1v10.3c0,0.9,0.7,1.6,1.6,1.6
				c0.9,0,1.6-0.7,1.6-1.6V13.8C109.3,12.8,108.6,10.6,106.3,10.6z"/>
		</g>
		<g>
			<path class="st1" d="M123.9,10.8L123.9,10.8c-0.8-0.3-1.8,0.2-2,1L118,23.5l-3.9-11.7c-0.3-0.8-1.2-1.3-2-1l0,0
				c-0.8,0.3-1.3,1.2-1,2l5.1,15.4c0.3,0.8,0.9,1.1,1.8,1.1c0.8,0,1.6-0.3,1.8-1.1l5.1-15.4C125.2,12,124.7,11.1,123.9,10.8z"/>
		</g>
	</g>
</g>
<rect y="0" class="st2" width="125" height="40"/>
</svg>
