<?xml version="1.0" encoding="utf-8"?>
<!-- Generator: Adobe Illustrator 20.1.0, SVG Export Plug-In . SVG Version: 6.00 Build 0)  -->
<svg version="1.1" id="logos" xmlns="http://www.w3.org/2000/svg" xmlns:xlink="http://www.w3.org/1999/xlink" x="0px" y="0px"
	 viewBox="0 0 125 40" enable-background="new 0 0 125 40" xml:space="preserve">
<g>
	<g>
		<rect x="0" y="0" fill="none" width="125" height="40"/>
	</g>
	<g>
		<g>
			<path fill="#4AA0EC" d="M23.851,28.101c-0.674,0.586-1.41,1.028-2.249,1.286c-3.844,1.181-7.801-1.679-7.867-5.7
				c-0.025-1.498-0.015-2.998-0.001-4.496c0.014-1.431,1.187-2.352,2.56-2.033c0.863,0.201,1.505,1.004,1.515,1.914
				c0.016,1.487,0.022,2.974,0.038,4.46c0.013,1.161,0.984,2.044,2.143,1.958c0.975-0.073,1.795-0.95,1.807-1.973
				c0.018-1.432,0.004-2.864,0.016-4.296c0.013-1.589,1.557-2.6,2.954-1.928c0.79,0.38,1.148,1.061,1.158,1.912
				c0.018,1.399-0.003,2.798,0.008,4.197c0.01,1.284,0.981,2.195,2.198,2.085c1.036-0.094,1.776-0.986,1.784-2.172
				c0.008-1.343-0.003-2.687,0.004-4.03c0.004-0.891,0.346-1.607,1.178-2c1.306-0.617,2.825,0.252,2.885,1.706
				c0.066,1.585,0.025,3.174,0.013,4.761c-0.003,0.353-0.051,0.709-0.122,1.055c-0.517,2.534-2.584,4.448-5.152,4.817
				c-1.722,0.247-3.217-0.264-4.57-1.296C24.057,28.255,23.96,28.183,23.851,28.101z"/>
			<path fill="#4AA0EC" d="M4.364,17.413c0.183,0,0.314,0,0.446,0c1.876,0,3.752-0.001,5.628,0c1.149,0.001,2.033,0.817,2.096,1.931
				c0.064,1.129-0.741,2.048-1.902,2.154c-0.308,0.028-0.62,0.022-0.931,0.022c-1.643,0.002-3.286,0.001-4.929,0.001
				c-0.13,0-0.26,0-0.485,0c0.085,0.812,0.1,1.592,0.264,2.34c0.173,0.789,0.976,1.323,1.903,1.341
				c1.453,0.028,2.908,0.011,4.362,0.017c1.144,0.004,2.022,0.787,2.176,1.931c0.15,1.11-0.543,2.143-1.63,2.42
				c-0.171,0.043-0.35,0.071-0.526,0.07c-1.653-0.013-3.309,0.016-4.959-0.065c-2.219-0.109-3.822-1.292-4.975-3.123
				C0.29,25.478-0.005,24.401,0,23.234c0.015-3.053,0.005-6.106,0.005-9.158c0-1.026,0.865-1.96,1.899-2.05
				c1.409-0.122,2.454,0.831,2.459,2.247C4.366,15.182,4.364,16.091,4.364,17C4.364,17.121,4.364,17.24,4.364,17.413z"/>
			<path fill="#4AA0EC" d="M68.413,24.564c-0.026,0.527,0.216,0.827,0.622,1.046c0.732,0.393,1.525,0.434,2.326,0.441
				c1.176,0.01,2.352,0.01,3.528,0.026c0.758,0.01,1.424,0.483,1.668,1.162c0.246,0.685,0.054,1.484-0.475,1.954
				c-0.357,0.317-0.788,0.454-1.255,0.454c-1.664,0-3.331,0.041-4.993-0.029c-3.228-0.137-5.855-2.859-5.946-6.087
				c-0.033-1.18,0.118-2.328,0.69-3.382c0.78-1.438,1.955-2.401,3.551-2.789c1.727-0.42,3.465-0.428,5.14,0.207
				c2.103,0.796,3.464,2.273,3.796,4.557c0.064,0.439,0.019,0.912-0.067,1.351c-0.125,0.638-0.687,1.026-1.433,1.077
				c-0.199,0.014-0.399,0.014-0.599,0.014c-2.064,0.001-4.127,0.001-6.191,0.001C68.659,24.564,68.541,24.564,68.413,24.564z
				 M72.702,21.684c0.025-0.424-0.168-0.727-0.5-0.917c-1.065-0.612-2.145-0.615-3.215-0.007c-0.347,0.197-0.526,0.508-0.527,0.924
				C69.886,21.684,71.288,21.684,72.702,21.684z"/>
			<path fill="#4AA0EC" d="M45.784,17.413c0.461,0,0.88,0,1.299,0c0.799,0,1.598-0.002,2.397,0c1.207,0.003,2.092,0.855,2.101,2.021
				c0.009,1.186-0.867,2.073-2.079,2.085c-1.154,0.011-2.309,0.003-3.463,0.003c-0.054,0-0.108,0.006-0.202,0.011
				c-0.025,0.749-0.133,1.488,0.062,2.217c0.22,0.825,0.999,1.413,1.942,1.453c0.709,0.03,1.42,0.004,2.13,0.017
				c1.017,0.019,1.932,0.833,2.071,1.828c0.157,1.124-0.423,2.167-1.421,2.455c-0.398,0.115-0.83,0.13-1.248,0.154
				c-1.371,0.079-2.74,0.052-4.016-0.529c-2.294-1.045-3.594-2.84-3.904-5.343c-0.041-0.329-0.051-0.663-0.051-0.995
				c-0.004-2.852-0.008-5.705,0.002-8.557c0.003-0.86,0.352-1.561,1.137-1.966c0.767-0.395,1.545-0.367,2.273,0.117
				c0.617,0.41,0.926,1.012,0.945,1.744c0.025,0.942,0.017,1.886,0.024,2.829C45.785,17.09,45.784,17.222,45.784,17.413z"/>
			<path fill="#4AA0EC" d="M57.189,21.521c0,0.641-0.042,1.231,0.009,1.812c0.092,1.054,0.935,1.819,2.036,1.869
				c0.698,0.032,1.398,0.006,2.097,0.017c1.098,0.018,2.059,0.919,2.111,1.967c0.064,1.298-0.645,2.283-1.785,2.407
				c-0.671,0.074-1.351,0.086-2.026,0.084c-1.692-0.005-3.25-0.429-4.543-1.579c-1.516-1.349-2.3-3.035-2.298-5.077
				c0.003-2.93-0.004-5.859,0.003-8.789c0.002-0.863,0.351-1.561,1.135-1.967c0.755-0.39,1.526-0.357,2.248,0.103
				c0.708,0.451,0.991,1.139,0.996,1.954c0.006,0.91,0.014,1.821-0.006,2.73c-0.007,0.303,0.091,0.37,0.378,0.366
				c1.12-0.016,2.241-0.008,3.363-0.006c1.145,0.003,2.027,0.84,2.067,1.955c0.041,1.142-0.742,2.063-1.889,2.118
				c-1.151,0.055-2.305,0.027-3.458,0.035C57.495,21.523,57.365,21.521,57.189,21.521z"/>
			<path fill="#4AA0EC" d="M82.363,25.54c0,0.677,0.017,1.354-0.004,2.03c-0.05,1.649-1.704,2.611-3.073,1.787
				c-0.633-0.381-0.974-0.958-0.985-1.706c-0.009-0.654-0.016-1.31,0.001-1.964c0.029-1.103-0.005-2.216,0.133-3.307
				c0.311-2.444,2.388-4.547,4.83-4.875c1.059-0.143,2.146-0.082,3.22-0.108c0.265-0.007,0.532,0.012,0.798,0.014
				c1.164,0.007,2.066,0.884,2.075,2.021c0.008,1.167-0.863,2.066-2.045,2.086c-0.931,0.015-1.862-0.003-2.794,0.005
				c-1.103,0.008-1.88,0.537-2.069,1.463c-0.089,0.439-0.07,0.902-0.084,1.355C82.354,24.741,82.364,25.141,82.363,25.54z"/>
			<path fill="#4AA0EC" d="M35.526,23.368c0-1.332,0-2.664,0-3.995c0-1.246,0.918-2.252,2.082-2.282
				c1.285-0.033,2.279,0.885,2.291,2.204c0.025,2.719,0.022,5.438,0.001,8.157c-0.009,1.217-0.875,2.099-2.069,2.193
				c-1.073,0.085-2.088-0.688-2.262-1.785c-0.078-0.488-0.04-0.996-0.042-1.495C35.523,25.366,35.526,24.367,35.526,23.368z"/>
			<path fill="#4AA0EC" d="M37.707,11.55c1.23,0.004,2.202,0.972,2.201,2.193c-0.001,1.255-0.983,2.22-2.251,2.215
				c-1.2-0.006-2.134-0.978-2.129-2.219C35.532,12.471,36.453,11.546,37.707,11.55z"/>
		</g>
		<path fill="#4AA0EC" d="M121.858,11.979c1.87-1.225,2.45-3.076,2.45-3.076c-2.431,1.309-3.763,1.357-3.763,1.357
			c-3.436-4.685-11.776,0.195-9.923,5.329c-7.665-0.215-12.081-6.068-12.081-6.068c-2.693,4.357,1.72,7.723,1.72,7.723
			c-1.122,0.075-2.637-0.673-2.637-0.673c0.056,4.974,4.675,5.815,4.675,5.815c-1.346,0.374-2.599,0.15-2.599,0.15
			c1.739,4.226,5.404,4.058,5.404,4.058c-3.628,2.992-8.546,2.468-8.546,2.468c2.15,1.328,5.479,2.356,8.19,2.543
			c2.711,0.187,7.498-0.524,11.425-3.74c1.309-1.072,2.326-2.295,3.117-3.511c1.581-2.433,2.25-4.835,2.512-5.932
			c0.393-1.646,0.43-4.282,0.43-4.282c1.683-1.178,2.768-2.936,2.768-2.936C123.28,11.969,121.858,11.979,121.858,11.979z"/>
	</g>
</g>
</svg>
