<?xml version="1.0" encoding="utf-8"?>
<!-- Generator: Adobe Illustrator 20.1.0, SVG Export Plug-In . SVG Version: 6.00 Build 0)  -->
<svg version="1.1" id="logos" xmlns="http://www.w3.org/2000/svg" xmlns:xlink="http://www.w3.org/1999/xlink" x="0px" y="0px"
	 viewBox="0 0 125 40" enable-background="new 0 0 125 40" xml:space="preserve">
<g>
	<g>
		<path fill="#F7EF22" d="M10.452,32.376c0.905-1.651,5.784-8.756,7.745-10.608s13.328-10.708,13.328-10.708s-1.861,0.35-4.074,0.45
			s-7.276,0.984-7.578,0.984c-0.302,0-2.381,0.1-3.99,0.567c-1.609,0.467-5.599,2.268-7.108,2.735s-2.615,0.4-3.185,0.2
			c-0.57-0.2-1.475-0.967-1.475-1.468c0-0.5,0.268-1.001,1.174-1.368s14.552-5.337,19.916-6.205s13.06-0.734,13.311-0.917
			s0.889-0.667,0.989-0.667c0.101,0,0.771,0.017,1.241-0.033c0.469-0.05,0.821-0.183,0.905-0.183c0.084,0,0.134,0.3,0.134,0.3
			c0.101-0.025,0.377,0.075,0.78,0.025c0.402-0.05,1.006,0.25,1.006,0.25l-0.604,0.65l0.503-0.1v0.2l0.729,0.175l-0.553,0.2
			l-0.025,0.15h-1.333c0,0,0.101,0.525,0.327,0.55c0.226,0.025,0.478,0.25,0.478,0.25s-0.453,0-0.503,0.375
			c-0.05,0.776-0.553,1.726-1.106,2.252s-4.376,3.327-5.658,4.178c-1.282,0.851-3.37,2.227-4.35,2.877
			c-0.981,0.65-4.25,3.453-5.231,4.103c-0.981,0.65-2.682,1.776-3.956,2.51s-2.414,4.17-1.576,4.803
			c0.838,0.634,3.973,0.792,4.753,0.392c0.78-0.4,7.796-3.127,10.31-3.828s12.925-4.428,13.353-4.628c0.427-0.2,0.729,0,0.981,0
			s1.232-0.05,1.433-0.15s0.453-0.375,0.905-0.525c0.453-0.15,1.157,0.45,1.609,0.6c0.453,0.15,1.484,0.175,1.484,0.175
			c0.05,0.375,0.402,0.35,0.402,0.35l0.05-0.3l2.64-0.025c0,0-0.553,0.35-1.257,0.5c-0.704,0.15-0.805,0.35-1.157,0.55
			c-0.352,0.2-0.956,0-1.157-0.1s-0.478,0.075-0.578,0.3c-0.101,0.225,0.226,0.5,0.453,0.575s0.302,0.425,0.226,0.675
			c-0.075,0.25-0.528,0.55-0.528,0.55s0.101-0.075,0.101-0.225s-0.327-0.325-0.704-0.701c-0.226,0-0.729,0-0.729,0s0,0,0,0.125
			c0,0.125,0.327,0.575,0.251,0.751s0,0.525-0.05,0.625s-0.453,0.2-0.453,0.2s0.151-0.1,0.176-0.2c-0.075-0.35-1.333-0.6-1.333-0.6
			s0.025,0.3-0.151,0.3s-0.604,0-0.604,0l-0.302-0.25c0,0,0.05-0.2,0.025-0.2c-0.226,0-0.503-0.15-0.503-0.15l-0.042,1.409
			c0,0-0.838,0.067-1.408,0.133s-2.548,0.801-3.822,1.201c-1.274,0.4-7.108,2.035-9.153,2.935c-2.045,0.901-6.038,2.578-9.992,4.153
			c-2.942,1.172-7.502,2.951-8.203,3.277c-0.701,0.326-1.127,0.451-1.403,0.626c-0.276,0.175-0.401,0.426-0.476,0.426
			s-1.203-0.802-1.478-1.052c-0.276-0.251-0.301-0.125-0.426-0.125c-0.125,0-0.626-0.301-0.727-0.301c-0.1,0,0.225,0.301-0.15,0.426
			c-0.376,0.125,0.1,0.301,0.125,0.551c0.025,0.251-0.125,0.501-0.025,0.727c0.1,0.225,0.1,0.351,0.276,0.351
			c0.175,0,0.576,0,0.576,0s-0.276,0.326-0.426,0.451c-0.15,0.125-0.626-0.2-0.752-0.276c-0.125-0.075-1.228-1.228-1.453-1.378
			s-0.476-0.426-0.476-0.426s0.401-0.15,0.676-0.351s0.451-0.551,0.326-0.777c-0.125-0.225-0.376-1.002-0.551-1.278
			s-0.451-0.551-0.601-0.877C10.624,33.196,10.452,32.376,10.452,32.376z"/>
		<path d="M13.513,39.012c-0.183,0-0.43-0.143-0.658-0.285l-0.053-0.032c-0.061-0.036-0.233-0.205-0.612-0.581
			c-0.325-0.322-0.729-0.723-0.845-0.8c-0.233-0.156-0.484-0.43-0.495-0.442l-0.099-0.109l0.138-0.052
			c0.004-0.001,0.392-0.148,0.653-0.338c0.249-0.181,0.388-0.483,0.297-0.647c-0.057-0.102-0.132-0.296-0.219-0.519
			c-0.11-0.283-0.234-0.603-0.329-0.753c-0.064-0.101-0.142-0.202-0.225-0.309c-0.14-0.181-0.284-0.367-0.383-0.58
			c-0.153-0.332-0.322-1.133-0.329-1.167l-0.008-0.036l0.018-0.032c0.94-1.714,5.839-8.815,7.764-10.633
			c1.759-1.66,11.173-9.026,13.021-10.469c-0.665,0.107-2.094,0.312-3.694,0.385c-1.532,0.069-4.439,0.516-6.176,0.783
			c-0.882,0.136-1.311,0.201-1.406,0.201c-0.314,0-2.379,0.104-3.962,0.563c-0.848,0.246-2.366,0.867-3.834,1.467
			c-1.316,0.538-2.56,1.047-3.273,1.268c-1.881,0.583-2.962,0.3-3.248,0.199c-0.595-0.209-1.542-1.009-1.542-1.562
			c0-0.637,0.416-1.128,1.236-1.46c0.803-0.325,14.506-5.332,19.938-6.211c3.59-0.58,8.209-0.713,10.969-0.792
			c1.175-0.034,2.19-0.063,2.307-0.112l0.126-0.093c0.624-0.461,0.821-0.588,0.914-0.588l0.068,0.001
			c0.209,0.004,0.76,0.01,1.162-0.033c0.296-0.032,0.544-0.097,0.708-0.14c0.115-0.03,0.167-0.044,0.208-0.044
			c0.099,0,0.171,0.1,0.216,0.298c0.035,0.003,0.074,0.008,0.118,0.014c0.139,0.019,0.33,0.045,0.567,0.014
			c0.433-0.05,1.037,0.247,1.063,0.26l0.12,0.06l-0.484,0.522L43.57,6.16v0.243l0.978,0.235l-0.813,0.294l-0.03,0.176h-1.29
			c0.048,0.167,0.131,0.342,0.21,0.35c0.255,0.028,0.523,0.265,0.534,0.275l0.194,0.173l-0.26,0.002
			c-0.015,0-0.366,0.006-0.404,0.288c-0.049,0.757-0.527,1.732-1.137,2.311c-0.555,0.527-4.34,3.306-5.672,4.189
			c-0.688,0.456-1.607,1.064-2.463,1.629c-0.74,0.489-1.433,0.946-1.887,1.248c-0.486,0.322-1.564,1.198-2.607,2.045
			c-1.047,0.85-2.129,1.73-2.624,2.058c-0.861,0.571-2.654,1.76-3.962,2.514c-0.906,0.522-1.73,2.44-1.807,3.679
			c-0.03,0.477,0.056,0.817,0.241,0.957c0.789,0.597,3.883,0.776,4.646,0.383c0.811-0.416,7.817-3.135,10.329-3.835
			c2.43-0.677,12.815-4.378,13.337-4.623c0.328-0.153,0.589-0.094,0.799-0.046c0.085,0.02,0.159,0.036,0.224,0.036
			c0.285,0,1.218-0.055,1.389-0.14c0.06-0.03,0.131-0.081,0.212-0.141c0.174-0.127,0.392-0.286,0.707-0.39
			c0.342-0.114,0.78,0.132,1.167,0.349c0.186,0.105,0.363,0.204,0.506,0.251c0.433,0.144,1.444,0.17,1.455,0.17l0.085,0.002
			l0.011,0.085c0.025,0.184,0.138,0.241,0.219,0.258l0.049-0.294l3.077-0.029l-0.298,0.188c-0.023,0.015-0.576,0.362-1.29,0.514
			c-0.493,0.105-0.677,0.235-0.871,0.372c-0.078,0.055-0.158,0.111-0.257,0.167c-0.401,0.229-1.054,0-1.251-0.097
			c-0.062-0.031-0.129-0.017-0.175-0.001c-0.11,0.04-0.218,0.141-0.267,0.252c-0.016,0.035-0.013,0.074,0.008,0.121
			c0.059,0.134,0.247,0.273,0.385,0.318c0.285,0.095,0.382,0.497,0.291,0.8c-0.084,0.277-0.519,0.572-0.569,0.605l-0.116-0.164
			c0.001-0.001,0.061-0.05,0.061-0.145c0-0.044-0.147-0.166-0.265-0.264c-0.108-0.09-0.24-0.2-0.38-0.336h-0.588v0.025
			c0.003,0.029,0.054,0.132,0.092,0.207c0.107,0.212,0.217,0.432,0.151,0.583c-0.033,0.076-0.029,0.22-0.025,0.336
			c0.004,0.127,0.006,0.228-0.028,0.295c-0.062,0.123-0.351,0.211-0.518,0.252l-0.559,0.139l0.479-0.32
			c0.042-0.028,0.101-0.08,0.125-0.12c-0.081-0.161-0.614-0.36-1.129-0.474c-0.008,0.068-0.03,0.149-0.083,0.206
			c-0.043,0.047-0.1,0.071-0.165,0.071h-0.64l-0.379-0.313l0.016-0.061c0.007-0.028,0.013-0.057,0.019-0.083
			c-0.11-0.016-0.22-0.054-0.303-0.087l-0.04,1.347l-0.09,0.007c-0.008,0.001-0.843,0.067-1.405,0.133
			c-0.369,0.043-1.385,0.387-2.367,0.72c-0.497,0.168-1.01,0.342-1.437,0.476c-0.285,0.09-0.798,0.241-1.446,0.432
			c-2.287,0.674-6.115,1.803-7.697,2.5c-1.978,0.871-5.949,2.543-9.995,4.155c-0.924,0.368-2.007,0.796-3.08,1.22
			c-2.386,0.943-4.64,1.833-5.118,2.055c-0.311,0.144-0.571,0.251-0.781,0.337c-0.269,0.11-0.464,0.19-0.61,0.283
			c-0.142,0.09-0.243,0.205-0.317,0.289c-0.081,0.092-0.134,0.152-0.213,0.152c-0.145,0-1.37-0.919-1.546-1.078
			c-0.162-0.147-0.197-0.135-0.245-0.12c-0.029,0.009-0.065,0.021-0.113,0.021c-0.085,0-0.223-0.066-0.442-0.173
			c-0.047-0.023-0.104-0.051-0.156-0.075c0.012,0.057,0.014,0.123-0.016,0.19c-0.037,0.08-0.115,0.14-0.23,0.179
			c-0.066,0.022-0.08,0.038-0.08,0.039c0.01,0.001,0.057,0.053,0.089,0.088c0.076,0.084,0.171,0.188,0.185,0.319
			c0.012,0.119-0.01,0.231-0.03,0.34c-0.026,0.136-0.048,0.253-0.003,0.356c0.022,0.05,0.04,0.096,0.056,0.136
			c0.058,0.15,0.066,0.155,0.128,0.155h0.792l-0.14,0.165c-0.012,0.013-0.283,0.334-0.438,0.463
			C13.627,38.996,13.573,39.012,13.513,39.012z M11.1,36.84c0.091,0.091,0.229,0.221,0.357,0.306
			c0.132,0.088,0.51,0.462,0.875,0.825c0.245,0.243,0.523,0.519,0.574,0.551l0.056,0.035c0.478,0.299,0.567,0.261,0.58,0.25
			c0.074-0.061,0.182-0.176,0.269-0.274h-0.355c-0.206,0-0.26-0.138-0.316-0.283c-0.015-0.038-0.031-0.08-0.052-0.127
			c-0.071-0.16-0.041-0.32-0.011-0.475c0.019-0.099,0.037-0.193,0.028-0.282c-0.006-0.065-0.074-0.139-0.133-0.204
			c-0.078-0.086-0.159-0.174-0.131-0.282c0.026-0.099,0.131-0.145,0.207-0.17c0.059-0.02,0.099-0.046,0.112-0.073
			c0.017-0.037-0.006-0.095-0.024-0.141c-0.02-0.052-0.044-0.111-0.006-0.166l0.03-0.044l0.071-0.007
			c0.064,0,0.158,0.043,0.373,0.148c0.114,0.056,0.306,0.15,0.355,0.153c0.015,0,0.029-0.004,0.051-0.011
			c0.129-0.042,0.232-0.028,0.442,0.163c0.249,0.226,1.198,0.903,1.405,1.016c0.019-0.018,0.045-0.048,0.067-0.074
			c0.082-0.093,0.194-0.22,0.36-0.326c0.162-0.103,0.363-0.185,0.642-0.3c0.207-0.085,0.466-0.19,0.772-0.333
			c0.484-0.225,2.74-1.116,5.129-2.06c1.073-0.424,2.156-0.852,3.079-1.219c4.044-1.611,8.012-3.282,9.988-4.152
			c1.594-0.702,5.43-1.833,7.722-2.509c0.646-0.19,1.158-0.341,1.442-0.431c0.425-0.133,0.937-0.307,1.433-0.475
			c1.038-0.352,2.018-0.684,2.408-0.729c0.456-0.054,1.09-0.107,1.322-0.126l0.044-1.483l0.143,0.078
			c0.003,0.001,0.258,0.138,0.455,0.138h0.049l0.034,0.04c0.02,0.026,0.042,0.053,0.004,0.222l0.226,0.188h0.567
			c0.046-0.038,0.055-0.134,0.051-0.192l-0.011-0.132l0.13,0.025c0.221,0.044,1.326,0.283,1.412,0.678l0.005,0.023l0,0
			c0.044-0.02,0.076-0.038,0.087-0.052c0.008-0.021,0.006-0.126,0.004-0.195c-0.004-0.143-0.009-0.304,0.042-0.421
			c0.028-0.065-0.09-0.301-0.147-0.413c-0.072-0.144-0.113-0.229-0.113-0.297v-0.226h0.871l0.029,0.029
			c0.145,0.144,0.284,0.26,0.396,0.353c0.177,0.147,0.301,0.25,0.331,0.366c0.107-0.096,0.21-0.208,0.238-0.301
			c0.062-0.205,0.004-0.496-0.162-0.551c-0.179-0.059-0.418-0.23-0.505-0.428c-0.044-0.099-0.046-0.197-0.008-0.284
			c0.073-0.163,0.219-0.301,0.383-0.359c0.119-0.042,0.234-0.039,0.332,0.01c0.208,0.103,0.765,0.273,1.062,0.102
			c0.092-0.052,0.167-0.105,0.24-0.157c0.203-0.143,0.413-0.291,0.945-0.405c0.341-0.073,0.647-0.194,0.868-0.298l-2.145,0.02
			l-0.049,0.295l-0.079,0.006c-0.14,0.015-0.411-0.054-0.492-0.352c-0.254-0.009-1.041-0.048-1.432-0.178
			c-0.162-0.054-0.346-0.157-0.541-0.267c-0.351-0.197-0.745-0.418-1.005-0.334c-0.285,0.095-0.488,0.243-0.651,0.362
			c-0.089,0.065-0.165,0.121-0.241,0.158c-0.235,0.117-1.282,0.161-1.478,0.161c-0.088,0-0.176-0.02-0.269-0.041
			c-0.199-0.045-0.404-0.092-0.669,0.032c-0.524,0.245-10.935,3.956-13.368,4.634c-2.504,0.697-9.484,3.406-10.291,3.82
			c-0.82,0.422-4.01,0.241-4.859-0.401c-0.244-0.185-0.355-0.575-0.321-1.129c0.08-1.288,0.949-3.289,1.907-3.841
			c1.303-0.75,3.091-1.937,3.951-2.507c0.486-0.323,1.565-1.199,2.608-2.046c1.046-0.85,2.128-1.729,2.622-2.057
			c0.455-0.302,1.148-0.759,1.888-1.248c0.856-0.565,1.775-1.173,2.463-1.629c1.291-0.857,5.11-3.659,5.644-4.167
			c0.567-0.539,1.03-1.478,1.075-2.185c0.032-0.239,0.195-0.365,0.357-0.424c-0.077-0.046-0.164-0.087-0.242-0.095
			c-0.286-0.032-0.395-0.531-0.414-0.631l-0.023-0.119h1.369l0.021-0.124l0.294-0.106l-0.48-0.115V6.405l-0.687,0.137l0.719-0.775
			c-0.19-0.081-0.56-0.215-0.825-0.185c-0.263,0.033-0.477,0.004-0.618-0.015c-0.058-0.007-0.128-0.016-0.15-0.012L41.705,5.58
			l-0.019-0.106c-0.014-0.082-0.04-0.172-0.061-0.212c-0.032,0.007-0.084,0.02-0.131,0.033c-0.17,0.045-0.426,0.113-0.737,0.146
			c-0.415,0.044-0.975,0.038-1.186,0.035l-0.066-0.001c-0.084,0.023-0.582,0.391-0.795,0.549l-0.135,0.099
			c-0.099,0.072-0.545,0.092-2.411,0.145c-2.755,0.079-7.366,0.212-10.943,0.79c-5.417,0.876-19.094,5.874-19.895,6.199
			c-0.747,0.303-1.111,0.72-1.111,1.274c0,0.424,0.826,1.169,1.408,1.373c0.272,0.095,1.3,0.363,3.122-0.201
			c0.704-0.218,1.944-0.725,3.256-1.262c1.473-0.602,2.995-1.225,3.854-1.474c1.605-0.466,3.699-0.571,4.018-0.571
			c0.085,0,0.654-0.088,1.376-0.199c1.741-0.268,4.655-0.716,6.197-0.786c2.18-0.098,4.041-0.445,4.059-0.449l0.406-0.077
			l-0.326,0.254c-0.114,0.089-11.385,8.875-13.32,10.702c-1.903,1.796-6.73,8.788-7.708,10.55c0.035,0.161,0.181,0.814,0.307,1.088
			c0.089,0.192,0.226,0.369,0.359,0.541c0.086,0.111,0.167,0.215,0.236,0.324c0.106,0.167,0.234,0.497,0.347,0.788
			c0.081,0.208,0.157,0.404,0.207,0.495c0.161,0.289-0.054,0.688-0.354,0.907C11.477,36.667,11.245,36.778,11.1,36.84z"/>
	</g>
	<g>
		<path fill="#E0292D" d="M7.693,35.301c-0.1-0.125-0.626,0.025-0.626,0.025s0.175-0.551,0.276-0.827c0.1-0.276-0.601-0.2-0.601-0.2
			s0.676-0.276,0.827-0.601c0.15-0.326,0.025-1.027-0.025-1.553c-0.05-0.526-0.05-1.102-0.05-1.428s0.411-1.175,0.78-1.542
			c0.369-0.367,0.671-0.767,0.805-1.101c0.134-0.334,2.213-2.702,2.481-3.002c0.268-0.3,0.671-1.067,0.771-1.301
			c0.101-0.234,1.274-1.401,1.509-1.635c0.235-0.234,1.039-0.834,1.408-1.234c0.369-0.4,0.604-0.934,0.604-0.934
			s0.805-1.034,1.106-1.234c0.302-0.2,0.637-0.367,0.738-0.6s0.838-1.301,1.14-1.768c0.302-0.467,4.124-5.004,5.096-5.904
			c0.972-0.901,3.923-3.352,3.923-3.352s-3.219,0.801-4.2,0.901c-0.981,0.1-6.639,1.351-10.562,2.552S4.794,13.863,2.38,13.863
			s-2.59-1.901-1.987-2.452c0.604-0.55,5.155-3.377,12.674-5.321c9.769-2.524,17.268-2.869,21.325-3.036s4.962-0.2,4.962-0.2
			s-0.386,0.475-0.31,0.625c0.075,0.15,1.333,0.5,1.333,0.5s-0.176,0.15-0.453,0.225c-0.277,0.075-0.855,0.1-1.132,0.15
			c-0.277,0.05-0.402,0.35-0.201,0.35s0.88,0.1,0.88,0.1s-0.604,0.776-0.704,1.026c0,0.65-0.101,0.851-0.377,1.201
			s-1.056,0.876-1.76,1.501c-0.704,0.625-4.376,3.377-5.532,4.303c-1.157,0.926-4.3,3.202-4.753,3.427
			c-0.453,0.225-0.88,0.776-1.132,1.126c-0.251,0.35-0.478,0.575-1.157,1.076c-0.679,0.5-1.383,1.126-2.087,1.826
			c-0.704,0.701-0.981,1.251-1.031,1.451c-0.05,0.2-0.629,0.525-1.157,0.876s-0.78,0.926-1.031,1.451s-1.056,2.026-1.056,2.026
			s1.785-0.701,3.747-1.576s9.229-3.803,10.411-4.203c1.182-0.4,4.3-0.901,5.306-1.101s9.757-0.901,10.042-0.901
			c0.285,0,0.855-0.267,1.123-0.384c0.268-0.117,1.123-0.367,1.459-0.234c-0.285,0.217-0.402,0.467-0.151,0.5
			c1.442-0.067,2.263,0,2.783,0.15s1.023,0.217,1.945,0.3c-0.838,0.117-1.727,0.584-1.76,0.734c-0.034,0.15-0.05,0.634-0.05,0.634
			c-0.134-0.083-1.341-0.117-1.459-0.178c-0.151-0.095-0.285-0.189-0.285-0.189s-0.134,0.25-0.134,0.467s0.419,0.667,0.419,0.667
			s-0.386,0.183-0.637,0.234c-0.251,0.05-1.174-0.117-1.174-0.117v0.342c0,0-0.302,0.2-0.629,0.325
			c-0.327,0.125-0.604,0.1-1.106,0.4c-0.503,0.3-1.157,0.65-1.383,0.976c-0.226,0.325-0.327,0.625-0.327,0.625
			s-0.905-0.325-1.232-0.25c-0.302,0.15-2.012,0.751-3.847,1.276s-2.775,1.042-3.646,1.176c-0.872,0.133-1.643,0.4-5.13,1.735
			c-5.532,2.168-12.596,5.028-15.658,6.371c-2.388,1.047-3.04,1.073-3.29,1.298c-0.251,0.225-0.476-0.075-0.476-0.075
			s-0.376,0.651-0.576,0.727c-0.2,0.075-0.551,0.15-0.551,0.15s0-0.376-0.175-0.476c-0.175-0.1-0.852-0.175-0.852-0.175
			s0.175-0.225,0.451-0.401c0.276-0.175,0.351-0.376,0.351-0.376s-1.603-0.025-1.929,0.05c-0.326,0.075-0.476,0.276-0.376,0.426
			s0.301,0.301,0.326,0.476c0.025,0.175,0.175,1.303,0.175,1.303s-0.426,0-0.777-0.2c-0.351-0.2-0.476-0.551-0.601-0.727
			C7.894,35.702,7.693,35.301,7.693,35.301z"/>
		<path d="M9.511,36.904H9.397c-0.018,0-0.457-0.002-0.826-0.214c-0.289-0.165-0.436-0.421-0.544-0.609
			c-0.032-0.056-0.061-0.106-0.09-0.147c-0.115-0.161-0.285-0.492-0.325-0.572c-0.057-0.03-0.299-0.003-0.518,0.059l-0.18,0.051
			l0.057-0.178c0.002-0.005,0.177-0.556,0.277-0.83C7.228,34.404,7,34.373,6.752,34.398l-0.704,0.075l0.655-0.267
			c0.178-0.073,0.664-0.313,0.774-0.55c0.11-0.238,0.052-0.739,0.001-1.182c-0.013-0.111-0.025-0.218-0.035-0.32
			c-0.051-0.531-0.051-1.121-0.051-1.437c0-0.37,0.439-1.244,0.81-1.613c0.374-0.372,0.659-0.761,0.782-1.067
			c0.153-0.38,2.476-3.005,2.499-3.032c0.247-0.276,0.645-1.02,0.754-1.274c0.072-0.167,0.586-0.727,1.53-1.665
			c0.096-0.096,0.277-0.245,0.486-0.417c0.312-0.257,0.7-0.577,0.92-0.815c0.353-0.383,0.583-0.901,0.586-0.907
			c0.046-0.064,0.831-1.07,1.143-1.277c0.062-0.041,0.125-0.081,0.188-0.12c0.229-0.144,0.446-0.279,0.513-0.437
			c0.074-0.171,0.452-0.737,0.786-1.237c0.141-0.21,0.271-0.406,0.362-0.546c0.307-0.475,4.108-4.993,5.112-5.923
			c0.768-0.712,2.792-2.409,3.593-3.078c-0.909,0.221-3.018,0.721-3.792,0.8c-0.938,0.096-6.528,1.319-10.543,2.548
			c-1.362,0.417-2.78,0.943-4.151,1.452c-2.571,0.954-4.999,1.855-6.591,1.855c-1.629,0-2.133-0.845-2.274-1.209
			c-0.202-0.521-0.11-1.117,0.219-1.417c0.489-0.446,4.912-3.327,12.717-5.343c9.944-2.57,17.645-2.887,21.345-3.039
			c4.058-0.167,4.963-0.2,4.963-0.2l0.221-0.008l-0.139,0.171c-0.17,0.21-0.311,0.458-0.297,0.52
			c0.068,0.073,0.714,0.291,1.269,0.446l0.181,0.051l-0.143,0.122c-0.008,0.007-0.196,0.166-0.492,0.246
			c-0.172,0.047-0.44,0.073-0.7,0.099c-0.17,0.017-0.331,0.033-0.44,0.053c-0.123,0.022-0.195,0.106-0.213,0.15
			c0.237,0.007,0.861,0.098,0.889,0.102l0.17,0.025l-0.106,0.136c-0.161,0.207-0.588,0.775-0.683,0.985
			c-0.002,0.673-0.118,0.887-0.399,1.242c-0.169,0.213-0.507,0.482-0.899,0.793c-0.273,0.216-0.582,0.462-0.873,0.72
			c-0.421,0.374-1.863,1.478-3.256,2.545c-0.932,0.713-1.812,1.387-2.28,1.762c-1.121,0.897-4.305,3.207-4.771,3.439
			c-0.323,0.161-0.681,0.519-1.095,1.095c-0.247,0.344-0.465,0.572-1.179,1.098c-0.64,0.471-1.338,1.083-2.076,1.817
			c-0.687,0.683-0.957,1.217-1.004,1.404c-0.047,0.187-0.344,0.385-0.864,0.718c-0.11,0.071-0.224,0.143-0.335,0.217
			c-0.474,0.315-0.717,0.825-0.952,1.318l-0.044,0.093c-0.188,0.393-0.691,1.341-0.929,1.788c0.562-0.225,1.98-0.8,3.488-1.473
			c1.879-0.839,9.182-3.787,10.419-4.206c0.902-0.305,2.929-0.67,4.271-0.911c0.435-0.078,0.804-0.144,1.048-0.193
			c0.956-0.19,9.657-0.903,10.062-0.903c0.233,0,0.724-0.217,0.987-0.333l0.096-0.042c0.224-0.097,1.141-0.392,1.535-0.235
			l0.165,0.066l-0.141,0.107c-0.198,0.15-0.257,0.278-0.249,0.306l0,0c0.001,0,0.012,0.01,0.051,0.015
			c1.325-0.062,2.219-0.014,2.798,0.153c0.525,0.152,1.039,0.216,1.926,0.297l0.871,0.079l-0.866,0.121
			c-0.816,0.114-1.619,0.556-1.679,0.665c-0.023,0.107-0.04,0.475-0.045,0.607l-0.006,0.173l-0.147-0.092
			c-0.068-0.034-0.492-0.067-0.773-0.089c-0.44-0.035-0.613-0.051-0.679-0.085c-0.075-0.047-0.144-0.092-0.197-0.128
			c-0.035,0.084-0.075,0.208-0.075,0.317c0,0.122,0.229,0.424,0.392,0.599l0.093,0.1l-0.123,0.059
			c-0.016,0.008-0.4,0.189-0.661,0.241c-0.214,0.044-0.826-0.051-1.093-0.096v0.277l-0.045,0.03
			c-0.013,0.008-0.315,0.208-0.648,0.336c-0.116,0.044-0.223,0.07-0.337,0.097c-0.214,0.052-0.434,0.104-0.754,0.296l-0.228,0.134
			c-0.442,0.259-0.943,0.553-1.124,0.812c-0.214,0.309-0.313,0.598-0.314,0.6l-0.033,0.097L45.8,23.664
			c-0.245-0.088-0.929-0.301-1.176-0.247c-0.272,0.139-1.963,0.737-3.842,1.274c-0.866,0.248-1.542,0.498-2.086,0.699
			c-0.617,0.228-1.104,0.408-1.573,0.48c-0.846,0.13-1.562,0.372-5.109,1.729c-5.222,2.047-12.505,4.989-15.654,6.37
			c-1.372,0.602-2.174,0.868-2.654,1.026c-0.334,0.111-0.518,0.172-0.61,0.254c-0.113,0.102-0.223,0.115-0.296,0.108
			c-0.092-0.009-0.17-0.053-0.226-0.097c-0.127,0.207-0.382,0.592-0.562,0.659c-0.205,0.077-0.551,0.152-0.566,0.155l-0.121,0.026
			l0-0.124c0-0.104-0.031-0.336-0.125-0.389c-0.115-0.066-0.559-0.135-0.813-0.163l-0.178-0.02l0.11-0.142
			c0.008-0.01,0.189-0.241,0.476-0.424c0.103-0.066,0.175-0.135,0.223-0.193c-0.526-0.005-1.498-0.003-1.725,0.05
			c-0.198,0.045-0.297,0.135-0.322,0.197c-0.011,0.028-0.009,0.052,0.007,0.075c0.031,0.047,0.073,0.094,0.116,0.142
			c0.096,0.108,0.205,0.23,0.225,0.376c0.025,0.175,0.176,1.304,0.176,1.304L9.511,36.904z M7.506,35.15
			c0.114,0,0.213,0.023,0.266,0.088l0.011,0.018c0.002,0.004,0.198,0.396,0.317,0.563c0.032,0.045,0.065,0.101,0.101,0.164
			c0.101,0.176,0.228,0.396,0.469,0.534c0.216,0.123,0.468,0.166,0.611,0.18c-0.04-0.296-0.139-1.041-0.159-1.181
			c-0.012-0.087-0.096-0.18-0.177-0.271c-0.049-0.055-0.097-0.11-0.133-0.164C8.76,35.002,8.75,34.909,8.786,34.82
			c0.058-0.146,0.231-0.265,0.463-0.319c0.334-0.077,1.887-0.054,1.953-0.053l0.143,0.002l-0.05,0.133
			c-0.004,0.009-0.091,0.234-0.391,0.425c-0.123,0.078-0.226,0.168-0.3,0.241c0.222,0.031,0.566,0.089,0.697,0.164
			c0.151,0.086,0.201,0.3,0.218,0.439c0.118-0.028,0.302-0.075,0.424-0.121c0.103-0.038,0.352-0.384,0.525-0.683l0.076-0.132
			l0.091,0.122c0.023,0.03,0.102,0.11,0.187,0.118c0.049,0.005,0.094-0.014,0.142-0.057c0.123-0.111,0.309-0.172,0.681-0.296
			c0.476-0.158,1.273-0.422,2.636-1.02c3.269-1.434,10.509-4.354,15.662-6.373c3.566-1.364,4.287-1.608,5.152-1.74
			c0.449-0.069,0.928-0.246,1.534-0.47c0.547-0.202,1.227-0.454,2.1-0.703c1.868-0.535,3.542-1.125,3.831-1.269
			c0.312-0.073,0.966,0.128,1.218,0.213c0.048-0.118,0.147-0.331,0.303-0.556c0.206-0.296,0.705-0.588,1.187-0.871l0.227-0.134
			c0.346-0.207,0.593-0.266,0.81-0.318c0.107-0.026,0.207-0.05,0.312-0.09c0.24-0.092,0.47-0.228,0.564-0.287v-0.407l0.118,0.021
			c0.251,0.045,0.945,0.157,1.136,0.117c0.152-0.03,0.36-0.114,0.491-0.17c-0.135-0.159-0.353-0.445-0.353-0.632
			c0-0.239,0.14-0.503,0.146-0.514l0.054-0.1l0.092,0.065c0.001,0.001,0.133,0.093,0.281,0.186c0.044,0.016,0.362,0.041,0.595,0.059
			c0.346,0.027,0.576,0.048,0.715,0.073c0.008-0.158,0.023-0.415,0.047-0.525c0.039-0.175,0.607-0.483,1.232-0.673
			c-0.548-0.06-0.942-0.127-1.346-0.243c-0.557-0.161-1.43-0.207-2.751-0.146c-0.176-0.022-0.222-0.111-0.236-0.163
			c-0.028-0.105,0.031-0.239,0.16-0.375c-0.351-0.007-0.97,0.164-1.197,0.263l-0.095,0.042c-0.316,0.139-0.793,0.35-1.068,0.35
			c-0.404,0-9.071,0.709-10.023,0.899c-0.245,0.049-0.614,0.115-1.051,0.194c-1.336,0.24-3.354,0.603-4.242,0.904
			c-1.12,0.379-8.359,3.288-10.402,4.2c-1.941,0.866-3.733,1.571-3.751,1.578l-0.254,0.099l0.129-0.24
			c0.008-0.015,0.806-1.505,1.054-2.023l0.044-0.092c0.247-0.518,0.502-1.054,1.022-1.399c0.112-0.074,0.226-0.148,0.338-0.219
			c0.333-0.213,0.747-0.479,0.777-0.598c0.056-0.221,0.341-0.785,1.058-1.498c0.745-0.741,1.451-1.359,2.098-1.836
			c0.692-0.51,0.901-0.728,1.135-1.053c0.433-0.603,0.815-0.981,1.168-1.157c0.426-0.212,3.523-2.447,4.735-3.416
			c0.47-0.376,1.351-1.05,2.284-1.765c1.326-1.015,2.829-2.166,3.245-2.535c0.295-0.262,0.607-0.51,0.881-0.728
			c0.382-0.303,0.713-0.565,0.866-0.761c0.264-0.333,0.356-0.506,0.356-1.139l0.007-0.037c0.079-0.196,0.433-0.676,0.613-0.913
			c-0.213-0.029-0.565-0.075-0.696-0.075c-0.136,0-0.192-0.088-0.198-0.164c-0.013-0.147,0.14-0.342,0.381-0.385
			c0.117-0.021,0.281-0.038,0.456-0.055c0.24-0.024,0.512-0.051,0.668-0.093c0.092-0.025,0.173-0.059,0.237-0.093
			c-0.54-0.158-1.111-0.353-1.181-0.491c-0.068-0.136,0.057-0.37,0.192-0.562c-0.451,0.017-1.723,0.068-4.75,0.192
			c-3.694,0.152-11.38,0.468-21.303,3.032C5.328,8.194,0.945,11.044,0.461,11.485c-0.226,0.206-0.362,0.696-0.168,1.197
			c0.266,0.687,1.027,1.081,2.087,1.081c1.556,0,3.968-0.895,6.521-1.842c1.374-0.51,2.794-1.037,4.162-1.455
			c4.025-1.232,9.637-2.46,10.581-2.556c0.962-0.098,4.153-0.89,4.185-0.898l0.426-0.106l-0.337,0.28
			c-0.03,0.024-2.96,2.46-3.919,3.349c-0.958,0.887-4.785,5.428-5.08,5.885c-0.091,0.141-0.222,0.337-0.364,0.549
			c-0.313,0.468-0.702,1.05-0.769,1.205c-0.092,0.215-0.335,0.367-0.591,0.527c-0.061,0.038-0.123,0.077-0.183,0.117
			c-0.236,0.157-0.862,0.928-1.083,1.212c0.003,0.001-0.233,0.532-0.609,0.94c-0.229,0.248-0.623,0.573-0.94,0.834
			c-0.205,0.169-0.383,0.315-0.472,0.404c-1.294,1.288-1.466,1.552-1.488,1.603c-0.107,0.25-0.517,1.024-0.788,1.328
			c-0.469,0.525-2.346,2.683-2.463,2.972c-0.135,0.335-0.429,0.738-0.827,1.135c-0.355,0.353-0.751,1.178-0.751,1.471
			c0,0.313,0,0.897,0.05,1.418c0.01,0.1,0.022,0.207,0.034,0.316c0.057,0.492,0.115,1-0.018,1.289
			c-0.085,0.185-0.304,0.348-0.503,0.465c0.105,0.018,0.202,0.054,0.254,0.12c0.045,0.058,0.055,0.133,0.027,0.21
			C7.373,34.708,7.277,35,7.217,35.185C7.312,35.165,7.414,35.15,7.506,35.15z"/>
	</g>
	<g>
		<polygon fill="#FFFFFF" points="3.796,28.055 18.98,12.102 7.152,12.102 10.437,8.48 26.897,8.48 11.565,24.728 27.004,24.728 
			23.886,28.055 		"/>
	</g>
	<g>
		
			<rect x="19.092" y="16.513" transform="matrix(-1.836970e-16 1 -1 -1.836970e-16 47.3101 -10.6118)" fill="#FFFFFF" width="19.738" height="3.672"/>
	</g>
	<g>
		<path fill="#FFFFFF" d="M46.042,28.218l-0.007-0.293c-0.099-4.322-1.352-6.803-1.857-7.632h-8.83v7.926h-3.244V8.459l0.322,0.021
			c3.249,0.216,6.118,1.129,8.527,2.715c2.045,1.347,3.768,3.18,5.119,5.45c2.309,3.879,3.132,8.366,3.132,11.273v0.3H46.042z
			 M42.159,17.04c-2.655-3.657-6.048-5.029-7.163-5.4v5.4H42.159z"/>
	</g>
	<g>
		<polygon points="26.199,8.78 10.571,8.78 7.831,11.802 19.682,11.802 4.498,27.755 23.755,27.755 26.311,25.029 10.867,25.029 		
			"/>
	</g>
	<g>
		<rect x="27.427" y="8.78" width="3.069" height="19.138"/>
	</g>
	<g>
		<path d="M48.902,27.918c0-5.048-2.741-18.225-16.496-19.138v19.138h2.64v-7.926h9.299c0.431,0.663,1.885,3.237,1.992,7.926H48.902
			z M34.694,17.341v-6.104c0,0,4.697,1.132,8.042,6.104H34.694z"/>
	</g>
</g>
<rect y="0" fill="none" width="125" height="40"/>
</svg>
