<?xml version="1.0" encoding="utf-8"?>
<!-- Generator: Adobe Illustrator 19.2.1, SVG Export Plug-In . SVG Version: 6.00 Build 0)  -->
<svg version="1.1" id="logos" xmlns="http://www.w3.org/2000/svg" xmlns:xlink="http://www.w3.org/1999/xlink" x="0px" y="0px"
	 viewBox="0 0 125 40" enable-background="new 0 0 125 40" xml:space="preserve">
<path d="M93.101,6.558c-7.411,0-13.419,6.008-13.419,13.419s6.008,13.419,13.419,13.419s13.419-6.008,13.419-13.419
	S100.512,6.558,93.101,6.558z M93.101,26.239c-3.355,0-5.815-2.684-5.815-6.262s2.462-6.262,5.815-6.262
	c3.355,0,5.815,2.684,5.815,6.262C98.916,23.555,96.456,26.239,93.101,26.239z M53.739,19.977c0-7.411-5.808-13.419-12.971-13.419
	s-12.971,6.008-12.971,13.419s5.814,13.419,13.195,13.419c5.896,0,10.519-3.563,12.057-8.499h-7.808
	c-1.083,1.603-2.676,2.013-4.249,2.013c-3.018,0-4.941-2.077-5.544-4.92h18.146C53.689,21.333,53.739,20.661,53.739,19.977z
	 M40.768,12.82c2.588,0,4.594,1.783,5.209,4.473H35.548C36.245,14.497,38.098,12.82,40.768,12.82z M14.825,33.172L0,7.341h8.728
	l6.096,11.741l6.097-11.741h8.728L14.825,33.172z M66.711,33.172L51.886,7.341h8.728l6.097,11.741l6.097-11.741h8.728L66.711,33.172
	z"/>
<rect fill="none" width="125" height="40"/>
</svg>
