<?xml version="1.0" encoding="utf-8"?>
<!-- Generator: Adobe Illustrator 16.0.0, SVG Export Plug-In . SVG Version: 6.00 Build 0)  -->
<!DOCTYPE svg PUBLIC "-//W3C//DTD SVG 1.1//EN" "http://www.w3.org/Graphics/SVG/1.1/DTD/svg11.dtd">
<svg version="1.1" xmlns="http://www.w3.org/2000/svg" xmlns:xlink="http://www.w3.org/1999/xlink" x="0px" y="0px" width="125px"
	 height="40px" viewBox="0 0 125 40" enable-background="new 0 0 125 40" xml:space="preserve">
<g id="Layer_1">
</g>
<g id="Layer_2">
	<g>
		<path fill="#A8E00F" d="M119.979,24.554c0.069-0.001,0.495-0.011,0.652-0.011h0.002c0.248,0.008,0.618,0.195,0.629,0.564v1.43
			c-0.026,0.094,0.004,0.444-0.604,0.496c-0.421,0-0.788-0.004-0.796-0.004c-5.931,0.004-5.718-5.739-5.718-5.739V11.043
			c0-0.313,0.252-0.578,0.565-0.578h1.34c0.313,0,0.585,0.265,0.585,0.577v2.155h4.549c0.334,0,0.54,0.389,0.54,0.562v1.439
			c-0.012,0.252-0.287,0.516-0.541,0.516c-0.143,0-3.752,0.004-4.548,0.004V21.2C116.635,21.2,116.454,24.565,119.979,24.554"/>
		<path fill="#A8E00F" d="M106.518,26.447c0,0.312-0.271,0.578-0.585,0.578h-1.34c-0.312,0-0.564-0.266-0.564-0.579v-7.494
			c0,0-0.213-5.743,5.717-5.74c0.009,0,2.127-0.003,2.549-0.003c0.606,0.051,0.576,0.401,0.602,0.495v1.431
			c-0.01,0.368-0.38,0.554-0.627,0.564h-0.003c-0.158,0-2.334-0.013-2.404-0.014c-3.523-0.01-3.344,3.356-3.344,3.356V26.447z"/>
		<path fill="#A8E00F" d="M75.17,24.744c0.07,0,0.495-0.011,0.652-0.011h0.004c0.247,0.009,0.618,0.195,0.628,0.563v1.431
			c-0.026,0.093,0.003,0.444-0.604,0.494c-0.419,0-0.789-0.003-0.797-0.003c-5.93,0.003-5.719-5.739-5.719-5.739V11.233
			c0-0.315,0.255-0.579,0.568-0.579h1.339c0.313,0,0.586,0.264,0.586,0.578v2.153h4.549c0.333,0,0.539,0.39,0.539,0.562v1.439
			c-0.012,0.254-0.288,0.518-0.541,0.518c-0.143,0-3.751,0.004-4.547,0.004v5.48C71.827,21.39,71.646,24.754,75.17,24.744"/>
		<path fill="#A8E00F" d="M47.736,15.728l4.388-0.011c0.794,0.099,1.075,0.505,1.075,1.448v0.96
			c-0.056,0.712-0.123,1.443-1.441,1.443h-5.283V17.19C46.494,15.808,47.183,15.765,47.736,15.728 M54.182,24.517
			c-0.023-0.002-6.203,0.008-6.203,0.008c-1.399,0-1.514-0.584-1.514-2.385v-0.073c0.814,0,3.283-0.004,5.322-0.004
			c2.448-0.008,3.836-1.464,3.903-4.101l-0.003-0.798c0-2.481-1.494-3.963-4.006-3.963H49.08l-1.131,0.004
			c-2.57,0.02-3.869,1.371-3.967,4.132l-0.012,4.801c0,2.421,0.475,4.897,4.008,4.897h6.197c0.438,0,0.684-0.232,0.684-0.637v-1.315
			C54.859,24.877,54.772,24.529,54.182,24.517"/>
		<path fill="#A8E00F" d="M98.899,24.518l-1.752,0.026h-2.203c-1.137,0-1.517-0.37-1.517-1.474v-5.882
			c0.021-1.386,0.708-1.428,1.264-1.466l3.957-0.009c1.397,0,1.517,0.58,1.517,2.38l-0.002,4.959
			C100.143,24.436,99.454,24.479,98.899,24.518 M102.654,18.098c0-2.423-0.476-4.896-4.008-4.896h-3.742
			c-2.57,0.02-3.87,1.371-3.969,4.133v5.737c0,2.482,1.498,3.964,4.009,3.964h2.205v0.004h1.537c2.57-0.02,3.87-1.371,3.968-4.133
			V18.098z"/>
		<path fill="#A8E00F" d="M39.072,24.49l-1.751,0.008v0.003h-2.271c-1.142,0-1.525-0.373-1.525-1.487l-0.006-7.418h5.27
			c1.408,0,1.518,0.586,1.518,2.401l0.01,5.029C40.297,24.409,39.628,24.453,39.072,24.49 M42.828,18.001
			c0-2.444-0.479-4.94-4.039-4.94h-5.271v-2.176c0-0.315-0.269-0.583-0.584-0.583h-1.351c-0.316,0-0.584,0.268-0.584,0.583v12.13
			c0,2.506,1.523,3.997,4.051,3.997h2.621h1.189c2.569-0.02,3.867-1.371,3.967-4.133v-1.806V21.07V18.001z"/>
		<path fill="#A8E00F" d="M64.242,24.519l-4.317,0.009c-0.862-0.076-1.168-0.479-1.168-1.457v-0.96
			c0.059-0.711,0.124-1.442,1.442-1.442h5.287l0.02,2.387C65.484,24.438,64.797,24.481,64.242,24.519 M67.987,20.277v-2.181
			c0-2.421-0.476-4.896-4.008-4.896h-6.197c-0.438,0-0.686,0.23-0.686,0.636v1.314c0,0.208,0.09,0.556,0.682,0.567
			c0.022,0.003,6.201-0.008,6.201-0.008c1.397,0,1.515,0.584,1.515,2.383l-0.002,0.075c-0.814,0-3.283,0.003-5.322,0.003
			c-2.447,0.01-3.836,1.464-3.904,4.102l0.004,0.798c0,2.481,1.495,3.963,4.006,3.963h2.209l0.008,0.007h1.538
			c2.569-0.021,3.868-1.371,3.968-4.133v-2.631H67.987z"/>
		<path fill="#A8E00F" d="M86.731,24.216c-0.228,0.227-0.613,0.338-1.184,0.338h-5.224l0.004-7.35c0-1.104,0.396-1.497,1.514-1.497
			h4.139c0.342,0.045,0.591,0.148,0.758,0.312c0.332,0.342,0.33,0.951,0.32,1.659c0,0.038-0.007,4.771-0.007,4.88
			C87.062,23.267,87.063,23.876,86.731,24.216 M89.563,18.056c0-2.517-0.486-4.847-4.009-4.847h-3.713
			c-2.508,0-4.006,1.494-4.006,3.995l-0.01,11.914c0,0.359,0.176,0.58,0.461,0.58h1.455c0.309,0,0.579-0.271,0.579-0.577
			l0.001-2.095h5.226c3.523,0,4.008-2.33,4.008-4.846V21.1L89.563,18.056z"/>
		<path fill="#A8E00F" d="M22.947,20.11c0-5.321-4.329-9.65-9.65-9.65c-5.322,0-9.65,4.329-9.65,9.65
			c0,2.464,0.928,4.809,2.615,6.604h0.001c0.227,0.24,0.604,0.251,0.845,0.024l1.041-0.979c0.24-0.225,0.25-0.601,0.027-0.841
			v-0.002c-1.227-1.308-1.903-3.014-1.903-4.807c0-3.872,3.151-7.023,7.024-7.023s7.024,3.151,7.024,7.023
			c0,1.793-0.676,3.499-1.904,4.807l0.002,0.003c-0.223,0.24-0.21,0.616,0.029,0.84l1.042,0.979
			c0.239,0.227,0.617,0.216,0.843-0.025l0,0C22.019,24.917,22.947,22.572,22.947,20.11"/>
		<path fill="#A8E00F" d="M26.594,20.064c0-1.314-0.198-2.61-0.587-3.855h0.001c-0.001-0.001-0.003-0.002-0.003-0.003
			s0-0.002,0-0.004c-0.102-0.311-0.434-0.485-0.746-0.387l-1.364,0.424c-0.315,0.097-0.491,0.431-0.395,0.747l-0.001,0.001
			c0.31,0.991,0.468,2.027,0.468,3.077c0,1.855-0.502,3.675-1.453,5.264l0.002,0.002c-0.167,0.281-0.073,0.646,0.209,0.816
			l1.225,0.734c0.282,0.17,0.648,0.078,0.819-0.205C25.963,24.682,26.594,22.396,26.594,20.064"/>
		<path fill="#A8E00F" d="M4.079,25.329c-0.95-1.59-1.453-3.409-1.453-5.265c0-1.05,0.158-2.085,0.469-3.076h0.001l0,0v-0.001
			c0.097-0.317-0.079-0.649-0.394-0.748l-1.364-0.425c-0.313-0.098-0.645,0.076-0.747,0.389l-0.002-0.001
			C0.198,17.449,0,18.747,0,20.064c0,2.33,0.632,4.617,1.825,6.612l0.001-0.001c0.171,0.28,0.535,0.371,0.818,0.202l1.226-0.734
			C4.152,25.974,4.242,25.611,4.079,25.329L4.079,25.329z"/>
		<path fill="#A8E00F" d="M123.217,24.313c-0.728,0-1.311,0.58-1.311,1.301c0,0.729,0.583,1.311,1.311,1.311
			c0.722,0,1.31-0.581,1.31-1.311C124.526,24.894,123.938,24.313,123.217,24.313 M123.217,26.574c-0.569,0-0.925-0.374-0.925-0.96
			c0-0.582,0.355-0.958,0.925-0.958c0.56,0,0.922,0.376,0.922,0.958C124.139,26.2,123.776,26.574,123.217,26.574"/>
		<path fill="#A8E00F" d="M123.314,25.035h-0.604v1.223h0.263v-0.495h0.206l0.281,0.495h0.302l-0.302-0.495
			c0.218-0.019,0.338-0.112,0.338-0.345C123.799,25.125,123.643,25.035,123.314,25.035 M123.319,25.57h-0.346v-0.341h0.281
			c0.122,0,0.302-0.012,0.302,0.157C123.557,25.542,123.461,25.576,123.319,25.57"/>
	</g>
</g>
<g id="template" display="none">
</g>
</svg>
