<?xml version="1.0" encoding="utf-8"?>
<!-- Generator: Adobe Illustrator 19.2.0, SVG Export Plug-In . SVG Version: 6.00 Build 0)  -->
<svg version="1.1" xmlns="http://www.w3.org/2000/svg" xmlns:xlink="http://www.w3.org/1999/xlink" x="0px" y="0px"
	 viewBox="0 0 125 40" enable-background="new 0 0 125 40" xml:space="preserve">
<g id="bg" display="none">
	<rect display="inline" fill="#FFFFFF" width="125" height="40"/>
</g>
<g id="icons">
	<g>
		<g>
			<path fill-rule="evenodd" clip-rule="evenodd" fill="#97B519" d="M69.385,24.12c0.065-0.021,0.066-0.073,0.079-0.117
				c0.582-1.958,1.164-3.917,1.746-5.875c0.315-1.061,0.637-2.122,0.945-3.185c0.051-0.171,0.136-0.244,0.315-0.234
				c0.213,0.012,0.426,0.004,0.639,0.003c0.118-0.002,0.185,0.051,0.219,0.166c0.375,1.26,0.75,2.52,1.129,3.779
				c0.256,0.857,0.516,1.712,0.774,2.569c0.267,0.89,0.531,1.782,0.799,2.672c0.025,0.077,0.029,0.163,0.098,0.224
				c0.071-0.037,0.068-0.11,0.087-0.167c0.451-1.466,0.903-2.932,1.35-4.399c0.341-1.115,0.677-2.233,1.018-3.349
				c0.134-0.447,0.276-0.893,0.411-1.342c0.033-0.11,0.101-0.152,0.207-0.151c0.178,0,0.355-0.004,0.533,0
				c0.174,0.004,0.193,0.035,0.139,0.208c-0.241,0.749-0.484,1.498-0.726,2.248c-0.477,1.489-0.95,2.979-1.429,4.467
				c-0.356,1.111-0.718,2.221-1.069,3.332c-0.042,0.132-0.1,0.179-0.236,0.17c-0.183-0.014-0.368-0.018-0.549,0
				c-0.199,0.019-0.284-0.063-0.337-0.245c-0.212-0.734-0.436-1.465-0.657-2.197c-0.535-1.769-1.071-3.537-1.606-5.305
				c-0.129-0.425-0.256-0.851-0.383-1.276c-0.029-0.095-0.062-0.19-0.097-0.297c-0.079,0.043-0.083,0.112-0.1,0.169
				c-0.624,2.051-1.246,4.102-1.868,6.154c-0.286,0.94-0.578,1.879-0.861,2.821c-0.041,0.134-0.107,0.179-0.24,0.173
				c-0.207-0.008-0.415-0.009-0.622,0.001c-0.141,0.006-0.214-0.044-0.256-0.182c-0.325-1.04-0.657-2.078-0.986-3.116
				c-0.354-1.112-0.704-2.225-1.055-3.337c-0.376-1.186-0.752-2.371-1.126-3.557c-0.064-0.201-0.043-0.23,0.165-0.233
				c0.142-0.002,0.284,0.008,0.427-0.003c0.155-0.011,0.232,0.05,0.277,0.202c0.267,0.89,0.541,1.779,0.815,2.668
				c0.316,1.031,0.636,2.06,0.951,3.09c0.328,1.064,0.653,2.128,0.981,3.192C69.31,23.95,69.327,24.043,69.385,24.12z"/>
			<path fill-rule="evenodd" clip-rule="evenodd" fill="#97B519" d="M124.184,16.906c0-0.207,0-0.414,0-0.621
				c0-1.759,0-3.519,0-5.278c0-0.304,0.009-0.313,0.305-0.312c0.118,0,0.237,0.002,0.356,0.002c0.103,0,0.153,0.05,0.153,0.152
				c0,0.054,0.001,0.107,0.001,0.161c0,4.609,0,9.218,0,13.827c0,0.048-0.003,0.096,0,0.143c0.005,0.126-0.05,0.186-0.178,0.184
				c-0.138-0.003-0.274-0.007-0.409,0.002c-0.173,0.011-0.231-0.067-0.23-0.231c0.005-0.563,0.002-1.125,0.002-1.689
				c0-0.062,0-0.124-0.018-0.188c-0.191,0.27-0.354,0.549-0.556,0.803c-0.695,0.865-1.594,1.358-2.693,1.489
				c-0.72,0.086-1.432,0.048-2.13-0.151c-1.067-0.304-1.802-1.003-2.324-1.958c-0.518-0.942-0.729-1.955-0.749-3.02
				c-0.021-0.981,0.084-1.942,0.438-2.862c0.424-1.107,1.104-1.995,2.227-2.48c0.417-0.181,0.855-0.282,1.305-0.325
				c1.209-0.114,2.356,0.053,3.348,0.824c0.486,0.378,0.849,0.854,1.074,1.43c0.015,0.037,0.031,0.074,0.045,0.111
				C124.162,16.912,124.174,16.909,124.184,16.906z M120.455,24.667c0.561,0.013,1.182-0.132,1.754-0.466
				c0.712-0.417,1.143-1.074,1.471-1.799c0.424-0.936,0.551-1.924,0.474-2.949c-0.069-0.889-0.292-1.725-0.736-2.5
				c-0.38-0.662-0.902-1.159-1.623-1.448c-0.628-0.252-1.276-0.307-1.937-0.245c-0.627,0.061-1.216,0.258-1.726,0.646
				c-0.72,0.55-1.109,1.315-1.366,2.154c-0.25,0.813-0.3,1.649-0.229,2.496c0.074,0.858,0.309,1.662,0.755,2.4
				c0.284,0.472,0.622,0.896,1.097,1.188C118.99,24.516,119.652,24.672,120.455,24.667z"/>
			<path fill-rule="evenodd" clip-rule="evenodd" fill="#97B519" d="M52.526,23.056c-0.061,0.019-0.075,0.075-0.1,0.119
				c-0.409,0.743-0.961,1.349-1.72,1.744c-0.521,0.271-1.08,0.426-1.667,0.457c-0.673,0.036-1.336-0.004-1.985-0.212
				c-0.99-0.318-1.683-0.973-2.189-1.862c-0.688-1.21-0.849-2.524-0.773-3.882c0.057-1.023,0.306-1.996,0.822-2.895
				c0.669-1.161,1.69-1.779,2.992-1.955c0.849-0.114,1.691-0.072,2.5,0.248c0.986,0.389,1.707,1.047,2.089,2.051
				c0.005,0.016,0.016,0.029,0.055,0.045c0-0.078,0-0.156,0-0.234c0.001-1.896,0.001-3.791,0.001-5.688
				c0-0.297,0.003-0.302,0.295-0.298c0.6,0.007,0.519-0.078,0.519,0.517c0.001,4.544,0.001,9.088,0.001,13.632
				c0,0.318,0,0.318-0.309,0.318c-0.012,0-0.024,0-0.035,0c-0.532-0.002-0.467,0.06-0.47-0.478c-0.003-0.486,0-0.972-0.001-1.457
				C52.55,23.17,52.569,23.108,52.526,23.056z M44.873,19.786c0.002,1.192,0.212,2.198,0.756,3.125
				c0.436,0.743,1.017,1.307,1.851,1.569c0.876,0.274,1.752,0.265,2.616-0.049c0.436-0.157,0.819-0.403,1.13-0.748
				c0.56-0.626,0.94-1.356,1.13-2.168c0.369-1.579,0.228-3.105-0.562-4.546c-0.372-0.679-0.907-1.176-1.632-1.463
				c-0.714-0.283-1.453-0.332-2.201-0.208c-1.104,0.182-1.898,0.79-2.424,1.777C45.059,17.968,44.881,18.921,44.873,19.786z"/>
			<path fill-rule="evenodd" clip-rule="evenodd" fill="#97B519" d="M112.855,23.187c-0.154,0.379-0.393,0.702-0.68,0.987
				c-0.791,0.784-1.758,1.159-2.858,1.206c-0.722,0.031-1.434-0.023-2.111-0.3c-0.468-0.191-0.893-0.445-1.189-0.866
				c-0.206-0.294-0.34-0.627-0.402-0.979c-0.084-0.48-0.098-0.964-0.019-1.449c0.145-0.871,0.654-1.464,1.423-1.854
				c0.726-0.367,1.507-0.525,2.312-0.563c0.834-0.04,1.664-0.103,2.481-0.293c0.37-0.087,0.714-0.217,0.929-0.566
				c0.134-0.218,0.142-0.461,0.163-0.701c0.012-0.135,0-0.273,0.008-0.409c0.048-0.748-0.354-1.252-0.912-1.665
				c-0.473-0.35-1.021-0.477-1.604-0.491c-0.553-0.013-1.104-0.012-1.634,0.167c-0.509,0.172-0.948,0.442-1.273,0.888
				c-0.331,0.455-0.499,0.964-0.573,1.512c-0.018,0.134-0.069,0.186-0.203,0.18c-0.159-0.007-0.32-0.005-0.479,0.001
				c-0.11,0.005-0.153-0.039-0.144-0.146c0.1-0.928,0.342-1.791,1.066-2.448c0.438-0.399,0.964-0.624,1.531-0.746
				c0.894-0.193,1.797-0.203,2.696-0.017c0.565,0.117,1.121,0.295,1.567,0.676c0.555,0.474,0.745,1.126,0.748,1.833
				c0.007,2.062,0.003,4.123,0.001,6.185c0,0.227,0.03,0.448,0.09,0.666c0.08,0.301,0.265,0.446,0.579,0.445
				c0.142-0.001,0.284-0.018,0.425-0.038c0.107-0.015,0.154,0.017,0.154,0.129c-0.001,0.153,0.002,0.307,0.013,0.462
				c0.004,0.064-0.03,0.084-0.081,0.094c-0.423,0.083-0.851,0.115-1.261-0.038c-0.508-0.189-0.662-0.629-0.707-1.117
				c-0.023-0.244-0.004-0.492-0.004-0.738C112.89,23.192,112.873,23.189,112.855,23.187z M112.906,20.337
				c0-0.297,0-0.593-0.002-0.889c0-0.039,0.016-0.091-0.033-0.11c-0.037-0.014-0.063,0.024-0.091,0.045
				c-0.236,0.181-0.51,0.28-0.795,0.335c-0.897,0.168-1.806,0.24-2.714,0.329c-0.496,0.049-0.988,0.111-1.461,0.278
				c-0.453,0.162-0.844,0.421-1.104,0.826c-0.678,1.056-0.494,2.705,1.082,3.311c0.719,0.278,1.467,0.259,2.208,0.13
				c1.408-0.244,2.515-1.287,2.812-2.735C112.914,21.354,112.912,20.847,112.906,20.337z"/>
			<path fill-rule="evenodd" clip-rule="evenodd" fill="#97B519" d="M55.387,19.91c-0.016-0.797,0.099-1.621,0.42-2.394
				c0.754-1.817,2.067-2.94,4.206-2.992c0.561-0.014,1.11,0.052,1.651,0.207c1.066,0.308,1.848,0.978,2.414,1.918
				c0.457,0.759,0.72,1.581,0.809,2.461c0.123,1.247,0.01,2.463-0.531,3.61c-0.718,1.513-1.869,2.442-3.57,2.63
				c-0.813,0.089-1.61,0.023-2.378-0.264c-1.219-0.455-1.997-1.362-2.512-2.521C55.527,21.734,55.377,20.858,55.387,19.91z
				 M60.144,24.666c1.716,0.011,2.792-0.853,3.468-2.283c0.419-0.888,0.553-1.826,0.495-2.801c-0.045-0.804-0.221-1.568-0.594-2.285
				c-0.376-0.723-0.884-1.323-1.625-1.683c-0.758-0.368-1.566-0.453-2.394-0.322c-0.843,0.133-1.569,0.5-2.113,1.167
				c-0.693,0.854-1.088,1.834-1.176,2.938c-0.097,1.195,0.094,2.324,0.712,3.366C57.644,23.987,58.688,24.677,60.144,24.666z"/>
			<path fill-rule="evenodd" clip-rule="evenodd" fill="#97B519" d="M94.633,19.815c-0.013-0.709,0.102-1.527,0.421-2.294
				c0.745-1.806,2.05-2.936,4.185-2.996c0.566-0.016,1.121,0.048,1.667,0.205c1.076,0.31,1.86,0.984,2.427,1.932
				c0.455,0.76,0.715,1.583,0.803,2.462c0.122,1.249,0.007,2.464-0.539,3.609c-0.716,1.504-1.865,2.432-3.559,2.616
				c-0.665,0.073-1.322,0.039-1.973-0.133c-1-0.265-1.781-0.833-2.372-1.672C94.932,22.461,94.625,21.246,94.633,19.815z
				 M99.402,24.668c1.65,0.007,2.757-0.813,3.449-2.264c0.317-0.667,0.471-1.37,0.506-2.109c0.042-0.894-0.061-1.763-0.407-2.59
				c-0.577-1.379-1.538-2.298-3.086-2.439c-1.335-0.122-2.497,0.227-3.345,1.346c-0.38,0.5-0.677,1.041-0.852,1.646
				c-0.222,0.76-0.282,1.532-0.208,2.32c0.105,1.123,0.527,2.107,1.268,2.951C97.435,24.334,98.352,24.663,99.402,24.668z"/>
			<path fill-rule="evenodd" clip-rule="evenodd" fill="#97B519" d="M81.878,16.877c0.146-0.233,0.237-0.482,0.387-0.702
				c0.64-0.95,1.556-1.453,2.668-1.608c0.763-0.108,1.526-0.063,2.266,0.171c0.843,0.266,1.415,0.828,1.763,1.636
				c0.241,0.56,0.344,1.146,0.345,1.748c0.007,2.274,0.003,4.549,0.007,6.823c0,0.142-0.034,0.208-0.19,0.194
				c-0.152-0.014-0.309-0.007-0.462-0.003c-0.123,0.004-0.174-0.054-0.168-0.171c0.001-0.053,0-0.107,0-0.16
				c-0.003-2.268-0.006-4.537-0.009-6.806c-0.001-0.705-0.223-1.34-0.641-1.902c-0.231-0.312-0.555-0.523-0.922-0.637
				c-1.24-0.385-2.438-0.338-3.511,0.473c-0.78,0.59-1.218,1.405-1.417,2.353c-0.089,0.419-0.12,0.842-0.119,1.271
				c0.004,1.742,0.003,3.483,0.003,5.225c0,0.071-0.002,0.142-0.004,0.213c-0.006,0.091-0.049,0.142-0.147,0.141
				c-0.171-0.001-0.343-0.001-0.515,0c-0.105,0.001-0.152-0.051-0.15-0.152c0-0.047-0.002-0.094-0.002-0.142
				c0-3.258,0-6.516,0-9.773c0-0.053,0.003-0.107,0.002-0.16c0-0.109,0.051-0.163,0.163-0.162c0.142,0.002,0.284,0.008,0.427-0.002
				c0.168-0.013,0.229,0.051,0.228,0.222c-0.008,0.575-0.002,1.149-0.002,1.724C81.878,16.751,81.878,16.814,81.878,16.877z"/>
			<path fill-rule="evenodd" clip-rule="evenodd" fill="#97B519" d="M92.617,17.931c0,2.339-0.002,4.678,0.004,7.017
				c0,0.154-0.049,0.198-0.192,0.19c-0.159-0.009-0.319-0.005-0.479-0.002c-0.105,0.001-0.151-0.049-0.151-0.151
				c0-0.047,0-0.095,0-0.143c0-4.607,0-9.214,0-13.821c0-0.054,0-0.106,0-0.16c-0.002-0.109,0.048-0.166,0.159-0.165
				c0.166,0,0.332,0,0.498,0c0.109,0,0.163,0.055,0.159,0.165c0,0.059,0.002,0.119,0.002,0.178
				C92.617,13.335,92.617,15.633,92.617,17.931z"/>
		</g>
		<g>
			<path fill-rule="evenodd" clip-rule="evenodd" fill="#97B519" d="M36.607,25.388c-1.229,0.017-2.408-0.285-3.492-0.924
				c-1.177-0.692-1.876-1.736-2.172-3.054c-0.221-0.985-0.261-1.976,0.021-2.957c0.259-0.9,0.699-1.705,1.376-2.358
				c0.749-0.722,1.66-1.158,2.672-1.371c1.3-0.275,2.593-0.245,3.864,0.177c1.073,0.356,1.941,1.008,2.62,1.899
				c0.553,0.724,0.851,1.562,0.947,2.467c0.105,0.967,0.003,1.909-0.37,2.812c-0.449,1.084-1.219,1.89-2.209,2.493
				C38.873,25.173,37.785,25.4,36.607,25.388z M39.368,19.803c0.008-0.197-0.037-0.544-0.115-0.885
				c-0.133-0.59-0.417-1.095-0.882-1.491c-0.546-0.465-1.178-0.647-1.892-0.625c-1.063,0.031-2.08,0.788-2.398,1.806
				c-0.209,0.67-0.25,1.35-0.157,2.039c0.096,0.705,0.355,1.331,0.899,1.823c0.561,0.507,1.218,0.692,1.961,0.673
				c0.952-0.025,1.907-0.668,2.276-1.547C39.281,21.07,39.36,20.522,39.368,19.803z"/>
			<path fill-rule="evenodd" clip-rule="evenodd" fill="#97B519" d="M14.392,23.716c-0.141,0.153-0.272,0.317-0.426,0.457
				c-0.848,0.775-1.857,1.155-2.998,1.21c-0.651,0.032-1.287-0.044-1.906-0.271c-1.174-0.433-1.837-1.268-2.022-2.494
				c-0.09-0.589-0.102-1.182-0.102-1.777c0.001-1.912,0-3.824,0-5.736c0-0.289,0.003-0.291,0.294-0.291c0.822,0,1.644,0,2.466,0
				c0.285,0,0.285,0,0.285,0.293c0,1.778-0.002,3.556,0.004,5.334c0.002,0.506,0.014,1.015,0.102,1.515
				c0.123,0.699,0.639,1.188,1.347,1.273c0.669,0.081,1.299-0.029,1.866-0.426c0.504-0.354,0.777-0.83,0.84-1.443
				c0.088-0.871,0.101-1.744,0.1-2.618c-0.002-1.23,0-2.461,0-3.691c0-0.229,0.01-0.238,0.234-0.239c0.846,0,1.69,0,2.535,0
				c0.233,0,0.251,0.017,0.251,0.246c0.001,3.282,0.001,6.564,0,9.847c0,0.227-0.008,0.235-0.237,0.235
				c-0.798,0.001-1.598-0.003-2.396,0.003c-0.146,0.001-0.178-0.057-0.176-0.186c0.005-0.401,0.002-0.802,0.002-1.203
				C14.433,23.742,14.413,23.729,14.392,23.716z"/>
			<path fill-rule="evenodd" clip-rule="evenodd" fill="#97B519" d="M22.095,16.216c0.221-0.199,0.415-0.421,0.644-0.609
				c0.797-0.654,1.708-1.007,2.74-1.046c0.731-0.028,1.444,0.044,2.127,0.323c0.368,0.151,0.724,0.329,1.014,0.606
				c0.533,0.509,0.797,1.149,0.888,1.871c0.062,0.499,0.071,0.999,0.071,1.5c-0.002,2.006-0.001,4.011-0.001,6.016
				c0,0.263-0.001,0.264-0.263,0.264c-0.833,0-1.666,0-2.5-0.001c-0.258,0-0.258,0-0.258-0.266c0-1.422-0.005-2.845,0.002-4.267
				c0.003-0.601-0.011-1.201-0.041-1.8c-0.025-0.443-0.031-0.895-0.264-1.305c-0.268-0.472-0.685-0.716-1.195-0.787
				c-0.584-0.079-1.146,0.016-1.665,0.327c-0.599,0.359-0.929,0.881-1.021,1.565c-0.074,0.555-0.107,1.113-0.107,1.672
				c0,1.533,0,3.066,0,4.6c0,0.261,0,0.26-0.264,0.26c-0.858,0-1.715-0.002-2.571,0.004c-0.147,0.001-0.188-0.045-0.188-0.188
				c0.003-3.312,0.003-6.623-0.001-9.933c0-0.165,0.06-0.212,0.215-0.211c0.8,0.004,1.598,0.004,2.396,0
				c0.159-0.001,0.214,0.049,0.206,0.214c-0.014,0.332-0.006,0.665-0.003,0.997C22.056,16.083,22.034,16.151,22.095,16.216z"/>
			<path fill-rule="evenodd" clip-rule="evenodd" fill="#97B519" d="M1.971,20.325c0-1.743,0-3.486,0-5.23
				c0.002-0.279,0.006-0.283,0.285-0.282c0.84,0.001,1.679,0,2.519,0.001c0.227,0.001,0.242,0.016,0.242,0.236
				c0,3.434,0.006,6.868-0.008,10.302c-0.003,0.733-0.041,1.471-0.265,2.18c-0.233,0.741-0.756,1.214-1.463,1.497
				c-0.498,0.2-1.02,0.279-1.557,0.275c-0.514-0.004-1.025-0.005-1.538,0.002C0.041,29.308-0.002,29.263,0,29.117
				c0.007-0.746,0.007-1.492,0.002-2.238C0,26.724,0.04,26.663,0.202,26.698c0.2,0.043,0.403,0.042,0.609,0.046
				c0.592,0.013,1.151-0.271,1.151-1.101c0-0.251,0.008-0.501,0.008-0.752C1.973,23.369,1.971,21.847,1.971,20.325z"/>
			<path fill-rule="evenodd" clip-rule="evenodd" fill="#97B519" d="M3.473,13.456c-0.443,0-0.887-0.005-1.329,0.003
				c-0.132,0.002-0.175-0.041-0.173-0.168c0.002-0.729,0.004-1.458,0-2.186c-0.002-0.163,0.064-0.212,0.218-0.211
				c0.862,0.005,1.726,0.002,2.589,0.004c0.224,0.001,0.239,0.016,0.239,0.238c0,0.694,0,1.388,0,2.081
				c0,0.231-0.007,0.239-0.233,0.24C4.348,13.457,3.909,13.456,3.473,13.456z"/>
		</g>
	</g>
</g>
</svg>
