<?xml version="1.0" encoding="utf-8"?>
<!-- Generator: Adobe Illustrator 25.4.0, SVG Export Plug-In . SVG Version: 6.00 Build 0)  -->
<svg version="1.1" id="logos" xmlns="http://www.w3.org/2000/svg" xmlns:xlink="http://www.w3.org/1999/xlink" x="0px" y="0px"
	 viewBox="0 0 125 40" enable-background="new 0 0 125 40" xml:space="preserve">
<g>
	<g>
		<path fill="#1261A2" d="M24.333,4.94H4.221C1.89,4.94,0,6.83,0,9.161v20.112c0,2.331,1.89,4.221,4.221,4.221h20.112
			c2.331,0,4.221-1.89,4.221-4.221V9.161C28.554,6.83,26.664,4.94,24.333,4.94z"/>
		<g>
			<ellipse fill="#FDB834" cx="13.983" cy="19.18" rx="2.899" ry="2.948"/>
			<path fill="#FFFFFF" d="M23.067,7.986L23.067,7.986c-1.015,0-1.878,1.254-2.198,2.415C18.98,8.868,16.588,7.95,13.983,7.95
				c-6.101,0-11.047,5.028-11.047,11.231s4.946,11.231,11.047,11.231c2.604,0,4.996-0.918,6.885-2.451
				c0.319,1.172,1.183,2.451,2.199,2.451h0c1.287,0,2.331-2.31,2.331-3.597V11.693C25.397,10.406,24.354,7.986,23.067,7.986z
				 M14.084,25.439c-3.4,0-6.156-2.802-6.156-6.259s2.756-6.259,6.156-6.259c3.4,0,6.156,2.802,6.156,6.259
				S17.484,25.439,14.084,25.439z"/>
			<path fill="#1261A2" d="M122.669,7.986L122.669,7.986c-1.015,0-1.878,1.254-2.198,2.415c-1.889-1.533-4.281-2.452-6.886-2.452
				c-6.101,0-11.047,5.028-11.047,11.231s4.946,11.231,11.047,11.231c2.604,0,4.996-0.918,6.885-2.451
				c0.319,1.172,1.183,2.451,2.199,2.451h0c1.287,0,2.331-2.31,2.331-3.597V11.693C125,10.406,123.957,7.986,122.669,7.986z
				 M113.686,25.439c-3.4,0-6.156-2.802-6.156-6.259s2.756-6.259,6.156-6.259c3.4,0,6.156,2.802,6.156,6.259
				S117.086,25.439,113.686,25.439z"/>
			<path fill="#1261A2" d="M80.402,30.374L80.402,30.374c1.015,0,1.878-1.254,2.198-2.415c1.889,1.533,4.281,2.452,6.886,2.452
				c6.101,0,11.047-5.028,11.047-11.231S95.586,7.95,89.485,7.95c-2.604,0-4.996,0.918-6.885,2.451c0-0.542-0.017-2.397-0.017-4.292
				c0-2.127-1.649-4.032-2.181-4.032h0c-1.287,0-2.331,2.31-2.331,3.597v20.993C78.071,27.955,79.114,30.374,80.402,30.374z
				 M89.385,12.922c3.4,0,6.156,2.802,6.156,6.259s-2.756,6.259-6.156,6.259c-3.4,0-6.156-2.802-6.156-6.259
				S85.985,12.922,89.385,12.922z"/>
			<path fill="#1261A2" d="M49.033,7.974c-1.351,0-2.447,1.095-2.447,2.447v6.778c0,3.067-2.487,5.554-5.554,5.554
				s-5.554-2.487-5.554-5.554v-6.778c0-1.351-1.095-2.447-2.447-2.447c-1.351,0-2.447,1.095-2.447,2.447v6.973
				c0,5.023,3.545,9.217,8.27,10.219v8.083c0,1.23,0.997,2.227,2.227,2.227c1.23,0,2.227-0.997,2.227-2.227V27.59
				c4.675-1.039,8.172-5.208,8.172-10.196v-6.973C51.48,9.07,50.385,7.974,49.033,7.974z"/>
			<path fill="#1261A2" d="M64.815,7.974c-6.203,0-11.231,5.028-11.231,11.231s5.028,11.231,11.231,11.231
				c6.203,0,11.231-5.028,11.231-11.231S71.017,7.974,64.815,7.974z M64.815,25.517c-3.486,0-6.313-2.826-6.313-6.313
				s2.826-6.313,6.313-6.313c3.486,0,6.313,2.826,6.313,6.313S68.301,25.517,64.815,25.517z"/>
		</g>
	</g>
	<rect x="0" y="0" fill="none" width="125" height="40"/>
</g>
</svg>
