<?xml version="1.0" encoding="utf-8"?>
<!-- Generator: Adobe Illustrator 20.1.0, SVG Export Plug-In . SVG Version: 6.00 Build 0)  -->
<svg version="1.1" xmlns="http://www.w3.org/2000/svg" xmlns:xlink="http://www.w3.org/1999/xlink" x="0px" y="0px"
	 viewBox="0 0 125 40" enable-background="new 0 0 125 40" xml:space="preserve">
<g id="bg" display="none">
	<rect display="inline" fill="#FFFFFF" width="125" height="40"/>
</g>
<g id="icons">
	<g>
		
			<radialGradient id="SVGID_1_" cx="117.8811" cy="1462.0459" r="5.1086" gradientTransform="matrix(1 0 0 -1 0 1482)" gradientUnits="userSpaceOnUse">
			<stop  offset="0" style="stop-color:#000000"/>
			<stop  offset="0.184" style="stop-color:#555555"/>
			<stop  offset="0.3942" style="stop-color:#B0B0B0"/>
			<stop  offset="0.5421" style="stop-color:#E9E9E9"/>
			<stop  offset="0.6129" style="stop-color:#FFFFFF"/>
		</radialGradient>
		<path fill="url(#SVGID_1_)" d="M119.088,21.24c-0.184,0.183-1.047,2.346-1.208,3.759c-0.41-2.14-0.98-3.417-1.344-3.827
			c-0.545-0.614-3.826-1.207-3.826-1.207s3.605-0.907,3.893-1.229c0.618-0.684,1.254-3.827,1.254-3.827
			c0.249,1.639,1.117,3.69,1.231,3.805c0.114,0.112,2.437,0.977,3.964,1.229C120.683,20.353,119.27,21.059,119.088,21.24z"/>
		<g>
			<path d="M16.447,12.333c-0.244,0-0.791,0.194-0.791,0.802c0,0.607,0.681,0.839,0.681,1.021c0,0.182,0,11.206,0,11.503
				c0,0.295-0.681,0.562-0.681,1.211c0,0.648,0.488,0.779,0.78,0.779c0.291,0,2.528,0,2.712,0c0.184,0,0.262-0.13,0.262-0.262
				c0-0.133,0-14.507,0-14.749c0-0.244-0.132-0.304-0.247-0.304C19.047,12.333,16.447,12.333,16.447,12.333z"/>
			<path fill="#434A4A" d="M19.148,27.794h-2.712c-0.447,0-0.926-0.241-0.926-0.924c0-0.448,0.277-0.734,0.479-0.94
				c0.094-0.098,0.202-0.209,0.202-0.271V14.156c-0.008-0.004-0.085-0.068-0.142-0.114c-0.214-0.177-0.538-0.445-0.538-0.907
				c0-0.709,0.643-0.948,0.937-0.948h2.715c0.19,0,0.393,0.118,0.393,0.45v14.749C19.556,27.627,19.388,27.794,19.148,27.794z
				 M16.447,12.479c-0.128,0-0.644,0.116-0.644,0.656c0,0.324,0.239,0.523,0.432,0.682c0.14,0.115,0.249,0.205,0.249,0.339v11.503
				c0,0.179-0.138,0.321-0.284,0.473c-0.185,0.191-0.396,0.409-0.396,0.737c0,0.572,0.442,0.634,0.633,0.634h2.712
				c0.032,0,0.116,0,0.116-0.117V12.637c0-0.158-0.064-0.158-0.101-0.158H16.447z"/>
		</g>
		<g>
			<path d="M57.914,12.333c-0.243,0-0.789,0.194-0.789,0.802c0,0.607,0.68,0.839,0.68,1.021c0,0.182,0,11.206,0,11.503
				c0,0.295-0.68,0.562-0.68,1.211c0,0.648,0.487,0.779,0.779,0.779c0.291,0,2.527,0,2.712,0c0.184,0,0.262-0.13,0.262-0.262
				c0-0.133,0-14.507,0-14.749c0-0.244-0.133-0.304-0.247-0.304C60.515,12.333,57.914,12.333,57.914,12.333z"/>
			<path fill="#434A4A" d="M60.616,27.794h-2.712c-0.447,0-0.926-0.241-0.926-0.924c0-0.448,0.277-0.734,0.479-0.94
				c0.095-0.098,0.202-0.209,0.202-0.271V14.156c-0.009-0.004-0.086-0.068-0.142-0.114c-0.214-0.177-0.538-0.445-0.538-0.907
				c0-0.709,0.643-0.948,0.936-0.948h2.717c0.188,0,0.392,0.118,0.392,0.45v14.749C61.023,27.627,60.856,27.794,60.616,27.794z
				 M57.914,12.479c-0.127,0-0.644,0.116-0.644,0.656c0,0.324,0.24,0.523,0.433,0.682c0.139,0.115,0.248,0.205,0.248,0.339v11.503
				c0,0.179-0.137,0.321-0.284,0.473c-0.186,0.191-0.396,0.409-0.396,0.737c0,0.572,0.443,0.634,0.634,0.634h2.712
				c0.032,0,0.115,0,0.115-0.117V12.637c0-0.158-0.063-0.158-0.1-0.158H57.914z"/>
		</g>
		<g>
			<path d="M47.044,25.729c0-3.814,0-12.899,0-13.091c0-0.244-0.131-0.304-0.247-0.304c-0.115,0-2.716,0-2.716,0
				c-0.243,0-0.79,0.194-0.79,0.802c0,0.607,0.681,0.839,0.681,1.021c0,0.182,0,11.41,0,11.706c0,0.296-0.681,0.209-0.681,1.007
				c0,0.648,0.488,0.779,0.78,0.779c0.291,0,2.648,0,2.832,0c0.477,0,0.952-0.239,0.952-0.79
				C47.856,26.055,47.044,26.041,47.044,25.729z"/>
			<path fill="#434A4A" d="M46.904,27.794h-2.832c-0.448,0-0.926-0.241-0.926-0.924c0-0.581,0.322-0.768,0.534-0.892
				c0.072-0.044,0.147-0.086,0.147-0.116V14.156c-0.01-0.004-0.086-0.068-0.142-0.114c-0.214-0.177-0.539-0.445-0.539-0.907
				c0-0.709,0.643-0.948,0.936-0.948h2.716c0.191,0,0.393,0.118,0.393,0.45v13.091c0,0.039,0.111,0.11,0.199,0.167
				c0.243,0.153,0.612,0.389,0.612,0.963C48.001,27.505,47.45,27.794,46.904,27.794z M44.081,12.479
				c-0.127,0-0.643,0.116-0.643,0.656c0,0.324,0.239,0.523,0.432,0.682c0.139,0.115,0.248,0.205,0.248,0.339v11.706
				c0,0.197-0.155,0.286-0.291,0.367c-0.191,0.112-0.389,0.227-0.389,0.641c0,0.572,0.442,0.634,0.633,0.634h2.832
				c0.372,0,0.806-0.17,0.806-0.645c0-0.414-0.242-0.569-0.477-0.717c-0.164-0.105-0.335-0.212-0.335-0.413V12.638
				c0-0.158-0.063-0.158-0.101-0.158L44.081,12.479L44.081,12.479z"/>
		</g>
		<g>
			<path d="M19.849,12.333c-0.194,0-0.292,0.097-0.292,0.291c0,0.195,0,0.766,0,1.118c0,0.352,0.693-0.037,0.693,1.41
				c0,1.483,0,8.663,0,9.696c0,1.034-0.243,1.047-0.45,1.154c-0.206,0.109-0.243,0.328-0.243,0.536c0,0.205,0,0.547,0,0.751
				c0,0.208,0.103,0.387,0.386,0.387c0.283,0,3.503-0.387,3.503-8.113C23.445,13.196,20.408,12.333,19.849,12.333z"/>
			<path fill="#434A4A" d="M19.943,27.822c-0.328,0-0.531-0.203-0.531-0.533v-0.751c0-0.214,0.033-0.513,0.32-0.665l0.063-0.03
				c0.152-0.073,0.31-0.148,0.31-0.995v-9.696c0-0.875-0.249-0.992-0.432-1.077c-0.11-0.052-0.261-0.124-0.261-0.332v-1.118
				c0-0.274,0.163-0.437,0.437-0.437c0.971,0,3.743,1.355,3.743,7.376C23.592,27.728,19.979,27.822,19.943,27.822z M19.849,12.479
				c-0.114,0-0.146,0.031-0.146,0.145v1.118c0.01,0.029,0.06,0.053,0.093,0.067c0.291,0.136,0.6,0.364,0.6,1.342v9.696
				c0,0.955-0.206,1.13-0.475,1.258l-0.053,0.027c-0.116,0.058-0.166,0.181-0.166,0.405v0.751c0,0.214,0.127,0.242,0.24,0.242
				c0.033,0,3.357-0.091,3.357-7.968C23.299,12.783,19.883,12.479,19.849,12.479z"/>
		</g>
		<g>
			<path d="M24.597,12.333c-0.436,0-0.791,0.303-0.791,0.784c0,0.673,0.681,0.736,0.681,1.162c0,0.427,0,11.213,0,11.522
				c0,0.307-0.681,0.404-0.681,1.036c0,0.633,0.411,0.811,0.791,0.811c0.38,0,2.389,0,2.825,0c0.438,0,0.778-0.324,0.778-0.811
				c0-0.632-0.6-0.811-0.6-0.955c0-0.145,0-11.486,0-11.73c0-0.243,0.6-0.404,0.6-1.02c0-0.615-0.551-0.798-0.714-0.798
				C27.325,12.333,24.597,12.333,24.597,12.333z"/>
			<path fill="#434A4A" d="M27.422,27.794h-2.825c-0.587,0-0.937-0.357-0.937-0.957c0-0.441,0.282-0.664,0.486-0.825
				c0.1-0.08,0.196-0.154,0.196-0.21V14.279c0-0.118-0.085-0.198-0.233-0.329c-0.2-0.175-0.449-0.393-0.449-0.834
				c0-0.539,0.393-0.93,0.937-0.93h2.89c0.22,0,0.859,0.233,0.859,0.944c0,0.443-0.269,0.689-0.448,0.853
				c-0.056,0.051-0.151,0.139-0.151,0.167v11.703c0.02,0.019,0.061,0.053,0.094,0.079c0.189,0.151,0.505,0.406,0.505,0.902
				C28.346,27.392,27.958,27.794,27.422,27.794z M24.597,12.479c-0.38,0-0.645,0.262-0.645,0.638c0,0.309,0.169,0.458,0.349,0.615
				c0.156,0.137,0.333,0.292,0.333,0.548v11.522c0,0.199-0.155,0.319-0.307,0.439c-0.184,0.144-0.375,0.296-0.375,0.597
				c0,0.55,0.35,0.667,0.645,0.667h2.825c0.372,0,0.632-0.274,0.632-0.667c0-0.357-0.229-0.54-0.396-0.676
				c-0.109-0.086-0.203-0.161-0.203-0.279v-11.73c0-0.158,0.12-0.267,0.246-0.383c0.166-0.151,0.353-0.323,0.353-0.637
				c0-0.531-0.492-0.652-0.567-0.652L24.597,12.479L24.597,12.479z"/>
		</g>
		<g>
			<path d="M32.024,12.333c0-0.125-0.097-0.271-0.243-0.271s-2.965,0.259-2.965,5.362c0,5.08,4.083,4.885,4.083,7.242
				c0,1.458-0.745,1.62-0.875,1.669c-0.13,0.048-0.13,0.144-0.13,0.291c0,0.147,0,0.765,0,1.022c0,0.259,0.114,0.259,0.341,0.259
				c0.226,0,3.07-0.714,3.07-5.501c0-5.419-4.107-4.568-4.107-7.412c0-1.118,0.572-1.277,0.644-1.349
				c0.073-0.073,0.182-0.073,0.182-0.45C32.024,12.82,32.024,12.333,32.024,12.333z"/>
			<path fill="#434A4A" d="M32.234,28.053c-0.218,0-0.486,0-0.486-0.404v-1.022c0-0.153,0-0.345,0.224-0.428
				c0.529-0.178,0.78-0.688,0.78-1.532c0-0.885-0.624-1.384-1.413-2.015c-1.19-0.951-2.669-2.136-2.669-5.227
				c0-5.358,3.079-5.508,3.11-5.508c0.233,0,0.389,0.216,0.389,0.417v0.863c0,0.353-0.094,0.452-0.199,0.531
				c-0.049,0.045-0.077,0.062-0.112,0.081c-0.154,0.092-0.515,0.307-0.515,1.186c0,1.122,0.665,1.619,1.507,2.249
				c1.159,0.868,2.6,1.947,2.6,5.163C35.45,27.542,32.266,28.053,32.234,28.053z M31.781,12.208c-0.028,0-2.819,0.159-2.819,5.216
				c0,2.95,1.419,4.087,2.561,4.998c0.816,0.654,1.522,1.219,1.522,2.244c0,0.982-0.318,1.587-0.947,1.798
				c-0.053,0.019-0.057,0.02-0.057,0.162v1.022c0,0.082,0.013,0.101,0.013,0.102c0.019,0.01,0.112,0.01,0.18,0.01
				c0.035-0.003,2.925-0.563,2.925-5.354c0-3.071-1.319-4.058-2.484-4.929c-0.835-0.626-1.623-1.216-1.623-2.483
				c0-1.045,0.478-1.33,0.658-1.437c0.014-0.008,0.027-0.014,0.034-0.021c0.012-0.013,0.032-0.028,0.051-0.043
				c0.042-0.032,0.083-0.062,0.083-0.298v-0.863C31.878,12.283,31.837,12.208,31.781,12.208z"/>
		</g>
		<g>
			<path d="M32.401,12.063c-0.134,0-0.219,0.174-0.219,0.271c0,0.097,0,0.778,0,1.021c0,0.243,0.097,0.181,0.449,0.45
				c0.352,0.267,0.899,0.985,1.07,1.81c0.17,0.826,0.23,1.469,0.364,1.786c0.133,0.316,0.911,0.559,0.911-0.413
				c0-0.972,0-3.378,0-3.985c0-0.608-0.28-0.815-0.523-0.815c-0.242,0-0.304,0.705-0.486,0.705
				C33.785,12.892,33.081,12.063,32.401,12.063z"/>
			<path fill="#434A4A" d="M34.528,17.825c-0.247,0-0.51-0.163-0.597-0.368c-0.09-0.213-0.147-0.546-0.219-0.967
				c-0.043-0.252-0.091-0.536-0.155-0.847c-0.17-0.824-0.713-1.495-1.015-1.723c-0.11-0.084-0.193-0.134-0.256-0.171
				c-0.161-0.095-0.251-0.16-0.251-0.395v-1.021c0-0.174,0.138-0.417,0.364-0.417c0.499,0,0.988,0.383,1.31,0.638
				c0.083,0.064,0.182,0.141,0.238,0.176c0.028-0.048,0.063-0.14,0.089-0.205c0.087-0.227,0.186-0.484,0.416-0.484
				c0.309,0,0.669,0.252,0.669,0.96v3.985C35.123,17.764,34.667,17.825,34.528,17.825z M32.401,12.208
				c-0.023,0-0.073,0.079-0.073,0.125v1.021c0,0.08,0,0.08,0.109,0.144c0.07,0.042,0.161,0.097,0.284,0.189
				c0.421,0.319,0.958,1.093,1.123,1.897c0.064,0.314,0.114,0.603,0.157,0.857c0.068,0.403,0.123,0.721,0.199,0.902
				c0.039,0.09,0.186,0.19,0.328,0.19c0.263,0,0.303-0.343,0.303-0.546v-3.985c0-0.493-0.195-0.669-0.377-0.669
				c-0.038,0.022-0.109,0.208-0.144,0.296c-0.081,0.211-0.158,0.408-0.342,0.408c-0.112,0-0.227-0.091-0.436-0.255
				C33.239,12.554,32.798,12.208,32.401,12.208z"/>
		</g>
		<g>
			<path d="M29.384,21.751c-0.211,0-0.568,0.309-0.568,0.922c0,0.617,0,2.999,0,3.711c0,0.714,0.146,1.378,0.568,1.378
				c0.42,0,0.323-0.649,0.567-0.681c0.243-0.032,0.728,0.827,1.539,0.827c0.21,0,0.21-0.212,0.21-0.373c0-0.162,0-0.649,0-0.941
				c0-0.291-0.405-0.161-0.842-0.857c-0.437-0.698-0.778-1.557-1.005-3.064C29.804,22.189,29.659,21.751,29.384,21.751z"/>
			<path fill="#434A4A" d="M31.489,28.053c-0.566,0-0.985-0.374-1.263-0.622c-0.092-0.083-0.221-0.198-0.266-0.206
				c-0.008,0.016-0.043,0.119-0.063,0.181c-0.066,0.198-0.167,0.501-0.513,0.501c-0.46,0-0.713-0.542-0.713-1.524v-3.711
				c0-0.697,0.414-1.068,0.713-1.068c0.327,0,0.546,0.375,0.615,1.056c0.198,1.32,0.492,2.219,0.982,2.998
				c0.223,0.355,0.43,0.476,0.582,0.561c0.139,0.08,0.283,0.162,0.283,0.376v0.941C31.846,27.69,31.846,28.053,31.489,28.053z
				 M29.935,26.936c0.176,0,0.306,0.116,0.485,0.278c0.258,0.231,0.614,0.547,1.068,0.547c0.038,0,0.065,0,0.065-0.226v-0.941
				c0-0.037,0-0.045-0.135-0.123c-0.169-0.097-0.424-0.242-0.685-0.658c-0.513-0.816-0.82-1.747-1.025-3.116
				c-0.055-0.551-0.207-0.8-0.325-0.8c-0.121,0-0.422,0.232-0.422,0.777v3.711c0,0.749,0.166,1.23,0.422,1.23
				c0.116,0,0.161-0.073,0.236-0.3c0.053-0.157,0.117-0.353,0.311-0.378C29.933,26.936,29.934,26.936,29.935,26.936z"/>
		</g>
		<g>
			<path d="M35.876,12.345c-0.134,0-0.219,0.146-0.219,0.244c0,0.097,0,4.289,0,4.592c0,0.304,0.195,0.754,0.547,0.754
				c0.352,0,0.558-0.346,0.571-0.926c0.011-0.582,0.255-2.441,0.74-3.011c0.049-0.134,0.122-0.17,0.122-0.413
				c0-0.242,0-0.729,0-0.923s-0.06-0.316-0.243-0.316C37.213,12.345,35.876,12.345,35.876,12.345z"/>
			<path fill="#434A4A" d="M36.204,18.08c-0.453,0-0.692-0.521-0.692-0.899v-4.592c0-0.184,0.15-0.389,0.364-0.389h1.519
				c0.145,0,0.389,0.06,0.389,0.462v0.923c0,0.208-0.049,0.3-0.092,0.382c-0.013,0.024-0.027,0.049-0.039,0.081l-0.026,0.045
				c-0.437,0.513-0.693,2.278-0.707,2.92C36.906,17.681,36.639,18.08,36.204,18.08z M35.876,12.492
				c-0.038,0-0.073,0.067-0.073,0.097v4.592c0,0.248,0.157,0.608,0.401,0.608c0.369,0,0.419-0.548,0.425-0.783
				c0.011-0.471,0.225-2.421,0.76-3.083c0.014-0.035,0.03-0.065,0.045-0.093c0.033-0.064,0.058-0.11,0.058-0.245v-0.923
				c0-0.17-0.046-0.17-0.097-0.17H35.876z"/>
		</g>
		<g>
			<path d="M38.014,12.345c-0.134,0-0.255,0.097-0.255,0.304c0,0.207,0,12.747,0,13.075c0,0.326-0.729,0.352-0.729,1.045
				c0,0.692,0.389,0.85,0.74,0.85c0.353,0,2.916,0,3.16,0c0.243,0,0.717-0.219,0.717-0.827c0-0.789-0.802-0.619-0.802-1.092
				c0-0.475,0-12.819,0-12.977c0-0.158,0.012-0.377-0.243-0.377C40.347,12.345,38.014,12.345,38.014,12.345z"/>
			<path fill="#434A4A" d="M40.93,27.765h-3.16c-0.564,0-0.887-0.364-0.887-0.996c0-0.488,0.317-0.706,0.528-0.851
				c0.125-0.084,0.202-0.142,0.202-0.194V12.649c0-0.308,0.208-0.449,0.401-0.449h2.588c0.116,0,0.209,0.034,0.275,0.102
				c0.114,0.114,0.113,0.279,0.113,0.401v12.997c0,0.111,0.068,0.158,0.249,0.257c0.233,0.13,0.553,0.306,0.553,0.835
				C41.793,27.456,41.278,27.765,40.93,27.765z M38.014,12.492c-0.096,0-0.109,0.099-0.109,0.158v13.075
				c0,0.21-0.167,0.324-0.327,0.435c-0.198,0.136-0.401,0.276-0.401,0.61c0,0.48,0.189,0.704,0.594,0.704h3.16
				c0.178,0,0.571-0.17,0.571-0.681c0-0.358-0.186-0.461-0.402-0.578c-0.178-0.099-0.4-0.221-0.4-0.514V12.722
				c0-0.083,0.001-0.186-0.028-0.215c-0.01-0.01-0.036-0.016-0.069-0.016L38.014,12.492L38.014,12.492z"/>
		</g>
		<g>
			<path d="M41.294,12.345c-0.17,0-0.279,0.17-0.279,0.304c0,0.133,0,0.765,0,1.106c0,0.34,0.559,0.45,0.717,1.823
				c0.158,1.373,0.073,2.357,0.692,2.357c0.329,0,0.547-0.503,0.547-0.792c0-0.291,0-4.3,0-4.445c0-0.146-0.012-0.353-0.352-0.353
				C42.279,12.345,41.294,12.345,41.294,12.345z"/>
			<path fill="#434A4A" d="M42.425,18.08c-0.623,0-0.681-0.703-0.761-1.677c-0.022-0.249-0.043-0.52-0.077-0.809
				c-0.097-0.851-0.353-1.19-0.523-1.413c-0.104-0.138-0.195-0.257-0.195-0.425v-1.106c0-0.213,0.175-0.449,0.425-0.449h1.325
				c0.331,0,0.498,0.168,0.498,0.498v4.445C43.117,17.516,42.841,18.08,42.425,18.08z M41.294,12.492
				c-0.083,0-0.133,0.102-0.133,0.158v1.106c0,0.067,0.044,0.128,0.135,0.249c0.189,0.248,0.473,0.626,0.581,1.556
				c0.033,0.292,0.056,0.567,0.077,0.818c0.076,0.926,0.133,1.41,0.471,1.41c0.214,0,0.401-0.403,0.401-0.646v-4.445
				c0-0.133,0-0.206-0.206-0.206H41.294z"/>
		</g>
		<g>
			<path d="M47.427,12.333c-0.137,0-0.184,0.159-0.184,0.243c0,0.084,0,0.903,0,1.17c0,0.268,0.661,0.203,0.661,1.115
				c0,0.912,0,3.098,0,3.693c0,0.595-0.131,0.888-0.495,1.009c-0.1,0.025-0.199,0.031-0.199,0.198c0,0.167,0,0.858,0,1.077
				c0,0.219,0.645,0.184,0.645,0.876c0,0.693,0.037,2.866,0.049,3.741c0.012,0.876,0.62,2.467,1.896,2.467
				c1.275,0,2.054-1.872,1.993-2.565c-0.061-0.691-0.498-0.934-0.632-0.618c-0.134,0.315-0.243,0.607-0.243,0.109s0-0.874,0-1.859
				c0-0.985-0.28-2.453-1.823-2.859c0,0,1.834-0.55,1.834-3.677c0-3.126-1.523-4.107-3.191-4.107
				C47.593,12.345,47.427,12.333,47.427,12.333z"/>
			<path fill="#434A4A" d="M49.8,28.067c-1.4,0-2.03-1.728-2.042-2.61l-0.013-0.882c-0.015-1.011-0.036-2.345-0.036-2.861
				c0-0.356-0.192-0.463-0.378-0.565c-0.124-0.067-0.267-0.144-0.267-0.31v-1.077c0-0.268,0.193-0.311,0.286-0.334
				c0.263-0.086,0.408-0.255,0.408-0.873v-3.693c0-0.512-0.225-0.659-0.407-0.777c-0.119-0.076-0.254-0.163-0.254-0.338v-1.17
				c0-0.188,0.116-0.389,0.33-0.389c0.012,0.001,0.17,0.012,0.311,0.012c1.246,0,3.337,0.553,3.337,4.252
				c0,2.384-1.032,3.321-1.591,3.653c1.364,0.563,1.58,2.023,1.58,2.884v1.623c0.064-0.1,0.16-0.155,0.274-0.155
				c0.26,0,0.549,0.305,0.6,0.889c0.045,0.507-0.29,1.468-0.86,2.089C50.697,27.849,50.256,28.067,49.8,28.067z M47.358,20.838
				c0.012,0,0.071,0.031,0.113,0.055c0.199,0.109,0.531,0.29,0.531,0.821c0,0.515,0.02,1.848,0.036,2.857l0.012,0.883
				c0.011,0.786,0.552,2.325,1.751,2.325c0.377,0,0.734-0.182,1.061-0.54c0.538-0.587,0.821-1.483,0.786-1.867
				c-0.039-0.443-0.235-0.623-0.309-0.623c-0.02,0-0.036,0.03-0.043,0.048l-0.024,0.054c-0.118,0.282-0.172,0.412-0.308,0.412
				c-0.192,0-0.192-0.24-0.192-0.415v-1.859c0-1.033-0.296-2.347-1.713-2.719l-0.494-0.131l0.488-0.15
				c0.071-0.023,1.732-0.568,1.732-3.537c0-3.274-1.657-3.961-3.046-3.961c-0.151,0-0.322-0.012-0.322-0.012
				c-0.005,0.006-0.027,0.053-0.027,0.097v1.17c0.008,0.02,0.076,0.064,0.122,0.093c0.202,0.132,0.539,0.351,0.539,1.021v3.693
				c0,0.492-0.072,0.974-0.596,1.147l-0.038,0.011c-0.019,0.004-0.047,0.011-0.058,0.015c0.001,0.003-0.001,0.014-0.001,0.035
				L47.358,20.838C47.357,20.838,47.357,20.838,47.358,20.838z"/>
		</g>
		<g>
			<path d="M61.283,12.333c-0.172,0-0.232,0.137-0.232,0.279s0,0.745,0,0.984s0.094,0.23,0.324,0.357
				c0.229,0.129,0.486,0.313,0.486,1.248c0,0.935,0,2.146,0,2.779c0,0.631-0.202,0.944-0.688,1.017
				c-0.102,0.008-0.123,0.068-0.123,0.178c0,0.109,0,0.995,0,1.153c0,0.315,0.811,0.196,0.811,0.923c0,1.24,0,2.892,0,3.657
				c0,0.766-0.178,1.094-0.518,1.167c-0.146,0.012-0.292,0.108-0.292,0.268c0,0.158,0,0.923,0,1.043
				c0,0.122,0.085,0.262,0.256,0.262s0.134,0,0.608,0c0.91,0,3.061-0.405,3.061-4.132c0-3.387-1.962-3.759-1.962-3.759
				s1.865-0.649,1.865-3.662c0-3.014-1.864-3.763-3.03-3.763C61.655,12.333,61.283,12.333,61.283,12.333z"/>
			<path fill="#434A4A" d="M61.915,27.794h-0.608c-0.252,0-0.401-0.205-0.401-0.407v-1.043c0-0.247,0.214-0.395,0.426-0.413
				c0.168-0.037,0.383-0.191,0.383-1.022v-3.657c0-0.344-0.214-0.44-0.441-0.539c-0.173-0.077-0.368-0.164-0.368-0.384v-1.153
				c0-0.199,0.085-0.306,0.254-0.322c0.33-0.05,0.555-0.22,0.555-0.872v-2.779c0-0.89-0.237-1.023-0.411-1.12
				c-0.042-0.023-0.079-0.042-0.111-0.058c-0.154-0.077-0.287-0.144-0.287-0.427v-0.984c0-0.254,0.152-0.425,0.378-0.425h0.566
				c1.465,0,3.176,1.024,3.176,3.909c0,2.337-1.082,3.298-1.641,3.638c0.592,0.277,1.738,1.155,1.738,3.782
				C65.122,27.376,62.878,27.794,61.915,27.794z M61.198,19.141c0,0.006-0.001,0.018-0.001,0.033v1.153
				c0,0.031,0.117,0.084,0.195,0.117c0.245,0.108,0.615,0.272,0.615,0.807v3.657c0,0.547-0.071,1.189-0.633,1.31
				c-0.079,0.01-0.176,0.046-0.176,0.125v1.043c0,0.002,0.002,0.117,0.11,0.117h0.608c0.876,0,2.916-0.39,2.916-3.987
				c0-3.214-1.769-3.602-1.846-3.615l-0.519-0.104l0.5-0.178c0.071-0.027,1.767-0.659,1.767-3.524c0-3.442-2.402-3.617-2.884-3.617
				h-0.566c-0.029,0-0.087,0-0.087,0.133v0.984c0,0.103,0,0.103,0.125,0.166c0.037,0.019,0.077,0.039,0.124,0.065
				c0.284,0.159,0.56,0.395,0.56,1.374v2.779C62.006,18.425,61.923,19.029,61.198,19.141z"/>
		</g>
		<g>
			<path d="M66.24,12.333c-0.358,0-0.778,0.344-0.778,0.749c0,0.713,0.648,0.746,0.648,1.102c0,0.665,0,7.663,0,9.12
				c0,1.685,0.583,4.618,3.501,4.618c0.323,0,0.307-0.227,0.307-0.405c0-0.178,0-0.729,0-1.052c0-0.714-0.714,0-0.714-1.508
				c0-1.619,0-10.789,0-10.789c0-0.498,0.608-0.328,0.608-1.057c0-0.729-0.62-0.778-0.753-0.778
				C68.926,12.333,66.24,12.333,66.24,12.333z"/>
			<path fill="#434A4A" d="M69.611,28.067c-2.689,0-3.646-2.46-3.646-4.763v-9.12c0-0.075-0.069-0.135-0.189-0.235
				c-0.195-0.16-0.459-0.38-0.459-0.867c0-0.495,0.504-0.895,0.923-0.895h2.819c0.333,0,0.899,0.195,0.899,0.924
				c0,0.473-0.236,0.643-0.408,0.765c-0.137,0.098-0.2,0.148-0.2,0.292v10.789c0,0.799,0.197,0.889,0.369,0.966
				c0.153,0.07,0.345,0.157,0.345,0.542v1.052c0,0.146,0.001,0.315-0.117,0.434C69.868,28.029,69.756,28.067,69.611,28.067z
				 M66.24,12.479c-0.279,0-0.633,0.284-0.633,0.603c0,0.349,0.18,0.498,0.354,0.642c0.145,0.119,0.295,0.244,0.295,0.46v9.12
				c0,1.05,0.242,4.473,3.355,4.473c0.061,0,0.109-0.011,0.128-0.033c0.033-0.033,0.033-0.126,0.033-0.203v-1.076
				c0-0.197-0.048-0.22-0.173-0.276c-0.285-0.13-0.54-0.32-0.54-1.232V14.168c0-0.301,0.178-0.427,0.322-0.53
				c0.151-0.109,0.284-0.204,0.284-0.527c0-0.586-0.464-0.632-0.606-0.632L66.24,12.479L66.24,12.479z"/>
		</g>
		<g>
			<path d="M71.229,12.333c-0.354,0-0.65,0.296-0.65,0.753c0,0.723,0.948,0.948,0.948,2.199s0,6.002,0,7.703
				c0,1.701-0.415,2.941-1.253,3.135c-0.156,0.048-0.144,0.157-0.144,0.242c0,0.087,0,1.105,0,1.282c0,0.177,0.157,0.358,0.668,0.06
				c0.509-0.296,1.762-1.342,1.762-4.743c0-3.403,0-6.967,0-7.68c0-1.182,0.924-1.588,0.924-2.155c0-0.567-0.406-0.798-0.746-0.798
				C72.396,12.333,71.229,12.333,71.229,12.333z"/>
			<path fill="#434A4A" d="M70.352,28.014L70.352,28.014c-0.219,0-0.37-0.152-0.37-0.366v-1.282c0-0.101-0.002-0.305,0.248-0.382
				c0.723-0.169,1.15-1.287,1.15-2.996v-7.703c0-0.659-0.274-0.998-0.538-1.327c-0.211-0.262-0.41-0.509-0.41-0.872
				c0-0.513,0.342-0.899,0.797-0.899h1.507c0.429,0,0.891,0.295,0.891,0.944c0,0.281-0.169,0.506-0.366,0.767
				c-0.261,0.346-0.557,0.738-0.557,1.388v7.68c0,3.431-1.283,4.548-1.834,4.87C70.665,27.956,70.494,28.014,70.352,28.014z
				 M71.229,12.479c-0.292,0-0.504,0.255-0.504,0.607c0,0.261,0.151,0.449,0.345,0.69c0.267,0.333,0.601,0.747,0.601,1.509v7.703
				c0,1.882-0.497,3.076-1.363,3.278c-0.035,0.01-0.035,0.01-0.035,0.082v1.3c0,0.061,0.028,0.072,0.079,0.072l0,0
				c0.048,0,0.164-0.016,0.37-0.136c0.507-0.296,1.688-1.339,1.688-4.618v-7.68c0-0.747,0.343-1.2,0.617-1.563
				c0.171-0.229,0.307-0.409,0.307-0.592c0-0.515-0.377-0.651-0.599-0.651L71.229,12.479L71.229,12.479z"/>
		</g>
		<g>
			<path d="M101.625,15.286c0-1.182,0.922-1.588,0.922-2.155c0-0.567-0.405-0.798-0.745-0.798c-0.341,0-1.506,0-1.506,0
				c-0.355,0-0.653,0.296-0.653,0.753c0,0.723,0.948,0.948,0.948,2.199c0,0.405,0,3.289,0,3.418s0.594,1.912,0.675,2.139
				c0.082,0.227,0.34,0.161,0.34-0.114S101.625,15.286,101.625,15.286z"/>
			<path fill="#434A4A" d="M101.427,21.126L101.427,21.126c-0.131,0-0.247-0.089-0.297-0.233c-0.007-0.022-0.686-2.008-0.686-2.188
				v-3.418c0-0.659-0.273-0.998-0.537-1.327c-0.209-0.262-0.408-0.509-0.408-0.872c0-0.513,0.341-0.899,0.798-0.899h1.506
				c0.428,0,0.891,0.295,0.891,0.944c0,0.281-0.17,0.506-0.367,0.767c-0.261,0.346-0.558,0.738-0.558,1.388
				c0,0.001-0.016,5.169-0.016,5.444c0,0.108-0.032,0.204-0.087,0.277C101.604,21.082,101.516,21.126,101.427,21.126z
				 M100.296,12.479c-0.295,0-0.506,0.255-0.506,0.607c0,0.261,0.151,0.449,0.344,0.69c0.269,0.333,0.603,0.747,0.603,1.509v3.418
				c0.016,0.151,0.563,1.798,0.666,2.091c0.008,0.024,0.019,0.036,0.025,0.039c0.011-0.008,0.032-0.038,0.032-0.105
				c0-0.275,0.019-5.444,0.019-5.444c0-0.746,0.341-1.2,0.615-1.562c0.173-0.229,0.307-0.409,0.307-0.592
				c0-0.515-0.376-0.651-0.598-0.651L100.296,12.479L100.296,12.479z"/>
		</g>
		<g>
			<path d="M95.44,24.697c0,1.182-0.924,1.587-0.924,2.154c0,0.568,0.405,0.798,0.745,0.798c0.339,0,1.505,0,1.505,0
				c0.356,0,0.652-0.296,0.652-0.751c0-0.725-0.947-0.95-0.947-2.2c0-0.406,0-5.933,0-6.062s-0.625-1.87-0.708-2.098
				c-0.08-0.227-0.324-0.202-0.324,0.074S95.44,24.697,95.44,24.697z"/>
			<path fill="#434A4A" d="M96.767,27.794h-1.505c-0.429,0-0.892-0.294-0.892-0.943c0-0.28,0.169-0.505,0.367-0.766
				c0.262-0.346,0.557-0.738,0.557-1.388V16.61c0-0.244,0.15-0.373,0.3-0.373c0.135,0,0.255,0.097,0.309,0.251l0.025,0.07
				c0.691,1.933,0.691,2.026,0.691,2.077v6.062c0,0.659,0.273,0.998,0.537,1.326c0.21,0.262,0.409,0.509,0.409,0.874
				C97.564,27.409,97.222,27.794,96.767,27.794z M95.592,16.531c0.004,0.005-0.007,0.03-0.007,0.08v8.086
				c0,0.747-0.343,1.2-0.617,1.565c-0.171,0.226-0.306,0.407-0.306,0.589c0,0.515,0.376,0.653,0.599,0.653h1.505
				c0.295,0,0.507-0.256,0.507-0.607c0-0.262-0.152-0.452-0.345-0.691c-0.269-0.334-0.603-0.748-0.603-1.509v-6.062
				c-0.005-0.039-0.084-0.33-0.672-1.98l-0.026-0.069C95.616,16.55,95.598,16.534,95.592,16.531z"/>
		</g>
		<g>
			<path d="M90.103,12.467c0-0.177-0.016-0.389-0.21-0.389c-1.076,0-3.629,1.92-3.629,7.557c0,5.711,2.114,8.234,3.571,8.234
				c0.154,0,0.154,0,0.154,0s0.114-0.041,0.114-0.22c0-0.179,0-0.518,0-1.005c0-0.487-0.55-0.08-0.55-1.523c0-1.442,0-9.38,0-10.482
				c0-1.102,0.55-0.972,0.55-1.231C90.103,13.147,90.103,12.467,90.103,12.467z"/>
			<path fill="#434A4A" d="M90.014,28.014h-0.179c-1.542,0-3.717-2.6-3.717-8.379c0-5.443,2.459-7.703,3.775-7.703
				c0.358,0,0.358,0.403,0.358,0.535v0.941c0,0.158-0.11,0.239-0.199,0.304c-0.148,0.11-0.353,0.259-0.353,0.927V25.12
				c0,0.841,0.189,0.99,0.326,1.097c0.101,0.08,0.226,0.177,0.226,0.426v1.005c0,0.226-0.134,0.33-0.212,0.358L90.014,28.014z
				 M89.892,12.225c-0.93,0-3.482,1.756-3.482,7.411c0,5.579,2.004,8.085,3.425,8.085h0.108c0.008-0.013,0.015-0.036,0.015-0.072
				v-1.005c0-0.107-0.027-0.128-0.112-0.196c-0.231-0.181-0.44-0.418-0.44-1.327V14.638c0-0.815,0.295-1.032,0.473-1.162
				c0.03-0.022,0.072-0.054,0.078-0.066v-0.943C89.957,12.225,89.914,12.225,89.892,12.225z"/>
		</g>
		<g>
			<path d="M90.369,12.467c0-0.177,0.018-0.389,0.213-0.389c1.076,0,3.628,1.92,3.628,7.557c0,5.711-2.114,8.234-3.572,8.234
				c-0.153,0-0.153,0-0.153,0s-0.116-0.041-0.116-0.22c0-0.179,0-0.518,0-1.005c0-0.487,0.551-0.08,0.551-1.523
				c0-1.442,0-9.38,0-10.482c0-1.102-0.551-0.972-0.551-1.231C90.369,13.147,90.369,12.467,90.369,12.467z"/>
			<path fill="#434A4A" d="M90.639,28.014l-0.202-0.008c-0.078-0.028-0.212-0.133-0.212-0.358v-1.005
				c0-0.249,0.125-0.346,0.225-0.426c0.138-0.108,0.326-0.256,0.326-1.097V14.638c0-0.668-0.204-0.817-0.354-0.927
				c-0.088-0.065-0.198-0.146-0.198-0.304v-0.941c0-0.131,0-0.535,0.358-0.535c1.315,0,3.774,2.26,3.774,7.703
				C94.356,25.415,92.182,28.014,90.639,28.014z M90.532,27.72h0.107c1.421,0,3.426-2.506,3.426-8.085
				c0-5.654-2.553-7.411-3.482-7.411c-0.022,0-0.065,0-0.065,0.242v0.941c0.006,0.015,0.048,0.046,0.078,0.068
				c0.178,0.13,0.472,0.348,0.472,1.162V25.12c0,0.909-0.208,1.147-0.438,1.327c-0.086,0.067-0.113,0.089-0.113,0.196v1.005
				C90.517,27.685,90.524,27.708,90.532,27.72z"/>
		</g>
		<g>
			<path d="M95.306,12.333c-0.299,0-0.79,0.302-0.79,0.902c0,0.601,0.649,0.663,0.79,1.074c0.142,0.411,4.219,12.877,4.283,13.066
				c0.064,0.191,0.153,0.288,0.365,0.288c0.21,0,1.037,0,1.263,0c0.227,0,0.39-0.128,0.39-0.454s0-4.439,0-4.568
				s-0.033-0.373-0.453-1.523c-0.423-1.151-2.787-8.456-2.835-8.57c-0.05-0.113-0.11-0.214-0.258-0.214
				C97.912,12.333,95.306,12.333,95.306,12.333z"/>
			<path fill="#434A4A" d="M101.217,27.809h-1.263c-0.332,0-0.443-0.208-0.502-0.387c-0.021-0.053-0.379-1.15-0.882-2.686
				c-1.235-3.774-3.302-10.089-3.401-10.379c-0.045-0.128-0.167-0.22-0.307-0.327c-0.218-0.165-0.491-0.372-0.491-0.795
				c0-0.675,0.554-1.048,0.936-1.048h2.755c0.261,0,0.353,0.212,0.392,0.303c0.016,0.04,0.189,0.566,0.677,2.058
				c0.749,2.293,1.882,5.759,2.161,6.52c0.426,1.167,0.463,1.423,0.463,1.572v4.568C101.752,27.585,101.553,27.809,101.217,27.809z
				 M95.306,12.479c-0.231,0-0.644,0.253-0.644,0.756c0,0.279,0.173,0.411,0.375,0.563c0.165,0.124,0.333,0.252,0.407,0.464
				c0.102,0.291,2.168,6.608,3.402,10.383c0.504,1.535,0.861,2.631,0.88,2.685c0.053,0.16,0.107,0.188,0.227,0.188h1.263
				c0.121,0,0.243-0.036,0.243-0.307v-4.568c0-0.126-0.052-0.401-0.445-1.473c-0.28-0.765-1.413-4.234-2.163-6.53
				c-0.347-1.061-0.648-1.977-0.668-2.036c-0.051-0.118-0.079-0.124-0.123-0.124L95.306,12.479L95.306,12.479z"/>
		</g>
		<g>
			<path d="M103.212,12.333c-0.221,0-0.327,0.182-0.327,0.376c0,0.195,0,3.33,0,3.816c0,0.486,0.244,0.737,0.535,0.737
				c0.292,0,0.422-0.268,0.503-0.895c0.081-0.628,0.34-1.891,1.424-2.377c0.179-0.049,0.249-0.077,0.321-0.345
				c0.073-0.268,0.195-0.766,0.23-0.985c0.037-0.219-0.072-0.328-0.279-0.328C105.412,12.333,103.212,12.333,103.212,12.333z"/>
			<path fill="#434A4A" d="M103.42,17.408c-0.338,0-0.68-0.273-0.68-0.883V12.71c0-0.307,0.195-0.522,0.472-0.522h2.408
				c0.189,0,0.291,0.075,0.346,0.137c0.051,0.062,0.108,0.175,0.076,0.361c-0.038,0.232-0.161,0.738-0.233,0.998
				c-0.089,0.323-0.201,0.387-0.423,0.446c-0.707,0.319-1.17,1.101-1.318,2.256C104.004,16.881,103.896,17.408,103.42,17.408z
				 M103.212,12.479c-0.168,0-0.18,0.177-0.18,0.23v3.816c0,0.359,0.151,0.591,0.387,0.591c0.126,0,0.266-0.059,0.358-0.768
				c0.163-1.26,0.687-2.123,1.509-2.492c0.172-0.048,0.186-0.053,0.24-0.25c0.071-0.26,0.192-0.754,0.227-0.97
				c0.011-0.058,0.007-0.103-0.012-0.124c-0.02-0.022-0.063-0.034-0.123-0.034L103.212,12.479L103.212,12.479z"/>
		</g>
		<g>
			<path d="M106.374,12.333c-0.12,0-0.224,0.012-0.279,0.214c-0.057,0.203-3.306,13.201-3.356,13.43
				c-0.048,0.231-0.084,0.353-0.084,0.476c0,0.12,0,0.739,0,0.873c0,0.134,0.06,0.322,0.315,0.322c0.256,0,2.333,0,2.491,0
				c0.158,0,0.22-0.126,0.268-0.322c0.048-0.193,3.28-13.061,3.316-13.255c0.037-0.195,0.086-0.328,0.086-0.462
				c0-0.134,0-0.765,0-0.985c0-0.218-0.172-0.291-0.328-0.291C108.644,12.333,106.374,12.333,106.374,12.333z"/>
			<path fill="#434A4A" d="M105.462,27.794h-2.491c-0.34,0-0.464-0.251-0.464-0.467v-0.873c0-0.107,0.024-0.211,0.056-0.351
				l0.034-0.154c0.046-0.217,3.276-13.153,3.357-13.44c0.088-0.321,0.312-0.321,0.42-0.321h2.43c0.283,0,0.472,0.176,0.472,0.437
				v0.985c0,0.103-0.022,0.199-0.048,0.309c-0.012,0.054-0.026,0.113-0.039,0.179c-0.02,0.117-1.093,4.402-3.186,12.74l-0.131,0.525
				C105.836,27.504,105.763,27.794,105.462,27.794z M106.374,12.479c-0.091,0-0.109,0-0.14,0.108
				c-0.079,0.286-3.305,13.204-3.352,13.42l-0.034,0.16c-0.029,0.124-0.047,0.209-0.047,0.286v0.873c0,0.178,0.119,0.178,0.17,0.178
				h2.491c0.033,0,0.073,0,0.125-0.213l0.132-0.523c2.734-10.886,3.169-12.644,3.186-12.724c0.013-0.07,0.028-0.134,0.041-0.192
				c0.023-0.096,0.04-0.173,0.04-0.242v-0.985c0-0.039,0-0.145-0.182-0.145L106.374,12.479L106.374,12.479z"/>
		</g>
		<g>
			<path d="M108.61,22.61c-0.285,0-0.403,0.389-0.554,1.031c-0.148,0.644-0.357,1.526-0.776,1.944
				c-0.419,0.418-0.851,0.508-0.958,0.583c-0.105,0.074-0.118,0.149-0.246,0.66c-0.128,0.51-0.226,0.819,0.103,0.819
				c0.328,0,2.369,0,2.601,0c0.23,0,0.353-0.164,0.353-0.37c0-0.206,0-3.293,0-3.767C109.132,23.038,108.926,22.61,108.61,22.61z"/>
			<path fill="#434A4A" d="M108.779,27.794h-2.601c-0.134,0-0.233-0.04-0.296-0.122c-0.13-0.165-0.066-0.417,0.03-0.797l0.039-0.151
				c0.117-0.473,0.143-0.571,0.287-0.675c0.04-0.029,0.097-0.05,0.173-0.083c0.178-0.072,0.477-0.196,0.763-0.485
				c0.396-0.395,0.603-1.284,0.738-1.873c0.138-0.588,0.268-1.144,0.697-1.144c0.437,0,0.666,0.527,0.666,1.047v3.767
				C109.276,27.583,109.072,27.794,108.779,27.794z M108.61,22.755c-0.184,0-0.298,0.437-0.411,0.919
				c-0.145,0.623-0.363,1.561-0.816,2.014c-0.329,0.328-0.662,0.466-0.859,0.547c-0.046,0.019-0.102,0.041-0.117,0.052
				c-0.053,0.036-0.066,0.079-0.173,0.506l-0.038,0.154c-0.049,0.198-0.125,0.496-0.084,0.545c0,0,0.014,0.012,0.066,0.012h2.601
				c0.179,0,0.206-0.141,0.206-0.225v-3.767C108.986,23.096,108.816,22.755,108.61,22.755z"/>
		</g>
		<g>
			<path fill="#A8A8A8" d="M19.274,12.629c0-0.065-0.025-0.114-0.122-0.114c-0.097,0-0.372,0.324-0.413,0.413
				c-0.04,0.089,0,2.276,0,3.475c0,1.2,0,10.206,0,10.304c0,0.097,0.005,0.169-0.178,0.169c-0.182,0-1.943,0-2.138,0
				c-0.195,0-0.607,0-0.607,0.172c0,0.17,0.219,0.473,0.644,0.473c0.24,0,2.144,0,2.677,0c0.087,0,0.138-0.038,0.138-0.117
				C19.274,23.71,19.274,12.629,19.274,12.629z"/>
		</g>
		<g>
			<path fill="#A8A8A8" d="M15.797,13.021c0,0-0.055,0.442,0.279,0.685c0.307,0.223,0.378,0.27,0.416,0.544
				c0.037-0.397,0.162-0.753-0.268-0.913C15.795,13.176,15.797,13.021,15.797,13.021z"/>
		</g>
		<g>
			<path fill="#A8A8A8" d="M43.437,13.032c0,0-0.056,0.443,0.278,0.686c0.308,0.225,0.378,0.271,0.415,0.544
				c0.039-0.397,0.162-0.753-0.267-0.914C43.435,13.188,43.437,13.032,43.437,13.032z"/>
		</g>
		<g>
			<path d="M57.872,12.333c-0.243,0-0.79,0.194-0.79,0.802c0,0.607,0.68,0.839,0.68,1.021c0,0.182,0,11.206,0,11.503
				c0,0.295-0.68,0.562-0.68,1.211c0,0.648,0.488,0.779,0.779,0.779s2.527,0,2.712,0c0.184,0,0.262-0.13,0.262-0.262
				c0-0.133,0-14.507,0-14.749c0-0.244-0.133-0.304-0.247-0.304C60.473,12.333,57.872,12.333,57.872,12.333z"/>
			<path fill="#434A4A" d="M60.574,27.794h-2.712c-0.448,0-0.925-0.241-0.925-0.924c0-0.448,0.276-0.734,0.478-0.94
				c0.094-0.098,0.202-0.209,0.202-0.271V14.156c-0.009-0.004-0.086-0.068-0.142-0.114c-0.214-0.177-0.538-0.445-0.538-0.907
				c0-0.709,0.642-0.948,0.936-0.948h2.716c0.189,0,0.392,0.118,0.392,0.45v14.749C60.98,27.627,60.813,27.794,60.574,27.794z
				 M57.872,12.479c-0.128,0-0.644,0.116-0.644,0.656c0,0.324,0.24,0.523,0.433,0.682c0.139,0.115,0.248,0.205,0.248,0.339v11.503
				c0,0.179-0.138,0.321-0.284,0.473c-0.186,0.191-0.397,0.409-0.397,0.737c0,0.572,0.444,0.634,0.634,0.634h2.712
				c0.031,0,0.115,0,0.115-0.117V12.637c0-0.158-0.063-0.158-0.101-0.158H57.872z"/>
		</g>
		<g>
			<path fill="#A8A8A8" d="M23.944,13.081c0,0-0.014,0.361,0.283,0.597c0.299,0.236,0.373,0.436,0.41,0.709
				c0.038-0.396,0.212-0.842-0.218-1.002C23.99,13.225,23.944,13.081,23.944,13.081z"/>
		</g>
		<g>
			<path d="M19.857,12.516c-0.098,0-0.162,0.032-0.162,0.308c0,0.274,0,0.599,0,0.777c0,0.178,0.696,0.146,0.696,1.281
				c0,1.134,0,9.76,0,10.222c0,0.462-0.017,0.748-0.539,1.078c-0.099,0.093-0.158,0.185-0.158,0.428c0,0.243,0,0.47,0,0.649
				c0,0.178,0.222,0.308,0.664,0.128c0.778-0.314,2.867-1.683,2.867-7.158C23.227,14.411,21.04,12.516,19.857,12.516z"/>
		</g>
		<g>
			<path fill="#A8A8A8" d="M19.971,12.473c0.846,0.096,2.16,0.935,2.876,3.403c0.325,1.121,0.478,2.579,0.478,4.45
				c0,5.476-2.087,6.853-2.867,7.161c-0.304,0.119-0.617,0.099-0.632-0.049c0,0,0.324-0.405,0.518-0.518
				c0.195-0.114,1.207-0.357,1.912-2.496c0.705-2.138,0.583-4.447,0.583-5.224c0-4.739-2.194-6.041-2.503-6.209
				c-0.124-0.066-0.34-0.3-0.458-0.434C19.828,12.499,19.914,12.466,19.971,12.473z"/>
		</g>
		<g>
			<path fill="#A8A8A8" d="M20.381,14.943c0,0,0.019-0.913-0.248-1.172c-0.268-0.26-0.441-0.011-0.441-0.011
				s0.259,0.079,0.437,0.346C20.307,14.375,20.357,14.595,20.381,14.943z"/>
		</g>
		<g>
			<path fill="#A8A8A8" d="M27.553,12.482c-0.053,0,0.175,0.428-0.092,0.716c-0.267,0.288-0.588,0.598-0.588,1.014s0,10.794,0,11.28
				c0,0.485,0.582,0.778,0.662,0.955c0.082,0.178,0.082,0.504-0.243,0.504c-0.324,0-2.397,0-2.722,0
				c-0.324,0-0.453,0.16-0.453,0.209c0,0.048,0.205,0.357,0.448,0.357c0.242,0,2.679,0,2.889,0c0.317,0,0.615-0.318,0.615-0.692
				c0-0.563-0.596-0.634-0.596-0.937c0-0.304-0.007-11.49-0.007-11.77c0-0.279,0.589-0.48,0.589-0.967
				C28.056,12.584,27.553,12.482,27.553,12.482z"/>
		</g>
		<g>
			<path d="M52.915,12.333c-0.436,0-0.791,0.303-0.791,0.784c0,0.673,0.681,0.736,0.681,1.162c0,0.427,0,11.213,0,11.522
				c0,0.307-0.681,0.404-0.681,1.036c0,0.633,0.411,0.811,0.791,0.811c0.38,0,2.39,0,2.826,0c0.437,0,0.778-0.324,0.778-0.811
				c0-0.632-0.6-0.811-0.6-0.955c0-0.145,0-11.486,0-11.73c0-0.243,0.6-0.404,0.6-1.02c0-0.615-0.551-0.798-0.713-0.798
				C55.644,12.333,52.915,12.333,52.915,12.333z"/>
			<path fill="#434A4A" d="M55.741,27.794h-2.826c-0.586,0-0.936-0.357-0.936-0.957c0-0.441,0.28-0.664,0.485-0.825
				c0.101-0.08,0.196-0.154,0.196-0.21V14.279c0-0.118-0.085-0.198-0.234-0.329c-0.199-0.175-0.447-0.393-0.447-0.834
				c0-0.539,0.393-0.93,0.936-0.93h2.891c0.22,0,0.859,0.233,0.859,0.944c0,0.443-0.269,0.689-0.448,0.853
				c-0.057,0.051-0.151,0.139-0.151,0.167v11.703c0.019,0.019,0.061,0.053,0.093,0.079c0.189,0.151,0.506,0.406,0.506,0.902
				C56.665,27.392,56.277,27.794,55.741,27.794z M52.915,12.479c-0.379,0-0.644,0.262-0.644,0.638c0,0.309,0.169,0.458,0.349,0.615
				c0.155,0.137,0.333,0.292,0.333,0.548v11.522c0,0.199-0.156,0.319-0.306,0.439c-0.184,0.144-0.375,0.296-0.375,0.597
				c0,0.55,0.35,0.667,0.644,0.667h2.826c0.373,0,0.632-0.274,0.632-0.667c0-0.357-0.228-0.54-0.396-0.676
				c-0.109-0.086-0.203-0.161-0.203-0.279v-11.73c0-0.158,0.119-0.267,0.246-0.383c0.166-0.151,0.352-0.323,0.352-0.637
				c0-0.531-0.492-0.652-0.567-0.652L52.915,12.479L52.915,12.479z"/>
		</g>
		<g>
			<path fill="#A8A8A8" d="M52.263,13.081c0,0-0.015,0.361,0.283,0.597c0.298,0.236,0.373,0.436,0.409,0.709
				c0.037-0.396,0.212-0.842-0.217-1.002C52.308,13.225,52.263,13.081,52.263,13.081z"/>
		</g>
		<g>
			<path fill="#A8A8A8" d="M65.599,13.072c0,0-0.016,0.361,0.284,0.598c0.298,0.235,0.333,0.436,0.369,0.709
				c0.038-0.397,0.026-0.875-0.191-0.955C65.633,13.264,65.599,13.072,65.599,13.072z"/>
		</g>
		<g>
			<path fill="#A8A8A8" d="M55.873,12.482c-0.053,0,0.175,0.428-0.092,0.716c-0.268,0.288-0.588,0.598-0.588,1.014s0,10.794,0,11.28
				c0,0.485,0.582,0.778,0.662,0.955c0.082,0.178,0.082,0.504-0.243,0.504c-0.324,0-2.397,0-2.722,0
				c-0.324,0-0.454,0.16-0.454,0.209c0,0.048,0.204,0.357,0.448,0.357c0.243,0,2.679,0,2.89,0c0.317,0,0.615-0.318,0.615-0.692
				c0-0.563-0.596-0.634-0.596-0.937c0-0.304-0.008-11.49-0.008-11.77c0-0.279,0.589-0.48,0.589-0.967
				C56.374,12.584,55.873,12.482,55.873,12.482z"/>
		</g>
		<g>
			<path d="M82.465,12.333c-0.436,0-0.791,0.303-0.791,0.784c0,0.673,0.681,0.736,0.681,1.162c0,0.427,0,11.213,0,11.522
				c0,0.307-0.681,0.404-0.681,1.036c0,0.633,0.409,0.811,0.791,0.811c0.381,0,2.389,0,2.826,0c0.438,0,0.779-0.324,0.779-0.811
				c0-0.632-0.6-0.811-0.6-0.955c0-0.145,0-11.486,0-11.73c0-0.243,0.6-0.404,0.6-1.02c0-0.615-0.552-0.798-0.714-0.798
				C85.194,12.333,82.465,12.333,82.465,12.333z"/>
			<path fill="#434A4A" d="M85.291,27.794h-2.826c-0.586,0-0.936-0.357-0.936-0.957c0-0.441,0.281-0.664,0.487-0.825
				c0.099-0.08,0.194-0.154,0.194-0.21V14.279c0-0.118-0.084-0.198-0.233-0.329c-0.199-0.175-0.448-0.393-0.448-0.834
				c0-0.539,0.393-0.93,0.936-0.93h2.891c0.22,0,0.859,0.233,0.859,0.944c0,0.443-0.27,0.689-0.447,0.853
				c-0.057,0.051-0.152,0.139-0.152,0.167v11.703c0.021,0.019,0.062,0.053,0.094,0.079c0.19,0.151,0.505,0.406,0.505,0.902
				C86.215,27.392,85.827,27.794,85.291,27.794z M82.465,12.479c-0.379,0-0.644,0.262-0.644,0.638c0,0.309,0.17,0.458,0.349,0.615
				c0.156,0.137,0.333,0.292,0.333,0.548v11.522c0,0.199-0.155,0.319-0.306,0.439c-0.185,0.144-0.376,0.296-0.376,0.597
				c0,0.55,0.351,0.667,0.644,0.667h2.826c0.374,0,0.632-0.274,0.632-0.667c0-0.357-0.228-0.54-0.395-0.676
				c-0.11-0.086-0.205-0.161-0.205-0.279v-11.73c0-0.158,0.122-0.267,0.248-0.383c0.166-0.151,0.352-0.323,0.352-0.637
				c0-0.531-0.493-0.652-0.566-0.652L82.465,12.479L82.465,12.479z"/>
		</g>
		<g>
			<path fill="#A8A8A8" d="M81.813,13.081c0,0-0.015,0.361,0.283,0.597c0.297,0.236,0.374,0.436,0.41,0.709
				c0.037-0.396,0.21-0.842-0.218-1.002C81.857,13.225,81.813,13.081,81.813,13.081z"/>
		</g>
		<g>
			<path fill="#A8A8A8" d="M85.423,12.482c-0.052,0,0.175,0.428-0.092,0.716c-0.267,0.288-0.587,0.598-0.587,1.014s0,10.794,0,11.28
				c0,0.485,0.579,0.778,0.662,0.955c0.08,0.178,0.08,0.504-0.244,0.504c-0.323,0-2.397,0-2.721,0c-0.324,0-0.455,0.16-0.455,0.209
				c0,0.048,0.208,0.357,0.45,0.357s2.678,0,2.887,0c0.319,0,0.617-0.318,0.617-0.692c0-0.563-0.596-0.634-0.596-0.937
				c0-0.304-0.007-11.49-0.007-11.77c0-0.279,0.587-0.48,0.587-0.967C85.924,12.584,85.423,12.482,85.423,12.482z"/>
		</g>
		<g>
			<path fill="#A8A8A8" d="M31.878,12.315c-0.11,0-0.512,0.245-0.512,0.478c0,0.233,0,0.233,0,0.355
				c0,0.124-0.836,0.534-0.836,1.794c0,3.066,4.093,2.313,4.093,7.562c0,2.138-0.624,3.832-1.969,4.512
				c-0.308,0.162-0.592,0.606-0.592,0.704c0,0.211,1.539-0.161,2.406-1.871c0.882-1.739,0.986-4.872-0.011-6.597
				c-0.996-1.726-3.396-2.216-3.396-4.257c0-1.215,0.747-1.446,0.784-1.525C31.908,13.402,31.878,12.315,31.878,12.315z"/>
		</g>
		<g>
			<path fill="#A8A8A8" d="M28.986,16.464c0,0-0.473,3.086,1.384,4.92c1.608,1.586,2.674,1.841,2.674,3.597
				c0.04-0.746,0.183-1.71-1.19-2.821C30.482,21.05,29.229,20.665,28.986,16.464z"/>
		</g>
		<g>
			<path fill="#A8A8A8" d="M29.375,21.883c-0.09-0.016-0.056,1.812,0.316,2.784c0.373,0.971,0.843,1.571,1.313,1.879
				c0.065,0.08,0.064,0.437,0.049,0.552c-0.016,0.112-0.843-0.666-1.2-0.698c-0.355-0.031-0.584,0.616-0.648,0.76
				c-0.065,0.146-0.146-0.08-0.146-0.08s0.034,0.626,0.358,0.544c0.325-0.08,0.128-0.637,0.516-0.685
				c0.389-0.049,0.76,0.855,1.592,0.85c0.048-0.064,0.048-1.042,0.048-1.187c0-0.146-0.765-0.364-1.252-1.595
				c-0.485-1.231-0.622-2.341-0.656-2.6C29.635,22.146,29.456,21.899,29.375,21.883z"/>
		</g>
		<g>
			<path fill="#A8A8A8" d="M32.315,13.415c0,0.08,0.668,0.195,1.264,1.41c0.253,0.518,0.362,1.593,0.511,2.157
				c-0.075-1.497-0.33-3.186-1.243-3.65C32.488,13.227,32.315,13.415,32.315,13.415z"/>
		</g>
		<g>
			<path fill="#A8A8A8" d="M32.546,12.212c0.492,0.074,1.172,0.778,1.372,0.82c0,0-0.211,0.025-0.698-0.333
				C32.92,12.476,32.546,12.212,32.546,12.212z"/>
		</g>
		<g>
			<path fill="#A8A8A8" d="M34.472,12.327c-0.08-0.007,0.177,0.225-0.159,0.929c-0.06,0.209,0.09,3.47,0.09,3.769
				c0,0.3-0.271,0.112-0.271,0.112s0.046,0.351,0.332,0.397c0.295,0.048,0.38-0.238,0.38-0.657c0-0.419-0.012-3.527-0.012-3.9
				C34.83,12.51,34.622,12.342,34.472,12.327z"/>
		</g>
		<g>
			<path fill="#A8A8A8" d="M37.496,12.49c-0.125,0-0.516,0.263-0.516,0.516c0,0.253,0,0.247,0,0.464
				c0,0.218-0.485,0.826-0.619,1.762c-0.133,0.936-0.146,1.677-0.17,1.932c-0.024,0.255-0.195,0.121-0.218-0.049
				c-0.025,0.28,0.011,0.673,0.267,0.673c0.255,0,0.386-0.357,0.41-0.899c0.022-0.499,0.267-2.479,0.805-3.042
				C37.528,13.75,37.496,12.49,37.496,12.49z"/>
		</g>
		<g>
			<path fill="#A8A8A8" d="M40.699,12.54c-0.085,0-0.547,0.255-0.547,0.619c0,0.365,0,11.81,0,12.32c0,0.51,0.401,0.778,0.729,0.925
				c0.157,0.084,0.194,0.534-0.146,0.534c-0.341,0-2.746,0-2.989,0c-0.243,0-0.498,0.146-0.523,0.182
				c-0.024,0.037,0.073,0.364,0.632,0.364c0.45,0,2.868-0.005,3.087-0.005c0.219,0,0.56-0.19,0.577-0.638
				c0.018-0.475-0.289-0.565-0.523-0.693c-0.292-0.158-0.292-0.413-0.292-0.752C40.705,25.055,40.699,12.54,40.699,12.54z"/>
		</g>
		<g>
			<path fill="#A8A8A8" d="M46.917,12.528c-0.085,0-0.499,0.268-0.499,0.632c0,0.365,0,11.81,0,12.32c0,0.51,0.402,0.778,0.73,0.925
				c0.158,0.084,0.194,0.534-0.147,0.534c-0.339,0-2.745,0-2.989,0c-0.242,0-0.519,0.159-0.543,0.195
				c-0.024,0.037,0.116,0.375,0.653,0.375c0.449,0,2.7-0.004,2.919-0.004c0.322,0,0.677-0.225,0.677-0.675
				c0-0.449-0.285-0.589-0.519-0.718c-0.279-0.152-0.271-0.376-0.271-0.715C46.929,25.055,46.917,12.528,46.917,12.528z"/>
		</g>
		<g>
			<path fill="#A8A8A8" d="M42.806,12.556c-0.062,0.052-0.559,0.284-0.559,0.624c0,0.34,0.162,3.952,0.162,4.196
				c0,0.243-0.21,0.066-0.243-0.161c-0.016,0.243,0.096,0.567,0.308,0.567c0.211,0,0.364-0.316,0.364-0.721
				C42.838,16.654,42.903,12.476,42.806,12.556z"/>
		</g>
		<g>
			<path fill="#A8A8A8" d="M41.161,13.698c0,0-0.033,0.145,0.13,0.356c0.162,0.211,0.543,0.608,0.641,2.001
				C41.883,15.051,41.696,14.006,41.161,13.698z"/>
		</g>
		<g>
			<path d="M74.076,12.345c-0.134,0-0.218,0.146-0.218,0.244c0,0.097,0,4.289,0,4.592c0,0.304,0.195,0.754,0.546,0.754
				c0.353,0,0.559-0.346,0.571-0.926c0.012-0.582,0.255-2.441,0.74-3.011c0.049-0.134,0.123-0.17,0.123-0.413
				c0-0.242,0-0.729,0-0.923s-0.061-0.316-0.243-0.316C75.413,12.345,74.076,12.345,74.076,12.345z"/>
			<path fill="#434A4A" d="M74.404,18.08c-0.451,0-0.694-0.521-0.694-0.899v-4.592c0-0.184,0.151-0.389,0.366-0.389h1.519
				c0.145,0,0.387,0.06,0.387,0.462v0.923c0,0.208-0.048,0.3-0.09,0.382c-0.013,0.024-0.028,0.049-0.038,0.081l-0.027,0.045
				c-0.437,0.513-0.693,2.278-0.706,2.92C75.107,17.681,74.839,18.08,74.404,18.08z M74.076,12.492
				c-0.038,0-0.072,0.067-0.072,0.097v4.592c0,0.248,0.155,0.608,0.4,0.608c0.37,0,0.421-0.548,0.426-0.783
				c0.009-0.471,0.225-2.421,0.759-3.083c0.014-0.035,0.03-0.065,0.045-0.093c0.033-0.064,0.058-0.11,0.058-0.245v-0.923
				c0-0.17-0.046-0.17-0.098-0.17H74.076z"/>
		</g>
		<g>
			<path d="M76.215,12.345c-0.134,0-0.255,0.097-0.255,0.304c0,0.207,0,12.747,0,13.075c0,0.326-0.729,0.352-0.729,1.045
				c0,0.692,0.389,0.85,0.741,0.85c0.353,0,2.916,0,3.16,0c0.242,0,0.715-0.219,0.715-0.827c0-0.789-0.801-0.619-0.801-1.092
				c0-0.475,0-12.819,0-12.977c0-0.158,0.012-0.377-0.242-0.377C78.549,12.345,76.215,12.345,76.215,12.345z"/>
			<path fill="#434A4A" d="M79.132,27.765h-3.16c-0.564,0-0.886-0.364-0.886-0.996c0-0.488,0.317-0.706,0.527-0.851
				c0.126-0.084,0.202-0.142,0.202-0.194V12.649c0-0.308,0.209-0.449,0.401-0.449h2.589c0.115,0,0.206,0.034,0.276,0.102
				c0.114,0.114,0.113,0.279,0.113,0.401v12.997c0,0.111,0.067,0.158,0.249,0.257c0.233,0.13,0.554,0.306,0.554,0.835
				C79.995,27.456,79.479,27.765,79.132,27.765z M76.215,12.492c-0.094,0-0.11,0.099-0.11,0.158v13.075
				c0,0.21-0.167,0.324-0.328,0.435c-0.198,0.136-0.401,0.276-0.401,0.61c0,0.48,0.189,0.704,0.595,0.704h3.16
				c0.178,0,0.569-0.17,0.569-0.681c0-0.358-0.186-0.461-0.4-0.578c-0.178-0.099-0.4-0.221-0.4-0.514V12.722
				c0.001-0.083,0.001-0.186-0.028-0.215c-0.009-0.01-0.036-0.016-0.069-0.016L76.215,12.492L76.215,12.492z"/>
		</g>
		<g>
			<path d="M79.497,12.345c-0.171,0-0.281,0.17-0.281,0.304c0,0.133,0,0.765,0,1.106c0,0.34,0.559,0.45,0.718,1.823
				c0.158,1.373,0.073,2.357,0.693,2.357c0.327,0,0.546-0.503,0.546-0.792c0-0.291,0-4.3,0-4.445c0-0.146-0.012-0.353-0.352-0.353
				C80.479,12.345,79.497,12.345,79.497,12.345z"/>
			<path fill="#434A4A" d="M80.627,18.08c-0.623,0-0.682-0.703-0.761-1.677c-0.022-0.249-0.042-0.52-0.078-0.809
				c-0.096-0.851-0.353-1.19-0.522-1.413c-0.105-0.138-0.196-0.257-0.196-0.425v-1.106c0-0.213,0.175-0.449,0.427-0.449h1.324
				c0.331,0,0.498,0.168,0.498,0.498v4.445C81.319,17.516,81.043,18.08,80.627,18.08z M79.497,12.492
				c-0.083,0-0.133,0.102-0.133,0.158v1.106c0,0.067,0.044,0.128,0.135,0.249c0.188,0.248,0.472,0.626,0.579,1.556
				c0.034,0.292,0.057,0.567,0.076,0.818c0.078,0.926,0.133,1.41,0.472,1.41c0.212,0,0.4-0.403,0.4-0.646v-4.445
				c0-0.133,0-0.206-0.207-0.206H79.497z"/>
		</g>
		<g>
			<path fill="#A8A8A8" d="M75.697,12.49c-0.125,0-0.517,0.263-0.517,0.516c0,0.253,0,0.247,0,0.464
				c0,0.218-0.484,0.826-0.618,1.762c-0.134,0.936-0.145,1.677-0.171,1.932c-0.024,0.255-0.194,0.121-0.219-0.049
				c-0.024,0.28,0.013,0.673,0.267,0.673c0.256,0,0.386-0.357,0.411-0.899c0.022-0.499,0.268-2.479,0.805-3.042
				C75.728,13.75,75.697,12.49,75.697,12.49z"/>
		</g>
		<g>
			<path fill="#A8A8A8" d="M78.901,12.54c-0.085,0-0.547,0.255-0.547,0.619c0,0.365,0,11.81,0,12.32c0,0.51,0.401,0.778,0.727,0.925
				c0.159,0.084,0.196,0.534-0.144,0.534c-0.341,0-2.746,0-2.99,0c-0.242,0-0.498,0.146-0.522,0.182
				c-0.025,0.037,0.074,0.364,0.632,0.364c0.449,0,2.868-0.005,3.087-0.005c0.22,0,0.559-0.19,0.576-0.638
				c0.019-0.475-0.288-0.565-0.522-0.693c-0.291-0.158-0.291-0.413-0.291-0.752C78.907,25.055,78.901,12.54,78.901,12.54z"/>
		</g>
		<g>
			<path fill="#A8A8A8" d="M81.007,12.556c-0.063,0.052-0.559,0.284-0.559,0.624c0,0.34,0.162,3.952,0.162,4.196
				c0,0.243-0.21,0.066-0.242-0.161c-0.018,0.243,0.097,0.567,0.306,0.567c0.21,0,0.365-0.316,0.365-0.721
				C81.039,16.654,81.104,12.476,81.007,12.556z"/>
		</g>
		<g>
			<path fill="#A8A8A8" d="M79.364,13.698c0,0-0.034,0.145,0.13,0.356c0.16,0.211,0.542,0.608,0.639,2.001
				C80.083,15.051,79.897,14.006,79.364,13.698z"/>
		</g>
		<g>
			<path fill="#A8A8A8" d="M47.388,13.483c0,0-0.066,0.151,0.024,0.296c0.035,0.054,0.211,0.147,0.273,0.213
				c0.292,0.304,0.364,0.525,0.364,0.771c0,0,0.011-0.649-0.171-0.842C47.697,13.729,47.442,13.644,47.388,13.483z"/>
		</g>
		<g>
			<path fill="#A8A8A8" d="M61.198,13.415c0,0-0.024,0.201,0.018,0.304c0.024,0.06,0.341,0.18,0.406,0.244
				c0.293,0.28,0.371,0.653,0.371,0.899c0,0-0.027-0.731-0.191-0.939C61.58,13.64,61.251,13.575,61.198,13.415z"/>
		</g>
		<g>
			<path fill="#A8A8A8" d="M48.257,12.524c0,0,2.017,0.356,2.017,3.928c0,3.095-1.872,3.046-1.872,3.564
				c0,0.39,0.876,0.245,1.329,0.973c0.454,0.727,0.47,1.099,0.47,2.429c0,1.33,0.138,2.001,0.753,1.844
				c-0.065-0.097-0.176-0.079-0.176-0.532c0-0.454-0.007-1.121-0.007-1.996s-0.316-2.164-1.963-2.557
				c-0.113-0.048,0.596-0.234,1.114-0.833c0.519-0.599,0.864-1.573,0.864-2.965C50.785,14.986,50.481,12.88,48.257,12.524z"/>
		</g>
		<g>
			<path fill="#A8A8A8" d="M47.352,20.834c0,0,0.66,0.252,0.652,1.046C48.004,21.88,48,20.249,47.352,20.834z"/>
		</g>
		<g>
			<path fill="#A8A8A8" d="M51.432,24.908c-0.103,0-0.332,2.398-1.62,2.398c-0.729,0-1.596-0.599-1.774-1.911
				c0,0,0.017,2.382,1.823,2.382c0.826,0,1.636-1.151,1.765-2.075C51.707,25.136,51.514,24.908,51.432,24.908z"/>
		</g>
		<g>
			<path fill="#A8A8A8" d="M62.149,12.493c0,0,2.066,0.168,2.066,3.83c0,2.187-1.394,2.77-1.684,2.949
				c-0.292,0.179-0.406,0.55-0.001,0.68c0.405,0.131,1.831,0.34,1.831,3.824c0,0.858-0.169,2.713-1.831,3.095
				c-0.391,0.093-0.634,0.098-0.859,0.122c-0.177,0.02-0.449,0.417-0.449,0.48c0,0.066,0.42,0.065,0.814,0.036
				c0.528-0.036,2.826-0.258,2.826-3.685c0-3.329-1.312-3.814-2.236-4.033c-0.178-0.033,0.106-0.074,0.429-0.186
				c0.324-0.114,1.701-1.047,1.701-3.444C64.757,13.634,63.399,12.549,62.149,12.493z"/>
		</g>
		<g>
			<path fill="#A8A8A8" d="M69.131,12.473c0,0,0.221,0.567-0.158,0.924c-0.38,0.357-0.449,0.621-0.449,1.013
				c0,0.391,0,8.919,0,9.843c0,0.924,0.109,1.811,0.717,2.113c0.085,0.074,0.073,0.172,0.073,0.291c0,0.122,0,0.414,0,0.512
				c0,0.097-0.122,0.119-0.535,0.037c-0.413-0.086-1.902-0.463-2.43-2.692c0,0,0.345,3.372,3.336,3.269
				c0.097,0,0.097-0.171,0.097-0.242c0-0.073,0.018-0.961,0.018-1.022c0-0.126-0.048-0.286-0.212-0.359
				c-0.137-0.06-0.521-0.148-0.521-1.17c0-1.02,0.004-10.53,0.004-10.858c0-0.327,0.561-0.572,0.601-0.869
				C69.726,12.874,69.607,12.541,69.131,12.473z"/>
		</g>
		<g>
			<path fill="#A8A8A8" d="M70.722,13.154c0,0,0.021,0.319,0.445,0.76c0.291,0.304,0.459,0.804,0.491,1.16
				c-0.032-0.924-0.22-1.344-0.446-1.54C70.985,13.34,70.722,13.154,70.722,13.154z"/>
		</g>
		<g>
			<path fill="#A8A8A8" d="M99.787,13.154c0,0,0.021,0.319,0.443,0.76c0.294,0.304,0.461,0.804,0.492,1.16
				c-0.031-0.924-0.22-1.344-0.447-1.54C100.048,13.34,99.787,13.154,99.787,13.154z"/>
		</g>
		<g>
			<path fill="#A8A8A8" d="M72.923,12.503c0,0,0.137,0.417-0.285,0.904c-0.42,0.486-0.599,0.972-0.599,1.588
				c0,0.616,0,7.938,0,8.798c0,0.857-0.389,2.022-1.182,2.996c-0.469,0.535-0.525,0.872-0.525,0.937
				c0,0.064,0.821-0.185,1.351-1.179c0.625-1.172,0.727-2.446,0.727-3.709c0-1.264,0.008-7.051,0.008-7.666
				c0-0.723,0.503-1.299,0.772-1.646C73.561,13.045,73.198,12.553,72.923,12.503z"/>
		</g>
		<g>
			<path fill="#A8A8A8" d="M89.941,12.225c-0.059-0.046-0.467,0.372-0.467,0.623c0,0.251-0.026,0.292-0.164,0.471
				c-0.136,0.178-0.437,0.494-0.437,2.001s0,9.007,0,9.687c0,0.68,0.107,1.165,0.519,1.588c0.069,0.089,0.049,0.22,0.049,0.299
				c0,0.08,0.015,0.249-0.15,0.192c-0.205-0.07-2.339-0.896-2.849-6.193c0,0,0.024,1.277,0.405,2.802
				c0.464,1.846,1.424,4.007,3.07,4.034c0.116,0.042,0.048-0.926,0.048-1.054c0-0.357-0.541-0.283-0.541-1.256
				c0-0.972,0-10.333,0-10.965c0-0.729,0.534-0.905,0.534-1.063C89.957,13.232,89.994,12.266,89.941,12.225z"/>
		</g>
		<g>
			<path fill="#A8A8A8" d="M90.517,13.216c0,0,0,0.079,0,0.189c0,0.11,0.475,0.302,0.534,0.94
				C91.05,13.856,90.974,13.455,90.517,13.216z"/>
		</g>
		<g>
			<path fill="#A8A8A8" d="M90.857,12.261c-0.063-0.022,2.729,1.065,2.729,7.739c0,5.784-2.074,6.804-2.3,6.934
				c-0.228,0.131-0.833,0.705-0.753,0.786c0.082,0.082,1.596-0.008,2.729-2.55c0.581-1.304,0.81-3.639,0.81-5.073
				C94.071,16.624,93.371,13.127,90.857,12.261z"/>
		</g>
		<g>
			<path fill="#A8A8A8" d="M95.719,16.803c0,0,0.275,1.246,0.275,1.538c0,0.292-0.014,5.632-0.014,6.507
				c0,0.875,0.377,1.391,0.588,1.6c0.209,0.21,0.172,0.567-0.118,0.567c-0.293,0-1.038,0-1.264,0c-0.228,0-0.449,0.101-0.467,0.167
				c-0.016,0.063,0.244,0.315,0.487,0.315c0.244,0,1.119,0.025,1.459,0.025c0.339,0,0.62-0.26,0.62-0.485
				c0-0.227,0.007-0.475-0.365-0.864c-0.373-0.389-0.588-0.907-0.588-1.54c0-0.632,0.027-6.01,0.027-6.01L95.719,16.803z"/>
		</g>
		<g>
			<path fill="#A8A8A8" d="M94.664,13.235c0,0-0.06,0.271,0.387,0.586c0.238,0.168,0.364,0.328,0.525,0.863
				c0.163,0.535,4.041,12.279,4.041,12.279s-3.885-12.381-4.128-12.964C95.247,13.416,94.922,13.656,94.664,13.235z"/>
		</g>
		<g>
			<path fill="#A8A8A8" d="M98.152,12.509c-0.085,0-0.26,0.214-0.285,0.335c-0.025,0.121,0.06,0.389,0.292,1.106
				c0.23,0.717,2.71,8.409,2.734,8.481c0.025,0.073,0,4.277,0,4.349c0,0.073,0.025,0.172-0.122,0.172s-0.377,0-0.473,0
				c-0.269,0-0.692,0.565-0.402,0.565c0.294,0,1.251,0,1.336,0c0.178,0,0.236-0.148,0.236-0.283c0-0.134,0.013-4.556,0.009-4.641
				C101.46,22.334,98.152,12.509,98.152,12.509z"/>
		</g>
		<g>
			<path fill="#A8A8A8" d="M101.934,12.482c-0.041-0.009,0.22,0.401-0.206,0.9c-0.426,0.498-0.548,0.875-0.548,1.325
				c0,0.45,0,4.057,0,4.313c0,0.254,0.304,1.555,0.304,1.555s0-4.645,0-5.289c0-0.813,0.498-1.454,0.742-1.709
				C102.469,13.322,102.566,12.629,101.934,12.482z"/>
		</g>
		<g>
			<path fill="#A8A8A8" d="M105.765,12.558c-0.063,0-0.381,0.136-0.596,0.731c-0.062,0.153-0.83,0.538-1.198,1.324
				c-0.368,0.786-0.332,1.296-0.449,2.073c-0.054,0.349-0.326,0.25-0.378,0.098c0,0-0.016,0.341,0.267,0.341
				c0.268,0,0.34-0.462,0.438-1.11c0.174-1.156,0.736-1.863,1.585-2.206C105.6,13.671,105.765,12.558,105.765,12.558z"/>
		</g>
		<g>
			<path fill="#A8A8A8" d="M108.984,12.566c-0.09-0.015-0.495,0.285-0.495,0.435c0,0.15,0,0.63,0,0.811
				c0,0.18-3.202,12.864-3.249,12.986c-0.049,0.12-0.147,0.169-0.269,0.169c-0.122,0-1.263,0-1.506,0
				c-0.242,0-0.789,0.541-0.547,0.541c0.244,0,2.318,0.009,2.463,0.009s0.186-0.048,0.233-0.228
				c0.049-0.177,3.33-13.321,3.361-13.482C109.007,13.645,108.984,12.566,108.984,12.566z"/>
		</g>
		<g>
			<path fill="#A8A8A8" d="M108.736,22.843c-0.081,0.052-0.212,1.66-0.212,1.986c0,0.324,0,1.862,0,1.96
				c0,0.096-0.032,0.145-0.178,0.145c-0.146,0-1.506,0-1.652,0c-0.147,0-0.779,0.583-0.552,0.583c0.227,0,2.608,0,2.721,0
				c0.114,0,0.145-0.113,0.145-0.242c0-0.13,0-3.355,0-3.727C109.009,23.175,108.853,22.769,108.736,22.843z"/>
		</g>
		<g>
			<path fill="#A8A8A8" d="M57.225,13.032c0,0-0.054,0.443,0.279,0.686c0.307,0.225,0.366,0.283,0.403,0.556
				c0.037-0.397,0.173-0.765-0.256-0.926C57.223,13.188,57.225,13.032,57.225,13.032z"/>
		</g>
		<g>
			<path fill="#A8A8A8" d="M60.78,12.629c0-0.065-0.025-0.114-0.122-0.114c-0.097,0-0.372,0.324-0.413,0.413
				c-0.04,0.089,0,2.276,0,3.475c0,1.2,0,10.206,0,10.304c0,0.097,0.004,0.169-0.178,0.169c-0.183,0-1.944,0-2.138,0
				c-0.195,0-0.608,0-0.608,0.172c0,0.17,0.219,0.473,0.644,0.473c0.24,0,2.144,0,2.677,0c0.087,0,0.138-0.038,0.138-0.117
				C60.78,23.71,60.78,12.629,60.78,12.629z"/>
		</g>
		<g>
			<path fill="#A8A8A8" d="M61.228,20.359c0,0,0.249,0.121,0.425,0.224c0.176,0.104,0.352,0.316,0.352,0.802
				c0,0,0.039-0.428,0-0.612C61.945,20.475,61.58,20.359,61.228,20.359z"/>
		</g>
		<g>
			<path fill="#151515" d="M16.551,13.832c0,0,0,10.869,0,11.331c0,0.46-0.071,0.53-0.071,0.53s0-11.251,0-11.378
				C16.481,14.187,16.547,13.995,16.551,13.832z"/>
		</g>
		<g>
			<path d="M124.014,19.502c-0.546-0.157-2.209-0.668-3.511-2.004c-1.3-1.336-2.028-2.722-2.307-3.731
				c-0.086-0.316-0.125-0.31-0.305-0.31c-0.109,0-0.18,0-0.18,0c-0.156,0-0.261,1.538-2.269,3.806
				c-2.01,2.268-4.088,2.205-4.088,2.501c0,0.116,0,0.118,0,0.34c0,0.221,2.319,0.519,3.926,2.262
				c1.732,1.879,2.088,3.235,2.283,3.952c0.038,0.135,0.087,0.22,0.255,0.22c0.17,0,0.269,0.036,0.341-0.257
				c0.073-0.292,0.9-2.489,2.296-3.825c1.398-1.338,2.211-1.702,3.608-2.128c0.402-0.098,0.475-0.134,0.475-0.389
				C124.537,19.684,124.562,19.66,124.014,19.502z M119.088,21.24c-0.184,0.183-1.047,2.346-1.208,3.759
				c-0.41-2.14-0.98-3.417-1.344-3.827c-0.545-0.614-3.826-1.207-3.826-1.207s3.605-0.907,3.893-1.229
				c0.618-0.684,1.254-3.827,1.254-3.827c0.249,1.639,1.117,3.69,1.231,3.805c0.114,0.112,2.437,0.977,3.964,1.229
				C120.683,20.353,119.27,21.059,119.088,21.24z"/>
			<path fill="#434A4A" d="M117.914,26.685L117.914,26.685l-0.096-0.002c-0.306,0-0.369-0.228-0.395-0.325
				c-0.199-0.734-0.558-2.057-2.25-3.892c-1.097-1.19-2.54-1.692-3.314-1.964c-0.472-0.165-0.65-0.227-0.65-0.397v-0.34
				c0-0.196,0.213-0.261,0.597-0.38c0.749-0.229,2.142-0.655,3.527-2.219c1.46-1.649,1.904-2.911,2.093-3.451
				c0.097-0.276,0.142-0.404,0.287-0.404h0.18c0.289,0,0.359,0.099,0.446,0.418c0.153,0.559,0.687,2.036,2.271,3.667
				c0.599,0.616,1.684,1.458,3.449,1.965c0.526,0.152,0.63,0.212,0.627,0.547c0,0.403-0.19,0.466-0.585,0.562
				c-1.352,0.411-2.144,0.754-3.542,2.092c-1.388,1.325-2.189,3.494-2.257,3.756C118.235,26.583,118.126,26.685,117.914,26.685z
				 M111.502,20.051c0.074,0.042,0.266,0.109,0.453,0.175c0.799,0.278,2.286,0.799,3.432,2.04c1.741,1.889,2.112,3.258,2.312,3.995
				c0.036,0.126,0.048,0.131,0.12,0.131l0.096,0.001c0.037,0,0.046-0.005,0.047-0.005s0.026-0.019,0.057-0.14
				c0.067-0.273,0.901-2.527,2.337-3.899c1.379-1.32,2.211-1.717,3.668-2.16c0.37-0.092,0.37-0.094,0.37-0.25
				c0.001-0.176,0.001-0.176-0.417-0.297c-1.825-0.527-2.951-1.403-3.576-2.043c-1.149-1.182-2.004-2.564-2.343-3.792
				c-0.042-0.156-0.065-0.195-0.073-0.205c-0.005,0-0.049,0-0.071,0h-0.133c-0.022,0.048-0.049,0.13-0.079,0.209
				c-0.194,0.556-0.65,1.856-2.149,3.548c-1.439,1.626-2.937,2.085-3.66,2.305c-0.154,0.048-0.328,0.101-0.389,0.137L111.502,20.051
				L111.502,20.051z M117.918,25.969l-0.181-0.943c-0.384-2.01-0.934-3.334-1.31-3.756c-0.42-0.473-2.846-0.998-3.743-1.162
				l-0.665-0.119l0.655-0.165c1.746-0.44,3.652-1.003,3.822-1.187c0.483-0.535,1.043-2.894,1.218-3.757l0.164-0.803l0.123,0.809
				c0.244,1.583,1.066,3.559,1.196,3.731c0.169,0.115,2.407,0.94,3.878,1.181l0.854,0.14l-0.852,0.147
				c-2.383,0.414-3.735,1.108-3.886,1.258c-0.154,0.168-1.006,2.268-1.166,3.671L117.918,25.969z M113.371,19.946
				c1.007,0.209,2.848,0.649,3.276,1.13c0.325,0.369,0.818,1.401,1.22,3.151c0.296-1.33,0.927-2.896,1.118-3.088
				c0.204-0.204,1.41-0.791,3.321-1.2c-1.429-0.339-3.179-0.981-3.321-1.124c-0.131-0.13-0.794-1.693-1.137-3.187
				c-0.228,0.978-0.68,2.699-1.135,3.204C116.469,19.104,114.475,19.656,113.371,19.946z"/>
		</g>
		<g>
			<path fill="#A8A8A8" d="M117.825,14.189c0,0-0.863,2.101-1.509,3.689c-0.114,0.324-0.259,0.356-0.47,0.454
				c-0.21,0.097-3.933,1.619-3.933,1.619s4.289-1.069,4.565-1.377C116.925,18.074,117.468,15.955,117.825,14.189z"/>
		</g>
		<g>
			<path fill="#A8A8A8" d="M112.849,20.178c0,0,2.77,0.503,3.515,1.086c0.243,0.162,1.004,1.81,1.411,4.116
				c-0.292-0.47-1.328-3.581-1.603-3.905C115.895,21.15,114.875,20.713,112.849,20.178z"/>
		</g>
		<g>
			<path fill="#A8A8A8" d="M118.025,14.763c0,0,0.576,2.369,1.239,3.488c0.13,0.21,2.901,1.069,4.328,1.571
				c-1.038-0.13-3.421-0.744-4.359-1.264C118.997,18.068,118.317,16.546,118.025,14.763z"/>
		</g>
		<g>
			<path fill="#A8A8A8" d="M117.958,13.622c0,0,0.392,2.342,1.829,3.808c1.436,1.468,4.412,2.344,4.412,2.344
				s-2.766-0.892-4.232-2.585C118.5,15.496,117.958,13.622,117.958,13.622z"/>
		</g>
		<g>
			<path fill="#A8A8A8" d="M124.2,20.061c0,0-2.72,0.407-4.187,1.918c-1.467,1.512-1.814,2.858-2.1,4.4
				c0.573-1.527,1.084-2.885,2.348-4.071C121.686,20.972,122.508,20.59,124.2,20.061z"/>
		</g>
		<g>
			<path fill="#A8A8A8" d="M117.539,25.663c0,0-0.28-1.505-2.097-3.385c-1.466-1.515-2.411-1.651-3.795-2.21
				c1.791,0.444,2.928,1.124,3.826,2.022C116.374,22.989,117.271,24.253,117.539,25.663z"/>
		</g>
		
			<radialGradient id="SVGID_2_" cx="6.6788" cy="1462.0459" r="5.1087" gradientTransform="matrix(1 0 0 -1 0 1482)" gradientUnits="userSpaceOnUse">
			<stop  offset="0" style="stop-color:#000000"/>
			<stop  offset="0.184" style="stop-color:#555555"/>
			<stop  offset="0.3942" style="stop-color:#B0B0B0"/>
			<stop  offset="0.5421" style="stop-color:#E9E9E9"/>
			<stop  offset="0.6129" style="stop-color:#FFFFFF"/>
		</radialGradient>
		<path fill="url(#SVGID_2_)" d="M7.886,21.24c-0.182,0.183-1.048,2.346-1.207,3.759c-0.41-2.14-0.98-3.417-1.344-3.827
			c-0.547-0.614-3.828-1.207-3.828-1.207s3.604-0.907,3.895-1.229c0.615-0.684,1.253-3.827,1.253-3.827
			c0.251,1.639,1.116,3.69,1.23,3.805c0.114,0.112,2.438,0.977,3.964,1.229C9.481,20.353,8.068,21.059,7.886,21.24z"/>
		<g>
			<path d="M12.814,19.502c-0.547-0.157-2.212-0.668-3.512-2.004c-1.3-1.336-2.029-2.722-2.308-3.731
				c-0.085-0.316-0.123-0.31-0.304-0.31c-0.11,0-0.181,0-0.181,0c-0.156,0-0.262,1.538-2.27,3.806
				c-2.008,2.268-4.087,2.205-4.087,2.501c0,0.116,0,0.118,0,0.34c0,0.221,2.318,0.519,3.926,2.262
				c1.733,1.879,2.09,3.235,2.283,3.952c0.036,0.135,0.085,0.22,0.255,0.22c0.171,0,0.268,0.036,0.34-0.257
				c0.073-0.292,0.9-2.489,2.297-3.825c1.398-1.338,2.212-1.702,3.609-2.128c0.401-0.098,0.474-0.134,0.474-0.389
				C13.336,19.684,13.361,19.66,12.814,19.502z M7.886,21.24c-0.182,0.183-1.048,2.346-1.207,3.759
				c-0.41-2.14-0.98-3.417-1.344-3.827c-0.547-0.614-3.828-1.207-3.828-1.207s3.604-0.907,3.895-1.229
				c0.615-0.684,1.253-3.827,1.253-3.827c0.251,1.639,1.116,3.69,1.23,3.805c0.114,0.112,2.438,0.977,3.964,1.229
				C9.481,20.353,8.068,21.059,7.886,21.24z"/>
			<path fill="#434A4A" d="M6.711,26.685L6.711,26.685l-0.094-0.002c-0.306,0-0.369-0.228-0.395-0.325
				c-0.198-0.734-0.558-2.057-2.25-3.892c-1.098-1.19-2.54-1.692-3.315-1.964c-0.472-0.165-0.649-0.227-0.649-0.397v-0.34
				c0-0.196,0.212-0.261,0.598-0.38c0.748-0.229,2.141-0.655,3.526-2.219c1.46-1.649,1.903-2.911,2.092-3.451
				c0.098-0.276,0.141-0.404,0.286-0.404h0.181c0.288,0,0.358,0.099,0.444,0.418c0.155,0.559,0.687,2.036,2.272,3.667
				c0.599,0.616,1.683,1.458,3.447,1.965c0.527,0.152,0.63,0.212,0.628,0.547c0,0.403-0.191,0.466-0.585,0.562
				c-1.351,0.411-2.145,0.754-3.543,2.092c-1.386,1.325-2.19,3.494-2.256,3.756C7.032,26.583,6.924,26.685,6.711,26.685z
				 M0.299,20.051c0.075,0.042,0.267,0.109,0.453,0.175c0.8,0.278,2.286,0.799,3.433,2.04c1.741,1.889,2.112,3.258,2.312,3.995
				c0.035,0.126,0.048,0.131,0.12,0.131l0.094,0.001c0.038,0,0.047-0.005,0.048-0.005c0,0,0.028-0.019,0.057-0.14
				c0.068-0.273,0.902-2.527,2.337-3.899c1.38-1.32,2.211-1.717,3.668-2.16c0.37-0.092,0.37-0.094,0.37-0.25
				c0.001-0.176,0.001-0.176-0.417-0.297c-1.825-0.527-2.952-1.403-3.575-2.043c-1.15-1.182-2.005-2.564-2.344-3.792
				c-0.042-0.156-0.064-0.195-0.073-0.205c-0.005,0-0.049,0-0.072,0H6.576c-0.02,0.048-0.049,0.13-0.077,0.209
				c-0.194,0.556-0.651,1.856-2.149,3.548c-1.439,1.626-2.938,2.085-3.66,2.305c-0.155,0.048-0.329,0.101-0.391,0.137L0.299,20.051
				L0.299,20.051z M6.716,25.969l-0.18-0.943c-0.385-2.01-0.936-3.334-1.31-3.756c-0.42-0.473-2.845-0.998-3.744-1.162l-0.666-0.119
				l0.655-0.165c1.746-0.44,3.652-1.003,3.823-1.187c0.482-0.535,1.043-2.894,1.218-3.757l0.163-0.803L6.8,14.886
				c0.242,1.583,1.064,3.559,1.195,3.731c0.169,0.115,2.408,0.94,3.878,1.181l0.854,0.14l-0.853,0.147
				c-2.383,0.414-3.735,1.108-3.884,1.258c-0.152,0.168-1.007,2.268-1.166,3.671L6.716,25.969z M2.169,19.946
				c1.007,0.209,2.847,0.649,3.276,1.13c0.327,0.369,0.82,1.401,1.221,3.151c0.296-1.33,0.926-2.896,1.117-3.088
				c0.204-0.204,1.409-0.791,3.321-1.2c-1.428-0.339-3.179-0.981-3.321-1.124c-0.131-0.13-0.793-1.693-1.136-3.187
				c-0.228,0.978-0.679,2.699-1.135,3.204C5.268,19.104,3.273,19.656,2.169,19.946z"/>
		</g>
		<g>
			<path fill="#A8A8A8" d="M6.622,14.189c0,0-0.861,2.101-1.508,3.689c-0.113,0.324-0.259,0.356-0.47,0.454
				c-0.21,0.097-3.932,1.619-3.932,1.619s4.289-1.069,4.564-1.377C5.725,18.074,6.266,15.955,6.622,14.189z"/>
		</g>
		<g>
			<path fill="#A8A8A8" d="M1.648,20.178c0,0,2.77,0.503,3.515,1.086c0.243,0.162,1.005,1.81,1.41,4.116
				c-0.293-0.47-1.33-3.581-1.605-3.905C4.693,21.15,3.673,20.713,1.648,20.178z"/>
		</g>
		<g>
			<path fill="#A8A8A8" d="M6.824,14.763c0,0,0.575,2.369,1.239,3.488c0.13,0.21,2.9,1.069,4.326,1.571
				c-1.037-0.13-3.419-0.744-4.358-1.264C7.796,18.068,7.115,16.546,6.824,14.763z"/>
		</g>
		<g>
			<path fill="#A8A8A8" d="M6.756,13.622c0,0,0.392,2.342,1.828,3.808c1.436,1.468,4.414,2.344,4.414,2.344
				s-2.767-0.892-4.232-2.585C7.299,15.496,6.756,13.622,6.756,13.622z"/>
		</g>
		<g>
			<path fill="#A8A8A8" d="M12.999,20.061c0,0-2.721,0.407-4.187,1.918c-1.467,1.512-1.814,2.858-2.101,4.4
				c0.574-1.527,1.085-2.885,2.349-4.071C10.485,20.972,11.306,20.59,12.999,20.061z"/>
		</g>
		<g>
			<path fill="#A8A8A8" d="M6.338,25.663c0,0-0.279-1.505-2.098-3.385c-1.465-1.515-2.41-1.651-3.795-2.21
				c1.791,0.444,2.928,1.124,3.827,2.022C5.171,22.989,6.07,24.253,6.338,25.663z"/>
		</g>
		<g>
			<rect x="6.48" y="10.174" fill="#434A4A" width="111.78" height="0.859"/>
		</g>
		<g>
			<rect x="6.48" y="10.612" fill="#A8A8A8" width="111.78" height="0.421"/>
		</g>
		<g>
			<rect y="28.968" fill="#434A4A" width="125" height="0.858"/>
		</g>
		<g>
			<rect y="29.405" fill="#A8A8A8" width="125" height="0.421"/>
		</g>
	</g>
</g>
</svg>
