<?xml version="1.0" encoding="utf-8"?>
<!-- Generator: Adobe Illustrator 19.2.0, SVG Export Plug-In . SVG Version: 6.00 Build 0)  -->
<svg version="1.1" xmlns="http://www.w3.org/2000/svg" xmlns:xlink="http://www.w3.org/1999/xlink" x="0px" y="0px"
	 viewBox="0 0 125 40" enable-background="new 0 0 125 40" xml:space="preserve">
<g id="bg" display="none">
	<rect display="inline" fill="#FFFFFF" width="125" height="40"/>
</g>
<g id="icons">
	<g>
		<path fill-rule="evenodd" clip-rule="evenodd" fill="#053C71" d="M20.5,11.328c0.208-0.08,0.381-0.203,0.552-0.204
			c2.294-0.013,4.589-0.009,6.777-0.009c0.45,0.249,0.37,0.58,0.37,0.88c-0.003,2.045-0.014,4.091-0.016,6.136
			c-0.005,2.41-0.002,4.82-0.001,7.229c0,0.141-0.001,0.281,0.006,0.42c0.046,1.138,0.534,1.623,1.663,1.642
			c0.505,0.009,1.009-0.012,1.512,0.007c0.266,0.011,0.532,0.077,0.868,0.13c0.055,1.788,0.047,3.51,0.009,5.196
			c-0.64,0.275-2.921,0.343-5.238,0.192c-0.343-0.178-0.305-0.497-0.305-0.805c0.002-1.541,0.001-3.083,0.001-4.624
			c0-2.241,0.001-4.483-0.001-6.724c-0.001-0.28,0.014-0.565-0.035-0.838c-0.13-0.735-0.566-1.123-1.32-1.157
			c-0.643-0.028-1.29-0.026-1.933-0.003c-0.804,0.029-1.286,0.481-1.385,1.288c-0.037,0.304-0.022,0.615-0.022,0.924
			c-0.001,3.643,0.002,7.285-0.005,10.928c0,0.32-0.061,0.641-0.097,0.998c-2.491,0-4.89,0-7.261,0
			c-0.359-0.349-0.247-0.764-0.247-1.143c-0.008-3.951-0.006-7.902-0.006-11.853c0-1.177,0.013-2.354-0.007-3.531
			c-0.007-0.296-0.088-0.601-0.184-0.885c-0.171-0.509-0.563-0.746-1.089-0.755c-0.644-0.01-1.291,0.022-1.932-0.018
			c-0.928-0.057-1.421,0.679-1.442,1.484c-0.019,0.728-0.017,1.456-0.019,2.185c0,4.511,0.002,9.023-0.005,13.534
			c0,0.319-0.066,0.636-0.105,0.986c-3.174,0-6.249,0-9.422,0c-0.057-0.274-0.168-0.559-0.17-0.845
			C-0.002,29.489,0.007,26.882,0,24.277c0-0.354,0.025-0.674,0.471-0.902c1.817,0,3.719,0,5.622-0.001
			c0.253,0,0.509,0.019,0.756-0.016c0.88-0.122,1.342-0.614,1.358-1.517c0.027-1.484,0.012-2.969,0.012-4.455
			c0.001-3.332,0.001-6.665,0.001-10.093C8.466,7.216,8.714,7.077,8.965,7.07c1.929-0.049,3.859-0.083,5.788-0.096
			c0.346-0.002,0.695,0.118,1.111,0.195c0.018,0.364,0.045,0.661,0.045,0.959c-0.005,5.043-0.011,10.087-0.016,15.131
			c-0.001,0.308-0.02,0.622,0.032,0.923c0.096,0.556,0.362,0.973,0.977,1.11c0.889,0.197,1.772,0.204,2.654-0.014
			c0.593-0.147,0.888-0.553,0.941-1.137c0.032-0.334,0.02-0.672,0.02-1.008c-0.005-3.614-0.011-7.229-0.018-10.843
			C20.499,12.009,20.5,11.729,20.5,11.328z"/>
		<path fill-rule="evenodd" clip-rule="evenodd" fill="#043B71" d="M60.682,32.956c-1.11,0-2.198,0-3.399,0
			c-0.134-0.132-0.311-0.305-0.484-0.475c0-0.467,0-0.857,0-1.247c0-2.942-0.019-5.885,0.008-8.826
			c0.018-1.809-0.813-1.938-2.012-2.022c-0.055-0.004-0.113-0.004-0.167,0c-1.404,0.097-1.902,0.466-1.898,1.957
			c0.009,3.026,0.005,6.053,0.005,9.079c0,0.224,0.023,0.452-0.012,0.671c-0.096,0.609-0.386,0.867-1.019,0.882
			c-0.729,0.019-1.457,0.015-2.186,0.005c-0.86-0.012-1.129-0.288-1.129-1.182c-0.007-2.69-0.003-5.38-0.003-8.07
			c0-0.533,0.019-1.066-0.006-1.597c-0.047-1.093-0.441-1.602-1.462-1.678c-0.548-0.041-1.117-0.022-1.652,0.087
			c-0.58,0.118-0.851,0.599-0.919,1.169c-0.034,0.277-0.02,0.56-0.02,0.839c-0.001,3.027-0.003,6.054,0.002,9.08
			c0.001,0.529-0.077,1.005-0.624,1.326c-1.048,0-2.138,0-3.183,0c-0.534-0.249-0.578-0.674-0.577-1.149
			c0.011-2.521,0.006-5.044,0.006-7.566c0-2.214-0.001-4.427,0-6.641c0-1.286,0.166-1.456,1.438-1.456
			c4.765-0.002,9.527-0.001,14.292-0.001c1.4,0.001,2.803,0.041,4.201-0.015c0.844-0.034,1.414,0.49,1.41,1.377
			c-0.015,4.68-0.011,9.359-0.026,14.039C61.264,32.049,61.162,32.54,60.682,32.956z"/>
		<path fill-rule="evenodd" clip-rule="evenodd" fill="#043B71" d="M120.477,21.008c-0.225-0.208-0.467-0.433-0.758-0.701
			c-0.368,0-0.757,0-1.147,0c-3.192,0-6.386,0.006-9.578-0.006c-0.409-0.002-0.818-0.096-1.113-0.134
			c-0.403-0.346-0.496-0.671-0.485-1.062c0.019-0.755,0.006-1.512,0.006-2.221c0.247-0.587,0.676-0.751,1.233-0.749
			c4.509,0.02,9.018,0.029,13.527,0.042c0.532,0.001,1.063-0.01,1.595,0.006c0.841,0.025,1.126,0.265,1.148,1.085
			c0.055,1.956,0.101,3.913,0.095,5.869c-0.006,2.881-0.059,5.762-0.085,8.643c-0.005,0.461,0.007,0.912-0.64,1.201
			c-0.169,0-0.474,0-0.781,0c-4.902,0-9.803,0-14.704-0.001c-0.167,0-0.337,0.011-0.504-0.006c-0.525-0.05-0.803-0.322-0.862-0.849
			c-0.02-0.195-0.006-0.392-0.006-0.588c-0.001-2.352-0.001-4.705,0-7.058c0-1.421,0.204-1.624,1.666-1.626
			c3.165-0.003,6.33,0,9.494-0.006c0.278,0,0.56-0.008,0.834-0.059c0.801-0.15,1.088-0.507,1.092-1.315
			C120.505,21.337,120.489,21.198,120.477,21.008z M120.494,26.972c-0.687-0.761-0.912-0.877-1.876-0.885
			c-1.596-0.012-3.192-0.011-4.79,0.003c-0.33,0.003-0.671,0.058-0.989,0.149c-0.665,0.19-1.038,0.727-1.002,1.372
			c0.034,0.649,0.541,1.206,1.21,1.31c0.22,0.034,0.448,0.028,0.672,0.028c1.679,0.003,3.36,0.002,5.041,0.001
			c0.167,0,0.337,0.003,0.505-0.015c0.814-0.084,1.26-0.564,1.271-1.37C120.539,27.371,120.51,27.176,120.494,26.972z"/>
		<path fill-rule="evenodd" clip-rule="evenodd" fill="#043B71" d="M66.172,32.941c-0.582-0.334-0.614-0.853-0.613-1.402
			c0.006-3.164,0.007-6.328,0.002-9.492c-0.003-1.484-0.034-2.967-0.025-4.451c0.005-0.376,0.113-0.752,0.158-1.023
			c0.409-0.375,0.779-0.439,1.184-0.438c4.929,0.006,9.856,0.002,14.784,0.01c0.269,0.001,0.544,0.075,0.809,0.147
			c0.33,0.09,0.501,0.331,0.524,0.673c0.018,0.279,0.048,0.557,0.048,0.836c-0.005,4.592-0.016,9.183-0.023,13.775
			c-0.001,0.251,0,0.502,0,0.755c-0.176,0.209-0.337,0.399-0.515,0.609C77.071,32.941,71.644,32.941,66.172,32.941z M74.321,20.511
			v0.001c-0.981,0-1.963-0.039-2.941,0.011c-1.122,0.057-1.305,0.608-1.455,1.407c-0.036,0.19-0.014,0.391-0.014,0.587
			c-0.001,1.149-0.001,2.298,0,3.446c0.001,0.42-0.018,0.842,0.017,1.26c0.066,0.763,0.4,1.188,1.034,1.361
			c0.215,0.058,0.435,0.132,0.654,0.134c1.765,0.011,3.533,0.055,5.295-0.008c1.288-0.045,1.716-0.519,1.749-1.849
			c0.04-1.595,0.026-3.193-0.016-4.788c-0.028-1.094-0.519-1.535-1.635-1.558C76.113,20.497,75.218,20.511,74.321,20.511z"/>
		<path fill-rule="evenodd" clip-rule="evenodd" fill="#043B71" d="M87.643,16.298c0.442-0.055,0.851-0.151,1.259-0.152
			c4.509-0.011,9.018-0.007,13.527-0.007c0.139,0,0.282-0.007,0.421,0.002c0.794,0.045,1.046,0.298,1.055,1.079
			c0.007,0.729,0.007,1.456,0,2.184c-0.009,0.831-0.265,1.098-1.106,1.101c-2.912,0.007-5.826,0-8.738,0.006
			c-0.36,0.001-0.726,0.02-1.079,0.086c-0.578,0.108-0.941,0.474-1.044,1.058c-0.067,0.382-0.131,0.77-0.134,1.157
			c-0.01,2.912-0.006,5.825-0.006,8.738c0,0.225,0.014,0.45-0.011,0.672c-0.047,0.451-0.294,0.727-0.757,0.74
			c-0.95,0.028-1.904,0.03-2.854-0.003c-0.448-0.015-0.709-0.303-0.768-0.749c-0.04-0.304-0.032-0.614-0.032-0.923
			c-0.003-2.1,0.01-4.201-0.006-6.301c-0.016-2.322-0.059-4.643-0.09-6.964C87.273,17.462,87.357,16.922,87.643,16.298z"/>
		<path fill-rule="evenodd" clip-rule="evenodd" fill="none" d="M120.494,26.972c0.016,0.204,0.045,0.399,0.043,0.593
			c-0.011,0.807-0.457,1.286-1.271,1.37c-0.167,0.017-0.337,0.015-0.505,0.015c-1.681,0.001-3.362,0.002-5.041-0.001
			c-0.224,0-0.452,0.006-0.672-0.028c-0.67-0.104-1.176-0.661-1.21-1.31c-0.036-0.644,0.337-1.182,1.002-1.372
			c0.318-0.091,0.658-0.146,0.989-0.149c1.597-0.015,3.194-0.015,4.79-0.003C119.582,26.095,119.807,26.211,120.494,26.972z"/>
		<path fill-rule="evenodd" clip-rule="evenodd" fill="none" d="M74.321,20.511c0.897,0,1.793-0.015,2.689,0.003
			c1.115,0.023,1.606,0.464,1.635,1.558c0.042,1.595,0.055,3.193,0.016,4.788c-0.033,1.33-0.46,1.804-1.749,1.849
			c-1.762,0.063-3.531,0.019-5.295,0.008c-0.218-0.001-0.439-0.075-0.654-0.134c-0.634-0.173-0.968-0.598-1.034-1.361
			c-0.035-0.417-0.016-0.839-0.017-1.26c-0.001-1.149-0.001-2.297,0-3.446c0-0.196-0.023-0.398,0.014-0.587
			c0.149-0.799,0.333-1.35,1.455-1.407c0.978-0.05,1.96-0.011,2.941-0.011C74.321,20.513,74.321,20.512,74.321,20.511z"/>
	</g>
</g>
</svg>
