<?xml version="1.0" encoding="utf-8"?>
<!-- Generator: Adobe Illustrator 20.1.0, SVG Export Plug-In . SVG Version: 6.00 Build 0)  -->
<svg version="1.1" id="logos" xmlns="http://www.w3.org/2000/svg" xmlns:xlink="http://www.w3.org/1999/xlink" x="0px" y="0px"
	 viewBox="0 0 125 40" enable-background="new 0 0 125 40" xml:space="preserve">
<g>
	<g>
		<path d="M87.507,11.54h-2.505c-0.382,0-0.692,0.31-0.692,0.693v10.004c0,1.504-1.22,2.722-2.723,2.723
			c-1.504,0-2.722-1.22-2.722-2.723V12.232c0-0.382-0.31-0.693-0.693-0.693h-2.505c-0.382,0-0.692,0.31-0.692,0.693v10.393
			c0,3.437,2.786,6.224,6.223,6.224h0.778c3.437,0,6.224-2.787,6.224-6.224V12.232C88.2,11.85,87.89,11.54,87.507,11.54"/>
		<path d="M71.948,11.54h-3.005c-0.24,0-0.461,0.126-0.584,0.332l-4.178,6.993l-4.177-6.993c-0.123-0.206-0.345-0.332-0.584-0.332
			h-3.005c-0.382,0-0.693,0.31-0.693,0.693v15.535c0,0.382,0.31,0.693,0.693,0.693h2.505c0.382,0,0.693-0.31,0.693-0.693v-9.717
			l3.696,6.188c0.123,0.205,0.345,0.332,0.584,0.332h0.579c0.24,0,0.462-0.126,0.584-0.332l3.697-6.188v9.717
			c0,0.382,0.309,0.693,0.692,0.693h2.505c0.382,0,0.693-0.31,0.693-0.693V12.232C72.641,11.85,72.331,11.54,71.948,11.54"/>
		<path d="M124.316,23.112h-2.773c-0.254,0-0.488,0.138-0.608,0.363c-0.476,0.884-1.41,1.485-2.485,1.485
			c-1.558,0-2.82-1.263-2.82-2.82v-4.278c0-1.558,1.263-2.82,2.82-2.82c1.075,0,2.008,0.601,2.485,1.485
			c0.12,0.224,0.354,0.363,0.608,0.363h2.773c0.434,0,0.767-0.405,0.665-0.827c-0.677-2.817-3.214-4.911-6.239-4.911h-0.584
			c-3.544,0.001-6.417,2.874-6.417,6.418v4.862c0,3.545,2.873,6.418,6.418,6.418h0.584c3.025,0,5.562-2.093,6.239-4.911
			C125.083,23.516,124.75,23.112,124.316,23.112"/>
		<path d="M16.714,11.54H14.21c-0.382,0-0.693,0.31-0.693,0.693v15.535c0,0.382,0.31,0.692,0.693,0.692h2.505
			c0.382,0,0.693-0.309,0.693-0.692V12.233C17.407,11.85,17.097,11.54,16.714,11.54"/>
		<path d="M33.924,11.54h-2.501c-0.383,0-0.695,0.311-0.695,0.695v9.227l-7.119-9.614c-0.017-0.025-0.035-0.048-0.055-0.071
			c-0.001-0.002-0.002-0.003-0.004-0.005c-0.014-0.014-0.027-0.029-0.041-0.042c-0.004-0.004-0.008-0.008-0.013-0.011
			c-0.012-0.011-0.024-0.021-0.037-0.032c-0.006-0.005-0.013-0.01-0.018-0.014c-0.012-0.009-0.024-0.017-0.037-0.025l-0.021-0.013
			c-0.013-0.008-0.025-0.014-0.037-0.021c-0.007-0.004-0.014-0.007-0.021-0.01c-0.014-0.006-0.026-0.013-0.04-0.017
			c-0.008-0.003-0.015-0.006-0.022-0.008c-0.014-0.006-0.027-0.01-0.041-0.014c-0.008-0.002-0.016-0.004-0.025-0.006
			c-0.013-0.003-0.026-0.006-0.04-0.009c-0.01-0.002-0.019-0.003-0.029-0.004c-0.012-0.002-0.024-0.004-0.037-0.005
			c-0.012-0.002-0.024-0.002-0.037-0.002c-0.008-0.001-0.015-0.002-0.023-0.002h-2.501c-0.383,0-0.694,0.312-0.694,0.695v15.531
			c0,0.384,0.311,0.695,0.694,0.695h2.501c0.384,0,0.695-0.311,0.695-0.695v-9.224l7.127,9.626c0.049,0.069,0.109,0.126,0.176,0.171
			c0.002,0.002,0.005,0.004,0.008,0.006c0.014,0.01,0.028,0.018,0.042,0.026c0.007,0.004,0.014,0.007,0.02,0.011
			c0.011,0.006,0.022,0.01,0.033,0.016c0.011,0.005,0.022,0.01,0.033,0.014c0.007,0.003,0.014,0.006,0.021,0.008
			c0.015,0.006,0.031,0.01,0.047,0.015c0.003,0.001,0.006,0.002,0.01,0.002c0.057,0.015,0.116,0.024,0.178,0.024h2.501
			c0.383,0,0.695-0.311,0.695-0.695V12.235C34.619,11.851,34.307,11.54,33.924,11.54"/>
		<path d="M10.683,24.571H3.89V12.235c0-0.383-0.312-0.694-0.695-0.694H0.695C0.312,11.54,0,11.851,0,12.235v15.532v0.001
			c0,0.186,0.074,0.355,0.194,0.48c0.003,0.003,0.006,0.006,0.01,0.01c0.003,0.003,0.007,0.006,0.01,0.009
			c0.125,0.12,0.293,0.194,0.48,0.194h9.989c0.383,0,0.695-0.311,0.695-0.694v-2.501C11.378,24.881,11.066,24.571,10.683,24.571"/>
		<path d="M47.732,11.54h-9.988h-0.001c-0.188,0-0.358,0.075-0.482,0.196c-0.003,0.003-0.006,0.005-0.009,0.008
			c-0.004,0.004-0.007,0.008-0.011,0.012c-0.118,0.125-0.192,0.293-0.192,0.478v0.002v15.531v0.002c0,0.186,0.074,0.355,0.194,0.479
			c0.003,0.003,0.006,0.007,0.01,0.01c0.003,0.003,0.007,0.006,0.01,0.01c0.125,0.119,0.293,0.194,0.48,0.194h0.001h9.99
			c0.382,0,0.693-0.311,0.693-0.693v-2.502c0-0.383-0.311-0.694-0.695-0.694H40.94v-2.626h6.793c0.383,0,0.695-0.311,0.695-0.694
			v-2.502c0-0.382-0.311-0.693-0.693-0.693H40.94v-2.625h6.793c0.383,0,0.695-0.311,0.695-0.694v-2.501
			C48.427,11.851,48.117,11.54,47.732,11.54"/>
		<path d="M98.567,18.423l-2.027-0.419c-1.657-0.349-2.354-0.884-2.354-1.803c0-1.117,0.926-1.827,2.332-1.827
			c1.205,0,2.154,0.607,2.455,1.528c0.091,0.281,0.332,0.485,0.628,0.485h2.407c0.418,0,0.751-0.374,0.682-0.786
			c-0.444-2.674-2.863-4.449-6.226-4.449c-3.793,0-6.256,2.152-6.256,5.433c0,2.642,1.483,4.317,4.36,4.899l2.07,0.442
			c1.798,0.384,2.485,0.885,2.485,1.815c0,1.105-1.024,1.873-2.517,1.873c-1.42,0-2.463-0.572-2.794-1.506
			c-0.095-0.267-0.371-0.495-0.654-0.495h-2.517c-0.416,0-0.745,0.371-0.681,0.782c0.425,2.773,2.836,4.454,6.482,4.454
			c4.119,0,6.626-2.117,6.626-5.62C103.068,20.564,101.673,19.063,98.567,18.423"/>
		<path d="M108.565,11.54h-2.505c-0.382,0-0.692,0.31-0.692,0.693v15.535c0,0.382,0.309,0.692,0.692,0.692h2.505
			c0.382,0,0.693-0.309,0.693-0.692V12.232C109.257,11.85,108.947,11.54,108.565,11.54"/>
	</g>
	<rect x="0" y="0" fill="none" width="125" height="40"/>
</g>
</svg>
