<?xml version="1.0" encoding="utf-8"?>
<!-- Generator: Adobe Illustrator 16.0.0, SVG Export Plug-In . SVG Version: 6.00 Build 0)  -->
<!DOCTYPE svg PUBLIC "-//W3C//DTD SVG 1.1//EN" "http://www.w3.org/Graphics/SVG/1.1/DTD/svg11.dtd">
<svg version="1.1" xmlns="http://www.w3.org/2000/svg" xmlns:xlink="http://www.w3.org/1999/xlink" x="0px" y="0px" width="125px"
	 height="40px" viewBox="0 0 125 40" enable-background="new 0 0 125 40" xml:space="preserve">
<g id="Layer_1">
</g>
<g id="Layer_2">
	<g>
		<g>
			<path fill-rule="evenodd" clip-rule="evenodd" fill="#023C9F" d="M19.925,14.505c-0.001-0.213-0.09-0.46-0.189-0.679
				c-1.38-3.003-2.755-6.009-4.113-9.021c-0.259-0.572-0.547-1.082-1.189-1.282c-4.812,0-9.622,0-14.433,0c0,3.661,0,7.322,0,10.982
				c0.052-0.004,0.104,0,0.156,0c3.214-0.001,6.43-0.001,9.644,0H19.925z"/>
			<path fill-rule="evenodd" clip-rule="evenodd" fill="#023C9F" d="M53.234,36.468c-0.359-0.056-0.719-0.104-1.076-0.165
				c-1.189-0.201-2.328-0.568-3.428-1.061c-0.031-0.015-0.059-0.036-0.121-0.079c0.519-1.143,1.039-2.285,1.551-3.408
				c0.672,0.226,1.32,0.475,1.986,0.66c1.083,0.3,2.186,0.384,3.259-0.034c1.496-0.586,2.349-1.738,2.737-3.264
				c0.013-0.05,0.013-0.104,0.013-0.156c0-0.061-0.006-0.12-0.012-0.232c-0.101,0.074-0.175,0.125-0.243,0.181
				c-1.465,1.185-3.153,1.55-4.994,1.398c-3.158-0.26-6.113-2.577-6.653-6.445c-0.277-1.999-0.032-3.933,1.052-5.685
				c1.197-1.935,2.973-3.036,5.187-3.45c1.403-0.264,2.797-0.211,4.121,0.373c0.527,0.233,1.011,0.569,1.531,0.869
				c0-0.454,0-0.94,0-1.442c1.282,0,2.524,0,3.812,0c0,0.087,0,0.179,0,0.27c0,4.766,0.009,9.533-0.007,14.3
				c-0.004,1.12-0.404,2.15-0.947,3.115c-1.262,2.247-3.143,3.657-5.698,4.124c-0.271,0.051-0.544,0.088-0.813,0.132
				C54.07,36.468,53.652,36.468,53.234,36.468z M54.242,26.545c1.026-0.006,1.941-0.321,2.67-1.055
				c1.157-1.162,1.479-2.574,1.078-4.136c-0.717-2.797-3.96-3.896-6.17-2.089c-1.154,0.945-1.619,2.2-1.479,3.688
				C50.539,25.051,52.153,26.542,54.242,26.545z"/>
			<path fill-rule="evenodd" clip-rule="evenodd" fill="#023C9F" d="M37.629,30.255c-1.313,0-2.615,0-3.943,0
				c0-0.344,0-0.671,0-1.046c-0.092,0.058-0.15,0.088-0.201,0.126c-1.156,0.888-2.469,1.328-3.922,1.384
				c-4.479,0.176-7.514-3.069-8.131-6.753c-0.701-4.185,2.296-8.601,6.741-9.281c1.671-0.257,3.28-0.06,4.757,0.837
				c0.244,0.148,0.468,0.326,0.742,0.521c0-2.126,0-4.218,0-6.325c1.339,0,2.641,0,3.957,0
				C37.629,16.564,37.629,23.401,37.629,30.255z M25.494,22.624c-0.068,2.135,1.636,4.291,4.176,4.317
				c2.211,0.023,4.121-1.964,4.122-4.245c0.002-2.349-1.886-4.323-4.13-4.318C27.378,18.381,25.496,20.3,25.494,22.624z"/>
			<path fill-rule="evenodd" clip-rule="evenodd" fill="#023C9F" d="M95.727,30.255c-0.086,0.007-0.162,0.018-0.238,0.018
				c-1.15,0.001-2.301-0.003-3.45,0.005c-0.2,0.001-0.286-0.048-0.271-0.262c0.017-0.25,0.004-0.502,0.004-0.791
				c-0.083,0.044-0.137,0.063-0.18,0.096c-1.167,0.908-2.496,1.353-3.968,1.398c-2.161,0.069-4.067-0.583-5.647-2.076
				c-1.431-1.354-2.237-3.037-2.492-4.989c-0.486-3.73,1.926-7.381,5.291-8.581c1.891-0.675,3.786-0.699,5.643,0.131
				c0.463,0.207,0.88,0.515,1.347,0.795c0-0.482,0-0.97,0-1.473c1.343,0,2.646,0,3.962,0C95.727,19.773,95.727,25.004,95.727,30.255
				z M91.89,22.676c0.009-2.304-1.881-4.282-4.105-4.298c-2.29-0.018-4.21,1.928-4.217,4.268c-0.007,2.343,1.9,4.301,4.187,4.301
				C89.975,26.946,91.882,24.978,91.89,22.676z"/>
			<path fill-rule="evenodd" clip-rule="evenodd" fill="#023C9F" d="M70.14,14.509c0.578,0,1.14,0,1.733,0c0-1.612,0-3.194,0-4.792
				c1.342,0,2.651,0,3.988,0c0,1.59,0,3.171,0,4.786c0.83,0,1.634,0,2.458,0c0,1.23,0,2.427,0,3.644c-0.813,0-1.612,0-2.453,0
				c0,0.112,0,0.203,0,0.295c0,1.943-0.004,3.886,0.003,5.828c0,0.269,0.025,0.54,0.064,0.807c0.098,0.654,0.443,1.136,1.027,1.457
				c0.578,0.317,1.148,0.653,1.757,0.999c-0.506,1.109-1.009,2.212-1.521,3.337c-1.453-0.719-2.937-1.343-4.053-2.552
				c-0.79-0.856-1.197-1.89-1.222-3.035c-0.05-2.256-0.035-4.512-0.047-6.767c-0.002-0.112,0-0.222,0-0.36c-0.593,0-1.155,0-1.735,0
				C70.14,16.932,70.14,15.736,70.14,14.509z"/>
			<path fill-rule="evenodd" clip-rule="evenodd" fill="#023C9F" d="M97.8,9.712c1.345,0,2.649,0,3.991,0c0,0.132,0,0.25,0,0.369
				c0,4.688-0.002,9.377,0.002,14.065c0,0.305,0.03,0.608,0.062,0.91c0.065,0.636,0.387,1.106,0.942,1.419
				c0.53,0.3,1.059,0.604,1.587,0.906c0.081,0.047,0.16,0.099,0.257,0.158c-0.507,1.11-1.008,2.206-1.519,3.329
				c-1.451-0.722-2.937-1.341-4.052-2.551c-0.764-0.826-1.14-1.823-1.219-2.932c-0.042-0.572-0.049-1.147-0.051-1.722
				C97.798,19.133,97.8,14.602,97.8,10.07C97.8,9.958,97.8,9.847,97.8,9.712z"/>
			<path fill-rule="evenodd" clip-rule="evenodd" fill="#023C9F" d="M40.238,30.261c0-5.254,0-10.486,0-15.734
				c1.322,0,2.633,0,3.965,0c0.005,0.105,0.012,0.199,0.012,0.293c0.001,5.046,0,10.091,0.007,15.137
				c0,0.249-0.062,0.326-0.319,0.323c-1.124-0.014-2.247-0.006-3.372-0.007C40.438,30.272,40.343,30.264,40.238,30.261z"/>
			<path fill-rule="evenodd" clip-rule="evenodd" fill="#023C9F" d="M64.15,14.524c1.325,0,2.627,0,3.949,0
				c0.006,0.107,0.014,0.201,0.014,0.295c0.001,5.043-0.002,10.087,0.006,15.13c0.001,0.271-0.08,0.333-0.338,0.33
				c-1.123-0.015-2.247-0.011-3.371-0.002c-0.217,0.003-0.279-0.064-0.279-0.28c0.004-5.069,0.004-10.14,0.004-15.209
				C64.135,14.703,64.145,14.618,64.15,14.524z"/>
			<path fill-rule="evenodd" clip-rule="evenodd" fill="#023C9F" d="M39.802,10.838c0-1.359,1.077-2.433,2.437-2.429
				c1.338,0.006,2.415,1.092,2.413,2.433c-0.002,1.35-1.112,2.456-2.443,2.436C40.858,13.256,39.801,12.186,39.802,10.838z"/>
			<path fill-rule="evenodd" clip-rule="evenodd" fill="#023C9F" d="M63.699,10.834c0.002-1.345,1.076-2.422,2.419-2.425
				c1.354-0.003,2.433,1.078,2.432,2.438c-0.001,1.34-1.073,2.416-2.421,2.431C64.794,13.292,63.697,12.189,63.699,10.834z"/>
		</g>
		<linearGradient id="SVGID_1_" gradientUnits="userSpaceOnUse" x1="5.2764" y1="28.249" x2="22.2747" y2="18.4351">
			<stop  offset="0" style="stop-color:#1C8A93"/>
			<stop  offset="1" style="stop-color:#164D93"/>
		</linearGradient>
		<path fill-rule="evenodd" clip-rule="evenodd" fill="url(#SVGID_1_)" d="M19.878,14.283c0.017,0.271-0.158,0.276-0.358,0.276
			c-3.18-0.002-6.359,0-9.538,0.002c-0.213,0.481-0.425,0.964-0.64,1.445c-0.2,0.459-0.402,0.917-0.604,1.375
			c-0.034,0.061-0.072,0.119-0.103,0.182c-1.178,2.582-2.357,5.164-3.525,7.751c-0.055,0.122-0.051,0.311,0.004,0.435
			c0.361,0.83,0.744,1.651,1.12,2.475c1.215,2.661,2.432,5.322,3.647,7.982c0.038,0.079,0.084,0.155,0.146,0.271
			c0.062-0.121,0.1-0.188,0.131-0.258c1.97-4.309,3.939-8.615,5.907-12.924c0.317-0.695,0.627-1.397,0.939-2.096
			c0.411-0.889,0.826-1.778,1.234-2.67c0.501-1.089,0.999-2.179,1.496-3.269C19.877,14.95,19.992,14.634,19.878,14.283z"/>
	</g>
</g>
<g id="template" display="none">
</g>
</svg>
