<?xml version="1.0" encoding="utf-8"?>
<!-- Generator: Adobe Illustrator 19.2.0, SVG Export Plug-In . SVG Version: 6.00 Build 0)  -->
<svg version="1.1" xmlns="http://www.w3.org/2000/svg" xmlns:xlink="http://www.w3.org/1999/xlink" x="0px" y="0px"
	 viewBox="0 0 125 40" enable-background="new 0 0 125 40" xml:space="preserve">
<g id="bg" display="none">
	<rect display="inline" fill="#FFFFFF" width="125" height="40"/>
</g>
<g id="icons">
	<g>
		<path d="M15.514,16.6c0.301-1.088,0.579-2.08,0.851-3.073c0.174-0.635,0.108-1.227-0.451-1.643
			c-0.569-0.424-1.198-0.358-1.772-0.02c-0.341,0.201-0.669,0.474-0.911,0.787c-0.874,1.133-1.53,2.393-1.846,3.793
			c-0.293,1.301-0.008,2.497,0.888,3.513c0.254,0.288,0.533,0.556,0.822,0.81c1.314,1.158,2.463,2.418,2.649,4.327
			c0.96-0.328,1.84-0.71,2.759-0.921c1.158-0.265,1.742-0.932,2.185-2.028c1.932-4.784,3.972-9.524,5.955-14.287
			c0.166-0.398,0.366-0.606,0.808-0.66c1.206-0.148,2.405-0.343,3.608-0.515c0.156-0.022,0.316-0.017,0.549-0.028
			c-0.1,0.261-0.173,0.464-0.256,0.662c-2.964,7.116-5.931,14.231-8.887,21.351c-0.153,0.368-0.27,0.769-0.303,1.164
			c-0.05,0.613,0.285,0.9,0.903,0.819c0.254-0.033,0.521-0.113,0.742-0.242c0.787-0.459,1.565-0.934,2.323-1.437
			c0.15-0.1,0.264-0.347,0.281-0.537c0.094-1.037,0.326-2.036,0.732-2.996c1.136-2.683,2.263-5.37,3.411-8.048
			c0.476-1.111,1.15-2.094,2.07-2.892c0.969-0.84,2.09-1.287,3.385-1.29c1.233-0.003,2.168,0.444,2.655,1.772
			c0.206-0.492,0.357-0.905,0.554-1.295c0.081-0.16,0.244-0.356,0.4-0.387c1.563-0.318,3.132-0.604,4.771-0.913
			c-0.103,0.269-0.173,0.471-0.256,0.668c-1.91,4.509-3.821,9.017-5.735,13.524c-0.154,0.362-0.334,0.705,0.044,1.045
			c0.3,0.27,0.723,0.32,1.187,0.075c0.248-0.131,0.479-0.302,0.7-0.478c0.221-0.177,0.421-0.38,0.627-0.575
			c0.935-0.885,1.96-1.708,2.135-3.114c1.27-3.022,2.525-6.05,3.813-9.064c1.021-2.387,2.847-3.69,5.449-3.79
			c0.901-0.034,1.831,0.022,2.708,0.22c1.446,0.325,2.151,1.258,2.223,2.734c0.058,1.171-0.251,2.288-0.609,3.389
			c-0.042,0.129-0.198,0.264-0.332,0.311c-1.448,0.512-2.902,1.007-4.439,1.536c0.055-0.207,0.081-0.351,0.131-0.485
			c0.388-1.021,0.808-2.031,1.159-3.064c0.167-0.492,0.248-1.023,0.291-1.543c0.029-0.355-0.032-0.75-0.427-0.936
			c-0.391-0.185-0.748,0.001-0.995,0.255c-0.347,0.356-0.702,0.753-0.896,1.201c-1.287,2.97-2.56,5.948-3.771,8.95
			c-0.272,0.675-0.394,1.457-0.386,2.187c0.013,1.193,0.822,1.765,1.972,1.44c0.712-0.201,1.416-0.496,2.062-0.857
			c1.87-1.047,3.463-2.461,5.009-3.928c0.168-0.159,0.276-0.397,0.368-0.616c2.813-6.675,5.623-13.351,8.421-20.033
			c0.163-0.39,0.355-0.602,0.804-0.669C67.1,0.548,68.547,0.272,70.103,0c-1.902,4.518-3.765,8.942-5.664,13.454
			c1.217-0.244,2.14-0.807,2.766-1.738c0.538-0.8,1.057-1.651,1.372-2.554c0.299-0.855,0.766-1.193,1.626-1.282
			c1.101-0.115,2.19-0.355,3.358-0.554c-0.07,0.213-0.107,0.36-0.165,0.499c-0.409,0.969-0.822,1.937-1.234,2.905
			c-0.554,1.299-1.445,2.282-2.717,2.912c-0.082,0.041-0.158,0.094-0.296,0.178c0.171,0.073,0.28,0.115,0.386,0.164
			c0.587,0.276,0.964,0.74,0.901,1.384c-0.075,0.757-0.199,1.528-0.444,2.244c-0.373,1.089-0.89,2.127-1.301,3.204
			c-0.163,0.427-0.281,0.898-0.286,1.351c-0.01,0.764,0.516,1.106,1.225,0.808c0.441-0.185,0.844-0.473,1.234-0.756
			c0.113-0.082,0.179-0.313,0.167-0.468c-0.086-1.039,0.16-2.001,0.564-2.949c1.246-2.922,2.46-5.858,3.702-8.781
			c0.844-1.986,2.311-3.242,4.448-3.655c1.208-0.233,2.423-0.214,3.619,0.077c1.483,0.361,2.26,1.363,2.288,2.886
			c0.027,1.426-0.392,2.759-0.888,4.067c-0.073,0.193-0.368,0.35-0.594,0.43c-2.232,0.788-4.465,1.575-6.712,2.316
			c-0.517,0.171-0.8,0.442-0.982,0.942c-0.387,1.061-0.989,2.051-1.087,3.205c-0.034,0.397-0.022,0.815,0.065,1.202
			c0.175,0.782,0.814,1.228,1.591,1.039c0.719-0.175,1.439-0.428,2.094-0.769c1.812-0.942,3.346-2.276,4.837-3.651
			c2.266-2.089,2.258-2.097,3.457-4.932c1.292-3.056,2.593-6.109,3.865-9.174c0.175-0.421,0.402-0.606,0.851-0.705
			c0.698-0.155,1.15-0.043,1.625,0.576c1.639,2.138,3.337,4.233,5.065,6.301c0.802,0.96,0.9,1.951,0.45,3.051
			c-0.514,1.255-1.057,2.497-1.56,3.756c-0.164,0.409-0.306,0.846-0.348,1.281c-0.098,0.998,0.594,1.532,1.545,1.202
			c0.434-0.151,0.833-0.402,1.309-0.637c0.15,0.359,0.332,0.735,0.456,1.129c0.034,0.107-0.073,0.306-0.174,0.399
			c-1.197,1.11-2.57,1.908-4.186,2.214c-1.653,0.313-3.209-0.98-3.394-2.773c-0.107-1.034,0.088-2.015,0.489-2.964
			c0.716-1.696,1.413-3.401,2.155-5.086c0.341-0.774,0.276-1.435-0.275-2.079c-0.389-0.454-0.731-0.949-1.162-1.513
			c-2.266,5.374-4.488,10.642-6.755,16.017c-1.031-1.221-2.016-2.387-3.035-3.593c-0.2,0.212-0.364,0.387-0.528,0.561
			c-1.272,1.346-2.641,2.575-4.247,3.515c-1.004,0.587-2.062,1.033-3.236,1.15c-1.557,0.154-2.936-0.241-4.057-1.361
			c-0.247-0.247-0.355-0.22-0.607,0.002c-0.818,0.719-1.634,1.453-2.528,2.07c-0.883,0.61-1.914,0.73-2.973,0.495
			c-1.174-0.261-1.93-0.979-2.299-2.108c-0.36-1.101-0.268-2.21,0.074-3.289c0.268-0.847,0.655-1.655,0.941-2.496
			c0.201-0.59,0.384-1.2,0.463-1.815c0.112-0.869-0.285-1.158-1.121-0.935c-0.783,0.209-1.303,0.613-1.632,1.427
			c-1.403,3.47-2.883,6.909-4.336,10.359c-0.086,0.205-0.18,0.406-0.298,0.67c-0.184-0.208-0.345-0.382-0.499-0.563
			c-0.643-0.757-1.291-1.509-1.919-2.278c-0.194-0.237-0.3-0.21-0.518-0.017c-0.953,0.847-1.902,1.701-2.904,2.487
			c-0.847,0.664-1.812,1.139-2.842,1.479c-2.209,0.729-4.74,0.269-6.179-2.13c-0.136,0.12-0.269,0.227-0.39,0.347
			c-0.69,0.685-1.338,1.421-2.079,2.046c-0.596,0.503-1.261,0.97-1.97,1.282c-1.813,0.797-3.151,0.089-3.703-1.923
			c-0.131,0.122-0.246,0.214-0.341,0.323c-0.749,0.863-1.571,1.661-2.593,2.175c-0.732,0.368-1.525,0.664-2.324,0.837
			c-1.245,0.269-2.086-0.156-2.682-1.263c-0.216-0.401-0.359-0.395-0.707-0.163c-0.876,0.583-1.774,1.135-2.682,1.667
			c-0.775,0.453-1.601,0.781-2.521,0.792c-1.3,0.015-2.243-0.596-2.761-1.799c-0.441-1.025-0.47-2.102-0.255-3.164
			c0.199-0.981,0.534-1.935,0.825-2.96c-1.035,0.36-2.079,0.712-3.11,1.098c-0.12,0.045-0.196,0.272-0.245,0.429
			c-0.322,1.043-0.552,2.122-0.957,3.13c-1.398,3.479-3.842,5.857-7.52,6.834c-1.246,0.331-2.52,0.384-3.789,0.068
			c-1.933-0.481-3.198-2.028-3.297-4.016c-0.046-0.923,0.102-1.811,0.377-2.691c0.116-0.372,0.324-0.554,0.682-0.676
			c3.197-1.094,6.383-2.219,9.587-3.291c0.484-0.162,0.624-0.423,0.66-0.856c0.111-1.329-0.199-2.54-1.05-3.578
			c-0.345-0.421-0.747-0.798-1.14-1.177c-1.036-0.998-1.937-2.096-2.27-3.528C6.4,15.794,6.843,14,8.006,12.394
			c2.1-2.9,6.178-4.34,9.623-3.389c0.577,0.159,1.151,0.411,1.658,0.729c1.762,1.105,2.336,2.872,1.696,4.85
			c-0.239,0.738-0.572,1.173-1.428,1.273C18.216,16.015,16.896,16.338,15.514,16.6z M30.688,27.971
			c0.062,0.512,0.053,0.952,0.473,1.172c0.389,0.204,0.788,0.061,1.069-0.206c0.506-0.481,1.127-0.946,1.397-1.552
			c1.391-3.118,2.688-6.279,4.013-9.427c0.216-0.512-0.037-1.211-0.552-1.586c-0.448-0.327-0.995-0.325-1.433,0.124
			c-0.345,0.354-0.66,0.78-0.852,1.233c-1.291,3.03-2.551,6.074-3.805,9.12C30.839,27.236,30.771,27.661,30.688,27.971z
			 M10.518,28.906c-1.737,0.601-3.361,1.155-4.978,1.733c-0.159,0.057-0.34,0.232-0.388,0.39C5,31.53,4.87,32.044,4.794,32.562
			C4.586,33.99,5.7,34.953,7.093,34.576c0.592-0.16,1.074-0.494,1.414-0.988c0.296-0.43,0.561-0.891,0.766-1.37
			c0.389-0.91,0.727-1.841,1.083-2.765C10.41,29.309,10.444,29.157,10.518,28.906z M77.832,13.874
			c0.999-0.338,1.861-0.615,2.71-0.927c0.164-0.06,0.341-0.227,0.406-0.387c0.271-0.672,0.539-1.35,0.735-2.047
			c0.124-0.439,0.186-0.918,0.156-1.372c-0.049-0.729-0.596-1.012-1.187-0.596c-0.397,0.28-0.786,0.673-0.991,1.104
			C79.021,10.993,78.471,12.379,77.832,13.874z"/>
		<path d="M104.642,35.836c-0.017,2.362-1.896,4.179-4.304,4.164c-2.34-0.015-4.236-1.9-4.226-4.201
			c0.01-2.309,1.983-4.217,4.325-4.183C102.789,31.651,104.658,33.527,104.642,35.836z M102.464,35.777
			c-0.007-0.09-0.003-0.296-0.045-0.493c-0.176-0.828-0.612-1.466-1.448-1.721c-0.781-0.238-1.506-0.065-2.049,0.557
			c-0.705,0.807-0.794,1.747-0.428,2.732c0.215,0.579,0.616,0.992,1.21,1.197C101.113,38.535,102.429,37.504,102.464,35.777z"/>
		<path d="M81.414,35.768c0-1.175,0.003-2.351-0.002-3.526c-0.001-0.248,0.021-0.443,0.346-0.43c1.273,0.05,2.561-0.009,3.818,0.162
			c1.748,0.238,2.855,1.55,3.013,3.315c0.081,0.905-0.003,1.784-0.46,2.59c-0.678,1.197-1.756,1.774-3.088,1.858
			c-1.05,0.066-2.107,0.025-3.16,0.057c-0.386,0.012-0.479-0.141-0.473-0.5C81.425,38.119,81.414,36.943,81.414,35.768z
			 M83.581,35.783c0,0.405,0,0.809,0,1.214c0,1.131-0.001,1.123,1.128,0.95c0.814-0.125,1.446-0.503,1.592-1.344
			c0.094-0.543,0.059-1.126-0.023-1.676c-0.087-0.58-0.495-0.978-1.06-1.137c-0.404-0.114-0.832-0.144-1.25-0.203
			c-0.28-0.039-0.399,0.079-0.391,0.375C83.594,34.569,83.582,35.177,83.581,35.783z"/>
		<path d="M64.172,36.945c0,0.519,0.008,1.039-0.003,1.558c-0.008,0.4,0.112,0.976-0.098,1.154
			c-0.255,0.218-0.796,0.102-1.213,0.129c-0.081,0.005-0.163-0.009-0.243,0.002c-0.37,0.049-0.488-0.103-0.484-0.477
			c0.017-1.76,0.007-3.521,0.007-5.281c0-0.587,0.014-1.174-0.005-1.76c-0.01-0.325,0.076-0.473,0.436-0.464
			c1.031,0.027,2.065-0.007,3.095,0.038c1.983,0.085,2.696,1.67,2.301,3.265c-0.143,0.575-0.51,1.004-1.06,1.257
			c-0.181,0.083-0.365,0.16-0.585,0.257c0.693,1.027,1.367,2.027,2.136,3.166c-0.436,0-0.771-0.052-1.084,0.009
			c-1.065,0.208-1.684-0.247-2.09-1.21c-0.248-0.588-0.64-1.116-0.967-1.671C64.268,36.926,64.22,36.936,64.172,36.945z
			 M64.172,34.494c0,0.061,0,0.121,0,0.182c0,0.974,0.194,1.111,1.121,0.812c0.366-0.118,0.583-0.361,0.627-0.735
			c0.047-0.394,0.03-0.852-0.349-1.023c-0.381-0.172-0.847-0.172-1.277-0.182c-0.035-0.001-0.083,0.498-0.122,0.765
			C64.165,34.372,64.172,34.434,64.172,34.494z"/>
		<path d="M78.78,39.783c-0.622,0-1.246,0.018-1.867-0.016c-0.117-0.006-0.261-0.205-0.324-0.345c-0.147-0.325-0.16-0.8-0.4-0.969
			c-0.248-0.175-0.7-0.068-1.063-0.072c-0.527-0.006-1.054,0.009-1.58-0.005c-0.266-0.007-0.395,0.087-0.465,0.354
			c-0.091,0.346-0.148,0.82-0.39,0.974c-0.278,0.178-0.741,0.079-1.124,0.081c-0.953,0.006-0.955,0.001-0.639-0.917
			c0.752-2.18,1.516-4.355,2.249-6.541c0.132-0.392,0.301-0.553,0.726-0.526c0.605,0.039,1.215,0.017,1.823,0.007
			c0.252-0.004,0.4,0.065,0.49,0.329c0.847,2.489,1.708,4.973,2.563,7.46C78.79,39.633,78.78,39.677,78.78,39.783z M75.814,36.819
			c-0.362-1.212-0.705-2.359-1.077-3.604c-0.151,0.515-0.271,0.94-0.399,1.363c-0.187,0.619-0.371,1.24-0.571,1.855
			c-0.097,0.3-0.009,0.399,0.3,0.391C74.629,36.807,75.192,36.819,75.814,36.819z"/>
		<path d="M93.496,35.822c0,1.152-0.013,2.304,0.007,3.456c0.007,0.393-0.115,0.546-0.517,0.517
			c-0.422-0.03-0.849-0.019-1.273-0.003c-0.302,0.011-0.438-0.078-0.437-0.41c0.01-2.385,0.009-4.769,0-7.154
			c-0.001-0.315,0.11-0.432,0.424-0.42c0.444,0.018,0.891,0.027,1.333-0.002c0.395-0.027,0.472,0.151,0.468,0.5
			C93.487,33.477,93.496,34.649,93.496,35.822z"/>
	</g>
</g>
</svg>
