<?xml version="1.0" encoding="utf-8"?>
<!-- Generator: Adobe Illustrator 19.2.0, SVG Export Plug-In . SVG Version: 6.00 Build 0)  -->
<svg version="1.1" xmlns="http://www.w3.org/2000/svg" xmlns:xlink="http://www.w3.org/1999/xlink" x="0px" y="0px"
	 viewBox="0 0 125 40" style="enable-background:new 0 0 125 40;" xml:space="preserve">
<style type="text/css">
	.st0{display:none;}
	.st1{display:inline;fill:#FEFEFE;}
	.st2{display:inline;}
	.st3{fill:#FEFEFE;}
	.st4{fill:#060606;}
	.st5{fill:#E72878;}
	.st6{fill:#A0A0A0;}
	.st7{fill:#B9B9B9;}
	.st8{fill:#D6D6D6;}
	.st9{fill:#F9F9F9;}
	.st10{fill:#010101;}
</style>
<g id="bg" class="st0">
	<rect class="st1" width="125" height="40"/>
</g>
<g id="logo">
	<g>
		<path class="st3" d="M99.1,21.4C99.1,21.4,99.2,21.4,99.1,21.4c0.1,0.2,0.1,0.4,0.1,0.6c0,0.8,0,1.6,0,2.4c0,1,0.7,1.6,1.7,1.7
			c0.1,0,0.2,0,0.3,0c3.2,0,6.5,0,9.7,0c0.7,0,1.4,0,2.1,0c2.6,0,5.1,0,7.7,0c0.2,0,0.3,0,0.5,0c0.7-0.1,1.3-0.4,1.6-1.2
			c0.2-0.7,0.5-1.4,0.8-2.1c0.4-1.2,0.8-2.4,1.2-3.6c0.1-0.4,0.3-0.9,0.1-1.4c-0.1-0.3-0.3-0.6-0.5-1c0-1.1,0-2.3,0-3.5
			c0-0.6-0.3-1.1-0.8-1.5c-0.3-0.2-0.7-0.2-1-0.2c-1.9,0-3.8,0-5.8,0c-0.7,0-1.4,0-2.1,0c-1,0-1.5,0.4-1.9,1.3
			c-0.1,0.3-0.2,0.5-0.3,0.9c0-0.1-0.1-0.2-0.1-0.2c0-0.2-0.1-0.4-0.1-0.6c-0.1-0.9-0.7-1.4-1.8-1.4c-4.4,0-8.8,0-13.2,0
			c-1,0-1.6,0.4-1.9,1.4c-0.2,0.6-0.4,1.2-0.7,2c-0.3-0.7-0.5-1.4-0.7-2c-0.1-0.2-0.2-0.4-0.3-0.6c-0.4-0.5-0.8-0.7-1.4-0.7
			c-2.2,0-4.3,0-6.5,0c0,0-0.1,0-0.1,0c-0.9,0.1-1.5,0.7-1.6,1.5c0,0.2,0,0.4,0,0.6c0,1.8,0,3.6,0,5.4c0,0.2,0,0.3,0,0.5
			c-1.2,0-2.4,0-3.6,0c0-0.2,0-0.4,0-0.7c0-1.7,0-3.4,0-5.1c0-0.4,0-0.8-0.1-1.1c-0.1-0.6-0.5-1-1.1-1.1c-1.3-0.1-2.6-0.1-3.8,0
			c-0.3,0-0.6,0.1-1-0.1c-1.7-0.6-3.4-1.2-5.1-1.7c-0.6-0.2-1.2-0.3-1.8-0.1c-1.9,0.6-3.8,1.3-5.7,1.9c-0.2,0-0.5-0.1-0.8-0.1
			c-1,0-2,0-3,0c-0.8,0-1.4,0.4-1.8,1c-0.1,0.2-0.2,0.5-0.3,0.7c-0.1,0.1-0.1,0.2-0.2,0.4c-0.2-0.3-0.3-0.6-0.5-0.9
			c-0.4-0.8-1-1.2-1.9-1.2c-1.5,0-3.1,0-4.6,0c-2.7,0-5.4,0-8.1,0c-0.6,0-1.1-0.1-1.7,0.1c-0.1,0-0.2,0-0.3,0
			c-0.4,0-0.7-0.1-1.1-0.1c-2.9,0-5.8,0-8.6,0c-0.6,0-1.1,0.1-1.7,0c-1-0.1-2,0-3,0c-0.8,0-1.3,0.4-1.5,1.2
			c-0.1,0.2-0.1,0.4-0.2,0.7c-0.3-0.4-0.5-0.7-0.7-1.1c-0.3-0.5-0.8-0.8-1.4-0.8c-1.2,0-2.4-0.1-3.6,0.1c-0.1,0-0.2,0-0.3,0
			c-0.3,0-0.5-0.1-0.8-0.1c-0.8,0-1.7,0-2.5,0c-0.3,0-0.7,0.1-1.1,0.1c-0.1,0-0.4-0.1-0.6-0.1c-1,0-2,0-3,0c-0.8,0-1.3,0.4-1.6,1.2
			c-0.1,0.2-0.1,0.4-0.2,0.6c-0.3-0.4-0.5-0.7-0.7-1.1c-0.3-0.5-0.8-0.8-1.4-0.8c-1,0-2,0-3,0c-0.7,0-1.2,0.4-1.5,1.1
			C0,13,0,13.4,0,13.7c0,3.5,0,6.9,0,10.4c0,0.1,0,0.2,0,0.3c0.2,1.1,0.7,1.7,1.6,1.7c1,0,2.1,0,3.1,0c0.8,0,1.4-0.6,1.5-1.3
			c0-0.1,0-0.3,0.1-0.5c0.2,0.3,0.4,0.6,0.6,0.9c0.4,0.7,1,1,1.8,0.9c0.8,0,1.6,0,2.4,0c0.4,0,0.8-0.1,1.3-0.1
			c0.1,0,0.3,0.1,0.5,0.1c1.2,0,2.5,0.2,3.8-0.1c0.1,0,0.2,0,0.3,0c1.2,0.2,2.5,0.1,3.7,0.1c0.6,0,1.1-0.4,1.3-1
			c0.1-0.2,0.1-0.5,0.2-0.8c0.2,0.3,0.4,0.5,0.5,0.7c0.4,0.8,1.1,1.1,2,1.1c1.4,0,2.7,0,4.1,0c3.9,0,7.8,0,11.6,0
			c0.6,0,1.2,0.1,1.8-0.1c0.1,0,0.1,0,0.2,0c1.2,0.2,2.5,0.1,3.8,0.1c0.8,0,1.2-0.5,1.3-1.3c0-0.3,0-0.5,0-0.8c0-1.8,0-3.6,0-5.4
			c0-0.2,0-0.4,0-0.6c1,0,2.1,0.1,2.9-0.4c0.1,0.1,0.1,0.1,0.1,0.2c0.6,1.2,1.2,2.3,1.8,3.5c0.1,0.2,0.1,0.4,0.1,0.6
			c0,0.8,0,1.5,0,2.3c0,1.3,0.6,1.9,1.9,1.9c0.8,0,1.7,0,2.5,0c1.2,0.1,2-0.8,1.9-1.9c0-0.9,0-1.8,0-2.8c0.7-1.1,1.1-2.5,1.9-3.6
			c0.1,1,0,2.1,0.1,3.1c0,0.3,0,0.6,0.1,0.9c0.1,0.8,0.7,1.2,1.4,1.3c0.2,0,0.4,0,0.6,0c1.2,0,2.5,0,3.8,0c-0.1,0.1-0.2,0.2-0.2,0.3
			c-0.6,0.6-1.2,1.2-1.8,1.8c-0.7,0.7-0.8,1.6-0.1,2.3c0.8,0.8,1.6,1.6,2.4,2.4c0.6,0.6,1.6,0.6,2.2,0.1c0.9-0.8,1.7-1.7,2.6-2.6
			c0.8-0.8,1.5-1.6,2.3-2.4c0.4,0.8,1,1.2,1.8,1.2c2.8,0,5.5,0,8.3,0c0.3,0,0.6,0,1,0c1.1,0,2.3,0,3.4,0c0.4,0,0.7-0.1,1.1-0.4
			c0.5-0.4,0.6-0.8,0.6-1.4c0-0.8,0-1.7,0-2.7c0.1,0.3,0.3,0.5,0.3,0.7c0.3,0.8,0.5,1.6,0.8,2.4c0.3,0.9,0.9,1.3,1.9,1.3
			c1,0,2,0,3,0c0.9,0,1.3-0.4,1.6-1.2C98.3,23.7,98.7,22.5,99.1,21.4z"/>
		<path class="st4" d="M99.1,21.4c-0.4,1.2-0.8,2.3-1.2,3.5c-0.3,0.9-0.7,1.2-1.6,1.2c-1,0-2,0-3,0c-1,0-1.5-0.4-1.9-1.3
			c-0.3-0.8-0.5-1.6-0.8-2.4c-0.1-0.2-0.2-0.4-0.3-0.7c0,1,0,1.8,0,2.7c0,0.6-0.2,1-0.6,1.4c-0.3,0.2-0.7,0.4-1.1,0.4
			c-1.1,0-2.3,0-3.4,0c-0.3,0-0.6,0-1,0c-2.8,0-5.5,0-8.3,0c-0.9,0-1.5-0.4-1.8-1.2c-0.8,0.8-1.5,1.6-2.3,2.4
			c-0.8,0.9-1.7,1.7-2.6,2.6c-0.6,0.6-1.6,0.5-2.2-0.1c-0.8-0.7-1.6-1.6-2.4-2.4c-0.6-0.7-0.5-1.6,0.1-2.3c0.6-0.6,1.2-1.2,1.8-1.8
			c0.1-0.1,0.1-0.2,0.2-0.3c-1.3,0-2.6,0-3.8,0c-0.2,0-0.4,0-0.6,0c-0.8-0.1-1.3-0.5-1.4-1.3c0-0.3-0.1-0.6-0.1-0.9c0-1,0-2-0.1-3.1
			c-0.8,1.1-1.2,2.5-1.9,3.6c0,0.9,0,1.9,0,2.8c0.1,1.1-0.8,2-1.9,1.9c-0.8,0-1.7,0-2.5,0c-1.3,0-1.9-0.6-1.9-1.9c0-0.8,0-1.5,0-2.3
			c0-0.2,0-0.4-0.1-0.6c-0.6-1.2-1.2-2.3-1.8-3.5c0-0.1-0.1-0.1-0.1-0.2c-0.9,0.6-1.9,0.4-2.9,0.4c0,0.2,0,0.4,0,0.6
			c0,1.8,0,3.6,0,5.4c0,0.3,0,0.5,0,0.8c-0.1,0.8-0.6,1.3-1.3,1.3c-1.3,0-2.5,0.1-3.8-0.1c-0.1,0-0.1,0-0.2,0
			c-0.6,0.2-1.2,0.1-1.8,0.1c-3.9,0-7.8,0-11.6,0c-1.4,0-2.7,0-4.1,0c-0.9,0-1.6-0.3-2-1.1c-0.1-0.3-0.3-0.5-0.5-0.7
			c-0.1,0.3-0.1,0.5-0.2,0.8c-0.2,0.6-0.6,1-1.3,1c-1.2,0-2.5,0.2-3.7-0.1c-0.1,0-0.2,0-0.3,0c-1.2,0.3-2.5,0.1-3.8,0.1
			c-0.2,0-0.4-0.1-0.5-0.1c-0.5,0-0.9,0.1-1.3,0.1c-0.8,0-1.6,0-2.4,0c-0.8,0-1.3-0.3-1.8-0.9c-0.2-0.3-0.4-0.6-0.6-0.9
			c0,0.2,0,0.4-0.1,0.5c-0.2,0.7-0.8,1.3-1.5,1.3c-1,0-2.1,0-3.1,0c-0.8,0-1.4-0.6-1.6-1.7c0-0.1,0-0.2,0-0.3c0-3.5,0-6.9,0-10.4
			c0-0.3,0-0.7,0.2-1c0.2-0.6,0.7-1,1.5-1.1c1,0,2,0,3,0c0.6,0,1.1,0.3,1.4,0.8c0.2,0.3,0.4,0.7,0.7,1.1c0.1-0.2,0.1-0.4,0.2-0.6
			c0.2-0.8,0.7-1.2,1.6-1.2c1,0,2,0,3,0c0.2,0,0.5,0.1,0.6,0.1c0.4,0,0.8-0.1,1.1-0.1c0.8,0,1.7,0,2.5,0c0.3,0,0.5,0.1,0.8,0.1
			c0.1,0,0.2,0.1,0.3,0c1.2-0.3,2.4-0.1,3.6-0.1c0.6,0,1.1,0.3,1.4,0.8c0.2,0.3,0.4,0.7,0.7,1.1c0.1-0.3,0.1-0.5,0.2-0.7
			c0.2-0.7,0.7-1.1,1.5-1.2c1,0,2-0.1,3,0c0.6,0.1,1.1,0,1.7,0c2.9,0,5.8,0,8.6,0c0.4,0,0.7,0.1,1.1,0.1c0.1,0,0.2,0,0.3,0
			c0.6-0.2,1.1-0.1,1.7-0.1c2.7,0,5.4,0,8.1,0c1.5,0,3.1,0,4.6,0c0.9,0,1.5,0.4,1.9,1.2c0.1,0.3,0.3,0.6,0.5,0.9
			c0.1-0.1,0.2-0.2,0.2-0.4c0.1-0.2,0.2-0.5,0.3-0.7c0.4-0.7,1-1.1,1.8-1c1,0,2,0,3,0c0.3,0,0.5,0.1,0.8,0.1
			c1.9-0.7,3.8-1.3,5.7-1.9c0.6-0.2,1.2-0.1,1.8,0.1c1.7,0.6,3.4,1.1,5.1,1.7c0.3,0.1,0.6,0.1,1,0.1c1.3-0.1,2.6-0.1,3.8,0
			c0.6,0,1,0.5,1.1,1.1c0.1,0.4,0.1,0.8,0.1,1.1c0,1.7,0,3.4,0,5.1c0,0.2,0,0.4,0,0.7c1.2,0,2.4,0,3.6,0c0-0.1,0-0.3,0-0.5
			c0-1.8,0-3.6,0-5.4c0-0.2,0-0.4,0-0.6c0.1-0.9,0.7-1.5,1.6-1.5c0,0,0.1,0,0.1,0c2.2,0,4.3,0,6.5,0c0.6,0,1.1,0.2,1.4,0.7
			c0.1,0.2,0.2,0.4,0.3,0.6c0.2,0.6,0.4,1.3,0.7,2c0.3-0.7,0.5-1.3,0.7-2c0.3-1,0.9-1.4,1.9-1.4c4.4,0,8.8,0,13.2,0
			c1.1,0,1.7,0.6,1.8,1.4c0,0.2,0.1,0.4,0.1,0.6c0,0.1,0,0.1,0.1,0.2c0.1-0.3,0.2-0.6,0.3-0.9c0.4-1,0.9-1.3,1.9-1.3
			c0.7,0,1.4,0,2.1,0c1.9,0,3.8,0,5.8,0c0.4,0,0.7,0,1,0.2c0.6,0.3,0.8,0.8,0.8,1.5c0,1.2,0,2.4,0,3.5c0.2,0.3,0.4,0.6,0.5,1
			c0.2,0.5,0,0.9-0.1,1.4c-0.4,1.2-0.8,2.4-1.2,3.6c-0.3,0.7-0.5,1.4-0.8,2.1c-0.3,0.8-0.9,1-1.6,1.2c-0.2,0-0.3,0-0.5,0
			c-2.6,0-5.1,0-7.7,0c-0.7,0-1.4,0-2.1,0c-3.2,0-6.5,0-9.7,0c-0.1,0-0.2,0-0.3,0c-1,0-1.6-0.7-1.7-1.7c0-0.8,0-1.6,0-2.4
			C99.2,21.8,99.2,21.6,99.1,21.4C99.2,21.4,99.1,21.4,99.1,21.4z M73.9,13.2c-0.1-0.1-0.1-0.1-0.2-0.1c-1.7-0.6-3.5-1.1-5.2-1.7
			c-0.3-0.1-0.5-0.1-0.7,0c-1.7,0.6-3.4,1.1-5.1,1.7c-0.1,0-0.2,0.1-0.3,0.1c0,2.8,0,5.5,0,8.3c2.5,0,5,0,7.5,0
			c0.5-0.5,1.1-1,1.5-1.6c-0.5-0.6-1-1.1-1.5-1.7c-0.8,0-1.5,0-2.2,0c-0.7,0-1.4,0-2.1,0c0-0.9,0-1.6,0-2.5c0.8-0.3,1.7-0.7,2.5-1
			c0.9,0.3,1.7,0.6,2.6,1c0,0.9,0,1.7,0,2.5c0.5,0.6,1,1.1,1.5,1.7c-2.2,2.2-4.3,4.3-6.5,6.5c0.8,0.8,1.6,1.5,2.5,2.4
			c1.9-2,3.8-4,5.7-5.9C73.9,19.6,73.9,16.4,73.9,13.2z M8.3,24.5c0.6,0.1,2.7,0.1,3.2,0c0-3.7,0-7.4,0-11.2c-0.5,0-1.1,0-1.6,0
			c-0.5,0-1,0-1.6,0c0,1.8,0,3.6,0,5.5c-1.3-1.9-2.4-3.7-3.6-5.4c-1.1,0-2.1,0-3.2,0c0,0.1,0,0.2,0,0.3c0,3.6,0,7.2,0,10.8
			c0,0,0,0,0,0c0,0,0,0,0.1,0.1c0.5,0,1,0,1.5,0c0.5,0,1,0.1,1.5-0.1c0-0.4,0-0.9,0-1.3c0-0.4,0-0.9,0-1.3c0-0.4,0-0.9,0-1.3
			c0-0.4,0-0.8,0.1-1.2C6,21,7.2,22.8,8.3,24.5z M122.8,13.3c-2.9,0-5.7,0-8.6,0c-0.7,1.9-1.4,3.9-2.2,5.9c2.4,0.5,4.8,1,7.2,1.4
			c-0.1,0.3-0.2,0.5-0.3,0.7c-2.1,0-4.1,0-6.2,0c0,0,0,0-0.1,0c0,0,0,0-0.1,0c0,0,0,0,0,0.1c0.4,0.4,0.8,0.9,1.3,1.4
			c-0.5,0.5-0.9,0.9-1.3,1.4c0.1,0.1,0.2,0.2,0.3,0.2c2.8,0,5.6,0,8.4,0c0.8-2.1,1.5-4.2,2.3-6.3c-2.4-0.5-4.7-0.9-7.1-1.4
			c0-0.4,0.3-0.4,0.5-0.4c1.4,0,2.8,0,4.2,0c0.6,0,1.1,0,1.7,0C122.8,15.4,122.8,14.4,122.8,13.3z M20.4,19.1
			c1.3,1.9,2.4,3.6,3.6,5.4c1.1,0,2.1,0,3.2,0c0-2.8,0-5.5,0-8.2c-0.4-0.5-1-0.9-1.3-1.5c0.5-0.5,0.9-1,1.4-1.5c-1.1,0-2.2,0-3.3,0
			c0,1.8,0,3.6,0,5.5c-1.3-1.9-2.4-3.7-3.6-5.5c-1.1,0-2.1,0-3.2,0c0,3.7,0,7.4,0,11.1c0.6,0.1,2.7,0.1,3.2,0
			C20.4,22.7,20.4,21,20.4,19.1z M94.7,19.5c0,0-0.1,0-0.1,0c-0.7-2-1.4-4.1-2.2-6.1c-1.1,0-2.2,0-3.4,0c1.3,3.8,2.6,7.5,3.9,11.2
			c1.1,0,2.2,0,3.3,0c1.3-3.7,2.6-7.4,3.9-11.2c-1.2,0-2.2,0-3.4,0C96.2,15.4,95.5,17.4,94.7,19.5z M55.7,17.1
			C55.6,17.1,55.6,17.1,55.7,17.1c-0.9-1.2-1.4-2.5-2.1-3.7c-1-0.1-3.1-0.1-3.5,0.1c0.1,0.2,0.1,0.3,0.2,0.5
			c1.2,2.3,2.3,4.6,3.5,6.9c0.2,0.3,0.2,0.6,0.2,1c0,0.8,0,1.6,0,2.4c0,0.1,0,0.3,0,0.4c1,0,2,0,3.1,0c0-0.2,0-0.3,0-0.5
			c0-0.8,0-1.5,0-2.3c0-0.4,0.1-0.7,0.3-1.1c1.2-2.3,2.3-4.5,3.5-6.8c0.1-0.2,0.2-0.3,0.3-0.5c-1.2,0-2.4,0-3.6,0
			C57,14.6,56.3,15.8,55.7,17.1z M78.8,21.3c0-2.7,0-5.4,0-8c-1.1,0-2.1,0-3.1,0c0,3.7,0,7.5,0,11.2c3,0,5.9,0,8.9,0
			c0.5-0.5,1-1,1.6-1.6c-0.6-0.5-1.1-1-1.8-1.5C82.6,21.3,80.8,21.3,78.8,21.3z M42.7,16.4c0,1.7,0,3.4,0,5c0.5,0.5,0.9,1,1.4,1.5
			c-0.3,0.3-0.5,0.5-0.7,0.8c-0.2,0.2-0.6,0.4-0.6,0.8c0.8,0.1,2.6,0.1,3.1-0.1c0-2.6,0-5.3,0-8c0.6,0,1.2,0,1.7,0
			c0.6,0,1.1,0.1,1.7-0.1c0-1,0-2,0-3.1c-3.3,0-6.6,0-10,0c0,1,0,2.1,0,3.1C40.4,16.4,41.5,16.4,42.7,16.4z M41.8,21.4
			c-4.5,0-9.1,0-13.6,0c0,0,0,0,0,0c0,0,0,0,0,0c0,1,0,2.1,0,3.1c4.6,0,9.1,0,13.7,0c0.5-0.5,1-1,1.5-1.6
			C42.8,22.4,42.3,21.9,41.8,21.4z M111.5,21.4c-3.6,0-7.2,0-10.7,0c-0.1,0.9-0.1,2.7,0.1,3.1c3.5,0,7.1,0,10.6,0
			c0.5-0.5,1-1,1.5-1.6C112.5,22.4,112,21.9,111.5,21.4z M12.9,13.3c0,0.1,0,0.2,0,0.3c0,3.6,0,7.2,0,10.8c0,0,0,0,0,0c0,0,0,0,0,0
			c1,0,2,0,3,0c0-3.7,0-7.4,0-11.1C15,13.3,13.9,13.3,12.9,13.3z M88.7,24.5c0-3.7,0-7.4,0-11.1c-1.1,0-2.1,0-3.1,0
			c0,2.7,0,5.4,0,8.1c0.5,0.5,0.9,1,1.4,1.5c-0.5,0.5-0.9,1-1.4,1.5C86.1,24.6,88.1,24.6,88.7,24.5z M26.6,14.8
			c0.6,0.6,1.2,1,1.7,1.5c3.2,0,6.4,0,9.6,0c0.1-0.8,0.1-2.6,0-3.1c-3.2,0-6.5,0-9.6,0C27.7,13.8,27.2,14.3,26.6,14.8z M110.8,17.3
			c-1.3-0.1-9.5-0.1-9.9,0c-0.1,0.8-0.1,2.7,0.1,3.1c3.3,0,6.6,0,9.9,0C110.8,19.4,110.8,18.4,110.8,17.3z M38,17.3
			c-3.3,0-6.6,0-9.9,0c0,1.1,0,2.1,0,3.1c3.3,0,6.6,0,9.9,0C38,19.4,38,18.4,38,17.3z M100.9,16.4c3.3,0,6.6,0,9.9,0c0-1,0-2,0-3.1
			c-0.1,0-0.2,0-0.3,0c-3.2,0-6.4,0-9.6,0c0,0,0,0,0,0c0,0,0,0,0,0C100.9,14.4,100.9,15.4,100.9,16.4z M39.7,18c0,0.6,0,1.1,0,1.7
			c0.5,0,1,0,1.5,0c0-0.6,0.1-1.2-0.1-1.7C40.6,18,40.2,18,39.7,18z M69,16.7c-0.3-0.1-0.6-0.3-0.9-0.4c-0.3,0.1-0.6,0.2-0.9,0.4
			C67.9,16.7,68.4,16.7,69,16.7z"/>
		<path class="st5" d="M73.9,13.2c0,3.2,0,6.4,0,9.6c-1.9,2-3.8,3.9-5.7,5.9c-0.9-0.8-1.7-1.6-2.5-2.4c2.2-2.2,4.3-4.3,6.5-6.5
			c-0.5-0.6-1-1.1-1.5-1.7c0-0.8,0-1.7,0-2.5c-0.9-0.3-1.7-0.6-2.6-1c-0.8,0.3-1.7,0.7-2.5,1c0,0.8,0,1.6,0,2.5c0.7,0,1.4,0,2.1,0
			c0.7,0,1.4,0,2.2,0c0.5,0.5,1,1.1,1.5,1.7c-0.5,0.6-1,1.1-1.5,1.6c-2.5,0-5,0-7.5,0c0-2.8,0-5.5,0-8.3c0.1,0,0.2-0.1,0.3-0.1
			c1.7-0.6,3.4-1.1,5.1-1.7c0.3-0.1,0.5-0.1,0.7,0c1.7,0.6,3.5,1.1,5.2,1.7C73.8,13.1,73.8,13.2,73.9,13.2z"/>
		<path class="st3" d="M8.3,24.5C7.2,22.8,6,21,4.8,19.3c-0.1,0.4-0.1,0.8-0.1,1.2c0,0.4,0,0.9,0,1.3c0,0.4,0,0.9,0,1.3
			c0,0.4,0,0.8,0,1.3c-0.5,0.1-1,0.1-1.5,0.1c-0.5,0-1,0-1.5,0c0,0,0,0-0.1-0.1c0,0,0,0,0,0c0-3.6,0-7.2,0-10.8c0-0.1,0-0.2,0-0.3
			c1,0,2.1,0,3.2,0c1.2,1.7,2.3,3.5,3.6,5.4c0-1.9,0-3.6,0-5.5c0.6,0,1.1,0,1.6,0c0.5,0,1,0,1.6,0c0,3.7,0,7.5,0,11.2
			C11,24.6,8.9,24.6,8.3,24.5z"/>
		<path class="st3" d="M122.8,13.3c0,1.1,0,2.1,0,3.1c-0.6,0-1.2,0-1.7,0c-1.4,0-2.8,0-4.2,0c-0.2,0-0.5,0-0.5,0.4
			c2.3,0.5,4.7,0.9,7.1,1.4c-0.7,2.1-1.5,4.2-2.3,6.3c-2.8,0-5.6,0-8.4,0c-0.1,0-0.1-0.1-0.3-0.2c0.5-0.5,0.9-0.9,1.3-1.4
			c-0.5-0.5-0.9-1-1.3-1.4c0-0.1,0-0.1,0-0.1c0,0,0,0,0.1,0c0,0,0,0,0.1,0c2.1,0,4.1,0,6.2,0c0.1-0.2,0.2-0.4,0.3-0.7
			c-2.4-0.5-4.8-1-7.2-1.4c0.7-2,1.5-3.9,2.2-5.9C117.1,13.3,120,13.3,122.8,13.3z"/>
		<path class="st3" d="M20.4,19.1c0,1.9,0,3.6,0,5.3c-0.5,0.1-2.6,0.1-3.2,0c0-3.7,0-7.4,0-11.1c1,0,2.1,0,3.2,0
			c1.2,1.8,2.3,3.5,3.6,5.5c0-1.9,0-3.7,0-5.5c1.1,0,2.1,0,3.3,0c-0.5,0.5-0.9,1-1.4,1.5c0.4,0.6,0.9,0.9,1.3,1.5c0,2.7,0,5.4,0,8.2
			c-1.1,0-2.1,0-3.2,0C22.9,22.7,21.7,21,20.4,19.1z"/>
		<path class="st3" d="M94.7,19.5c0.7-2.1,1.4-4.1,2.2-6.2c1.1,0,2.2,0,3.4,0c-1.3,3.8-2.6,7.5-3.9,11.2c-1.1,0-2.2,0-3.3,0
			c-1.3-3.7-2.6-7.4-3.9-11.2c1.1,0,2.2,0,3.4,0c0.7,2,1.4,4.1,2.2,6.1C94.7,19.5,94.7,19.5,94.7,19.5z"/>
		<path class="st3" d="M55.7,17.1c0.6-1.2,1.3-2.5,1.9-3.7c1.2,0,2.3,0,3.6,0c-0.1,0.2-0.2,0.4-0.3,0.5c-1.2,2.3-2.3,4.5-3.5,6.8
			c-0.2,0.4-0.3,0.7-0.3,1.1c0,0.8,0,1.5,0,2.3c0,0.1,0,0.3,0,0.5c-1,0-2,0-3.1,0c0-0.1,0-0.3,0-0.4c0-0.8,0-1.6,0-2.4
			c0-0.4-0.1-0.7-0.2-1c-1.2-2.3-2.3-4.6-3.5-6.9c-0.1-0.1-0.1-0.3-0.2-0.5c0.5-0.1,2.5-0.1,3.5-0.1C54.3,14.5,54.8,15.9,55.7,17.1
			C55.6,17.1,55.6,17.1,55.7,17.1z"/>
		<path class="st3" d="M78.8,21.3c2,0,3.9,0,5.6,0c0.6,0.6,1.2,1,1.8,1.5c-0.6,0.6-1.1,1.1-1.6,1.6c-3,0-5.9,0-8.9,0
			c0-3.7,0-7.4,0-11.2c1,0,2,0,3.1,0C78.8,16,78.8,18.6,78.8,21.3z"/>
		<path class="st3" d="M42.7,16.4c-1.2,0-2.3,0-3.4,0c0-1.1,0-2.1,0-3.1c3.3,0,6.6,0,10,0c0,1,0,2,0,3.1c-0.6,0.1-1.1,0-1.7,0.1
			c-0.5,0-1.1,0-1.7,0c0,2.7,0,5.4,0,8c-0.5,0.1-2.3,0.1-3.1,0.1c0-0.4,0.4-0.5,0.6-0.8c0.2-0.3,0.5-0.5,0.7-0.8
			c-0.5-0.5-0.9-1-1.4-1.5C42.7,19.8,42.7,18.1,42.7,16.4z"/>
		<path class="st3" d="M41.8,21.4c0.5,0.5,1,1,1.5,1.6c-0.5,0.6-1,1.1-1.5,1.6c-4.6,0-9.1,0-13.7,0c0-1,0-2,0-3.1c0,0,0,0,0,0
			c0,0,0,0,0,0C32.7,21.4,37.3,21.4,41.8,21.4z"/>
		<path class="st3" d="M111.5,21.4c0.5,0.5,0.9,1,1.4,1.5c-0.4,0.6-1,1.1-1.5,1.6c-3.5,0-7.1,0-10.6,0c-0.1-0.4-0.2-2.2-0.1-3.1
			C104.4,21.4,107.9,21.4,111.5,21.4z"/>
		<path class="st3" d="M12.9,13.3c1.1,0,2.1,0,3.1,0c0,3.7,0,7.4,0,11.1c-1,0-2,0-3,0c0,0,0,0,0,0c0,0,0,0,0,0c0-3.6,0-7.2,0-10.8
			C12.9,13.5,12.9,13.4,12.9,13.3z"/>
		<path class="st3" d="M88.7,24.5c-0.6,0.1-2.6,0.1-3.1,0c0.5-0.5,0.9-1,1.4-1.5c-0.5-0.5-1-1-1.4-1.5c0-2.7,0-5.4,0-8.1
			c1.1,0,2.1,0,3.1,0C88.7,17,88.7,20.7,88.7,24.5z"/>
		<path class="st3" d="M26.6,14.8c0.6-0.5,1.1-1,1.7-1.5c3.1,0,6.4,0,9.6,0c0.1,0.5,0.1,2.3,0,3.1c-3.2,0-6.5,0-9.6,0
			C27.8,15.9,27.2,15.4,26.6,14.8z"/>
		<path class="st3" d="M110.8,17.3c0,1.1,0,2.1,0,3.1c-3.3,0-6.6,0-9.9,0c-0.1-0.4-0.2-2.3-0.1-3.1
			C101.3,17.3,109.5,17.2,110.8,17.3z"/>
		<path class="st3" d="M38,17.3c0,1.1,0,2.1,0,3.1c-3.3,0-6.6,0-9.9,0c0-1,0-2.1,0-3.1C31.4,17.3,34.7,17.3,38,17.3z"/>
		<path class="st3" d="M100.9,16.4c0-1,0-2,0-3c0,0,0,0,0,0c0,0,0,0,0,0c3.2,0,6.4,0,9.6,0c0.1,0,0.2,0,0.3,0c0,1,0,2,0,3.1
			C107.5,16.4,104.2,16.4,100.9,16.4z"/>
		<path class="st3" d="M39.7,18c0.5,0,0.9,0,1.4,0c0.1,0.5,0,1.1,0.1,1.7c-0.5,0-1,0-1.5,0C39.7,19.1,39.7,18.6,39.7,18z"/>
		<path class="st3" d="M69,16.7c-0.6,0-1.2,0-1.8,0c0.3-0.1,0.6-0.2,0.9-0.4C68.4,16.5,68.7,16.6,69,16.7z"/>
	</g>
</g>
</svg>
