<?xml version="1.0" encoding="utf-8"?>
<!-- Generator: Adobe Illustrator 20.1.0, SVG Export Plug-In . SVG Version: 6.00 Build 0)  -->
<svg version="1.1" id="logos" xmlns="http://www.w3.org/2000/svg" xmlns:xlink="http://www.w3.org/1999/xlink" x="0px" y="0px"
	 viewBox="0 0 125 40" enable-background="new 0 0 125 40" xml:space="preserve">
<g>
	<linearGradient id="SVGID_1_" gradientUnits="userSpaceOnUse" x1="-3.5708" y1="-0.4826" x2="24.2553" y2="57.1193">
		<stop  offset="0.1857" style="stop-color:#3D9CDC"/>
		<stop  offset="0.2665" style="stop-color:#43A7A9"/>
		<stop  offset="0.3406" style="stop-color:#48AF81"/>
		<stop  offset="0.3993" style="stop-color:#4BB469"/>
		<stop  offset="0.4353" style="stop-color:#4CB660"/>
		<stop  offset="0.5041" style="stop-color:#56B654"/>
		<stop  offset="0.627" style="stop-color:#70B835"/>
		<stop  offset="0.7258" style="stop-color:#89B918"/>
		<stop  offset="0.9433" style="stop-color:#E2CA18"/>
		<stop  offset="1" style="stop-color:#FACF18"/>
	</linearGradient>
	<path fill="url(#SVGID_1_)" d="M12.061,6.193c-0.223,0-2.941,0-5.602,0s-5.268,0-5.268,0c-0.174,0-0.344,0.143-0.412,0.326
		c-0.068,0.183-0.034,0.406,0.2,0.565c0.233,0.159,1.198,0.828,2.168,1.505S5.09,9.95,5.341,10.14
		c0.251,0.19,0.384,0.403,0.455,0.616s0.078,0.426,0.078,0.616c0,0.19,0,3.363,0,6.592s0,6.516,0,6.934
		c0,0.418,0.004,1.103-0.314,1.683c-0.318,0.58-0.959,1.056-2.249,1.056c-0.765,0-1.337,0-1.752,0s-0.673,0-0.811,0
		c-0.138,0-0.325,0.049-0.477,0.171C0.118,27.931,0,28.125,0,28.414c0,0.289,0,1.435,0,2.554c0,1.118,0,2.209,0,2.386
		s0.056,0.375,0.175,0.529s0.302,0.262,0.555,0.262s0.525,0,0.926,0s0.931,0,1.702,0c1.314,0,2.658-0.193,3.86-0.562
		c1.202-0.369,2.262-0.914,3.008-1.619c0.746-0.705,1.385-1.623,1.837-2.838c0.453-1.215,0.719-2.728,0.719-4.622
		c0-1.331,0-5.611,0-9.614s0-7.731,0-7.959s-0.068-0.413-0.193-0.54C12.464,6.263,12.284,6.193,12.061,6.193z"/>
	<linearGradient id="SVGID_2_" gradientUnits="userSpaceOnUse" x1="16.1539" y1="-10.0111" x2="43.98" y2="47.5908">
		<stop  offset="0.1857" style="stop-color:#3D9CDC"/>
		<stop  offset="0.2665" style="stop-color:#43A7A9"/>
		<stop  offset="0.3406" style="stop-color:#48AF81"/>
		<stop  offset="0.3993" style="stop-color:#4BB469"/>
		<stop  offset="0.4353" style="stop-color:#4CB660"/>
		<stop  offset="0.5041" style="stop-color:#56B654"/>
		<stop  offset="0.627" style="stop-color:#70B835"/>
		<stop  offset="0.7258" style="stop-color:#89B918"/>
		<stop  offset="0.9433" style="stop-color:#E2CA18"/>
		<stop  offset="1" style="stop-color:#FACF18"/>
	</linearGradient>
	<path fill="url(#SVGID_2_)" d="M38.826,6.193h-2.842h-2.842c-0.168,0-0.321,0.069-0.432,0.18c-0.111,0.111-0.18,0.264-0.18,0.432
		v5.319v5.319v3.72v3.72c0,0.883-0.361,1.659-0.943,2.214c-0.582,0.555-1.384,0.89-2.267,0.89c-0.883,0-1.685-0.335-2.267-0.89
		c-0.582-0.555-0.943-1.331-0.943-2.214v-3.72v-3.72v-5.319V6.805c0-0.168-0.069-0.321-0.18-0.432
		c-0.111-0.111-0.264-0.18-0.432-0.18h-2.842h-2.842c-0.168,0-0.321,0.069-0.432,0.18c-0.111,0.111-0.18,0.264-0.18,0.432v7.221
		v7.221V23.4v2.153c0,2.782,1.004,5.019,2.771,6.56c1.767,1.541,4.296,2.386,7.347,2.386c3.279,0,5.808-0.845,7.518-2.386
		c1.71-1.541,2.6-3.778,2.6-6.56V23.4v-2.153v-7.221V6.805c0-0.168-0.069-0.321-0.18-0.432C39.147,6.262,38.994,6.193,38.826,6.193z
		"/>
	<linearGradient id="SVGID_3_" gradientUnits="userSpaceOnUse" x1="36.9453" y1="-20.055" x2="64.7714" y2="37.5469">
		<stop  offset="0.1857" style="stop-color:#3D9CDC"/>
		<stop  offset="0.2665" style="stop-color:#43A7A9"/>
		<stop  offset="0.3406" style="stop-color:#48AF81"/>
		<stop  offset="0.3993" style="stop-color:#4BB469"/>
		<stop  offset="0.4353" style="stop-color:#4CB660"/>
		<stop  offset="0.5041" style="stop-color:#56B654"/>
		<stop  offset="0.627" style="stop-color:#70B835"/>
		<stop  offset="0.7258" style="stop-color:#89B918"/>
		<stop  offset="0.9433" style="stop-color:#E2CA18"/>
		<stop  offset="1" style="stop-color:#FACF18"/>
	</linearGradient>
	<path fill="url(#SVGID_3_)" d="M58.822,20.685c-0.081-0.132-0.147-0.236-0.193-0.342s-0.071-0.213-0.071-0.352
		c0-0.139,0.043-0.275,0.103-0.403c0.06-0.128,0.136-0.248,0.202-0.354c0.066-0.107,1.859-3.104,3.663-6.122s3.62-6.056,3.732-6.243
		c0.112-0.188,0.134-0.357,0.087-0.479c-0.047-0.122-0.164-0.197-0.331-0.197c-0.167,0-1.671,0-3.218,0c-1.547,0-3.137,0-3.477,0
		c-0.34,0-0.563,0.063-0.725,0.164c-0.162,0.102-0.264,0.243-0.36,0.4c-0.096,0.157-1.144,1.968-2.248,3.88s-2.266,3.926-2.59,4.489
		c-0.173,0.3-0.277,0.353-0.338,0.289c-0.061-0.064-0.078-0.244-0.078-0.411c0-0.167,0-2.221,0-4.233s0-3.982,0-3.982
		c0-0.164-0.067-0.313-0.175-0.421c-0.108-0.108-0.257-0.175-0.421-0.175h-2.842h-2.842c-0.164,0-0.313,0.067-0.421,0.175
		c-0.108,0.108-0.175,0.257-0.175,0.421v13.196v13.196c0,0.164,0.067,0.313,0.175,0.421c0.108,0.108,0.257,0.175,0.421,0.175h2.842
		h2.842c0.164,0,0.313-0.067,0.421-0.175c0.108-0.108,0.175-0.257,0.175-0.421c0,0,0.005-2.026,0.01-4.088S53,24.935,53,24.793
		c0-0.142,0.041-0.221,0.103-0.228c0.062-0.008,0.146,0.056,0.232,0.198c0.086,0.142,1.25,2.158,2.428,4.196s2.37,4.097,2.512,4.325
		c0.142,0.228,0.294,0.352,0.458,0.419c0.164,0.067,0.339,0.076,0.526,0.076c0.188,0,1.745,0,3.316,0c1.571,0,3.156,0,3.399,0
		c0.243,0,0.358-0.101,0.391-0.235c0.033-0.134-0.015-0.301-0.096-0.433c-0.081-0.132-1.902-3.172-3.723-6.213
		S58.903,20.816,58.822,20.685z"/>
	<linearGradient id="SVGID_4_" gradientUnits="userSpaceOnUse" x1="56.0506" y1="-29.2843" x2="83.8767" y2="28.3176">
		<stop  offset="0.1857" style="stop-color:#3D9CDC"/>
		<stop  offset="0.2665" style="stop-color:#43A7A9"/>
		<stop  offset="0.3406" style="stop-color:#48AF81"/>
		<stop  offset="0.3993" style="stop-color:#4BB469"/>
		<stop  offset="0.4353" style="stop-color:#4CB660"/>
		<stop  offset="0.5041" style="stop-color:#56B654"/>
		<stop  offset="0.627" style="stop-color:#70B835"/>
		<stop  offset="0.7258" style="stop-color:#89B918"/>
		<stop  offset="0.9433" style="stop-color:#E2CA18"/>
		<stop  offset="1" style="stop-color:#FACF18"/>
	</linearGradient>
	<path fill="url(#SVGID_4_)" d="M79.196,25.903c0.133-0.091,2.24-1.392,4.363-2.703c2.123-1.31,4.26-2.63,4.454-2.76
		c0.194-0.129,0.304-0.285,0.309-0.447c0.005-0.162-0.096-0.329-0.324-0.481c-0.228-0.152-2.366-1.47-4.486-2.776
		c-2.12-1.306-4.221-2.599-4.377-2.702c-0.156-0.103-0.215-0.221-0.203-0.339c0.012-0.118,0.096-0.236,0.225-0.339
		c0.129-0.103,2.321-1.643,4.509-3.179c2.188-1.536,4.374-3.068,4.49-3.153c0.117-0.085,0.189-0.294,0.15-0.481
		c-0.039-0.187-0.19-0.352-0.518-0.352c-0.167,0-4.133,0-8.057,0s-7.806,0-7.806,0c-0.164,0-0.313,0.067-0.421,0.175
		c-0.108,0.108-0.175,0.257-0.175,0.421v13.196v13.196c0,0.164,0.067,0.313,0.175,0.421c0.108,0.108,0.257,0.175,0.421,0.175
		c0,0,3.851,0,7.762,0c3.911,0,7.884,0,8.127,0c0.32,0,0.468-0.164,0.493-0.358s-0.071-0.419-0.242-0.54
		c-0.18-0.127-2.331-1.636-4.479-3.143c-2.148-1.508-4.293-3.015-4.46-3.141s-0.217-0.253-0.191-0.372
		C78.962,26.105,79.062,25.995,79.196,25.903z"/>
</g>
<rect x="0" y="0" fill="none" width="125" height="40"/>
</svg>
