<?xml version="1.0" encoding="utf-8"?>
<!-- Generator: Adobe Illustrator 19.2.0, SVG Export Plug-In . SVG Version: 6.00 Build 0)  -->
<svg version="1.1" xmlns="http://www.w3.org/2000/svg" xmlns:xlink="http://www.w3.org/1999/xlink" x="0px" y="0px"
	 viewBox="0 0 125 40" enable-background="new 0 0 125 40" xml:space="preserve">
<g id="bg" display="none">
	<rect x="0" display="inline" fill="#FFFFFF" width="125" height="40"/>
</g>
<g id="icons">
	<g>
		<path d="M25.051,40h7.98L19.495,0h-6.346L0,40h7.425l3.513-11.009h10.498L25.051,40z M13.048,22.373l3.062-9.595l3.151,9.595
			H13.048z"/>
		<path d="M106.615,40h7.98L101.059,0h-6.343L81.565,40h7.424l3.515-11.009h10.495L106.615,40z M94.615,22.373l3.061-9.595
			l3.152,9.595H94.615z"/>
		<polygon points="36.48,0 28.836,0 42.19,40 48.489,40 57.323,12.006 66.714,40 73.18,40 85.693,0 78.302,0 70.072,26.953 
			60.917,0 53.611,0 45.466,26.87 		"/>
	</g>
</g>
</svg>
