<?xml version="1.0" encoding="utf-8"?>
<!-- Generator: Adobe Illustrator 19.2.0, SVG Export Plug-In . SVG Version: 6.00 Build 0)  -->
<svg version="1.1" xmlns="http://www.w3.org/2000/svg" xmlns:xlink="http://www.w3.org/1999/xlink" x="0px" y="0px"
	 viewBox="0 0 125 40" enable-background="new 0 0 125 40" xml:space="preserve">
<g id="bg" display="none">
	<rect display="inline" fill="#FFFFFF" width="125" height="40"/>
</g>
<g id="icons">
	<g>
		<path fill-rule="evenodd" clip-rule="evenodd" fill="#80191B" d="M0,21.027c0.128-0.152,0.088-0.348,0.112-0.52
			c0.144-1.027,0.403-2.025,0.775-2.991c0.803-2.09,2.045-3.881,3.715-5.37c1.732-1.543,3.73-2.587,5.988-3.123
			c0.688-0.164,1.384-0.295,2.094-0.322c0.319-0.012,0.636-0.037,0.955-0.054c0.039-0.002,0.079,0.009,0.128,0.015
			c0,0.312,0,0.616,0,0.944c-3.524,0.06-6.562,1.286-9.052,3.768c-2.494,2.487-3.705,5.535-3.791,9.078c-0.312,0-0.617,0-0.923,0
			C0,21.976,0,21.502,0,21.027z"/>
		<path fill-rule="evenodd" clip-rule="evenodd" fill="#EA3338" d="M18.203,12.256c0.084-0.702,0.164-1.404,0.252-2.105
			c0.074-0.589,0.16-1.176,0.231-1.765c0.054-0.448,0.091-0.898,0.14-1.346c0.022-0.201,0.055-0.402,0.083-0.605
			c0.434,0.036,0.852,0.072,1.27,0.104c0.105,0.008,0.194,0.012,0.249,0.133c0.422,0.924,1.153,1.542,2.005,2.052
			c0.489,0.293,0.965,0.614,1.421,0.957c0.554,0.417,1.021,0.926,1.368,1.528c0.269,0.467,0.434,0.978,0.394,1.524
			c-0.035,0.473-0.181,0.918-0.421,1.332c-0.253,0.437-0.558,0.833-0.902,1.202c-0.113,0.122-0.226,0.168-0.391,0.095
			c0.213-0.489,0.385-0.992,0.457-1.518c0.107-0.79,0.062-1.557-0.455-2.227c-0.336-0.435-0.778-0.719-1.273-0.933
			c-0.578-0.249-1.188-0.367-1.81-0.444c-0.285-0.035-0.567-0.06-0.854-0.043c-0.031,0.25-0.062,0.481-0.088,0.714
			c-0.064,0.57-0.131,1.14-0.185,1.711c-0.015,0.158-0.06,0.327,0.047,0.477c-0.038,0.078-0.103,0.153-0.109,0.234
			c-0.031,0.37-0.047,0.742-0.067,1.114c-0.028,0.124-0.067,0.247-0.083,0.373c-0.058,0.463-0.112,0.927-0.159,1.392
			c-0.008,0.074,0.03,0.154,0.047,0.231c-0.019,0.021-0.05,0.04-0.055,0.065c-0.078,0.386-0.143,0.774-0.123,1.17
			c-0.039,0.241-0.089,0.482-0.116,0.724c-0.072,0.651-0.134,1.305-0.2,1.958c-0.024,0.234-0.056,0.468-0.076,0.703
			c-0.046,0.536-0.199,1.064-0.115,1.611c0.011,0.07,0.006,0.144-0.001,0.216c-0.084,0.89-0.495,1.607-1.199,2.138
			c-0.782,0.591-1.68,0.874-2.663,0.893c-0.423,0.006-0.838-0.03-1.253-0.118c-1.036-0.22-1.92-0.694-2.6-1.515
			c-0.418-0.502-0.666-1.089-0.682-1.743c-0.024-0.962,0.414-1.719,1.142-2.313c0.714-0.581,1.559-0.851,2.463-0.926
			c0.701-0.059,1.392,0.033,2.062,0.258c0.458,0.153,0.889,0.365,1.303,0.65c0.069-0.62,0.135-1.219,0.205-1.819
			c0.026-0.223,0.066-0.445,0.092-0.669c0.052-0.448,0.099-0.896,0.147-1.345c0.003-0.061-0.004-0.123,0.009-0.182
			c0.068-0.302,0.126-0.605,0.116-0.917c0.065-0.583,0.13-1.165,0.195-1.748c0.018-0.064,0.044-0.126,0.051-0.191
			c0.013-0.112,0.007-0.226,0.022-0.337C18.128,12.755,18.167,12.505,18.203,12.256z"/>
		<path fill-rule="evenodd" clip-rule="evenodd" fill="#7F181A" d="M18.203,12.256c-0.037,0.25-0.076,0.499-0.107,0.749
			c-0.014,0.111-0.008,0.225-0.022,0.337c-0.007,0.065-0.033,0.127-0.051,0.191c-1.047-0.501-2.152-0.813-3.304-0.909
			c-1.301-0.109-2.587-0.001-3.843,0.394c-1.886,0.594-3.461,1.649-4.717,3.173c-1.407,1.706-2.134,3.679-2.247,5.88
			c-0.038,0.732,0.032,1.458,0.164,2.181c0.373,2.033,1.307,3.772,2.761,5.231c0.85,0.852,1.837,1.515,2.939,2.008
			c0.935,0.419,1.912,0.684,2.927,0.79c0.624,0.067,1.249,0.085,1.879,0.028c0.813-0.074,1.606-0.225,2.375-0.489
			c1.902-0.651,3.467-1.777,4.689-3.372c1.168-1.524,1.822-3.253,1.988-5.16c0.057-0.654,0.041-1.315-0.035-1.975
			c-0.116-1.008-0.379-1.973-0.795-2.895c-0.728-1.61-1.805-2.938-3.24-3.973c0.021-0.371,0.036-0.743,0.067-1.114
			c0.007-0.081,0.071-0.156,0.109-0.234c0.835,0.503,1.568,1.132,2.225,1.847c0.699,0.76,1.281,1.604,1.747,2.527
			c0.506,1.003,0.848,2.062,1.037,3.167c0.144,0.844,0.19,1.7,0.125,2.553c-0.175,2.31-0.959,4.395-2.415,6.205
			c-1.526,1.897-3.479,3.164-5.831,3.801c-0.733,0.198-1.483,0.299-2.244,0.349c-0.538,0.036-1.07,0.01-1.602-0.028
			c-0.623-0.044-1.24-0.156-1.845-0.321c-1.429-0.388-2.739-1.026-3.913-1.931c-1.606-1.24-2.789-2.806-3.549-4.686
			c-0.354-0.875-0.591-1.783-0.697-2.725C2.703,23.172,2.67,22.49,2.71,21.798c0.086-1.506,0.453-2.933,1.134-4.272
			c1.446-2.842,3.71-4.738,6.745-5.702c0.672-0.213,1.368-0.337,2.076-0.407c0.66-0.065,1.319-0.076,1.975-0.028
			c1.201,0.088,2.363,0.366,3.472,0.847C18.141,12.247,18.173,12.249,18.203,12.256z"/>
		<path fill-rule="evenodd" clip-rule="evenodd" fill="#EC2228" d="M90.058,19.476c-0.031,0.047-0.07,0.09-0.091,0.141
			c-0.308,0.735-0.613,1.472-0.922,2.207c-0.4,0.951-0.803,1.902-1.205,2.853c-0.489,1.158-0.978,2.317-1.469,3.474
			c-0.04,0.094-0.09,0.182-0.137,0.273c-0.308,0.595-1.306,0.598-1.603-0.005c-0.194-0.394-0.369-0.797-0.54-1.201
			c-0.546-1.29-1.084-2.584-1.629-3.874c-0.512-1.215-1.028-2.429-1.539-3.644c-0.033-0.078-0.045-0.16-0.195-0.147
			c0,0.105,0,0.214,0,0.321c0,2.735,0.002,5.469-0.003,8.204c0,0.183-0.015,0.372-0.061,0.546c-0.072,0.27-0.299,0.383-0.691,0.383
			c-0.371-0.001-0.588-0.117-0.669-0.373c-0.033-0.106-0.053-0.221-0.053-0.331c-0.003-3.631-0.002-7.265-0.002-10.896
			c0-0.041-0.002-0.083,0.003-0.123c0.034-0.346,0.184-0.597,0.539-0.706c0.265-0.081,0.532-0.09,0.795-0.048
			c0.32,0.051,0.564,0.231,0.697,0.541c0.161,0.376,0.329,0.75,0.486,1.127c0.381,0.915,0.758,1.833,1.137,2.749
			c0.492,1.19,0.984,2.38,1.48,3.569c0.303,0.725,0.613,1.449,0.92,2.174c0.047,0.11,0.094,0.221,0.158,0.367
			c0.182-0.419,0.354-0.8,0.515-1.186c0.432-1.038,0.861-2.077,1.29-3.116c0.531-1.284,1.061-2.57,1.594-3.853
			c0.239-0.575,0.477-1.152,0.73-1.721c0.293-0.655,1.007-0.885,1.652-0.544c0.244,0.128,0.333,0.35,0.365,0.604
			c0.011,0.091,0.005,0.186,0.005,0.278c0.001,3.57-0.006,7.14,0.007,10.71c0.002,0.593-0.298,0.8-0.813,0.777
			c-0.335-0.016-0.671-0.171-0.665-0.64c0.001-0.113-0.007-0.227-0.007-0.34c-0.001-2.735-0.001-5.468-0.001-8.203
			c0-0.111,0-0.222,0-0.333C90.11,19.487,90.084,19.482,90.058,19.476z"/>
		<path fill-rule="evenodd" clip-rule="evenodd" fill="#EC2228" d="M33.707,26.526c0.067-0.187,0.118-0.308,0.154-0.435
			c0.226-0.786,0.449-1.573,0.672-2.36c0.318-1.12,0.632-2.241,0.953-3.36c0.219-0.765,0.447-1.528,0.67-2.291
			c0.1-0.343,0.196-0.687,0.298-1.029c0.092-0.307,0.316-0.482,0.62-0.528c0.35-0.054,0.69,0,0.908,0.317
			c0.096,0.139,0.148,0.312,0.196,0.477c0.233,0.803,0.458,1.609,0.686,2.414c0.315,1.11,0.627,2.22,0.945,3.33
			c0.273,0.953,0.552,1.906,0.829,2.858c0.053,0.183,0.11,0.366,0.214,0.543c0.13-0.47,0.259-0.943,0.389-1.415
			c0.381-1.377,0.763-2.755,1.142-4.134c0.344-1.25,0.684-2.503,1.025-3.754c0.013-0.049,0.041-0.095,0.051-0.144
			c0.1-0.46,0.473-0.582,0.876-0.469c0.069,0.02,0.135,0.048,0.202,0.074c0.331,0.126,0.455,0.332,0.373,0.67
			c-0.092,0.377-0.204,0.749-0.312,1.122c-0.363,1.256-0.726,2.512-1.093,3.768c-0.215,0.736-0.439,1.469-0.653,2.206
			c-0.363,1.244-0.72,2.492-1.081,3.737c-0.031,0.109-0.083,0.211-0.108,0.319c-0.067,0.28-0.248,0.439-0.515,0.515
			c-0.344,0.099-0.678,0.088-0.956-0.159c-0.109-0.096-0.203-0.239-0.246-0.379c-0.327-1.075-0.638-2.153-0.956-3.231
			c-0.349-1.186-0.698-2.372-1.048-3.557c-0.215-0.725-0.433-1.448-0.651-2.172c-0.008-0.029-0.023-0.054-0.049-0.116
			c-0.037,0.07-0.07,0.114-0.084,0.163c-0.321,1.098-0.637,2.198-0.959,3.295c-0.216,0.736-0.441,1.467-0.657,2.202
			c-0.32,1.089-0.635,2.178-0.954,3.266c-0.092,0.311-0.215,0.599-0.576,0.695c-0.312,0.082-0.614,0.064-0.896-0.092
			c-0.214-0.118-0.287-0.346-0.35-0.56c-0.332-1.116-0.654-2.234-0.977-3.354c-0.428-1.481-0.852-2.965-1.281-4.448
			c-0.261-0.902-0.532-1.802-0.792-2.705c-0.059-0.206-0.112-0.417-0.13-0.63c-0.023-0.275,0.097-0.441,0.36-0.539
			c0.142-0.053,0.291-0.107,0.44-0.118c0.38-0.028,0.57,0.109,0.682,0.475c0.11,0.362,0.208,0.726,0.308,1.09
			c0.185,0.67,0.369,1.34,0.552,2.011c0.274,1.005,0.544,2.012,0.82,3.017c0.228,0.828,0.46,1.654,0.69,2.481
			C33.522,25.882,33.606,26.172,33.707,26.526z"/>
		<path fill-rule="evenodd" clip-rule="evenodd" fill="#EC2228" d="M68.909,24.017c-0.478,0.409-0.926,0.796-1.38,1.176
			c-0.114,0.096-0.11,0.211-0.11,0.335c0.001,0.834,0.001,1.67,0.001,2.506c0,0.113-0.003,0.227-0.007,0.339
			c-0.013,0.348-0.102,0.501-0.427,0.587c-0.19,0.049-0.412,0.053-0.603,0.008c-0.318-0.075-0.425-0.247-0.441-0.582
			c-0.005-0.094-0.003-0.187-0.003-0.279c0-3.568,0-7.136,0.001-10.704c0-0.094-0.003-0.186,0.003-0.278
			c0.019-0.33,0.137-0.495,0.452-0.58c0.276-0.074,0.553-0.048,0.801,0.108c0.137,0.085,0.209,0.224,0.216,0.388
			c0.006,0.145,0.008,0.289,0.008,0.434c0,1.908,0,3.816,0,5.724c0,0.112,0,0.225,0,0.391c0.206-0.156,0.384-0.28,0.552-0.418
			c0.745-0.612,1.486-1.23,2.232-1.841c0.523-0.429,1.057-0.844,1.576-1.277c0.322-0.269,0.853-0.119,1.021,0.29
			c0.101,0.248,0.04,0.445-0.14,0.611c-0.233,0.217-0.477,0.422-0.721,0.626c-0.551,0.46-1.104,0.916-1.658,1.372
			c-0.063,0.052-0.137,0.091-0.216,0.143c0.208,0.323,0.374,0.589,0.547,0.852c0.845,1.282,1.692,2.564,2.54,3.845
			c0.115,0.173,0.218,0.346,0.22,0.563c0,0.165-0.051,0.317-0.185,0.406c-0.152,0.1-0.32,0.192-0.495,0.235
			c-0.286,0.071-0.52-0.034-0.686-0.29c-0.524-0.807-1.053-1.611-1.58-2.417c-0.458-0.702-0.915-1.405-1.374-2.107
			C69.018,24.131,68.973,24.09,68.909,24.017z"/>
		<path fill-rule="evenodd" clip-rule="evenodd" fill="#EC2127" d="M57.132,21.312c0.412-0.552,0.886-0.979,1.485-1.261
			c0.422-0.198,0.865-0.304,1.333-0.32c0.446-0.017,0.891,0.01,1.312,0.142c0.938,0.292,1.604,0.882,1.868,1.861
			c0.114,0.42,0.14,0.85,0.14,1.283c-0.001,1.732,0,3.465,0,5.197c0,0.062-0.008,0.123-0.005,0.185
			c0.02,0.405-0.306,0.588-0.598,0.606c-0.205,0.013-0.406,0.006-0.598-0.101c-0.172-0.096-0.257-0.229-0.274-0.413
			c-0.009-0.092-0.004-0.186-0.004-0.278c0-1.609,0.002-3.218-0.001-4.825c-0.001-0.422-0.029-0.837-0.175-1.243
			c-0.191-0.531-0.548-0.834-1.101-0.953c-0.462-0.101-0.909-0.114-1.368,0.006c-0.444,0.116-0.813,0.347-1.096,0.692
			c-0.465,0.568-0.709,1.234-0.8,1.962c-0.103,0.832-0.041,1.666-0.055,2.499c-0.011,0.64-0.016,1.279,0.002,1.918
			c0.015,0.536-0.286,0.749-0.757,0.74c-0.072-0.002-0.146,0.003-0.216-0.011c-0.315-0.064-0.47-0.242-0.5-0.573
			c-0.009-0.102-0.01-0.205-0.01-0.308c-0.001-2.454-0.002-4.908,0.001-7.364c0.001-0.172,0.034-0.344,0.061-0.516
			c0.023-0.148,0.116-0.24,0.265-0.26c0.181-0.025,0.366-0.066,0.544-0.049c0.362,0.033,0.524,0.223,0.543,0.586
			c0.007,0.134,0.002,0.268,0.002,0.402C57.132,21.046,57.132,21.179,57.132,21.312z"/>
		<path fill-rule="evenodd" clip-rule="evenodd" fill="#EC2228" d="M100.549,27.558c-0.231,0.27-0.398,0.507-0.605,0.7
			c-0.537,0.502-1.169,0.806-1.911,0.889c-0.57,0.063-1.123,0.025-1.674-0.132c-0.816-0.233-1.378-0.743-1.692-1.521
			c-0.178-0.44-0.256-0.903-0.255-1.382c0.006-1.837,0.003-3.673,0.003-5.509c0-0.477,0.188-0.674,0.664-0.691
			c0.092-0.004,0.186,0,0.277,0.015c0.37,0.064,0.533,0.255,0.533,0.632c0.002,1.733,0.001,3.466,0,5.199
			c0,0.363,0.059,0.714,0.181,1.055c0.16,0.444,0.454,0.751,0.919,0.867c0.772,0.195,1.528,0.209,2.212-0.273
			c0.513-0.362,0.831-0.874,1.022-1.461c0.176-0.538,0.264-1.094,0.26-1.664c-0.007-1.187-0.003-2.373-0.003-3.559
			c0-0.083-0.004-0.165,0.004-0.248c0.027-0.291,0.156-0.446,0.437-0.523c0.212-0.058,0.423-0.062,0.635,0.013
			c0.25,0.087,0.376,0.232,0.397,0.486c0.006,0.072,0.003,0.145,0.003,0.217c0,2.538,0,5.075,0,7.612
			c0,0.041-0.002,0.082,0.001,0.124c0.019,0.354-0.226,0.6-0.583,0.604c-0.051,0.001-0.103,0.002-0.155,0.002
			c-0.379-0.003-0.679-0.183-0.67-0.66C100.553,28.103,100.549,27.857,100.549,27.558z"/>
		<path fill-rule="evenodd" clip-rule="evenodd" fill="#EC2228" d="M107.883,19.732c0.568-0.031,1.185,0.074,1.785,0.26
			c0.449,0.14,0.857,0.37,1.211,0.697c0.317,0.294,0.321,0.681,0.093,0.967c-0.222,0.279-0.538,0.307-0.92,0.11
			c-0.298-0.154-0.594-0.314-0.891-0.471c-0.727-0.383-1.487-0.409-2.273-0.234c-0.368,0.081-0.663,0.257-0.87,0.575
			c-0.289,0.445-0.237,1.378,0.457,1.699c0.371,0.173,0.76,0.23,1.152,0.302c0.564,0.104,1.136,0.176,1.69,0.314
			c0.647,0.162,1.224,0.465,1.6,1.055c0.342,0.535,0.414,1.128,0.361,1.742c-0.035,0.412-0.159,0.802-0.389,1.15
			c-0.393,0.594-0.958,0.935-1.637,1.11c-0.684,0.176-1.376,0.2-2.079,0.141c-0.618-0.052-1.219-0.162-1.795-0.389
			c-0.37-0.146-0.732-0.315-0.993-0.634c-0.247-0.302-0.233-0.611,0.033-0.951c0.21-0.266,0.536-0.338,0.857-0.168
			c0.18,0.093,0.347,0.216,0.521,0.32c0.333,0.201,0.675,0.378,1.05,0.495c0.323,0.1,0.65,0.094,0.978,0.1
			c0.37,0.008,0.742,0.003,1.093-0.141c0.572-0.233,0.943-0.628,0.879-1.41c-0.051-0.639-0.469-0.912-0.989-1.067
			c-0.429-0.127-0.883-0.172-1.323-0.264c-0.51-0.108-1.035-0.148-1.518-0.366c-0.674-0.301-1.254-0.707-1.477-1.456
			c-0.209-0.703-0.196-1.401,0.149-2.065c0.214-0.411,0.551-0.709,0.953-0.931c0.654-0.361,1.363-0.491,2.102-0.489
			C107.735,19.732,107.776,19.732,107.883,19.732z"/>
		<path fill-rule="evenodd" clip-rule="evenodd" fill="#EC2228" d="M49.886,26.86c0.126-0.291,0.228-0.52,0.326-0.75
			c0.778-1.835,1.555-3.67,2.333-5.505c0.048-0.113,0.097-0.225,0.149-0.336c0.026-0.055,0.059-0.108,0.094-0.158
			c0.157-0.228,0.509-0.292,0.957-0.062c0.282,0.144,0.367,0.393,0.239,0.7c-0.34,0.811-0.685,1.619-1.032,2.426
			c-0.421,0.976-0.845,1.95-1.268,2.925c-0.52,1.2-1.038,2.402-1.559,3.602c-0.353,0.817-0.703,1.632-1.067,2.444
			c-0.213,0.476-0.481,0.618-1.018,0.446c-0.236-0.074-0.381-0.255-0.37-0.511c0.008-0.171,0.034-0.351,0.101-0.505
			c0.366-0.844,0.747-1.682,1.123-2.522c0.021-0.046,0.044-0.092,0.067-0.138c0.101-0.194,0.099-0.382,0.011-0.588
			c-0.341-0.798-0.671-1.601-1.004-2.404c-0.449-1.085-0.897-2.171-1.346-3.257c-0.239-0.576-0.481-1.151-0.722-1.726
			c-0.02-0.046-0.045-0.092-0.062-0.14c-0.116-0.328-0.025-0.579,0.282-0.752c0.088-0.049,0.187-0.084,0.285-0.111
			c0.37-0.099,0.648,0.026,0.808,0.378c0.14,0.307,0.26,0.623,0.387,0.936c0.473,1.164,0.946,2.329,1.418,3.493
			c0.23,0.568,0.459,1.137,0.689,1.705C49.755,26.568,49.809,26.685,49.886,26.86z"/>
		<path fill-rule="evenodd" clip-rule="evenodd" fill="#EC2328" d="M117.319,24.25c-0.006-0.68,0.151-1.489,0.499-2.256
			c0.49-1.08,1.304-1.802,2.447-2.115c0.795-0.218,1.612-0.23,2.408-0.008c1.024,0.287,1.817,0.882,2.244,1.889
			c0.174,0.412,0.083,0.786-0.325,0.992c-0.23,0.115-0.538,0.101-0.709-0.085c-0.173-0.188-0.329-0.394-0.472-0.605
			c-0.306-0.452-0.72-0.752-1.234-0.916c-0.116-0.037-0.241-0.06-0.362-0.062c-0.399-0.004-0.793-0.028-1.192,0.092
			c-0.545,0.164-0.931,0.496-1.213,0.972c-0.315,0.53-0.463,1.111-0.489,1.723c-0.017,0.39-0.023,0.785,0.003,1.175
			c0.05,0.758,0.259,1.471,0.745,2.073c0.3,0.373,0.708,0.576,1.176,0.666c0.387,0.073,0.769,0.086,1.163,0.019
			c0.595-0.101,1.032-0.423,1.381-0.892c0.116-0.155,0.229-0.313,0.341-0.473c0.315-0.446,0.939-0.315,1.188,0.097
			c0.101,0.168,0.085,0.349,0.01,0.533c-0.279,0.679-0.753,1.192-1.376,1.56c-0.783,0.465-1.631,0.625-2.54,0.523
			c-0.464-0.051-0.911-0.138-1.33-0.338c-0.975-0.465-1.621-1.227-1.993-2.234C117.428,25.879,117.315,25.155,117.319,24.25z"/>
		<path fill-rule="evenodd" clip-rule="evenodd" fill="#EC1F25" d="M115.096,24.461c0,1.227,0,2.453,0,3.68
			c0,0.082,0,0.165-0.001,0.248c-0.008,0.418-0.198,0.517-0.474,0.589c-0.17,0.044-0.367,0.019-0.545-0.013
			c-0.249-0.045-0.389-0.217-0.419-0.471c-0.017-0.152-0.036-0.306-0.036-0.459c-0.002-2.381-0.003-4.762,0-7.142
			c0.001-0.175,0.028-0.348,0.044-0.522c0.019-0.208,0.146-0.325,0.332-0.394c0.253-0.097,0.505-0.092,0.753,0.004
			c0.194,0.075,0.327,0.208,0.336,0.431c0.005,0.114,0.009,0.227,0.009,0.34C115.096,21.989,115.096,23.226,115.096,24.461z"/>
		<path fill-rule="evenodd" clip-rule="evenodd" fill="#ED252A" d="M113.424,17.463c-0.018-0.6,0.449-0.963,0.928-0.963
			c0.581-0.001,0.966,0.385,0.963,0.961c-0.004,0.574-0.355,0.953-0.93,0.961C113.775,18.43,113.416,18.02,113.424,17.463z"/>
		<path fill-rule="evenodd" clip-rule="evenodd" fill="#7F191B" d="M19.37,16.443c0.657,0.576,1.179,1.262,1.601,2.023
			c0.502,0.906,0.829,1.872,0.957,2.905c0.208,1.668-0.023,3.265-0.786,4.763c-0.963,1.889-2.435,3.236-4.424,4.004
			c-1.09,0.422-2.22,0.603-3.383,0.534c-1.673-0.099-3.189-0.65-4.523-1.673c-1.559-1.196-2.57-2.757-3.025-4.666
			c-0.214-0.895-0.268-1.804-0.165-2.726c0.237-2.143,1.17-3.92,2.775-5.341c1.1-0.973,2.383-1.589,3.829-1.87
			c0.558-0.108,1.12-0.171,1.685-0.156c1.279,0.033,2.5,0.317,3.64,0.913c0.09,0.047,0.185,0.086,0.278,0.128
			c0.01,0.312-0.048,0.615-0.116,0.917c-0.013,0.059-0.007,0.121-0.009,0.182c-0.703-0.433-1.448-0.765-2.257-0.951
			c-0.883-0.203-1.771-0.231-2.666-0.114c-1.553,0.202-2.885,0.871-4.005,1.944c-1.042,0.999-1.724,2.213-2.035,3.628
			c-0.131,0.597-0.201,1.198-0.175,1.808c0.069,1.598,0.583,3.036,1.587,4.285c1.092,1.36,2.501,2.228,4.204,2.563
			c2.128,0.417,4.089-0.027,5.82-1.346c1.495-1.139,2.429-2.654,2.731-4.506c0.349-2.136-0.147-4.082-1.511-5.784
			c-0.064-0.08-0.136-0.153-0.204-0.23c-0.021-0.397,0.045-0.784,0.123-1.17C19.319,16.483,19.351,16.463,19.37,16.443z"/>
		<path fill-rule="evenodd" clip-rule="evenodd" fill="#801A1C" d="M9.206,22.447c-0.336,0-0.643,0-0.948,0
			c-0.187-2.455,2.014-5.551,5.51-5.555c0.056,0.154,0.022,0.318,0.027,0.479c0.006,0.153,0.001,0.307,0.001,0.49
			c-1.25,0.054-2.35,0.461-3.24,1.355C9.677,20.101,9.232,21.174,9.206,22.447z"/>
	</g>
</g>
</svg>
