<?xml version="1.0" encoding="utf-8"?>
<!-- Generator: Adobe Illustrator 19.2.0, SVG Export Plug-In . SVG Version: 6.00 Build 0)  -->
<svg version="1.1" xmlns="http://www.w3.org/2000/svg" xmlns:xlink="http://www.w3.org/1999/xlink" x="0px" y="0px"
	 viewBox="0 0 125 40" enable-background="new 0 0 125 40" xml:space="preserve">
<g id="bg" display="none">
	<rect display="inline" fill="#FFFFFF" width="125" height="40"/>
</g>
<g id="icons">
	<g>
		<g>
			<path d="M43.9,15.443c-1.4-1.3-1.9-1.9-2.6-1.9c-0.3,0-0.9,0.3-0.9,0.8s0.2,0.6,0.8,1.1c0.3,0.2,0.7,0.6,1.2,1.1
				c-0.8,0-5.1,0.2-8.2,0.4c0.3-0.3,0.7-0.8,1.3-1.6c1.2-1.6,1.4-1.8,1.4-2.2s-0.2-0.5-0.3-0.6c-0.4-0.3-1-0.3-1.5,0.5
				c-0.4,0.7-1.4,2.1-3.3,4c-0.3,0-0.6,0-0.7,0.1c-0.8,0.1-0.9,0.6-0.9,0.8c0,0.3,0.2,0.9,1,0.8c0.7-0.1,11.1-0.6,12.7-0.7
				c0.4,0.3,0.7,0.7,1.1,1.1c0.5,0.4,1.1,0.6,1.5,0.2s0.2-0.8-0.2-1.4S45.2,16.743,43.9,15.443z"/>
			<path d="M44.1,19.643c-0.6,0-11.3,0-11.3,0c-0.2,0-1,0.5-1,1.1s0,5.3,0,5.7s0.6,1,1.2,1c0.5,0,10.7,0,11,0s1.2-0.3,1.2-1.1
				c0-0.8,0-5.1,0-5.4S44.7,19.643,44.1,19.643z M43.3,25.343c0,0.2-0.3,0.4-0.5,0.4s-8.7,0-8.9,0c-0.2,0-0.3-0.1-0.3-0.3
				c0-0.2,0-3.7,0-3.9c0-0.2,0.1-0.3,0.3-0.3c0,0,8.8,0,9.1,0s0.4,0.2,0.4,0.4C43.3,21.743,43.3,25.043,43.3,25.343z"/>
			<path d="M51.3,14.743c0.8,0.8,1.3,1.3,1.7,1.3s0.9-0.3,0.9-0.6c0.1-0.3-0.2-0.9-1.1-1.6c-0.9-0.8-1.5-1.4-2.2-1.4
				c-0.4,0-0.9,0.4-0.9,0.9C49.8,13.643,50.5,13.943,51.3,14.743z"/>
			<path d="M50.7,18.643c0.5,0.4,1.1,0.9,1.5,1.2c0.4,0.3,0.9,0.5,1.3,0c0.5-0.5,0.2-1-0.3-1.5c-0.6-0.5-1.9-1.6-2.5-1.6
				c-0.3,0-0.9,0.2-0.9,0.8S50.2,18.243,50.7,18.643z"/>
			<path d="M57.4,16.643c0.1-0.3,0.2-1.1-0.8-1.1c-0.5,0-0.6,0.4-1.4,1c-0.9,0.7-1.5,1.1-1.5,1.5s0.2,0.8,0.9,0.8
				S56.9,17.343,57.4,16.643z"/>
			<path d="M64.7,22.843c-1,0-8,0-8.1,0s-0.2,0-0.2-0.4c0-0.3,0.1-0.4,0.2-0.4s6.8,0,7.2,0c0.4,0,1.4-0.5,1.4-1.4c0-0.5,0-0.7,0-1
				s-0.5-1.2-1.1-1.2c-0.2,0-0.7,0-1.4,0v-3.3c1.8,0,3.2,0,3.3,0c0.3,0,0.9-0.2,0.9-0.8c0-0.5-0.5-0.8-0.9-0.8c-0.3,0-3.1,0-4.9,0
				c-0.1-0.2-0.2-0.6-0.4-0.9c-0.2-0.5-0.6-0.6-0.9-0.6c-0.3,0-0.9,0.3-0.9,0.7c0,0.3,0.1,0.6,0.2,0.8c-1.2,0-4.2,0-4.5,0
				s-0.8,0.1-0.8,0.8c0,0.5,0.4,0.7,0.8,0.7c0.2,0,1.5,0,3.2,0v3.3c-1.2,0-2.1,0-2.1,0c-0.3,0-0.7,0.3-0.7,0.7
				c0,0.4,0.5,0.7,0.7,0.7c0.3,0,7.1,0,7.3,0s0.3,0.2,0.3,0.4c0,0.2-0.2,0.3-0.3,0.3s-6.8,0-7.2,0c-0.3,0-1.1,0.2-1.3,1.2
				c-0.1,1-0.2,1.7,0.1,2c0.3,0.4,0.8,0.5,1.1,0.5s7.8,0,8.1,0c0.2,0,0.3,0.1,0.3,0.3s-0.2,1.2-2.4,1.2c-1.1,0-1.5,0-1.9,0
				s-2.6-0.2-4.1-0.5c-0.5,0-1,0.2-1,0.8c0.1,0.5,0.5,0.7,1.4,0.9c0.9,0.2,2.8,0.4,5.1,0.3s3.7-0.6,4.1-1.3c0.4-0.7,0.5-1.5,0.5-2.1
				C66.1,23.243,65.7,22.843,64.7,22.843z M59.7,15.143c0.5,0,0.9,0,1.4,0v3.3c-0.5,0-0.9,0-1.4,0V15.143z"/>
			<path d="M53.1,20.743c-0.5,0-0.8,0.2-1,0.8c-0.1,0.6-0.3,2.1-2,4.4c-0.5,0.6-0.4,1-0.1,1.3c0.4,0.3,1,0.3,1.4-0.1
				s2.1-2.7,2.4-5.4C54,21.143,53.8,20.743,53.1,20.743z"/>
			<path d="M65.3,16.143c-0.4-0.3-0.7-0.4-1-0.4c-0.2,0-0.9,0.3-0.8,0.8c0,0.5,0.4,0.6,0.9,1c0.5,0.4,1.1,1,1.4,1.2s0.9,0.2,1.2-0.1
				c0.2-0.4,0.2-0.7-0.3-1.2C66.1,16.743,65.6,16.443,65.3,16.143z"/>
			<path d="M85,25.243c-0.6-0.4-2.7-1.8-3.9-3.5c-1.1-1.6-1.6-2.4-2-4.3c3.1,0,5.9,0,6,0c0.2,0,0.8-0.3,0.8-0.8s-0.4-0.9-0.7-0.9
				c-0.1,0-3.1,0-6.3,0c0-0.3,0-2.3,0-2.6s-0.2-0.9-1-0.9c-0.4,0-0.9,0.3-0.9,0.8s0,2,0,2.5v0.1c-3.3,0-6.3,0-6.3,0
				c-0.4,0-0.8,0.3-0.8,0.9c0,0.5,0.5,0.8,0.9,0.8c0.2,0,2.9,0,6,0c-0.3,1.2-0.8,2.9-2,4.5c-1.8,2.5-4.4,3.6-4.7,3.7
				c-0.4,0.2-0.6,0.9-0.3,1.2c0.3,0.3,0.7,0.5,1.5,0.2s5-2.3,6.8-7.4c0,0,1.2,2.9,3.4,5c2.2,2,3.2,2.7,3.8,2.7c0.6,0,1-0.4,1-0.9
				C86.2,25.943,85.7,25.643,85,25.243z"/>
			<path d="M122.5,25.243c-0.7-0.4-2.7-1.8-3.9-3.5c-1.1-1.6-1.6-2.4-2-4.3c3.1,0,5.9,0,6,0c0.2,0,0.8-0.3,0.8-0.8s-0.4-0.9-0.7-0.9
				c-0.1,0-3.1,0-6.3,0c0-0.3,0-2.3,0-2.6s-0.2-0.9-1-0.9c-0.4,0-0.9,0.3-0.9,0.8s0,2,0,2.5v0.1c-3.3,0-6.3,0-6.3,0
				c-0.4,0-0.8,0.3-0.8,0.9c0,0.5,0.5,0.8,0.9,0.8c0.2,0,2.9,0,6,0c-0.3,1.2-0.8,2.9-2,4.5c-1.8,2.5-4.4,3.6-4.7,3.7
				c-0.4,0.2-0.6,0.9-0.3,1.2c0.3,0.3,0.7,0.5,1.5,0.2s5-2.3,6.8-7.4c0,0,1.2,2.9,3.4,5c2.2,2,3.2,2.7,3.8,2.7s1-0.4,1-0.9
				C123.7,25.943,123.1,25.643,122.5,25.243z"/>
		</g>
		<path d="M89.6,13.25c-0.3,0-0.7,0.3-0.7,0.8s0.4,0.8,0.6,0.8s14.3,0,14.5,0s0.7-0.2,0.7-0.8c0-0.4-0.4-0.7-0.7-0.7
			C103.7,13.25,89.6,13.25,89.6,13.25z"/>
		<path d="M101.2,14.55c0,0,0,3.3,0,3.4s-0.1,0.2-0.2,0.2s-0.5,0-0.7,0s-0.6,0.2-0.6,0.9c0,0.6,0.6,0.8,1.4,0.8s1.9-0.3,1.9-1.7
			c0-1.4,0-3.8,0-3.8L101.2,14.55z"/>
		<path d="M88.8,20.15c-0.3,0-0.7,0.3-0.7,0.8s0.4,0.8,0.6,0.8s15.5,0,15.6,0s0.7-0.2,0.7-0.8c0-0.4-0.4-0.7-0.7-0.7
			C104.1,20.15,88.8,20.15,88.8,20.15z"/>
		<path d="M101,21.45c0,0,0,4.7,0,4.8c0,0.1-0.1,0.2-0.2,0.2c-0.8,0.1-1.5-0.3-2.1-0.1c-0.2,0.1-0.7,0.3-0.6,0.9
			c0,0.3,0.4,0.6,0.9,0.7c0.6,0.1,1.4,0.2,1.8,0.2c0.8,0,1.8-0.4,1.8-1.6c0-1.4,0-5.2,0-5.2L101,21.45z"/>
		<path d="M98.7,15.45c-0.9,0-7.1,0-7.1,0c-0.5,0-1,0.5-1,0.9s0,1.9,0,2.2c0,0.3,0.4,1,0.9,1s6.8,0,7.3,0s1.1-0.5,1.1-1.2
			s0-1.4,0-1.7S99.6,15.45,98.7,15.45z M97.8,18.15c-0.2,0-4.9,0-5.2,0c-0.2,0-0.4-0.2-0.4-0.3c0-0.2,0-0.4,0-0.6s0.2-0.4,0.4-0.4
			c0,0,4.4,0,4.9,0s0.6,0.2,0.6,0.7C98.2,18.05,98,18.15,97.8,18.15z"/>
		<path d="M98.6,22.25c-0.9,0-7.1,0-7.1,0c-0.5,0-1,0.5-1,0.9s0,2.3,0,2.5c0,0.3,0.4,1,0.9,1s6.8,0,7.3,0s1.2-0.5,1.2-1.2
			c0-0.8,0-1.7,0-2.1S99.5,22.25,98.6,22.25z M97.8,25.35c-0.2,0-5,0-5.3,0c-0.2,0-0.4-0.2-0.4-0.3s0-0.7,0-0.9s0.2-0.4,0.4-0.4
			c0,0,4.5,0,5,0s0.6,0.2,0.6,0.7C98.2,25.25,97.9,25.35,97.8,25.35z"/>
		<g>
			
				<linearGradient id="SVGID_1_" gradientUnits="userSpaceOnUse" x1="18.3701" y1="-103.1458" x2="23.7109" y2="-100.7601" gradientTransform="matrix(1 0 0 -1 0 -78)">
				<stop  offset="0" style="stop-color:#00A0C6"/>
				<stop  offset="1" style="stop-color:#67C6DD"/>
			</linearGradient>
			<polygon fill="url(#SVGID_1_)" points="22.5,19.95 17.6,28.55 17.6,28.55 23.4,26.25 23.4,26.25 			"/>
			
				<linearGradient id="SVGID_2_" gradientUnits="userSpaceOnUse" x1="20.301" y1="-91.377" x2="21.2785" y2="-85.9523" gradientTransform="matrix(1 0 0 -1 0 -78)">
				<stop  offset="0.1495" style="stop-color:#5F8F13"/>
				<stop  offset="0.2644" style="stop-color:#79A712"/>
				<stop  offset="0.461" style="stop-color:#A2CD11"/>
				<stop  offset="0.5629" style="stop-color:#B1DB10"/>
			</linearGradient>
			<polygon fill="url(#SVGID_2_)" points="17.5,11.45 23.4,13.65 23.4,13.65 18.8,9.15 			"/>
			
				<linearGradient id="SVGID_3_" gradientUnits="userSpaceOnUse" x1="22.4605" y1="-101.1354" x2="25.568" y2="-100.9105" gradientTransform="matrix(1 0 0 -1 0 -78)">
				<stop  offset="0.1957" style="stop-color:#075FA6"/>
				<stop  offset="0.7044" style="stop-color:#32AFCF"/>
				<stop  offset="0.8242" style="stop-color:#34B3D1"/>
			</linearGradient>
			<polygon fill="url(#SVGID_3_)" points="23.4,26.25 23.4,26.25 25.1,20.05 25.1,19.95 22.5,19.95 			"/>
			
				<linearGradient id="SVGID_4_" gradientUnits="userSpaceOnUse" x1="17.4673" y1="-93.7" x2="23.3673" y2="-93.7" gradientTransform="matrix(1 0 0 -1 0 -78)">
				<stop  offset="0.2292" style="stop-color:#66B820"/>
				<stop  offset="0.4872" style="stop-color:#94CD16"/>
				<stop  offset="0.7452" style="stop-color:#BDE00E"/>
				<stop  offset="0.8786" style="stop-color:#CCE70B"/>
			</linearGradient>
			<polygon fill="url(#SVGID_4_)" points="22.5,19.95 23.4,13.65 23.4,13.65 17.5,11.45 			"/>
			
				<linearGradient id="SVGID_5_" gradientUnits="userSpaceOnUse" x1="14.7226" y1="-89.3577" x2="16.5573" y2="-83.3084" gradientTransform="matrix(1 0 0 -1 0 -78)">
				<stop  offset="0.1918" style="stop-color:#FE9901"/>
				<stop  offset="0.5297" style="stop-color:#FDFF00"/>
			</linearGradient>
			<polygon fill="url(#SVGID_5_)" points="18.8,9.15 18.8,9.15 12.5,7.45 17.5,11.45 			"/>
			
				<linearGradient id="SVGID_6_" gradientUnits="userSpaceOnUse" x1="22.459" y1="-94.8" x2="25.0825" y2="-94.8" gradientTransform="matrix(1 0 0 -1 0 -78)">
				<stop  offset="0.0991" style="stop-color:#3D6E14"/>
				<stop  offset="0.3741" style="stop-color:#528113"/>
				<stop  offset="0.8915" style="stop-color:#82AE12"/>
			</linearGradient>
			<polygon fill="url(#SVGID_6_)" points="25.1,19.95 23.4,13.65 22.5,19.95 			"/>
			
				<linearGradient id="SVGID_7_" gradientUnits="userSpaceOnUse" x1="7.5" y1="-87.45" x2="17.4556" y2="-87.45" gradientTransform="matrix(1 0 0 -1 0 -78)">
				<stop  offset="0.4062" style="stop-color:#FFFF66"/>
				<stop  offset="0.4778" style="stop-color:#FFF34F"/>
				<stop  offset="0.602" style="stop-color:#FFE22D"/>
				<stop  offset="0.72" style="stop-color:#FFD614"/>
				<stop  offset="0.8279" style="stop-color:#FFCF05"/>
				<stop  offset="0.9165" style="stop-color:#FFCC00"/>
			</linearGradient>
			<polygon fill="url(#SVGID_7_)" points="17.4,11.45 17.5,11.45 12.5,7.45 12.5,7.45 12.5,7.45 7.5,11.45 			"/>
			
				<linearGradient id="SVGID_8_" gradientUnits="userSpaceOnUse" x1="14.0219" y1="-107.978" x2="18.2998" y2="-110.2477" gradientTransform="matrix(1 0 0 -1 0 -78)">
				<stop  offset="0.3313" style="stop-color:#0F218B"/>
				<stop  offset="0.7616" style="stop-color:#0571B0"/>
			</linearGradient>
			<polygon fill="url(#SVGID_8_)" points="17.6,28.55 12.5,32.45 12.6,32.55 18.9,30.85 18.9,30.85 			"/>
			
				<linearGradient id="SVGID_9_" gradientUnits="userSpaceOnUse" x1="0" y1="-101.1" x2="2.6338" y2="-101.1" gradientTransform="matrix(1 0 0 -1 0 -78)">
				<stop  offset="0.3703" style="stop-color:#FF0000"/>
				<stop  offset="0.767" style="stop-color:#B20100"/>
			</linearGradient>
			<path fill="url(#SVGID_9_)" d="M0,19.95L0,19.95c0,0.1,1.4,5.7,1.6,6.3l1-6.3H0z"/>
			
				<linearGradient id="SVGID_10_" gradientUnits="userSpaceOnUse" x1="2.1092" y1="-101.155" x2="7.3358" y2="-103.968" gradientTransform="matrix(1 0 0 -1 0 -78)">
				<stop  offset="0.1959" style="stop-color:#FB6747"/>
				<stop  offset="0.9704" style="stop-color:#FF0201"/>
			</linearGradient>
			<path fill="url(#SVGID_10_)" d="M2.6,19.95L2.6,19.95l-1,6.3c0,0,0,0,0,0.1l0,0l5.9,2.3L2.6,19.95z"/>
			
				<linearGradient id="SVGID_11_" gradientUnits="userSpaceOnUse" x1="0.0239" y1="-94.85" x2="2.6343" y2="-94.85" gradientTransform="matrix(1 0 0 -1 0 -78)">
				<stop  offset="0" style="stop-color:#FF5500"/>
				<stop  offset="1" style="stop-color:#FF3300"/>
			</linearGradient>
			<polygon fill="url(#SVGID_11_)" points="2.6,19.95 1.6,13.75 0,19.95 			"/>
			
				<linearGradient id="SVGID_12_" gradientUnits="userSpaceOnUse" x1="10.7275" y1="-108.0151" x2="6.6118" y2="-110.9609" gradientTransform="matrix(1 0 0 -1 0 -78)">
				<stop  offset="0.171" style="stop-color:#0F218B"/>
				<stop  offset="0.465" style="stop-color:#0571B0"/>
			</linearGradient>
			<polygon fill="url(#SVGID_12_)" points="6.3,30.95 12.5,32.45 7.6,28.55 			"/>
			
				<linearGradient id="SVGID_13_" gradientUnits="userSpaceOnUse" x1="3.9488" y1="-109.2217" x2="5.0303" y2="-103.4042" gradientTransform="matrix(1 0 0 -1 0 -78)">
				<stop  offset="0.3604" style="stop-color:#FF0000"/>
				<stop  offset="0.5651" style="stop-color:#B20100"/>
			</linearGradient>
			<polygon fill="url(#SVGID_13_)" points="7.6,28.55 1.7,26.35 6.2,30.85 6.3,30.95 			"/>
			
				<linearGradient id="SVGID_14_" gradientUnits="userSpaceOnUse" x1="7.5859" y1="-108.5" x2="17.5693" y2="-108.5" gradientTransform="matrix(1 0 0 -1 0 -78)">
				<stop  offset="0.1758" style="stop-color:#34B3D1"/>
				<stop  offset="0.2956" style="stop-color:#32AFCF"/>
				<stop  offset="0.5194" style="stop-color:#2291C0"/>
				<stop  offset="0.833" style="stop-color:#0E6DAD"/>
				<stop  offset="1" style="stop-color:#075FA6"/>
			</linearGradient>
			<polygon fill="url(#SVGID_14_)" points="7.6,28.55 7.6,28.55 12.5,32.45 12.5,32.45 17.6,28.55 			"/>
			
				<linearGradient id="SVGID_15_" gradientUnits="userSpaceOnUse" x1="19.2091" y1="-109.4785" x2="20.9588" y2="-103.9505" gradientTransform="matrix(1 0 0 -1 0 -78)">
				<stop  offset="0.1758" style="stop-color:#34B3D1"/>
				<stop  offset="0.2956" style="stop-color:#32AFCF"/>
				<stop  offset="0.8043" style="stop-color:#075FA6"/>
			</linearGradient>
			<polygon fill="url(#SVGID_15_)" points="18.9,30.85 23.4,26.25 17.6,28.55 			"/>
			
				<linearGradient id="SVGID_16_" gradientUnits="userSpaceOnUse" x1="9.8088" y1="-88.9059" x2="8.8848" y2="-84.1731" gradientTransform="matrix(1 0 0 -1 0 -78)">
				<stop  offset="0.1429" style="stop-color:#FE9901"/>
				<stop  offset="0.3292" style="stop-color:#FEC001"/>
				<stop  offset="0.653" style="stop-color:#FDFF00"/>
			</linearGradient>
			<polygon fill="url(#SVGID_16_)" points="7.5,11.45 12.5,7.45 6.2,9.15 6.1,9.15 			"/>
			
				<linearGradient id="SVGID_17_" gradientUnits="userSpaceOnUse" x1="2.2372" y1="-94.6943" x2="6.1373" y2="-90.2694" gradientTransform="matrix(1 0 0 -1 0 -78)">
				<stop  offset="0.1916" style="stop-color:#FFCB00"/>
				<stop  offset="0.8621" style="stop-color:#FE6602"/>
			</linearGradient>
			<polygon fill="url(#SVGID_17_)" points="7.5,11.45 7.5,11.45 1.6,13.75 1.6,13.75 1.6,13.75 2.6,19.95 			"/>
			
				<linearGradient id="SVGID_18_" gradientUnits="userSpaceOnUse" x1="4.8289" y1="-91.4189" x2="2.9293" y2="-85.8415" gradientTransform="matrix(1 0 0 -1 0 -78)">
				<stop  offset="0.1557" style="stop-color:#FD3400"/>
				<stop  offset="0.5327" style="stop-color:#FF9500"/>
			</linearGradient>
			<polygon fill="url(#SVGID_18_)" points="6.1,9.15 1.6,13.75 7.5,11.45 			"/>
			
				<linearGradient id="SVGID_19_" gradientUnits="userSpaceOnUse" x1="13.0757" y1="-97.7638" x2="20.0603" y2="-93.6348" gradientTransform="matrix(1 0 0 -1 0 -78)">
				<stop  offset="0" style="stop-color:#B0D911"/>
				<stop  offset="0.8719" style="stop-color:#3C6E12"/>
			</linearGradient>
			<polygon fill="url(#SVGID_19_)" points="17.4,11.45 12.5,19.95 12.5,19.95 22.5,19.95 17.5,11.45 			"/>
			
				<linearGradient id="SVGID_20_" gradientUnits="userSpaceOnUse" x1="12.6" y1="-106.8398" x2="12.6" y2="-98.0287" gradientTransform="matrix(1 0 0 -1 0 -78)">
				<stop  offset="0.1379" style="stop-color:#0F218B"/>
				<stop  offset="0.187" style="stop-color:#0E298F"/>
				<stop  offset="0.4059" style="stop-color:#0A489D"/>
				<stop  offset="0.6186" style="stop-color:#075FA8"/>
				<stop  offset="0.8205" style="stop-color:#066CAE"/>
				<stop  offset="1" style="stop-color:#0571B0"/>
			</linearGradient>
			<polygon fill="url(#SVGID_20_)" points="12.5,19.95 7.6,28.55 17.6,28.55 17.6,28.55 			"/>
			
				<linearGradient id="SVGID_21_" gradientUnits="userSpaceOnUse" x1="12.7788" y1="-98.2156" x2="20.3976" y2="-102.4429" gradientTransform="matrix(1 0 0 -1 0 -78)">
				<stop  offset="0" style="stop-color:#34B3D2"/>
				<stop  offset="0.7586" style="stop-color:#0860A8"/>
			</linearGradient>
			<polygon fill="url(#SVGID_21_)" points="17.6,28.55 22.5,19.95 12.5,19.95 			"/>
			
				<linearGradient id="SVGID_22_" gradientUnits="userSpaceOnUse" x1="12.45" y1="-98.3335" x2="12.45" y2="-88.3836" gradientTransform="matrix(1 0 0 -1 0 -78)">
				<stop  offset="0.3077" style="stop-color:#FDFF00"/>
				<stop  offset="0.5024" style="stop-color:#FECB01"/>
				<stop  offset="0.6635" style="stop-color:#FEA701"/>
				<stop  offset="0.7491" style="stop-color:#FE9901"/>
			</linearGradient>
			<polygon fill="url(#SVGID_22_)" points="17.4,11.45 7.5,11.45 7.5,11.45 12.5,19.95 			"/>
			
				<linearGradient id="SVGID_23_" gradientUnits="userSpaceOnUse" x1="3.1498" y1="-103.3976" x2="11.6732" y2="-98.3818" gradientTransform="matrix(1 0 0 -1 0 -78)">
				<stop  offset="0.2709" style="stop-color:#B30000"/>
				<stop  offset="0.798" style="stop-color:#FF0000"/>
			</linearGradient>
			<polygon fill="url(#SVGID_23_)" points="2.6,19.95 7.6,28.55 7.6,28.55 12.5,19.95 			"/>
			
				<linearGradient id="SVGID_24_" gradientUnits="userSpaceOnUse" x1="3.9454" y1="-93.1004" x2="12.1794" y2="-97.5702" gradientTransform="matrix(1 0 0 -1 0 -78)">
				<stop  offset="0.2033" style="stop-color:#FC3300"/>
				<stop  offset="0.7377" style="stop-color:#FF9201"/>
				<stop  offset="0.8075" style="stop-color:#FF9901"/>
			</linearGradient>
			<polygon fill="url(#SVGID_24_)" points="12.5,19.95 7.5,11.45 2.6,19.95 2.6,19.95 			"/>
		</g>
	</g>
</g>
</svg>
