<?xml version="1.0" encoding="utf-8"?>
<!-- Generator: Adobe Illustrator 16.0.0, SVG Export Plug-In . SVG Version: 6.00 Build 0)  -->
<!DOCTYPE svg PUBLIC "-//W3C//DTD SVG 1.1//EN" "http://www.w3.org/Graphics/SVG/1.1/DTD/svg11.dtd">
<svg version="1.1" xmlns="http://www.w3.org/2000/svg" xmlns:xlink="http://www.w3.org/1999/xlink" x="0px" y="0px" width="125px"
	 height="40px" viewBox="0 0 125 40" enable-background="new 0 0 125 40" xml:space="preserve">
<g id="Layer_1">
</g>
<g id="Layer_2">
	<g>
		<path fill="#FF9B00" d="M8.9,17.2c0-1.2,0.9-1.8,2-1.1l5.3,3.1c1.1,0.6,1.1,1.6,0,2.3l-5.3,3.1c-1.1,0.6-2,0.1-2-1.1V17.2z"/>
		<path fill="#003255" d="M8,10.4c-9.3,3.5-10.3,10-4.2,16.4c4,4.2,13.6,10.3,18.2-5c0.2-1.3-0.8-1-1.6-0.2c-0.8,0.7-1.2,1.2-2,1.7
			c-0.7,0.6-1.5,1.2-2.5,1.9c-9.1,6-11.3-2-11-5.8c0.4-5.6,3.7-7.7,9.3-4.8c0.3,0.2,0.6,0.3,0.9,0.5c0.4,0.2,0.9,0.4,1.3,0.6
			c1.9,1.1,3.1,1.9,4,2.8c0.8,0.7,2,0.7,2.2-0.8C24.3,6.5,19.1,6.2,8,10.4"/>
		<path fill="#003255" d="M39,20.2c0.1-0.1,0.3-0.2,0.4-0.4c0.9-0.9,1.4-2,1.4-3.2c0-1.2-0.5-2.3-1.4-3.2c-0.9-0.9-2-1.4-3.2-1.4
			h-7.3v15.3h2v-6h5.3c0.7,0,1.3,0.3,1.8,0.8c0.5,0.5,0.8,1.1,0.8,1.8v3.4h2.1v-3.4c0-1.2-0.5-2.3-1.4-3.2 M30.9,14h5.3
			c0.7,0,1.3,0.3,1.8,0.8c0.5,0.5,0.8,1.1,0.8,1.8c0,0.7-0.3,1.3-0.8,1.8c-0.5,0.5-1.1,0.8-1.8,0.8h-5.3V14z"/>
		<path fill="#003255" d="M77.4,21.9c0,1.5-0.5,2.8-1.6,3.9c-1,1.1-2.3,1.6-3.8,1.6c-1.4,0-2.6-0.5-3.6-1.4v5.8h-2.1v-9.8
			c0-1.5,0.5-2.8,1.6-3.9c1.1-1.1,2.4-1.6,3.9-1.6c1.5,0,2.8,0.5,3.9,1.6C76.9,19.1,77.4,20.4,77.4,21.9 M75.3,21.9
			c0-0.9-0.3-1.7-1-2.4c-0.7-0.7-1.5-1-2.4-1c-0.9,0-1.7,0.3-2.4,1c-0.7,0.7-1,1.5-1,2.4c0,0.9,0.3,1.8,1,2.4c0.7,0.7,1.5,1,2.4,1
			c0.9,0,1.7-0.3,2.4-1C75,23.7,75.3,22.9,75.3,21.9"/>
		<path fill="#003255" d="M98.4,21.9c0,1.5-0.5,2.8-1.6,3.9c-1.1,1.1-2.4,1.6-3.9,1.6c-1.5,0-2.8-0.5-3.9-1.6
			c-1.1-1.1-1.6-2.4-1.6-3.9c0-1.5,0.5-2.8,1.6-3.9c1.1-1.1,2.4-1.6,3.9-1.6c1.5,0,2.8,0.5,3.9,1.6C97.9,19.1,98.4,20.4,98.4,21.9
			 M96.4,21.9c0-0.9-0.3-1.7-1-2.4c-0.7-0.7-1.5-1-2.4-1c-0.9,0-1.8,0.3-2.4,1c-0.7,0.7-1,1.5-1,2.4c0,0.9,0.3,1.8,1,2.4
			c0.7,0.7,1.5,1,2.4,1s1.8-0.3,2.4-1C96,23.7,96.4,22.9,96.4,21.9"/>
		<path fill="#003255" d="M108.9,25.8c-1.1,1.1-2.4,1.6-3.9,1.6c-1.5,0-2.8-0.5-3.9-1.6c-1.1-1.1-1.6-2.4-1.6-3.9
			c0-1.5,0.5-2.8,1.6-3.9c1-1.1,2.3-1.6,3.8-1.6c1.4,0,2.6,0.5,3.6,1.5v-6h2.1v10C110.5,23.4,110,24.7,108.9,25.8 M108.4,21.9
			c0-0.9-0.3-1.7-1-2.4c-0.7-0.7-1.5-1-2.4-1s-1.8,0.3-2.4,1c-0.7,0.7-1,1.5-1,2.4c0,0.9,0.3,1.8,1,2.4c0.7,0.7,1.5,1,2.4,1
			c0.9,0,1.8-0.3,2.4-1C108.1,23.7,108.4,22.9,108.4,21.9"/>
		<path fill="#003255" d="M42.8,27.2h2.1v-6.2c0-0.7,0.3-1.3,0.8-1.8c0.5-0.5,1.1-0.8,1.8-0.8c0.7,0,1.3,0.3,1.8,0.8
			c0.5,0.5,0.8,1.1,0.8,1.8v6.2h2.1v-6.2c0-1.2-0.5-2.3-1.4-3.2c-0.9-0.9-2-1.4-3.2-1.4c-0.9,0-1.8,0.3-2.6,0.8v-5.3h-2.1V27.2z"/>
		<path fill="#003255" d="M82.6,27.4c-0.3,0-0.7,0-1-0.1c-1.4-0.2-2.7-1-3.4-1.9l1.7-1.2c0.3,0.5,1.1,0.9,2,1.1
			c1.4,0.2,2.5-0.3,2.6-0.8c0.1-0.8-0.3-1.1-2.3-1.7c-1.6-0.5-4.1-1.2-3.7-3.8c0.3-1.8,2.5-2.9,4.9-2.5c1.2,0.2,2.2,0.7,2.9,1.4
			l-1.5,1.4c-0.4-0.4-1.1-0.7-1.8-0.9c-1.4-0.2-2.5,0.3-2.6,0.8c-0.1,0.6,0.2,0.9,2.2,1.5c1.7,0.5,4.3,1.2,3.8,4
			C86.2,26.4,84.6,27.4,82.6,27.4"/>
		<path fill="#003255" d="M124.6,16.6h-2.9l-6.5,6.7c0-0.3,0.1-0.7,0.1-1v-5.7h-2.1v5.8c0,3.2-2.6,7.7-8,7.7h-0.8v2h0.8
			c3.2,0,5.6-1.3,7.3-3l0,0L124.6,16.6z"/>
		<path fill="#003255" d="M63,18c-1.1-1.1-2.4-1.6-3.9-1.6c-1.5,0-2.8,0.5-3.9,1.6c-1.1,1.1-1.6,2.4-1.6,3.9c0,1.5,0.5,2.8,1.6,3.9
			c1,1.1,2.3,1.6,3.8,1.6c0.5,0,1.2-0.2,1.7-0.3V25c-0.4,0.2-1.1,0.3-1.5,0.3c-0.9,0-1.8-0.3-2.4-1c-0.7-0.7-1-1.5-1-2.4
			c0-0.9,0.3-1.7,1-2.4c0.7-0.7,1.5-1,2.4-1c0.9,0,1.8,0.3,2.4,1c0.7,0.7,1,1.5,1,2.4v4v1.3h2.1v-5.3C64.6,20.4,64.1,19.1,63,18"/>
	</g>
</g>
<g id="Layer_3">
</g>
<g id="Layer_4">
</g>
</svg>
