<?xml version="1.0" encoding="utf-8"?>
<!-- Generator: Adobe Illustrator 16.0.0, SVG Export Plug-In . SVG Version: 6.00 Build 0)  -->
<!DOCTYPE svg PUBLIC "-//W3C//DTD SVG 1.1//EN" "http://www.w3.org/Graphics/SVG/1.1/DTD/svg11.dtd">
<svg version="1.1" id="Layer_1" xmlns="http://www.w3.org/2000/svg" xmlns:xlink="http://www.w3.org/1999/xlink" x="0px" y="0px"
	 width="125px" height="40px" viewBox="0 0 125 40" enable-background="new 0 0 125 40" xml:space="preserve">
<g id="backgrounds">
	<rect fill="none" width="125" height="40"/>
</g>
<g id="logos">
	<g>
		<path fill="#FA4132" d="M10.6,13.1l1.1,4.5h2.8c1.3,0,2.9-1,2.3-4.201C16.4,10.898,14.7,9.1,12.6,9h-7C3,9.1,1.8,6.699,1.8,6.699
			L0,3.6l12.9,0.5c4.7,0.299,8.6,2.1,9.6,9.4c0.5,3.699-0.6,6.398-3.5,7.1v0.1c4,0.6,5.4,3.5,5.9,7.5c1,7.1-4.3,7.801-6.6,8
			l-8.6,0.699l-5.2-22c0,0-0.8-3.1,2.3-3.799C10,10.299,10.6,13.1,10.6,13.1z M14.3,31.398l2-0.1c1.2-0.1,3.7-0.299,3.1-4.4
			C19,24.199,17.8,22.6,15,22.6l-2.2,0.1L14.3,31.398z"/>
		<path fill="#FA4132" d="M37.4,35.1L37.4,35.1c-1,1.799-2.4,2.5-4.4,2.699c-2.5,0.1-5-1.4-5.2-4.299l-2-22H32L33.2,31
			c0.1,1.898,0.5,3.199,2.2,3.199c1.699-0.1,1.899-1.4,1.899-3.301L36.8,13.6c0,0-0.1-3,2.9-3c2.7,0,2.7,2.898,2.7,2.898l0.1,19.4
			c0,1.301,0.1,2.6,0.2,3.9l-2,0.1C37.8,37.1,37.4,35.1,37.4,35.1z"/>
		<path fill="#FA4132" d="M47.5,26.398c2.8,0.102,1.9,2.201,2.6,3.4c0.601,1.1,1.801,0.9,1.801,0.9C53.3,30.5,53.8,28.898,54,27.1
			l0.3-3.6h-0.1c-0.9,1.5-2.4,2.199-4.101,2.299c-5.899,0.201-5.399-5.4-5.199-10C45.1,11.1,45.4,4.699,51.6,5.1
			c2,0.1,3.601,1.199,4.2,3.299H55.9c0,0,0.6-2.398,4-2.299H61.3L59,26.6c-0.3,2.4-0.9,6.799-7.4,6.9c-2.6,0.1-4.5-0.701-5.5-2.102
			c0,0-0.899-1.299-0.699-2.799C45.6,27.1,46.4,26.398,47.5,26.398z M52.3,22.6c1.9,0,2.3-2,2.7-6.201c0.4-4.5,0.4-7.199-1.6-7.299
			C51.3,9,50.8,10.6,50.4,17C50.2,18.898,49.7,22.6,52.3,22.6z"/>
		<path fill="#FA4132" d="M71.2,14.299c0.1-0.799,0.2-1.4,0-1.799C71,12,70.6,11.898,70.1,11.898c-0.6,0-1.1,0.301-1.5,0.9
			c-0.3,0.5-0.6,1.1-0.699,1.9c-0.101,1.5,0.5,2.199,1.5,3.1c2,1.701,5.3,3.301,4,8.201c-0.9,3.699-3.7,6.5-7.2,6.699
			c-3.8,0.199-6.2-1-4.9-7.301H65.9c-0.2,1-0.4,2-0.301,2.701c0.101,0.699,0.5,1,1.4,1s1.8-0.801,2.1-2.301
			C70.2,21.998,61.7,23.199,63,15.1c1-6,5.3-7.701,8.6-7.5c3.301,0.199,5.7,2.1,4.101,7.699c0,0-0.5,2.1-2.601,1.9
			C70.6,17,71.1,14.898,71.2,14.299z"/>
		<path fill="#FA4132" d="M79.1,24.199C77.5,23.799,78,22,78,22l3.7-15.602H88.1L81.4,23C81.4,23,80.7,24.6,79.1,24.199z"/>
	</g>
</g>
</svg>
