<?xml version="1.0" encoding="utf-8"?>
<!-- Generator: Adobe Illustrator 20.0.0, SVG Export Plug-In . SVG Version: 6.00 Build 0)  -->
<svg version="1.1" xmlns="http://www.w3.org/2000/svg" xmlns:xlink="http://www.w3.org/1999/xlink" x="0px" y="0px"
	 viewBox="0 0 125 40" enable-background="new 0 0 125 40" xml:space="preserve">
<g id="bg" display="none">
	<rect display="inline" fill="#FFFFFF" width="125" height="40"/>
</g>
<g id="logo">
	<g id="Layer_3">
		<g>
			<path fill="#0078D6" d="M25.572,6.985c-0.772,0.552-1.435,0.993-2.097,1.545c-7.504-4.524-15.56-0.993-18.87,4.414
				c-3.531,5.849-2.317,13.242,2.759,17.546c5.407,4.524,13.022,4.193,17.877-0.331c5.187-4.745,5.518-12.029,2.648-16.774
				c-1.104,0.772-2.097,1.435-3.2,2.207c-0.441-0.662-0.993-1.324-1.435-2.097c1.766-1.214,3.531-2.428,5.297-3.752
				c4.524,5.076,5.407,14.015,0,20.526c-5.959,7.063-16.112,7.614-22.733,2.097c-7.063-5.849-7.614-16.001-2.097-22.622
				C9.791,2.571,19.612,2.461,25.572,6.985z"/>
			<path fill="#0078D6" d="M16.192,26.077c-3.311,0-5.959-2.648-5.959-6.069c0-3.311,2.648-5.959,6.069-5.959
				c3.311,0,5.959,2.759,5.959,6.069S19.502,26.077,16.192,26.077z M18.178,20.007c0-1.104-0.883-1.986-1.986-1.986
				s-1.986,0.883-1.986,1.986s0.883,2.097,1.986,1.986C17.295,21.993,18.178,21.111,18.178,20.007z"/>
			<g>
				<path fill="#0078D6" d="M58.678,28.615c-1.876,1.104-3.973,1.655-6.29,1.655c-2.648,0-4.856-0.883-6.511-2.648
					c-1.655-1.766-2.538-4.083-2.538-6.842c0-2.869,0.883-5.297,2.759-7.173c1.876-1.876,4.193-2.759,7.063-2.759
					c2.097,0,3.752,0.331,5.187,0.993v2.428c-1.545-0.993-3.311-1.435-5.407-1.435s-3.862,0.772-5.187,2.207
					s-1.986,3.311-1.986,5.628c0,2.428,0.662,4.304,1.876,5.628c1.214,1.324,2.98,2.097,5.076,2.097
					c1.435,0,2.759-0.331,3.862-0.883v-5.297h-4.083v-2.207h6.29v8.608H58.678z"/>
				<path fill="#0078D6" d="M69.382,18.573c-0.331-0.331-0.883-0.441-1.655-0.441c-0.883,0-1.655,0.441-2.317,1.324
					c-0.662,0.883-0.883,2.097-0.883,3.531v6.842h-2.207V16.365h2.207v2.759l0,0c0.331-0.993,0.772-1.655,1.435-2.207
					c0.662-0.552,1.324-0.772,2.097-0.772c0.552,0,0.993,0.11,1.324,0.221L69.382,18.573z"/>
				<path fill="#0078D6" d="M76.665,30.16c-1.986,0-3.531-0.662-4.745-1.876s-1.766-2.98-1.766-4.966
					c0-2.317,0.662-4.083,1.876-5.297c1.214-1.324,2.869-1.876,4.966-1.876c1.986,0,3.531,0.662,4.745,1.876
					c1.104,1.214,1.655,2.98,1.655,5.187c0,2.097-0.552,3.862-1.876,5.187C80.307,29.498,78.652,30.16,76.665,30.16z M76.776,17.91
					c-1.435,0-2.428,0.441-3.311,1.435c-0.772,0.993-1.214,2.207-1.214,3.862c0,1.545,0.441,2.869,1.214,3.752
					c0.772,0.883,1.876,1.435,3.311,1.435c1.435,0,2.428-0.441,3.2-1.324c0.772-0.883,1.104-2.207,1.104-3.862
					c0-1.655-0.331-2.98-1.104-3.862C79.314,18.352,78.21,17.91,76.776,17.91z"/>
				<path fill="#0078D6" d="M92.004,30.16c-1.986,0-3.531-0.662-4.745-1.876s-1.766-2.98-1.766-4.966
					c0-2.317,0.662-4.083,1.876-5.297c1.214-1.324,2.869-1.876,4.966-1.876c1.986,0,3.531,0.662,4.745,1.876
					c1.104,1.214,1.655,2.98,1.655,5.187c0,2.097-0.662,3.862-1.876,5.187C95.646,29.498,94.101,30.16,92.004,30.16z M92.225,17.91
					c-1.435,0-2.428,0.441-3.311,1.435c-0.772,0.993-1.214,2.207-1.214,3.862c0,1.545,0.441,2.869,1.214,3.752
					c0.772,0.883,1.876,1.435,3.311,1.435c1.435,0,2.428-0.441,3.2-1.324c0.772-0.883,1.104-2.207,1.104-3.862
					c0-1.655-0.331-2.98-1.104-3.862C94.653,18.352,93.549,17.91,92.225,17.91z"/>
				<path fill="#0078D6" d="M112.42,16.365l-5.407,13.463h-2.097l-5.076-13.463h2.317l3.421,9.821
					c0.221,0.772,0.441,1.324,0.441,1.876l0,0c0.11-0.662,0.221-1.324,0.441-1.876l3.531-9.821H112.42z"/>
				<path fill="#0078D6" d="M125,23.649h-9.49c0,1.545,0.441,2.648,1.214,3.421c0.772,0.772,1.876,1.214,3.2,1.214
					c1.545,0,2.869-0.552,4.193-1.545v1.986c-1.214,0.883-2.759,1.324-4.745,1.324c-1.876,0-3.421-0.662-4.524-1.876
					c-1.104-1.214-1.655-2.98-1.655-5.187c0-2.097,0.552-3.752,1.766-5.076c1.214-1.324,2.648-1.986,4.414-1.986
					c1.766,0,3.09,0.552,4.083,1.766c0.993,1.104,1.435,2.759,1.435,4.745v1.214H125z M122.793,21.883
					c0-1.214-0.331-2.207-0.883-2.869c-0.552-0.662-1.435-0.993-2.428-0.993c-0.993,0-1.876,0.331-2.538,1.104
					s-1.104,1.655-1.324,2.869h7.173V21.883z"/>
			</g>
		</g>
	</g>
</g>
</svg>
