<?xml version="1.0" encoding="utf-8"?>
<!-- Generator: Adobe Illustrator 19.2.0, SVG Export Plug-In . SVG Version: 6.00 Build 0)  -->
<svg version="1.1" xmlns="http://www.w3.org/2000/svg" xmlns:xlink="http://www.w3.org/1999/xlink" x="0px" y="0px"
	 viewBox="0 0 125 40" enable-background="new 0 0 125 40" xml:space="preserve">
<g id="bg" display="none">
	<rect display="inline" fill="#FFFFFF" width="125" height="40"/>
</g>
<g id="icons">
	<g>
		<path fill-rule="evenodd" clip-rule="evenodd" fill="#FE0671" d="M29.202,0.006c5.614,0,11.227,0.002,16.841,0
			c2.188-0.001,4.306,0.37,6.277,1.333c3.222,1.572,4.956,4.282,5.614,7.714c0.231,1.202,0.326,2.446,0.334,3.672
			c0.036,5.052,0.015,10.105,0.015,15.156c0,1.582-0.258,3.122-0.75,4.621c-1.313,3.998-4.144,6.292-8.191,7.119
			c-1.225,0.251-2.5,0.356-3.753,0.36C34.643,40.009,23.697,39.995,12.75,40c-1.977,0.002-3.91-0.238-5.766-0.944
			c-3.817-1.453-5.889-4.34-6.615-8.249c-0.244-1.314-0.334-2.672-0.346-4.01c-0.04-4.689-0.018-9.375-0.015-14.062
			c0.001-1.747,0.213-3.471,0.74-5.138c1.246-3.938,3.963-6.294,7.95-7.175c1.166-0.258,2.384-0.389,3.579-0.397
			C17.919-0.016,23.56,0.006,29.202,0.006z M51.651,30.018c0.017-0.23,0.042-0.419,0.042-0.609
			c0.002-5.922,0.016-11.846-0.009-17.769c-0.007-1.544-0.599-2.896-1.688-4.005c-1.846-1.881-4.166-2.46-6.699-2.312
			c-3.182,0.186-6.018,1.99-6.98,5.343c-0.956,3.335-2.088,6.619-3.147,9.925c-0.879,2.745-1.766,5.489-2.642,8.237
			c-0.211,0.665-0.641,1.039-1.34,1.071c-0.692,0.033-1.191-0.317-1.459-1.037c-0.165-0.444-0.29-0.905-0.435-1.356
			c-1.849-5.787-3.695-11.572-5.549-17.356c-0.393-1.229-1.079-2.268-2.104-3.072c-2.295-1.802-4.898-2.111-7.65-1.509
			c-2.787,0.61-5.533,2.795-5.449,6.875C6.657,18,6.571,23.56,6.571,29.118c0,0.298,0,0.596,0,0.892c2.281,0,4.456,0,6.709,0
			c0-0.353,0-0.655,0-0.957c0-4.996-0.001-9.994,0.001-14.991c0.001-0.336-0.006-0.676,0.032-1.01
			c0.055-0.474,0.261-0.869,0.771-0.988c0.487-0.113,0.905,0.05,1.171,0.466c0.224,0.35,0.433,0.726,0.56,1.119
			c1.774,5.516,3.51,11.046,5.316,16.552c0.317,0.968,0.78,1.945,1.401,2.745c1.877,2.417,4.467,3.253,7.453,3.032
			c3.352-0.247,6.06-2.372,7.083-5.567c1.742-5.437,3.48-10.878,5.23-16.313c0.162-0.502,0.369-0.998,0.622-1.46
			c0.268-0.486,0.723-0.706,1.285-0.568c0.554,0.138,0.704,0.602,0.768,1.091c0.039,0.304,0.021,0.617,0.021,0.925
			c0.001,4.997,0.001,9.994,0.001,14.99c0,0.301,0,0.601,0,0.942C47.258,30.018,49.431,30.018,51.651,30.018z"/>
		<path fill-rule="evenodd" clip-rule="evenodd" fill="#FE0671" d="M88.11,21.965c0,0.663-0.05,1.249,0.012,1.825
			c0.099,0.938,0.831,1.512,1.904,1.52c1.88,0.015,3.76,0.005,5.64,0.005c0.305,0,0.609,0,0.97,0c0,1.745,0,3.439,0,5.134
			c-0.044,0.029-0.089,0.083-0.134,0.084c-2.609,0.008-5.223,0.12-7.826-0.011c-3.763-0.185-5.975-2.733-6.12-6.304
			c-0.121-2.969-0.04-5.946-0.044-8.92c-0.001-0.87-0.03-1.743,0.032-2.608c0.249-3.502,2.574-5.817,5.607-6.119
			c1.545-0.153,3.085-0.213,4.595,0.134c2.779,0.637,4.665,2.903,4.788,5.864c0.104,2.549,0.063,5.105,0.042,7.657
			c-0.009,1.132-0.734,1.727-2.025,1.734c-2.189,0.014-4.376,0.005-6.565,0.005C88.714,21.965,88.442,21.965,88.11,21.965z
			 M91.979,16.643c0-1.181,0.053-2.295-0.017-3.4c-0.062-0.988-0.767-1.513-1.852-1.534c-1.083-0.021-1.878,0.474-1.96,1.423
			c-0.099,1.152-0.024,2.319-0.024,3.512C89.424,16.643,90.643,16.643,91.979,16.643z"/>
		<path fill-rule="evenodd" clip-rule="evenodd" fill="#FE0671" d="M79.186,30.478c-1.9,0-3.684,0-5.567,0c0-0.336,0-0.636,0-0.933
			c0-5.219,0.006-10.437-0.011-15.655c-0.001-0.437-0.06-0.913-0.242-1.299c-0.38-0.798-1.16-0.889-1.943-0.885
			c-0.822,0.004-1.682-0.019-2.13,0.85c-0.17,0.331-0.235,0.75-0.239,1.129c-0.044,5.272-0.071,10.543-0.101,15.816
			c-0.002,0.303,0,0.607,0,0.962c-1.856,0-3.64,0-5.505,0c-0.019-0.23-0.055-0.472-0.055-0.714
			c-0.003-5.273-0.011-10.548,0.003-15.823c0.003-1.207,0.123-2.403,0.596-3.539c0.906-2.173,2.516-3.449,4.845-3.77
			c1.924-0.264,3.862-0.333,5.756,0.166c2.509,0.661,3.888,2.413,4.412,4.882c0.132,0.623,0.171,1.276,0.173,1.915
			c0.012,5.303,0.007,10.605,0.007,15.908C79.186,29.796,79.186,30.101,79.186,30.478z"/>
		<path fill-rule="evenodd" clip-rule="evenodd" fill="#FE0671" d="M106.385,14.528c-0.021,0.379-0.046,0.624-0.046,0.871
			c-0.003,2.525-0.006,5.05-0.001,7.574c0.002,1.714,0.628,2.338,2.327,2.341c1.37,0.001,2.74,0,4.162,0c0,1.745,0,3.439,0,5.19
			c-0.209,0.015-0.424,0.05-0.638,0.045c-2.072-0.047-4.164,0.065-6.21-0.189c-2.887-0.358-4.618-2.517-5.066-5.389
			c-0.12-0.769-0.129-1.562-0.13-2.344c-0.011-5.051-0.005-10.1-0.005-15.152c0-0.303,0-0.606,0-0.96c1.874,0,3.678,0,5.569,0
			c0,1.08,0,2.13,0,3.26c2.232,0,4.381,0,6.577,0c0,1.612,0,3.143,0,4.752C110.779,14.528,108.633,14.528,106.385,14.528z"/>
		<path fill-rule="evenodd" clip-rule="evenodd" fill="none" d="M51.651,30.018c-2.22,0-4.394,0-6.656,0c0-0.341,0-0.642,0-0.942
			c0-4.996,0-9.993-0.001-14.99c0-0.308,0.018-0.621-0.021-0.925c-0.064-0.489-0.213-0.953-0.768-1.091
			c-0.562-0.138-1.017,0.082-1.285,0.568c-0.254,0.462-0.46,0.958-0.622,1.46c-1.751,5.434-3.488,10.875-5.23,16.313
			c-1.024,3.195-3.731,5.321-7.083,5.567c-2.986,0.221-5.576-0.616-7.453-3.032c-0.62-0.8-1.084-1.776-1.401-2.745
			c-1.806-5.506-3.543-11.035-5.316-16.552c-0.126-0.393-0.336-0.77-0.56-1.119c-0.266-0.416-0.685-0.579-1.171-0.466
			c-0.511,0.119-0.716,0.514-0.771,0.988c-0.038,0.333-0.032,0.673-0.032,1.01c-0.001,4.997-0.001,9.995-0.001,14.991
			c0,0.302,0,0.604,0,0.957c-2.253,0-4.428,0-6.709,0c0-0.296,0-0.593,0-0.892c0-5.558,0.086-11.118-0.028-16.674
			c-0.084-4.08,2.662-6.264,5.449-6.875c2.751-0.603,5.355-0.293,7.65,1.509c1.026,0.804,1.711,1.843,2.104,3.072
			c1.854,5.784,3.701,11.57,5.549,17.356c0.145,0.452,0.27,0.913,0.435,1.356c0.268,0.719,0.767,1.07,1.459,1.037
			c0.699-0.032,1.129-0.406,1.34-1.071c0.876-2.748,1.763-5.492,2.642-8.237c1.059-3.306,2.191-6.59,3.147-9.925
			c0.962-3.353,3.798-5.157,6.98-5.343c2.533-0.148,4.852,0.43,6.699,2.312c1.089,1.109,1.681,2.461,1.688,4.005
			c0.025,5.923,0.011,11.847,0.009,17.769C51.693,29.599,51.668,29.788,51.651,30.018z"/>
		<path fill-rule="evenodd" clip-rule="evenodd" fill="none" d="M91.979,16.643c-1.336,0-2.555,0-3.853,0
			c0-1.192-0.075-2.36,0.024-3.512c0.082-0.949,0.876-1.444,1.96-1.423c1.086,0.021,1.791,0.547,1.852,1.534
			C92.032,14.347,91.979,15.461,91.979,16.643z"/>
	</g>
</g>
</svg>
