<?xml version="1.0" encoding="utf-8"?>
<!-- Generator: Adobe Illustrator 20.1.0, SVG Export Plug-In . SVG Version: 6.00 Build 0)  -->
<svg version="1.1" id="logos" xmlns="http://www.w3.org/2000/svg" xmlns:xlink="http://www.w3.org/1999/xlink" x="0px" y="0px"
	 viewBox="0 0 125 40" enable-background="new 0 0 125 40" xml:space="preserve">
<g>
	<g>
		<g>
			<path fill="#FFFFFF" d="M35.242,0.465c0,13.066,0,26.069,0,39.064c7.814,0,15.572,0,23.358,0c0-3.407,0-6.765,0-10.173
				c-0.289-0.014-0.535-0.042-0.774-0.042c-3.126,0-6.244-0.007-9.37,0.014c-0.563,0.007-0.81-0.113-0.781-0.739
				c0.049-1.021,0.049-2.049,0-3.069c-0.028-0.612,0.19-0.76,0.767-0.753c2.922,0.028,5.85,0.014,8.772,0.007
				c0.289,0,0.57-0.035,0.852-0.049c0-3.252,0-6.413,0-9.659c-0.915,0-1.788,0-2.654,0c-2.351,0-4.696,0.014-7.047-0.007
				c-0.225,0-0.634-0.225-0.641-0.359c-0.049-1.288-0.028-2.584-0.028-3.963c3.576,0,7.054,0,10.553,0c0-3.471,0-6.857,0-10.278
				C50.56,0.465,42.922,0.465,35.242,0.465z M25.625,18.17c2.225-2.33,3.034-5.055,2.816-8.145c-0.176-2.499-1.091-4.653-2.957-6.35
				c-2.563-2.33-5.73-3.126-9.053-3.196C11.06,0.366,5.688,0.437,0.317,0.43C0.204,0.43,0.084,0.472,0,0.486
				c0,13.052,0,26.055,0,39.078c5.336,0,10.602,0.035,15.875-0.021c1.514-0.014,3.048-0.148,4.527-0.451
				c7.955-1.654,10.827-8.216,9.532-14.53C29.399,21.894,27.906,19.775,25.625,18.17z M97.728,10.771c2.422,0,4.759,0,7.174,0
				c0,9.624,0,19.177,0,28.765c4.337,0,8.596,0,12.925,0c0-9.595,0-19.148,0-28.793c2.429,0,4.787,0,7.174,0
				c0-3.471,0-6.857,0-10.25c-9.117,0-18.191,0-27.272,0C97.728,3.914,97.728,7.279,97.728,10.771z M100.888,39.536
				c-0.07-0.239-0.113-0.429-0.183-0.612C95.918,26.28,91.124,13.644,86.344,1c-0.176-0.458-0.394-0.584-0.859-0.584
				c-2.696,0.021-5.4,0.028-8.096,0c-0.549-0.007-0.767,0.176-0.957,0.676c-4.358,11.545-8.736,23.084-13.115,34.622
				c-0.479,1.267-0.95,2.527-1.457,3.858c4.041,0,7.962,0.007,11.883-0.021c0.211,0,0.521-0.246,0.605-0.451
				c0.366-0.845,0.634-1.732,1-2.577c0.092-0.211,0.394-0.472,0.605-0.472c3.626-0.028,7.244-0.028,10.87,0
				c0.218,0,0.542,0.239,0.634,0.444c0.345,0.796,0.648,1.619,0.908,2.45c0.148,0.486,0.373,0.641,0.894,0.641
				c3.647-0.028,7.293-0.014,10.94-0.014C100.41,39.571,100.621,39.55,100.888,39.536z"/>
			<path d="M35.242,0.465c7.688,0,15.326,0,22.999,0c0,3.421,0,6.801,0,10.278c-3.492,0-6.977,0-10.553,0
				c0,1.38-0.021,2.668,0.028,3.963c0.007,0.134,0.415,0.359,0.641,0.359c2.351,0.021,4.696,0.014,7.047,0.007
				c0.873,0,1.739,0,2.654,0c0,3.238,0,6.399,0,9.659c-0.282,0.014-0.563,0.049-0.852,0.049c-2.922,0.007-5.85,0.014-8.772-0.007
				c-0.577-0.007-0.796,0.141-0.767,0.753c0.049,1.021,0.049,2.049,0,3.069c-0.028,0.627,0.218,0.746,0.781,0.739
				c3.126-0.028,6.244-0.014,9.37-0.014c0.246,0,0.486,0.021,0.774,0.042c0,3.407,0,6.765,0,10.173c-7.786,0-15.544,0-23.358,0
				C35.242,26.526,35.242,13.531,35.242,0.465z M41.071,34.819c0.289,0.021,0.507,0.049,0.732,0.049
				c3.921,0,7.849-0.007,11.771,0.007c0.5,0,0.774-0.049,0.774-0.676c0.007-0.634-0.239-0.739-0.796-0.732
				c-3.351,0.021-6.695,0.007-10.046,0.007c-0.289,0-0.584,0-0.894,0c0-4.33,0-8.56,0-12.848c0.352,0,0.655,0,0.95,0
				c3.147,0,6.301-0.014,9.448,0.007c0.549,0.007,0.732-0.141,0.739-0.711c0-0.584-0.218-0.704-0.753-0.697
				c-3.175,0.021-6.35,0.007-9.518,0.007c-0.289,0-0.577-0.028-0.873-0.042c0-4.245,0-8.399,0-12.637c3.914,0,7.772,0,11.644,0
				c0-0.507,0-0.936,0-1.338c-4.435,0-8.793,0-13.179,0C41.071,15.094,41.071,24.914,41.071,34.819z"/>
			<path d="M25.625,18.17c2.281,1.605,3.773,3.724,4.322,6.399c1.295,6.315-1.577,12.876-9.532,14.53
				c-1.478,0.31-3.02,0.436-4.527,0.451c-5.273,0.056-10.546,0.021-15.875,0.021c0-13.031,0-26.033,0-39.078
				c0.084-0.014,0.197-0.056,0.317-0.056c5.371,0.007,10.743-0.063,16.114,0.049c3.323,0.07,6.491,0.866,9.053,3.196
				c1.859,1.697,2.781,3.851,2.957,6.35C28.659,13.116,27.85,15.847,25.625,18.17z M5.928,5.146c0,9.961,0,19.817,0,29.715
				c1.316,0,2.57,0.028,3.816-0.007c2.52-0.063,5.062,0.035,7.547-0.275c5.829-0.739,7.92-5.54,6.765-9.99
				c-0.62-2.408-2.372-3.914-4.66-4.808c-0.401-0.155-0.817-0.282-1.056-0.359c1-0.767,2.218-1.401,3.027-2.379
				c3.506-4.196,1.429-10.257-3.893-11.503c-0.964-0.225-1.971-0.359-2.957-0.38C11.679,5.118,8.835,5.146,5.928,5.146z"/>
			<path d="M97.728,10.771c0-3.485,0-6.857,0-10.285c9.081,0,18.156,0,27.272,0c0,3.4,0,6.779,0,10.25c-2.387,0-4.745,0-7.174,0
				c0,9.638,0,19.198,0,28.793c-4.33,0-8.589,0-12.925,0c0-9.581,0-19.134,0-28.765C102.486,10.771,100.149,10.771,97.728,10.771z
				 M110.632,6.561c0,9.483,0,18.846,0,28.251c0.507,0,0.972,0,1.499,0c0-9.426,0-18.811,0-28.265c2.809,0,5.547,0,8.321,0
				c0-0.486,0-0.894,0-1.345c-6.075,0-12.13,0-18.184,0c0,0.472,0,0.887,0,1.359C105.056,6.561,107.795,6.561,110.632,6.561z"/>
			<path d="M100.888,39.536c-0.268,0.014-0.486,0.035-0.697,0.035c-3.647,0-7.293-0.014-10.94,0.014
				c-0.521,0.007-0.746-0.155-0.894-0.641c-0.253-0.831-0.556-1.654-0.908-2.45c-0.092-0.204-0.415-0.444-0.634-0.444
				c-3.626-0.028-7.244-0.028-10.87,0c-0.211,0-0.514,0.26-0.605,0.472c-0.359,0.845-0.634,1.732-1,2.577
				c-0.092,0.204-0.401,0.451-0.605,0.451c-3.921,0.028-7.842,0.021-11.883,0.021c0.5-1.331,0.972-2.598,1.457-3.858
				c4.372-11.538,8.751-23.077,13.115-34.622c0.19-0.5,0.408-0.683,0.957-0.676c2.696,0.028,5.4,0.028,8.096,0
				c0.465-0.007,0.69,0.127,0.859,0.584c4.78,12.644,9.574,25.28,14.368,37.924C100.776,39.1,100.818,39.29,100.888,39.536z
				 M93.757,34.862c-0.106-0.345-0.162-0.556-0.232-0.753c-3.513-9.236-7.026-18.473-10.539-27.709
				c-0.479-1.26-0.486-1.232-1.901-1.26c-0.549-0.007-0.838,0.134-1.049,0.683c-3.428,9.06-6.885,18.107-10.327,27.16
				c-0.225,0.591-0.429,1.19-0.655,1.809c1.507,0.155,1.507,0.155,1.985-1.091c0.134-0.352,0.31-0.683,0.394-1.049
				c0.134-0.577,0.429-0.753,1.042-0.753c5.899,0.028,11.792,0.014,17.691,0.014c0.296,0,0.598,0,0.915,0
				c0.317,0.817,0.648,1.591,0.908,2.394c0.148,0.444,0.38,0.598,0.817,0.549C93.081,34.841,93.356,34.862,93.757,34.862z"/>
			<path fill="#FFFFFF" d="M41.071,34.819c0-9.905,0-19.726,0-29.61c4.386,0,8.744,0,13.179,0c0,0.401,0,0.831,0,1.338
				c-3.872,0-7.73,0-11.644,0c0,4.238,0,8.392,0,12.637c0.296,0.014,0.584,0.042,0.873,0.042c3.175,0.007,6.35,0.014,9.518-0.007
				c0.535,0,0.753,0.113,0.753,0.697c0,0.57-0.19,0.718-0.739,0.711c-3.147-0.021-6.301-0.007-9.448-0.007c-0.296,0-0.591,0-0.95,0
				c0,4.287,0,8.518,0,12.848c0.317,0,0.605,0,0.894,0c3.351,0,6.695,0.014,10.046-0.007c0.556,0,0.796,0.106,0.796,0.732
				c-0.007,0.62-0.275,0.676-0.774,0.676c-3.921-0.014-7.849-0.007-11.771-0.007C41.577,34.869,41.359,34.841,41.071,34.819z"/>
			<path fill="#FFFFFF" d="M5.928,5.146c2.907,0,5.752-0.035,8.596,0.014c0.993,0.014,1.992,0.148,2.957,0.38
				c5.315,1.246,7.399,7.307,3.893,11.503c-0.81,0.972-2.027,1.612-3.027,2.379c0.239,0.077,0.655,0.204,1.056,0.359
				c2.288,0.894,4.041,2.408,4.66,4.808c1.147,4.449-0.936,9.25-6.765,9.99c-2.485,0.317-5.034,0.211-7.547,0.275
				c-1.246,0.028-2.492,0.007-3.816,0.007C5.928,24.964,5.928,15.115,5.928,5.146z M7.378,19.993c0,4.569,0,8.997,0,13.573
				c3.231-0.099,6.399-0.113,9.553-0.338c1.514-0.106,2.971-0.711,4.111-1.788c1.887-1.781,2.105-4.055,1.605-6.427
				c-0.528-2.485-2.288-3.837-4.625-4.477C14.53,19.585,10.968,20.226,7.378,19.993z M7.343,18.536c2.992,0,5.913,0.12,8.821-0.042
				c2.218-0.127,4.041-1.19,4.815-3.428c0.303-0.873,0.387-1.844,0.401-2.781c0.042-2.992-1.859-5.294-4.85-5.526
				c-2.999-0.232-6.033-0.127-9.046-0.169c-0.035,0-0.077,0.049-0.141,0.099C7.343,10.616,7.343,14.559,7.343,18.536z"/>
			<path fill="#FFFFFF" d="M110.632,6.561c-2.837,0-5.576,0-8.363,0c0-0.472,0-0.88,0-1.359c6.054,0,12.109,0,18.184,0
				c0,0.451,0,0.859,0,1.345c-2.781,0-5.512,0-8.321,0c0,9.455,0,18.832,0,28.265c-0.535,0-0.993,0-1.499,0
				C110.632,25.407,110.632,16.044,110.632,6.561z"/>
			<path fill="#FFFFFF" d="M93.757,34.862c-0.401,0-0.676-0.021-0.943,0.007c-0.436,0.042-0.676-0.113-0.817-0.549
				c-0.26-0.803-0.598-1.577-0.908-2.394c-0.324,0-0.62,0-0.915,0c-5.899,0-11.792,0.014-17.691-0.014
				c-0.612,0-0.908,0.169-1.042,0.753c-0.084,0.359-0.26,0.697-0.394,1.049c-0.479,1.246-0.479,1.246-1.985,1.091
				c0.225-0.62,0.429-1.218,0.655-1.809c3.443-9.053,6.899-18.1,10.327-27.16c0.211-0.549,0.5-0.697,1.049-0.683
				c1.415,0.021,1.422,0,1.901,1.26c3.513,9.236,7.026,18.473,10.539,27.709C93.595,34.313,93.651,34.524,93.757,34.862z
				 M72.243,30.504c6.167,0,12.193,0,18.311,0c-3.048-7.99-6.068-15.903-9.159-24.013C78.312,14.601,75.291,22.514,72.243,30.504z"
				/>
			<path d="M7.378,19.993c3.59,0.239,7.16-0.408,10.637,0.542c2.337,0.641,4.097,1.992,4.625,4.477
				c0.5,2.372,0.282,4.639-1.605,6.427c-1.14,1.077-2.598,1.683-4.111,1.788c-3.154,0.218-6.322,0.232-9.553,0.338
				C7.378,28.983,7.378,24.562,7.378,19.993z M12.116,30.525c1.338-0.197,2.633-0.275,3.851-0.605
				c1.267-0.352,1.971-1.577,1.964-2.964c-0.007-1.429-0.69-2.492-1.957-2.978c-1.232-0.472-2.52-0.486-3.858-0.415
				C12.116,25.837,12.116,28.068,12.116,30.525z"/>
			<path d="M7.343,18.536c0-3.985,0-7.92,0-11.841c0.063-0.042,0.099-0.099,0.141-0.099c3.02,0.035,6.047-0.07,9.046,0.169
				c2.992,0.232,4.893,2.534,4.85,5.526c-0.014,0.929-0.099,1.908-0.401,2.781c-0.774,2.239-2.598,3.302-4.815,3.428
				C13.256,18.663,10.335,18.536,7.343,18.536z M12.102,15.108c0.739-0.042,1.38-0.07,2.02-0.127
				c1.366-0.113,2.126-0.929,2.267-2.415c0.127-1.352-0.535-2.471-1.781-2.739c-0.803-0.169-1.661-0.113-2.506-0.155
				C12.102,11.539,12.102,13.256,12.102,15.108z"/>
			<path d="M72.243,30.504c3.048-7.99,6.061-15.903,9.159-24.013c3.091,8.103,6.111,16.023,9.159,24.013
				C84.443,30.504,78.41,30.504,72.243,30.504z M84.007,27.392c-0.866-2.26-1.704-4.428-2.605-6.772
				c-0.901,2.344-1.746,4.527-2.605,6.772C80.543,27.392,82.205,27.392,84.007,27.392z"/>
		</g>
	</g>
	<rect x="0.014" y="0" fill="none" width="124.986" height="40"/>
</g>
</svg>
