<?xml version="1.0" encoding="utf-8"?>
<!-- Generator: Adobe Illustrator 20.1.0, SVG Export Plug-In . SVG Version: 6.00 Build 0)  -->
<svg version="1.1" id="logos" xmlns="http://www.w3.org/2000/svg" xmlns:xlink="http://www.w3.org/1999/xlink" x="0px" y="0px"
	 viewBox="0 0 125 40" enable-background="new 0 0 125 40" xml:space="preserve">
<g>
	<g>
		<polygon fill="#1F0C83" points="112.179,10.632 71.868,34.223 125,27.317 		"/>
		<path d="M6.131,18.997l2.576-0.137c0,0,0.182-2.758-3.92-2.758C1.846,16.102,0,18.017,0,20.707c0,2.416,1.641,3.1,3.875,3.1
			s3.829-0.912,4.468-2.895l-2.758-0.251c0,0-0.296,1.208-1.596,1.208c-1.026,0-1.573-1.117-1.003-2.371s1.185-1.436,1.983-1.436
			C5.698,18.063,5.995,18.382,6.131,18.997z"/>
		<path d="M16.229,13.527L15.5,17.265c0,0-0.661-1.162-2.371-1.162c-1.413,0-3.487,1.527-3.487,4.582
			c0,2.143,1.026,3.123,2.553,3.123c1.049,0,1.596-0.228,2.188-0.843l-0.091,0.707h2.644l2.188-10.143H16.229z M14.93,19.954
			c-0.137,0.935-0.821,1.983-1.573,1.983c-0.752,0-0.935-0.547-0.935-1.436c0-1.709,0.935-2.462,1.436-2.462
			c0.798,0,1.071,0.775,1.071,0.957V19.954z"/>
		<g>
			<path d="M27.821,9.652c0.495-2.31,0.831-3.875,0.831-3.875h-5.767c0,0-0.333,1.587-0.815,3.875H27.821z"/>
			<path d="M21.705,11.384c-1.209,5.736-2.938,13.916-3.128,14.679c-0.296,1.185-0.843,1.755-2.097,1.755
				c-0.889,0-1.436-0.182-1.436-0.182l-0.752,4.034c0,0,2.485,0.524,4.148,0.524c1.664,0,4.604-0.342,5.493-4.445
				c0.564-2.605,2.314-10.759,3.516-16.366H21.705z"/>
		</g>
		<path d="M43.308,16.9c0.16-1.345,0.342-3.077-0.775-4.217c-1.117-1.14-2.462-1.641-6.451-1.641c-2.918,0-6.838,0.137-8.228,4.445
			l5.425,0.524c0.41-0.912,0.957-1.573,2.644-1.573c1.436,0,2.143,0.501,2.029,1.345c-0.034,0.251-0.072,0.526-0.121,0.837
			c-0.271,0.088-1.054,0.249-3.275,0.508c-3.214,0.342-5.79,0.524-7.18,2.074c-1.39,1.55-1.276,4.171-0.365,5.425
			c0.821,1.094,1.823,1.915,4.468,1.915c2.507,0,3.989-1.026,5.037-1.937c0,0,0.114,1.39,0.228,1.596h5.539
			c0,0-0.501-1.162-0.274-2.826c0.157-1.143,0.636-3.135,0.972-4.707C43.134,17.95,43.258,17.321,43.308,16.9z M36.037,22.257
			c-0.889,0.98-1.937,1.162-2.416,1.162s-1.755-0.205-1.755-1.482c0-0.843,0.661-1.413,2.393-1.801
			c1.108-0.248,2.262-0.449,2.95-0.562c-0.003,0.013-0.006,0.025-0.01,0.037C37.199,19.613,36.926,21.276,36.037,22.257z
			 M37.962,16.559l0.001-0.024C37.963,16.535,37.978,16.543,37.962,16.559z"/>
		<path d="M77.57,16.9c0.16-1.345,0.342-3.077-0.775-4.217c-1.117-1.14-2.462-1.641-6.451-1.641c-2.918,0-6.838,0.137-8.228,4.445
			l5.425,0.524c0.41-0.912,0.957-1.573,2.644-1.573c1.436,0,2.143,0.501,2.029,1.345c-0.034,0.251-0.072,0.526-0.121,0.837
			c-0.271,0.088-1.054,0.249-3.275,0.508c-3.214,0.342-5.79,0.524-7.18,2.074c-1.39,1.55-1.276,4.171-0.365,5.425
			c0.821,1.094,1.823,1.915,4.468,1.915c2.507,0,3.989-1.026,5.037-1.937c0,0,0.114,1.39,0.228,1.596h5.539
			c0,0-0.501-1.162-0.274-2.826c0.157-1.143,0.636-3.135,0.972-4.707C77.397,17.95,77.52,17.321,77.57,16.9z M70.299,22.257
			c-0.889,0.98-1.937,1.162-2.416,1.162c-0.479,0-1.755-0.205-1.755-1.482c0-0.843,0.661-1.413,2.393-1.801
			c1.108-0.248,2.262-0.449,2.95-0.562c-0.003,0.013-0.006,0.025-0.01,0.037C71.462,19.613,71.188,21.276,70.299,22.257z
			 M72.225,16.559l0.001-0.024C72.226,16.535,72.24,16.543,72.225,16.559z"/>
		<path d="M55.685,11.042c-2.029,0-3.51,0.889-4.319,1.801h-0.092l0.286-1.459h-5.356l-4.399,20.469h5.676l1.687-7.613
			c0,0,1.003,2.302,4.673,2.302c3.67,0,7.089-3.67,7.089-9.186C60.927,13.367,59.286,11.042,55.685,11.042z M55.405,17.641
			c-0.188,3.658-2.034,5.111-3.026,5.111s-2.787-0.803-2.069-4.086c0.718-3.282,2.205-3.881,3.111-3.881
			C54.807,14.786,55.44,15.914,55.405,17.641z"/>
		<path d="M85.408,11.401H80.04L76.906,26.2h5.767c0,0,0.866-4.559,1.527-7.134c0.661-2.576,2.006-3.784,3.419-3.784
			c0.912,0,1.162,0.638,0.935,1.983S86.661,26.2,86.661,26.2h5.767c0,0,1.322-6.382,1.71-8.342s1.071-3.943-0.205-5.562
			c-0.957-0.935-1.983-1.254-3.556-1.254c-1.573,0-3.693,0.615-5.47,2.69L85.408,11.401z"/>
		<polygon fill="#FFFFFF" points="95.46,24.331 93.75,24.331 93.454,25.858 95.118,25.858 		"/>
		<polygon fill="#FFFFFF" points="108.794,24.331 107.084,24.331 106.788,25.858 108.452,25.858 		"/>
		<path fill="#FFFFFF" d="M100.127,22.804h1.351c0,0-0.034-1.573-2.325-1.573c-1.265,0-3.043,0.821-3.043,2.718
			c0,1.094,0.444,2.051,2.462,2.051c1.214,0,2.108-0.484,2.621-1.601l-1.39-0.148c0,0-0.399,0.741-1.231,0.741
			c-0.707,0-0.946-0.342-0.946-1.071s0.467-1.732,1.584-1.732C99.847,22.188,100.127,22.804,100.127,22.804z"/>
		<path fill="#FFFFFF" d="M104.469,21.231c-1.863,0-2.889,1.368-2.889,2.633S102.28,26,103.905,26c1.829,0,2.883-1.351,2.883-2.718
			S105.751,21.231,104.469,21.231z M105.238,23.693c-0.12,0.94-0.718,1.299-1.231,1.299s-1.06-0.291-0.906-1.376
			c0.154-1.086,0.942-1.484,1.299-1.445C105.17,22.257,105.358,22.752,105.238,23.693z"/>
		<g>
			<path fill="#FFFFFF" d="M111.957,20.547c0.133-0.61,0.221-1.009,0.221-1.009h-1.59c0,0-0.082,0.403-0.206,1.009H111.957z"/>
			<path fill="#FFFFFF" d="M110.214,21.368c-0.35,1.702-0.838,4.059-0.976,4.633c-0.222,0.923-1.197,0.667-1.197,0.667l-0.154,1.026
				c0,0,0.735,0.137,1.145,0.137s1.368,0.057,1.71-1.63c0.206-1.018,0.687-3.235,1.036-4.832H110.214z"/>
		</g>
		<path fill="#FFFFFF" d="M115.478,21.231c-0.786,0-1.376,0.701-1.376,0.701l-0.18-0.103l0.017-0.462h-1.402l-1.368,6.359h1.556
			l0.564-2.735c0,0,0.359,1.009,1.641,1.009c1.043,0,2.103-1.248,2.103-2.855C117.034,22.034,116.504,21.231,115.478,21.231z
			 M115.495,23.761c-0.148,0.843-0.707,1.288-1.094,1.288c-0.387,0-0.946-0.319-0.821-1.368c0.125-1.049,0.732-1.562,1.231-1.513
			C115.529,22.24,115.643,22.918,115.495,23.761z"/>
	</g>
	<rect x="0" y="0" fill="none" width="125" height="40"/>
</g>
</svg>
