<?xml version="1.0" encoding="utf-8"?>
<!-- Generator: Adobe Illustrator 21.0.2, SVG Export Plug-In . SVG Version: 6.00 Build 0)  -->
<svg version="1.1" xmlns="http://www.w3.org/2000/svg" xmlns:xlink="http://www.w3.org/1999/xlink" x="0px" y="0px"
	 viewBox="0 0 125 40" enable-background="new 0 0 125 40" xml:space="preserve">
<g id="bg" display="none">
	<rect display="inline" fill="#FFFFFF" width="125" height="40"/>
</g>
<g id="icons">
	<g>
		<g id="中文">
			<path fill="#0075BC" d="M121.486,20.789c0.255-0.02,0.451-0.216,0.471-0.47v-0.02v-0.019l0,0v-0.942
				c-0.021-0.255-0.216-0.47-0.491-0.47l0,0l0,0h-2.196v1.922H121.486L121.486,20.789L121.486,20.789z M119.271,13.516
				c0.333-0.02,0.668-0.059,1.001-0.079v-0.019c0.235-0.02,0.431-0.216,0.431-0.471c0-0.019,0-0.059-0.02-0.078l-0.216-1.019
				c-0.039-0.216-0.235-0.393-0.471-0.393c-0.019,0-0.039,0.02-0.039,0.02l0,0c-0.235,0.02-0.45,0.039-0.687,0.059V13.516
				L119.271,13.516z M119.271,25.788v-2.705c1.039,1.098,2.04,2.156,3.059,3.313l0,0c0.176,0.196,0.138,0.51-0.058,0.667l0,0
				l-0.745,0.647l0,0c-0.079,0.078-0.196,0.118-0.315,0.118c-0.156,0-0.274-0.059-0.372-0.176l0,0
				C120.31,27.003,119.801,26.376,119.271,25.788z M119.271,18.867h-4.705v-3.391c-0.02-0.255-0.216-0.471-0.47-0.471h-1.117
				c-0.256,0-0.451,0.216-0.451,0.471l0,0v3.391h-5.372v1.922h5.372v5.489c-0.02,0.255-0.215,0.451-0.471,0.451
				c-0.02,0-0.02,0-0.02,0v0.019l-2.255-0.019c-0.215,0.039-0.392,0.235-0.392,0.47c0.04,0.353,0.078,0.804,0.098,1.118
				c0,0.255,0.373,0.451,0.627,0.471h2.255l0,0c0.745,0,1.176-0.196,1.588-0.608c0.412-0.411,0.607-0.999,0.607-1.745v-5.646h4.705
				V18.867L119.271,18.867z M107.156,18.691v-6.45c3.96-0.098,8.509-0.333,12.115-0.706v1.98c-3.842,0.333-8.018,0.549-11.449,0.647
				L107.156,18.691L107.156,18.691z M119.271,23.083v2.705c-0.823-0.961-1.646-1.882-2.528-2.823l0,0
				c-0.079-0.079-0.138-0.216-0.138-0.353c0-0.157,0.079-0.294,0.196-0.372l0.647-0.471l0,0c0.079-0.059,0.177-0.079,0.275-0.079
				c0.156,0,0.274,0.059,0.372,0.157l0,0C118.507,22.259,118.899,22.671,119.271,23.083L119.271,23.083z M107.156,25.455v-2.862
				c0.195-0.236,0.412-0.49,0.627-0.726c0.078-0.098,0.196-0.157,0.332-0.157c0.118,0,0.197,0.039,0.275,0.079l0.804,0.686l0,0
				c0.098,0.098,0.157,0.216,0.157,0.372c0,0.098-0.02,0.196-0.079,0.275l0,0C108.586,23.906,107.881,24.69,107.156,25.455z
				 M107.156,18.867h-0.04l0.04-0.176v-6.45c-0.275,0.02-0.549,0.02-0.824,0.02v0.019c-0.236,0-0.431,0.176-0.45,0.412h-0.02
				l-0.921,7.547h0.02c-0.02,0.02-0.02,0.04-0.02,0.079c0,0.254,0.215,0.47,0.471,0.47h1.745V18.867L107.156,18.867z
				 M107.156,22.593v2.862c-0.706,0.745-1.431,1.47-2.196,2.177c-0.079,0.078-0.196,0.137-0.315,0.137
				c-0.156,0-0.293-0.078-0.392-0.176l0,0c-0.195-0.255-0.45-0.549-0.666-0.765c-0.098-0.098-0.156-0.216-0.156-0.353
				c0-0.137,0.077-0.255,0.156-0.353l0,0C104.784,25.122,105.959,23.945,107.156,22.593L107.156,22.593z M92.629,28.605v-1.902
				h5.841v-1.235h-5.841v-1.922h5.822v-1.411h-5.822v-1.941h5.449h1.412h-0.079c0.255,0,0.53,0.216,0.55,0.451v7.45l0,0v0.02
				c0,0.274-0.197,0.47-0.451,0.49l0,0H92.629L92.629,28.605z M92.629,19.352V17.47h2.274l1.626-3.352h-3.901v-2.882h0.745
				c0.195,0.059,0.353,0.235,0.353,0.451v0.529h7.606l0,0l0,0c0.255,0,0.471,0.216,0.49,0.471v0.941h-0.019h0.019v0.038
				c-0.019,0.236-0.196,0.432-0.431,0.451h-2.666l-1.647,3.333l4.603,0.02c0.253,0,0.435,0.196,0.435,0.451v1
				c0,0.216-0.176,0.393-0.392,0.432H92.629z M92.629,11.236v2.882h-4.098l1.647,3.352h2.451v1.882h-9.137
				c-0.235-0.039-0.392-0.216-0.411-0.451V17.92c0.019-0.235,0.215-0.431,0.45-0.451h4.471c-0.197-0.314-1.687-3.352-1.687-3.352
				h-2.392c-0.235,0-0.432-0.196-0.451-0.451v-0.038c0-0.02,0-0.02,0-0.02l0,0v-0.902v-0.039c0-0.235,0.196-0.431,0.431-0.451h7.568
				v-0.51l0,0l0,0c0-0.216,0.156-0.411,0.352-0.47H92.629L92.629,11.236z M92.629,20.195v1.941h-5.882v1.411h5.882v1.922h-5.862
				v1.235h5.862v1.902h-6.922l0,0c-0.254-0.02-0.45-0.196-0.47-0.451l0,0v-7.469l0,0l0,0l0,0c0-0.274,0.216-0.49,0.47-0.49
				c0.021,0,0.021,0,0.021,0l0,0H92.629z"/>
			<path fill="#0075BC" d="M56.458,28.768v-1.902h2.509v-3.96h-2.509v-1.901h3.117h0.803c0.236,0,0.451,0.215,0.451,0.47v6.822
				c0,0.255-0.216,0.471-0.471,0.471c0,0,0,0-0.02,0l0,0H56.458L56.458,28.768z M56.458,19.985v-8.489h0.705l0,0
				c0.02,0,0.02,0,0.02,0c0.255,0,0.47,0.215,0.47,0.471l0,0l0,0v1.215h2.921l0,0l0,0c0.274,0,0.49,0.216,0.49,0.49l0,0l0,0v0.94
				l0,0l0,0c0,0.255-0.215,0.471-0.47,0.471v0.02h-2.941v3h3.274c0.255,0,0.451,0.196,0.451,0.451v0.98
				c0,0.255-0.197,0.451-0.432,0.451H56.458z M49.596,16.79v4.607l0,0v0.157c-0.117,0.02-0.235,0.04-0.372,0.04l0,0v1.705h0.49
				v0.745h-0.49v1.901h0.49v0.921h-0.49v1.902h1.47l0,0l0,0h0.02c0.255,0,0.47-0.216,0.47-0.451V15.358l0,0
				c0-0.255-0.216-0.47-0.47-0.47h-1.49v1.901H49.596L49.596,16.79z M56.458,11.496v8.489h-4.47c-0.255,0-0.451-0.196-0.451-0.47
				l0,0l0,0v-0.941l0,0l0,0c0-0.274,0.196-0.47,0.451-0.47h3.783v-3h-2.078l-0.373,1.313l0,0c-0.039,0.216-0.235,0.373-0.451,0.373
				c0,0,0,0-0.019,0l0,0h-0.804l0,0c-0.02,0-0.02,0-0.02,0c-0.255,0-0.47-0.216-0.47-0.49c0-0.039,0-0.079,0.019-0.118l0,0
				l1.255-4.332l0,0c0.059-0.197,0.236-0.353,0.451-0.353l0,0h0.784l0,0l0,0c0.255,0,0.47,0.215,0.47,0.471
				c0,0.039,0,0.078-0.02,0.098l0,0l-0.372,1.117h1.626v-1.196l0,0c0-0.019,0-0.019,0-0.019c0-0.255,0.216-0.471,0.471-0.471H56.458
				L56.458,11.496z M56.458,21.005v1.901h-2.51v3.96h2.51v1.902h-3.902c-0.255,0-0.451-0.216-0.47-0.471v-6.822
				c0.019-0.255,0.196-0.451,0.451-0.47H56.458L56.458,21.005z M49.224,13.34v-1.902h1.725c0.255,0.02,0.471,0.216,0.471,0.49l0,0
				l0,0v0.941l0,0c0,0.255-0.216,0.471-0.471,0.471l0,0H49.224z M49.224,21.593c-0.039,0-0.079,0-0.099-0.02
				c-0.156-0.02-0.254-0.157-0.274-0.294V21.24l0,0l0,0v-4.45h0.372v-1.901h-0.372V13.34h0.372v-1.902h-2.352v1.902h0.392v1.549
				h-0.392v1.901h0.392v4.862l0,0c0,0.019,0,0.019,0,0.039v0.02c0,0.844,0.647,1.51,1.47,1.588h0.49V21.593L49.224,21.593z
				 M49.224,24.044v1.901h-2.352v-1.901H49.224L49.224,24.044z M49.224,26.866v1.902h-2.352v-1.902H49.224z M46.871,11.437v1.902
				h-0.372v1.549h0.372v1.901h-0.372v1.863c-0.02,1.784-0.726,3.411-1.882,4.587v-3.255c0.196-0.49,0.314-1.019,0.353-1.568V16.79
				h-0.353v-1.901h0.353V13.34h-0.353v-1.902H46.871L46.871,11.437z M46.871,24.044v1.901h-2.255v-1.901H46.871L46.871,24.044z
				 M46.871,26.866v1.902h-2.255v-1.902H46.871z M44.617,11.437v1.902h-1.804l0,0c-0.254,0-0.451-0.197-0.47-0.471v-0.961
				c0.02-0.255,0.216-0.451,0.47-0.471H44.617L44.617,11.437z M44.617,14.888v1.901h-0.353v3.901
				c0.138-0.216,0.255-0.451,0.353-0.706v3.255c-0.117,0.137-0.235,0.255-0.372,0.353l0,0l0.019,0.02v0.431l0,0l0,0h0.353v1.901
				h-0.353v0.921h0.353v1.902h-1.47l0,0l0,0h-0.02c-0.255,0-0.451-0.216-0.471-0.471l0,0V15.358h0.02c0-0.255,0.196-0.47,0.451-0.47
				H44.617z"/>
			<path fill="#0075BC" d="M81.316,17.77c0.255-0.019,0.471-0.216,0.471-0.471v-0.961c0-0.275-0.217-0.471-0.471-0.471l0,0l0,0
				H78.65v1.902H81.316L81.316,17.77L81.316,17.77z M78.65,29.003c0.059,0.02,0.098,0.039,0.138,0.059l0,0
				c0.078,0.059,0.215,0.078,0.274,0.078c0.059,0,0.079,0,0.098,0c0.333-0.157,0.666-0.353,0.98-0.549
				c0.373-0.255,0.745-0.549,1.079-0.843c0.195-0.196,0.391-0.412,0.588-0.627c0.039-0.059,0.059-0.138,0.059-0.236
				c0-0.098-0.039-0.196-0.098-0.274l0,0l0,0l-0.02-0.02c0-0.02,0-0.02-0.02-0.039l0,0c-0.136-0.176-0.254-0.372-0.352-0.568l0,0
				l-0.02-0.02l-0.02-0.04c-0.078-0.137-0.274-0.235-0.431-0.235c-0.157,0-0.255,0.039-0.333,0.138v-0.02
				c-0.314,0.314-0.647,0.588-0.98,0.862c-0.157,0.118-0.314,0.235-0.471,0.333c-0.157-0.098-0.314-0.215-0.47-0.333V29.003
				L78.65,29.003z M78.65,22.24c0.804-0.608,1.568-1.274,2.333-1.941l0,0c0.079-0.078,0.138-0.196,0.138-0.333
				c0-0.098-0.04-0.197-0.099-0.275l0,0l-0.489-0.745c-0.099-0.118-0.236-0.196-0.393-0.196c-0.117,0-0.215,0.039-0.314,0.117l0,0
				c-0.372,0.314-0.765,0.648-1.176,0.961V22.24L78.65,22.24z M78.65,14.554v-2.607l1.745,1.45l0,0
				c0.098,0.079,0.177,0.216,0.177,0.353c0,0.117-0.059,0.235-0.117,0.313l0,0l-0.706,0.824l0,0
				c-0.099,0.098-0.236,0.176-0.372,0.176c-0.138,0-0.256-0.06-0.353-0.157l0,0L78.65,14.554z M78.65,15.868h-3.176
				c-0.098-1.568-0.098-2.352-0.117-4.039c-0.04-0.235-0.235-0.411-0.471-0.411h-1.058l0,0c-0.255,0-0.471,0.215-0.471,0.47l0,0
				c0,0.02,0,0.02,0,0.02l0,0c0.058,1.784,0.058,2.568,0.137,3.96h-4.646v-2.293c0.921-0.118,1.667-0.235,2.588-0.373l0,0
				c0.235-0.039,0.431-0.235,0.431-0.49c0-0.019-0.02-0.059-0.02-0.078l0,0l-0.196-0.843l0,0l0,0
				c-0.058-0.216-0.255-0.373-0.471-0.353c-0.019,0-0.04,0-0.058,0c0,0-0.02,0-0.04,0l0,0l0,0c-2.372,0.333-4.803,0.608-7.312,0.804
				c-0.236,0.039-0.431,0.235-0.431,0.49c0,0.039,0,0.079,0.019,0.118c0.079,0.275,0.118,0.549,0.157,0.804h0.02
				c0.02,0.255,0.236,0.431,0.472,0.431c0.038,0,0.038,0,0.078,0l0,0c0.941-0.098,1.764-0.216,2.804-0.333v2.117h-3.627l0,0
				c0,0,0,0-0.019,0c-0.255,0-0.471,0.196-0.471,0.471v0.961c0,0.255,0.216,0.451,0.471,0.471l0,0h3.647v3.117
				c-1.254,0.294-2.529,0.569-3.804,0.804l0,0c-0.215,0.039-0.392,0.235-0.392,0.491c0,0.039,0,0.078,0.019,0.098h-0.019
				l0.157,0.784c0.058,0.235,0.255,0.412,0.49,0.412c0.039,0,0.059-0.019,0.098-0.019l0,0c1.157-0.216,2.313-0.451,3.451-0.725
				v3.078c0,0.451-0.099,0.764-0.216,0.941c-0.138,0.176-0.313,0.274-0.627,0.274c-0.706,0-1.314-0.039-2.157-0.118l0,0
				c-0.02,0-0.02,0-0.04,0c-0.254,0-0.47,0.197-0.47,0.471v0.02v0.019l0,0l0.039,0.922l0,0c0.02,0.255,0.217,0.451,0.471,0.451
				h2.628c0.745,0.02,1.352-0.196,1.745-0.726c0.411-0.509,0.588-1.235,0.588-2.176v-3.627c1.117-0.275,2.215-0.588,3.313-0.902
				c0.177-0.078,0.313-0.235,0.333-0.431v-0.882l0,0l0,0c0-0.275-0.216-0.51-0.491-0.51c-0.058,0-0.097,0.019-0.156,0.039l0,0
				c-0.999,0.294-2,0.569-2.999,0.823V17.77h4.744c0.137,1.706,0.236,3.45,0.667,5.117c-1.53,0.96-2.961,1.804-4.627,2.568l0,0
				c-0.177,0.059-0.314,0.235-0.314,0.451c0,0.039,0.02,0.078,0.02,0.137l0,0l0.431,1.039c0.078,0.176,0.255,0.294,0.451,0.294
				c0.059,0,0.098-0.019,0.158-0.019c0.019-0.02,0.039-0.039,0.078-0.039l0,0c1.548-0.706,3.039-1.529,4.469-2.47
				c0.745,1.764,2.039,3.235,3.725,4.156V26.67c-0.941-0.764-1.608-1.764-2.058-2.901c0.706-0.49,1.392-1,2.058-1.529v-2.411
				c-0.843,0.647-1.745,1.294-2.607,1.882c-0.314-1.254-0.353-2.646-0.451-3.94h3.058V15.868L78.65,15.868z M78.65,11.947v2.607
				l-1.745-1.666l0,0c-0.098-0.078-0.157-0.215-0.157-0.353c0-0.118,0.059-0.235,0.137-0.333l0.687-0.667
				c0.078-0.079,0.176-0.118,0.294-0.118c0.118,0,0.216,0.059,0.314,0.137l0,0L78.65,11.947z"/>
		</g>
		<g id="英文">
			<path fill="#0075BC" d="M107.013,35.909c-0.173,0-0.33,0.079-0.472,0.205c-0.126,0.11-0.189,0.268-0.189,0.457
				c0,0.189,0.063,0.348,0.189,0.473c0.142,0.142,0.299,0.205,0.472,0.205c0.189,0,0.347-0.063,0.49-0.205
				c0.126-0.126,0.189-0.284,0.189-0.473c0-0.189-0.064-0.347-0.189-0.457C107.36,35.988,107.202,35.909,107.013,35.909
				L107.013,35.909z M95.013,35.924l-1.83-4.305H93.04l-1.891,4.305l-1.687-4.305h-0.775l2.24,5.535h0.458l1.734-3.847l1.656,3.847
				h0.473l2.413-5.535h-0.789L95.013,35.924L95.013,35.924z M49.055,35.924l-1.766-4.305h-0.141l-1.751,4.305l-1.814-4.305h-0.789
				l2.413,5.614h0.378l1.641-3.927l1.64,3.927h0.394l2.445-5.614h-0.789L49.055,35.924L49.055,35.924z M68.801,35.924l-1.766-4.305
				h-0.143l-1.892,4.305l-1.672-4.305H62.54l2.286,5.614h0.379l1.767-3.927l1.639,3.927h0.394l2.444-5.614h-0.788L68.801,35.924
				L68.801,35.924z M58.928,35.924l-1.767-4.305H57.02l-1.892,4.305l-1.672-4.305h-0.789l2.271,5.614h0.394l1.767-3.927l1.64,3.927
				h0.394l2.444-5.614h-0.788L58.928,35.924L58.928,35.924z M73.484,35.909c-0.189,0-0.346,0.079-0.472,0.205
				c-0.142,0.11-0.206,0.268-0.206,0.457c0,0.189,0.064,0.348,0.206,0.473c0.126,0.142,0.283,0.205,0.472,0.205
				c0.174,0,0.332-0.063,0.473-0.205c0.127-0.126,0.19-0.284,0.19-0.473c0-0.189-0.063-0.347-0.19-0.457
				C73.816,35.988,73.659,35.909,73.484,35.909L73.484,35.909z M79.982,31.556h-0.031l-3.706,2.255v-2.255h-0.758v5.468h0.758
				v-2.345l3.754,2.439l0.41-0.599l-3.549-2.282l3.549-2.208L79.982,31.556z"/>
			<path fill="#0075BC" d="M112.139,32.219c0.867,0,1.544,0.331,2.05,0.994l0.567-0.362c-0.158-0.285-0.363-0.521-0.614-0.695
				c-0.236-0.189-0.536-0.346-0.884-0.457c-0.347-0.111-0.71-0.173-1.088-0.173c-0.6,0-1.152,0.142-1.625,0.394
				c-0.489,0.268-0.868,0.646-1.136,1.104c-0.284,0.473-0.425,0.993-0.425,1.529c0,0.821,0.301,1.514,0.883,2.066
				c0.6,0.583,1.341,0.867,2.24,0.867c0.584,0,1.104-0.11,1.561-0.347c0.457-0.221,0.819-0.536,1.088-0.931l-0.567-0.378
				c-0.536,0.647-1.215,0.978-2.05,0.978c-0.458,0-0.867-0.095-1.231-0.3c-0.362-0.204-0.647-0.473-0.868-0.836
				c-0.204-0.363-0.314-0.757-0.314-1.167c0-0.631,0.236-1.182,0.693-1.624C110.877,32.439,111.445,32.219,112.139,32.219z"/>
			<path fill-rule="evenodd" clip-rule="evenodd" fill="#0075BC" d="M102.046,31.335c1.67,0,3.027,1.356,3.027,3.028
				c0,1.672-1.357,3.012-3.027,3.012V36.65l0,0c1.276,0,2.301-1.01,2.301-2.287c0-1.278-1.025-2.303-2.301-2.303l0,0V31.335z
				 M102.046,31.335L102.046,31.335v0.726c-1.278,0-2.303,1.025-2.303,2.303c0,1.277,1.026,2.287,2.303,2.287v0.726l0,0
				c-1.672,0-3.029-1.341-3.029-3.012C99.017,32.692,100.375,31.335,102.046,31.335z"/>
			<path fill-rule="evenodd" clip-rule="evenodd" fill="#0075BC" d="M87.217,34.474v0.015l0,0v0.032l0,0
				c-0.033,1.53-1.131,2.744-2.661,2.744c-1.545,0-2.66-1.23-2.66-2.776l0,0l0,0v-0.015v-2.887h0.757v3.155
				c0.142,1.009,0.847,1.783,1.904,1.783c1.041,0,1.761-0.774,1.888-1.783v-3.155h0.773V34.474z"/>
			<path fill-rule="evenodd" clip-rule="evenodd" fill="#0075BC" d="M116.491,34.411L116.491,34.411L116.491,34.411v-0.048h0.016
				c0.016-1.514,1.262-2.76,2.791-2.76c1.546,0,2.808,1.261,2.808,2.807l0,0l0,0l0,0v2.886h-0.757v-3.138
				c-0.126-1.026-0.994-1.798-2.051-1.798c-1.041,0-1.907,0.772-2.034,1.798v3.138h-0.773V34.411z"/>
		</g>
		<g id="icon">
			<path fill-rule="evenodd" clip-rule="evenodd" fill="#F5A21B" d="M36.567,18.027c-0.108-0.004-0.195-0.092-0.195-0.201
				c0-0.001-0.001-0.002-0.001-0.003l-0.006-1.957c-0.044-0.586-0.302-1.032-0.693-1.444c0.009,0.007,0.014,0.011,0.011,0.007
				c-0.04-0.039-0.04-0.103,0-0.143c0.03-0.03,0.073-0.037,0.11-0.022c0,0,0.001-0.001,0.002-0.001
				c0.809,0.395,1.725,0.866,2.087,1.556C38.529,17.058,37.708,17.937,36.567,18.027z"/>
			<path fill-rule="evenodd" clip-rule="evenodd" fill="#FEDD78" d="M35.968,31.501c-0.001,1.253-1.017,2.634-2.269,3.086
				c-0.023,0.008-0.044,0.018-0.064,0.027l-14.489,5.252c-1.24,0.433-2.241-0.214-2.241-1.457c0-0.002,0-0.004,0-0.007V21.311
				c0-1.208,1.038-2.414,2.235-2.784l14.896-3.811c1.088-0.114,1.924,0.609,1.932,1.739L35.968,31.501z"/>
			<path fill-rule="evenodd" clip-rule="evenodd" fill="#ED6D34" d="M32.098,22.136c0.017-0.02,0.035-0.041,0.053-0.062
				c0.6-0.561,0.994-1.349,0.994-2.13c0-1.253-1.016-2.011-2.27-1.692c-0.648,0.165-1.232,0.586-1.646,1.127
				c-0.011,0.01-0.018,0.016-0.018,0.016l-3.934,4.287v-1.563c0-0.032,0-0.065-0.002-0.097c0.001-0.018,0.002-0.036,0.002-0.054
				c0-0.285-0.053-0.543-0.148-0.77c-0.225-0.604-0.734-1.042-1.705-0.991c-0.104,0.005-0.203,0.016-0.3,0.031
				c-0.035,0.018-0.073,0.033-0.116,0.044c-0.646,0.166-1.229,0.546-1.642,1.047c-0.178,0.249-0.317,0.522-0.418,0.8
				c-0.134,0.324-0.21,0.666-0.21,1.006c0,0.022,0.001,0.042,0.001,0.064c-0.001,0.027-0.001,0.054-0.001,0.081
				c0-0.014,0,0.454,0,0.454s0,9.928,0,11.246c0,0.001,0,0.002,0,0.003c0,0.001,0,0.001,0,0.001s0,0,0,0.001
				c0,0.022,0,0.051,0.002,0.087c0.047,1.196,1.044,1.806,2.267,1.365c0.041-0.015,0.082-0.031,0.122-0.047
				c0.001,0,0.002,0,0.002-0.001c0.04-0.016,0.079-0.034,0.119-0.052c1.139-0.531,2.027-1.814,2.027-2.985v-2.557l3.818,2.578
				c0.416,0.375,1.058,0.481,1.779,0.221c0.441-0.159,0.852-0.433,1.201-0.776c0,0,0,0,0,0c0.03-0.03,0.06-0.06,0.089-0.091
				c0.001-0.001,0.002-0.002,0.002-0.002c0.029-0.03,0.057-0.061,0.084-0.092c0.002-0.002,0.003-0.003,0.004-0.005
				c0.027-0.031,0.054-0.061,0.079-0.093c0.002-0.003,0.004-0.005,0.006-0.007c0.025-0.03,0.05-0.061,0.074-0.092
				c0.003-0.004,0.005-0.008,0.008-0.011c0.023-0.03,0.046-0.061,0.069-0.092c0.004-0.004,0.007-0.009,0.01-0.014
				c0.021-0.03,0.043-0.06,0.063-0.09c0.004-0.006,0.008-0.012,0.012-0.018c0.02-0.029,0.039-0.059,0.058-0.089
				c0.005-0.007,0.009-0.014,0.013-0.022c0.018-0.029,0.036-0.058,0.053-0.087c0.005-0.009,0.01-0.017,0.015-0.026
				c0.016-0.028,0.032-0.056,0.047-0.085c0.005-0.01,0.01-0.02,0.016-0.03c0.014-0.027,0.029-0.054,0.042-0.082
				c0.006-0.012,0.011-0.023,0.016-0.034c0.013-0.027,0.025-0.053,0.037-0.08c0.006-0.013,0.011-0.025,0.016-0.038
				c0.011-0.025,0.022-0.051,0.033-0.076c0.006-0.014,0.011-0.029,0.017-0.042c0.01-0.025,0.019-0.049,0.028-0.073
				c0.006-0.016,0.011-0.031,0.016-0.047c0.008-0.023,0.016-0.046,0.024-0.07c0.006-0.016,0.01-0.033,0.015-0.05
				c0.007-0.023,0.014-0.045,0.02-0.067c0.005-0.018,0.009-0.036,0.014-0.055c0.005-0.021,0.011-0.042,0.016-0.063
				c0.005-0.019,0.008-0.039,0.012-0.058c0.005-0.02,0.009-0.04,0.013-0.06c0.004-0.021,0.007-0.042,0.01-0.062
				c0.003-0.019,0.007-0.037,0.009-0.056c0.003-0.022,0.005-0.045,0.008-0.067c0.002-0.017,0.005-0.034,0.006-0.05
				c0.003-0.025,0.004-0.051,0.006-0.077c0.001-0.014,0.002-0.027,0.003-0.041c0.002-0.039,0.003-0.078,0.003-0.117
				c0-0.05,0.005-0.094,0.014-0.133c-0.008-0.021-0.014-0.042-0.023-0.062c0,0-0.001-0.002-0.001-0.005
				c-0.049-0.537-0.298-0.944-0.675-1.177c-0.044-0.032-0.072-0.05-0.072-0.05l-4.549-2.541L32.098,22.136z"/>
			<path fill-rule="evenodd" clip-rule="evenodd" fill="#F08437" d="M31.884,12.385l1.952,0.651
				c0.022,0.012,0.045,0.022,0.066,0.034c0.63,0.366,0.697,0.91,0.15,1.215c-0.056,0.031-0.117,0.057-0.181,0.081l-0.341,0.088
				c-0.038,0.006-0.075,0.013-0.113,0.017c-0.028,0.011-0.055,0.023-0.085,0.033l-7.954,2.017v-3.984c0-1.25,1.011-1.95,2.26-1.567
				L31.884,12.385L31.884,12.385z"/>
			<path fill-rule="evenodd" clip-rule="evenodd" fill="#F5A21B" d="M20.385,17.795c-0.274,0.076-0.586,0.144-0.936,0.2
				c-1.739,0.278-3.743,0.149-5.073-0.192L7.387,14.99c-0.015-0.018-0.039-0.039-0.076-0.063c-0.852-0.552-0.667-1.258,0.389-1.623
				l7.945-1.372c-0.02,0.137-0.029,0.272-0.031,0.406c-0.013,0.127-0.019,0.254-0.019,0.382c0,2.014,1.637,3.352,3.656,2.987
				c2.019-0.365,3.656-2.294,3.656-4.309c0-0.273-0.03-0.534-0.087-0.779l0.17-0.031c1.119-0.058,1.985,0.743,1.985,1.9v4.135
				l-4.508,1.154C20.44,17.781,20.413,17.787,20.385,17.795z"/>
			<path fill-rule="evenodd" clip-rule="evenodd" fill="#38A1DB" d="M22.496,11.752c-0.002,0.035-0.005,0.07-0.008,0.105
				c-0.002,0.019-0.004,0.037-0.006,0.056c-0.004,0.033-0.008,0.067-0.013,0.1c-0.003,0.018-0.005,0.037-0.008,0.055
				c-0.006,0.037-0.012,0.074-0.019,0.11c-0.003,0.014-0.005,0.027-0.008,0.041c-0.01,0.05-0.021,0.099-0.033,0.148
				c-0.003,0.014-0.007,0.027-0.011,0.041c-0.009,0.036-0.019,0.072-0.029,0.107c-0.005,0.019-0.011,0.038-0.017,0.057
				c-0.009,0.03-0.019,0.06-0.029,0.09c-0.007,0.02-0.013,0.04-0.021,0.06c-0.01,0.029-0.021,0.059-0.032,0.088
				c-0.007,0.019-0.015,0.039-0.022,0.058c-0.014,0.034-0.028,0.068-0.043,0.102c-0.009,0.021-0.018,0.042-0.028,0.063
				c-0.017,0.037-0.034,0.073-0.052,0.11c-0.01,0.021-0.021,0.042-0.032,0.063c-0.012,0.025-0.025,0.049-0.038,0.073
				c-0.012,0.022-0.025,0.045-0.037,0.067c-0.013,0.022-0.025,0.044-0.038,0.066c-0.013,0.023-0.027,0.046-0.041,0.068
				c-0.013,0.02-0.026,0.041-0.039,0.061c-0.015,0.023-0.03,0.047-0.045,0.07c-0.01,0.014-0.02,0.028-0.029,0.042
				c-0.034,0.05-0.07,0.099-0.107,0.148c-0.011,0.015-0.022,0.03-0.034,0.045c-0.02,0.025-0.04,0.05-0.059,0.075
				c-0.012,0.015-0.024,0.029-0.036,0.043c-0.021,0.025-0.042,0.05-0.063,0.074c-0.011,0.013-0.023,0.025-0.034,0.038
				c-0.023,0.026-0.046,0.051-0.07,0.077c-0.006,0.007-0.013,0.013-0.019,0.02c-0.086,0.09-0.176,0.177-0.269,0.259
				c-0.008,0.007-0.015,0.014-0.023,0.02c-0.028,0.025-0.057,0.049-0.087,0.073c-0.009,0.007-0.018,0.015-0.027,0.022
				c-0.03,0.025-0.06,0.049-0.091,0.072c-0.006,0.005-0.012,0.009-0.018,0.014c-0.14,0.106-0.287,0.203-0.439,0.289
				c-0.007,0.004-0.014,0.008-0.022,0.012c-0.035,0.019-0.07,0.038-0.105,0.057c-0.008,0.004-0.016,0.008-0.023,0.012
				c-0.037,0.019-0.073,0.038-0.111,0.055c-0.295,0.14-0.607,0.244-0.931,0.302c-1.796,0.323-3.253-0.859-3.253-2.641
				c0-1.782,1.456-3.488,3.253-3.81c0.2-0.036,0.395-0.052,0.585-0.052L16.33,5.01c-0.028-0.036-0.054-0.072-0.08-0.11
				c-0.375-0.405-0.605-0.946-0.605-1.542c0-1.253,1.016-2.269,2.269-2.269c0.048,0,0.095,0.003,0.143,0.005
				c0.017-0.007,0.034-0.014,0.05-0.021c0.086,0.01,0.173,0.015,0.261,0.015c0.821,0,1.54-0.436,1.938-1.089
				c0.158,1.092,0.148,1.911,0.015,2.504c-0.198,0.602-0.639,1.092-1.209,1.354c-0.008,0.003-0.012,0.009-0.013,0.015
				c-0.7,0.258-1.501,0.399-1.501,0.399s3.057,3.899,4.298,5.496c0.007,0.016,0.017,0.033,0.033,0.054
				c0.004,0.005,0.007,0.009,0.011,0.014c0.008,0.01,0.015,0.02,0.023,0.03c0.019,0.025,0.038,0.05,0.056,0.076
				c0.008,0.011,0.016,0.023,0.024,0.034c0.02,0.029,0.039,0.059,0.058,0.089c0.004,0.007,0.009,0.014,0.013,0.021
				c0.022,0.037,0.044,0.075,0.064,0.113c0.006,0.01,0.011,0.021,0.016,0.031c0.015,0.029,0.03,0.059,0.044,0.089
				c0.006,0.013,0.012,0.026,0.018,0.039c0.014,0.031,0.027,0.062,0.04,0.094c0.004,0.01,0.009,0.02,0.012,0.031
				c0.016,0.042,0.032,0.084,0.046,0.127c0.003,0.01,0.006,0.019,0.009,0.029c0.011,0.034,0.021,0.068,0.031,0.103
				c0.004,0.014,0.008,0.029,0.011,0.043c0.009,0.033,0.017,0.066,0.024,0.1c0.003,0.013,0.006,0.025,0.009,0.038
				c0.01,0.046,0.018,0.092,0.026,0.138c0.001,0.007,0.002,0.014,0.003,0.021c0.006,0.04,0.012,0.081,0.016,0.122
				c0.002,0.015,0.003,0.03,0.005,0.045c0.003,0.035,0.006,0.07,0.008,0.106c0.001,0.015,0.002,0.03,0.003,0.044
				c0.002,0.049,0.004,0.099,0.004,0.149c0,0.051-0.002,0.103-0.004,0.154C22.499,11.719,22.497,11.736,22.496,11.752z"/>
			<path fill-rule="evenodd" clip-rule="evenodd" fill="#5EB7E8" d="M13.485,5.85c-0.475,0.191-1.008,0.175-1.466-0.041
				c-0.006-0.003-0.012-0.003-0.016,0c-0.524-0.298-1.029-0.719-1.029-0.719s-0.814,3.922-1.154,5.52
				c-0.006,0.012-0.012,0.028-0.016,0.049c-0.001,0.005-0.002,0.009-0.003,0.014c-0.002,0.01-0.005,0.02-0.007,0.029
				c-0.005,0.025-0.011,0.05-0.018,0.075c-0.003,0.011-0.005,0.022-0.008,0.032c-0.008,0.028-0.016,0.055-0.025,0.082
				c-0.002,0.006-0.003,0.013-0.006,0.019c-0.011,0.033-0.023,0.066-0.036,0.099c-0.003,0.009-0.007,0.017-0.011,0.026
				c-0.01,0.025-0.021,0.049-0.032,0.074c-0.005,0.011-0.01,0.021-0.015,0.032c-0.012,0.025-0.024,0.049-0.037,0.074
				c-0.004,0.008-0.008,0.016-0.012,0.024c-0.017,0.032-0.035,0.063-0.054,0.094c-0.005,0.007-0.009,0.014-0.013,0.02
				c-0.015,0.025-0.031,0.049-0.048,0.073c-0.007,0.01-0.013,0.02-0.02,0.029c-0.016,0.023-0.032,0.045-0.049,0.067
				c-0.006,0.008-0.012,0.017-0.019,0.025c-0.023,0.03-0.047,0.059-0.072,0.088c-0.003,0.004-0.007,0.008-0.011,0.012
				c-0.022,0.025-0.044,0.05-0.067,0.074c-0.009,0.009-0.017,0.018-0.026,0.026c-0.02,0.02-0.041,0.04-0.061,0.06
				c-0.009,0.008-0.017,0.016-0.026,0.025c-0.029,0.027-0.059,0.054-0.09,0.08c-0.051,0.043-0.103,0.083-0.157,0.122
				c-0.01,0.007-0.021,0.015-0.031,0.023c-0.052,0.037-0.106,0.072-0.161,0.105c-0.01,0.006-0.02,0.012-0.03,0.018
				c-0.054,0.032-0.109,0.062-0.165,0.09c-0.004,0.002-0.008,0.005-0.012,0.007c-0.059,0.029-0.119,0.056-0.18,0.081
				c-0.011,0.005-0.023,0.01-0.035,0.014c-0.061,0.024-0.122,0.047-0.185,0.067c-0.007,0.003-0.015,0.005-0.023,0.007
				c-0.062,0.02-0.124,0.038-0.186,0.053c-0.006,0.002-0.012,0.003-0.017,0.005c-0.066,0.016-0.132,0.03-0.199,0.042
				c-0.01,0.002-0.02,0.004-0.03,0.006c-0.068,0.012-0.136,0.022-0.205,0.029c-0.002,0-0.003,0-0.004,0
				c-0.07,0.008-0.141,0.013-0.211,0.016c-0.005,0-0.01,0.001-0.015,0.001c-0.07,0.003-0.141,0.003-0.211,0.002
				c-0.007,0-0.013,0-0.02,0c-0.145-0.004-0.289-0.016-0.432-0.038c-0.004-0.001-0.007-0.001-0.01-0.002
				c-0.072-0.011-0.143-0.024-0.215-0.04c-0.002-0.001-0.005-0.001-0.007-0.002c-0.144-0.032-0.285-0.074-0.423-0.125
				c-0.003-0.001-0.006-0.002-0.009-0.003c-0.317-0.118-0.615-0.285-0.876-0.501C3.85,10.951,3.822,9.434,4.922,8.505
				c1.101-0.929,2.914-0.919,4.05,0.022C9.098,8.632,9.21,8.745,9.309,8.862l0.546-4.155C9.855,4.7,9.858,4.693,9.859,4.686
				c0.01-0.509,0.23-1.012,0.65-1.367c0.774-0.654,1.932-0.556,2.585,0.218c0.063,0.074,0.118,0.152,0.167,0.232
				c0.008,0.004,0.016,0.008,0.024,0.012c0.021,0.028,0.043,0.055,0.065,0.082c0.435,0.515,1.094,0.731,1.714,0.624
				C14.456,5.182,13.932,5.617,13.485,5.85z"/>
			<path fill-rule="evenodd" clip-rule="evenodd" fill="#FFE893" d="M6.127,14.841l8.058,3.287c0.017,0.009,0.035,0.018,0.055,0.026
				c1.159,0.478,1.354,1.657,0.436,2.634c-0.035,0.037-0.061,0.072-0.08,0.104l-3.644,4.065c-0.721,0.582-1.773,0.765-2.668,0.474
				l-7.478-4.465c-0.005-0.003-0.008-0.007-0.013-0.011c-0.277-0.191-0.499-0.442-0.638-0.742c-0.315-0.679-0.129-1.445,0.411-2.025
				c0.003-0.003,0.004-0.006,0.006-0.009l1.977-2.24c0.031-0.022,0.062-0.05,0.094-0.085C3.477,14.934,4.986,14.509,6.127,14.841z"
				/>
			<path fill-rule="evenodd" clip-rule="evenodd" fill="#FAC03D" d="M11.297,25.13c0.034-0.039,0.067-0.068,0.099-0.089l3.599-4.086
				c0.017-0.032,0.039-0.065,0.07-0.099c0.574-0.623,0.719-1.345,0.496-1.943c0.016,0.013,0.027,0.021,0.031,0.024
				c0.137,0.082,0.264,0.185,0.378,0.302c0.331,0.527,0.532,1.114,0.532,1.67c0,0.067-0.004,0.132-0.01,0.196
				c0.006,0.07,0.01,0.139,0.01,0.207v17.046c0,1.254-1.016,1.491-2.269,0.531c-0.066-0.051-0.121-0.082-0.167-0.097l-7.075-5.48
				c-0.022-0.02-0.045-0.04-0.07-0.059c-1.254-0.968-2.269-2.769-2.269-4.023v-5.548l3.423,2.104
				C9.145,26.265,10.533,26,11.297,25.13z"/>
		</g>
	</g>
</g>
</svg>
