<?xml version="1.0" encoding="utf-8"?>
<!-- Generator: Adobe Illustrator 16.0.0, SVG Export Plug-In . SVG Version: 6.00 Build 0)  -->
<!DOCTYPE svg PUBLIC "-//W3C//DTD SVG 1.1//EN" "http://www.w3.org/Graphics/SVG/1.1/DTD/svg11.dtd">
<svg version="1.1" xmlns="http://www.w3.org/2000/svg" xmlns:xlink="http://www.w3.org/1999/xlink" x="0px" y="0px" width="125px"
	 height="40px" viewBox="0 0 125 40" enable-background="new 0 0 125 40" xml:space="preserve">
<g id="Layer_1">
	<g>
		<g>
			<path fill-rule="evenodd" clip-rule="evenodd" fill="#520F41" d="M16.6,11.7c-0.4,0.9-0.7,1.8-1,2.7c-0.4,1.3-0.3,2.7,0,4.1
				c0.1,0.6,0.2,1.3,0.3,1.9c0,0.2,0,0.4-0.1,0.6c-0.2,0.9-1.1,1.3-1.9,0.9c-0.4-0.2-0.7-0.5-0.9-0.9c-0.4-0.6-0.8-1.2-1.2-1.8
				c-0.5-0.7-1.1-1.4-1.9-1.7c-0.7-0.3-1.4-0.4-2.2-0.2c-1.2,0.3-1.9,1.2-2,2.4c-0.1,1.1,0.1,2.1,0.3,3.2C6,23.3,6.1,23.7,6.1,24
				c0,0.7-0.7,1.2-1.3,0.8c-0.2-0.1-0.5-0.3-0.7-0.5c-0.2-0.2-0.3-0.4-0.4-0.5c-0.6-0.9-1.9-1.3-2.8-0.4c-1.4-3-1.3-8.3,2.8-11.7
				C7.8,8.3,13.4,8.9,16.6,11.7z"/>
			<path fill-rule="evenodd" clip-rule="evenodd" fill="#520F41" d="M19.2,15.1c0.4,0.8,0.7,1.7,0.9,2.6c0.9,5.6-2.6,10.7-8.2,11.8
				c-3.3,0.6-6.2-0.3-8.7-2.5c-0.9-0.8-1.6-1.7-2.1-2.8C1,24,1.1,23.9,1.2,23.7c0.4-0.3,0.8-0.4,1.2-0.1c0.4,0.2,0.7,0.6,0.9,0.9
				c0.3,0.4,0.6,0.8,1.1,1c1.3,0.7,2.8-0.1,3-1.5c0.1-0.8,0-1.5-0.1-2.3c-0.1-0.5-0.1-1-0.1-1.5c0-0.5,0.2-0.9,0.7-1.2
				c0.5-0.2,1-0.2,1.4,0.2c0.5,0.5,1,1.1,1.4,1.7c0.6,0.7,1,1.5,1.6,2.2c1.1,1.2,2.4,1.3,3.9,0.8c1-0.4,1.5-1.2,1.7-2.2
				c0.2-0.9,0.1-1.8,0-2.8c-0.1-0.9-0.1-1.7,0.1-2.5C18.4,15.9,18.7,15.4,19.2,15.1z"/>
			<path fill-rule="evenodd" clip-rule="evenodd" fill="#520F41" d="M38.4,16.2c-0.2,0.4-0.3,0.6-0.4,0.8c-1.3,3.1-2.5,6.2-3.8,9.4
				c-0.3,0.7-0.8,1.1-1.4,1c-0.6-0.1-0.9-0.5-1.1-1c-1.7-4.2-3.3-8.5-5-12.7c-0.1-0.2-0.2-0.4-0.2-0.6c-0.2-0.8,0.1-1.5,0.7-1.7
				c0.7-0.3,1.4,0.1,1.7,0.8c0.6,1.5,1.2,2.9,1.7,4.4c0.7,1.7,1.3,3.4,2,5.1c0.1,0.2,0.2,0.4,0.4,0.7c0.2-0.4,0.3-0.6,0.4-0.8
				c1.2-3.1,2.5-6.1,3.7-9.2c0.3-0.6,0.6-1.1,1.3-1.1c0.7,0,1.1,0.5,1.3,1.1c1.2,3,2.4,6.1,3.7,9.1c0.1,0.2,0.2,0.5,0.4,0.9
				c0.2-0.5,0.4-0.7,0.5-1c1.2-3,2.4-6,3.6-9c0.1-0.3,0.3-0.6,0.5-0.8c0.5-0.4,1-0.4,1.6,0c0.5,0.4,0.7,0.9,0.4,1.6
				c-0.7,1.9-1.5,3.8-2.2,5.6c-1,2.5-2,5.1-3,7.6c-0.2,0.6-0.6,1.1-1.3,1.1s-1.1-0.4-1.3-1c-1.2-3.1-2.5-6.1-3.7-9.2
				C38.7,16.9,38.6,16.6,38.4,16.2z"/>
			<path fill-rule="evenodd" clip-rule="evenodd" fill="#520F41" d="M69.1,22.1c0.1-0.2,0.2-0.5,0.3-0.7c1.2-3,2.5-6.1,3.7-9.1
				c0.3-0.6,0.6-1.1,1.4-1.1c0.7,0,1,0.5,1.3,1.1c1.7,4.3,3.4,8.7,5.1,13c0.4,0.9,0.1,1.6-0.6,1.9c-0.8,0.3-1.4,0-1.8-1
				c-1.2-3.1-2.4-6.2-3.7-9.3c-0.1-0.2-0.2-0.4-0.4-0.8c-0.2,0.4-0.3,0.6-0.4,0.8c-1.2,3-2.5,6.1-3.7,9.1c-0.2,0.6-0.6,1.1-1.3,1.1
				c-0.8,0-1.1-0.5-1.4-1.2c-1.2-3-2.4-6-3.6-9.1c-0.1-0.2-0.2-0.5-0.4-0.9c-0.2,0.4-0.3,0.6-0.4,0.8c-1.2,3.1-2.4,6.2-3.6,9.3
				c-0.3,0.9-1,1.2-1.7,0.9c-0.8-0.3-1-1-0.7-1.9c1.2-3.2,2.5-6.3,3.7-9.5c0.5-1.2,0.9-2.3,1.4-3.5c0.2-0.6,0.6-1.1,1.3-1.1
				c0.7,0,1.1,0.5,1.3,1.1c1.2,3.1,2.5,6.1,3.7,9.2c0.1,0.2,0.2,0.5,0.3,0.7C69,22.2,69.1,22.2,69.1,22.1z"/>
			<path fill-rule="evenodd" clip-rule="evenodd" fill="#520F41" d="M85,24.4c0,0.4-0.1,0.7-0.1,0.9c0,1.5,0,3,0,4.5
				c0,0.9-0.5,1.5-1.2,1.4c-0.8,0-1.2-0.5-1.2-1.4c0-3.9-0.1-7.8,0.1-11.7c0.1-3.6,3.2-6.6,6.8-6.9c3.6-0.3,7,2.2,7.8,5.7
				c0.7,3-0.5,6.1-3.1,7.9c-2.5,1.7-5.8,1.7-8.4,0C85.6,24.7,85.4,24.6,85,24.4z M89.9,23.7c2.7,0,5-2.2,5-4.9c0-2.7-2.3-5.1-5-5
				c-2.7,0-5,2.3-5,4.9C84.9,21.4,87.2,23.6,89.9,23.7z"/>
			<path fill-rule="evenodd" clip-rule="evenodd" fill="#520F41" d="M52.5,20.5c0-1.8,0-3.6,0-5.4c0-0.9,0.5-1.4,1.3-1.4
				c0.7,0,1.1,0.5,1.1,1.3c0,3.7,0,7.4,0.1,11.1c0,0.8-0.5,1.3-1.2,1.3c-0.7,0-1.2-0.5-1.3-1.4C52.5,24.2,52.5,22.3,52.5,20.5
				C52.5,20.5,52.5,20.5,52.5,20.5z"/>
			<path fill-rule="evenodd" clip-rule="evenodd" fill="#520F41" d="M53.7,8.7c0.7,0,1.2,0.5,1.2,1.2s-0.5,1.2-1.2,1.2
				c-0.7,0-1.2-0.5-1.2-1.2C52.5,9.3,53,8.7,53.7,8.7z"/>
		</g>
	</g>
</g>
<g id="Layer_2">
</g>
<g id="Layer_3">
</g>
<g id="Layer_4">
</g>
</svg>
