<?xml version="1.0" encoding="utf-8"?>
<!-- Generator: Adobe Illustrator 19.2.0, SVG Export Plug-In . SVG Version: 6.00 Build 0)  -->
<svg version="1.1" xmlns="http://www.w3.org/2000/svg" xmlns:xlink="http://www.w3.org/1999/xlink" x="0px" y="0px"
	 viewBox="0 0 125 40" enable-background="new 0 0 125 40" xml:space="preserve">
<g id="bg" display="none">
	<rect display="inline" fill="#FFFFFF" width="125" height="40"/>
</g>
<g id="icons">
	<g id="KuCRzq_1_">
		<g>
			<path d="M0.003,20.002c0-2.11-0.009-4.221,0.002-6.331c0.013-2.422,0.57-4.708,1.803-6.804c1.976-3.356,4.879-5.487,8.638-6.469
				c1.381-0.361,2.79-0.462,4.204-0.362c2.172,0.154,4.179,0.846,6.061,1.942c4.285,2.494,8.586,4.961,12.875,7.448
				c1.172,0.679,2.378,1.317,3.474,2.106c2.186,1.573,3.524,3.738,4.031,6.385c0.616,3.219-0.088,6.142-2.104,8.731
				c-0.812,1.043-1.816,1.877-2.959,2.537c-5.221,3.017-10.441,6.035-15.669,9.039c-1.703,0.979-3.54,1.551-5.505,1.724
				C8.168,40.534,1.985,36.121,0.389,29.605c-0.258-1.055-0.38-2.131-0.384-3.217C-0.002,24.259,0.003,22.131,0.003,20.002z
				 M28.45,22.198c-0.052-0.111-0.088-0.182-0.117-0.255c-0.713-1.741-1.422-3.485-2.141-5.224c-0.26-0.63-0.935-0.902-1.539-0.642
				c-0.625,0.269-0.859,0.936-0.576,1.63c1.012,2.477,2.025,4.953,3.03,7.433c0.043,0.105,0.043,0.257,0.001,0.363
				c-0.368,0.938-0.748,1.871-1.128,2.803c-0.142,0.347-0.162,0.691,0.01,1.028c0.222,0.434,0.591,0.666,1.075,0.652
				c0.493-0.014,0.86-0.262,1.051-0.727c0.418-1.022,0.829-2.047,1.242-3.071c1.154-2.858,2.311-5.715,3.452-8.578
				c0.084-0.21,0.106-0.474,0.068-0.697c-0.089-0.515-0.505-0.877-0.974-0.916c-0.619-0.052-1.045,0.216-1.284,0.809
				C29.901,18.594,29.182,20.381,28.45,22.198z M8.366,16.156c0-0.404-0.013-0.779,0.003-1.151c0.03-0.696,0.467-1.105,1.161-1.114
				c0.418-0.005,0.839,0.014,1.251-0.035c0.576-0.07,0.966-0.64,0.92-1.27c-0.041-0.557-0.539-1.021-1.102-1.024
				c-0.418-0.003-0.837-0.001-1.255,0c-1.76,0.001-3.305,1.531-3.308,3.293c-0.005,3.16-0.002,6.319-0.001,9.479
				c0,0.776,0.741,1.319,1.491,1.097c0.536-0.158,0.839-0.594,0.839-1.214c0.001-1.807,0-3.613,0-5.42c0-0.093,0-0.186,0-0.291
				c0.748,0,1.459,0,2.17,0c0.772,0,1.294-0.469,1.304-1.17c0.01-0.678-0.559-1.219-1.284-1.186
				C9.837,16.182,9.116,16.156,8.366,16.156z M19.806,18.462c-1.158,1.694-2.282,3.341-3.41,4.986
				c-0.267,0.39-0.325,0.797-0.12,1.229c0.213,0.447,0.595,0.66,1.068,0.664c1.602,0.013,3.205,0.018,4.807-0.001
				c0.707-0.008,1.216-0.553,1.193-1.204C23.321,23.473,22.8,23.001,22.091,23c-0.757,0-1.513,0-2.27-0.001
				c-0.082,0-0.165-0.008-0.27-0.014c0.134-0.197,0.247-0.365,0.362-0.533c1.007-1.471,2.014-2.942,3.022-4.413
				c0.197-0.288,0.308-0.598,0.228-0.952c-0.141-0.627-0.576-0.956-1.282-0.957c-1.442-0.003-2.884-0.003-4.326,0.002
				c-0.158,0-0.322,0.014-0.472,0.058c-0.545,0.161-0.903,0.71-0.827,1.243c0.087,0.613,0.552,1.026,1.162,1.027
				C18.196,18.463,18.976,18.462,19.806,18.462z M12.825,20.7c0,1.175,0,2.349,0,3.524c0,0.697,0.468,1.201,1.085,1.242
				c0.637,0.042,1.252-0.428,1.254-1.211c0.007-2.358,0.007-4.716,0-7.074c-0.002-0.708-0.54-1.243-1.198-1.225
				c-0.652,0.018-1.141,0.551-1.141,1.248C12.824,18.369,12.825,19.534,12.825,20.7z M12.663,12.717
				c-0.003,0.758,0.572,1.347,1.318,1.351c0.742,0.004,1.343-0.591,1.345-1.333c0.002-0.736-0.581-1.327-1.312-1.331
				C13.251,11.401,12.666,11.969,12.663,12.717z"/>
			<path fill="#FDFDFD" d="M28.45,22.198c0.732-1.817,1.451-3.604,2.171-5.39c0.239-0.593,0.665-0.861,1.284-0.809
				c0.468,0.039,0.884,0.401,0.974,0.916c0.039,0.223,0.016,0.487-0.068,0.697c-1.142,2.863-2.299,5.72-3.452,8.578
				c-0.413,1.024-0.824,2.049-1.242,3.071c-0.191,0.465-0.558,0.713-1.051,0.727c-0.484,0.014-0.853-0.218-1.075-0.652
				c-0.172-0.336-0.152-0.681-0.01-1.028c0.381-0.932,0.761-1.866,1.128-2.803c0.042-0.106,0.042-0.258-0.001-0.363
				c-1.005-2.48-2.018-4.956-3.03-7.433c-0.284-0.694-0.049-1.362,0.576-1.63c0.604-0.26,1.278,0.012,1.539,0.642
				c0.719,1.739,1.428,3.482,2.141,5.224C28.362,22.016,28.398,22.087,28.45,22.198z"/>
			<path fill="#FCFCFC" d="M8.366,16.156c0.75,0,1.471,0.025,2.189-0.007c0.724-0.033,1.293,0.508,1.284,1.186
				c-0.01,0.701-0.532,1.169-1.304,1.17c-0.711,0-1.422,0-2.17,0c0,0.105,0,0.198,0,0.291c0,1.807,0.001,3.613,0,5.42
				c0,0.62-0.304,1.056-0.839,1.214c-0.75,0.221-1.491-0.322-1.491-1.097c-0.001-3.16-0.004-6.319,0.001-9.479
				c0.003-1.762,1.548-3.292,3.308-3.293c0.418,0,0.837-0.002,1.255,0c0.563,0.003,1.061,0.468,1.102,1.024
				c0.047,0.63-0.343,1.201-0.92,1.27c-0.413,0.05-0.834,0.03-1.251,0.035c-0.694,0.009-1.131,0.417-1.161,1.114
				C8.353,15.378,8.366,15.752,8.366,16.156z"/>
			<path fill="#FCFCFC" d="M19.806,18.462c-0.83,0-1.61,0.001-2.39,0c-0.61-0.001-1.074-0.414-1.162-1.027
				c-0.076-0.534,0.282-1.083,0.827-1.243c0.15-0.044,0.314-0.058,0.472-0.058c1.442-0.004,2.884-0.005,4.326-0.002
				c0.706,0.002,1.141,0.331,1.282,0.957c0.08,0.354-0.031,0.664-0.228,0.952c-1.007,1.471-2.014,2.942-3.022,4.413
				c-0.115,0.167-0.228,0.336-0.362,0.533C19.656,22.992,19.739,23,19.821,23c0.757,0.001,1.513,0,2.27,0.001
				c0.709,0,1.23,0.472,1.253,1.135c0.023,0.65-0.486,1.195-1.193,1.204c-1.602,0.019-3.205,0.014-4.807,0.001
				c-0.473-0.004-0.855-0.216-1.068-0.664c-0.205-0.431-0.147-0.838,0.12-1.229C17.524,21.802,18.648,20.155,19.806,18.462z"/>
			<path fill="#FCFCFC" d="M12.825,20.7c0-1.166-0.001-2.331,0-3.497c0-0.697,0.489-1.23,1.141-1.248
				c0.657-0.018,1.196,0.517,1.198,1.225c0.007,2.358,0.007,4.716,0,7.074c-0.002,0.783-0.617,1.253-1.254,1.211
				c-0.616-0.041-1.084-0.545-1.085-1.242C12.825,23.049,12.825,21.874,12.825,20.7z"/>
			<path fill="#FACF01" d="M12.663,12.717c0.003-0.748,0.588-1.316,1.352-1.312c0.731,0.004,1.314,0.595,1.312,1.331
				c-0.002,0.741-0.603,1.337-1.345,1.333C13.235,14.064,12.661,13.475,12.663,12.717z"/>
		</g>
	</g>
</g>
</svg>
