<?xml version="1.0" encoding="utf-8"?>
<!-- Generator: Adobe Illustrator 21.0.2, SVG Export Plug-In . SVG Version: 6.00 Build 0)  -->
<svg version="1.1" xmlns="http://www.w3.org/2000/svg" xmlns:xlink="http://www.w3.org/1999/xlink" x="0px" y="0px"
	 viewBox="0 0 125 40" enable-background="new 0 0 125 40" xml:space="preserve">
<g id="bg" display="none">
	<rect display="inline" fill="#FFFFFF" width="125" height="40"/>
</g>
<g id="icons">
	<g id="Bro2nH.tif">
		<g>
			<path fill="#C10631" d="M20.88,13.675c0-0.235,0-0.405,0-0.575c0-4.188,0-8.376,0-12.564c0-0.527,0.001-0.528,0.529-0.528
				c2.221,0,4.442,0.007,6.663-0.008c0.367-0.002,0.479,0.098,0.479,0.474c-0.01,11.172-0.01,22.345,0.001,33.517
				c0,0.419-0.201,0.543-0.53,0.718c-1.209,0.646-2.397,1.332-3.577,2.031c-1.386,0.821-2.764,1.65-4.279,2.226
				c-1.256,0.477-2.546,0.827-3.88,0.924c-1.237,0.089-2.492,0.166-3.721,0.054c-1.838-0.167-3.606-0.662-5.264-1.536
				C4.824,37.104,2.98,35.2,1.666,32.744c-0.692-1.294-1.168-2.664-1.429-4.097c-0.277-1.516-0.313-3.042-0.098-4.585
				c0.353-2.529,1.289-4.799,2.828-6.823c1.283-1.688,2.898-2.974,4.82-3.871c1.698-0.793,3.48-1.225,5.357-1.316
				c1.275-0.062,2.54-0.045,3.79,0.203c1.193,0.237,2.341,0.622,3.42,1.196C20.502,13.531,20.663,13.584,20.88,13.675z
				 M7.757,26.143c-0.08,0.932,0.178,1.919,0.595,2.868c0.478,1.086,1.192,1.997,2.189,2.646c1.874,1.219,3.907,1.426,6.013,0.767
				c2.256-0.706,3.58-2.32,4.167-4.563c0.312-1.194,0.313-2.403,0.022-3.608c-0.387-1.6-1.175-2.941-2.559-3.872
				c-1.8-1.21-3.777-1.38-5.83-0.865c-1.109,0.278-2.08,0.863-2.842,1.714C8.3,22.586,7.692,24.188,7.757,26.143z"/>
			<path fill="#C10631" d="M36.638,9.862c1.436,0,2.799,0.003,4.162-0.002c0.317-0.001,0.281,0.208,0.281,0.41
				c-0.001,1.672-0.001,3.344,0,5.016c0,0.574,0.001,0.575,0.581,0.575c6.514,0,13.029,0.003,19.543-0.007
				c0.393-0.001,0.512,0.136,0.505,0.516c-0.019,1.03-0.006,2.06-0.007,3.09c0,0.48-0.047,0.525-0.528,0.525
				c-6.488,0-12.975,0-19.463,0c-0.631,0-0.632,0-0.631,0.638c0.005,3.264-0.041,6.529,0.036,9.791
				c0.042,1.755,0.88,2.844,2.847,3.119c0.894,0.125,1.807,0.161,2.712,0.163c5.03,0.015,10.059,0.012,15.089-0.002
				c0.415-0.001,0.519,0.118,0.507,0.52c-0.03,1.016-0.019,2.033-0.005,3.05c0.005,0.359-0.112,0.483-0.487,0.483
				c-5.966-0.011-11.932,0.025-17.898-0.028c-1.802-0.016-3.595-0.303-5.106-1.447c-0.893-0.676-1.43-1.597-1.758-2.653
				c-0.34-1.097-0.382-2.227-0.382-3.363c0.001-6.581,0.001-13.163,0.001-19.744C36.638,10.312,36.638,10.114,36.638,9.862z"/>
			<path fill="#C10631" d="M118.16,10.972c0.642,0,1.285,0.011,1.926-0.005c0.285-0.007,0.407,0.07,0.411,0.378
				c0.031,2.41-0.107,4.807-0.552,7.177c-0.229,1.217-0.453,2.442-0.8,3.628c-0.888,3.037-2.263,5.825-4.404,8.198
				c-1.804,1.999-3.947,3.523-6.375,4.672c-1.459,0.691-2.952,1.286-4.518,1.678c-1.305,0.326-2.62,0.611-3.927,0.928
				c-0.35,0.085-0.418-0.067-0.417-0.367c0.007-1.137,0.012-2.274-0.004-3.411c-0.004-0.299,0.148-0.396,0.39-0.461
				c1.21-0.325,2.435-0.603,3.624-0.993c2.505-0.821,4.796-2.033,6.759-3.834c2.051-1.881,3.382-4.203,4.232-6.813
				c0.713-2.191,1.091-4.455,1.21-6.756c0.064-1.239,0.095-2.48,0.129-3.72c0.006-0.226,0.085-0.306,0.308-0.303
				C116.822,10.978,117.491,10.972,118.16,10.972z"/>
			<path fill="#C10631" d="M71.446,37.707c-0.024-0.179-0.055-0.307-0.055-0.435c-0.004-1.03,0.005-2.061-0.007-3.091
				c-0.003-0.307,0.094-0.43,0.416-0.5c2.813-0.61,5.49-1.558,7.812-3.321c1.778-1.35,3.113-3.058,4.023-5.098
				c0.844-1.893,1.33-3.881,1.546-5.933c0.126-1.193,0.181-2.394,0.265-3.592c0.024-0.344,0.038-0.689,0.057-1.056
				c0.129-0.012,0.232-0.03,0.336-0.031c1.191-0.002,2.382,0.007,3.572-0.007c0.303-0.004,0.389,0.098,0.385,0.393
				c-0.033,2.491-0.25,4.964-0.812,7.394c-0.643,2.777-1.686,5.385-3.405,7.691c-1.71,2.293-3.891,4.006-6.449,5.252
				c-1.999,0.974-4.101,1.637-6.284,2.053C72.402,37.512,71.958,37.605,71.446,37.707z"/>
			<path fill="#C10631" d="M103.12,11.153c0.248,0,0.458,0,0.669,0c1.07,0,2.14,0.026,3.209-0.013
				c0.418-0.015,0.58,0.165,0.669,0.51c0.489,1.895,1.012,3.782,1.453,5.689c0.282,1.22,0.436,2.469,0.659,3.703
				c0.061,0.338-0.044,0.452-0.392,0.446c-1.15-0.017-2.3-0.022-3.449,0.003c-0.375,0.008-0.531-0.127-0.586-0.478
				c-0.129-0.816-0.249-1.634-0.419-2.441c-0.256-1.213-0.531-2.422-0.836-3.623c-0.301-1.187-0.649-2.363-0.973-3.544
				C103.108,11.355,103.12,11.3,103.12,11.153z"/>
			<path fill="#C10631" d="M98.017,21.481c-0.589,0-1.178-0.014-1.765,0.006c-0.282,0.01-0.404-0.085-0.454-0.365
				c-0.213-1.208-0.414-2.419-0.675-3.618c-0.255-1.171-0.573-2.329-0.872-3.49c-0.212-0.825-0.427-1.65-0.662-2.469
				c-0.082-0.287-0.017-0.396,0.282-0.395c1.231,0.005,2.461,0.007,3.692,0c0.279-0.002,0.422,0.137,0.484,0.382
				c0.55,2.184,1.12,4.364,1.636,6.557c0.235,0.998,0.359,2.022,0.54,3.033c0.049,0.272-0.064,0.362-0.32,0.36
				C99.274,21.476,98.646,21.48,98.017,21.481z"/>
			<path fill="#C10631" d="M74.467,14.875c0.169-0.016,0.311-0.041,0.452-0.042c1.056-0.003,2.112,0.007,3.168-0.008
				c0.254-0.004,0.393,0.065,0.461,0.316c0.209,0.77,0.448,1.532,0.644,2.305c0.239,0.942,0.456,1.891,0.664,2.841
				c0.168,0.768,0.307,1.543,0.458,2.315c0.065,0.336,0.127,0.673,0.192,1.019c-0.098,0.033-0.145,0.064-0.193,0.064
				c-1.203,0.003-2.406-0.002-3.609,0.008c-0.286,0.002-0.368-0.167-0.412-0.392c-0.271-1.401-0.515-2.808-0.817-4.202
				C75.174,17.708,74.816,16.328,74.467,14.875z"/>
			<path fill="#C10631" d="M66.089,14.831c0.612,0,1.183,0,1.755,0c0.642,0,1.283,0.005,1.925-0.002
				c0.206-0.002,0.337,0.022,0.401,0.269c0.284,1.082,0.616,2.151,0.888,3.235c0.311,1.24,0.579,2.49,0.86,3.737
				c0.093,0.415,0.164,0.836,0.249,1.253c0.05,0.246-0.006,0.373-0.296,0.371c-1.136-0.011-2.272-0.011-3.409-0.001
				c-0.287,0.002-0.337-0.147-0.387-0.389c-0.366-1.762-0.727-3.525-1.137-5.277c-0.233-0.996-0.553-1.972-0.832-2.958
				C66.092,15.02,66.098,14.966,66.089,14.831z"/>
		</g>
	</g>
</g>
</svg>
