<?xml version="1.0" encoding="utf-8"?>
<!-- Generator: Adobe Illustrator 25.4.0, SVG Export Plug-In . SVG Version: 6.00 Build 0)  -->
<svg version="1.1" id="Layer_2" xmlns="http://www.w3.org/2000/svg" xmlns:xlink="http://www.w3.org/1999/xlink" x="0px" y="0px"
	 viewBox="0 0 125 40" style="enable-background:new 0 0 125 40;" xml:space="preserve">
<style type="text/css">
	.st0{fill:none;}
	.st1{fill:#B32628;}
	.st2{fill:#FFFFFF;}
	.st3{fill:#081A15;}
	.st4{fill:#707173;}
</style>
<rect class="st0" width="125" height="40"/>
<g>
	<g>
		<path class="st1" d="M7.67627,13.14822c-2.05147,0-3.89105,0.90277-5.14676,2.33131H0l1.24783,2.14538
			C0.97431,18.36494,0.82449,19.16492,0.82449,20c0,3.78414,3.06764,6.85178,6.85178,6.85178S14.52805,23.78414,14.52805,20
			S11.46041,13.14822,7.67627,13.14822z"/>
		<path class="st2" d="M8.95565,16.04814v5.33075c0,0.69872-0.56643,1.26515-1.26516,1.26515H7.69048
			c-0.69873,0-1.26516-0.56643-1.26516-1.26515v-5.33075h-2.4166v5.3876c0,1.82926,1.48291,3.31217,3.31217,3.31217h0.73919
			c1.82926,0,3.31217-1.48291,3.31217-3.31217v-5.3876H8.95565z"/>
		<path class="st3" d="M22.03374,13.65997v3.59908c-0.62283-0.71578-1.53334-1.15405-2.74356-1.15405
			c-2.08049,0-3.76706,1.93478-3.76706,4.32146s1.68657,4.32146,3.76706,4.32146c1.21627,0,2.124-0.43273,2.74356-1.14077v0.82803
			h2.38816V13.65997H22.03374z M19.98673,22.53032c-1.17764,0-2.1323-0.95466-2.1323-2.1323c0-1.17764,0.95466-2.1323,2.1323-2.1323
			c1.17763,0,2.13229,0.95467,2.13229,2.1323C22.11903,21.57567,21.16436,22.53032,19.98673,22.53032z"/>
		<rect x="25.5307" y="16.38931" class="st3" width="2.35974" height="8.04587"/>
		<circle class="st3" cx="26.6395" cy="14.41125" r="1.25095"/>
		<rect x="103.57806" y="16.38931" class="st4" width="2.35974" height="8.04587"/>
		<circle class="st4" cx="104.68686" cy="14.41125" r="1.25095"/>
		<path class="st3" d="M32.83737,18.6069h2.27445c0,0-0.13505-2.53743-3.16291-2.53743c-1.40732,0-3.09183,0.78895-3.09183,2.70802
			c0,2.27445,4.13665,1.90485,4.13665,3.41167c0,0.24166-0.27009,0.69655-0.89557,0.69655
			c-0.62547,0-0.98085-0.44067-0.98085-0.79606h-2.37396c0,0.62547,0.85292,2.6014,3.21266,2.6014
			c1.83377,0,3.39746-1.06615,3.39746-2.75777c0-2.6014-4.12955-2.19627-4.12955-3.39035c0-0.38381,0.33406-0.63258,0.86003-0.63258
			S32.83737,18.39367,32.83737,18.6069z"/>
		<path class="st4" d="M100.53362,18.6069h2.27445c0,0-0.13505-2.53743-3.16291-2.53743c-1.40731,0-3.09183,0.78895-3.09183,2.70802
			c0,2.27445,4.13666,2.14467,4.13666,3.41167c0,0.24166-0.2701,0.69655-0.89557,0.69655s-0.98086-0.44067-0.98086-0.79606h-2.37395
			c0,0.62547,0.85292,2.6014,3.21266,2.6014c1.83378,0,3.39746-1.06615,3.39746-2.75777c0-2.6014-4.12955-2.43982-4.12955-3.39035
			c0-0.38381,0.33406-0.63258,0.86002-0.63258C100.30618,17.91035,100.53362,18.39367,100.53362,18.6069z"/>
		<path class="st3" d="M49.3307,16.09079c-2.40238,0-4.34989,1.92842-4.34989,4.30724s1.94751,4.30724,4.34989,4.30724
			c2.40237,0,4.34988-1.92842,4.34988-4.30724S51.73307,16.09079,49.3307,16.09079z M49.36978,22.53032
			c-1.12072,0-2.02924-0.96421-2.02924-2.15362c0-1.18941,0.90852-2.15362,2.02924-2.15362
			c1.12072,0,2.02924,0.96421,2.02924,2.15362C51.39902,21.56612,50.4905,22.53032,49.36978,22.53032z"/>
		<path class="st3" d="M41.9712,21.42153c-0.34645,0.66103-1.01057,1.10879-1.77385,1.10879
			c-1.12072,0-2.02924-0.96421-2.02924-2.15362c0-1.18941,0.90852-2.15362,2.02924-2.15362
			c0.79543,0,1.48204,0.48688,1.81473,1.19408h2.3814c-0.44852-1.90599-2.17378-3.32638-4.23522-3.32638
			c-2.40238,0-4.34989,1.92842-4.34989,4.30724s1.94751,4.30724,4.34989,4.30724c2.04607,0,3.76125-1.39919,4.22528-3.28374H41.9712
			z"/>
		<path class="st4" d="M112.83453,21.42153c-0.34645,0.66103-1.01057,1.10879-1.77385,1.10879
			c-1.12072,0-2.02924-0.96421-2.02924-2.15362c0-1.18941,0.90852-2.15362,2.02924-2.15362
			c0.79543,0,1.48204,0.48688,1.81473,1.19408h2.3814c-0.44852-1.90599-2.17378-3.32638-4.23521-3.32638
			c-2.40238,0-4.34989,1.92842-4.34989,4.30724s1.94751,4.30724,4.34989,4.30724c2.04607,0,3.76125-1.39919,4.22527-3.28374
			H112.83453z"/>
		<polygon class="st3" points="53.36428,16.38931 56.26421,24.43518 58.56709,24.43518 61.49545,16.38931 58.99355,16.38931 
			57.42986,21.59212 55.75246,16.38931 		"/>
		<path class="st3" d="M68.70972,21.05904h0.69604c0.03302-0.21549,0.05026-0.43623,0.05026-0.66101
			c0-2.37882-1.91808-4.30724-4.28414-4.30724c-2.36606,0-4.28414,1.92842-4.28414,4.30724s1.91808,4.30724,4.28414,4.30724
			c1.83602,0,3.40165-1.16152,4.01125-2.7933H66.7896c-0.38357,0.49552-0.94807,0.81027-1.57922,0.81027
			c-0.94363,0-1.74074-0.70074-2.00145-1.66319h4.00289H68.70972z M65.21038,18.03118c0.89381,0,1.65457,0.62963,1.95419,1.51393
			h-3.90839C63.5558,18.66081,64.31656,18.03118,65.21038,18.03118z"/>
		<path class="st3" d="M72.27065,17.3062v-0.91688h-2.15362v8.04586h2.40949v-4.74081c0-0.91689,0.95953-1.23673,1.89774-1.23673
			v-2.36685C73.49497,16.09079,72.73162,16.72157,72.27065,17.3062z"/>
		<path class="st4" d="M75.17057,16.38931v8.04586h2.35974v-4.79767c0-0.73406,0.59508-1.32913,1.32913-1.32913h0.00001
			c0.73405,0,1.32912,0.59507,1.32912,1.32913v4.79767h2.35975v-4.79767c0-0.73406,0.59507-1.32913,1.32912-1.32913h0.05687
			c0.73405,0,1.32912,0.59507,1.32912,1.32913v4.79767h2.35975v-5.20991c0-1.3007-0.81027-3.13448-2.94257-3.13448
			c-1.66319,0-2.64404,1.49261-2.64404,1.49261s-0.5544-1.49261-2.4095-1.49261c-1.27938,0-2.17494,1.15144-2.17494,1.15144
			v-0.85292L75.17057,16.38931z"/>
		<path class="st4" d="M95.95336,16.33245h-2.44504v4.83321c0,0.75368-0.61098,1.36467-1.36466,1.36467h-0.00001
			c-0.75368,0-1.36466-0.61098-1.36466-1.36467v-4.83321h-2.44503v5.23124c0,0.79606,0.48331,3.14158,2.92835,3.14158
			c1.93328,0,2.35974-1.17987,2.35974-1.17987v0.90978h2.33131V16.33245z"/>
	</g>
	<polygon class="st1" points="122.51592,22.04317 125,20.11616 124.28123,19.39523 124.88969,18.12086 123.61923,18.61065 
		123.07984,17.77704 121.90298,19.10101 121.68231,18.9539 122.45404,16.17036 121.34026,16.85751 120.50545,14.99255 
		119.67064,16.85751 118.55686,16.17036 119.32859,18.9539 119.10793,19.10101 117.93106,17.77704 117.39167,18.61065 
		116.12119,18.12086 116.72968,19.39523 116.0109,20.11616 118.49498,22.04317 117.85751,22.92581 120.33382,22.43545 
		120.08865,24.69105 120.92226,24.69105 120.67707,22.43545 123.1534,22.92581 	"/>
</g>
</svg>
