<?xml version="1.0" encoding="utf-8"?>
<!-- Generator: Adobe Illustrator 20.1.0, SVG Export Plug-In . SVG Version: 6.00 Build 0)  -->
<svg version="1.1" id="logos" xmlns="http://www.w3.org/2000/svg" xmlns:xlink="http://www.w3.org/1999/xlink" x="0px" y="0px"
	 viewBox="0 0 125 40" enable-background="new 0 0 125 40" xml:space="preserve">
<g>
	<g>
		<g>
			<path fill="#1A1A1A" d="M61.987,20.02c0-10.716-8.687-19.403-19.403-19.403S23.181,9.304,23.181,20.02
				s8.687,19.403,19.403,19.403c4.136,0,7.969-1.295,11.117-3.5l5.766,1.126l-1.041-5.823C60.668,28.061,61.987,24.195,61.987,20.02
				z M42.584,30.044c-5.536,0-10.024-4.488-10.024-10.024c0-5.536,4.488-10.024,10.024-10.024c5.536,0,10.024,4.488,10.024,10.024
				C52.608,25.556,48.12,30.044,42.584,30.044z"/>
			<circle fill="#1A1A1A" cx="42.584" cy="20.02" r="2.755"/>
		</g>
		<path fill="#1A1A1A" d="M9.223,1.626v25.472c0,0.975-0.79,1.765-1.765,1.765H0v9.223h9.692c4.835,0,8.755-3.92,8.755-8.755V1.626
			H9.223z"/>
		<path fill="#1A1A1A" d="M73.646,0.577c-4.655,0-8.923,1.668-12.251,4.444c2.017,2.527,3.535,5.491,4.4,8.733
			c1.826-2.36,4.658-3.878,7.841-3.878c5.508,0,9.974,4.541,9.974,10.142S79.144,30.16,73.635,30.16
			c-3.178,0-6.007-1.514-7.834-3.869c-0.859,3.234-2.367,6.192-4.373,8.716c3.323,2.759,7.578,4.416,12.217,4.416
			c10.628,0,19.243-8.696,19.243-19.423S84.273,0.577,73.646,0.577z"/>
		<polygon fill="#1A1A1A" points="90.526,1.818 102.296,20 90.526,38.134 101.575,38.134 107.772,28.479 113.969,38.134 125,38.134 
			113.296,20.02 125,1.818 114.017,1.818 107.763,11.281 101.431,1.818 		"/>
	</g>
	<rect x="0" y="0" fill="none" width="125" height="40"/>
</g>
</svg>
