<?xml version="1.0" encoding="utf-8"?>
<!-- Generator: Adobe Illustrator 19.2.1, SVG Export Plug-In . SVG Version: 6.00 Build 0)  -->
<svg version="1.1" id="logos" xmlns="http://www.w3.org/2000/svg" xmlns:xlink="http://www.w3.org/1999/xlink" x="0px" y="0px"
	 viewBox="0 0 125 40" enable-background="new 0 0 125 40" xml:space="preserve">
<g>
	<path d="M68.145,28.243c-0.631,0.573-2.15,2.264-2.637,2.637c-0.487,0.373-1.061,0.086-0.659-1.061
		c0.401-1.147,2.924-6.22,3.296-7.223c0.373-1.003-0.086-2.092-0.975-2.035c-0.889,0.057-2.666,1.003-4.271,0.946
		c-0.138-0.005-0.275-0.017-0.41-0.033c0.704-1.233,1.245-2.268,1.356-3.063c0.172-1.232-0.659-2.15-2.236-1.806
		c-1.576,0.344-3.64,1.892-3.64,4.672c0,1.1,0.617,1.742,1.483,2.107c-0.157,0.209-0.309,0.407-0.451,0.587
		c-1.49,1.892-4.901,5.331-7.682,7.166c-1.548,1.032-1.834-0.201-1.232-1.49c0.5-1.072,2.779-5.148,3.849-7.122
		c0.799,0.01,1.46,0.018,1.829,0.018c1.137,0,1.578-0.892,1.578-1.372c0-0.48-0.48-0.709-1.464-0.709c-0.172,0-0.499,0-0.918,0
		c0.402-0.905,0.77-1.873,0.829-2.423c0.086-0.803-1.404-2.465-1.834-2.838c-0.43-0.373-0.831-0.029-1.548,1.146
		c-0.455,0.746-1.544,2.575-2.528,4.114c-0.591,0-0.976,0-0.976,0c-2.401,0-2.927,1.99-1.166,1.99c0.215,0,0.479,0.001,0.777,0.004
		c-0.031,0.04-0.062,0.077-0.091,0.112c-0.975,1.175-4.672,5.446-7.538,8.169c-0.774,0.688-1.318,0.057-0.86-1.175
		c0.459-1.232,2.723-5.761,3.812-8.083c1.089-2.322,2.723-5.389,2.78-6.105c0.057-0.717-0.745-2.236-1.863-3.182
		c-0.459-0.373-1.061-0.172-1.863,1.261c-0.803,1.433-1.634,3.716-3.812,6.888s-5.589,7.873-8.656,10.538
		c-0.659,0.545-1.045,0.18-0.659-1.032c0.602-1.892,2.408-5.761,2.436-6.392c0.029-0.631-0.917-2.159-1.92-3.115
		c-0.516-0.411-1.175,0.564-2.752,1.366c-0.941,0.479-2.138,1.03-4.182,1.396c0.134-0.331,0.262-0.654,0.384-0.966
		c1.505-3.869,3.268-7.481,4.643-9.502s3.167-2.766,4.084-2.852c0.917-0.086,1.118-0.229,1.118-0.545
		c0-0.345-0.602-0.659-1.691-0.659c-1.089,0-4.199,0.358-8.112,5.432c-1.816,2.355-3.705,5.895-5.33,9.498
		c-0.188,0.002-0.379,0.004-0.575,0.004c-4.156,0-8.198-1.935-8.198-7.653c0-5.116,4.901-11.178,15.048-11.178
		c7.825,0,18.229,3.74,24.464,5.976s10.018,3.998,11.823,3.998c1.806,0,3.44-0.989,4.256-3.053c0.817-2.064,0.774-3.44,0.129-3.483
		c-0.944-0.063-0.516,1.061-3.382,1.061c-6.621,0-20.322-7.596-36.201-7.596c-14.331,0-18.631,8.828-18.631,13.93
		s3.726,9.917,10.376,9.917c0.017,0,0.033,0,0.05,0c-1.484,3.507-2.658,6.884-3.203,9.086c0,0-1.462-3.998-7.223-3.998
		C3.225,30.521,0,32.37,0,34.52c0,2.15,2.881,4.686,7.653,4.686c3.74,0,7.481-1.763,9.76-4.729c1.743-2.269,3.636-6.021,5.104-9.392
		c2.472-0.42,3.854-1.174,5.358-2.001c0,0-2.723,5.976-3.497,8.126s-0.731,4.557,1.419,4.557s5.202-2.021,10.705-9.33
		c0,0-1.935,3.654-2.494,5.417c-0.559,1.763-0.038,3.912,2.002,3.912s5.264-2.064,10.896-9.459c0,0-3.311,5.632-2.666,7.567
		c0.645,1.677,2.666,2.365,5.374,0.903c2.69-1.452,8.729-6.551,11.549-11.001c0.675,0.065,1.364,0.056,1.965,0.023
		c0.745,0,0.774,0.373,0.086,1.089s-4.987,5.446-5.016,8.198c-0.029,2.752,2.543,2.728,3.812,2.293
		c1.003-0.344,4.701-2.551,7.309-6.306C69.722,28.529,68.776,27.67,68.145,28.243z M60.005,19.673
		c0.172-0.975,1.318-2.035,2.178-1.691c0.508,0.203-0.175,1.598-1.127,3.096C60.353,20.74,59.906,20.235,60.005,19.673z"/>
	<path d="M31.285,16.061c-0.946,2.064-0.086,3.927,1.605,4.013c1.691,0.086,3.124-1.376,3.611-2.838
		c0.487-1.462-0.115-2.924-0.917-3.268C34.101,13.333,32.231,13.997,31.285,16.061z"/>
</g>
<rect fill="none" width="125" height="40"/>
</svg>
