<?xml version="1.0" encoding="utf-8"?>
<!-- Generator: Adobe Illustrator 19.2.0, SVG Export Plug-In . SVG Version: 6.00 Build 0)  -->
<svg version="1.1" xmlns="http://www.w3.org/2000/svg" xmlns:xlink="http://www.w3.org/1999/xlink" x="0px" y="0px"
	 viewBox="0 0 125 40" enable-background="new 0 0 125 40" xml:space="preserve">
<g id="bg" display="none">
	<rect display="inline" fill="#FFFFFF" width="125" height="40"/>
</g>
<g id="icons">
	<g>
		<g>
			<path fill="#757575" d="M0,18.12c0-3.562,3.034-6.464,6.596-6.464c1.979,0,3.364,0.792,4.42,1.781L9.762,14.69
				c-0.792-0.726-1.781-1.253-3.166-1.253c-2.639,0-4.683,2.111-4.683,4.749c0,2.638,2.045,4.749,4.683,4.749
				c1.715,0,2.639-0.66,3.298-1.319c0.528-0.528,0.858-1.253,0.989-2.243H6.662v-1.781h5.937c0.066,0.33,0.066,0.726,0.066,1.121
				c0,1.319-0.396,2.968-1.517,4.156c-1.121,1.187-2.573,1.847-4.552,1.847C2.968,24.65,0,21.748,0,18.12z M17.48,16.273
				c-2.309,0-4.222,1.781-4.222,4.156c0,2.375,1.913,4.156,4.222,4.156s4.222-1.781,4.222-4.156
				C21.636,18.054,19.789,16.273,17.48,16.273z M17.48,23.001c-1.253,0-2.375-1.055-2.375-2.507c0-1.517,1.121-2.507,2.375-2.507
				s2.375,1.055,2.375,2.507C19.789,21.946,18.733,23.001,17.48,23.001z M26.583,16.273c-2.309,0-4.222,1.781-4.222,4.156
				c0,2.375,1.913,4.156,4.222,4.156s4.222-1.781,4.222-4.156C30.805,18.054,28.892,16.273,26.583,16.273z M26.583,23.001
				c-1.253,0-2.375-1.055-2.375-2.507c0-1.517,1.121-2.507,2.375-2.507s2.375,1.055,2.375,2.507
				C28.958,21.946,27.836,23.001,26.583,23.001z M37.863,16.537v0.66h-0.066c-0.396-0.462-1.187-0.924-2.177-0.924
				c-2.111,0-4.024,1.847-4.024,4.222c0,2.375,1.913,4.156,4.024,4.156c0.989,0,1.781-0.462,2.177-0.924h0.066v0.594
				c0,1.583-0.858,2.441-2.243,2.441c-1.121,0-1.847-0.792-2.111-1.517l-1.583,0.66c0.462,1.121,1.649,2.441,3.694,2.441
				c2.177,0,3.958-1.253,3.958-4.353v-7.454H37.863z M35.752,23.001c-1.253,0-2.309-1.055-2.309-2.507
				c0-1.451,1.055-2.573,2.309-2.573s2.243,1.055,2.243,2.573C37.929,21.946,37.005,23.001,35.752,23.001z M40.831,12.117h1.847
				v12.269h-1.847V12.117z M47.691,23.001c-0.924,0-1.583-0.396-2.045-1.253l5.607-2.309l-0.198-0.462
				c-0.33-0.924-1.385-2.639-3.562-2.639s-3.958,1.715-3.958,4.156c0,2.375,1.781,4.156,4.156,4.156
				c1.913,0,3.034-1.187,3.496-1.847l-1.451-0.924C49.274,22.54,48.615,23.001,47.691,23.001z M47.559,17.922
				c0.726,0,1.319,0.396,1.583,0.858l-3.76,1.583C45.317,18.714,46.636,17.922,47.559,17.922z"/>
		</g>
		<g>
			<path fill="#EE6B00" d="M86.675,13.041h1.451l3.958,6.926h0.066l3.958-6.926h1.451v11.346h-1.451v-6.728l0.066-1.913h-0.066
				l-3.562,6.2h-0.858l-3.562-6.2h-0.066l0.066,1.913v6.728h-1.451V13.041L86.675,13.041z M104.881,24.386v-1.055h-0.066
				c-0.396,0.726-1.385,1.319-2.441,1.319c-1.979,0-2.968-1.319-2.968-3.232v-4.749h1.451v4.486c0,1.583,0.792,2.177,1.913,2.177
				c1.253,0,2.045-1.187,2.045-2.375v-4.288h1.451v7.718H104.881L104.881,24.386z M107.256,22.408l1.319-0.528
				c0.396,0.99,1.187,1.451,2.111,1.451s1.583-0.462,1.583-1.121c0-0.396-0.264-0.792-1.055-1.055l-1.583-0.396
				c-0.726-0.198-2.045-0.792-2.045-2.177c0-1.385,1.451-2.309,3.1-2.309c1.319,0,2.507,0.594,2.968,1.781l-1.253,0.528
				c-0.33-0.726-0.99-1.055-1.781-1.055c-0.792,0-1.517,0.396-1.517,0.989c0,0.462,0.396,0.792,1.055,0.924l1.517,0.396
				c1.517,0.396,2.111,1.319,2.111,2.243c0,1.385-1.253,2.441-3.034,2.441C108.773,24.65,107.718,23.529,107.256,22.408
				L107.256,22.408z M114.578,13.964c0-0.594,0.462-1.055,1.056-1.055c0.594,0,1.055,0.462,1.055,1.055
				c0,0.594-0.462,1.055-1.055,1.055C115.04,14.954,114.578,14.492,114.578,13.964z M114.842,24.386v-7.784h1.451v7.784H114.842z
				 M117.546,20.495c0-2.375,1.649-4.156,3.958-4.156c1.847,0,2.902,1.121,3.43,2.243l-1.319,0.528
				c-0.396-0.924-1.121-1.451-2.177-1.451c-1.253,0-2.441,1.121-2.441,2.771c0,1.649,1.187,2.77,2.441,2.77
				c1.055,0,1.847-0.528,2.243-1.451L125,22.276c-0.462,1.121-1.583,2.243-3.43,2.243C119.195,24.65,117.546,22.869,117.546,20.495
				L117.546,20.495z"/>
		</g>
		<g>
			<path fill="#757575" d="M59.367,12.117h-4.42v12.269h1.847v-4.683h2.573c2.045,0,4.024-1.451,4.024-3.826
				S61.346,12.117,59.367,12.117z M59.367,18.054h-2.639v-4.222h2.639c1.385,0,2.177,1.121,2.177,2.111
				C61.543,16.867,60.752,18.054,59.367,18.054z M66.227,24.386V12.117H64.38v12.269H66.227z M74.472,24.386v-4.683
				c0-2.177-1.649-3.43-3.76-3.43c-1.319,0-2.705,0.594-3.298,1.913l1.649,0.66c0.33-0.66,0.99-0.923,1.649-0.923
				c0.924,0,1.913,0.594,1.913,1.583v0.132c-0.33-0.198-1.055-0.462-1.913-0.462c-1.781,0-3.562,0.989-3.562,2.77
				c0,1.649,1.451,2.705,3.034,2.705c1.253,0,1.913-0.528,2.309-1.187h0.066v0.923H74.472z M70.515,23.001
				c-0.594,0-1.451-0.33-1.451-1.055c0-0.924,1.055-1.319,1.913-1.319c0.791,0,1.187,0.198,1.649,0.396
				C72.559,22.21,71.57,23.001,70.515,23.001z M80.871,16.537L78.76,21.88h-0.066l-2.177-5.343h-1.979l3.298,7.454l-1.847,4.156
				h1.913l5.013-11.61H80.871L80.871,16.537z"/>
		</g>
	</g>
</g>
</svg>
