<?xml version="1.0" encoding="utf-8"?>
<!-- Generator: Adobe Illustrator 21.1.0, SVG Export Plug-In . SVG Version: 6.00 Build 0)  -->
<svg version="1.1" id="Layer_1" xmlns="http://www.w3.org/2000/svg" xmlns:xlink="http://www.w3.org/1999/xlink" x="0px" y="0px"
	 viewBox="0 0 125 40" style="enable-background:new 0 0 125 40;" xml:space="preserve">
<style type="text/css">
	.st0{display:none;}
	.st1{display:inline;fill:#FFFFFF;}
	.st2{fill:url(#SVGID_1_);}
	.st3{fill:#919295;}
</style>
<g id="bg" class="st0">
	<rect class="st1" width="125" height="40"/>
</g>
<g>
	
		<linearGradient id="SVGID_1_" gradientUnits="userSpaceOnUse" x1="11.361" y1="586.7786" x2="11.361" y2="569.9929" gradientTransform="matrix(1 0 0 1 0 -558)">
		<stop  offset="0.4897" style="stop-color:#8D191B"/>
		<stop  offset="1" style="stop-color:#C72027"/>
	</linearGradient>
	<path class="st2" d="M17.4,11.9c-3.8-0.5-6,2.5-6,2.5s-2.2-3-6-2.5C0.5,12.5-1.9,18.5,1.8,22c2.2,2.1,5.1,4.6,7.1,6.4v-4.2
		c0-1.3,1.1-2.4,2.4-2.4s2.4,1.1,2.4,2.4v4.3c2-1.8,5-4.4,7.2-6.5C24.6,18.5,22.2,12.5,17.4,11.9z M5.9,22.6
		c-0.1,0.1-0.2,0.2-0.3,0.2c-0.1,0-0.2,0-0.3-0.1c-1.4-1.1-2.9-3.1-2.9-4.9c0-1.5,0.8-2.9,2-3.8c0.2-0.1,0.5-0.1,0.6,0.1
		c0.1,0.2,0.1,0.5-0.1,0.6c-1,0.7-1.6,1.9-1.6,3.1c0,1.3,1,3.1,2.5,4.3C6,22.2,6,22.4,5.9,22.6z M8.4,21c-0.1,0.1-0.2,0.2-0.4,0.2
		c-0.1,0-0.2,0-0.2-0.1c-1.2-0.7-2-2.1-2-3.3c0-1.3,0.7-2.4,1.8-3c0.2-0.1,0.5,0,0.6,0.2c0.1,0.2,0,0.5-0.2,0.6
		c-0.8,0.4-1.3,1.3-1.3,2.2c0,0.9,0.7,2,1.6,2.6C8.5,20.6,8.6,20.8,8.4,21z M11.3,20.1c-1,0-1.8-0.8-1.8-1.8s0.8-1.8,1.8-1.8
		s1.8,0.8,1.8,1.8S12.3,20.1,11.3,20.1z M14.8,21.2c-0.1,0-0.1,0.1-0.2,0.1c-0.1,0-0.3-0.1-0.4-0.2c-0.1-0.2-0.1-0.5,0.1-0.6
		c0.9-0.6,1.6-1.7,1.6-2.6c0-0.9-0.5-1.8-1.3-2.2c-0.2-0.1-0.3-0.4-0.2-0.6c0.1-0.2,0.4-0.3,0.6-0.2c1.1,0.6,1.8,1.7,1.8,3
		C16.8,19.1,16,20.4,14.8,21.2z M17.4,22.7c-0.1,0.1-0.2,0.1-0.3,0.1c-0.1,0-0.2-0.1-0.3-0.2c-0.1-0.2-0.1-0.5,0.1-0.6
		c1.5-1.2,2.5-3,2.5-4.3c0-1.2-0.6-2.4-1.6-3.1c-0.2-0.1-0.2-0.4-0.1-0.6c0.1-0.2,0.4-0.2,0.6-0.1c1.3,0.9,2,2.3,2,3.8
		C20.3,19.6,18.8,21.6,17.4,22.7z"/>
	<circle cx="27.2" cy="16.4" r="1.6"/>
	<path d="M27.6,18.5h-0.8c-0.7,0-1.3,0.6-1.3,1.3v7.1h3.3v-7.1C28.8,19.1,28.3,18.5,27.6,18.5z"/>
	<polygon points="38.1,15.6 38.1,19.8 34,19.8 34,15.6 30.9,15.6 30.9,26.9 34,26.9 34,22.5 38.1,22.5 38.1,26.9 41.3,26.9 
		41.3,15.6 	"/>
	<path d="M46.8,18h-0.5c-2.3,0-4.2,1.9-4.2,4.2v0.6c0,2.3,1.9,4.2,4.2,4.2h0.5c1.5,0,2.8-0.5,3.8-1.7l-1.7-1.4c0,0-0.6,1-2,1
		c-1.1,0-1.7-0.8-1.9-1.6h5.9c0-0.1,0-0.3,0-0.4v-0.6C50.9,19.9,49.1,18,46.8,18z M45,21.7c0.2-0.8,0.6-1.5,1.6-1.5
		c1.3,0,1.6,1.3,1.6,1.5H45z"/>
	<path d="M55.7,18c-1.3,0-2.9,0.4-3.6,0.8l0.7,2c1.3-0.8,4.1-1,4.1,1.2v0c-1.6-0.7-5.5-0.6-5.5,2.2c0,1,0.9,2.6,2.9,2.6
		c1.4,0,2.6-1,2.6-1v1h3v-5.6C59.8,19.7,58.8,18,55.7,18z M55.4,25.1c-1.1,0-1.4-1.1-0.9-1.7c0.4-0.6,1.6-0.6,2.4-0.1V24
		C56.9,24,56.5,25.1,55.4,25.1z"/>
	<path d="M63.9,19.8v-1.7h-3v8.8h3V23c0.4-1.2,1.2-2,2.8-1.9V18C65.5,18,64.6,18.5,63.9,19.8z"/>
	<path d="M73.7,20.4v-2.2h-2.1v-2.2h-3.1v2.2h-0.9v2.2h0.9v3.3c0,1.6,0.4,2.6,1.7,3.1c1.4,0.5,3.3-0.1,3.4-0.5V24
		c-0.7,0.6-2.1,0.5-2.1-0.4v-3.3H73.7z"/>
	<g>
		<path class="st3" d="M84,19.1c0-2.1-1.7-3.4-4.3-3.4h-3.9c-0.4,0-0.6,0.3-0.6,0.6v10c0,0.4,0.3,0.6,0.6,0.6c0.4,0,0.6-0.3,0.6-0.6
			v-3.7h3.2c0,0,0,0.1,0,0.1l3.2,4c0.1,0.2,0.3,0.2,0.5,0.2c0.1,0,0.3,0,0.4-0.1c0.3-0.2,0.3-0.6,0.1-0.9l-2.7-3.5
			C82.9,22,84,20.5,84,19.1z M80.1,21.3h-3.6V17h3.3c0.7,0,3,0.2,3,2.1C82.8,20,81.7,21.3,80.1,21.3z"/>
		<path class="st3" d="M91.4,15.7c-0.1-0.2-0.3-0.4-0.6-0.4c-0.2,0-0.5,0.1-0.6,0.4l-4.8,10.4c-0.1,0.3,0,0.7,0.3,0.8
			c0.1,0,0.2,0.1,0.3,0.1c0.2,0,0.5-0.1,0.6-0.4l1.2-2.6h6.1c0,0,0,0,0,0l1.2,2.6c0.2,0.3,0.5,0.5,0.9,0.3c0.3-0.2,0.5-0.5,0.3-0.9
			L91.4,15.7z M88.4,22.7l2.4-5.3l2.5,5.3H88.4z"/>
		<path class="st3" d="M101.5,15.7h-2.8c-0.4,0-0.6,0.3-0.6,0.6v10c0,0.4,0.3,0.6,0.6,0.6h3.4c3.1,0,5.7-2.6,5.7-5.8
			C107.9,17.2,104.5,15.7,101.5,15.7z M102.2,25.7h-2.8V17h2.1c1.2,0,5.1,0.3,5.1,4.2C106.6,23.7,104.6,25.7,102.2,25.7z"/>
		<path class="st3" d="M110.7,15.7c-0.4,0-0.6,0.3-0.6,0.6v10c0,0.4,0.3,0.6,0.6,0.6s0.6-0.3,0.6-0.6v-10
			C111.4,16,111.1,15.7,110.7,15.7z"/>
		<path class="st3" d="M119.3,15.6c-3.1,0-5.7,2.6-5.7,5.7c0,3.1,2.5,5.7,5.7,5.7s5.7-2.6,5.7-5.7C125,18.1,122.5,15.6,119.3,15.6z
			 M119.3,25.7c-2.4,0-4.4-2-4.4-4.4c0-2.4,2-4.4,4.4-4.4s4.4,2,4.4,4.4C123.7,23.7,121.7,25.7,119.3,25.7z"/>
	</g>
</g>
</svg>
