<svg width="125" height="40" viewBox="0 0 125 40" fill="none" xmlns="http://www.w3.org/2000/svg">
<path d="M34.4444 9.33337C36.2854 9.33337 37.7778 10.8258 37.7778 12.6667V32.6667C37.7778 34.5077 36.2854 36 34.4444 36H3.33333C1.49238 36 0 34.5077 0 32.6667V12.6667C0 10.8258 1.49238 9.33337 3.33333 9.33337H34.4444ZM35.5556 13.3112L26.4911 19.7434L31.8585 24.6223C32.3126 25.0351 32.3461 25.7378 31.9333 26.1919C31.5522 26.611 30.9242 26.6718 30.4727 26.354L30.3637 26.2666L24.6367 21.06L21.4611 23.3149C19.9875 24.3606 18.0357 24.4061 16.5205 23.4513L16.3167 23.3149L13.14 21.06L7.41408 26.2666C6.96002 26.6794 6.2573 26.646 5.84451 26.1919C5.46348 25.7728 5.46268 25.1418 5.82195 24.7225L5.91925 24.6223L11.2856 19.7434L2.22222 13.3123V32.6667C2.22222 33.2365 2.65116 33.7062 3.20375 33.7703L3.33333 33.7778H34.4444C35.0143 33.7778 35.4839 33.3489 35.5481 32.7963L35.5556 32.6667V13.3112ZM34.19 11.5556H3.58667L17.6028 21.5026C18.3217 22.0128 19.2683 22.0468 20.0176 21.6047L20.175 21.5026L34.19 11.5556Z" fill="#1A1A1A"/>
<path d="M36.6663 18.6667C40.7164 18.6667 43.9997 15.3834 43.9997 11.3333C43.9997 7.28325 40.7164 4 36.6663 4C32.6163 4 29.333 7.28325 29.333 11.3333C29.333 15.3834 32.6163 18.6667 36.6663 18.6667Z" fill="#FF0000"/>
<path d="M36.667 13.3334C37.7716 13.3334 38.667 12.4379 38.667 11.3334C38.667 10.2288 37.7716 9.33337 36.667 9.33337C35.5624 9.33337 34.667 10.2288 34.667 11.3334C34.667 12.4379 35.5624 13.3334 36.667 13.3334Z" fill="white"/>
</svg>
