<?xml version="1.0" encoding="utf-8"?>
<!-- Generator: Adobe Illustrator 16.0.0, SVG Export Plug-In . SVG Version: 6.00 Build 0)  -->
<!DOCTYPE svg PUBLIC "-//W3C//DTD SVG 1.1//EN" "http://www.w3.org/Graphics/SVG/1.1/DTD/svg11.dtd">
<svg version="1.1" xmlns="http://www.w3.org/2000/svg" xmlns:xlink="http://www.w3.org/1999/xlink" x="0px" y="0px" width="125px"
	 height="40px" viewBox="0 0 125 40" enable-background="new 0 0 125 40" xml:space="preserve">
<g id="Layer_1">
	<g>
		<path fill-rule="evenodd" clip-rule="evenodd" fill="#FE0671" d="M24.178,3.445c4.648,0,9.295,0.001,13.943,0
			c1.812-0.001,3.565,0.307,5.197,1.104c2.667,1.302,4.104,3.545,4.648,6.387c0.191,0.996,0.27,2.025,0.277,3.04
			c0.03,4.183,0.012,8.366,0.012,12.549c0,1.31-0.213,2.585-0.621,3.826c-1.087,3.311-3.431,5.21-6.782,5.895
			c-1.015,0.208-2.07,0.295-3.107,0.298c-9.063,0.022-18.126,0.011-27.189,0.015c-1.637,0.002-3.237-0.197-4.774-0.781
			c-3.161-1.203-4.875-3.594-5.477-6.83c-0.202-1.088-0.277-2.212-0.286-3.32c-0.033-3.882-0.015-7.762-0.012-11.643
			C0.008,12.537,0.184,11.11,0.62,9.73c1.031-3.26,3.281-5.211,6.582-5.941c0.965-0.213,1.974-0.322,2.963-0.329
			C14.836,3.427,19.507,3.445,24.178,3.445z M42.765,28.294c0.014-0.19,0.035-0.347,0.035-0.504
			c0.001-4.903,0.013-9.808-0.007-14.712c-0.006-1.278-0.496-2.398-1.397-3.316c-1.529-1.558-3.449-2.037-5.546-1.914
			c-2.635,0.154-4.983,1.648-5.779,4.424c-0.792,2.761-1.729,5.48-2.605,8.217c-0.728,2.273-1.462,4.544-2.188,6.82
			c-0.175,0.551-0.531,0.86-1.109,0.887c-0.573,0.027-0.986-0.263-1.208-0.858c-0.137-0.367-0.24-0.749-0.36-1.123
			c-1.531-4.791-3.06-9.581-4.595-14.37c-0.326-1.018-0.893-1.877-1.742-2.543c-1.9-1.492-4.056-1.748-6.333-1.249
			c-2.308,0.505-4.581,2.314-4.512,5.692c0.094,4.6,0.023,9.204,0.023,13.806c0,0.247,0,0.493,0,0.738c1.889,0,3.689,0,5.555,0
			c0-0.292,0-0.542,0-0.792c0-4.137,0-8.274,0-12.412c0-0.278-0.005-0.56,0.027-0.836c0.045-0.393,0.216-0.72,0.639-0.818
			c0.403-0.094,0.75,0.042,0.97,0.386c0.186,0.29,0.359,0.601,0.463,0.927c1.469,4.567,2.906,9.146,4.402,13.704
			c0.262,0.802,0.646,1.61,1.16,2.272c1.554,2.001,3.698,2.693,6.17,2.511c2.775-0.204,5.017-1.964,5.865-4.609
			c1.442-4.502,2.881-9.007,4.331-13.506c0.134-0.416,0.305-0.826,0.515-1.209c0.222-0.402,0.599-0.584,1.064-0.47
			c0.459,0.114,0.583,0.499,0.636,0.903c0.032,0.251,0.018,0.511,0.018,0.766c0.001,4.137,0.001,8.274,0.001,12.411
			c0,0.249,0,0.498,0,0.78C39.127,28.294,40.927,28.294,42.765,28.294z"/>
		<path fill-rule="evenodd" clip-rule="evenodd" fill="#FE0671" d="M72.952,21.626c0,0.549-0.041,1.034,0.01,1.511
			c0.082,0.776,0.688,1.252,1.577,1.259c1.557,0.013,3.113,0.004,4.669,0.004c0.253,0,0.504,0,0.803,0c0,1.444,0,2.848,0,4.251
			c-0.037,0.024-0.073,0.068-0.111,0.069c-2.16,0.007-4.324,0.1-6.479-0.009c-3.116-0.153-4.947-2.263-5.067-5.22
			c-0.101-2.458-0.033-4.923-0.036-7.385c-0.001-0.72-0.025-1.443,0.027-2.159c0.207-2.899,2.131-4.816,4.643-5.066
			c1.279-0.127,2.554-0.176,3.805,0.111c2.301,0.527,3.863,2.403,3.964,4.855c0.086,2.11,0.052,4.227,0.035,6.34
			c-0.008,0.938-0.607,1.43-1.677,1.436c-1.812,0.012-3.624,0.004-5.436,0.004C73.451,21.626,73.226,21.626,72.952,21.626z
			 M76.155,17.22c0-0.978,0.044-1.9-0.014-2.815c-0.051-0.818-0.635-1.253-1.534-1.271c-0.897-0.017-1.555,0.393-1.623,1.178
			c-0.082,0.954-0.02,1.92-0.02,2.908C74.039,17.22,75.049,17.22,76.155,17.22z"/>
		<path fill-rule="evenodd" clip-rule="evenodd" fill="#FE0671" d="M65.562,28.675c-1.573,0-3.05,0-4.609,0c0-0.278,0-0.526,0-0.772
			c0-4.321,0.005-8.642-0.009-12.961c-0.001-0.362-0.05-0.756-0.201-1.075c-0.315-0.661-0.96-0.736-1.609-0.732
			c-0.68,0.003-1.393-0.016-1.764,0.704c-0.141,0.274-0.195,0.621-0.198,0.935c-0.037,4.365-0.059,8.729-0.084,13.095
			c-0.001,0.251,0,0.503,0,0.797c-1.537,0-3.014,0-4.558,0c-0.016-0.19-0.045-0.391-0.045-0.591
			c-0.002-4.366-0.009-8.733,0.002-13.101c0.002-0.999,0.102-1.99,0.494-2.93c0.75-1.799,2.083-2.855,4.012-3.121
			c1.593-0.218,3.197-0.276,4.766,0.137c2.078,0.547,3.219,1.998,3.653,4.042c0.109,0.516,0.142,1.056,0.144,1.586
			c0.01,4.391,0.006,8.78,0.006,13.171C65.562,28.11,65.562,28.362,65.562,28.675z"/>
		<path fill-rule="evenodd" clip-rule="evenodd" fill="#FE0671" d="M88.083,15.469c-0.018,0.313-0.038,0.517-0.038,0.721
			c-0.002,2.09-0.005,4.181,0,6.271c0.002,1.419,0.52,1.936,1.926,1.938c1.134,0.001,2.269,0,3.446,0c0,1.444,0,2.848,0,4.297
			c-0.173,0.013-0.351,0.041-0.528,0.037c-1.715-0.039-3.447,0.054-5.142-0.156c-2.39-0.297-3.823-2.084-4.195-4.462
			c-0.099-0.637-0.106-1.293-0.108-1.94c-0.009-4.182-0.004-8.363-0.004-12.545c0-0.25,0-0.501,0-0.794c1.551,0,3.045,0,4.611,0
			c0,0.894,0,1.764,0,2.699c1.848,0,3.627,0,5.446,0c0,1.335,0,2.602,0,3.934C91.72,15.469,89.943,15.469,88.083,15.469z"/>
		<path fill-rule="evenodd" clip-rule="evenodd" fill="none" d="M42.765,28.294c-1.838,0-3.638,0-5.511,0c0-0.282,0-0.531,0-0.78
			c0-4.137,0-8.274-0.001-12.411c0-0.255,0.015-0.514-0.018-0.766c-0.053-0.405-0.177-0.789-0.636-0.903
			c-0.465-0.114-0.842,0.068-1.064,0.47c-0.21,0.383-0.381,0.793-0.515,1.209c-1.45,4.5-2.888,9.004-4.331,13.506
			c-0.848,2.646-3.089,4.405-5.865,4.609c-2.472,0.183-4.617-0.51-6.17-2.511c-0.514-0.662-0.897-1.471-1.16-2.272
			c-1.496-4.559-2.933-9.137-4.402-13.704c-0.104-0.326-0.278-0.637-0.463-0.927c-0.22-0.344-0.567-0.479-0.97-0.386
			c-0.423,0.099-0.593,0.426-0.639,0.818c-0.032,0.276-0.026,0.558-0.027,0.836c-0.001,4.138,0,8.275,0,12.412c0,0.25,0,0.5,0,0.792
			c-1.866,0-3.666,0-5.555,0c0-0.245,0-0.491,0-0.738c0-4.602,0.071-9.206-0.023-13.806c-0.069-3.378,2.204-5.187,4.512-5.692
			c2.278-0.499,4.434-0.243,6.333,1.249c0.849,0.666,1.417,1.526,1.742,2.543c1.535,4.789,3.064,9.579,4.595,14.37
			c0.12,0.374,0.223,0.756,0.36,1.123c0.222,0.596,0.635,0.886,1.208,0.858c0.579-0.026,0.935-0.336,1.109-0.887
			c0.726-2.275,1.46-4.547,2.188-6.82c0.876-2.737,1.814-5.456,2.605-8.217c0.796-2.776,3.145-4.27,5.779-4.424
			c2.097-0.123,4.018,0.356,5.546,1.914c0.902,0.918,1.392,2.038,1.397,3.316c0.021,4.904,0.009,9.809,0.007,14.712
			C42.8,27.947,42.779,28.104,42.765,28.294z"/>
		<path fill-rule="evenodd" clip-rule="evenodd" fill="none" d="M76.155,17.22c-1.106,0-2.116,0-3.19,0
			c0-0.987-0.062-1.954,0.02-2.908c0.068-0.786,0.726-1.195,1.623-1.178c0.899,0.018,1.482,0.453,1.534,1.271
			C76.199,15.319,76.155,16.242,76.155,17.22z"/>
	</g>
</g>
<g id="Layer_2">
</g>
<g id="template" display="none">
</g>
</svg>
