<?xml version="1.0" encoding="utf-8"?>
<!-- Generator: Adobe Illustrator 20.1.0, SVG Export Plug-In . SVG Version: 6.00 Build 0)  -->
<svg version="1.1" id="logos" xmlns="http://www.w3.org/2000/svg" xmlns:xlink="http://www.w3.org/1999/xlink" x="0px" y="0px"
	 viewBox="0 0 125 40" enable-background="new 0 0 125 40" xml:space="preserve">
<g>
	<g>
		<path fill="#414042" d="M26.424,8.99c-0.403-0.405-0.918-0.619-1.489-0.619c-0.57,0-1.085,0.214-1.488,0.619
			c-0.403,0.401-0.615,0.917-0.615,1.485c0,0.57,0.212,1.084,0.615,1.486c0.402,0.404,0.917,0.617,1.488,0.617
			c0.571,0,1.084-0.211,1.485-0.614c0.404-0.402,0.618-0.917,0.618-1.489C27.038,9.903,26.826,9.39,26.424,8.99z"/>
		<path fill="#414042" d="M26.816,27.961V14.553h-3.75v13.418c0,0.455,0.189,0.866,0.543,1.187c0.359,0.322,0.818,0.494,1.326,0.494
			c0.508,0,0.968-0.171,1.329-0.496C26.618,28.833,26.803,28.433,26.816,27.961z"/>
		<path fill="#B43E97" d="M45.538,15.952l-0.582-1.863c-0.246-0.788-0.72-1.187-1.406-1.187c-0.245,0-0.52,0.053-0.816,0.153
			l-16.342,5.68c-0.575,0.2-0.954,0.49-1.125,0.861c-0.167,0.354-0.149,0.797,0.051,1.32l0.699,1.82
			c1.454,3.8,3.957,5.461,5.801,6.188c1.243,0.487,2.631,0.746,4.014,0.746l0,0c1.164,0,2.316-0.187,3.33-0.541
			C44.474,27.284,47.274,21.495,45.538,15.952z M35.737,26.118c-0.876,0-1.751-0.161-2.526-0.46
			c-1.243-0.483-2.902-1.573-3.752-4.023l-0.082-0.233l12.625-4.388l0.081,0.234c0.173,0.503,0.527,2.215,0.064,4.075
			c-0.542,2.164-1.949,3.654-4.183,4.431C37.278,25.993,36.509,26.118,35.737,26.118z"/>
		<path fill="#414042" d="M10.351,11.361c0.298-0.391,0.387-0.887,0.263-1.472c-0.141-0.671-0.718-1.453-1.876-1.453
			c-4.144,0-6.413,2.124-6.569,6.137l-0.018,0.454l-0.59,0.033c-0.394,0.035-0.761,0.221-1.054,0.536
			C0.176,15.953,0,16.412,0,16.921c0,0.515,0.176,0.977,0.507,1.337c0.294,0.315,0.65,0.496,1.053,0.534l0.6,0.036v10.683h3.736
			V18.829h2.66c0.446,0,0.853-0.188,1.174-0.542c0.322-0.359,0.492-0.822,0.492-1.338c0-0.511-0.17-0.968-0.493-1.325
			c-0.32-0.357-0.726-0.543-1.172-0.543H5.884v-0.537c0-1.4,0.431-2.235,2.635-2.359C9.317,12.139,9.985,11.84,10.351,11.361z"/>
		<path fill="#414042" d="M71.971,14.507c-0.259-0.109-0.579-0.171-0.877-0.171c-0.507,0-1.18,0.172-1.51,0.989l-3.071,7.269
			l-3.004-7.261c-0.372-0.912-1.265-1.01-1.631-1.01c-0.273,0-0.549,0.051-0.777,0.144c-0.304,0.127-0.847,0.53-1.084,1.116
			c-0.157,0.388-0.15,0.789,0.021,1.183l4.416,10.739l-3.302,7.842l4.064,0.016l7.802-18.516c0.168-0.38,0.168-0.877,0.002-1.302
			C72.894,15.223,72.608,14.781,71.971,14.507z"/>
		<path fill="#414042" d="M52.348,14.374c-2.067,0-3.856,0.74-5.318,2.203c-1.462,1.46-2.202,3.248-2.202,5.316
			c0,2.067,0.741,3.858,2.202,5.319c1.462,1.46,3.251,2.201,5.318,2.201c1.843,0,2.959-0.601,3.46-0.957l0.273-0.195l0.051,1.243
			h3.737v-7.611c0-2.068-0.744-3.857-2.209-5.322C56.185,15.114,54.396,14.374,52.348,14.374z M55.828,23.341
			c-0.202,0.464-0.466,0.86-0.814,1.207c-0.335,0.34-0.74,0.616-1.201,0.817c-0.459,0.202-0.94,0.301-1.465,0.301
			c-0.537,0-1.02-0.099-1.479-0.301c-0.459-0.199-0.861-0.473-1.197-0.812c-0.336-0.339-0.604-0.742-0.802-1.202
			c-0.199-0.462-0.294-0.938-0.294-1.459c0-0.519,0.096-0.994,0.293-1.455c0.199-0.462,0.47-0.867,0.805-1.208
			c0.337-0.339,0.727-0.606,1.195-0.812c0.459-0.199,0.943-0.297,1.479-0.297c0.526,0,1.005,0.098,1.464,0.297
			c0.463,0.203,0.868,0.48,1.204,0.82c0.346,0.349,0.611,0.744,0.812,1.207c0.196,0.458,0.292,0.929,0.292,1.448
			C56.12,22.411,56.024,22.888,55.828,23.341z"/>
		<path fill="#414042" d="M21.928,15.963c-0.138-0.966-0.961-1.54-2.203-1.54h-0.324c-2.238,0-3.733,1.367-3.748,1.378l-0.305,0.283
			l-0.002-1.521h-3.74l0.007,13.43c0,0.449,0.187,0.852,0.543,1.174c0.357,0.323,0.82,0.494,1.337,0.494
			c0.509,0,0.97-0.171,1.33-0.496c0.354-0.32,0.538-0.725,0.538-1.172V22c0-2.234,2.46-3.478,3.584-3.703
			c0.189-0.038,0.432-0.054,0.69-0.069c0.212-0.012,0.433-0.027,0.618-0.055C21.008,18.061,22.128,17.36,21.928,15.963z"/>
	</g>
	<g>
		<path fill="#B43E97" d="M99.474,16.98v1.858H78.47V16.98h6.1l-0.941-2.523h-4.082v-1.856h18.757v1.856h-4.242L93.26,16.98H99.474z
			 M96.31,29.684H81.475c-0.16,0-0.252-0.092-0.252-0.298v-9.081c0-0.183,0.092-0.275,0.252-0.275H96.31
			c0.206,0,0.298,0.092,0.298,0.275v9.081C96.608,29.593,96.516,29.684,96.31,29.684z M95.874,9.55v1.859H82.163V9.55H95.874z
			 M94.659,23.882v-1.903c0-0.068-0.023-0.091-0.091-0.091H83.24c-0.069,0-0.092,0.023-0.069,0.091v1.903H94.659z M83.171,25.74
			v1.972c-0.023,0.068,0,0.092,0.069,0.113h11.328l0.091-0.113V25.74H83.171z M91.999,14.457h-6.283l0.94,2.523h4.564L91.999,14.457
			z"/>
		<path fill="#B43E97" d="M103.767,20.741c-0.069-0.527-0.183-1.123-0.413-1.811l1.56-0.161c0.572-0.666,1.168-1.491,1.811-2.499
			c-1.101-0.941-2.202-1.675-3.325-2.248l0.757-1.581c0.115,0,0.436,0.183,0.941,0.503c0.55-1.214,1.077-2.567,1.535-4.013
			l1.628,0.689c-0.343,1.077-0.917,2.5-1.788,4.288l1.101,0.85c0.573-1.149,0.963-2.248,1.26-3.325l1.697,0.435
			c-0.344,1.789-1.559,4.013-3.553,6.696l1.856-0.184l-0.298-1.259l1.744-0.323c0.366,1.491,0.642,2.866,0.78,4.083l-1.72,0.16
			l-0.115-0.78L103.767,20.741z M115.026,30.006h-1.95v-4.701c-3.095,2.155-5.939,3.578-8.483,4.151l-0.895-1.789
			c3.028-0.733,5.848-2.018,8.439-3.76h-8.507V22.14h9.446v-1.673h-1.627c-0.138,0-0.206-0.093-0.206-0.253V10.95
			c0-0.16,0.069-0.23,0.206-0.23h1.261l0.643-1.903l1.65,0.62l-0.459,1.282h1.972c0.16,0,0.252,0.069,0.252,0.23v9.264
			c0,0.16-0.092,0.253-0.252,0.253h-1.491v1.673h9.746v1.766h-8.714c2.317,1.927,5.183,3.164,8.576,3.647l-0.848,1.811
			c-3.326-0.711-6.26-2.109-8.76-4.151V30.006z M115.095,14.757v-2.294l-0.092-0.069h-2.018l-0.068,0.069v2.294H115.095z
			 M112.916,16.43v2.247l0.068,0.092h2.018c0.069,0,0.092-0.023,0.092-0.092V16.43H112.916z M117.296,20.673
			c-0.068-0.551-0.183-1.147-0.412-1.835l1.352-0.137c0.574-0.642,1.171-1.468,1.813-2.43c-1.055-0.872-2.133-1.536-3.188-2.042
			l0.711-1.605l0.619,0.298c0.573-1.192,1.055-2.545,1.536-3.991l1.605,0.689c-0.343,1.055-0.893,2.43-1.72,4.197l1.308,0.894
			c0.459-1.01,0.849-1.973,1.077-2.913l1.72,0.436c-0.367,1.673-1.513,3.759-3.37,6.237l2.063-0.23l-0.481-1.146l1.697-0.551
			c0.618,1.605,1.123,2.935,1.375,3.943l-1.697,0.414l-0.252-0.827L117.296,20.673z"/>
	</g>
</g>
<rect fill="none" width="125" height="40"/>
</svg>
