<?xml version="1.0" encoding="utf-8"?>
<!-- Generator: Adobe Illustrator 19.2.0, SVG Export Plug-In . SVG Version: 6.00 Build 0)  -->
<svg version="1.1" xmlns="http://www.w3.org/2000/svg" xmlns:xlink="http://www.w3.org/1999/xlink" x="0px" y="0px"
	 viewBox="0 0 125 40" enable-background="new 0 0 125 40" xml:space="preserve">
<g id="bg" display="none">
	<rect display="inline" fill="#FFFFFF" width="125" height="40"/>
</g>
<g id="icons">
	<g>
		<g id="UzZokR_1_">
			<g>
				<path fill="#733894" d="M85.58,25.848c-0.983-0.293-1.907-0.689-2.642-1.44c-0.348-0.356-0.673-0.735-0.872-1.188
					c-0.414-0.944-0.723-1.919-1.388-2.761c-0.541-0.684-0.344-1.535,0.224-2.127c0.551-0.575,0.699-1.182,0.626-1.916
					c-0.011-0.113,0.045-0.233,0.065-0.33c0.409-0.17,0.754,0.079,1.108,0.073c2.755-2.184,4.787-2.185,7.568-0.005
					c0.354,0.022,0.699-0.242,1.066-0.084c0.146,0.159,0.124,0.352,0.109,0.531c-0.054,0.639,0.104,1.144,0.569,1.653
					c0.739,0.809,0.644,2.043-0.14,2.86c-0.316,0.329-0.464,0.672-0.584,1.103c-0.483,1.732-1.627,2.863-3.33,3.428
					c-0.233,0.077-0.473,0.136-0.709,0.203C86.694,25.848,86.137,25.848,85.58,25.848z M82.557,17.17
					c0,1.285,0.045,2.518-0.011,3.746c-0.083,1.823,1.358,3.9,3.911,3.966c2.173,0.056,3.921-1.683,3.967-3.909
					c0.023-1.111,0.01-2.222,0.001-3.333c-0.001-0.157,0.1-0.381-0.148-0.446c-0.579,0.11-1.011,0.48-1.535,0.743
					c-1.501-0.889-3.026-0.887-4.51,0.003C83.692,17.679,83.269,17.291,82.557,17.17z M89.183,16.695
					c-1.424-1.582-4.113-1.569-5.366,0.032c0.973-0.031,1.775-0.431,2.639-0.456C87.354,16.245,88.171,16.753,89.183,16.695z"/>
				<path fill="#733894" d="M44.182,14.152c0.244,0.525,0.488,1.05,0.77,1.655c-1.082,0.526-2.188,0.87-3.268,1.294
					c-0.32-0.313-0.463-0.675-0.574-1.095c0.816-0.761,1.952-1.032,2.701-1.854C43.935,14.152,44.059,14.152,44.182,14.152z"/>
				<path fill="#703491" d="M74.999,25.848c0-0.822,0-1.645,0-2.502c0.345-0.155,0.598-0.169,0.596,0.304
					c-0.003,0.733-0.025,1.465-0.039,2.198C75.37,25.848,75.184,25.848,74.999,25.848z"/>
				<path fill="#733894" d="M0,15.452c0.062,0.008,0.124,0.016,0.186,0.024c0.001,0.482,0.002,0.964,0.003,1.447
					C0.126,16.927,0.063,16.932,0,16.937C0,16.442,0,15.947,0,15.452z"/>
				<path fill="#703491" d="M35.08,19.148c-0.179,1.197-0.659,2.306-0.978,3.469c-0.494,0.224-0.982,0.064-1.489,0.129
					c-0.497-1.292-0.76-2.589-1.235-3.854c0,1.902,0,3.805,0,5.77c-0.969,0.153-1.842,0.083-2.761,0.055
					c-0.095-0.537-0.077-1.018-0.028-1.454c0.174-0.265,0.445-0.117,0.696-0.314c0.078-1.867,0.27-3.796,0.272-5.7
					c-0.184-0.273-0.52-0.108-0.706-0.383c-0.097-0.402-0.06-0.858-0.004-1.397c1.031,0,2.056,0,3.162,0
					c0.442,1.414,0.89,2.844,1.362,4.355c0.507-1.498,0.996-2.944,1.494-4.417c1.048,0,2.024,0,3.03,0
					c0.185,0.508,0.065,0.993,0.09,1.366c-0.215,0.401-0.596,0.182-0.827,0.472c0.104,1.86,0.211,3.769,0.314,5.608
					c0.161,0.355,0.512,0.116,0.728,0.41c0.061,0.405,0.055,0.884-0.014,1.416c-0.914,0.134-1.797,0.061-2.862,0.047
					c0.034-1.9-0.175-3.758,0.072-5.626c0.11-0.214,0.067-0.362-0.156-0.458C35.055,18.802,35.093,18.982,35.08,19.148z"/>
				<path fill="#703491" d="M0.189,16.922c-0.001-0.482-0.002-0.964-0.003-1.447c0.822-0.186,1.648-0.063,2.555-0.069
					c0.56,2.191,0.97,4.393,1.45,6.803c0.47-2.409,1.019-4.592,1.586-6.787c0.87,0,1.662,0,2.477,0
					c0.191,0.508,0.049,0.996,0.112,1.528c-0.643,0.026-0.82,0.423-0.965,0.936c-0.578,2.048-1.201,4.084-1.805,6.125
					c-0.087,0.293-0.137,0.599-0.359,0.883c-0.714,0-1.446,0-2.258,0c-0.373-1.3-0.747-2.598-1.118-3.897
					c-0.305-1.068-0.652-2.126-0.887-3.21C0.866,17.287,0.582,17.09,0.189,16.922z"/>
				<path fill="#703491" d="M43.228,18.025c0.754-0.054,1.366-0.062,2.072,0.002c0,1.648,0,3.274,0,4.899
					c0.199,0.302,0.564,0.11,0.737,0.36c0.086,0.42,0.065,0.876-0.01,1.455c-0.875-0.113-1.781,0.253-2.7-0.351
					c-0.525,0.452-1.214,0.647-1.986,0.569c-1.149-0.116-1.805-0.754-1.846-1.918c-0.04-1.109-0.009-2.221-0.009-3.187
					c-0.216-0.421-0.562-0.185-0.756-0.458c-0.087-0.399-0.086-0.85,0.024-1.384c0.928-0.037,1.835-0.06,2.844,0.026
					c0,0.991,0,1.942,0,2.892c0,0.557-0.009,1.114,0.006,1.67c0.011,0.437,0.14,0.804,0.674,0.82
					c0.53,0.016,0.939-0.346,0.946-0.887c0.015-1.175,0.005-2.351,0.004-3.526C43.228,18.704,43.228,18.4,43.228,18.025z"/>
				<path fill="#703491" d="M68.257,22.966c0.306,0.236,0.604,0.156,0.805,0.406c0.046,0.396,0.069,0.818-0.023,1.232
					c-1.129,0.29-2.071,0.205-2.623-0.243c-0.515,0.417-1.102,0.637-1.787,0.582c-1.126-0.09-1.838-0.725-2.009-1.822
					c-0.157-1.011,0.339-1.872,1.303-2.307c0.716-0.323,1.488-0.337,2.239-0.394c0.068-0.913-0.066-1.071-0.817-1.086
					c-0.603-0.012-1.123,0.307-1.724,0.408c-0.39-0.365-0.345-0.895-0.632-1.409c1.45-0.642,2.827-0.882,4.246-0.257
					c0.691,0.304,0.957,0.945,0.994,1.662c0.037,0.708,0.021,1.42,0.026,2.13C68.259,22.236,68.257,22.604,68.257,22.966z
					 M66.203,21.824c-1.15-0.074-1.637,0.198-1.638,0.885c-0.001,0.492,0.335,0.868,0.766,0.858
					C66.035,23.55,66.29,23.064,66.203,21.824z"/>
				<path fill="#703491" d="M25.598,21.313c0.011,1.714-0.711,2.961-1.996,3.448c-2.217,0.839-4.116-0.45-4.406-2.993
					c-0.309-2.706,1.675-4.567,4.168-3.91C24.754,18.224,25.586,19.512,25.598,21.313z M23.403,21.343
					c-0.013-0.492,0.003-0.986-0.192-1.456c-0.158-0.381-0.421-0.592-0.846-0.588c-0.432,0.004-0.703,0.236-0.816,0.623
					c-0.283,0.968-0.294,1.947,0.015,2.911c0.122,0.381,0.413,0.608,0.838,0.6c0.426-0.008,0.671-0.251,0.816-0.632
					C23.397,22.33,23.397,21.837,23.403,21.343z"/>
				<path fill="#703491" d="M12.078,19.53c0-0.566,0-0.995,0-1.413c0.68-0.209,1.214-0.231,2.354-0.093
					c0.429,1.375,0.804,2.793,1.191,4.251c0.392-1.422,0.784-2.844,1.181-4.284c0.753,0,1.423,0,2.113,0
					c0.285,0.44,0.054,0.914,0.185,1.418c-0.61,0.111-0.83,0.516-0.999,1.036c-0.496,1.525-1.048,3.031-1.578,4.545
					c-0.66,0.163-1.272,0.026-1.892,0.092c-0.394-0.619-0.522-1.292-0.752-1.922c-0.359-0.987-0.708-1.977-1.049-2.971
					C12.709,19.826,12.611,19.462,12.078,19.53z"/>
				<path fill="#703491" d="M46.774,22.543c0.447,0,0.877,0,1.304,0c0.459,1.063,1.145,1.199,1.822,0.357
					c-0.049-0.405-0.375-0.524-0.692-0.652c-0.429-0.173-0.868-0.322-1.284-0.522c-0.721-0.347-1.151-0.897-1.168-1.739
					c-0.018-0.867,0.36-1.506,1.102-1.89c1.021-0.528,2.08-0.487,3.134-0.057c0.347,0.142,0.564,0.375,0.543,0.771
					c-0.018,0.335,0.057,0.677-0.085,1.067c-0.448,0.163-0.929,0.069-1.337,0.067c-0.327-0.174-0.082-0.55-0.244-0.606
					c-0.337-0.175-0.545-0.135-0.755-0.068c-0.258,0.083-0.445,0.237-0.444,0.522c0.001,0.241,0.168,0.393,0.377,0.481
					c0.483,0.203,0.977,0.379,1.454,0.596c1.056,0.479,1.446,1.177,1.311,2.289c-0.112,0.921-0.824,1.607-1.88,1.761
					c-0.839,0.123-1.654-0.01-2.462-0.274c-0.612-0.2-0.959-0.519-0.842-1.207C46.676,23.173,46.568,22.885,46.774,22.543z"/>
				<path fill="#703491" d="M61.579,23.058c0.288,0.346,0.392,0.784,0.536,1.287c-1.122,0.719-2.276,0.792-3.466,0.407
					c-1.123-0.363-1.635-1.255-1.827-2.353c-0.112-0.641-0.102-1.296,0.009-1.937c0.366-2.116,2.593-3.337,4.599-2.538
					c0.407,0.162,0.663,0.401,0.625,0.897c-0.039,0.515-0.009,1.035-0.009,1.594c-0.587,0.095-1.093,0.08-1.573,0.026
					c-0.243-0.347-0.025-0.724-0.233-1.068c-0.647-0.087-1.028,0.238-1.201,0.839c-0.198,0.692-0.243,1.394-0.051,2.101
					c0.236,0.87,0.669,1.125,1.575,0.978C60.897,23.237,61.182,23.004,61.579,23.058z"/>
				<path fill="#703491" d="M53.317,22.935c0-1.091,0-2.166,0-3.208c-0.256-0.265-0.577-0.067-0.862-0.244
					c-0.144-0.442-0.087-0.923-0.025-1.487c1.01-0.097,2.008-0.042,3.061-0.031c0,1.734,0,3.363,0,4.921
					c0.262,0.375,0.662,0.081,0.921,0.383c0.076,0.434,0.06,0.911,0.001,1.435c-1.331,0-2.614,0-3.935,0
					c-0.183-0.474-0.095-0.956-0.07-1.396C52.647,22.939,53.123,23.284,53.317,22.935z"/>
				<path fill="#703491" d="M11.358,18.037c0,1.684,0,3.307,0,4.832c0.291,0.388,0.689,0.096,0.963,0.422
					c0.09,0.415,0.111,0.891-0.049,1.411c-1.298,0-2.579,0-3.915,0c-0.14-0.495-0.042-0.975-0.066-1.38
					c0.269-0.328,0.596-0.129,0.9-0.32c0-1.069,0-2.19,0-3.308c-0.224-0.24-0.55-0.026-0.839-0.232
					c-0.123-0.428-0.083-0.9-0.012-1.425C9.331,18.037,10.275,18.037,11.358,18.037z"/>
				<path fill="#733894" d="M104.109,17.997c0.884,0.091,1.61,0.078,2.361-0.041c1.225-0.193,1.832,0.575,1.597,1.804
					c-0.347,1.818-1.569,2.638-3.682,2.459c-0.289,0.373-0.222,0.889-0.514,1.306c-0.356,0.134-0.749,0.048-1.27,0.049
					C102.98,21.667,103.628,19.897,104.109,17.997z M106.65,19.031c-0.751-0.27-1.361-0.181-1.508,0.311
					c-0.182,0.607-0.452,1.204-0.471,1.849C106.021,21.595,106.865,20.65,106.65,19.031z"/>
				<path fill="#733894" d="M101.666,19.031c-0.695-0.223-1.385-0.034-2.075,0.074c-0.075-0.846-0.016-0.951,0.693-1.051
					c0.67-0.095,1.34-0.229,2.02-0.035c0.69,0.198,0.932,0.519,0.764,1.215c-0.231,0.956-0.52,1.899-0.804,2.917
					c-0.887-0.021-1.749-0.092-2.611,0.098c-0.444,0.098-0.95-0.069-1.179-0.551c-0.235-0.497-0.069-0.974,0.245-1.385
					c0.401-0.527,0.98-0.729,1.615-0.78c0.307-0.025,0.617-0.016,0.926-0.016C101.573,19.518,101.714,19.375,101.666,19.031z
					 M99.874,21.237c1.102,0.153,1.321,0,1.388-0.916C100.124,20.253,100.009,20.324,99.874,21.237z"/>
				<path fill="#733894" d="M94.284,18.062c0.471,0.007,0.852-0.155,1.164,0.152c0.147,0.145,0.286,0.044,0.424,0.011
					c0.209-0.05,0.411-0.134,0.622-0.178c1.683-0.349,2.201,0.207,1.729,1.849c-0.212,0.737-0.424,1.475-0.637,2.214
					c-0.44,0.105-0.831,0.083-1.299,0.011c0.085-1.065,0.582-2.009,0.73-3.027c-0.735-0.162-0.735-0.162-1.677,0.184
					c-0.266,0.901-0.544,1.844-0.827,2.802c-0.435,0.163-0.852,0.1-1.35,0.057C93.461,20.733,93.9,19.431,94.284,18.062z"/>
				<path fill="#733894" d="M118.96,21.094c0.084,0.394-0.058,0.661-0.243,0.954c-0.792,0.186-1.599,0.33-2.436,0.111
					c-0.605-0.158-0.968-0.506-1.023-1.146c-0.147-1.695,1.345-3.206,3.052-3.088c1.143,0.079,1.611,0.653,1.43,1.773
					c-0.039,0.239-0.129,0.47-0.201,0.722c-0.959,0.183-1.919-0.031-2.856,0.123C116.777,21.359,117.047,21.424,118.96,21.094z
					 M116.904,19.71c0.569-0.068,1.034,0.088,1.485-0.114c0.002-0.651-0.014-0.738-0.268-0.773
					C117.52,18.74,117.171,19.048,116.904,19.71z"/>
				<path fill="#733894" d="M111.916,19.053c-0.768-0.074-1.399-0.292-2.002,0.035c0.058,0.518,0.459,0.449,0.714,0.546
					c0.479,0.182,0.958,0.343,0.968,0.961c0.009,0.611-0.296,1.064-0.827,1.346c-0.531,0.282-1.116,0.355-1.707,0.324
					c-0.396-0.021-0.793-0.077-1.165-0.228c-0.099-0.345,0.056-0.608,0.211-0.877c0.683-0.084,1.432,0.443,2.064-0.187
					c-0.116-0.424-0.469-0.416-0.74-0.516c-0.484-0.177-0.967-0.396-0.958-0.985c0.009-0.562,0.362-0.977,0.865-1.225
					c0.536-0.265,1.117-0.359,1.709-0.312c0.333,0.026,0.662,0.116,0.968,0.172C112.217,18.487,111.902,18.713,111.916,19.053z"/>
				<path fill="#733894" d="M113.223,17.987c0.246-0.256,0.202-0.588,0.471-0.81c0.336-0.065,0.721-0.14,1.13-0.219
					c0.167,0.35-0.115,0.625-0.069,0.951c0.264,0.262,0.64,0.019,1.004,0.197c-0.02,0.284-0.175,0.521-0.377,0.77
					c-0.292,0.023-0.593,0.046-0.914,0.071c-0.301,0.726-0.469,1.467-0.651,2.198c0.391,0.289,0.814-0.096,1.182,0.128
					c0.014,0.284-0.112,0.524-0.194,0.791c-0.593,0.15-1.155,0.301-1.744,0.151c-0.613-0.155-0.815-0.467-0.663-1.085
					c0.169-0.684,0.376-1.36,0.554-1.992c-0.128-0.294-0.437-0.144-0.564-0.341C112.324,18.143,112.716,17.956,113.223,17.987z"/>
				<path fill="#733894" d="M120.998,22.093c-0.462,0.096-0.853,0.102-1.327-0.014c0.26-1.361,0.72-2.65,1.102-4.056
					c0.899,0.114,1.776,0.014,2.661-0.123c0.109,0.526-0.037,0.849-0.16,1.126c-0.256,0.14-0.426,0.007-0.604-0.005
					c-0.535-0.037-0.867,0.154-1.004,0.711C121.47,20.532,121.22,21.319,120.998,22.093z"/>
				<path fill="#703491" d="M55.69,15.821c0.015,0.723-0.533,1.299-1.259,1.323c-0.735,0.025-1.32-0.503-1.356-1.223
					c-0.037-0.743,0.562-1.379,1.305-1.384C55.088,14.533,55.675,15.108,55.69,15.821z"/>
				<path fill="#703491" d="M10.271,14.538c0.716,0,1.278,0.568,1.285,1.298c0.007,0.728-0.537,1.291-1.266,1.309
					c-0.74,0.019-1.381-0.611-1.359-1.334C8.951,15.133,9.578,14.538,10.271,14.538z"/>
				<path fill="#733894" d="M74.144,19.136c0.706-0.257,1.2,1.041,1.86,0.144c0.332,0.365,0.213,0.641,0.133,1.026
					c-0.551-0.389-1.008-0.268-1.556,0.217c0.943,0.038,2.072-0.116,1.526,1.397c-0.599-0.225-1.216-0.233-1.792-0.001
					c-0.532-0.578,0.306-1.177-0.182-1.716c0.223-0.137,0.403-0.248,0.597-0.368C74.682,19.5,74.164,19.622,74.144,19.136z
					 M74.827,21.018c-0.154,0.038-0.193,0.113-0.159,0.204c0.016,0.043,0.084,0.088,0.131,0.092c0.102,0.008,0.169-0.059,0.159-0.16
					C74.949,21.057,74.874,21.012,74.827,21.018z M75.709,21.175c0.03-0.113-0.046-0.155-0.129-0.177
					c-0.105-0.028-0.157,0.046-0.176,0.132c-0.022,0.099,0.045,0.159,0.132,0.183C75.648,21.343,75.679,21.254,75.709,21.175z"/>
				<path fill="#703491" d="M75.015,17.405c0-0.837,0-1.625,0-2.463c0.261-0.035,0.545-0.162,0.565,0.223
					c0.035,0.675,0.023,1.353,0,2.028C75.569,17.496,75.335,17.491,75.015,17.405z"/>
				<path fill="#733894" d="M35.08,19.148c0.013-0.166-0.025-0.346,0.16-0.506c0.223,0.096,0.266,0.244,0.156,0.458
					C35.291,19.116,35.186,19.132,35.08,19.148z"/>
				<path fill="#733894" d="M89.419,20.961c-0.09,1.149-0.666,1.429-2.584,1.254C86.826,21.102,87.524,20.739,89.419,20.961z"/>
				<path fill="#733894" d="M83.557,20.936c1.954-0.13,2.493,0.152,2.566,1.203C84.514,22.524,83.664,22.141,83.557,20.936z"/>
				<path fill="#733894" d="M87.656,22.774c-1.094,0.896-1.344,0.893-2.273,0C86.138,22.774,86.832,22.774,87.656,22.774z"/>
				<path fill="#733894" d="M87.742,23.849c-0.861,0.731-1.719,0.72-2.434,0C86.123,23.849,86.844,23.849,87.742,23.849z"/>
			</g>
		</g>
		<g>
			<g>
				<path fill="#733894" d="M124.282,18.205c-0.396,0-0.718-0.322-0.718-0.718c0-0.396,0.322-0.718,0.718-0.718
					S125,17.091,125,17.487C125,17.883,124.678,18.205,124.282,18.205z M124.282,16.915c-0.315,0-0.572,0.257-0.572,0.572
					c0,0.315,0.257,0.572,0.572,0.572c0.315,0,0.572-0.257,0.572-0.572C124.854,17.172,124.598,16.915,124.282,16.915z"/>
			</g>
			<g>
				<path fill="#733894" d="M124.243,17.429c0.04,0,0.069-0.008,0.087-0.023c0.017-0.015,0.027-0.039,0.027-0.074
					c0-0.034-0.009-0.058-0.027-0.074c-0.017-0.015-0.047-0.022-0.087-0.022h-0.082v0.193H124.243 M124.161,17.562v0.284h-0.194
					v-0.751h0.296c0.099,0,0.171,0.017,0.217,0.05c0.047,0.033,0.069,0.085,0.069,0.157c0,0.05-0.012,0.09-0.036,0.122
					c-0.024,0.031-0.06,0.055-0.109,0.07c0.027,0.007,0.05,0.02,0.071,0.042c0.021,0.021,0.042,0.053,0.063,0.097l0.106,0.213
					h-0.206l-0.092-0.187c-0.018-0.037-0.037-0.063-0.056-0.076c-0.019-0.014-0.044-0.021-0.076-0.021H124.161"/>
			</g>
		</g>
	</g>
</g>
</svg>
