<?xml version="1.0" encoding="utf-8"?>
<!-- Generator: Adobe Illustrator 20.1.0, SVG Export Plug-In . SVG Version: 6.00 Build 0)  -->
<svg version="1.1" id="logos" xmlns="http://www.w3.org/2000/svg" xmlns:xlink="http://www.w3.org/1999/xlink" x="0px" y="0px"
	 viewBox="0 0 125 40" enable-background="new 0 0 125 40" xml:space="preserve">
<g>
	<g>
		<path fill="#424244" d="M71.372,5.643c-0.938,0-1.876,0.18-2.757,0.525c-1.062-0.349-2.197-0.525-3.384-0.525
			c-3.53,0-7.083,1.547-9.492,4.558c-2.015-2.792-5.434-4.558-9.47-4.558c-1.22,0-2.412,0.2-3.555,0.597
			c-0.796-0.278-1.635-0.419-2.506-0.419c-1.063,0-2.066,0.214-2.972,0.602C36.744,2.801,33.633,0,29.879,0
			c-2.206,0-4.189,0.968-5.551,2.5c-1.332-1.251-3.098-1.96-5.03-1.96H7.513c-4.096,0-7.304,3.213-7.304,7.316
			c0,1.856,0.686,3.606,1.931,4.929c0.935,0.993,2.123,1.68,3.452,2.016c-2.546,3.505-3.98,5.49-4.272,5.911
			c-1.577,2.277-1.759,5.48-0.454,7.97c1.236,2.359,3.581,3.767,6.274,3.767h12.988c1.777,0,3.406-0.604,4.678-1.714
			c1.318,1.226,3.093,1.967,5.073,1.967c2.027,0,3.838-0.777,5.166-2.056c1.327,1.279,3.139,2.056,5.166,2.056
			c1.941,0,3.699-0.683,5.021-1.881c1.322,1.198,3.08,1.881,5.021,1.881c1.058,0,2.056-0.212,2.959-0.596
			c-0.035,0.297-0.058,0.597-0.058,0.903c0,1.714,0.592,3.352,1.667,4.61C56.131,39.154,58.001,40,60.086,40h6.183
			c2.949,0,12.573-1.089,12.573-15.104V13.485C78.841,8.392,74.993,5.643,71.372,5.643z"/>
		<path fill="#141314" d="M7.14,30.456c-1.938,0-3.624-1.009-4.509-2.7c-0.97-1.851-0.838-4.227,0.328-5.912
			c0.446-0.644,3.717-5.149,6.374-8.802H7.513c-1.544,0-2.937-0.577-3.922-1.624c-0.896-0.952-1.39-2.217-1.39-3.564
			c0-2.985,2.333-5.324,5.312-5.324h11.784c2.001,0,3.761,1.035,4.707,2.768c0.997,1.826,0.899,4.076-0.255,5.873
			c-0.463,0.72-3.476,4.902-6.408,8.952h2.786c2.913,0,5.109,2.236,5.109,5.202c0,1.283-0.449,2.502-1.263,3.433
			c-0.958,1.094-2.324,1.697-3.846,1.697H7.14z"/>
		<path fill="#141314" d="M29.879,30.709c-3.099,0-5.436-2.35-5.436-5.467V13.278c0-1.079,0.289-2.099,0.83-2.965
			c-0.54-0.858-0.83-1.851-0.83-2.885c0-2.997,2.438-5.436,5.436-5.436s5.436,2.438,5.436,5.436c0,1.035-0.289,2.028-0.83,2.885
			c0.54,0.866,0.83,1.886,0.83,2.965v11.964C35.314,28.359,32.977,30.709,29.879,30.709z"/>
		<path fill="#141314" d="M50.252,30.709c-2.323,0-4.217-1.321-5.021-3.294c-0.803,1.974-2.698,3.294-5.021,3.294
			c-3.099,0-5.436-2.35-5.436-5.467V13.278c0-3.116,2.336-5.466,5.433-5.466c0.879,0,1.723,0.197,2.481,0.575
			c1.137-0.5,2.338-0.753,3.58-0.753c5.37,0,9.419,3.728,9.419,8.672v8.935C55.688,28.359,53.351,30.709,50.252,30.709z"/>
		<path fill="#141314" d="M60.086,38.008c-1.493,0-2.825-0.597-3.751-1.682c-0.767-0.899-1.19-2.077-1.19-3.317
			c0-2.156,1.194-3.97,2.949-4.786c-2.106-2.133-3.361-5.253-3.361-8.679c0-8.182,5.442-11.909,10.498-11.909
			c1.245,0,2.405,0.232,3.459,0.691c0.825-0.45,1.753-0.691,2.682-0.691c2.722,0,5.477,2.01,5.477,5.851v11.411
			c0,11.834-7.4,13.112-10.581,13.112H60.086z M65.771,18.177c-0.138,0.218-0.29,0.597-0.29,1.118c0,0.521,0.153,0.9,0.29,1.118
			c0.138-0.218,0.29-0.597,0.29-1.118C66.061,18.774,65.908,18.395,65.771,18.177z"/>
		<path fill="#FFFFFF" d="M20.128,21.452H14.74c2.861-3.946,7.344-10.143,7.893-10.998c0.892-1.388,0.971-3.119,0.207-4.519
			c-0.71-1.3-2.034-2.077-3.542-2.077H7.513c-2.234,0-3.985,1.755-3.985,3.996c0,1.007,0.365,1.949,1.029,2.654
			c0.732,0.778,1.782,1.206,2.956,1.206h4.427c-2.847,3.913-7.368,10.132-7.89,10.886c-0.879,1.269-0.979,3.136-0.243,4.54
			c0.662,1.264,1.877,1.988,3.333,1.988h12.988c1.134,0,2.145-0.442,2.847-1.244c0.603-0.689,0.935-1.598,0.935-2.559
			C23.909,23.118,22.283,21.452,20.128,21.452z"/>
		<path fill="#FFFFFF" d="M29.879,3.32c-2.265,0-4.108,1.843-4.108,4.108c0,1.124,0.454,2.143,1.188,2.885
			c-0.741,0.741-1.188,1.779-1.188,2.965v11.964c0,2.36,1.766,4.139,4.108,4.139s4.108-1.779,4.108-4.139V13.278
			c0-1.186-0.447-2.225-1.188-2.965c0.734-0.742,1.188-1.761,1.188-2.885C33.986,5.162,32.144,3.32,29.879,3.32z"/>
		<path fill="#FFFFFF" d="M71.372,8.963c-0.906,0-1.845,0.314-2.599,0.887c-0.91-0.515-2.085-0.887-3.542-0.887
			c-4.417,0-9.17,3.311-9.17,10.581c0,4.416,2.278,8.093,5.562,9.544h-1.413c-2.096,0-3.738,1.723-3.738,3.921
			c0,0.925,0.31,1.797,0.872,2.455c0.67,0.784,1.643,1.217,2.741,1.217h6.183c3.456,0,9.253-1.531,9.253-11.784V13.485
			C75.522,10.378,73.371,8.963,71.372,8.963z M65.771,21.909c-0.764,0-1.618-1.118-1.618-2.614c0-1.496,0.855-2.614,1.618-2.614
			c0.764,0,1.618,1.118,1.618,2.614C67.389,20.791,66.534,21.909,65.771,21.909z"/>
		<path fill="#424244" d="M22.451,16.451v2.062c-0.406-0.138-0.829-0.241-1.267-0.305C21.659,17.551,22.079,16.968,22.451,16.451z"
			/>
		<path fill="#009DDC" d="M19.298,5.851c1.826,0,2.62,2.033,1.66,3.527c-0.759,1.181-10.124,14.066-10.124,14.066s7.967,0,9.295,0
			c2.324,0,2.448,3.693,0,3.693c-1.784,0-11.079,0-12.988,0s-2.199-2.324-1.452-3.402S15.854,9.723,15.854,9.723h-8.34
			c-2.78,0-2.531-3.873,0-3.873H19.298z"/>
		<circle fill="#47AA42" cx="29.879" cy="7.427" r="2.116"/>
		<path fill="#47AA42" d="M27.762,13.278v11.964c0,2.863,4.232,2.863,4.232,0V13.278C31.995,10.415,27.762,10.415,27.762,13.278z"/>
		<g>
			<path fill="#FFFFFF" d="M46.269,8.963c-1.494,0-2.724,0.436-3.64,0.932c-0.678-0.481-1.515-0.755-2.42-0.755
				c-2.34,0-4.105,1.779-4.105,4.138v11.964c0,2.36,1.766,4.139,4.108,4.139s4.108-1.779,4.108-4.139v-8.473
				c0.196-0.504,0.65-0.504,0.83-0.504c0.654,0,0.996,0.046,0.996,1.037v7.939c0,2.36,1.766,4.139,4.108,4.139
				c2.342,0,4.108-1.779,4.108-4.139v-8.935C54.36,12.12,50.881,8.963,46.269,8.963z"/>
		</g>
		<path fill="#EE2375" d="M71.372,10.954c-1.037,0-2.158,0.788-2.158,1.992c0,0-0.996-1.992-3.983-1.992
			c-2.988,0-7.178,2.075-7.178,8.589c0,4.813,3.195,8.216,6.722,8.216c2.407,0,4.44-2.158,4.44-2.158s0,1.452,0,1.992
			c0,1.577-0.747,3.485-3.154,3.485s-4.232,0-5.851,0c-2.158,0-2.448,3.61-0.124,3.61c0,0,2.863,0,6.183,0
			c3.32,0,7.261-1.577,7.261-9.793s0-9.502,0-11.411S72.41,10.954,71.372,10.954z M65.771,23.9c-1.994,0-3.61-2.062-3.61-4.606
			s1.616-4.606,3.61-4.606c1.994,0,3.61,2.062,3.61,4.606S67.764,23.9,65.771,23.9z"/>
		<path fill="#F57B20" d="M46.269,10.954c-2.49,0-4.025,1.68-4.025,1.68l0,0c-0.584-2.199-4.15-1.985-4.15,0.643v11.964
			c0,2.863,4.232,2.863,4.232,0v-8.749c0,0,0.415-2.22,2.822-2.22s2.988,1.66,2.988,3.029s0,6.349,0,7.939
			c0,2.863,4.232,2.863,4.232,0c0,0,0-5.782,0-8.935S49.671,10.954,46.269,10.954z"/>
		<path fill="#818285" d="M100.396,18.61c-0.448-1.354-1.795-2.925-4.334-2.925c-1.95,0-3.195,2.075-3.195,2.075
			s-1.12-2.075-3.444-2.075c-1.992,0-2.822,1.618-2.822,1.618V16.68c0-0.55-0.446-0.996-0.996-0.996
			c-0.55,0-0.996,0.446-0.996,0.996v10.083c0,0.55,0.446,0.996,0.996,0.996c0.55,0,0.996-0.446,0.996-0.996V19.71
			c0-1.203,1.12-2.407,2.49-2.407s2.573,0.581,2.573,3.361v6.1c0,0.55,0.446,0.996,0.996,0.996s0.996-0.446,0.996-0.996v-6.1v-1.492
			c0-0.79,0.913-1.869,2.365-1.869c1.452,0,2.559,0.871,2.559,2.822v6.639c0,0.55,0.446,0.996,0.996,0.996s0.996-0.446,0.996-0.996
			v-7.591C100.57,18.963,100.505,18.77,100.396,18.61z"/>
		<path fill="#818285" d="M108.219,15.685c-1.826,0-2.946,1.535-2.946,1.535V16.68c0-0.55-0.446-0.996-0.996-0.996
			s-0.996,0.446-0.996,0.996V31.3c0,0.55,0.446,0.996,0.996,0.996s0.996-0.446,0.996-0.996v-4.952c0,0,1.286,1.411,3.154,1.411
			s4.896-1.867,4.896-6.037S110.501,15.685,108.219,15.685z M108.331,26.238c-1.827,0-3.307-2.01-3.307-4.488
			c0-2.479,1.481-4.488,3.307-4.488s3.307,2.01,3.307,4.488C111.639,24.229,110.158,26.238,108.331,26.238z"/>
		<path fill="#818285" d="M119.837,11.66c1.784,0,4.066,1.535,4.066,4.025c0,1.95-1.037,2.946-1.909,3.485
			c1.328,0.29,2.739,1.95,2.739,4.149s-2.324,4.44-4.896,4.44s-4.066-1.369-4.564-3.278s1.203-1.867,1.577-0.83
			c0.373,1.037,0.871,2.531,2.863,2.531s3.112-1.743,3.112-3.154c0-1.411-0.913-2.822-3.278-2.822c-1.162,0-1.203-1.452-0.083-1.577
			s2.614-0.747,2.614-2.78c0-1.411-0.996-2.407-2.407-2.407c-1.411,0-2.241,1.328-2.241,2.365s-1.743,1.162-1.743-0.29
			S117.098,11.66,119.837,11.66z"/>
	</g>
	<rect x="0" y="0" fill="none" width="125" height="40"/>
</g>
</svg>
