<?xml version="1.0" encoding="utf-8"?>
<!-- Generator: Adobe Illustrator 20.1.0, SVG Export Plug-In . SVG Version: 6.00 Build 0)  -->
<svg version="1.1" id="logos" xmlns="http://www.w3.org/2000/svg" xmlns:xlink="http://www.w3.org/1999/xlink" x="0px" y="0px"
	 viewBox="0 0 125 40" enable-background="new 0 0 125 40" xml:space="preserve">
<g>
	<g>
		<g>
			<path fill="#010202" d="M25.512,14.847c-1.53,0-4.028,0.716-5.429,1.344c-0.215,0.097-0.306,0.353-0.202,0.564l1.214,2.465
				c0.117,0.238,0.422,0.308,0.63,0.145c0.689-0.541,2.156-1.56,3.43-1.56c1.735,0,3.01,1.684,3.01,4.541c0,0.496,0,1.222,0,2.082
				c-0.588-0.325-1.844-0.908-3.316-0.908c-2.041,0-6.531,1.327-6.531,8.469c0,5.51,3.827,8.01,5.918,8.01
				c1.531,0,3.01-1.02,4.541-2.5l0.756,1.646c0.068,0.148,0.216,0.243,0.379,0.243h1.51c0.23,0,0.417-0.187,0.417-0.417V25.459
				C31.839,22.755,32.196,14.847,25.512,14.847z M28.165,35.663c0,0-1.327,1.327-2.857,1.327c-1.531,0-3.214-2.092-3.214-5.153
				s1.02-5.561,3.265-5.561c1.46,0,2.356,0.689,2.806,1.172C28.165,31.306,28.165,35.663,28.165,35.663z"/>
			<path fill="#010202" d="M45.206,15.357c-2.624,0-4.234,0.948-5.051,1.626v-1.065c0-0.31-0.251-0.561-0.561-0.561h-2.602
				c-0.31,0-0.561,0.251-0.561,0.561v22.909c0,0.31,0.251,0.561,0.561,0.561h2.602c0.31,0,0.561-0.251,0.561-0.561V19.09
				c0.462-0.377,1.479-0.978,3.265-0.978c1.786,0,2.857,1.224,2.857,2.398v18.317c0,0.31,0.252,0.562,0.562,0.562h2.499
				c0.31,0,0.562-0.252,0.562-0.562V19.898C49.9,18.622,49.288,15.357,45.206,15.357z"/>
			<path fill="#010202" d="M68.131,3.526h-3.128c-0.16,0-0.29,0.13-0.29,0.29V15.56c-0.544-0.287-1.597-0.713-3.073-0.713
				c-2.225,0-7.947,1.938-7.947,12.526c0,8.151,3.126,12.627,7.099,12.627c2.649,0,4.556-2.198,4.556-2.198l0.817,1.44
				c0.052,0.091,0.148,0.147,0.252,0.147h1.713c0.16,0,0.29-0.13,0.29-0.29V3.816C68.421,3.655,68.291,3.526,68.131,3.526z
				 M64.712,36.16c0,0-1.218,0.83-2.649,0.83s-4.715-1.191-4.715-9.566c0-5.409,1.854-9.7,4.609-9.7
				c0.976,0,2.079,0.598,2.755,1.035V36.16z"/>
			<path fill="#010202" d="M79.493,14.916c-3.179,0-7.205,3.935-7.205,12.457c0,6.721,2.119,12.337,7.788,12.337
				c2.471,0,4.565-0.959,5.291-1.335c0.157-0.081,0.229-0.265,0.169-0.431l-0.566-1.548c-0.066-0.18-0.265-0.275-0.446-0.209
				c-0.508,0.186-1.604,0.504-3.176,0.504c-2.225,0-5.298-1.324-5.298-8.371c0-0.13,0.001-0.266,0.001-0.406l9.193,0.281
				c0.332,0.01,0.607-0.256,0.607-0.589v-0.558C85.851,23.339,85.109,14.916,79.493,14.916z M76.116,25.582
				c0.188-3.556,0.879-7.858,3.271-7.858c2.013,0,2.702,3.708,2.702,7.576L76.116,25.582z"/>
			<path fill="#010202" d="M101.55,15.357h-2.406c-0.221,0-0.419,0.137-0.497,0.344l-3.102,8.221l-3.154-8.224
				c-0.079-0.205-0.276-0.341-0.496-0.341h-2.83c-0.388,0-0.645,0.402-0.482,0.754l4.895,10.565l-5.139,11.971
				c-0.15,0.351,0.107,0.741,0.488,0.741h2.318c0.224,0,0.424-0.14,0.5-0.351l3.317-9.183l3.421,9.187
				c0.077,0.208,0.276,0.346,0.498,0.346h2.404c0.382,0,0.639-0.391,0.488-0.742L96.87,27.313l5.162-11.202
				C102.195,15.759,101.938,15.357,101.55,15.357z"/>
		</g>
		<path fill="#E52620" d="M21.113,0h-3.423c-0.187,0-0.353,0.121-0.409,0.299c-0.792,2.5-6.281,19.855-6.566,21.566L4.208,3.806
			c-0.061-0.17-0.223-0.284-0.404-0.284H0.43c-0.302,0-0.51,0.304-0.4,0.585l8.38,21.499V38.96c0,0.237,0.192,0.429,0.429,0.429
			h2.933c0.237,0,0.429-0.192,0.429-0.429V25.555l9.314-24.975C21.62,0.299,21.413,0,21.113,0z"/>
	</g>
	<rect x="0" y="0" fill="none" width="125" height="40"/>
</g>
</svg>
