<?xml version="1.0" encoding="utf-8"?>
<!-- Generator: Adobe Illustrator 19.2.0, SVG Export Plug-In . SVG Version: 6.00 Build 0)  -->
<svg version="1.1" xmlns="http://www.w3.org/2000/svg" xmlns:xlink="http://www.w3.org/1999/xlink" x="0px" y="0px"
	 viewBox="0 0 125 40" enable-background="new 0 0 125 40" xml:space="preserve">
<g id="bg" display="none">
	<rect display="inline" fill="#FFFFFF" width="125" height="40"/>
</g>
<g id="icons">
	<g>
		<g>
			<circle cx="20" cy="20" r="1.6"/>
			<path d="M21.04,0.026C9.177-0.574-0.574,9.169,0.026,21.04C0.538,31.199,8.793,39.454,18.96,39.974
				c11.863,0.6,21.614-9.151,21.014-21.014C39.454,8.801,31.199,0.546,21.04,0.026z M14.681,5.65
				c0.08,0.384-0.128,0.768-0.496,0.904c-0.904,0.344-2.672,1.216-4.663,3.208c-2.032,2.032-2.888,3.8-3.216,4.687
				c-0.128,0.352-0.496,0.552-0.864,0.48H5.426c-0.488-0.096-0.776-0.608-0.6-1.064c0.416-1.088,1.392-3.04,3.568-5.223
				c2.184-2.184,4.143-3.16,5.223-3.576C14.081,4.882,14.585,5.17,14.681,5.65L14.681,5.65z M15.593,10.553
				c0.072,0.352-0.104,0.712-0.432,0.856c-0.496,0.232-1.28,0.688-2.144,1.552c-0.872,0.872-1.328,1.648-1.552,2.144
				c-0.152,0.328-0.504,0.504-0.856,0.432l-0.016-0.008c-0.504-0.104-0.792-0.648-0.576-1.112c0.296-0.648,0.856-1.576,1.872-2.592
				s1.944-1.576,2.592-1.872c0.464-0.216,1.008,0.072,1.112,0.576V10.553z M20.784,25.951c-3.928,0.496-7.223-2.808-6.727-6.727
				c0.336-2.672,2.496-4.831,5.167-5.167c3.927-0.496,7.223,2.808,6.727,6.727C25.615,23.456,23.456,25.615,20.784,25.951z
				 M24.631,29.575c-0.072-0.36,0.112-0.728,0.448-0.88c0.496-0.232,1.264-0.688,2.12-1.544c0.864-0.864,1.312-1.624,1.544-2.12
				c0.16-0.336,0.52-0.52,0.88-0.448l0,0c0.504,0.104,0.792,0.648,0.576,1.112c-0.296,0.648-0.856,1.576-1.872,2.592
				s-1.936,1.568-2.592,1.872C25.279,30.367,24.735,30.079,24.631,29.575L24.631,29.575z M31.543,31.775
				c-2.184,2.184-4.135,3.16-5.223,3.568c-0.464,0.176-0.968-0.112-1.064-0.592l0,0c-0.08-0.384,0.128-0.76,0.496-0.904
				c0.904-0.344,2.672-1.216,4.663-3.208c2.024-2.024,2.888-3.791,3.216-4.679c0.136-0.352,0.504-0.552,0.872-0.48h0.016
				c0.488,0.096,0.768,0.6,0.6,1.064C34.702,27.631,33.718,29.591,31.543,31.775z"/>
		</g>
		<g>
			<path d="M50.858,26.806l-3.015-16.232h3.293l1.971,11.664h0.046l5.82-11.664h3.618l-8.65,16.232H50.858z"/>
			<path d="M61.895,26.806l2.157-12.29h3.131l-2.157,12.29H61.895z M64.33,12.73l0.51-2.852h3.014l-0.51,2.852H64.33z"/>
			<path d="M67.97,26.806l2.157-12.29h2.898l-0.209,1.183h0.047c0.881-1.021,2.041-1.531,3.478-1.531
				c1.252,0,2.226,0.445,2.921,1.333c0.696,0.889,0.896,2.145,0.603,3.768l-1.322,7.536h-3.038l1.298-7.304
				c0.293-1.701-0.309-2.551-1.809-2.551c-0.695,0-1.279,0.197-1.751,0.591c-0.472,0.394-0.769,0.909-0.893,1.542l-1.368,7.722
				H67.97z"/>
			<path d="M84.736,32.023h-3.107l3.386-6.006l-2.852-11.501h3.108l1.739,7.838h0.047l4.173-7.838h3.432L84.736,32.023z"/>
			<path d="M94.196,26.806l2.991-16.927h3.131l-2.991,16.927H94.196z"/>
		</g>
	</g>
</g>
</svg>
