<?xml version="1.0" encoding="utf-8"?>
<!-- Generator: Adobe Illustrator 16.0.0, SVG Export Plug-In . SVG Version: 6.00 Build 0)  -->
<!DOCTYPE svg PUBLIC "-//W3C//DTD SVG 1.1//EN" "http://www.w3.org/Graphics/SVG/1.1/DTD/svg11.dtd">
<svg version="1.1" id="Layer_2" xmlns="http://www.w3.org/2000/svg" xmlns:xlink="http://www.w3.org/1999/xlink" x="0px" y="0px"
	 width="125px" height="40px" viewBox="0 0 125 40" enable-background="new 0 0 125 40" xml:space="preserve">
<g>
	<g>
		<g>
			<g>
				<g>
					<path fill="#007DC6" d="M64.6,22c0-2.6-1.1-4.9-4.9-4.9c-1.9,0-3.5,0.5-4.3,1l0.6,2.1c0.8-0.5,2-0.9,3.1-0.9
						c1.9,0,2.2,1.1,2.2,1.8v0.2c-4.1,0-6.8,1.4-6.8,4.4c0,1.8,1.3,3.5,3.7,3.5c1.4,0,2.6-0.6,3.3-1.5h0.1c0,0,0.5,2,3.1,1.2
						c-0.1-0.8-0.2-1.7-0.2-2.8 M61.5,24.8c0,0.2,0,0.4-0.1,0.6c-0.2,0.8-1.1,1.5-2.1,1.5c-0.9,0-1.5-0.5-1.5-1.5c0-1.6,1.7-2,3.7-2
						V24.8z"/>
					<path fill="#007DC6" d="M0,13.6c0,0,2.7,11.1,3.1,12.9c0.5,2.1,1.4,2.9,4,2.4L8.9,22c0.4-1.7,0.7-2.9,1-4.7h0
						c0.2,1.8,0.5,3,0.8,4.7c0,0,0.7,3.1,1,4.8c0.4,1.6,1.3,2.7,3.9,2.1l4-15.3h-3.3l-1.4,6.6c-0.4,1.9-0.7,3.4-1,5.2h0
						c-0.2-1.7-0.5-3.2-0.9-5.1l-1.4-6.7H8.3l-1.5,6.6c-0.4,2-0.8,3.6-1.1,5.3h0c-0.3-1.6-0.6-3.6-1-5.6c0,0-0.9-4.7-1.2-6.3"/>
					<path fill="#007DC6" d="M29,22c0-2.6-1.1-4.9-4.9-4.9c-1.9,0-3.5,0.5-4.3,1l0.6,2.1c0.8-0.5,2-0.9,3.1-0.9
						c1.9,0,2.2,1.1,2.2,1.8v0.2c-4.1,0-6.8,1.4-6.8,4.4c0,1.8,1.3,3.5,3.7,3.5c1.4,0,2.6-0.6,3.3-1.5h0.1c0,0,0.5,2,3.1,1.2
						C29,28,29,27.2,29,26.1 M25.9,24.8c0,0.2,0,0.4-0.1,0.6c-0.2,0.8-1.1,1.5-2.1,1.5c-0.9,0-1.5-0.5-1.5-1.5c0-1.6,1.7-2,3.7-2
						V24.8z"/>
					<polyline fill="#007DC6" points="34.1,25.6 34.1,13.6 31,13.6 31,28.9 34.1,28.9 					"/>
					<path fill="#007DC6" d="M74.7,13.6v11.3c0,1.6,0.3,2.6,0.9,3.3c0.5,0.6,1.4,1,2.5,1c0.9,0,1.8-0.2,2.2-0.3l0-2.4
						c-0.3,0.1-0.7,0.1-1.2,0.1c-1.1,0-1.4-0.7-1.4-2.1v-4.3h2.7v-2.9h-2.7v-3.6"/>
					<path fill="#007DC6" d="M66.7,17.4v11.5h3.2V23c0-0.3,0-0.6,0.1-0.8c0.2-1.2,1.2-2,2.5-2c0.4,0,0.6,0,0.9,0.1v-3
						c-0.2,0-0.4-0.1-0.7-0.1c-1.2,0-2.6,0.8-3.1,2.4h-0.1v-2.2"/>
					<path fill="#007DC6" d="M36.3,17.4v11.5h3.1v-6.7c0-0.3,0-0.7,0.1-0.9c0.3-0.7,0.9-1.5,1.9-1.5c1.3,0,1.8,1.1,1.8,2.6v6.5h3.1
						v-6.8c0-0.3,0-0.7,0.1-0.9c0.3-0.8,0.9-1.4,1.9-1.4c1.3,0,1.9,1,1.9,2.9v6.3h3.1v-6.8c0-3.6-1.8-5-3.9-5
						c-0.9,0-1.6,0.2-2.3,0.6c-0.5,0.3-1,0.8-1.5,1.4h0c-0.5-1.2-1.7-2.1-3.2-2.1c-1.9,0-2.8,1-3.3,1.8h0v-1.6"/>
					<path fill="#FDBB30" d="M97.2,15.7c0.6,0,1.1-0.3,1.2-0.7L99,8.1c0-0.7-0.8-1.2-1.8-1.2c-1,0-1.8,0.6-1.8,1.2L96,15
						C96.1,15.4,96.6,15.7,97.2,15.7"/>
					<path fill="#FDBB30" d="M93.5,17.9c0.3-0.5,0.3-1.1,0-1.4l-5.7-4c-0.6-0.3-1.5,0.1-2,0.9c-0.5,0.9-0.4,1.8,0.2,2.2l6.3,2.9
						C92.7,18.7,93.2,18.4,93.5,17.9"/>
					<path fill="#FDBB30" d="M100.9,17.9c0.3,0.5,0.8,0.8,1.2,0.7l6.3-2.9c0.6-0.3,0.7-1.3,0.2-2.2c-0.5-0.9-1.4-1.3-2-0.9l-5.7,4
						C100.7,16.7,100.6,17.3,100.9,17.9"/>
					<path fill="#FDBB30" d="M97.2,24.3c0.6,0,1.1,0.3,1.2,0.7l0.6,6.9c0,0.7-0.8,1.2-1.8,1.2c-1,0-1.8-0.6-1.8-1.2L96,25
						C96.1,24.6,96.6,24.3,97.2,24.3"/>
					<path fill="#FDBB30" d="M100.9,22.2c0.3-0.5,0.8-0.8,1.2-0.7l6.3,2.9c0.6,0.3,0.7,1.3,0.2,2.2c-0.5,0.9-1.4,1.3-2,0.9l-5.7-4
						C100.7,23.3,100.6,22.7,100.9,22.2"/>
					<path fill="#FDBB30" d="M93.5,22.2c0.3,0.5,0.3,1.1,0,1.4l-5.7,4c-0.6,0.3-1.5-0.1-2-0.9c-0.5-0.9-0.4-1.8,0.2-2.2l6.3-2.9
						C92.7,21.3,93.2,21.6,93.5,22.2"/>
				</g>
			</g>
		</g>
	</g>
</g>
</svg>
