<?xml version="1.0" encoding="utf-8"?>
<!-- Generator: Adobe Illustrator 16.0.0, SVG Export Plug-In . SVG Version: 6.00 Build 0)  -->
<!DOCTYPE svg PUBLIC "-//W3C//DTD SVG 1.1//EN" "http://www.w3.org/Graphics/SVG/1.1/DTD/svg11.dtd">
<svg version="1.1" xmlns="http://www.w3.org/2000/svg" xmlns:xlink="http://www.w3.org/1999/xlink" x="0px" y="0px" width="125px"
	 height="40px" viewBox="0 0 125 40" enable-background="new 0 0 125 40" xml:space="preserve">
<g id="Layer_1">
	<g>
		<g>
			<g>
				<path fill-rule="evenodd" clip-rule="evenodd" fill="#5FABC2" d="M96.492,1.264c0-1.719,0.142-1.608-1.584-1.608
					c-15.523,0-31.048,0-46.572,0c-15.643,0-31.285,0-46.928-0.001c-1.48,0-1.408-0.053-1.406,1.432c0,0.079,0,0.158,0,0.236
					c0,12.49-0.001,24.98,0,37.472c0,1.654-0.109,1.549,1.524,1.549c31.167,0.001,62.334,0,93.501,0.001
					c1.566,0,1.466,0.058,1.466-1.491C96.493,26.324,96.493,13.794,96.492,1.264z"/>
				<g>
					<path fill-rule="evenodd" clip-rule="evenodd" fill="#FFFFFF" d="M46.93,16.213c-0.055-0.317-0.096-0.467-0.104-0.619
						c-0.09-1.823,0.035-2.105,1.795-2.35c2.078-0.29,4.186-0.382,5.976,1.072c2.188,1.777,3.18,4.044,2.743,6.864
						c-0.212,1.37-0.579,2.681-1.516,3.777c-1.209,1.417-2.7,2.268-4.569,2.369c-1.62,0.089-3.262,0.102-4.681-0.845
						c-1.957-1.305-3.293-2.997-3.276-5.516c0.027-4.41,0.016-8.82-0.001-13.231c-0.003-0.691,0.127-1.233,0.836-1.518
						c0.774-0.312,1.549,0.072,1.696,0.9c0.054,0.306,0.027,0.628,0.027,0.943c0.001,4.095-0.005,8.191,0.003,12.286
						c0.004,2.53,1.407,4.256,3.863,4.745c1.434,0.286,2.686-0.203,3.663-1.188c1.423-1.434,1.925-3.197,1.413-5.195
						c-0.519-2.025-2.033-3.276-4.141-3.434c-0.963-0.071-1.882,0.071-2.752,0.502C47.63,15.915,47.344,16.029,46.93,16.213z"/>
					<path fill-rule="evenodd" clip-rule="evenodd" fill="#FFFFFF" d="M22.461,23.972c0,0.777,0.049,1.365-0.021,1.938
						c-0.032,0.275-0.266,0.539-0.446,0.778c-0.088,0.116-0.258,0.179-0.402,0.237c-1.849,0.754-5.812,0.772-7.598-1.338
						c-1.153-1.363-1.835-2.899-1.941-4.703c-0.096-1.615,0.119-3.139,1.008-4.524c1.266-1.975,2.966-3.188,5.408-3.242
						c1.57-0.035,3.043,0.153,4.396,1.032c1.919,1.249,3.063,3.031,3.124,5.268c0.118,4.484,0.043,8.975,0.033,13.463
						c-0.001,0.869-0.473,1.309-1.3,1.293c-0.778-0.015-1.276-0.515-1.278-1.356c-0.01-4.291-0.08-8.584,0.025-12.873
						c0.056-2.271-1.719-4.061-3.445-4.52c-0.978-0.259-1.908-0.175-2.75,0.265c-3.271,1.712-3.578,5.788-1.326,8.235
						c0.958,1.041,3.144,1.848,5.145,0.797C21.47,24.524,21.842,24.312,22.461,23.972z"/>
					<path fill-rule="evenodd" clip-rule="evenodd" fill="#FFFFFF" d="M34.628,27.348c-3.894,0.344-7.27-3.074-7.14-6.951
						c0.15-4.513,3.018-7.398,7.639-7.392c3.488,0.005,6.861,2.497,6.869,7.339C42.003,24.385,38.882,27.62,34.628,27.348z
						 M34.817,25.206c2.265,0.18,4.732-2.279,4.667-4.96c-0.062-2.597-1.757-4.936-4.831-4.876c-2.718,0.053-4.61,2.111-4.572,5.017
						C30.119,23.266,32.118,25.25,34.817,25.206z"/>
					<path fill-rule="evenodd" clip-rule="evenodd" fill="#FFFFFF" d="M70.955,18.561c0,1.26-0.028,2.521,0.006,3.781
						c0.072,2.688-2.391,4.772-4.767,4.977c-0.626,0.054-1.26,0.027-1.89,0.015c-2.709-0.056-4.969-1.948-5.133-4.853
						c-0.152-2.709-0.048-5.434-0.029-8.151c0.005-0.8,0.539-1.212,1.414-1.196c0.771,0.014,1.144,0.349,1.151,1.173
						c0.022,2.403,0.013,4.805,0.009,7.208c-0.002,1.069,0.295,2.009,1.088,2.771c1.063,1.021,2.371,0.872,3.561,0.533
						c1.154-0.329,1.882-1.282,1.971-2.55c0.062-0.863,0.033-1.732,0.035-2.599c0.005-1.694-0.013-3.388,0.01-5.081
						c0.012-0.924,0.512-1.432,1.343-1.455c0.843-0.023,1.282,0.374,1.249,1.175C70.913,15.723,70.955,17.143,70.955,18.561z"/>
					<path fill-rule="evenodd" clip-rule="evenodd" fill="#FFFFFF" d="M79.916,15.504c-2.098,0-3.943,0.01-5.789-0.004
						c-0.777-0.006-1.132-0.305-1.247-0.964c-0.124-0.707,0.345-1.372,1.058-1.379c2.362-0.023,4.727-0.072,7.085,0.015
						c1.772,0.066,2.46,1.75,1.368,3.241c-1.067,1.458-2.195,2.871-3.298,4.303c-0.815,1.058-1.638,2.112-2.444,3.176
						c-0.183,0.241-0.314,0.521-0.544,0.907c0.408,0.062,0.696,0.141,0.985,0.143c1.613,0.013,3.228,0.006,4.842,0.007
						c0.275,0,0.554-0.02,0.826,0.016c0.628,0.081,0.969,0.503,0.948,1.13c-0.022,0.657-0.332,0.994-1.026,1.009
						c-1.181,0.024-2.361,0.009-3.543,0.009c-1.535,0.001-3.07,0.014-4.605-0.005c-1.139-0.014-1.886-0.961-1.57-2.057
						c0.159-0.551,0.437-1.103,0.787-1.556c1.849-2.394,3.739-4.755,5.611-7.131C79.523,16.154,79.651,15.916,79.916,15.504z"/>
				</g>
			</g>
		</g>
	</g>
</g>
<g id="Layer_2">
</g>
<g id="template" display="none">
</g>
</svg>
