<?xml version="1.0" encoding="utf-8"?>
<!-- Generator: Adobe Illustrator 25.4.0, SVG Export Plug-In . SVG Version: 6.00 Build 0)  -->
<svg version="1.1" id="logos" xmlns="http://www.w3.org/2000/svg" xmlns:xlink="http://www.w3.org/1999/xlink" x="0px" y="0px"
	 viewBox="0 0 125 40" enable-background="new 0 0 125 40" xml:space="preserve">
<g>
	<rect width="125" height="40"/>
	<g>
		<rect x="9.465" y="10.895" fill="#00FF99" width="2.557" height="17.894"/>
		<rect x="9.465" y="28.789" fill="#00CCFF" width="17.879" height="2.512"/>
		<polygon fill="#FF6666" points="24.824,13.419 24.824,10.895 22.23,10.895 22.23,8.306 19.658,8.306 19.658,16.013 27.343,16.013 
			27.343,13.419 		"/>
		<g>
			<polygon fill="#9933FF" points="24.824,18.636 24.824,28.789 27.343,28.789 27.343,16.013 			"/>
			<polygon fill="#62259F" points="24.824,16.013 24.824,18.636 27.343,16.013 			"/>
		</g>
		<g>
			<polygon fill="#FFF35C" points="9.464,8.306 9.464,10.895 17.003,10.895 19.658,8.306 			"/>
			<polygon fill="#9F983D" points="17.003,10.895 19.658,10.895 19.658,8.306 			"/>
		</g>
		<g>
			<path fill="#FFFFFF" d="M42.579,21.812h4.771v1.911c-0.92,0.791-2.118,1.271-3.43,1.271c-2.904,0-5.257-2.339-5.257-5.225
				c0-2.886,2.354-5.225,5.257-5.225c1.481,0,2.816,0.611,3.772,1.59l3.268-2.642c-1.798-2.053-4.45-3.353-7.409-3.353
				c-5.417,0-9.807,4.348-9.807,9.711c0,5.363,4.391,9.711,9.807,9.711c3.22,0,6.078-1.537,7.866-3.91v-7.923h-8.837V21.812z"/>
			<rect x="53.912" y="10.875" fill="#FFFFFF" width="4.818" height="17.86"/>
			<path fill="#FFFFFF" d="M71.057,10.875h-9.082v17.86h4.759V24.03h4.323c3.633,0,6.578-2.945,6.578-6.578v0
				C77.635,13.82,74.69,10.875,71.057,10.875z M70.432,19.625H66.67v-4.373h3.762c1.208,0,2.187,0.979,2.187,2.187
				C72.618,18.646,71.639,19.625,70.432,19.625z"/>
			<polygon fill="#FFFFFF" points="91.108,17.728 84.484,17.728 84.484,10.875 79.468,10.875 79.468,28.735 84.484,28.735 
				84.484,22.165 91.108,22.165 91.108,28.735 95.738,28.735 95.738,10.875 91.108,10.875 			"/>
			<polygon fill="#FFFFFF" points="110.53,10.875 106.896,16.956 103.198,10.875 97.282,10.875 104.227,21.779 104.227,28.735 
				109.179,28.735 109.179,21.458 116.511,10.875 			"/>
		</g>
	</g>
</g>
</svg>
