<?xml version="1.0" encoding="utf-8"?>
<!-- Generator: Adobe Illustrator 20.1.0, SVG Export Plug-In . SVG Version: 6.00 Build 0)  -->
<svg version="1.1" id="logos" xmlns="http://www.w3.org/2000/svg" xmlns:xlink="http://www.w3.org/1999/xlink" x="0px" y="0px"
	 viewBox="0 0 125 40" style="enable-background:new 0 0 125 40;" xml:space="preserve">
<style type="text/css">
	.st0{fill:#8FA1B2;}
	.st1{fill:#010101;}
	.st2{fill:#D12B40;}
	.st3{fill:#0178AE;}
	.st4{fill:none;}
</style>
<polygon class="st0" points="3,15 0,15 3.2,20.1 2.3,25.4 4.6,25.4 5.5,20.2 10,15 7.1,15 4.6,17.9 "/>
<polygon class="st0" points="17.1,17 17.4,15 11.4,15 9.8,25.4 15.6,25.4 15.9,23.4 12.6,23.4 13,21.1 16.2,21.1 16.6,19.1 
	13.3,19.1 13.7,17 "/>
<path class="st0" d="M24.8,17l1-1.5c0,0-1.4-0.8-2.9-0.8s-3.8,0.9-4.1,3.5c-0.2,1.7,1.3,2.5,2.6,2.7c2.4,0.3,1.8,2.9-0.5,2.9
	c-1.6,0-2.2-1.2-2.2-1.2l-1.2,2c0,0,1.4,0.9,3.3,0.9s4.3-1.2,4.7-3.4c0.4-2.2-1.3-2.8-2.5-3c-1.2-0.3-1.7-1.6-1-2.3
	C22.6,16.2,23.7,16.2,24.8,17z"/>
<path class="st1" d="M35,14.7c-1.7,0-3.6,0.6-4.8,3.7h2.6c0-0.5,0.4-1.9,1.6-1.9s1.6,2.3,0.5,3.4S29,25.5,29,25.5h8.3l0.2-2h-3.6
	c0,0,1.9-1.6,2.6-2.4s1.6-1.8,1.6-3.1C38.2,16.7,37.5,14.7,35,14.7z"/>
<path class="st1" d="M48,21.6h-1.3l1.1-6.5h-3.3l-5.6,6.7l-0.2,1.7H44l-0.4,2.1H46l0.4-2.1h1.4L48,21.6z M41.7,21.6l3.6-4.6
	l-0.9,4.6H41.7z"/>
<path class="st0" d="M53.7,22.9c-1.3-0.9-3.3,1.1-1.9,2.5C53.1,26.5,55.7,24.2,53.7,22.9z"/>
<path class="st0" d="M64.9,17.7l0.4-2.3c0,0-1.2-0.7-2.6-0.7s-5.6,1.2-6.2,6.1c-0.3,2.4,2.3,6.2,7.3,4.3l0.5-2.7
	c0,0-0.6,0.9-2.6,0.9c-2.1,0-3.5-1.8-2.5-4.1C60.1,17,63,15.8,64.9,17.7z"/>
<path class="st0" d="M72.7,14.6c-1.9,0-6,1.7-6.6,6.3c-0.4,3.1,3.1,5.3,6.2,4.6c3.1-0.7,5.5-3.5,5.6-6.2
	C78,16.6,75.9,14.6,72.7,14.6z M74.6,22c-1.3,1.6-3.3,1.9-4.8,1.1c-1.4-0.8-1.6-3.4,0-5.1c1.6-1.8,3.9-1.3,4.9-0.2
	C75.7,18.6,75.9,20.4,74.6,22z"/>
<polygon class="st0" points="84.1,14.9 81.8,14.9 78.1,25.4 80.3,25.4 82.5,18.9 82.6,18.9 84.2,25.4 85.1,25.4 88.9,18.9 89,25.4 
	91.3,25.4 91.3,14.9 88.9,14.9 85.5,21 "/>
<path class="st2" d="M38.5,3.4c-1-0.2-1.7,0.6-2.5,3.1s-1.5,4.9,0.5,5.1c1.2,0,1.4-0.8,1.5-1.3c0.1-0.6,1-3.4,1.3-4.2
	C39.7,5.1,39.5,3.6,38.5,3.4z"/>
<path class="st2" d="M45.8,3.4c-1-0.2-1.7,0.6-2.5,3.1s-1.4,4.8,0.5,5c1.2,0,1.4-0.8,1.5-1.3c0.1-0.6,1-3.4,1.3-4.2
	C47,5.1,46.8,3.6,45.8,3.4z"/>
<path class="st3" d="M24.9,27.8c-0.8,0.5-1,1.2-0.3,2.3s4.3,7.1,13.4,7.1c8.3,0,12.5-3.7,14.7-7.6c0.3-0.6,0.1-1.6-0.6-2
	c-0.8-0.4-1.4-0.2-1.8,0.4c-0.4,0.5-2.9,6.4-11.5,6.4c-6.7,0-9-2.7-10-3.8c-1-1.1-1.4-2-1.8-2.5S26,27.1,24.9,27.8z"/>
<rect class="st4" width="125" height="40"/>
</svg>
