<?xml version="1.0" encoding="utf-8"?>
<!-- Generator: Adobe Illustrator 20.1.0, SVG Export Plug-In . SVG Version: 6.00 Build 0)  -->
<svg version="1.1" id="logos" xmlns="http://www.w3.org/2000/svg" xmlns:xlink="http://www.w3.org/1999/xlink" x="0px" y="0px"
	 viewBox="0 0 125 40" enable-background="new 0 0 125 40" xml:space="preserve">
<g>
	<g>
		<path d="M4.917,9.064H0v21.872h4.917c2.775,0,5.025-2.203,5.025-6.234v-9.404C9.942,12.523,8.759,9.064,4.917,9.064z
			 M7.201,25.884c0,1.336-1.083,2.418-2.418,2.418H2.741V11.751h2.042c1.336,0,2.418,1.083,2.418,2.418V25.884z"/>
		<path d="M119.975,9.064h-4.917v21.872h4.917c2.775,0,5.025-2.203,5.025-6.234v-9.404C125,12.523,123.818,9.064,119.975,9.064z
			 M122.259,25.884c0,1.336-1.083,2.418-2.418,2.418h-2.042V11.751h2.042c1.336,0,2.418,1.083,2.418,2.418V25.884z"/>
		<path d="M20.34,9.064h-0.752c-2.686,0-4.863,1.988-4.863,6.502v8.867c0,4.729,2.177,6.502,4.863,6.502h0.752
			c2.686,0,4.863-2.15,4.863-6.502v-8.867C25.203,10.945,23.026,9.064,20.34,9.064z M22.463,25.804c0,1.38-1.119,2.499-2.499,2.499
			c-1.38,0-2.499-1.119-2.499-2.499V14.169c0-1.336,1.083-2.418,2.418-2.418h0.161c1.336,0,2.418,1.083,2.418,2.418V25.804z"/>
		<path d="M89.456,9.064h-0.752c-2.686,0-4.863,1.988-4.863,6.502v8.867c0,4.729,2.177,6.502,4.863,6.502h0.752
			c2.686,0,4.863-2.15,4.863-6.502v-8.867C94.32,10.945,92.142,9.064,89.456,9.064z M91.579,25.804c0,1.38-1.119,2.499-2.499,2.499
			c-1.38,0-2.499-1.119-2.499-2.499V14.169c0-1.336,1.083-2.418,2.418-2.418h0.161c1.336,0,2.418,1.083,2.418,2.418V25.804z"/>
		<polygon points="44.334,23.305 41.164,9.064 39.068,9.064 35.951,23.412 32.673,9.064 29.986,9.064 34.822,30.936 36.918,30.936 
			40.196,16.641 43.259,30.936 45.463,30.936 50.353,9.064 47.612,9.064 		"/>
		<polygon points="62.283,22.445 56.748,9.064 54.545,9.064 54.545,30.936 57.231,30.936 57.231,17.394 62.766,30.936 
			65.024,30.936 65.024,9.064 62.283,9.064 		"/>
		<polygon points="72.923,9.064 70.182,9.064 70.182,30.936 79.694,30.936 79.694,28.41 72.923,28.41 		"/>
		<path d="M104.135,9.064l-4.954,21.872h2.774l1.397-6.063h3.994l1.397,6.063h2.774l-5.251-21.872H104.135z M103.991,22.098
			l1.358-5.895l1.358,5.895H103.991z"/>
	</g>
	<rect x="0" y="0" fill="none" width="125" height="40"/>
</g>
</svg>
