<?xml version="1.0" encoding="utf-8"?>
<!-- Generator: Adobe Illustrator 20.1.0, SVG Export Plug-In . SVG Version: 6.00 Build 0)  -->
<svg version="1.1" id="logos" xmlns="http://www.w3.org/2000/svg" xmlns:xlink="http://www.w3.org/1999/xlink" x="0px" y="0px"
	 viewBox="0 0 125 40" enable-background="new 0 0 125 40" xml:space="preserve">
<polygon fill="#F28000" points="1.396,3.021 0,3.021 0,8.652 1.011,8.652 1.011,4.321 3.345,8.652 4.524,8.652 4.524,3.021 
	3.682,3.021 3.682,7.28 "/>
<polygon fill="#F28000" points="6.69,7.834 6.69,6.173 8.783,6.173 8.783,5.355 6.69,5.355 6.69,3.839 9.072,3.839 9.072,3.021 
	5.727,3.021 5.727,8.652 9.072,8.652 9.072,7.834 "/>
<polygon fill="#F28000" points="28.491,7.834 28.491,6.173 30.584,6.173 30.584,5.355 28.491,5.355 28.491,3.839 30.873,3.839 
	30.873,3.021 27.528,3.021 27.528,8.652 30.873,8.652 30.873,7.834 "/>
<polygon fill="#F28000" points="10.588,3.021 9.481,3.021 10.997,8.652 12.417,8.652 13.379,4.104 14.51,8.652 15.906,8.652 
	17.35,3.021 16.339,3.021 15.243,7.68 14.097,3.021 12.753,3.021 11.74,7.67 "/>
<polygon fill="#F28000" points="21.681,3.021 20.045,3.021 20.045,8.652 20.935,8.652 20.935,3.911 22.643,8.652 23.63,8.652 
	25.266,3.887 25.266,8.652 26.277,8.652 26.277,3.021 24.568,3.021 23.161,7.28 "/>
<circle fill="#D71814" cx="24.851" cy="23.794" r="11.34"/>
<circle fill="#FFFFFF" cx="24.851" cy="23.794" r="8.693"/>
<circle fill="#EF8200" cx="24.851" cy="23.794" r="5.853"/>
<g>
	<g>
		<polygon fill="#D71814" points="7.821,22.175 2.503,22.175 2.503,16.882 0,16.882 0,30.742 2.503,30.742 2.503,24.437 
			7.821,24.437 7.821,30.742 10.323,30.742 10.323,16.882 7.821,16.882 		"/>
		<polygon fill="#D71814" points="38.26,19.24 41.34,19.24 41.34,30.742 43.878,30.742 43.878,19.24 46.875,19.24 46.875,16.882 
			38.26,16.882 		"/>
		<polygon fill="#D71814" points="49.474,19.24 52.554,19.24 52.554,30.742 55.091,30.742 55.091,19.24 58.088,19.24 58.088,16.882 
			49.474,16.882 		"/>
		<path fill="#D71814" d="M70.842,20.988c0-1.668-1.155-4.107-4.909-4.107c-1.829,0-4.524,0-4.524,0v13.86h2.503v-5.486h1.636
			l3.69,5.486h2.952l-4.171-5.839C69.109,24.485,70.842,23.555,70.842,20.988z M66.158,23.042c-1.112,0-1.866,0-2.246,0v-3.754
			c0,0,0.834,0,2.214,0c1.38,0,2.31,0.545,2.31,1.733C68.436,22.208,67.826,23.042,66.158,23.042z"/>
		<path fill="#D71814" d="M84.734,18.391c-1.198-1.042-2.742-1.67-4.428-1.67c-3.81,0-6.898,3.203-6.898,7.155
			c0,3.951,3.088,7.155,6.898,7.155c1.686,0,3.229-0.628,4.428-1.67v1.381h2.47v-13.86h-2.47V18.391z M80.427,28.721
			c-2.432,0-4.404-2.209-4.404-4.933s1.972-4.933,4.404-4.933c2.432,0,4.404,2.209,4.404,4.933S82.859,28.721,80.427,28.721z"/>
		<path fill="#D71814" d="M89.932,23.812c0,3.987,3.275,7.219,7.315,7.219c1.386,0,2.681-0.38,3.786-1.041v-2.948
			c-0.975,1.006-2.389,1.679-3.77,1.679c-2.631,0-4.765-2.187-4.765-4.885s2.133-4.885,4.765-4.885c1.534,0,2.898,0.744,3.77,1.899
			v-3.217c-1.104-0.661-2.4-1.041-3.786-1.041C93.207,16.593,89.932,19.825,89.932,23.812z"/>
		<polygon fill="#D71814" points="111.91,16.882 106.872,22.007 106.872,16.882 104.37,16.882 104.37,30.742 106.872,30.742 
			106.872,24.77 111.781,30.742 115.086,30.742 108.83,23.234 115.214,16.882 		"/>
		<path fill="#D71814" d="M119.064,20.379c0-0.761,0.449-1.444,1.733-1.444c1.027,0,1.957,1.476,1.957,1.476l2.021-1.187
			c0,0-1.38-2.631-4.011-2.631c-2.47,0-4.267,1.925-4.267,3.818c0,4.203,6,3.241,6,6.256c0,0.995-0.674,1.989-2.021,1.989
			s-1.989-1.315-2.085-2.599l-2.438,0.642c0.064,1.348,1.219,4.331,4.412,4.331S125,28.4,125,26.378
			C125,21.951,119.064,22.593,119.064,20.379z"/>
	</g>
</g>
<rect fill="none" width="125" height="40"/>
</svg>
