<?xml version="1.0" encoding="utf-8"?>
<!-- Generator: Adobe Illustrator 16.0.0, SVG Export Plug-In . SVG Version: 6.00 Build 0)  -->
<!DOCTYPE svg PUBLIC "-//W3C//DTD SVG 1.1//EN" "http://www.w3.org/Graphics/SVG/1.1/DTD/svg11.dtd">
<svg version="1.1" id="Layer_2" xmlns="http://www.w3.org/2000/svg" xmlns:xlink="http://www.w3.org/1999/xlink" x="0px" y="0px"
	 width="125px" height="40px" viewBox="0 0 125 40" enable-background="new 0 0 125 40" xml:space="preserve">
<polygon fill-rule="evenodd" clip-rule="evenodd" fill="#ED1C29" points="84.4,6 84.4,8.7 91.4,13.8 0,13.8 0,15.8 94.2,15.8 
	94.2,13 84.4,6 "/>
<path fill-rule="evenodd" clip-rule="evenodd" d="M33.4,25.6c0,0,0,6.3,0,6.8c1.3,0,2.5-0.7,2.5-2.3c0-0.7,0-2.8,0-3.3
	c0-1-0.4-1.3-1-1.3C34.6,25.6,33.4,25.6,33.4,25.6L33.4,25.6L33.4,25.6z"/>
<rect x="33.4" y="21.3" fill-rule="evenodd" clip-rule="evenodd" width="0" height="0"/>
<path fill-rule="evenodd" clip-rule="evenodd" d="M55,24.3v-0.8H39.4v-1.1h6.7v-0.8h-6.7v-1.1h6.7v-0.8H33.4v0.8h4.3v1.1h-4.3v0.8
	h4.3v1.1h-4.3v0.9c0,0,1.7,0,2.4,0c1.3,0,2,0.6,2,2c0,0.6,0,3.6,0,3.8c0,1.1,1.3,2.1,2.3,2.1c0.6,0,3.1,0,3.1,0l0-2.5l-3.7,1.3v-1.3
	L45,28v4.4H55v-0.6h-3.6L45.8,30l5.6-1.9H55v-0.6H39.4c0,0,0-1.8,0-2c0-0.7,0.7-1.1,1.7-1.1C41.5,24.3,55,24.3,55,24.3L55,24.3z"/>
<path fill-rule="evenodd" clip-rule="evenodd" d="M40.1,33.6c-1.1,0-1.9,0-3.3-1.1c-1.3,1.1-2.1,1.1-3.4,1.1v0.7H55v-0.7
	C55,33.6,41,33.6,40.1,33.6L40.1,33.6z"/>
<polygon fill-rule="evenodd" clip-rule="evenodd" points="55.5,21.7 48,21.7 48,22.5 55,22.5 55.5,21.7 "/>
<polygon fill-rule="evenodd" clip-rule="evenodd" points="55,19.7 48,19.7 48,20.5 55,20.5 55,19.7 "/>
<path fill-rule="evenodd" clip-rule="evenodd" d="M41.3,26.4H55v-0.9c0,0-12.8,0-13.1,0c-0.2,0-0.6,0-0.6,0.3
	C41.3,25.9,41.3,26.4,41.3,26.4L41.3,26.4z"/>
<polygon fill-rule="evenodd" clip-rule="evenodd" fill="#ED1C29" points="55,31.8 55,28.1 49.6,30 55,31.8 "/>
<polygon fill-rule="evenodd" clip-rule="evenodd" points="55,23.6 58.4,22.1 58.4,34.3 60.3,34.3 60.3,19.7 55,21.9 55,23.6 "/>
<polygon fill-rule="evenodd" clip-rule="evenodd" points="61.7,31.9 61.7,33 71.2,33 71.2,31.9 61.7,31.9 "/>
<path fill-rule="evenodd" clip-rule="evenodd" d="M79.1,21.3v-1.1h-7.8v-0.6h-1.9v0.6h-7.7v1.1h7.7v0.8h-7.7l0,5h7.7V28h-7.7v1.1
	c0,0,15.6,0,15.8,0c1.3,0,1.7-0.4,1.7-1c0-0.4,0-0.6,0-0.6h-1.9c0,0,0,0.2,0,0.2c0,0.1,0,0.1-0.2,0.1c-0.2,0-5.7,0-5.7,0v-0.8h7.8
	c0,0,0-3.1,0-3.7c0-0.6-0.5-1.3-1.9-1.3c-1.1,0-5.9,0-5.9,0v-0.8H79.1L79.1,21.3z M69.3,26h-5.8v-0.8h5.8V26L69.3,26z M69.3,24h-5.8
	l0-0.8h5.8V24L69.3,24z M77.2,26h-5.9v-0.8h5.9V26L77.2,26z M76.6,23.2c0.5,0,0.6,0.2,0.6,0.5c0,0.2,0,0.3,0,0.3h-5.9v-0.8
	C71.3,23.2,76,23.2,76.6,23.2L76.6,23.2z"/>
<path fill-rule="evenodd" clip-rule="evenodd" d="M61.6,31h15.5v1.5c0,0.2-0.1,0.3-0.3,0.4c-0.1,0-0.1,0-0.1,0h-5.6V34
	c0,0,5.2,0,6.2,0s1.8-0.6,1.8-1.6c0-0.7,0-2.7,0-2.7H61.6V31L61.6,31z"/>
<polygon fill-rule="evenodd" clip-rule="evenodd" points="4.4,6 4.4,6.8 1.6,6.8 1.6,8.4 4.2,8.4 4.2,9.2 1.6,9.2 1.6,12 0,12 0,6 
	4.4,6 "/>
<path fill-rule="evenodd" clip-rule="evenodd" d="M10.2,6.6l2,5.3H11l-0.3-1H8.8l-0.3,1H7.3l2-5.3H10.2L10.2,6.6z M10.2,9.5L9.7,7.6
	h0L9,10.3h1.5L10.2,9.5L10.2,9.5z"/>
<path fill-rule="evenodd" clip-rule="evenodd" d="M15.9,6.6h1.5c0.9,0,2.3,0,2.3,1.4c0,0.5-0.2,1.3-1.3,1.4l1.7,2.6h-1.3l-1.7-2.6h0
	v2.6h-1.2V6.6L15.9,6.6z M18.4,8.1c0-0.5-0.1-0.9-1.1-0.9h-0.2v1.7C18.1,9,18.4,8.6,18.4,8.1L18.4,8.1z"/>
<polygon fill-rule="evenodd" clip-rule="evenodd" points="29.9,6 29.9,6.8 27.1,6.8 27.1,8.4 29.6,8.4 29.6,9.3 27.1,9.3 27.1,11.1 
	29.9,11.1 29.9,11.9 25.5,11.9 25.5,6 29.9,6 "/>
<path fill-rule="evenodd" clip-rule="evenodd" d="M36.6,6.6l2,5.3h-1.3l-0.3-1h-1.8l-0.3,1h-1.2l2-5.3H36.6L36.6,6.6z M36.5,9.5
	l-0.5-1.9h0l-0.7,2.7h1.5L36.5,9.5L36.5,9.5z"/>
<path fill-rule="evenodd" clip-rule="evenodd" d="M45,7.4c-0.3-0.1-0.6-0.2-1-0.2c-0.7,0-1.1,0.3-1.1,0.7c0,0.2,0.1,0.4,0.3,0.6
	L44.2,9c0.8,0.5,1.3,0.8,1.3,1.6c0,0.7-0.8,1.4-2.2,1.4c-0.5,0-1-0.1-1.3-0.2V11c0.4,0.1,0.7,0.3,1.2,0.3c0.8,0,1.1-0.3,1.1-0.7
	c0-1.1-2.6-1.3-2.6-2.7c0-0.8,0.7-1.4,2.1-1.4c0.5,0,0.9,0,1.3,0.2L45,7.4L45,7.4z"/>
<polygon fill-rule="evenodd" clip-rule="evenodd" points="55.2,6 55.2,6.8 53.4,6.8 53.4,12 51.7,12 51.7,6.8 49.8,6.8 49.8,6 
	55.2,6 "/>
<polygon fill-rule="evenodd" clip-rule="evenodd" points="68.4,8.1 68.6,9.9 68.6,11.9 67.3,11.9 67.3,6.6 68.5,6.6 70.7,10.6 
	70.7,10.6 70.4,8.5 70.4,6.6 71.6,6.6 71.6,11.9 70.5,11.9 68.3,7.8 68.3,7.8 68.4,8.1 "/>
<polygon fill-rule="evenodd" clip-rule="evenodd" points="79.2,6.6 79.2,7.2 77.1,7.2 77.1,8.9 79,8.9 79,9.5 77.1,9.5 77.1,11.3 
	79.2,11.3 79.2,11.9 75.9,11.9 75.9,6.6 79.2,6.6 "/>
<path fill-rule="evenodd" clip-rule="evenodd" d="M63.3,9.2c0,0.9,0,2.6-2.3,2.6c-2.3,0-2.3-1.7-2.3-2.6c0-0.9,0-2.6,2.3-2.6
	C63.3,6.6,63.3,8.3,63.3,9.2L63.3,9.2z M59.9,9.2c0,1.1,0.1,2,1.1,2c0.9,0,1.1-0.9,1.1-2c0-1.1-0.1-2-1.1-2
	C60,7.2,59.9,8.1,59.9,9.2L59.9,9.2z"/>
</svg>
