<?xml version="1.0" encoding="utf-8"?>
<!-- Generator: Adobe Illustrator 16.0.0, SVG Export Plug-In . SVG Version: 6.00 Build 0)  -->
<!DOCTYPE svg PUBLIC "-//W3C//DTD SVG 1.1//EN" "http://www.w3.org/Graphics/SVG/1.1/DTD/svg11.dtd">
<svg version="1.1" xmlns="http://www.w3.org/2000/svg" xmlns:xlink="http://www.w3.org/1999/xlink" x="0px" y="0px" width="125px"
	 height="40px" viewBox="0 0 125 40" enable-background="new 0 0 125 40" xml:space="preserve">
<g id="Layer_1">
	<g id="Target_full">
		<g>
			<path fill="#CF0A2C" d="M0,20C0,12.632,5.973,6.661,13.34,6.661c7.368,0,13.34,5.972,13.34,13.339
				c0,7.368-5.972,13.34-13.34,13.34C5.973,33.339,0,27.368,0,20z M13.34,20 M13.34,20 M13.34,28.86c4.894,0,8.859-3.966,8.859-8.86
				c0-4.893-3.965-8.859-8.859-8.859c-4.894,0-8.86,3.966-8.86,8.859C4.48,24.894,8.446,28.86,13.34,28.86z M13.34,24.516
				c2.541,0,4.601-2.061,4.601-4.603c0-2.54-2.06-4.6-4.601-4.6c-2.542,0-4.601,2.06-4.601,4.6
				C8.739,22.456,10.798,24.516,13.34,24.516z M13.34,19.914"/>
		</g>
		<g>
			<g>
				<polygon fill="#CF0A2C" points="31.012,10.425 46.212,10.425 46.212,14.261 40.984,14.261 40.984,29.631 36.339,29.631 
					36.339,14.289 31.012,14.289 				"/>
				<path fill="#CF0A2C" d="M60.411,10.425c0,0,3.494,0,9.022,0c5.127,0,5.837,3.509,5.837,5.555c0,2.969-2.557,4.46-2.783,4.518
					c0,0,2.244,0.837,2.244,3.38v3.58c0,1.435,0.88,1.833,1.037,2.173h-3.665c-1.747-0.199-1.719-1.591-1.705-2.386v-3.083
					c-0.042-0.753-0.271-1.59-1.847-1.62h-3.708v7.088h-4.446L60.411,10.425z M69.105,14.289h-4.262v3.835c0,0,3.324,0.011,3.821,0
					c1.336-0.028,2.369-0.626,2.369-1.931C71.034,14.769,70.157,14.289,69.105,14.289z"/>
				<polygon fill="#CF0A2C" points="94.875,10.425 94.875,29.631 108.712,29.631 108.712,25.682 99.393,25.682 99.393,21.392 
					107.349,21.392 107.349,17.756 99.393,17.756 99.393,14.289 108.712,14.289 108.712,10.425 				"/>
				<polygon fill="#CF0A2C" points="109.365,14.289 114.85,14.289 114.85,29.631 119.395,29.631 119.395,14.289 124.963,14.289 
					124.963,10.425 109.365,10.425 				"/>
				<path fill="#CF0A2C" d="M48.438,10.422h4.93l6.716,19.209h-4.777L53.92,25.64h-5.668l-1.309,3.991h-4.737L48.438,10.422z
					 M51.014,17.201L49.38,22.16h3.367L51.014,17.201z"/>
				<path fill="#CF0A2C" d="M93.284,18.905H85.03v3.737h3.921c-0.006,0.769,0.114,1.536-0.809,2.616
					c-0.312,0.366-1.386,1.19-2.886,1.19c-1.264,0-2.172-0.361-2.961-1.031c-1.742-1.479-2.152-4.244-2.152-5.688
					c0-1.818,0.724-6.336,5.171-6.519c0,0,2.997-0.195,3.777,3.422h4.163c-0.084-1.833-2.216-6.98-7.94-6.989
					c-1.978-0.003-4.485,0.592-6.562,2.673c-1.503,1.505-2.857,4.035-2.857,7.597c0,3.867,1.423,6.379,2.725,7.76
					c2.284,2.425,4.586,2.611,5.784,2.611c0.952,0,2.77-0.141,5.13-1.732l0.624,1.079h3.125V18.905z"/>
			</g>
			<g>
				<path fill="#CF0A2C" d="M121.72,29.073h-0.27v-1.645h0.623c0.398,0,0.6,0.139,0.6,0.473c0,0.297-0.183,0.421-0.428,0.449
					l0.46,0.724h-0.306l-0.425-0.704h-0.254V29.073z M122.021,28.14c0.203,0,0.381-0.021,0.381-0.259
					c0-0.199-0.194-0.223-0.357-0.223h-0.325v0.481H122.021z M122.014,29.708c-0.854,0-1.462-0.64-1.462-1.484
					c0-0.895,0.675-1.486,1.462-1.486c0.777,0,1.453,0.591,1.453,1.486C123.467,29.116,122.792,29.708,122.014,29.708z
					 M122.014,26.995c-0.644,0-1.144,0.505-1.144,1.228c0,0.673,0.437,1.226,1.144,1.226c0.635,0,1.136-0.5,1.136-1.226
					C123.15,27.5,122.649,26.995,122.014,26.995z"/>
			</g>
		</g>
	</g>
</g>
<g id="Layer_2">
</g>
<g id="template" display="none">
</g>
</svg>
