<?xml version="1.0" encoding="utf-8"?>
<!-- Generator: Adobe Illustrator 20.1.0, SVG Export Plug-In . SVG Version: 6.00 Build 0)  -->
<svg version="1.1" id="logos" xmlns="http://www.w3.org/2000/svg" xmlns:xlink="http://www.w3.org/1999/xlink" x="0px" y="0px"
	 viewBox="0 0 125 40" enable-background="new 0 0 125 40" xml:space="preserve">
<g>
	<polygon fill="#009FDE" points="4.528,16.272 0,16.272 0,27.419 4.528,27.419 4.528,22.89 13.28,22.89 13.28,20.8 4.528,20.8 	"/>
	<rect x="9.274" y="13.108" fill="#009FDE" width="1.524" height="2.482"/>
	<rect x="11.756" y="13.108" fill="#009FDE" width="1.524" height="2.482"/>
	<rect x="57.068" y="13.108" fill="#009FDE" width="1.524" height="2.482"/>
	<rect x="59.55" y="13.108" fill="#009FDE" width="1.524" height="2.482"/>
	<rect x="74.029" y="13.108" fill="#009FDE" width="1.524" height="2.482"/>
	<rect x="76.511" y="13.108" fill="#009FDE" width="1.524" height="2.482"/>
	<polygon fill="#009FDE" points="15.038,22.938 19.715,22.938 19.715,17.927 24.624,17.927 24.624,22.835 22.696,27.419 
		27.373,27.419 29.301,22.809 29.301,16.272 15.038,16.272 	"/>
	<rect x="31.485" y="16.272" fill="#009FDE" width="6.424" height="2.168"/>
	<polygon fill="#009FDE" points="36.702,27.419 41.379,27.419 45.696,18.441 41.07,18.441 	"/>
	<polygon fill="#009FDE" points="47.803,17.824 56.489,17.824 56.489,25.764 47.803,25.764 47.803,27.419 61.192,27.419 
		61.192,16.272 47.803,16.272 	"/>
	<rect x="63.813" y="16.272" fill="#009FDE" width="6.656" height="2.194"/>
	<rect x="63.813" y="19.528" fill="#009FDE" width="6.656" height="2.194"/>
	<polygon fill="#009FDE" points="69.107,27.419 73.833,27.419 78.151,18.466 73.424,18.466 	"/>
	<polygon fill="#009FDE" points="78.975,22.934 81.468,22.934 81.468,26.33 78.975,26.33 78.975,27.419 86.247,27.419 86.247,26.33 
		83.703,26.33 83.703,22.934 86.247,22.934 86.247,21.845 78.975,21.845 	"/>
	<polygon fill="#009FDE" points="97.066,16.23 88.637,25.764 93.013,25.764 94.496,24.087 94.496,27.419 99.251,27.419 
		99.251,21.113 97.125,21.113 101.442,16.23 	"/>
	<polygon fill="#009FDE" points="108.091,16.23 103.337,16.23 103.337,27.419 116.674,27.419 116.674,25.687 108.091,25.687 
		108.091,20.162 116.674,20.162 116.674,18.466 108.091,18.466 	"/>
	<rect x="118.396" y="21.216" fill="#009FDE" width="6.604" height="2.184"/>
	<path fill="#009FDE" d="M114.695,12.581c-1.093,0-1.979,0.886-1.979,1.979s0.886,1.979,1.979,1.979
		c1.093,0,1.979-0.886,1.979-1.979S115.788,12.581,114.695,12.581z M114.695,15.357c-0.44,0-0.797-0.357-0.797-0.797
		c0-0.44,0.357-0.797,0.797-0.797c0.44,0,0.797,0.357,0.797,0.797C115.492,15,115.135,15.357,114.695,15.357z"/>
</g>
<rect x="0" y="0" fill="none" width="125" height="40"/>
</svg>
