<?xml version="1.0" encoding="utf-8"?>
<!-- Generator: Adobe Illustrator 19.2.1, SVG Export Plug-In . SVG Version: 6.00 Build 0)  -->
<svg version="1.1" id="logos" xmlns="http://www.w3.org/2000/svg" xmlns:xlink="http://www.w3.org/1999/xlink" x="0px" y="0px"
	 viewBox="0 0 125 40" enable-background="new 0 0 125 40" xml:space="preserve">
<path d="M38.605,14.166c0.493,10.954-10.98,21.203-23.509,21.313C4.467,35.572-1.455,27.981,0.308,19.44
	C1.894,11.754,9.501,4.529,18.387,2.404C28.528-0.021,38.176,4.624,38.605,14.166z"/>
<g>
	<path fill="#FFFFFF" d="M7.064,32.876c0,0,11.018,5.925,23.202-4.069C41.928,19.241,36.62,9.389,36.62,9.389
		s3.641,9.852-6.639,18.561S10.102,34.066,7.064,32.876z"/>
	<path fill="#FFFFFF" d="M35.604,9.754c0,0,4.843,9.365-6.171,18.329C18.013,37.386,7.699,31.94,7.699,31.94
		c2.701,1.058,11.825,3.467,21.44-4.643C38.752,19.189,35.618,10.087,35.604,9.754z"/>
	<path fill="#FFFFFF" d="M34.589,10.119c0,0,4.377,8.878-5.989,17.24c-10.655,8.612-20.267,3.645-20.267,3.645
		c2.363,0.925,11.014,3.15,19.963-4.359C37.243,19.137,34.615,10.785,34.589,10.119z"/>
	<path fill="#FFFFFF" d="M33.574,10.484c0,0,3.912,8.392-5.806,16.151c-9.891,7.92-18.799,3.433-18.799,3.433
		c2.025,0.793,10.203,2.833,18.486-4.076C35.735,19.085,33.613,11.483,33.574,10.484z"/>
	<path fill="#FFFFFF" d="M32.558,10.849c0,0,3.446,7.906-5.624,15.062c-9.127,7.229-17.332,3.222-17.332,3.222
		c1.688,0.661,9.392,2.516,17.01-3.793C34.226,19.033,32.611,12.181,32.558,10.849z"/>
	<path fill="#FFFFFF" d="M31.543,11.214c0,0,2.981,7.419-5.441,13.973c-8.363,6.537-15.864,3.01-15.864,3.01
		c1.35,0.529,8.581,2.2,15.533-3.509C32.718,18.982,31.609,12.879,31.543,11.214z"/>
	<path fill="#FFFFFF" d="M30.528,11.578c0,0,2.515,6.933-5.259,12.884c-7.599,5.846-14.397,2.798-14.397,2.798
		c1.013,0.397,7.77,1.883,14.057-3.226C31.209,18.93,30.607,13.577,30.528,11.578z"/>
	<path fill="#FFFFFF" d="M29.512,11.943c0,0,2.05,6.446-5.077,11.795c-6.834,5.154-12.929,2.586-12.929,2.586
		c0.675,0.264,6.959,1.566,12.58-2.943C29.701,18.878,29.605,14.275,29.512,11.943z"/>
	<path fill="#FFFFFF" d="M28.497,12.308c0,0,1.584,5.96-4.894,10.706c-6.07,4.463-11.462,2.374-11.462,2.374
		c0.338,0.132,6.148,1.249,11.103-2.659C28.192,18.826,28.603,14.973,28.497,12.308z"/>
	<path fill="#FFFFFF" d="M27.482,12.673c0,0,1.118,5.473-4.712,9.617c-5.306,3.772-9.995,2.162-9.995,2.162s5.338,0.932,9.627-2.376
		C26.684,18.774,27.601,15.671,27.482,12.673z"/>
</g>
<g>
	<g>
		<path fill="#FFFFFF" d="M7.886,18.035c0.245-1.558,0.807-2.963,1.59-4.193c1.364-2.144,3.399-3.758,5.601-4.722
			c1.534-0.672,3.15-1.028,4.676-1.028c0.031,0,0.061,0,0.091,0c0,0-2.018,0.048-4.703,1.243c-2.142,0.954-4.127,2.523-5.474,4.603
			C8.153,16.278,7.886,18.035,7.886,18.035z"/>
		<path fill="#FFFFFF" d="M7.077,18.406c0.24-1.64,0.812-3.125,1.617-4.434c0.638-1.045,1.425-1.98,2.313-2.792
			c1.146-1.048,2.458-1.892,3.828-2.51c0.78-0.352,1.579-0.63,2.377-0.83c0.942-0.237,1.882-0.361,2.789-0.372
			c0.034,0,0.068-0.001,0.102-0.001c0.039-0.002-0.085,0.001-0.34,0.035c-0.536,0.063-1.853,0.251-3.391,0.789
			c-0.406,0.142-0.828,0.307-1.263,0.499c-1.15,0.506-2.263,1.172-3.276,1.983c-1.081,0.866-2.046,1.898-2.819,3.08
			c-0.22,0.338-0.418,0.668-0.595,0.99C7.297,16.884,7.077,18.406,7.077,18.406z"/>
		<path fill="#FFFFFF" d="M6.268,18.777c0.236-1.722,0.821-3.285,1.645-4.674c0.684-1.154,1.535-2.191,2.503-3.092
			c1.246-1.16,2.68-2.098,4.179-2.79c0.854-0.394,1.728-0.708,2.6-0.937c1.036-0.273,2.067-0.417,3.057-0.439
			c0.037-0.001,0.075-0.001,0.112-0.002c0.078-0.004,0.012-0.003-0.168,0.027c-0.469,0.055-2.01,0.244-3.728,0.834
			c-0.449,0.154-0.914,0.334-1.389,0.541c-1.262,0.551-2.489,1.275-3.606,2.16c-1.193,0.945-2.26,2.072-3.11,3.364
			c-0.241,0.366-0.458,0.729-0.653,1.086C6.506,17.056,6.268,18.777,6.268,18.777z"/>
		<path fill="#FFFFFF" d="M5.459,19.147c0.231-1.804,0.827-3.447,1.672-4.914c0.728-1.265,1.644-2.402,2.692-3.393
			c1.346-1.271,2.903-2.304,4.529-3.069c0.927-0.436,1.876-0.786,2.822-1.044c1.13-0.309,2.252-0.474,3.325-0.506
			c0.041-0.001,0.081-0.002,0.122-0.003c0.117-0.006,0.11-0.006,0.004,0.02c-0.402,0.047-2.167,0.238-4.066,0.879
			c-0.493,0.167-0.999,0.36-1.514,0.583c-1.374,0.595-2.715,1.379-3.936,2.337c-1.306,1.024-2.475,2.246-3.402,3.648
			c-0.261,0.395-0.498,0.789-0.71,1.182C5.715,17.229,5.459,19.147,5.459,19.147z"/>
		<path fill="#FFFFFF" d="M4.65,19.518c0.226-1.887,0.833-3.609,1.7-5.154c0.772-1.375,1.753-2.614,2.882-3.693
			c1.446-1.383,3.126-2.509,4.88-3.349c1-0.479,2.025-0.864,3.044-1.151c1.224-0.345,2.437-0.53,3.593-0.573
			c0.044-0.002,0.088-0.003,0.132-0.004c0.156-0.008,0.207-0.01,0.175,0.012c-0.335,0.039-2.324,0.232-4.404,0.924
			c-0.536,0.179-1.085,0.387-1.64,0.626c-1.486,0.639-2.94,1.483-4.266,2.513c-1.418,1.103-2.689,2.421-3.693,3.932
			c-0.281,0.423-0.537,0.85-0.768,1.278C4.925,17.401,4.65,19.518,4.65,19.518z"/>
		<path fill="#FFFFFF" d="M3.841,19.889c0.221-1.969,0.838-3.772,1.728-5.394c0.815-1.486,1.863-2.825,3.071-3.994
			c1.546-1.495,3.348-2.715,5.231-3.628c1.074-0.521,2.174-0.943,3.267-1.258c1.318-0.381,2.622-0.587,3.861-0.64
			c0.048-0.002,0.095-0.004,0.142-0.006c0.194-0.01,0.305-0.013,0.347,0.004c-0.268,0.031-2.482,0.225-4.741,0.969
			c-0.58,0.191-1.17,0.413-1.765,0.668c-1.599,0.684-3.166,1.586-4.595,2.69c-1.531,1.182-2.903,2.595-3.985,4.216
			c-0.301,0.452-0.577,0.91-0.826,1.374C4.134,17.573,3.841,19.889,3.841,19.889z"/>
		<path fill="#FFFFFF" d="M3.031,20.26c0.216-2.051,0.842-3.934,1.755-5.634c0.858-1.597,1.972-3.036,3.261-4.294
			c1.646-1.606,3.571-2.921,5.581-3.908c1.147-0.564,2.322-1.021,3.489-1.365c1.412-0.417,2.807-0.643,4.129-0.707
			c0.051-0.003,0.102-0.005,0.153-0.007c0.233-0.012,0.402-0.017,0.519-0.004c-0.201,0.024-2.639,0.219-5.079,1.015
			c-0.623,0.203-1.256,0.44-1.89,0.71c-1.711,0.728-3.392,1.69-4.925,2.867c-1.643,1.261-3.117,2.769-4.277,4.5
			c-0.322,0.48-0.617,0.971-0.883,1.47C3.344,17.746,3.031,20.26,3.031,20.26z"/>
		<path fill="#FFFFFF" d="M2.222,20.631c0.212-2.134,0.844-4.099,1.783-5.875c0.897-1.71,2.081-3.248,3.45-4.594
			c1.746-1.718,3.794-3.126,5.932-4.188c1.221-0.606,2.471-1.099,3.712-1.472c1.506-0.453,2.992-0.699,4.397-0.774
			c0.054-0.003,0.109-0.006,0.163-0.008c0.272-0.014,0.5-0.02,0.69-0.012c-0.134,0.016-2.796,0.213-5.417,1.06
			c-0.667,0.216-1.341,0.467-2.016,0.752c-1.823,0.772-3.617,1.793-5.255,3.043c-1.756,1.34-3.331,2.943-4.568,4.784
			c-0.342,0.509-0.656,1.031-0.941,1.566C2.553,17.918,2.222,20.631,2.222,20.631z"/>
		<path fill="#FFFFFF" d="M1.413,21.002c0.207-2.216,0.849-4.261,1.811-6.115c0.941-1.821,2.191-3.459,3.64-4.895
			c1.847-1.83,4.016-3.332,6.283-4.467c1.294-0.648,2.619-1.177,3.934-1.579c1.6-0.489,3.177-0.756,4.665-0.842
			c0.058-0.003,0.115-0.006,0.173-0.009c0.311-0.016,0.597-0.024,0.862-0.019c-0.067,0.008-2.953,0.206-5.754,1.105
			c-0.711,0.228-1.427,0.493-2.141,0.795c-1.936,0.817-3.843,1.897-5.584,3.22c-1.868,1.419-3.545,3.118-4.86,5.068
			c-0.362,0.538-0.696,1.092-0.999,1.662C1.762,18.091,1.413,21.002,1.413,21.002z"/>
		<path fill="#FFFFFF" d="M0.604,21.373c0.202-2.298,0.854-4.423,1.838-6.355s2.3-3.67,3.829-5.195
			c3.059-3.05,6.971-5.248,10.79-6.433c2.139-0.663,4.236-0.946,6.15-0.946c0,0-3.11,0.2-6.092,1.15
			c-2.802,0.893-5.656,2.323-8.181,4.233s-4.722,4.3-6.208,7.11C0.972,18.263,0.604,21.373,0.604,21.373z"/>
	</g>
</g>
<path fill="#3F1E6E" d="M24.388,15.024c-0.282,3.777-4.353,6.992-8.472,7.03c-3.57,0.033-5.766-2.407-5.326-5.359
	c0.426-2.86,3.256-5.671,6.704-6.441C21.235,9.373,24.659,11.397,24.388,15.024z"/>
<path fill="#03A1A2" d="M17.951,10.353c-1.248,0.014-2.587,0.519-3.818,1.273c-1.898,1.273-3.258,3.158-3.543,5.069
	c-0.179,1.202,0.085,2.315,0.695,3.215c-0.466-1.501-0.827-4.344,1.919-6.666c3.926-3.32,7.496-1.749,8.246-0.321
	s0.196,4.962-3.355,5.818c-3.35,0.808-4.569-1.785-3.213-3.641s3.641-1.392,3.998-0.643c0.357,0.75-0.464,2.07-1.499,2.07
	c-1.035,0-0.678-0.999,0.214-1.178c0,0-1.285-0.071-1.463,0.75c-0.178,0.821,1.463,1.499,2.82,0.143s0.321-2.891-1.035-2.998
	c-1.356-0.107-3.355,0.571-4.212,2.82c-0.571,1.499,0.462,3.521,2.963,3.569c2.784,0.054,5.568-1.82,6.032-4.783
	C23.163,11.888,21.08,10.317,17.951,10.353z"/>
<path fill="#03A1A2" d="M22.294,18.123c-2.403,2.522-5.783,2.737-7.448,2.023c-1.666-0.714-2.618-2.403-1.809-4.331
	c0.809-1.928,3.379-3.641,5.64-3.046c2.261,0.595,1.935,3.145,0.309,4.283c-1.428,0.999-3.26,0.547-3.451-0.428
	c-0.19-0.976,0.785-1.88,1.737-1.88c0.952,0,0.571,0.714,0.143,0.761c-0.428,0.048-0.666,0.286-0.666,0.286s0.09,0.263,0.405,0.262
	c0.315-0.001,1.142-0.167,1.261-0.857c0.119-0.69-0.904-1.237-2.094-0.738c-1.19,0.5-1.999,2.047-0.833,3.189
	c1.166,1.142,4.664,0.262,5.307-2.094s-0.904-3.522-3.141-3.498c-2.237,0.024-4.569,1.856-5.402,3.736
	c-0.833,1.88-0.499,4.036,1.666,5.207c1.524,0.824,4.65,0.841,7.456-0.886c1.683-1.294,2.867-3.113,3.014-5.087
	c0.055-0.739-0.045-1.409-0.269-2.004C24.361,14.551,23.974,16.359,22.294,18.123z"/>
<ellipse transform="matrix(0.8602 -0.51 0.51 0.8602 -5.5637 10.9857)" fill="#FFFFFF" cx="17.252" cy="15.639" rx="0.708" ry="0.512"/>
<g>
	<polygon fill="#FFFFFF" points="19.652,16.564 17.796,16.517 18.724,22.899 21.465,23.261 22.414,16.632 20.628,16.588 
		20.319,21.383 20.105,21.383 	"/>
	<path d="M21.465,23.404c-0.006,0-0.013,0-0.019-0.001l-2.74-0.362c-0.063-0.008-0.113-0.058-0.123-0.121l-0.928-6.381
		c-0.006-0.042,0.007-0.084,0.034-0.115c0.028-0.031,0.065-0.048,0.11-0.048l1.856,0.046c0.072,0.002,0.132,0.057,0.139,0.129
		l0.411,4.373l0.28-4.345c0.005-0.076,0.072-0.129,0.146-0.134l1.786,0.044c0.041,0.001,0.079,0.02,0.106,0.051
		c0.026,0.031,0.038,0.072,0.032,0.112l-0.95,6.629C21.596,23.352,21.535,23.404,21.465,23.404z M18.85,22.771l2.493,0.33
		l0.907-6.33l-1.488-0.037l-0.3,4.658c-0.005,0.075-0.067,0.134-0.143,0.134h-0.214c-0.074,0-0.135-0.056-0.142-0.129l-0.441-4.693
		l-1.56-0.039L18.85,22.771z"/>
</g>
<g>
	<polygon fill="#FFFFFF" points="22.937,16.645 22.937,23.456 25.011,23.73 24.911,16.694 	"/>
	<path d="M25.011,23.873c-0.006,0-0.012,0-0.019-0.001l-2.074-0.274c-0.071-0.009-0.124-0.07-0.124-0.142v-6.81
		c0-0.038,0.015-0.075,0.043-0.102c0.027-0.027,0.061-0.037,0.103-0.041l1.974,0.049c0.077,0.002,0.138,0.064,0.139,0.141l0.1,7.036
		c0.001,0.041-0.017,0.081-0.048,0.109C25.08,23.86,25.046,23.873,25.011,23.873z M23.08,23.331l1.786,0.236l-0.096-6.733
		l-1.69-0.042V23.331z"/>
</g>
<g>
	<rect x="22.937" y="15.1" fill="#FFFFFF" width="2.189" height="1.095"/>
	<path d="M25.126,16.338h-2.189c-0.079,0-0.143-0.064-0.143-0.143V15.1c0-0.079,0.064-0.143,0.143-0.143h2.189
		c0.079,0,0.143,0.064,0.143,0.143v1.095C25.269,16.274,25.205,16.338,25.126,16.338z M23.08,16.052h1.903v-0.809H23.08V16.052z"/>
</g>
<g>
	<path fill="#FFFFFF" d="M27.642,16.76l-2.124-0.054v7.103l2.124,0.268c0,0,0-5.812,0-6.026c0-0.214,0.625-0.5,0.625,0
		s0,6.116,0,6.116l1.975,0.262c0,0,0-5.783,0-6.496c0-0.714-1.19-1.785-2.57-0.476L27.642,16.76z"/>
	<path d="M30.242,24.572c-0.006,0-0.013,0-0.019-0.001l-1.975-0.262c-0.071-0.009-0.124-0.07-0.124-0.142v-6.116
		c0-0.125-0.045-0.131-0.067-0.134c-0.107-0.014-0.259,0.09-0.272,0.139l0,6.022c0,0.041-0.018,0.08-0.048,0.107
		c-0.031,0.027-0.072,0.04-0.112,0.035l-2.124-0.268c-0.071-0.009-0.125-0.07-0.125-0.142v-7.103c0-0.038,0.015-0.075,0.043-0.102
		c0.028-0.027,0.062-0.042,0.103-0.041l2.124,0.054c0.075,0.002,0.136,0.062,0.139,0.137l0.017,0.401
		c0.776-0.61,1.418-0.484,1.748-0.342c0.484,0.208,0.835,0.679,0.835,1.12v6.497c0,0.041-0.018,0.08-0.049,0.107
		C30.31,24.559,30.277,24.572,30.242,24.572z M28.41,24.042l1.69,0.224v-6.334c0-0.282-0.248-0.679-0.662-0.857
		c-0.297-0.128-0.908-0.234-1.667,0.485c-0.041,0.039-0.101,0.05-0.152,0.029c-0.052-0.021-0.087-0.07-0.089-0.126L27.505,16.9
		l-1.844-0.047v6.831l1.838,0.232v-5.864c0-0.223,0.301-0.421,0.539-0.421c0.107,0,0.198,0.037,0.264,0.107
		c0.071,0.075,0.107,0.18,0.107,0.314V24.042z"/>
</g>
<g>
	<path fill="#FFFFFF" d="M32.574,16.885h-1.785c0,0,1.356,6.639,1.475,7.091c0.119,0.452-0.238,0.714-0.88,0.643v1.071
		c0,0,1.095,0,2.023,0c0.928,0,1.118-0.69,1.237-1.333c0.119-0.643,0.666-7.401,0.666-7.401l-1.666-0.024l-0.238,5.188h-0.19
		L32.574,16.885z"/>
	<path d="M33.407,25.833h-2.023c-0.079,0-0.143-0.064-0.143-0.143v-1.071c0-0.041,0.017-0.079,0.048-0.107
		c0.03-0.027,0.071-0.039,0.111-0.035c0.319,0.035,0.567-0.018,0.679-0.146c0.067-0.078,0.083-0.185,0.048-0.318
		c-0.119-0.451-1.422-6.828-1.477-7.099c-0.009-0.042,0.002-0.086,0.029-0.119c0.027-0.033,0.068-0.052,0.111-0.052h1.785
		c0.072,0,0.133,0.054,0.142,0.125l0.575,4.68l0.212-4.622c0.003-0.077,0.065-0.143,0.144-0.136l1.666,0.024
		c0.04,0.001,0.077,0.017,0.104,0.047c0.026,0.029,0.04,0.068,0.037,0.108c-0.022,0.276-0.549,6.773-0.668,7.415
		C34.691,24.89,34.517,25.833,33.407,25.833z M31.527,25.547h1.88c0.805,0,0.979-0.575,1.097-1.216
		c0.107-0.575,0.57-6.229,0.652-7.234l-1.375-0.02l-0.232,5.049c-0.003,0.076-0.066,0.136-0.143,0.136h-0.19
		c-0.072,0-0.133-0.054-0.142-0.125l-0.627-5.11h-1.483c0.214,1.044,1.333,6.51,1.438,6.912c0.075,0.286-0.017,0.472-0.108,0.577
		c-0.154,0.178-0.424,0.264-0.768,0.255V25.547z"/>
</g>
<g>
	<polygon fill="#FFFFFF" points="38.19,15.1 36.096,15.1 36.096,25.166 38.238,25.452 	"/>
	<path d="M38.238,25.595c-0.006,0-0.013,0-0.019-0.001l-2.142-0.286c-0.071-0.009-0.124-0.07-0.124-0.142V15.1
		c0-0.079,0.064-0.143,0.143-0.143h2.094c0.079,0,0.142,0.064,0.143,0.142l0.048,10.352c0,0.041-0.018,0.081-0.049,0.108
		C38.306,25.582,38.272,25.595,38.238,25.595z M36.239,25.041l1.855,0.247l-0.046-10.046h-1.809V25.041z"/>
</g>
<path fill="#3F1E6D" d="M41.54,14.976c0,0,0,0.99,0,2.321c-0.276-0.087-0.944-0.281-1.506-0.321
	c-0.727-0.052-1.272,0.753-1.272,2.155c0,1.402,0,3.583,0,4.362c0,0.779,0.052,2.337,1.246,2.311
	c1.194-0.026,1.584-0.364,1.584-0.364l0.104,0.441l2.077,0.286l0.052-11.191H41.54z M40.917,24.064c0-0.493,0-5.167,0-5.556
	c0-0.321,0.385-0.27,0.623-0.142c0,2.6,0,5.769,0,5.906C41.54,24.505,40.917,24.557,40.917,24.064z"/>
<path fill="#3F1E6D" d="M50.077,17.206c0,0,0,0.161,0,0.428c-0.294-0.171-0.899-0.493-1.392-0.571
	c-0.678-0.107-1.428,0.5-1.428,2.427s0,2.534,0,3.891c0,1.356,0.75,3.07,2.856,1.785c0,0,0,0.643,0,1.214s-0.857,0.535-0.857-0.178
	l-2.035-0.357c0,1.321,0.643,2.713,2.392,2.713c1.749,0,2.463-0.928,2.463-2.07c0-1.142,0-9.281,0-9.281H50.077z M49.47,23.631
	c0-0.535,0-4.105,0-4.462c0-0.464,0.33-0.41,0.607-0.181c0,1.708,0,4.105,0,4.643C50.077,24.488,49.47,24.167,49.47,23.631z"/>
<path fill="#3F1E6D" d="M57.886,25.702c0-0.441,0.012-3.765,0.023-6.425h0.628v-1.82h-0.621c0.004-0.939,0.006-1.571,0.006-1.571
	h-2.193c0,0,0,0.627,0,1.571h-0.607v1.82h0.607c0,2.785,0,6.363,0,6.961c0,0.999,0.916,1.892,2.915,1.892v-1.678
	C58.643,26.451,57.886,26.451,57.886,25.702z"/>
<path fill="#3F1E6D" d="M61.356,17.171c-0.928,0-2.392,1.035-2.392,2.463s0,2.035,0,2.035h1.928c0,0,0-1.606,0-2.142
	c0-0.535,0.607-0.571,0.607,0c0,0.197,0,1.047,0,2.09c-0.416,0.233-1.098,0.625-1.499,0.909C59.393,22.953,59,23.631,59,24.952
	s0,1.035,0,1.321c0,0.999,0.321,1.856,1.249,1.999c0.928,0.143,1.463-0.25,1.463-0.25l0.143,0.5l1.928,0.25c0,0,0-6.461,0-8.103
	C63.783,19.027,63.284,17.171,61.356,17.171z M60.964,26.023c0-0.678,0-1.463,0-1.82c0-0.202,0.287-0.508,0.535-0.735
	c0,1.485,0,2.855,0,3.019C61.499,26.844,60.964,26.701,60.964,26.023z"/>
<polygon fill="#3F1E6D" points="66.71,29.2 64.355,28.879 64.355,15.065 66.71,15.065 "/>
<path fill="#03A1A2" d="M44.151,16.849h2.534c0,0,0-0.892,0-1.142s-0.238-0.75-0.714-0.75s-0.773,0-1.106,0
	c-0.428,0-0.711,0.416-0.711,0.75C44.155,16.04,44.151,16.849,44.151,16.849z"/>
<path fill="#03A1A2" d="M46.364,19.241v-1.606h-1.963v1.606h-0.25v5.997c0,0.607,0.25,1.249,1.285,1.249
	c1.035,0,1.214-0.714,1.214-1.249v-5.997H46.364z M44.878,18.095h0.27v0.563h-0.27V18.095z M45.801,19.355h-0.855v-0.36h0.855
	V19.355z M45.936,18.658h-0.27v-0.563h0.27V18.658z"/>
<path fill="#03A1A2" d="M52.603,17.064h2.534c0,0,0-1.107,0-1.356s-0.238-0.75-0.714-0.75s-0.773,0-1.106,0
	c-0.428,0-0.711,0.416-0.711,0.75C52.607,16.04,52.603,17.064,52.603,17.064z"/>
<path fill="#03A1A2" d="M54.816,19.741v-1.606h-1.963v1.606h-0.25v6.711c0,0.607,0.25,1.249,1.285,1.249s1.214-0.714,1.214-1.249
	v-6.711H54.816z M53.33,18.595h0.27v0.563h-0.27V18.595z M54.253,19.855h-0.855v-0.36h0.855V19.855z M54.388,19.157h-0.27v-0.563
	h0.27V19.157z"/>
<polygon fill="#03A1A2" points="55.966,33.376 54.943,33.233 54.943,32.02 55.966,32.163 "/>
<g>
	<path fill="#3F1E6D" d="M57.22,32.577c0,0.168,0.011,0.372,0.298,0.421c0.244,0.042,0.308-0.04,0.307-0.317l-0.001-0.639
		l1.072,0.185l0.001,0.446c0.001,0.513-0.115,0.821-0.348,0.982c-0.233,0.162-0.573,0.179-1.029,0.1
		c-0.382-0.066-0.733-0.211-0.977-0.463c-0.245-0.252-0.394-0.623-0.396-1.136l-0.005-2.01c-0.001-0.513,0.147-0.832,0.39-1
		c0.244-0.168,0.594-0.192,0.976-0.126c0.456,0.079,0.796,0.213,1.031,0.455c0.234,0.242,0.351,0.59,0.353,1.103l0.001,0.362
		l-1.072-0.185l-0.001-0.555c-0.001-0.277-0.065-0.381-0.309-0.423c-0.287-0.049-0.297,0.151-0.297,0.319L57.22,32.577z"/>
	<path fill="#3F1E6D" d="M62.017,33.346c-0.031,0.44-0.2,0.722-0.571,0.902c-0.191,0.093-0.456,0.106-0.806,0.046
		c-0.69-0.119-1.031-0.48-1.201-0.812c-0.096-0.193-0.16-0.406-0.171-0.635l-0.006-2.313c0.031-0.44,0.2-0.739,0.571-0.927
		c0.18-0.095,0.445-0.108,0.796-0.048c0.69,0.119,1.041,0.482,1.212,0.806c0.096,0.193,0.16,0.397,0.171,0.618L62.017,33.346z
		 M61.003,30.835c0.01-0.175-0.033-0.308-0.139-0.427c-0.053-0.051-0.138-0.091-0.234-0.108c-0.202-0.035-0.286,0.06-0.329,0.179
		c-0.032,0.062-0.042,0.136-0.032,0.23l0.006,2.313c-0.01,0.175,0.043,0.31,0.139,0.419c0.053,0.051,0.128,0.089,0.223,0.106
		c0.202,0.035,0.297-0.05,0.339-0.168c0.032-0.062,0.042-0.136,0.031-0.23L61.003,30.835z"/>
	<path fill="#3F1E6D" d="M65.23,34.961l-1.009-0.174l-0.009-3.641c0-0.177-0.17-0.231-0.287-0.251
		c-0.117-0.02-0.212,0.014-0.286,0.06c-0.042,0.026-0.085,0.053-0.117,0.089l0.009,3.624l-1.072-0.185l-0.011-4.6l1.072,0.185
		l0.001,0.387c0.021-0.005,0.064-0.031,0.127-0.071c0.117-0.072,0.297-0.167,0.488-0.219c0.096-0.025,0.18-0.028,0.276-0.011
		c0.382,0.066,0.606,0.348,0.723,0.637c0.042-0.018,0.095-0.051,0.17-0.097c0.138-0.094,0.318-0.172,0.52-0.23
		c0.095-0.026,0.191-0.034,0.287-0.018c0.287,0.049,0.489,0.219,0.617,0.409c0.128,0.199,0.192,0.437,0.193,0.63l0.009,3.767
		L65.92,35.08l-0.009-3.641c0-0.177-0.17-0.231-0.287-0.251c-0.117-0.02-0.212,0.014-0.286,0.06
		c-0.042,0.026-0.085,0.053-0.116,0.089L65.23,34.961z"/>
</g>
<rect fill="none" width="125" height="40"/>
</svg>
