<?xml version="1.0" encoding="utf-8"?>
<!-- Generator: Adobe Illustrator 20.1.0, SVG Export Plug-In . SVG Version: 6.00 Build 0)  -->
<svg version="1.1" id="logos" xmlns="http://www.w3.org/2000/svg" xmlns:xlink="http://www.w3.org/1999/xlink" x="0px" y="0px"
	 viewBox="0 0 125 40" enable-background="new 0 0 125 40" xml:space="preserve">
<g>
	<g>
		<circle fill="#2BC5B4" cx="13.091" cy="19.982" r="13.091"/>
		<path fill="#FFFFFF" d="M12.562,15.873h-0.381c-0.744,0-1.347-0.603-1.347-1.347v0c0-0.744,0.603-1.347,1.347-1.347h0.381
			c0.744,0,1.347,0.603,1.347,1.347v0C13.909,15.27,13.306,15.873,12.562,15.873z"/>
		<g>
			<path fill="#FFFFFF" d="M12.372,24.527L12.372,24.527c-0.849,0-1.538-0.688-1.538-1.538v-4.673c0-0.849,0.688-1.538,1.538-1.538
				h0c0.849,0,1.538,0.688,1.538,1.538v4.673C13.909,23.839,13.221,24.527,12.372,24.527z"/>
			<path fill="#FFFFFF" d="M9.856,21.023v-5.459c0-0.632-0.512-1.144-1.144-1.144H7.925c-0.632,0-1.144,0.512-1.144,1.144v5.066
				c0,0.322-0.143,1.442-1.383,1.442s-1.812-0.954-1.812-0.954s-1.001,0.62-1.001,1.669c0,0.739,1.025,1.907,3.409,1.907
				C7.782,24.694,9.856,23.526,9.856,21.023z"/>
			<path fill="#FFFFFF" d="M18.856,16.565c-2.298,0-4.16,1.82-4.16,4.065c0,2.245,1.863,4.065,4.16,4.065
				c2.298,0,4.16-1.82,4.16-4.065C23.016,18.385,21.153,16.565,18.856,16.565z M18.856,22.429c-0.902,0-1.633-0.806-1.633-1.8
				c0-0.994,0.731-1.8,1.633-1.8c0.902,0,1.633,0.806,1.633,1.8C20.489,21.623,19.758,22.429,18.856,22.429z"/>
		</g>
		<path fill="#2A2D36" d="M34.552,29.673h-2.937c-1.793,0-3.247-1.454-3.247-3.247v-0.663c0-0.208,0.196-0.36,0.397-0.306
			c0.684,0.182,2.143,0.619,3.511,1.35c1.502,0.803,2.234,1.731,2.563,2.415C34.939,29.431,34.784,29.673,34.552,29.673z"/>
		<path fill="#2A2D36" d="M47.702,25.071v1.081c0,1.945-1.577,3.521-3.521,3.521h-4.478c-0.255,0-0.404-0.285-0.261-0.496
			c0.335-0.493,1.124-1.33,2.978-2.403c1.798-1.024,3.984-1.738,4.875-2.007C47.498,24.706,47.702,24.859,47.702,25.071z"/>
		<path fill="#2A2D36" d="M31.634,10.681c-0.119-0.239-0.377-0.381-0.641-0.343c-1.485,0.218-2.626,1.497-2.626,3.043v3.04
			c0,0.108,0.053,0.208,0.142,0.269c0.6,0.406,2.98,2.127,4.796,5.06c1.989,3.214,2.466,5.875,2.758,7.652
			c0.026,0.157,0.161,0.271,0.32,0.271h1.147c0.146,0,0.274-0.097,0.313-0.238c0.211-0.767,1.022-3.305,3.192-6.333
			c2.156-3.008,5.302-4.828,6.329-5.369c0.208-0.11,0.338-0.326,0.338-0.561v-3.431c0-1.897-1.538-3.435-3.435-3.435h-4.033
			c-0.31,0-0.541,0.283-0.479,0.587c0.153,0.754,0.379,2.206,0.379,4.191c0,2.995-0.644,7.859-3.156,13.817
			c0,0-1.031-6.796-2.48-11.176C33.348,14.251,32.101,11.621,31.634,10.681z"/>
		<path fill="#2A2D36" d="M45.195,6.891H30.552c-2.758,0-5.031,2.07-5.354,4.74c0.591,0.855,1.093,1.776,1.495,2.749v-1.306
			c0-2.556,2.072-4.628,4.628-4.628h13.53c2.571,0,4.655,2.084,4.655,4.655v13.797c0,2.571-2.084,4.655-4.655,4.655h-13.53
			c-2.556,0-4.628-2.072-4.628-4.628v-1.342c-0.402,0.975-0.906,1.898-1.499,2.755c0.31,2.686,2.59,4.771,5.358,4.771h14.643
			c3.229,0,5.846-2.617,5.846-5.846V12.737C51.042,9.509,48.424,6.891,45.195,6.891z"/>
		<g>
			<path fill="#2A2D36" d="M56.946,15.856c0-1.224,1.256-2.158,3.543-2.158c1.772,0,3.448,0.638,4.112,0.926
				c0.167,0.072,0.361-0.004,0.432-0.172l0.579-1.359c0.071-0.167-0.006-0.36-0.174-0.43c-0.699-0.292-2.547-0.962-4.788-0.962
				c-2.866,0-5.958,1.159-5.958,4.38c0,4.928,9.147,4.251,9.147,8.116c0,1.417-1.127,2.512-4.09,2.512
				c-2.112,0-3.258-0.491-3.743-0.773c-0.161-0.094-0.367-0.032-0.453,0.134l-0.645,1.246c-0.075,0.146-0.032,0.323,0.102,0.418
				c0.452,0.321,1.682,0.939,4.449,0.939c3.736,0,6.635-1.256,6.635-4.638C66.093,18.336,56.946,19.786,56.946,15.856z"/>
			<path fill="#2A2D36" d="M74.756,11.766c-0.999,0-2.12-0.121-5.327,1.192c-0.17,0.069-0.25,0.265-0.177,0.433l0.541,1.256
				c0.072,0.167,0.265,0.244,0.431,0.171c0.726-0.319,2.642-1.087,4.274-1.087c1.739,0,3.639,0.612,3.639,3.639
				c0,0.502,0,0.937,0,1.319c-0.614-0.001-2.433,0.013-4.799,0.195c-2.931,0.225-5.926,1.321-5.926,5.185
				c0,3.672,2.963,4.606,5.54,4.606s4.123-0.805,5.25-2.319c0.193-0.193,0.354-0.064,0.354,0.129v1.669
				c0,0.181,0.147,0.327,0.327,0.327h1.342c0.181,0,0.327-0.147,0.327-0.327V17.209C80.554,14.858,79.749,11.766,74.756,11.766z
				 M78.138,21.879c0,0.837-0.258,4.863-5.121,4.863c-2.416,0-3.156-1.353-3.156-2.866c0-1.514,0.805-3.189,4.767-3.446
				c2.181-0.067,3.131-0.072,3.511-0.069C78.138,21.058,78.138,21.443,78.138,21.879z"/>
			<path fill="#2A2D36" d="M89.664,11.766c-0.999,0-2.12-0.121-5.327,1.192c-0.17,0.069-0.25,0.265-0.177,0.433l0.541,1.256
				c0.072,0.167,0.265,0.244,0.431,0.171c0.726-0.319,2.642-1.087,4.274-1.087c1.739,0,3.639,0.612,3.639,3.639
				c0,0.502,0,0.937,0,1.319c-0.614-0.001-2.433,0.013-4.799,0.195c-2.931,0.225-5.926,1.321-5.926,5.185
				c0,3.672,2.963,4.606,5.54,4.606s4.123-0.805,5.25-2.319c0.193-0.193,0.354-0.064,0.354,0.129v1.669
				c0,0.181,0.147,0.327,0.327,0.327h1.342c0.181,0,0.327-0.147,0.327-0.327V17.209C95.461,14.858,94.656,11.766,89.664,11.766z
				 M93.046,21.879c0,0.837-0.258,4.863-5.121,4.863c-2.416,0-3.156-1.353-3.156-2.866c0-1.514,0.805-3.189,4.767-3.446
				c2.181-0.067,3.131-0.072,3.511-0.069C93.046,21.058,93.046,21.443,93.046,21.879z"/>
			<path fill="#2A2D36" d="M110.486,11.992h-1.936c-0.14,0-0.264,0.089-0.31,0.221l-4.852,14.079l-4.916-14.081
				c-0.046-0.131-0.17-0.22-0.309-0.22h-1.871c-0.229,0-0.387,0.229-0.306,0.443l5.97,15.868c0.048,0.128,0.17,0.212,0.306,0.212
				h2.316c0.137,0,0.259-0.085,0.307-0.213l5.908-15.868C110.873,12.219,110.715,11.992,110.486,11.992z"/>
			<path fill="#2A2D36" d="M119.428,11.763c-2.77,0-4.284,1.323-5.218,2.644l-0.401-2.148c-0.029-0.155-0.164-0.267-0.322-0.267
				h-1.365c-0.181,0-0.327,0.147-0.327,0.327v15.868c0,0.181,0.147,0.327,0.327,0.327h1.696c0.181,0,0.327-0.147,0.327-0.327v-8.787
				c0-2.126,0.58-5.604,5.057-5.604c2.319,0,3.35,1.61,3.35,3.768v10.623c0,0.181,0.147,0.327,0.327,0.327h1.793
				c0.181,0,0.327-0.147,0.327-0.327V17.853C125,15.663,124.485,11.763,119.428,11.763z"/>
		</g>
	</g>
	<rect x="0" y="0" fill="none" width="125" height="40"/>
</g>
</svg>
