<?xml version="1.0" encoding="utf-8"?>
<!-- Generator: Adobe Illustrator 25.4.0, SVG Export Plug-In . SVG Version: 6.00 Build 0)  -->
<svg version="1.1" id="logos" xmlns="http://www.w3.org/2000/svg" xmlns:xlink="http://www.w3.org/1999/xlink" x="0px" y="0px"
	 viewBox="0 0 125 40" enable-background="new 0 0 125 40" xml:space="preserve">
<g>
	<path fill="#020202" d="M25.723,24.42c0,5.145-4.105,9.301-9.301,9.301c-5.145,0-9.25-4.055-9.25-9.301
		c0-2.469,0.934-4.652,2.418-6.289L3.301,24.42L0,21.119l7.094-7.016c0.961-0.961,1.457-2.207,1.457-3.586V1.709h4.652v8.809
		c0,2.703-0.961,4.988-2.832,6.859l-0.207,0.207c1.637-1.508,3.871-2.418,6.262-2.418C21.695,15.17,25.723,19.354,25.723,24.42
		 M21.516,24.42c0-2.754-2.285-4.988-5.094-4.988c-2.832,0-5.039,2.34-5.039,4.988c0,2.727,2.234,5.039,5.039,5.039
		C19.332,29.459,21.516,27.096,21.516,24.42"/>
	<g>
		<path fill="#020202" d="M41,15.377c1.953,0,3.465,0.406,4.543,1.223c1.078,0.816,1.617,1.953,1.617,3.41
			c0,1.07-0.285,1.949-0.852,2.633c-0.57,0.688-1.387,1.148-2.457,1.387c2.664,0.457,3.996,1.859,3.996,4.199
			c0,1.543-0.574,2.758-1.719,3.641s-2.777,1.324-4.898,1.324h-6.773V15.377H41z M37.383,22.939h3.691c1,0,1.777-0.23,2.328-0.688
			c0.551-0.457,0.828-1.086,0.828-1.883s-0.277-1.422-0.828-1.871c-0.551-0.449-1.328-0.676-2.328-0.676h-3.691V22.939z
			 M37.383,30.729h3.867c1.152,0,2.039-0.234,2.66-0.699c0.621-0.465,0.93-1.117,0.93-1.949c0-0.867-0.312-1.535-0.941-2.012
			c-0.629-0.473-1.512-0.711-2.648-0.711h-3.867C37.383,25.357,37.383,30.729,37.383,30.729z"/>
		<path fill="#020202" d="M49.207,23.182c0.535-1.008,1.281-1.789,2.238-2.34c0.957-0.551,2.059-0.828,3.297-0.828
			c1.254,0,2.363,0.254,3.32,0.766c0.957,0.508,1.715,1.23,2.266,2.164c0.551,0.934,0.836,2.027,0.852,3.285
			c0,0.34-0.027,0.688-0.078,1.043h-9.824v0.148c0.066,1.137,0.426,2.035,1.07,2.699c0.645,0.66,1.5,0.992,2.57,0.992
			c0.848,0,1.562-0.199,2.137-0.598c0.578-0.398,0.957-0.961,1.145-1.691h2.75c-0.238,1.324-0.879,2.41-1.922,3.258
			c-1.043,0.848-2.348,1.273-3.906,1.273c-1.359,0-2.543-0.277-3.551-0.828c-1.012-0.551-1.789-1.328-2.34-2.328
			c-0.551-1-0.828-2.164-0.828-3.488C48.406,25.365,48.676,24.189,49.207,23.182 M58.387,25.256
			c-0.117-0.949-0.496-1.691-1.133-2.227c-0.637-0.535-1.437-0.801-2.406-0.801c-0.898,0-1.676,0.277-2.328,0.828
			c-0.652,0.551-1.031,1.285-1.133,2.203h7V25.256z"/>
		<path fill="#020202" d="M74.5,30.803v2.395h-1.449c-0.848,0-1.461-0.18-1.832-0.535c-0.375-0.355-0.559-0.875-0.559-1.551
			c-0.984,1.492-2.418,2.238-4.301,2.238c-1.461,0-2.629-0.34-3.512-1.02c-0.883-0.68-1.324-1.613-1.324-2.801
			c0-1.34,0.477-2.371,1.426-3.094c0.949-0.723,2.332-1.082,4.148-1.082h3.285v-0.785c0-0.73-0.254-1.301-0.762-1.719
			c-0.508-0.414-1.215-0.625-2.113-0.625c-0.797,0-1.457,0.176-1.973,0.523c-0.52,0.348-0.828,0.812-0.93,1.387h-2.699
			c0.137-1.305,0.711-2.32,1.73-3.043c1.02-0.723,2.352-1.082,3.996-1.082c1.746,0,3.098,0.406,4.047,1.223s1.426,1.984,1.426,3.512
			v5.141c0,0.609,0.289,0.918,0.867,0.918C73.973,30.803,74.5,30.803,74.5,30.803z M70.379,27.393h-3.41
			c-0.848,0-1.5,0.164-1.961,0.496c-0.457,0.332-0.688,0.82-0.688,1.465c0,0.559,0.215,1.012,0.648,1.348
			c0.434,0.34,1.023,0.508,1.77,0.508c1.137,0,2.023-0.305,2.66-0.918c0.637-0.609,0.965-1.426,0.98-2.445V27.393z"/>
		<path fill="#020202" d="M75.582,22.584h-2.266v-2.418h2.266v-3.641h2.773v3.641h3.133v2.418h-3.133v6.797
			c0,0.508,0.102,0.871,0.305,1.082c0.203,0.211,0.551,0.316,1.043,0.316h2.086v2.418h-2.648c-1.238,0-2.141-0.289-2.711-0.867
			c-0.57-0.578-0.852-1.469-0.852-2.672v-7.074H75.582z"/>
		<path fill="#020202" d="M92.676,20.814c0.934,0.535,1.664,1.309,2.188,2.316c0.527,1.008,0.789,2.195,0.789,3.551
			c0,1.324-0.262,2.492-0.789,3.5c-0.527,1.012-1.258,1.789-2.188,2.344c-0.934,0.551-1.992,0.828-3.18,0.828
			c-0.969,0-1.809-0.18-2.52-0.535c-0.711-0.355-1.281-0.84-1.707-1.449v6.922h-2.75V20.166h2.395l0.332,1.934
			c1.051-1.391,2.469-2.086,4.25-2.086C90.68,20.01,91.742,20.279,92.676,20.814 M91.797,29.811
			c0.703-0.816,1.055-1.859,1.055-3.129c0-1.289-0.352-2.332-1.055-3.133c-0.703-0.797-1.625-1.195-2.762-1.195
			c-1.137,0-2.055,0.395-2.75,1.184s-1.043,1.82-1.043,3.094c0,1.309,0.348,2.367,1.043,3.18c0.695,0.816,1.613,1.223,2.75,1.223
			C90.172,31.033,91.094,30.627,91.797,29.811"/>
		<path fill="#020202" d="M99.664,32.521c-1.012-0.551-1.789-1.332-2.344-2.34c-0.551-1.008-0.828-2.176-0.828-3.5
			c0-1.305,0.277-2.465,0.828-3.473c0.551-1.012,1.332-1.793,2.344-2.355c1.008-0.559,2.168-0.84,3.473-0.84
			c1.305,0,2.465,0.281,3.473,0.84c1.008,0.559,1.789,1.344,2.34,2.355s0.828,2.168,0.828,3.473c0,1.324-0.277,2.492-0.828,3.5
			c-0.551,1.012-1.332,1.789-2.34,2.34c-1.012,0.551-2.168,0.828-3.473,0.828C101.828,33.35,100.672,33.072,99.664,32.521
			 M105.926,29.799c0.703-0.805,1.055-1.844,1.055-3.117c0-1.273-0.352-2.312-1.055-3.117c-0.703-0.805-1.633-1.211-2.789-1.211
			c-1.152,0-2.078,0.402-2.773,1.211c-0.695,0.805-1.043,1.844-1.043,3.117c0,1.273,0.348,2.312,1.043,3.117
			c0.695,0.805,1.621,1.211,2.773,1.211C104.289,31.006,105.219,30.604,105.926,29.799"/>
		<path fill="#020202" d="M117.926,20.162v2.57h-1.223c-1.137,0-1.961,0.367-2.469,1.105c-0.508,0.738-0.766,1.676-0.766,2.812
			v6.543h-2.75V20.162h2.445l0.305,1.961c0.375-0.609,0.855-1.09,1.449-1.438c0.594-0.348,1.391-0.523,2.395-0.523H117.926z"/>
		<path fill="#020202" d="M118.816,16.525h2.75v3.641h3.156v2.418h-3.156v6.797c0,0.508,0.102,0.871,0.305,1.082
			c0.203,0.211,0.551,0.32,1.043,0.32H125v2.418h-2.648c-1.238,0-2.137-0.289-2.699-0.863c-0.559-0.578-0.84-1.469-0.84-2.672
			V16.525H118.816z"/>
	</g>
</g>
<rect x="0" y="0" fill="none" width="125" height="40"/>
</svg>
