<?xml version="1.0" encoding="utf-8"?>
<!-- Generator: Adobe Illustrator 20.1.0, SVG Export Plug-In . SVG Version: 6.00 Build 0)  -->
<svg version="1.1" id="logos" xmlns="http://www.w3.org/2000/svg" xmlns:xlink="http://www.w3.org/1999/xlink" x="0px" y="0px"
	 viewBox="0 0 125 40" enable-background="new 0 0 125 40" xml:space="preserve">
<g>
	<g>
		
			<linearGradient id="SVGID_1_" gradientUnits="userSpaceOnUse" x1="11.922" y1="7.5094" x2="11.922" y2="31.6215" gradientTransform="matrix(1 0 0 -1 0 39.89)">
			<stop  offset="0" style="stop-color:#E50000"/>
			<stop  offset="1" style="stop-color:#CC0000"/>
		</linearGradient>
		<circle fill="url(#SVGID_1_)" cx="11.922" cy="20" r="11.922"/>
		<g>
			<path fill="#1F2528" d="M46.151,12.08H31.913c-0.466,0-0.843,0.377-0.843,0.843V27.42c0,0.253,0.205,0.458,0.458,0.458h0.668
				c0.253,0,0.458-0.205,0.458-0.458V14.039c0-0.184,0.149-0.333,0.333-0.333h12.047c0.184,0,0.333,0.149,0.333,0.333v11.422
				c0,0.46-0.373,0.834-0.834,0.834h-0.822c-0.27,0-0.523,0.128-0.683,0.345l-0.568,0.771c-0.143,0.194-0.004,0.468,0.237,0.468
				h1.649c1.462,0,2.647-1.185,2.647-2.647V12.923C46.994,12.457,46.617,12.08,46.151,12.08z"/>
			<path fill="#1F2528" d="M38.026,19.896l-2.448-4.273c-0.03-0.052-0.085-0.084-0.144-0.084h-1.368
				c-0.128,0-0.207,0.138-0.144,0.249l2.353,4.108c0.029,0.051,0.029,0.114,0,0.166l-2.351,4.066
				c-0.064,0.111,0.016,0.249,0.144,0.249h1.367c0.059,0,0.114-0.032,0.144-0.083l2.447-4.232
				C38.055,20.011,38.055,19.948,38.026,19.896z"/>
			<path fill="#1F2528" d="M42.713,24.377h1.367c0.128,0,0.208-0.138,0.144-0.249l-2.351-4.066c-0.03-0.051-0.03-0.114,0-0.166
				l2.353-4.108c0.063-0.111-0.017-0.249-0.144-0.249h-1.368c-0.06,0-0.114,0.032-0.144,0.084l-1.476,2.576
				c-0.064,0.111-0.224,0.111-0.288,0l-1.476-2.576c-0.03-0.052-0.085-0.084-0.144-0.084h-1.368c-0.128,0-0.207,0.138-0.144,0.249
				l2.353,4.108c0.029,0.051,0.029,0.114,0,0.166l-2.351,4.066c-0.064,0.111,0.016,0.249,0.144,0.249h1.367
				c0.059,0,0.114-0.032,0.144-0.083l1.476-2.552c0.064-0.111,0.224-0.111,0.287,0l1.476,2.552
				C42.599,24.345,42.654,24.377,42.713,24.377z"/>
			<path fill="#1F2528" d="M53.518,18.749h11.297c0.472,0,0.855-0.383,0.855-0.855v-5.353c0-0.255-0.207-0.462-0.462-0.462H53.125
				c-0.255,0-0.462,0.207-0.462,0.462v5.353C52.663,18.367,53.046,18.749,53.518,18.749z M54.414,13.56
				c0-0.173,0.14-0.313,0.313-0.313h9.129c0.173,0,0.313,0.14,0.313,0.313v0.875c0,0.173-0.14,0.313-0.313,0.313h-9.129
				c-0.173,0-0.313-0.14-0.313-0.313C54.414,14.435,54.414,13.56,54.414,13.56z M54.414,16.311c0-0.173,0.14-0.313,0.313-0.313
				h9.129c0.173,0,0.313,0.14,0.313,0.313v0.875c0,0.173-0.14,0.313-0.313,0.313h-9.129c-0.173,0-0.313-0.14-0.313-0.313
				C54.414,17.186,54.414,16.311,54.414,16.311z"/>
			<path fill="#1F2528" d="M103.269,20.083H91.598c-0.253,0-0.459,0.205-0.459,0.459v6.399c0,0.518,0.42,0.938,0.938,0.938h10.713
				c0.518,0,0.938-0.42,0.938-0.938v-6.399C103.728,20.289,103.523,20.083,103.269,20.083z M102.227,26.147
				c0,0.149-0.121,0.27-0.27,0.27h-8.798c-0.149,0-0.27-0.121-0.27-0.27v-1.215c0-0.149,0.121-0.27,0.27-0.27h8.798
				c0.149,0,0.27,0.121,0.27,0.27V26.147z M102.227,22.932c0,0.149-0.121,0.27-0.27,0.27h-8.798c-0.149,0-0.27-0.121-0.27-0.27
				v-1.215c0-0.149,0.121-0.27,0.27-0.27h8.798c0.149,0,0.27,0.121,0.27,0.27V22.932z"/>
			<path fill="#1F2528" d="M65.648,20H53.546c-0.24,0-0.465,0.115-0.605,0.31l-2.387,3.318c-0.094,0.13-0.001,0.312,0.16,0.312
				h1.311c0.061,0,0.119-0.029,0.157-0.078l1.921-2.529c0.039-0.052,0.101-0.082,0.166-0.082h2.003c0.171,0,0.269,0.195,0.168,0.332
				l-4.267,5.778c-0.159,0.215-0.005,0.518,0.262,0.518h1.088c0.103,0,0.2-0.049,0.261-0.132l4.736-6.411
				c0.039-0.053,0.102-0.085,0.168-0.085h2.004c0.171,0,0.269,0.195,0.168,0.332l-4.267,5.778c-0.159,0.215-0.005,0.518,0.262,0.518
				h1.088c0.103,0,0.2-0.049,0.261-0.132l4.736-6.411c0.039-0.053,0.102-0.085,0.168-0.085h1.356c0.115,0,0.208,0.093,0.208,0.208
				v3.96c0,0.437-0.355,0.792-0.792,0.792h-1.792l-0.797,1.139c-0.156,0.223,0.003,0.529,0.275,0.529h1.897
				c1.519,0,2.751-1.232,2.751-2.751v-4.565C66.211,20.252,65.959,20,65.648,20z"/>
			<path fill="#1F2528" d="M71.859,14.247h12.422c0.426,0,0.771-0.345,0.771-0.771v-0.438c0-0.207-0.168-0.375-0.375-0.375h-6.565
				h-1.271h-5.377c-0.207,0-0.375,0.168-0.375,0.375v0.438C71.088,13.902,71.434,14.247,71.859,14.247z"/>
			<path fill="#1F2528" d="M86.012,17.957H70.213c-0.207,0-0.375,0.168-0.375,0.375v0.438c0,0.426,0.345,0.771,0.771,0.771h4.454
				l-3.832,7.206c-0.273,0.513,0.099,1.131,0.679,1.131h12.584c0.757,0,1.237-0.812,0.871-1.475l-1.978-3.588
				c-0.079-0.143-0.229-0.231-0.391-0.231h-1.445l1.672,3.307c0.093,0.185-0.041,0.403-0.248,0.403h-9.519
				c-0.147,0-0.241-0.157-0.171-0.287l3.49-6.466h8.84c0.426,0,0.771-0.345,0.771-0.771v-0.438
				C86.387,18.125,86.219,17.957,86.012,17.957z"/>
			<path fill="#1F2528" d="M105.27,17.165h-4.431l1.713-2.918h1.072c0.426,0,0.771-0.345,0.771-0.771v-0.438
				c0-0.207-0.168-0.375-0.375-0.375h-5.526l-1.038-1.361c-0.027-0.035-0.069-0.056-0.113-0.056H96.03
				c-0.113,0-0.181,0.126-0.118,0.22l0.789,1.197h-5.895c-0.207,0-0.375,0.168-0.375,0.375v0.438c0,0.426,0.345,0.771,0.771,0.771
				h1.1l1.621,2.918h-4.284c-0.207,0-0.375,0.168-0.375,0.375v0.438c0,0.426,0.345,0.771,0.771,0.771h14.84
				c0.426,0,0.771-0.345,0.771-0.771V17.54C105.646,17.333,105.478,17.165,105.27,17.165z M99.013,17.165h-3.342l-1.658-2.918h6.77
				L99.013,17.165z"/>
			<path fill="#1F2528" d="M124.487,19v-0.542h-6.232c-0.173,0-0.313-0.14-0.313-0.313v-2.751c0-0.242-0.196-0.438-0.438-0.438
				h-0.25c-0.495,0-0.896,0.401-0.896,0.896v2.293c0,0.173-0.14,0.313-0.313,0.313h-4.579c-0.215,0-0.383-0.186-0.361-0.401
				l0.344-3.302c0.018-0.174,0.157-0.31,0.331-0.325l10.902-0.915c0.412-0.035,0.735-0.368,0.757-0.781l0.027-0.527
				c0.01-0.199-0.159-0.361-0.357-0.343l-12.482,1.17c-0.28,0.026-0.504,0.245-0.536,0.525l-0.641,5.596
				c-0.051,0.45,0.3,0.844,0.753,0.844h5.841c0.173,0,0.313,0.14,0.313,0.313v4.813c0,0.713-0.578,1.291-1.291,1.291h-0.418
				l-0.581,0.849c-0.178,0.26,0.008,0.612,0.323,0.612h0.696c1.577,0,2.855-1.278,2.855-2.855v-4.71c0-0.173,0.14-0.313,0.313-0.313
				h5.232C124.04,20,124.487,19.552,124.487,19z"/>
			<path fill="#1F2528" d="M113.463,21.417h-1.352c-0.08,0-0.154,0.042-0.195,0.111l-3.189,5.341
				c-0.09,0.151,0.019,0.343,0.195,0.343h1.429c0.081,0,0.155-0.043,0.196-0.113l3.112-5.341
				C113.747,21.607,113.638,21.417,113.463,21.417z"/>
			<path fill="#1F2528" d="M124.947,26.656l-3.021-5.059c-0.066-0.111-0.186-0.179-0.316-0.179h-1.028
				c-0.284,0-0.46,0.308-0.318,0.553l2.948,5.059c0.066,0.113,0.187,0.183,0.318,0.183h1.1
				C124.917,27.212,125.094,26.901,124.947,26.656z"/>
		</g>
		<g>
			<g>
				<path fill="#FFFFFF" d="M12.122,27.362c-1.818,0-3.544-0.677-4.885-1.923c-1.455-1.35-2.289-3.241-2.289-5.188
					c0-2.946,1.927-5.621,4.795-6.656c0.455-0.164,0.963,0.057,1.133,0.495c0.171,0.438-0.06,0.925-0.515,1.09
					c-2.185,0.788-3.653,2.826-3.653,5.071c0,1.49,0.638,2.937,1.751,3.971c1.056,0.98,2.421,1.493,3.849,1.444
					c2.189-0.074,3.893-1.151,4.674-2.953c0.053-0.123,1.234-2.945-1.603-4.718c-0.251-0.157-0.542-0.27-0.853-0.339l0.629,2.224
					v0.372c0,1.586-1.342,2.877-2.992,2.877c-1.554,0-2.81-1.173-2.987-2.789c-0.172-1.574,0.518-2.942,1.893-3.752
					c0.368-0.217,0.77-0.383,1.189-0.499l-0.251-0.886c-0.181-0.562-0.182-1.788,1.075-2.594c1.398-0.896,3.04-0.07,3.575,0.444
					c0.344,0.331,0.344,0.867,0,1.197c-0.34,0.327-0.889,0.33-1.233,0.01c-0.044-0.033-0.819-0.593-1.364-0.243
					c-0.491,0.315-0.373,0.675-0.372,0.678l0.014,0.045l0.326,1.153c0.837,0.04,1.648,0.267,2.311,0.682
					c3.275,2.047,2.914,5.341,2.265,6.796c-1.038,2.396-3.37,3.889-6.234,3.986C12.288,27.361,12.205,27.362,12.122,27.362z
					 M12.721,17.72c-0.259,0.075-0.506,0.179-0.731,0.312c-0.555,0.327-1.19,0.962-1.062,2.131c0.067,0.613,0.483,1.273,1.237,1.273
					c0.679,0,1.232-0.531,1.232-1.184v-0.146L12.721,17.72z"/>
			</g>
		</g>
	</g>
	<rect y="0" fill="none" width="125" height="40"/>
</g>
</svg>
