<?xml version="1.0" encoding="utf-8"?>
<!-- Generator: Adobe Illustrator 21.0.2, SVG Export Plug-In . SVG Version: 6.00 Build 0)  -->
<svg version="1.1" xmlns="http://www.w3.org/2000/svg" xmlns:xlink="http://www.w3.org/1999/xlink" x="0px" y="0px"
	 viewBox="0 0 125 40" enable-background="new 0 0 125 40" xml:space="preserve">
<g id="bg" display="none">
	<rect display="inline" fill="#FFFFFF" width="125" height="40"/>
</g>
<g id="icons">
	<g>
		<g>
			<g>
				<polygon fill="#010000" points="101.831,12.217 93.488,12.217 93.488,10.229 91.367,10.229 91.367,12.217 83.024,12.217 
					83.024,13.985 101.831,13.985 				"/>
				<path fill="#010000" d="M84.495,31.743h15.864v-9.838H84.495V31.743z M86.44,23.673h11.976v2.25H86.44V23.673z M86.44,27.69
					h11.976v2.285H86.44V27.69z"/>
				<path fill="#010000" d="M98.302,18.493l1.071-3.435l0.001-0.002c0.005-0.013,0.008-0.026,0.008-0.041
					c0-0.06-0.048-0.108-0.108-0.108H97.18l-1.125,3.586h-7.261l-1.125-3.586h-2.094c-0.06,0-0.108,0.048-0.108,0.108
					c0,0.014,0.003,0.028,0.008,0.041l0.001,0.002l1.071,3.435h-4.144v1.767h20.103v-1.767H98.302z"/>
			</g>
			<g>
				<g>
					<g>
						<path fill="#010000" d="M58.103,21.228c-0.001-6.414-3.89-10.724-9.679-10.724c-5.79,0-9.679,4.311-9.679,10.726
							c0,6.415,3.89,10.724,9.679,10.724v0c2.181,0,4.091-0.612,5.626-1.717l0.906,1.165h2.197c0.09,0,0.141-0.104,0.085-0.175
							l-1.772-2.267c1.676-1.877,2.637-4.544,2.637-7.73h0L58.103,21.228L58.103,21.228L58.103,21.228z M54.21,27.361l-1.931-2.431
							h-2.202c-0.088,0-0.137,0.101-0.083,0.17l2.8,3.538c-1.199,0.809-2.676,1.252-4.371,1.252c-4.709,0-7.751-3.4-7.751-8.66
							c0-5.262,3.043-8.662,7.751-8.662c4.709,0,7.751,3.4,7.751,8.662h0C56.174,23.763,55.467,25.862,54.21,27.361z"/>
						<path fill="#010000" d="M79.329,21.228c-0.001-6.414-3.89-10.724-9.679-10.724c-5.79,0-9.68,4.311-9.68,10.726
							c0,6.415,3.89,10.724,9.68,10.724v0c2.181,0,4.091-0.612,5.626-1.717l0.906,1.165h2.197c0.09,0,0.141-0.104,0.085-0.175
							l-1.772-2.267c1.676-1.877,2.637-4.544,2.637-7.73h0L79.329,21.228L79.329,21.228L79.329,21.228z M75.436,27.361l-1.931-2.431
							h-2.202c-0.088,0-0.137,0.101-0.083,0.17l2.8,3.538c-1.199,0.809-2.676,1.252-4.371,1.252c-4.709,0-7.751-3.4-7.751-8.66
							c0-5.262,3.043-8.662,7.751-8.662c4.709,0,7.751,3.4,7.751,8.662h0C77.4,23.763,76.693,25.862,75.436,27.361z"/>
					</g>
				</g>
			</g>
			<g>
				<path fill="#010000" d="M109.961,23.442c-0.105,0-2.157,0-2.157,0c-1.204,2.596-2.016,4.121-3.383,6.598
					c-0.039,0.072,0.005,0.164,0.092,0.164l2.253,0.001c0.536-0.98,2.147-4.037,3.288-6.605
					C110.079,23.542,110.054,23.44,109.961,23.442z"/>
				<path fill="#010000" d="M119.446,23.442c0.105,0,2.157,0,2.157,0c1.204,2.596,2.016,4.121,3.383,6.598
					c0.039,0.072-0.005,0.164-0.092,0.164l-2.253,0.001c-0.536-0.98-2.147-4.037-3.288-6.605
					C119.328,23.542,119.353,23.44,119.446,23.442z"/>
				<path fill="#010000" d="M116.17,20.117v-5.252h-2.123v5.252h-6.188l0.542-6.622c1.971-0.055,10.107-0.235,14.232-0.723V11.11
					c0-0.079-0.044-0.116-0.138-0.104c-3.846,0.479-12.185,0.715-16.096,0.766l-0.798,10.111l8.446,0.001v7.915h-3.517
					c-0.06,0-0.117,0.062-0.102,0.13c0.003,0.012,0.546,1.814,0.546,1.814l5.196-0.001v-9.859l7.956,0.001v-1.767H116.17z"/>
			</g>
		</g>
		<g>
			<linearGradient id="SVGID_1_" gradientUnits="userSpaceOnUse" x1="16.2529" y1="37.1041" x2="16.2529" y2="4.8055">
				<stop  offset="0" style="stop-color:#ECB61D"/>
				<stop  offset="1" style="stop-color:#E9CC2E"/>
			</linearGradient>
			<path fill="url(#SVGID_1_)" d="M0,21.09c0,8.976,7.277,16.253,16.253,16.253c8.976,0,16.253-7.277,16.253-16.253
				c0-8.976-7.277-16.253-16.253-16.253C7.277,4.837,0,12.114,0,21.09"/>
			<linearGradient id="SVGID_2_" gradientUnits="userSpaceOnUse" x1="16.2531" y1="34.5856" x2="16.2531" y2="3.4209">
				<stop  offset="0" style="stop-color:#1DA14F"/>
				<stop  offset="1" style="stop-color:#2FAE5C"/>
			</linearGradient>
			<path fill="url(#SVGID_2_)" d="M16.754,5.2c-4.756,0.636-6.358,3.458-6.358,3.458c-0.381,0.534,0,1.194,0,1.194l8.647,12.518
				c-1.22-0.38-2.586-0.476-3.981-0.217c-4.057,0.755-6.814,4.231-6.156,7.764c0.657,3.533,4.479,5.785,8.536,5.03
				c4.058-0.755,6.814-4.231,6.156-7.764c-0.097-0.522-0.265-1.015-0.491-1.476l0.003,0.002L23.1,25.69
				c-0.083-0.168-0.175-0.332-0.274-0.491l-7.853-14.073c9.918-0.102,6.943-8.469,6.943-8.469C20.518,4.895,16.754,5.2,16.754,5.2"
				/>
		</g>
	</g>
</g>
</svg>
