<?xml version="1.0" encoding="utf-8"?>
<!-- Generator: Adobe Illustrator 21.1.0, SVG Export Plug-In . SVG Version: 6.00 Build 0)  -->
<svg version="1.1" xmlns="http://www.w3.org/2000/svg" xmlns:xlink="http://www.w3.org/1999/xlink" x="0px" y="0px"
	 viewBox="0 0 125 40" enable-background="new 0 0 125 40" xml:space="preserve">
<g id="bg" display="none">
	<rect display="inline" fill="#FFFFFF" width="125" height="40"/>
</g>
<g id="icons">
	<g>
		<path fill-rule="evenodd" clip-rule="evenodd" fill="#40A0FF" d="M19.737,19.093c0.058-0.392,0.079-0.775,0.087-1.36
			c0.062-4.516-3.861-7.988-8.236-8.013c-1.07-0.007-1.606-0.007-2.677,0c-4.376,0.025-8.287,3.454-8.235,8.013
			c0.006,0.573,0.025,0.977,0.079,1.371c-0.562,0.821-0.85,1.914-0.728,3.079l0.036,0.346c0.241,2.291,1.976,3.987,3.875,3.787
			l0.101-0.011c1.297,2.432,3.591,3.97,6.209,3.98v0h0.006c0.213,0,0.385-0.172,0.385-0.385v-1.37c0-0.212-0.172-0.384-0.384-0.385
			v-0.003c-2.66,0-5.058-3.253-5.058-6.527c0-3.235,2.398-6.543,5.047-6.543v0h0.006c0.213,0,0.385-0.172,0.385-0.385v-1.353
			c0-0.211-0.17-0.382-0.38-0.385v-0.004C7.4,12.955,4.929,14.78,3.717,17.601L3.03,17.673c-0.036,0.004-0.07,0.012-0.105,0.018
			c-0.158-3.421,2.994-5.891,6.372-5.909c0.864-0.005,1.296-0.005,2.159,0c3.374,0.019,6.281,2.495,6.173,5.918
			c-0.053-0.009-0.105-0.021-0.158-0.026l-1.099-0.116v0.001c-0.004-0.001-0.007-0.002-0.01-0.003
			c-0.239-0.025-0.453,0.148-0.478,0.386l-0.817,7.78c-0.025,0.238,0.148,0.452,0.386,0.477c0.004,0.001,0.007,0,0.011,0v0.002
			l1.099,0.115c1.899,0.2,3.634-1.496,3.875-3.787l0.037-0.346C20.596,21.012,20.304,19.915,19.737,19.093z"/>
		<polygon fill-rule="evenodd" clip-rule="evenodd" fill="#808285" points="27.738,18.44 27.738,25.96 25.24,25.96 25.24,18.44 
			21.494,18.44 21.494,15.942 31.484,15.942 31.484,18.44 		"/>
		<path fill-rule="evenodd" clip-rule="evenodd" fill="#808285" d="M40.78,23.102c-0.333-0.333-0.666-0.694-1.027-1.054
			c0.611-0.222,1.138-0.583,1.526-1.111c0.416-0.527,0.638-1.165,0.638-1.859c0-0.832-0.333-1.582-0.943-2.192
			c-0.611-0.638-1.36-0.943-2.192-0.943H31.9V25.96h2.498v-3.746h2.025c0.139,0.167,0.306,0.306,0.472,0.472
			c0.416,0.444,0.888,0.916,1.388,1.415c0.666,0.693,1.165,1.165,1.47,1.47c0.25,0.25,0.555,0.389,0.888,0.389
			c0.36,0,0.638-0.139,0.888-0.389c0.223-0.249,0.333-0.527,0.333-0.888c0-0.36-0.11-0.639-0.333-0.889
			C41.363,23.656,41.113,23.434,40.78,23.102z M39.17,19.522c-0.111,0.111-0.25,0.166-0.388,0.166h-4.384V18.44h4.384
			c0.139,0,0.277,0.083,0.388,0.194c0.139,0.139,0.194,0.278,0.194,0.444C39.365,19.272,39.309,19.411,39.17,19.522z"/>
		<path fill-rule="evenodd" clip-rule="evenodd" fill="#808285" d="M50.798,17.413c-0.971-0.972-2.137-1.47-3.496-1.47
			c-1.388,0-2.582,0.499-3.552,1.47c-0.971,0.999-1.443,2.165-1.443,3.524v5.023h2.498v-2.526h4.994v2.526h2.47v-5.023
			C52.268,19.577,51.769,18.412,50.798,17.413z M44.804,20.936c0-0.665,0.222-1.249,0.72-1.748c0.472-0.5,1.055-0.749,1.777-0.749
			c0.666,0,1.249,0.249,1.748,0.749c0.472,0.499,0.721,1.082,0.749,1.748H44.804z"/>
		<path fill-rule="evenodd" clip-rule="evenodd" fill="#808285" d="M60.538,25.571c-0.5-0.472-0.971-0.943-1.443-1.415
			c-0.472-0.472-0.944-0.944-1.415-1.443c-0.472,0.5-0.971,0.972-1.443,1.443c-0.472,0.472-0.944,0.943-1.443,1.415
			c-0.222,0.25-0.527,0.389-0.861,0.389c-0.361,0-0.666-0.139-0.888-0.389c-0.25-0.249-0.361-0.527-0.361-0.888
			c0-0.36,0.111-0.639,0.361-0.889c0.472-0.471,0.943-0.943,1.415-1.414c0.471-0.472,0.943-0.943,1.443-1.444
			c-0.5-0.471-0.972-0.943-1.443-1.387c-0.472-0.472-0.944-0.971-1.415-1.471c-0.25-0.222-0.361-0.527-0.361-0.859
			c0-0.362,0.111-0.666,0.361-0.916c0.222-0.25,0.527-0.36,0.888-0.36c0.305,0,0.611,0.138,0.861,0.388
			c0.499,0.499,0.971,0.971,1.443,1.443c0.472,0.472,0.971,0.944,1.443,1.415c0.472-0.472,0.943-0.944,1.415-1.415
			c0.472-0.472,0.943-0.944,1.443-1.443c0.277-0.25,0.555-0.388,0.888-0.388c0.361,0,0.638,0.111,0.888,0.36
			c0.222,0.25,0.333,0.555,0.333,0.916c0,0.332-0.111,0.637-0.333,0.859c-0.499,0.5-0.971,0.999-1.443,1.471
			c-0.472,0.444-0.943,0.916-1.415,1.387c0.472,0.5,0.943,0.972,1.415,1.444c0.472,0.471,0.944,0.943,1.443,1.414
			c0.222,0.25,0.333,0.528,0.333,0.889c0,0.36-0.111,0.639-0.333,0.888c-0.25,0.25-0.527,0.389-0.888,0.389
			C61.092,25.96,60.815,25.821,60.538,25.571z"/>
		<path fill-rule="evenodd" clip-rule="evenodd" fill="#808285" d="M66.227,22.186c-0.888,0-1.61-0.305-2.22-0.916
			c-0.611-0.583-0.916-1.332-0.916-2.192c0-0.832,0.305-1.582,0.916-2.192c0.61-0.638,1.332-0.943,2.22-0.943h6.854v2.497h-6.854
			c-0.444,0-0.639,0.222-0.639,0.638c0,0.166,0.056,0.305,0.166,0.416c0.111,0.112,0.278,0.194,0.472,0.194h3.718
			c0.86,0,1.582,0.305,2.193,0.916c0.61,0.638,0.916,1.359,0.916,2.22c0,0.86-0.306,1.61-0.916,2.22
			c-0.611,0.611-1.332,0.916-2.193,0.916h-6.854v-2.553h6.854c0.139,0,0.277-0.055,0.416-0.167c0.111-0.111,0.194-0.25,0.194-0.416
			c0-0.166-0.083-0.333-0.194-0.444c-0.138-0.139-0.277-0.195-0.416-0.195H66.227z"/>
		<path fill-rule="evenodd" clip-rule="evenodd" fill="#808285" d="M81.988,17.413c-0.971-0.972-2.136-1.47-3.524-1.47
			c-1.36,0-2.553,0.499-3.524,1.47c-0.972,0.999-1.471,2.165-1.471,3.524c0,1.388,0.499,2.581,1.471,3.552
			c0.971,0.972,2.164,1.471,3.524,1.471c1.387,0,2.553-0.5,3.524-1.471c0.972-0.971,1.415-2.164,1.415-3.552
			C83.403,19.577,82.96,18.412,81.988,17.413z M80.24,22.713c-0.5,0.5-1.082,0.722-1.776,0.722c-0.694,0-1.276-0.222-1.776-0.722
			c-0.472-0.472-0.721-1.054-0.721-1.776c0-0.665,0.249-1.249,0.721-1.748c0.5-0.5,1.082-0.749,1.776-0.749
			c0.694,0,1.276,0.249,1.776,0.749c0.499,0.499,0.749,1.082,0.749,1.748C80.989,21.659,80.739,22.241,80.24,22.713z"/>
		<path fill-rule="evenodd" clip-rule="evenodd" fill="#808285" d="M103.106,23.102c-0.333-0.333-0.666-0.694-1.027-1.054
			c0.61-0.222,1.138-0.583,1.554-1.111c0.388-0.527,0.61-1.165,0.61-1.859c0-0.832-0.306-1.582-0.943-2.192
			c-0.611-0.638-1.36-0.943-2.193-0.943h-6.882V25.96h2.498v-3.746h2.026c0.139,0.167,0.305,0.306,0.472,0.472
			c0.444,0.444,0.888,0.916,1.388,1.415c0.694,0.693,1.166,1.165,1.471,1.47c0.277,0.25,0.555,0.389,0.888,0.389
			c0.361,0,0.639-0.139,0.889-0.389c0.222-0.249,0.36-0.527,0.36-0.888c0-0.36-0.138-0.639-0.36-0.889
			C103.688,23.656,103.439,23.434,103.106,23.102z M101.496,19.522c-0.111,0.111-0.25,0.166-0.389,0.166h-4.384V18.44h4.384
			c0.139,0,0.278,0.083,0.389,0.194c0.139,0.139,0.194,0.278,0.194,0.444C101.69,19.272,101.635,19.411,101.496,19.522z"/>
		<path fill-rule="evenodd" clip-rule="evenodd" fill="#808285" d="M109.626,25.96c-1.388,0-2.553-0.5-3.524-1.471
			c-0.999-0.971-1.471-2.164-1.471-3.552c0-1.359,0.472-2.524,1.471-3.524c0.971-0.972,2.136-1.47,3.524-1.47h4.968v2.497h-4.968
			c-0.693,0-1.304,0.249-1.775,0.749c-0.472,0.499-0.722,1.082-0.722,1.748c0,0.722,0.25,1.304,0.722,1.776
			c0.471,0.5,1.082,0.722,1.775,0.722h4.968v2.526H109.626z"/>
		<path fill-rule="evenodd" clip-rule="evenodd" fill="#808285" d="M117.535,23.434H125v2.526c-1.665,0-3.358,0-5.023,0
			c-1.665,0-3.302,0-4.967,0V15.942c1.665,0,3.302,0,4.967,0c1.665,0,3.358,0,5.023,0v2.497h-7.465v1.248H125v2.498h-7.465V23.434z"
			/>
		<path fill-rule="evenodd" clip-rule="evenodd" fill="#808285" d="M91.29,15.942v4.994c0,0.722-0.25,1.304-0.722,1.776
			c-0.466,0.494-1.068,0.714-1.751,0.719c-0.683-0.005-1.286-0.226-1.752-0.719c-0.472-0.472-0.722-1.054-0.722-1.776v-4.994h-2.497
			v4.994c0,1.388,0.472,2.581,1.443,3.552c0.992,0.966,2.15,1.464,3.526,1.47c-0.007,0-0.016,0.001-0.024,0.001h0.117v-0.006
			c1.335-0.027,2.464-0.522,3.435-1.465c0.971-0.971,1.443-2.164,1.443-3.552v-4.994H91.29z"/>
	</g>
</g>
</svg>
