<?xml version="1.0" encoding="utf-8"?>
<!-- Generator: Adobe Illustrator 19.2.0, SVG Export Plug-In . SVG Version: 6.00 Build 0)  -->
<svg version="1.1" xmlns="http://www.w3.org/2000/svg" xmlns:xlink="http://www.w3.org/1999/xlink" x="0px" y="0px"
	 viewBox="0 0 125 40" enable-background="new 0 0 125 40" xml:space="preserve">
<g id="bg" display="none">
	<rect display="inline" fill="#FFFFFF" width="125" height="40"/>
</g>
<g id="icons">
	<g>
		<g>
			<rect y="3.706" fill-rule="evenodd" clip-rule="evenodd" fill="#18478F" width="125" height="32.587"/>
		</g>
		<g>
			<path fill-rule="evenodd" clip-rule="evenodd" fill="#FFFFFF" d="M61.29,16.408c-0.145,0.139-0.329,0.235-0.642,0.457
				c0-0.741,0.001-1.307,0-1.874c-0.002-1.771,0.042-3.544-0.019-5.314c-0.059-1.719-0.75-2.342-2.45-2.352
				c-0.499-0.003-0.999,0.047-1.606,0.08c-0.024,0.534-0.06,0.978-0.061,1.419c-0.005,5.43-0.029,10.86,0.015,16.29
				c0.008,1.072,0.156,2.177,0.454,3.204c0.697,2.401,2.365,3.842,4.799,4.388c0.5,0.112,1.012,0.234,1.521,0.243
				c3.227,0.058,5.964-0.968,7.128-4.189c1.247-3.447,1.196-6.99-0.074-10.405C68.883,14.394,64.356,13.489,61.29,16.408z
				 M66.412,27.456c-0.267,1.168-0.908,2.126-2.122,2.459c-1.432,0.392-2.794-0.492-3.191-2.088
				c-0.472-1.891-0.618-3.823-0.303-5.76c0.137-0.839,0.325-1.679,0.592-2.486c0.379-1.147,1.116-1.972,2.448-2.201
				c1.606,0.249,2.364,1.193,2.644,2.625C66.968,22.495,66.978,24.981,66.412,27.456z"/>
			<path fill-rule="evenodd" clip-rule="evenodd" fill="#FFFFFF" d="M103.062,7.327c-0.605-0.014-1.211,0.045-1.912,0.075
				c0,3.197,0,6.213,0,9.495c-3.663-3.626-8.253-2.53-9.837,2.026c-0.736,2.116-0.573,4.283-0.561,6.451
				c0.008,1.403,0.411,2.697,0.978,3.961c0.752,1.674,2.043,2.739,3.768,3.251c1.733,0.515,3.496,0.493,5.223-0.042
				c1.842-0.569,3.175-1.722,3.933-3.541c0.45-1.078,0.626-2.187,0.627-3.339c0.003-5.202,0.005-10.405,0.003-15.608
				c0-0.229-0.006-0.458-0.03-0.686C105.093,7.888,104.535,7.358,103.062,7.327z M100.754,27.904
				c-0.383,1.248-1.23,1.981-2.415,2.05c-1.171,0.068-2.224-0.562-2.644-1.762c-0.61-1.738-0.75-3.562-0.67-5.391
				c0.037-0.85,0.146-1.705,0.302-2.541c0.283-1.51,0.958-2.694,2.714-2.85c1.365,0.127,2.102,1.029,2.483,2.239
				c0.272,0.861,0.513,1.762,0.555,2.658C101.167,24.176,101.318,26.064,100.754,27.904z"/>
			<path fill-rule="evenodd" clip-rule="evenodd" fill="#FFFFFF" d="M31.828,22.193c-0.308-3.898-2.835-7.592-7.939-7.368
				c-3.424,0.15-5.751,1.745-6.764,4.981c-0.749,2.396-0.735,4.861-0.234,7.273c0.537,2.582,1.908,4.625,4.578,5.514
				c3.198,1.062,7.623,0.398,9.436-3.362c0.78-1.623,1.044-3.363,0.931-5.155C31.835,23.447,31.878,22.816,31.828,22.193z
				 M27.51,25.66c-0.107,0.725-0.238,1.459-0.457,2.157c-0.481,1.532-1.427,2.224-2.847,2.188c-1.456-0.039-2.338-0.736-2.816-2.265
				c-0.117-0.376-0.182-0.771-0.236-1.165c-0.124-0.897-0.225-1.798-0.366-2.937c0.202-1.128,0.36-2.484,0.702-3.79
				c0.418-1.602,1.461-2.145,2.891-2.131c1.367,0.015,2.425,0.859,2.764,2.361C27.557,21.904,27.79,23.778,27.51,25.66z"/>
			<path fill-rule="evenodd" clip-rule="evenodd" fill="#FFFFFF" d="M121.664,19.237c-0.054-1.842-1.046-3.283-2.808-3.961
				c-2.438-0.94-4.929-0.919-7.35,0.091c-1.961,0.818-2.997,2.733-2.7,4.876c1.207,0,2.427,0,3.695,0
				c0.132-0.465,0.2-0.86,0.353-1.218c0.468-1.092,1.657-1.611,3.03-1.358c1.006,0.181,1.613,0.869,1.694,2.052
				c0.059,0.839,0.012,1.682,0.012,2.588c-1.284,0.161-2.465,0.284-3.638,0.458c-1.662,0.25-3.211,0.785-4.504,1.918
				c-2.304,2.028-1.981,6.051,0.62,7.663c2.092,1.298,5.351,0.987,7.126-0.813c1.076-1.091,2.262-1.689,3.792-1.621
				c0.207,0.009,0.418-0.107,0.707-0.189C121.694,26.198,121.768,22.714,121.664,19.237z M115.486,29.736
				c-1.002,0.628-2.224,0.367-3.255-0.517c-0.701-2.176,0.518-3.216,2.162-3.731c0.326-0.1,0.651-0.223,0.985-0.27
				c0.666-0.096,1.339-0.144,2.201-0.234C117.685,27.085,117.148,28.695,115.486,29.736z"/>
			<path fill-rule="evenodd" clip-rule="evenodd" fill="#FFFFFF" d="M87.418,19.369c-0.031-1.657-0.704-3.059-2.214-3.8
				c-2.787-1.368-5.655-1.294-8.421,0.062c-1.721,0.843-2.52,2.645-2.255,4.626c1.217,0,2.447,0,3.718,0
				c0.178-0.528,0.286-1.031,0.509-1.475c0.456-0.9,1.551-1.305,2.833-1.123c0.968,0.135,1.562,0.672,1.695,1.647
				c0.129,0.949,0.215,1.899,0.335,2.99c-1.482,0.179-2.673,0.283-3.851,0.472c-1.832,0.294-3.559,0.846-4.861,2.283
				c-1.595,1.762-1.69,4.868-0.158,6.463c2.094,2.18,6.3,2.054,7.837,0.362c1.248-1.376,2.673-2.086,4.511-2.017
				c0.082,0.003,0.17-0.139,0.369-0.313c0-0.808,0.003-1.72-0.001-2.63C87.453,24.402,87.464,21.883,87.418,19.369z M78.532,29.771
				c-1.206-1.623-0.947-2.984,0.744-3.916c0.912-0.501,1.911-0.699,3.944-0.778C83.922,28.281,81.66,30.546,78.532,29.771z"/>
			<path fill-rule="evenodd" clip-rule="evenodd" fill="#FFFFFF" d="M10.343,22.723c-0.901-0.7-1.888-1.286-2.794-1.982
				c-0.473-0.363-0.851-0.852-1.221-1.232c0.561-1.179,0.759-1.402,1.617-1.517c1.198-0.16,2.392-0.16,3.521,0.403
				c0.387,0.192,0.807,0.317,1.347,0.523c0-1.221,0-2.276,0-3.29c-2.127-0.915-4.885-1.08-6.766-0.381
				C4.73,15.736,3.6,16.484,3.01,17.842c-0.854,1.965-0.348,4.218,1.429,5.73c1.433,1.218,2.991,2.291,4.461,3.469
				c0.461,0.37,0.815,0.875,1.194,1.292c-1.322,1.709-1.773,1.741-7.299,0.661c-0.328,1.054-0.129,2.116-0.131,3.328
				c0.914,0.218,1.775,0.498,2.657,0.619c1.951,0.266,3.883,0.169,5.714-0.649c2.996-1.345,3.867-4.933,1.745-7.432
				C12.087,24.045,11.196,23.387,10.343,22.723z"/>
			<path fill-rule="evenodd" clip-rule="evenodd" fill="#FFFFFF" d="M41.964,15.611c-0.878,0.622-1.606,1.457-2.471,2.267
				c-0.055-0.942-0.101-1.72-0.152-2.576c-1.354,0-2.587,0-4.055,0c0,0.803,0,1.424,0,2.046c0.003,3.884,0.006,7.769,0.009,11.653
				c0,0.341-0.033,0.688,0.002,1.027c0.203,2.019,0.964,2.693,3.006,2.66c0.328-0.006,0.652-0.096,1.133-0.17
				c0-0.845-0.021-1.635,0.003-2.423c0.073-2.392,0.068-4.795,0.278-7.175c0.18-2.063,1.498-3.257,3.545-3.583
				c0.606-0.093,1.209-0.2,1.844-0.306c0-1.426,0-2.713,0-4.059C43.89,14.673,42.843,14.99,41.964,15.611z"/>
			<path fill-rule="evenodd" clip-rule="evenodd" fill="#FFFFFF" d="M47.917,15.444c0,4.859-0.003,9.653,0.002,14.444
				c0.001,0.883,0.251,1.687,1.044,2.574c0.789,0.085,1.783,0.189,2.871,0.307c0.361-2.069,0.304-16.177-0.037-17.496
				C50.531,15.251,49.244,15.038,47.917,15.444z"/>
		</g>
	</g>
</g>
</svg>
