<?xml version="1.0" encoding="utf-8"?>
<!-- Generator: Adobe Illustrator 20.1.0, SVG Export Plug-In . SVG Version: 6.00 Build 0)  -->
<svg version="1.1" id="logos" xmlns="http://www.w3.org/2000/svg" xmlns:xlink="http://www.w3.org/1999/xlink" x="0px" y="0px"
	 viewBox="0 0 125 40" enable-background="new 0 0 125 40" xml:space="preserve">
<g>
	<path d="M4.775,11.594C3.203,11.594,0,11.772,0,18.92v1.513c0,4.746,0.386,7.979,4.775,7.979s4.775-3.233,4.775-7.979V18.92
		C9.551,11.772,6.614,11.594,4.775,11.594z M5.883,22.914c0,1.443-0.138,2.61-1.107,2.61s-1.107-1.167-1.107-2.61
		c0-1.443,0-4.35,0-6.288c0-1.938,0.554-2.333,1.107-2.333s1.107,0.395,1.107,2.333C5.883,18.564,5.883,21.471,5.883,22.914z"/>
	<path d="M99.383,11.5c-1.572,0-4.775,0.178-4.775,7.326v1.513c0,4.746,0.386,7.979,4.775,7.979s4.775-3.233,4.775-7.979v-1.513
		C104.159,11.678,101.222,11.5,99.383,11.5z M100.491,22.82c0,1.443-0.138,2.61-1.107,2.61c-0.969,0-1.107-1.167-1.107-2.61
		c0-1.443,0-4.35,0-6.288c0-1.938,0.554-2.333,1.107-2.333c0.554,0,1.107,0.395,1.107,2.333
		C100.491,18.47,100.491,21.377,100.491,22.82z"/>
	<polygon points="18.973,15.024 18.973,11.801 10.984,11.801 10.984,28.213 14.662,28.213 14.662,21.609 18.518,21.609 
		18.518,18.643 14.662,18.643 14.662,15.024 	"/>
	<polygon points="28.187,15.024 28.187,11.801 20.199,11.801 20.199,28.213 23.877,28.213 23.877,21.609 27.732,21.609 
		27.732,18.643 23.877,18.643 23.877,15.024 	"/>
	<rect x="29.552" y="11.801" width="3.658" height="16.412"/>
	<rect x="45.697" y="11.801" width="3.658" height="16.412"/>
	<path d="M39.755,11.564c-2.175,0-5.052,0.722-5.052,8.443c0,6.031,1.068,8.493,4.686,8.493s4.983-1.958,4.983-4.686
		c0-1.275-0.267-2.847-0.267-2.847h-2.966c0,0,0,0.979,0,2.165c0,1.186-0.148,2.462-1.394,2.462c-0.771,0-1.216-0.237-1.216-3.292
		s0-2.788,0-3.648c0-2.907,0.267-4.241,1.394-4.241s1.008,1.958,0.83,3.945h3.114c0,0,0.326-1.394,0.326-2.699
		C44.194,13.522,43.027,11.564,39.755,11.564z"/>
	<path d="M57.057,28.213h3.717l-3.441-16.412h-3.599L50.65,28.213h2.926l0.444-2.887h2.503L57.057,28.213z M54.368,23.072
		l0.791-5.141l0.949,5.141H54.368z"/>
	<polygon points="65.48,25.129 65.48,11.801 61.881,11.801 61.881,28.213 69.514,28.213 69.514,25.129 	"/>
	<path d="M80.549,16.952l3.015-0.129c0,0,0.237-0.742,0.237-1.631c0-1.869-1.097-3.678-4.063-3.678
		c-2.432,0-5.131,1.246-5.131,4.508c0,5.102,6.288,4.479,6.288,7.771c0,0.742-0.415,1.661-1.691,1.661s-1.958-1.483-1.335-3.203
		l-3.085,0.03c0,0-0.326,0.83-0.326,2.017c0,1.186,0.623,4.004,4.672,4.004s5.443-1.869,5.443-5.131
		c0-5.606-6.258-4.241-6.258-7.445c0-0.801,0.386-1.364,1.364-1.364C80.658,14.362,81.271,15.479,80.549,16.952z"/>
	<polygon points="94.183,11.722 84.781,11.722 84.781,14.718 87.687,14.718 87.687,28.124 91.306,28.124 91.306,14.718 
		94.183,14.718 	"/>
	<path d="M114.461,24.308c0-2.017-0.732-3.302-2.155-3.619c0.949-0.257,2.412-0.534,2.412-4.152c0-2.966-1.206-4.815-3.876-4.815
		c-2.669,0-5.359,0-5.359,0v16.402h3.599v-6.466c0.149,0,0.4,0,0.751,0c0.593,0,0.85,0.534,0.91,1.701
		c0.059,1.167,0.059,2.294,0.059,3.104c0,0.811,0.297,1.661,0.297,1.661h3.619c0,0-0.257-1.246-0.257-1.997
		C114.461,25.376,114.461,24.941,114.461,24.308z M110.051,19.128c-0.478,0-0.796,0-0.969,0v-4.667c0,0,0.534,0,0.89,0
		c0.811,0,1.206,0.672,1.206,2.254C111.178,18.297,110.941,19.128,110.051,19.128z"/>
	<polygon points="120.017,25.01 120.017,21.184 124.021,21.184 124.021,18.248 120.017,18.248 120.017,14.777 124.555,14.777 
		124.555,11.722 116.428,11.722 116.428,28.124 125,28.124 125,25.01 	"/>
</g>
<rect x="0" y="0" fill="none" width="125" height="40"/>
</svg>
