<?xml version="1.0" encoding="utf-8"?>
<!-- Generator: Adobe Illustrator 16.0.0, SVG Export Plug-In . SVG Version: 6.00 Build 0)  -->
<!DOCTYPE svg PUBLIC "-//W3C//DTD SVG 1.1//EN" "http://www.w3.org/Graphics/SVG/1.1/DTD/svg11.dtd">
<svg version="1.1" id="Logos" xmlns="http://www.w3.org/2000/svg" xmlns:xlink="http://www.w3.org/1999/xlink" x="0px" y="0px"
	 width="125px" height="40px" viewBox="0 0 125 40" enable-background="new 0 0 125 40" xml:space="preserve">
<g>
	<g>
		<g>
			<path d="M10.582,19.903c0-0.947,0-4.747,0-6.013s-0.948-3.639-4.58-3.639c-2.132,0-5.053,1.106-5.607,3.875
				c0.08,0.317,2.606,0.634,2.764,0.555c0.237,0,0.396-1.978,2.369-1.978c1.5,0,1.975,1.503,1.975,1.818c0,0.317,0,1.426,0,1.426
				S0,15.314,0,20.617c0,2.609,2.053,3.797,3.474,3.797c1.422,0,2.606-0.316,4.264-1.898c0,0,1.421,1.662,1.58,1.74
				c0.157,0.079,0.315,0.079,0.71-0.237s1.658-1.503,1.738-1.583c0.079-0.078,0.236-0.316,0-0.555
				C11.528,21.725,10.582,20.854,10.582,19.903z M7.502,19.509c0,1.187-1.421,2.61-2.37,2.61c-0.947,0-1.737-0.791-1.737-1.979
				c0-2.294,2.685-2.848,3.316-2.848s0.79,0,0.79,0S7.502,18.797,7.502,19.509z"/>
			<path d="M43.271,19.903c0-0.947,0-4.747,0-6.013s-0.948-3.639-4.58-3.639c-2.131,0-5.054,1.106-5.606,3.875
				c0.08,0.317,2.605,0.634,2.765,0.555c0.236-0.079,0.313-1.978,2.368-1.978c1.5,0,1.975,1.503,1.975,1.818
				c0,0.317,0,1.426,0,1.426s-7.501-0.634-7.501,4.668c0,2.61,2.052,3.798,3.473,3.798c1.423,0,2.607-0.316,4.265-1.898
				c0,0,1.421,1.661,1.578,1.739c0.161,0.08,0.317,0.08,0.712-0.237c0.395-0.315,1.66-1.502,1.736-1.582
				c0.082-0.078,0.238-0.316,0-0.555C44.218,21.725,43.271,20.854,43.271,19.903z M40.191,19.509c0,1.187-1.422,2.61-2.369,2.61
				s-1.737-0.791-1.737-1.979c0-2.294,2.684-2.848,3.316-2.848c0.631,0,0.789,0,0.789,0S40.191,18.797,40.191,19.509z"/>
			<path d="M53.535,20.141c-1.419-0.315-2.843-0.158-3.001-0.158c-0.156,0,5.054-7.357,5.054-7.357v-1.82
				c0-0.157-0.078-0.238-0.234-0.238h-8.609c-0.157,0-0.237,0.081-0.237,0.238v2.216c0,0.157,0.08,0.237,0.237,0.237h4.58
				c0,0-4.975,7.042-5.131,7.359c-0.161,0.315-0.161,0.711-0.161,0.869s0,1.504,0,1.82s0.317,0.633,0.872,0.238
				c0.473-0.318,1.658-1.029,4.184-1.029s3.71,1.029,4.026,1.187c0.239,0.157,0.63,0.079,0.63-0.317c0-0.395,0-1.898,0-2.057
				C55.744,21.249,54.878,20.457,53.535,20.141z"/>
			<path d="M76.672,10.409c-2.133,0-2.607,1.503-2.922,1.978c-0.08,0.159-0.238,0.318-0.396,0.318v-1.662
				c0-0.159-0.078-0.238-0.234-0.238h-2.607c-0.156,0-0.238,0.08-0.238,0.238v12.976c0,0.159,0.082,0.237,0.238,0.237h2.607
				c0.156,0,0.234-0.078,0.234-0.237v-7.438c0-1.899,0.551-3.165,1.975-3.165c1.422,0,1.658,1.583,1.658,2.294v8.309
				c0,0.158,0.08,0.237,0.238,0.237h2.604c0.158,0,0.238-0.079,0.238-0.237V15.71C80.145,11.834,78.725,10.409,76.672,10.409z"/>
			<path d="M27.004,10.409c-2.132,0-2.684,1.029-3.157,1.661c-0.236,0.316-0.396,0.556-0.553,0.713
				c-0.553-1.74-1.658-2.374-3.081-2.374c-2.131,0-2.604,1.503-2.92,1.978c-0.08,0.159-0.237,0.318-0.395,0.318v-1.662
				c-0.079-0.159-0.158-0.317-0.316-0.317h-2.605c-0.157,0-0.237,0.079-0.237,0.237V23.94c0,0.157,0.08,0.237,0.237,0.237h2.605
				c0.158,0,0.237-0.08,0.237-0.237v-7.439c0-1.897,0.553-3.165,1.975-3.165c1.42,0,1.658,1.583,1.658,2.296v8.308
				c0,0.158,0.079,0.237,0.237,0.237h2.606c0.156,0,0.236-0.079,0.236-0.237V16.66c0-2.532,0.71-3.244,1.895-3.244
				c1.184,0,1.659,1.106,1.659,2.294v8.309c0,0.158,0.078,0.237,0.236,0.237h2.684c0.158,0,0.236-0.079,0.236-0.237
				c0,0,0-9.496,0-10.683C30.242,12.149,29.138,10.409,27.004,10.409z"/>
			<path d="M62.535,10.409c-1.418,0-5.446,1.029-5.446,6.964c0,5.381,3.001,7.199,5.446,7.199c2.448,0,5.61-2.137,5.61-7.199
				C68.145,12.31,65.301,10.409,62.535,10.409z M62.617,22.041c-1.344,0-2.134-1.424-2.134-4.905c0-3.482,1.186-4.353,2.212-4.353
				c1.659,0,2.131,1.979,2.131,4.747C64.748,20.38,63.959,22.041,62.617,22.041z"/>
		</g>
	</g>
	<path fill="#FF9900" d="M32.769,31.378c-9.159,0-17.213-3.167-21.004-5.697c-0.315-0.157-0.631,0.237-0.394,0.475
		c0.236,0.316,8.369,8.229,21.003,8.229c7.105,0,13.581-2.295,17.687-5.539c0.236-0.317-0.317-1.028-0.79-0.79
		C48.797,28.293,42.639,31.378,32.769,31.378z"/>
	<path fill="#FF9900" d="M53.771,25.523c-0.158-0.478-4.658-1.426-7.817,0.948c-0.156,0.157-0.078,0.317,0.239,0.317
		c0.314,0,5.131-0.714,5.685,0.157c0.313,0.633,0,2.215-0.632,3.876c-0.476,1.267-0.712,1.74-0.554,1.822
		c0.159,0.078,0.868-0.316,2.131-2.373C54.089,28.293,53.93,25.839,53.771,25.523z"/>
</g>
<path fill="#7F7F7F" d="M125,21.436c0,1.527-1.238,2.766-2.766,2.766H88.26c-1.527,0-2.766-1.238-2.766-2.766v-8.554
	c0-1.528,1.238-2.767,2.766-2.767h33.975c1.527,0,2.766,1.238,2.766,2.767V21.436z"/>
<rect x="99.217" y="12.853" fill="#FFFFFF" width="1.424" height="8.792"/>
<polygon fill="#FFFFFF" points="114.951,20.276 114.951,12.853 113.527,12.853 113.527,21.645 117.223,21.645 117.223,20.276 "/>
<polygon fill="#FFFFFF" points="93.305,12.853 94.725,21.645 96.641,21.645 98.123,12.853 96.826,12.853 95.715,19.845 
	94.664,12.853 "/>
<polygon fill="#FFFFFF" points="102.016,21.645 102.016,12.853 103.715,12.853 105.246,18.238 105.246,12.853 106.402,12.853 
	106.402,21.645 105.043,21.645 103.252,15.458 103.252,21.645 "/>
<polygon fill="#FFFFFF" points="108.936,12.853 107.607,12.853 109.336,18.517 109.336,21.645 110.695,21.645 110.695,18.517 
	112.488,12.853 111.129,12.853 110.047,16.756 "/>
<rect fill="none" width="125" height="40"/>
</svg>
