<?xml version="1.0" encoding="utf-8"?>
<!-- Generator: Adobe Illustrator 19.2.0, SVG Export Plug-In . SVG Version: 6.00 Build 0)  -->
<svg version="1.1" xmlns="http://www.w3.org/2000/svg" xmlns:xlink="http://www.w3.org/1999/xlink" x="0px" y="0px"
	 viewBox="0 0 125 40" enable-background="new 0 0 125 40" xml:space="preserve">
<g id="bg" display="none">
	<rect x="0" display="inline" fill="#FFFFFF" width="125" height="40"/>
</g>
<g id="icons">
	<g>
		<g>
			<g>
				<path fill="#BEE0F0" d="M76.804,19.155c0.025,0.002,0.082,0.006,0.172,0.01v2.053c-0.127-0.014-0.238-0.023-0.337-0.028
					c-0.1-0.005-0.179-0.007-0.238-0.007c-0.806,0-1.349,0.264-1.623,0.788c-0.155,0.295-0.233,0.749-0.233,1.363v3.662h-2.018
					v-7.663h1.912v1.336c0.309-0.511,0.579-0.859,0.809-1.047c0.374-0.314,0.862-0.472,1.462-0.472
					C76.745,19.152,76.777,19.153,76.804,19.155z"/>
				<path fill="#BEE0F0" d="M83.328,19.49c0.535,0.239,0.975,0.617,1.323,1.134c0.314,0.455,0.518,0.982,0.611,1.584
					c0.053,0.351,0.075,0.859,0.066,1.519h-5.58c0.031,0.769,0.299,1.308,0.801,1.617c0.305,0.192,0.673,0.287,1.103,0.287
					c0.457,0,0.828-0.116,1.113-0.35c0.155-0.127,0.293-0.303,0.411-0.528h2.045c-0.053,0.454-0.302,0.916-0.743,1.386
					c-0.687,0.744-1.648,1.117-2.882,1.117c-1.02,0-1.92-0.314-2.7-0.942c-0.78-0.629-1.168-1.651-1.168-3.068
					c0-1.327,0.35-2.345,1.054-3.052c0.704-0.709,1.617-1.063,2.74-1.063C82.194,19.131,82.794,19.252,83.328,19.49z M80.331,21.221
					c-0.283,0.292-0.46,0.687-0.534,1.185h3.451c-0.036-0.532-0.215-0.935-0.535-1.211c-0.318-0.275-0.714-0.412-1.188-0.412
					C81.014,20.783,80.614,20.929,80.331,21.221z"/>
				<path fill="#BEE0F0" d="M91.112,22.083c-0.038-0.286-0.135-0.542-0.289-0.774c-0.226-0.309-0.576-0.464-1.049-0.464
					c-0.677,0-1.139,0.336-1.389,1.006c-0.131,0.356-0.197,0.828-0.197,1.417c0,0.561,0.066,1.013,0.197,1.353
					c0.239,0.637,0.69,0.956,1.352,0.956c0.469,0,0.802-0.127,1.001-0.379c0.197-0.253,0.318-0.581,0.361-0.984h2.045
					c-0.048,0.609-0.268,1.185-0.663,1.729c-0.629,0.876-1.559,1.314-2.793,1.314c-1.233,0-2.142-0.366-2.721-1.095
					c-0.582-0.73-0.873-1.68-0.873-2.846c0-1.313,0.321-2.334,0.964-3.067c0.643-0.73,1.529-1.096,2.66-1.096
					c0.962,0,1.75,0.216,2.36,0.646c0.613,0.433,0.975,1.194,1.089,2.286h-2.054V22.083z"/>
				<path fill="#BEE0F0" d="M101.111,26.059c-0.646,0.799-1.628,1.198-2.945,1.198s-2.298-0.399-2.944-1.198
					c-0.647-0.797-0.969-1.759-0.969-2.882c0-1.105,0.322-2.064,0.969-2.872c0.646-0.811,1.627-1.216,2.944-1.216
					s2.299,0.406,2.945,1.216c0.646,0.809,0.969,1.767,0.969,2.872C102.08,24.3,101.758,25.261,101.111,26.059z M99.508,24.951
					c0.314-0.416,0.472-1.008,0.472-1.775c0-0.768-0.157-1.358-0.472-1.773c-0.314-0.413-0.763-0.621-1.349-0.621
					s-1.038,0.208-1.353,0.621c-0.315,0.414-0.475,1.005-0.475,1.773c0,0.766,0.159,1.358,0.475,1.775
					c0.316,0.417,0.767,0.625,1.353,0.625S99.194,25.369,99.508,24.951z"/>
				<path fill="#BEE0F0" d="M107.958,19.155c0.026,0.002,0.083,0.006,0.174,0.01v2.053c-0.127-0.014-0.239-0.023-0.339-0.028
					c-0.098-0.005-0.179-0.007-0.238-0.007c-0.805,0-1.347,0.264-1.622,0.788c-0.154,0.295-0.233,0.749-0.233,1.363v3.662h-2.018
					v-7.663h1.912v1.336c0.309-0.511,0.578-0.859,0.809-1.047c0.374-0.314,0.863-0.472,1.462-0.472
					C107.9,19.152,107.932,19.153,107.958,19.155z"/>
				<path fill="#BEE0F0" d="M113.553,19.457c0.362,0.205,0.654,0.486,0.878,0.848V16.65h2.032v10.346h-1.948v-1.062
					c-0.285,0.455-0.611,0.785-0.977,0.991c-0.365,0.205-0.819,0.309-1.362,0.309c-0.896,0-1.648-0.362-2.26-1.087
					c-0.612-0.723-0.917-1.651-0.917-2.787c0-1.306,0.3-2.334,0.903-3.085c0.603-0.75,1.407-1.125,2.414-1.125
					C112.78,19.152,113.194,19.254,113.553,19.457z M114.046,24.915c0.295-0.421,0.445-0.967,0.445-1.638
					c0-0.937-0.237-1.607-0.711-2.01c-0.291-0.245-0.628-0.365-1.012-0.365c-0.585,0-1.015,0.221-1.289,0.664
					c-0.275,0.444-0.412,0.992-0.412,1.648c0,0.707,0.14,1.274,0.42,1.698c0.278,0.423,0.7,0.634,1.268,0.634
					C113.319,25.547,113.751,25.338,114.046,24.915z"/>
				<path fill="#BEE0F0" d="M120.025,24.551c0.042,0.355,0.135,0.61,0.275,0.759c0.251,0.267,0.711,0.401,1.386,0.401
					c0.393,0,0.709-0.059,0.942-0.176c0.234-0.117,0.35-0.293,0.35-0.528c0-0.225-0.096-0.396-0.281-0.513
					c-0.188-0.117-0.887-0.32-2.096-0.605c-0.87-0.216-1.484-0.485-1.84-0.807c-0.356-0.32-0.534-0.778-0.534-1.379
					c0-0.707,0.278-1.315,0.835-1.822c0.556-0.51,1.339-0.762,2.348-0.762c0.959,0,1.737,0.189,2.342,0.571
					c0.603,0.383,0.949,1.043,1.039,1.98h-2.002c-0.03-0.259-0.102-0.461-0.22-0.612c-0.22-0.272-0.597-0.408-1.128-0.408
					c-0.437,0-0.749,0.068-0.934,0.204c-0.185,0.136-0.278,0.295-0.278,0.479c0,0.228,0.1,0.394,0.295,0.497
					c0.196,0.108,0.895,0.293,2.093,0.556c0.797,0.189,1.396,0.471,1.794,0.851c0.393,0.384,0.59,0.865,0.59,1.44
					c0,0.759-0.281,1.38-0.848,1.859c-0.565,0.481-1.44,0.72-2.624,0.72c-1.207,0-2.098-0.254-2.673-0.762
					c-0.575-0.508-0.863-1.156-0.863-1.944h2.032V24.551z"/>
			</g>
		</g>
		<g>
			
				<linearGradient id="SVGID_1_" gradientUnits="userSpaceOnUse" x1="5.5753" y1="-594.2101" x2="5.5753" y2="-561.7892" gradientTransform="matrix(1 0 0 -1 0 -558)">
				<stop  offset="0" style="stop-color:#0160AA"/>
				<stop  offset="0.1484" style="stop-color:#0663AB"/>
				<stop  offset="0.3155" style="stop-color:#136BB0"/>
				<stop  offset="0.4915" style="stop-color:#2A79B7"/>
				<stop  offset="0.6738" style="stop-color:#498CC1"/>
				<stop  offset="0.8591" style="stop-color:#71A5CE"/>
				<stop  offset="1" style="stop-color:#95BBD9"/>
			</linearGradient>
			<rect x="3.085" y="3.789" fill="url(#SVGID_1_)" width="4.981" height="4.198"/>
			
				<linearGradient id="SVGID_2_" gradientUnits="userSpaceOnUse" x1="4.0328" y1="-594.2108" x2="4.0328" y2="-561.7893" gradientTransform="matrix(1 0 0 -1 0 -558)">
				<stop  offset="0" style="stop-color:#0160AA"/>
				<stop  offset="0.1484" style="stop-color:#0663AB"/>
				<stop  offset="0.3155" style="stop-color:#136BB0"/>
				<stop  offset="0.4915" style="stop-color:#2A79B7"/>
				<stop  offset="0.6738" style="stop-color:#498CC1"/>
				<stop  offset="0.8591" style="stop-color:#71A5CE"/>
				<stop  offset="1" style="stop-color:#95BBD9"/>
			</linearGradient>
			<path fill="url(#SVGID_2_)" d="M3.085,29.79c0,1.493-0.643,2.51-3.085,1.9v4.345c0,0,8.066,1.57,8.066-4.651
				c0-4.129,0-20.594,0-20.594H3.085C3.085,10.789,3.085,28.297,3.085,29.79z"/>
			
				<linearGradient id="SVGID_3_" gradientUnits="userSpaceOnUse" x1="19.695" y1="-594.2101" x2="19.695" y2="-561.7899" gradientTransform="matrix(1 0 0 -1 0 -558)">
				<stop  offset="0" style="stop-color:#0160AA"/>
				<stop  offset="0.1484" style="stop-color:#0663AB"/>
				<stop  offset="0.3155" style="stop-color:#136BB0"/>
				<stop  offset="0.4915" style="stop-color:#2A79B7"/>
				<stop  offset="0.6738" style="stop-color:#498CC1"/>
				<stop  offset="0.8591" style="stop-color:#71A5CE"/>
				<stop  offset="1" style="stop-color:#95BBD9"/>
			</linearGradient>
			<path fill="url(#SVGID_3_)" d="M23.473,21.732c0,2.094-1.512,4.42-3.779,4.42c-2.267,0-3.546-1.454-3.546-3.721
				c0-2.266,0.058-11.64,0.058-11.64H11.09c0,0,0,8.791,0,11.989c0,3.197,1.278,7.441,6.163,7.441c3.082,0,5.059-1.861,6.279-3.313
				l0.175,2.906H28.3V10.789h-4.826C23.473,10.789,23.473,19.639,23.473,21.732z"/>
			
				<linearGradient id="SVGID_4_" gradientUnits="userSpaceOnUse" x1="40.0142" y1="-594.2112" x2="40.0142" y2="-561.7897" gradientTransform="matrix(1 0 0 -1 0 -558)">
				<stop  offset="0" style="stop-color:#0160AA"/>
				<stop  offset="0.1484" style="stop-color:#0663AB"/>
				<stop  offset="0.3155" style="stop-color:#136BB0"/>
				<stop  offset="0.4915" style="stop-color:#2A79B7"/>
				<stop  offset="0.6738" style="stop-color:#498CC1"/>
				<stop  offset="0.8591" style="stop-color:#71A5CE"/>
				<stop  offset="1" style="stop-color:#95BBD9"/>
			</linearGradient>
			<path fill="url(#SVGID_4_)" d="M42.195,10.278c-2.618,0-4.884,1.861-5.989,3.314v-2.803h-4.883v19.082h4.883
				c0,0,0-10.059,0-11.105s0.814-4.477,4.419-4.477c1.861,0,3.023,1.686,3.023,3.896c0,2.209,0,11.686,0,11.686h5.059
				c0,0,0-7.442,0-11.686C48.706,13.941,47.368,10.278,42.195,10.278z"/>
			
				<linearGradient id="SVGID_5_" gradientUnits="userSpaceOnUse" x1="60.1397" y1="-594.2101" x2="60.1397" y2="-561.79" gradientTransform="matrix(1 0 0 -1 0 -558)">
				<stop  offset="0" style="stop-color:#0160AA"/>
				<stop  offset="0.1484" style="stop-color:#0663AB"/>
				<stop  offset="0.3155" style="stop-color:#136BB0"/>
				<stop  offset="0.4915" style="stop-color:#2A79B7"/>
				<stop  offset="0.6738" style="stop-color:#498CC1"/>
				<stop  offset="0.8591" style="stop-color:#71A5CE"/>
				<stop  offset="1" style="stop-color:#95BBD9"/>
			</linearGradient>
			<path fill="url(#SVGID_5_)" d="M60.138,10.507c-5.229,0-9.469,3.074-9.469,9.856c0,6.41,4.24,9.856,9.469,9.856
				c5.231,0,9.472-3.163,9.472-9.856C69.61,13.958,65.369,10.507,60.138,10.507z M60.044,26.302c-2.471,0-4.475-1.857-4.475-6.031
				c0-4.121,2.004-6.03,4.475-6.03c2.473,0,4.477,1.677,4.477,6.03C64.521,24.756,62.517,26.302,60.044,26.302z"/>
		</g>
	</g>
</g>
</svg>
