<?xml version="1.0" encoding="utf-8"?>
<!-- Generator: Adobe Illustrator 21.0.0, SVG Export Plug-In . SVG Version: 6.00 Build 0)  -->
<svg version="1.1" xmlns="http://www.w3.org/2000/svg" xmlns:xlink="http://www.w3.org/1999/xlink" x="0px" y="0px"
	 viewBox="0 0 125 40" enable-background="new 0 0 125 40" xml:space="preserve">
<g id="bg" display="none">
	<rect display="inline" fill="#FFFFFF" width="125" height="40"/>
</g>
<g id="icons">
	<g id="lwvr7V.tif">
		<g>
			<path d="M116.268,22.435c0.221-0.186,0.152-0.471,0.153-0.727c0.007-2.173,0.004-4.346,0.005-6.52
				c0-0.392-0.005-0.784,0.004-1.176c0.016-0.671,0.239-0.903,0.906-0.907c1.265-0.009,2.529-0.003,3.794-0.003
				c1.015,0,2.031-0.004,3.046,0.004c0.702,0.006,0.813,0.108,0.817,0.806c0.01,1.621,0.004,3.242,0.005,4.863
				c0,2.298,0.001,4.596,0,6.894c0,0.999-0.319,1.352-1.282,1.595c-0.747,0.189-1.444-0.07-2.163-0.128
				c-0.242-0.02-0.371-0.209-0.396-0.442c-0.043-0.407-0.086-0.815-0.097-1.224c-0.008-0.291,0.16-0.415,0.458-0.351
				c0.225,0.048,0.439,0.145,0.66,0.214c0.694,0.217,1.083-0.066,1.083-0.778c-0.001-0.908,0.005-1.816,0.003-2.724
				c-0.001-0.576-0.062-0.631-0.652-0.633c-0.463-0.001-0.926-0.009-1.389-0.001c-0.471,0.008-0.544,0.092-0.553,0.574
				c-0.001,0.053-0.001,0.107,0.001,0.16c0.018,0.482,0.092,0.564,0.559,0.577c0.356,0.01,0.713-0.005,1.069,0.003
				c0.45,0.01,0.532,0.089,0.546,0.527c0.009,0.267,0.006,0.535-0.007,0.801c-0.013,0.251-0.156,0.398-0.411,0.398
				c-0.944,0-1.888,0.011-2.831-0.021c-0.43-0.015-0.565-0.169-0.602-0.601c-0.042-0.496-0.039-0.996-0.053-1.494
				c-0.005-0.16,0.002-0.321-0.005-0.481c-0.012-0.255-0.143-0.397-0.405-0.391c-0.235,0.005-0.359,0.137-0.373,0.368
				c-0.009,0.142-0.008,0.285-0.007,0.427c0,1.389,0.007,2.778,0,4.167c-0.004,0.655-0.101,0.741-0.741,0.75
				c-0.965,0.013-0.991-0.012-0.988-0.975c0.001-0.445,0.014-0.891-0.004-1.336c-0.008-0.201-0.076-0.399-0.13-0.664
				c-0.175,0.107-0.273,0.172-0.375,0.229c-0.229,0.126-0.449,0.279-0.692,0.366c-0.414,0.149-0.472,0.186-0.485,0.644
				c-0.013,0.463,0.002,0.926-0.003,1.389c-0.007,0.56-0.092,0.636-0.664,0.627c-0.214-0.004-0.428,0.003-0.641-0.006
				c-0.497-0.022-0.632-0.15-0.636-0.648c-0.01-1.156-0.008-2.313-0.01-3.47c-0.001-0.426,0-0.852,0-1.399
				c-0.559,1.285-0.626,2.525-0.671,3.769c-0.006,0.178-0.021,0.356-0.051,0.531c-0.082,0.487-0.209,0.583-0.678,0.505
				c-0.316-0.052-0.629-0.122-0.944-0.184c-0.28-0.055-0.389-0.233-0.346-0.505c0.039-0.246,0.111-0.487,0.135-0.734
				c0.106-1.079,0.199-2.159,0.297-3.239c0.011-0.124,0.005-0.252,0.034-0.372c0.098-0.411,0.434-0.61,0.84-0.504
				c0.328,0.085,0.653,0.177,0.98,0.265c0.16,0.043,0.334,0.086,0.389-0.136c0.051-0.205,0.016-0.41-0.204-0.493
				c-0.145-0.054-0.313-0.058-0.471-0.061c-0.374-0.007-0.749,0.013-1.122-0.001c-0.349-0.013-0.493-0.137-0.519-0.48
				c-0.032-0.421-0.063-0.831,0.267-1.205c0.35-0.397,0.625-0.862,0.922-1.304c0.286-0.426,0.196-0.608-0.307-0.649
				c-0.124-0.01-0.25-0.005-0.373-0.019c-0.263-0.03-0.426-0.159-0.433-0.445c-0.013-0.514-0.056-1.016,0.309-1.469
				c0.423-0.524,0.79-1.092,1.182-1.641c0.159-0.222,0.377-0.308,0.648-0.298c0.302,0.012,0.607-0.014,0.908,0.014
				c0.387,0.036,0.463,0.202,0.239,0.531c-0.208,0.307-0.443,0.597-0.679,0.884c-0.25,0.305-0.323,0.545-0.156,0.647
				c0.333,0.203,0.423-0.1,0.56-0.295c0.241-0.343,0.544-0.544,0.99-0.501c0.336,0.033,0.678-0.002,1.013,0.033
				c0.275,0.029,0.34,0.18,0.185,0.4c-0.408,0.58-0.83,1.151-1.247,1.725c-0.021,0.029-0.059,0.048-0.072,0.078
				c-0.094,0.217-0.184,0.435-0.275,0.653c0.217,0.053,0.433,0.11,0.652,0.156c0.068,0.015,0.142,0,0.213,0.001
				c0.547,0.01,0.593,0.054,0.594,0.619c0.001,0.427-0.005,0.854-0.012,1.281c-0.007,0.419-0.156,0.812-0.523,0.994
				c-0.476,0.236-0.336,0.602-0.323,0.96c0.012,0.34,0.191,0.56,0.493,0.7C115.557,22.086,115.882,22.248,116.268,22.435z
				 M119.932,15.003c0.233,0.528,0.438,1.013,0.663,1.488c0.053,0.113,0.174,0.194,0.264,0.29c0.079-0.107,0.19-0.203,0.231-0.323
				c0.134-0.399,0.231-0.81,0.367-1.209c0.068-0.199,0.032-0.324-0.173-0.346C120.832,14.855,120.373,14.758,119.932,15.003z
				 M119.552,15.038c-0.41-0.211-0.579-0.241-0.855-0.187c-0.363,0.07-0.527,0.254-0.536,0.619
				c-0.008,0.318-0.016,0.636-0.004,0.953c0.005,0.137,0.03,0.289,0.097,0.404c0.11,0.188,0.42,0.243,0.565,0.116
				c0.188-0.164,0.146-0.343,0.003-0.515c-0.057-0.068-0.125-0.128-0.178-0.199c-0.229-0.311-0.209-0.438,0.103-0.653
				C118.992,15.408,119.24,15.246,119.552,15.038z M121.956,15.012c0.134,0.097,0.206,0.17,0.294,0.211
				c0.571,0.263,0.653,0.41,0.571,1.028c-0.023,0.174-0.05,0.354-0.027,0.525c0.01,0.075,0.138,0.183,0.216,0.187
				c0.072,0.004,0.165-0.102,0.221-0.18c0.037-0.051,0.034-0.137,0.033-0.207c-0.009-0.442-0.001-0.886-0.046-1.324
				c-0.015-0.143-0.153-0.359-0.271-0.387C122.648,14.796,122.319,14.749,121.956,15.012z M122.44,19.532
				c0-0.006,0.001-0.013,0.001-0.019c0.159,0,0.319,0.011,0.477-0.003c0.235-0.02,0.343-0.164,0.332-0.395
				c-0.01-0.211-0.08-0.414-0.318-0.418c-0.352-0.005-0.711,0.009-1.052,0.082c-0.115,0.025-0.245,0.253-0.255,0.396
				c-0.007,0.096,0.167,0.251,0.291,0.299C122.074,19.537,122.264,19.517,122.44,19.532z M119.058,19.528
				c0-0.004,0-0.008,0.001-0.013c0.141,0,0.283,0.007,0.424-0.002c0.201-0.013,0.337-0.111,0.343-0.327
				c0.006-0.206-0.046-0.44-0.268-0.458c-0.364-0.029-0.739-0.011-1.097,0.055c-0.105,0.019-0.229,0.265-0.231,0.409
				c-0.002,0.098,0.177,0.242,0.303,0.288C118.693,19.538,118.882,19.516,119.058,19.528z M113.858,18.263
				c-0.006-0.039-0.008-0.167-0.049-0.281c-0.07-0.196-0.23-0.227-0.36-0.059c-0.151,0.194-0.297,0.401-0.398,0.624
				c-0.141,0.312,0.04,0.527,0.379,0.484C113.732,18.992,113.853,18.798,113.858,18.263z"/>
			<path d="M39.147,13.977c0.639-0.025,1.217-0.049,1.796-0.069c0.178-0.006,0.357-0.012,0.534,0.002
				c0.521,0.042,0.926-0.153,1.124-0.633c0.241-0.583,0.658-0.677,1.204-0.549c0.138,0.032,0.285,0.026,0.424,0.055
				c0.393,0.083,0.534,0.281,0.496,0.678c-0.036,0.373-0.001,0.43,0.39,0.438c0.73,0.015,1.461,0.008,2.192,0.008
				c0.632,0.001,0.705,0.065,0.707,0.704c0.004,1.906,0.002,3.812,0.001,5.718c0,0.089,0.001,0.179-0.008,0.267
				c-0.039,0.414-0.113,0.486-0.523,0.514c-0.124,0.008-0.251-0.001-0.373,0.021c-0.284,0.053-0.403,0.216-0.374,0.486
				c0.028,0.264,0.181,0.383,0.437,0.346c0.492-0.072,0.733,0.156,0.917,0.603c0.189,0.46,0.469,0.869,0.331,1.412
				c-0.034,0.133,0.088,0.337,0.191,0.466c0.187,0.235,0.238,0.477,0.136,0.748c-0.125,0.333-0.219,0.691-0.414,0.98
				c-0.227,0.336-0.536,0.599-1.011,0.588c-0.926-0.02-1.853,0.005-2.78-0.004c-0.677-0.007-1.145-0.369-1.301-1.035
				c-0.092-0.395-0.156-0.806-0.161-1.211c-0.009-0.836,0.031-1.672,0.047-2.509c0.001-0.079-0.029-0.158-0.066-0.341
				c-0.229,0.493-0.464,0.873-0.586,1.287c-0.265,0.904-0.68,1.725-1.314,2.409c-0.456,0.491-0.97,0.942-1.512,1.336
				c-0.448,0.325-0.915,0.309-1.248-0.202c-0.162-0.249-0.402-0.447-0.6-0.674c-0.263-0.301-0.221-0.546,0.139-0.714
				c0.875-0.408,1.583-1.011,2.126-1.804c0.334-0.488,0.576-1.022,0.67-1.611c0.064-0.404-0.063-0.544-0.486-0.571
				c-0.863-0.056-0.859-0.056-0.857-0.945c0.003-1.497,0-2.994-0.003-4.49c0-0.123-0.009-0.251-0.04-0.369
				c-0.039-0.149-0.119-0.239-0.311-0.203c-0.276,0.053-0.559,0.077-0.84,0.098c-0.407,0.03-0.493,0.102-0.501,0.521
				c-0.01,0.534,0,1.069-0.004,1.604c-0.002,0.3,0.118,0.475,0.438,0.475c0.107,0,0.215,0.003,0.32,0.019
				c0.431,0.063,0.51,0.16,0.493,0.591c-0.008,0.196-0.014,0.392-0.023,0.587c-0.021,0.453-0.138,0.586-0.594,0.674
				c-0.573,0.111-0.617,0.157-0.628,0.711c-0.008,0.41-0.012,0.82-0.002,1.229c0.012,0.465,0.156,0.563,0.61,0.428
				c0.136-0.041,0.263-0.113,0.399-0.15c0.293-0.081,0.457,0.016,0.476,0.319c0.023,0.373,0.034,0.751-0.005,1.121
				c-0.051,0.484-0.486,0.639-0.845,0.802c-0.66,0.3-1.34,0.558-2.021,0.809c-0.398,0.147-0.81,0.263-1.224,0.355
				c-0.085,0.019-0.266-0.111-0.304-0.211c-0.165-0.431-0.309-0.871-0.43-1.317c-0.105-0.39,0.037-0.612,0.416-0.733
				c0.051-0.016,0.103-0.032,0.156-0.037c0.958-0.099,0.88-0.4,0.883-1.134c0.002-0.499,0.016-0.998,0.002-1.497
				c-0.013-0.453-0.151-0.592-0.594-0.674c-0.57-0.105-0.669-0.223-0.686-0.817c-0.001-0.018,0-0.036,0-0.053
				c-0.019-0.886-0.019-0.886,0.834-1.035c0.348-0.061,0.444-0.162,0.451-0.54c0.009-0.499,0.008-0.998-0.004-1.497
				c-0.009-0.385-0.123-0.493-0.512-0.542c-0.911-0.115-0.911-0.115-0.905-1.048c0.006-0.908,0.074-0.978,0.969-0.979
				c0.962-0.001,1.924,0.001,2.887-0.001c0.636-0.002,0.636-0.004,0.829,0.631c0.015,0.051,0.034,0.101,0.059,0.148
				C39.155,13.997,39.185,14.02,39.147,13.977z M45.426,18.211c0-0.004,0-0.007-0.001-0.011c-0.158,0.011-0.326-0.005-0.473,0.042
				c-0.121,0.039-0.267,0.129-0.318,0.237c-0.205,0.431,0.084,0.922,0.557,0.974c0.139,0.015,0.283,0.009,0.423-0.007
				c0.477-0.054,0.633-0.244,0.622-0.74c-0.009-0.375-0.136-0.472-0.652-0.494C45.532,18.209,45.479,18.211,45.426,18.211z
				 M42.039,18.209c0-0.005-0.001-0.009-0.001-0.014c-0.176,0.015-0.36,0.002-0.525,0.053c-0.119,0.037-0.26,0.14-0.306,0.249
				c-0.203,0.48,0.105,0.94,0.626,0.961c0.123,0.005,0.247-0.008,0.37-0.023c0.487-0.058,0.613-0.215,0.601-0.742
				c-0.008-0.356-0.134-0.457-0.607-0.484C42.146,18.207,42.093,18.209,42.039,18.209z M45.373,16.613
				c0.162-0.01,0.305-0.01,0.446-0.03c0.268-0.038,0.407-0.199,0.413-0.471c0.005-0.264-0.099-0.471-0.373-0.501
				c-0.297-0.033-0.603-0.041-0.9-0.009c-0.275,0.03-0.37,0.248-0.364,0.509c0.006,0.248,0.131,0.401,0.374,0.448
				C45.108,16.586,45.25,16.597,45.373,16.613z M42.036,16.612c0.074-0.007,0.237-0.005,0.391-0.04
				c0.369-0.085,0.506-0.49,0.278-0.79c-0.224-0.295-1.212-0.325-1.428-0.033c-0.059,0.08-0.09,0.195-0.097,0.296
				C41.15,16.444,41.383,16.611,42.036,16.612z M45.986,25.092c0-0.007,0-0.015,0.001-0.022c0.159,0,0.319,0.016,0.476-0.003
				c0.288-0.035,0.483-0.216,0.596-0.47c0.137-0.312-0.033-0.523-0.371-0.465c-0.278,0.047-0.557,0.103-0.826,0.185
				c-0.182,0.056-0.361,0.146-0.517,0.256c-0.086,0.06-0.186,0.21-0.164,0.287c0.024,0.085,0.173,0.163,0.281,0.188
				C45.63,25.086,45.81,25.079,45.986,25.092z M45.197,22.459c0.237-0.332,0.219-0.664,0.216-0.987
				c-0.001-0.063-0.122-0.185-0.153-0.175c-0.085,0.028-0.205,0.104-0.216,0.175C44.994,21.793,44.968,22.121,45.197,22.459z"/>
			<path d="M100.097,16.283c0.172-0.383,0.356-0.743,0.499-1.118c0.247-0.648,0.468-1.302,0.514-2.006
				c0.021-0.33,0.178-0.447,0.507-0.379c0.399,0.082,0.789,0.215,1.172,0.356c0.228,0.084,0.219,0.282,0.161,0.495
				c-0.244,0.894-0.179,0.976,0.758,0.977c1.3,0.002,2.601-0.002,3.901,0.001c0.586,0.001,0.728,0.15,0.72,0.724
				c-0.006,0.445-0.006,0.891-0.01,1.336c-0.018,1.923,0.002,3.848-0.07,5.769c-0.036,0.968-0.028,1.948-0.361,2.9
				c-0.293,0.836-0.796,1.368-1.677,1.478c-0.528,0.066-1.06,0.127-1.591,0.139c-0.425,0.01-0.516-0.102-0.624-0.511
				c-0.085-0.326-0.17-0.653-0.262-0.978c-0.136-0.479-0.031-0.609,0.459-0.613c0.385-0.003,0.774-0.017,1.154-0.074
				c0.261-0.039,0.395-0.252,0.509-0.497c0.265-0.57,0.266-1.173,0.298-1.776c0.067-1.278,0.134-2.556,0.197-3.834
				c0.012-0.244,0.002-0.489,0.002-0.734c-0.04-0.012-0.079-0.024-0.119-0.036c-0.148,0.29-0.333,0.567-0.436,0.873
				c-0.18,0.537-0.33,1.087-0.457,1.639c-0.233,1.014-0.696,1.929-1.171,2.841c-0.212,0.408-0.37,0.858-0.647,1.216
				c-0.552,0.713-1.15,1.393-1.769,2.049c-0.269,0.285-0.49,0.219-0.754-0.105c-0.247-0.303-0.493-0.606-0.731-0.916
				c-0.191-0.248-0.142-0.499,0.108-0.757c0.433-0.445,0.896-0.868,1.275-1.356c0.622-0.798,1.157-1.659,1.561-2.593
				c0.232-0.536,0.472-1.068,0.679-1.613c0.124-0.326,0.199-0.674-0.037-1.112c-0.111,0.171-0.232,0.273-0.237,0.381
				c-0.029,0.585-0.432,1.003-0.667,1.487c-0.315,0.651-0.743,1.25-1.151,1.851c-0.187,0.276-0.438,0.511-0.673,0.752
				c-0.176,0.181-0.367,0.203-0.549-0.011c-0.161-0.19-0.328-0.375-0.494-0.56c-0.2-0.222-0.425-0.399-0.746-0.28
				c-0.319,0.118-0.472,0.372-0.476,0.705c-0.008,0.659-0.005,1.318-0.006,1.977c-0.001,0.695,0.01,1.39-0.005,2.084
				c-0.012,0.559-0.112,0.642-0.667,0.646c-0.143,0.001-0.285,0-0.428-0.003c-0.589-0.012-0.773-0.174-0.783-0.76
				c-0.015-0.908-0.003-1.817-0.004-2.726c0-0.806-0.083-0.879-0.87-0.695c-0.311,0.072-0.609,0.196-0.917,0.283
				c-0.373,0.106-0.478,0.048-0.589-0.316c-0.115-0.374-0.241-0.747-0.322-1.129c-0.08-0.376-0.001-0.468,0.376-0.56
				c0.57-0.139,1.137-0.291,1.711-0.405c0.359-0.071,0.544-0.299,0.57-0.616c0.052-0.637,0.062-1.279,0.064-1.918
				c0-0.219-0.098-0.441-0.375-0.43c-0.259,0.011-0.281,0.233-0.303,0.431c-0.041,0.371-0.064,0.745-0.119,1.114
				c-0.062,0.418-0.268,0.544-0.67,0.418c-0.321-0.101-0.634-0.228-0.953-0.335c-0.256-0.086-0.343-0.291-0.267-0.507
				c0.333-0.938,0.33-1.924,0.436-2.894c0.05-0.458,0.06-0.92,0.084-1.381c0.027-0.509,0.139-0.634,0.644-0.634
				c0.283,0,0.573,0.015,0.847,0.078c0.435,0.1,0.555,0.287,0.523,0.729c-0.014,0.188-0.052,0.373-0.079,0.56
				c0.034,0.01,0.068,0.021,0.102,0.031c0.027-0.096,0.074-0.192,0.079-0.289c0.025-0.533,0.018-1.068,0.064-1.599
				c0.045-0.516,0.204-0.639,0.72-0.654c0.16-0.005,0.321,0.003,0.481,0.005c0.549,0.009,0.638,0.095,0.647,0.662
				c0.008,0.499,0,0.998,0.005,1.496c0.002,0.16-0.001,0.325,0.04,0.477c0.03,0.111,0.104,0.246,0.198,0.296
				C99.384,15.986,99.69,16.103,100.097,16.283z M102.032,16.578c-0.231,0.955-0.704,1.669-1.255,2.413
				c-0.21-0.203-0.376-0.357-0.535-0.518c-0.199-0.203-0.367-0.449-0.597-0.604c-0.154-0.103-0.409-0.139-0.587-0.09
				c-0.1,0.028-0.181,0.287-0.191,0.446c-0.023,0.372-0.018,0.749,0.014,1.12c0.03,0.336,0.115,0.375,0.454,0.304
				c0.431-0.091,0.46-0.074,0.591,0.359c0.112,0.371,0.364,0.455,0.608,0.162c0.339-0.408,0.668-0.833,0.938-1.288
				c0.286-0.482,0.504-1.005,0.739-1.516C102.317,17.131,102.338,16.891,102.032,16.578z M104.17,17.568
				c0.042-0.004,0.084-0.008,0.126-0.012c-0.01-0.133-0.019-0.266-0.029-0.399c-0.032,0.002-0.065,0.004-0.097,0.005
				C104.17,17.298,104.17,17.433,104.17,17.568z"/>
			<path d="M76.846,18.048c-0.152-0.018-0.304-0.052-0.456-0.053c-3.456-0.005-6.913-0.006-10.369-0.007
				c-0.089,0-0.178,0.006-0.267,0.005c-0.502-0.006-0.621-0.117-0.647-0.63c-0.014-0.267-0.008-0.534-0.008-0.802
				c0-0.927,0.002-1.853,0.003-2.78c0.001-0.62,0.051-0.678,0.664-0.678c2.744-0.002,5.488,0,8.232,0
				c1.087,0,2.174-0.003,3.261,0.001c0.583,0.002,0.642,0.061,0.644,0.646c0.003,1.158,0.003,2.316,0,3.475
				c-0.002,0.587-0.06,0.663-0.65,0.861c0.52,0.369,0.613,0.945,0.8,1.472c0.088,0.248-0.02,0.418-0.318,0.506
				c-0.238,0.07-0.484,0.112-0.729,0.152c-0.576,0.093-1.153,0.181-1.731,0.262c-0.103,0.014-0.212-0.019-0.318-0.021
				c-0.656-0.015-1.312-0.051-1.966-0.032c-0.428,0.012-0.563,0.139-0.575,0.549c-0.028,0.961-0.03,1.924-0.011,2.885
				c0.008,0.401,0.262,0.506,0.565,0.236c0.193-0.173,0.328-0.415,0.475-0.635c0.466-0.692,0.917-1.39,1.103-2.224
				c0.097-0.433,0.39-0.615,0.831-0.562c0.3,0.036,0.598,0.089,0.898,0.126c0.265,0.033,0.38,0.191,0.353,0.439
				c-0.021,0.192-0.062,0.388-0.13,0.568c-0.19,0.501-0.189,0.622,0.202,0.978c0.393,0.359,0.818,0.683,1.225,1.028
				c0.204,0.172,0.407,0.346,0.594,0.535c0.197,0.199,0.238,0.439,0.078,0.68c-0.236,0.355-0.486,0.701-0.728,1.052
				c-0.1,0.145-0.226,0.18-0.36,0.066c-0.161-0.138-0.311-0.29-0.458-0.444c-0.404-0.424-0.794-0.862-1.209-1.275
				c-0.268-0.266-0.343-0.233-0.551,0.106c-0.259,0.424-0.525,0.844-0.8,1.257c-0.098,0.147-0.223,0.277-0.349,0.402
				c-0.183,0.182-0.371,0.186-0.556-0.009c-0.184-0.193-0.359-0.4-0.568-0.563c-0.114-0.089-0.318-0.171-0.429-0.126
				c-0.102,0.041-0.166,0.252-0.187,0.397c-0.033,0.227-0.002,0.463-0.021,0.693c-0.034,0.41-0.127,0.504-0.524,0.517
				c-0.356,0.012-0.713,0.01-1.069-0.003c-0.423-0.016-0.519-0.115-0.548-0.552c-0.015-0.231,0.005-0.465-0.023-0.694
				c-0.014-0.111-0.1-0.213-0.154-0.319c-0.097,0.057-0.217,0.095-0.287,0.175c-0.296,0.341-0.494,0.36-0.826,0.043
				c-0.308-0.294-0.6-0.605-0.916-0.891c-0.436-0.394-0.586-0.349-0.897,0.129c-0.27,0.415-0.571,0.814-0.895,1.188
				c-0.327,0.377-0.525,0.362-0.879-0.005c-0.223-0.23-0.436-0.47-0.648-0.71c-0.357-0.403-0.368-0.567,0.017-0.947
				c0.562-0.554,1.048-1.165,1.419-1.858c0.234-0.437,0.436-0.897,0.589-1.368c0.141-0.432-0.005-0.591-0.456-0.606
				c-0.267-0.009-0.539,0.025-0.8-0.014c-0.181-0.027-0.421-0.097-0.507-0.23c-0.278-0.428-0.363-0.928-0.289-1.431
				c0.015-0.1,0.216-0.216,0.349-0.246c0.186-0.043,0.39-0.014,0.585-0.014c1.158,0.001,2.317,0.019,3.474-0.001
				c1.941-0.032,3.881-0.077,5.821-0.142c0.495-0.017,0.989-0.114,1.479-0.202c0.164-0.029,0.312-0.144,0.468-0.219
				C76.86,18.14,76.853,18.094,76.846,18.048z M70.019,24.097c0.082-0.149,0.172-0.237,0.173-0.327
				c0.015-0.939,0.024-1.877,0.013-2.816c-0.003-0.235-0.158-0.395-0.416-0.396c-0.408,0-0.818-0.016-1.222,0.021
				c-0.373,0.034-0.452,0.247-0.189,0.529c0.21,0.226,0.255,0.445,0.169,0.725c-0.057,0.186-0.059,0.391-0.133,0.568
				c-0.117,0.28-0.038,0.484,0.184,0.65C69.05,23.389,69.506,23.72,70.019,24.097z M74.915,16.474
				c0.876-0.003,0.961-0.086,0.972-0.964c0.001-0.106,0.002-0.212-0.005-0.318c-0.015-0.253-0.161-0.382-0.406-0.402
				c-0.123-0.01-0.247-0.007-0.371-0.007c-1.054,0.003-1.104-0.154-1.037,1.187c0.02,0.399,0.133,0.485,0.529,0.504
				C74.703,16.479,74.809,16.474,74.915,16.474z M71.468,16.473c0,0.001,0,0.002,0,0.003c0.071,0,0.142,0.001,0.213,0
				c0.584-0.009,0.666-0.091,0.69-0.685c0.002-0.053,0.001-0.107,0.002-0.16c0.011-0.83-0.006-0.84-0.814-0.849
				c-0.97-0.011-1.069-0.049-1.002,1.158c0.001,0.018,0.003,0.035,0.006,0.053c0.061,0.343,0.176,0.45,0.531,0.479
				C71.219,16.481,71.344,16.473,71.468,16.473z M67.114,15.515c0.02,0.193,0.01,0.397,0.071,0.576
				c0.046,0.134,0.179,0.332,0.282,0.337c0.383,0.021,0.772-0.014,1.155-0.057c0.077-0.009,0.193-0.14,0.199-0.221
				c0.025-0.383,0.114-0.801-0.005-1.143c-0.119-0.342-0.558-0.19-0.864-0.224c-0.035-0.004-0.071-0.001-0.106-0.001
				C67.179,14.786,67.117,14.849,67.114,15.515z"/>
			<path d="M22.403,13.957c0.784,0,1.568-0.004,2.352,0.001c0.651,0.004,0.751,0.109,0.76,0.737
				c0.011,0.832,0.047,1.202-1.154,1.155c-0.742-0.029-0.857,0.118-0.859,0.873c-0.001,0.339-0.009,0.677,0.001,1.015
				c0.013,0.44,0.158,0.578,0.581,0.585c0.4,0.006,0.693-0.111,0.917-0.499c0.452-0.783,0.947-1.537,1.245-2.401
				c0.271-0.786,0.577-1.56,0.852-2.345c0.078-0.224,0.215-0.337,0.434-0.304c0.438,0.066,0.877,0.142,1.307,0.248
				c0.272,0.067,0.349,0.303,0.284,0.552c-0.048,0.184-0.15,0.356-0.24,0.528c-0.261,0.502-0.102,0.793,0.464,0.797
				c1.069,0.007,2.138,0.007,3.207-0.006c0.86-0.011,0.924,0.039,0.918,0.881c-0.001,0.143,0.002,0.285-0.004,0.428
				c-0.02,0.489-0.032,0.524-0.506,0.67c-0.268,0.082-0.394,0.249-0.38,0.506c0.055,1.015-0.218,1.986-0.475,2.939
				c-0.224,0.832-0.623,1.622-0.994,2.407c-0.218,0.462-0.272,0.463,0.12,0.797c0.255,0.217,0.538,0.407,0.827,0.577
				c0.38,0.223,0.773,0.424,1.169,0.617c0.342,0.166,0.451,0.368,0.29,0.727c-0.181,0.404-0.385,0.799-0.609,1.181
				c-0.166,0.282-0.502,0.353-0.848,0.144c-0.531-0.322-1.038-0.684-1.541-1.048c-0.214-0.155-0.393-0.357-0.588-0.537
				c-0.388-0.359-0.612-0.382-1.013-0.018c-0.749,0.681-1.666,1.075-2.538,1.549c-0.015,0.008-0.033,0.013-0.05,0.019
				c-0.87,0.298-0.863,0.195-1.355-0.475c-0.176-0.24-0.306-0.519-0.429-0.793c-0.055-0.121-0.057-0.273-0.057-0.412
				c0-0.364-0.018-0.412-0.382-0.393c-0.28,0.014-0.559,0.089-0.835,0.152c-0.207,0.047-0.406,0.133-0.614,0.177
				c-0.73,0.153-1.459,0.318-2.195,0.436c-0.648,0.103-0.665,0.077-0.869-0.547c-0.105-0.319-0.207-0.645-0.257-0.975
				c-0.067-0.445,0.026-0.528,0.465-0.585c0.37-0.048,0.743-0.093,1.106-0.177c0.476-0.11,0.561-0.226,0.567-0.697
				c0.008-0.57,0.011-1.14-0.003-1.71c-0.011-0.479-0.136-0.593-0.611-0.608c-0.196-0.006-0.392,0.006-0.588-0.004
				c-0.38-0.021-0.509-0.143-0.556-0.509c-0.005-0.035-0.003-0.071-0.005-0.107c-0.067-1.118-0.013-1.176,1.103-1.182
				c0.572-0.003,0.652-0.078,0.658-0.641c0.004-0.428,0.012-0.856-0.009-1.283c-0.02-0.419-0.144-0.534-0.559-0.549
				c-0.356-0.013-0.713-0.006-1.069-0.002c-0.307,0.003-0.468-0.161-0.488-0.45c-0.021-0.302-0.021-0.605-0.013-0.908
				c0.012-0.436,0.096-0.521,0.548-0.527c0.73-0.01,1.461-0.004,2.191-0.004c0.107,0,0.214,0,0.321,0
				C22.403,13.958,22.403,13.958,22.403,13.957z M24.83,24.506c0.303,0.154,0.548,0.071,0.791-0.033
				c0.146-0.063,0.292-0.129,0.433-0.203c0.5-0.262,1.016-0.498,1.49-0.801c0.431-0.276,0.412-0.489,0.154-0.93
				c-0.266-0.454-0.478-0.94-0.701-1.419c-0.149-0.321-0.269-0.656-0.413-0.981c-0.093-0.211-0.241-0.257-0.414-0.082
				c-0.125,0.126-0.237,0.265-0.355,0.398c-0.308,0.346-0.323,0.363-0.67,0.044c-0.309-0.283-0.639-0.427-1.061-0.377
				c-0.382,0.045-0.552,0.176-0.571,0.565c-0.024,0.479-0.026,0.962-0.006,1.441c0.014,0.343,0.181,0.468,0.532,0.418
				c0.298-0.042,0.593-0.114,0.886-0.187c0.198-0.05,0.414-0.024,0.445,0.168c0.073,0.449,0.102,0.909,0.101,1.365
				c0,0.279-0.289,0.326-0.486,0.437C24.933,24.358,24.9,24.423,24.83,24.506z M29.244,16.831c0,0.006,0,0.013,0,0.019
				c-0.284,0-0.569-0.009-0.853,0.002c-0.43,0.018-0.56,0.147-0.593,0.583c-0.01,0.14-0.007,0.289,0.028,0.423
				c0.144,0.546,0.26,1.105,0.468,1.627c0.221,0.554,0.512,1.085,0.817,1.599c0.185,0.311,0.368,0.297,0.54-0.043
				c0.205-0.407,0.324-0.857,0.52-1.27c0.365-0.767,0.306-1.597,0.38-2.404c0.034-0.367-0.143-0.518-0.508-0.534
				C29.777,16.822,29.51,16.831,29.244,16.831z"/>
			<path d="M60.459,16.479c0.73,0,1.461-0.01,2.19,0.003c0.543,0.01,0.622,0.102,0.627,0.626c0.003,0.267,0.006,0.535-0.006,0.801
				c-0.023,0.507-0.155,0.632-0.709,0.636c-1.14,0.008-2.28,0.003-3.419,0.003c-0.267,0-0.535-0.012-0.801,0.006
				c-0.46,0.031-0.595,0.262-0.417,0.682c0.855,2.019,2.232,3.611,4.01,4.864c0.447,0.315,0.949,0.551,1.414,0.841
				c0.409,0.255,0.405,0.27,0.108,0.632c-0.293,0.356-0.609,0.695-0.881,1.066c-0.194,0.264-0.429,0.333-0.695,0.203
				c-0.349-0.171-0.701-0.356-1.004-0.595c-1.248-0.986-2.319-2.15-3.266-3.424c-0.252-0.339-0.425-0.736-0.633-1.107
				c-0.069-0.124-0.114-0.266-0.202-0.372c-0.286-0.342-0.509-0.286-0.683,0.124c-0.434,1.025-1.089,1.904-1.832,2.725
				c-0.826,0.912-1.718,1.746-2.741,2.435c-0.03,0.02-0.057,0.043-0.087,0.062c-0.569,0.372-0.72,0.356-1.161-0.165
				c-0.264-0.312-0.514-0.637-0.763-0.961c-0.211-0.275-0.194-0.356,0.118-0.528c1.047-0.579,2.008-1.28,2.851-2.125
				c0.842-0.845,1.619-1.746,2.022-2.904c0.093-0.266,0.26-0.513,0.314-0.784c0.102-0.512-0.06-0.68-0.586-0.68
				c-1.122-0.001-2.244,0.003-3.366,0.004c-0.178,0-0.356-0.001-0.534-0.01c-0.314-0.015-0.503-0.173-0.514-0.496
				c-0.013-0.373-0.013-0.747-0.013-1.121c0.001-0.256,0.143-0.395,0.391-0.42c0.159-0.017,0.32-0.022,0.48-0.023
				c1.175-0.003,2.351-0.002,3.526-0.005c0.16,0,0.321-0.007,0.48-0.02c0.311-0.027,0.492-0.196,0.508-0.512
				c0.018-0.338,0.028-0.676,0.029-1.014c0.002-0.57-0.009-1.14-0.01-1.709c-0.001-0.416,0.086-0.525,0.479-0.538
				c0.445-0.015,0.891-0.016,1.335,0.002c0.447,0.018,0.562,0.142,0.566,0.591c0.007,0.712,0,1.425,0.001,2.137
				c0,0.142-0.004,0.286,0.008,0.427c0.041,0.477,0.188,0.626,0.676,0.635c0.73,0.012,1.46,0.003,2.19,0.003
				C60.459,16.476,60.459,16.477,60.459,16.479z"/>
			<path d="M82.522,23.509c-0.262,0-0.496,0-0.768,0c0.26,1.076-0.145,2.008-0.494,2.946c-0.114,0.306-0.401,0.372-0.668,0.292
				c-0.407-0.121-0.8-0.293-1.187-0.47c-0.184-0.084-0.15-0.255-0.069-0.416c0.207-0.411,0.433-0.815,0.606-1.241
				c0.184-0.453,0.288-0.914-0.094-1.354c-0.1-0.116-0.116-0.332-0.117-0.502c-0.007-2.868-0.006-5.736-0.003-8.603
				c0.001-0.565,0.088-0.667,0.642-0.674c1.158-0.015,2.316-0.014,3.473-0.006c0.44,0.003,0.533,0.117,0.532,0.541
				c-0.005,2.832-0.008,5.664-0.011,8.496c0,0.336,0.041,0.675-0.241,0.95c-0.065,0.064-0.076,0.244-0.038,0.342
				c0.134,0.347,0.311,0.677,0.45,1.022c0.119,0.295,0.233,0.596,0.301,0.905c0.06,0.275-0.07,0.487-0.361,0.565
				c-0.275,0.073-0.55,0.146-0.827,0.212c-0.276,0.066-0.433-0.058-0.522-0.32c-0.238-0.703-0.502-1.397-0.722-2.105
				C82.359,23.951,82.464,23.767,82.522,23.509z M82.582,21.169c0-0.506-0.144-0.718-0.494-0.726
				c-0.364-0.008-0.55,0.221-0.554,0.678c-0.003,0.388,0.173,0.601,0.501,0.607C82.386,21.735,82.582,21.534,82.582,21.169z
				 M82.587,18.241c0.001-0.333-0.197-0.532-0.529-0.53c-0.323,0.002-0.525,0.208-0.528,0.538c-0.003,0.363,0.215,0.614,0.526,0.607
				C82.365,18.849,82.585,18.594,82.587,18.241z M82.078,16.084c0.342-0.007,0.521-0.173,0.509-0.475
				c-0.011-0.293-0.218-0.471-0.536-0.46c-0.31,0.01-0.521,0.21-0.517,0.49C81.538,15.924,81.741,16.09,82.078,16.084z"/>
			<path d="M91.981,27.221c-0.736,0.02-1.272-0.252-1.665-1.158c-0.179-0.411-0.315-0.518-0.752-0.537
				c-0.294-0.012-0.446,0.106-0.54,0.393c-0.317,0.971-1.149,1.417-2.003,1.301c-0.691-0.094-1.299-0.636-1.405-1.327
				c-0.158-1.035-0.3-2.073-0.465-3.106c-0.053-0.332-0.176-0.652-0.237-0.984c-0.073-0.4-0.157-0.805-0.158-1.208
				c-0.001-0.411,0.165-0.483,0.577-0.474c1.155,0.026,2.311,0.025,3.467,0.037c1.138,0.011,2.275,0.028,3.413,0.035
				c0.284,0.002,0.568-0.044,0.851-0.04c0.551,0.007,0.685,0.24,0.51,0.748c-0.253,0.736-0.462,1.486-0.703,2.226
				c-0.144,0.442-0.041,0.784,0.311,1.094c0.392,0.345,0.57,0.787,0.548,1.33C93.693,26.52,92.967,27.235,91.981,27.221z
				 M89.096,22.084c0,0.002,0,0.005,0,0.007c0.784,0,1.568,0.001,2.352-0.001c0.106,0,0.228,0.018,0.315-0.027
				c0.095-0.049,0.219-0.164,0.216-0.246c-0.003-0.088-0.125-0.203-0.222-0.247c-0.107-0.048-0.244-0.035-0.368-0.036
				c-0.374-0.004-0.748-0.002-1.122-0.001c-1.194,0.002-2.388-0.001-3.581,0.012c-0.204,0.002-0.5,0.007-0.498,0.28
				c0.002,0.287,0.303,0.25,0.504,0.253C87.492,22.091,88.294,22.084,89.096,22.084z M88.107,23.591
				c0.309,0.763,0.685,1.041,1.338,1.058c0.141,0.004,0.283-0.004,0.424,0.003c0.364,0.018,0.648-0.128,0.884-0.398
				c0.145-0.166,0.318-0.356,0.165-0.554c-0.094-0.122-0.329-0.183-0.502-0.186c-0.582-0.011-1.165,0.014-1.748,0.031
				C88.499,23.549,88.33,23.572,88.107,23.591z"/>
			<path d="M89.242,19.713c-1.229,0-2.458,0.002-3.687-0.002c-0.261-0.001-0.615,0.073-0.708-0.227
				c-0.1-0.323-0.076-0.694-0.05-1.04c0.006-0.077,0.247-0.178,0.387-0.193c0.282-0.031,0.569-0.005,0.854-0.014
				c0.18-0.005,0.391-0.022,0.398-0.258c0.008-0.263-0.205-0.29-0.413-0.302c-0.838-0.051-0.915-0.134-0.863-0.922
				c0.03-0.453,0.132-0.552,0.587-0.568c0.16-0.006,0.33,0.016,0.475-0.032c0.092-0.031,0.206-0.171,0.203-0.26
				c-0.002-0.084-0.134-0.224-0.223-0.236c-0.262-0.038-0.532-0.015-0.798-0.034c-0.48-0.033-0.58-0.125-0.579-0.5
				c0.001-0.635,0.082-0.742,0.603-0.783c0.124-0.01,0.249-0.005,0.374-0.008c0.515-0.01,0.523-0.008,0.678-0.532
				c0.072-0.244,0.206-0.361,0.461-0.343c0.195,0.013,0.392,0.033,0.587,0.022c0.426-0.026,0.771,0.048,0.934,0.518
				c0.044,0.126,0.217,0.27,0.348,0.289c0.295,0.042,0.609,0.054,0.896-0.008c0.154-0.033,0.32-0.223,0.391-0.382
				c0.139-0.309,0.351-0.429,0.67-0.416c0.124,0.005,0.251,0.017,0.374,0.002c0.474-0.057,0.905-0.073,0.953,0.586
				c0.007,0.089,0.191,0.191,0.312,0.237c0.11,0.042,0.246,0.019,0.37,0.019c0.633,0.001,0.947,0.452,0.682,1.026
				c-0.059,0.127-0.263,0.228-0.417,0.261c-0.222,0.047-0.465-0.005-0.69,0.038c-0.109,0.021-0.195,0.161-0.291,0.247
				c0.091,0.093,0.167,0.231,0.277,0.269c0.145,0.049,0.317,0.029,0.476,0.022c0.318-0.015,0.456,0.151,0.473,0.446
				c0.008,0.142,0.017,0.285,0.009,0.427c-0.026,0.517-0.115,0.598-0.646,0.62c-0.124,0.005-0.263-0.013-0.367,0.037
				c-0.094,0.046-0.208,0.172-0.205,0.26c0.003,0.083,0.137,0.22,0.227,0.232c0.262,0.037,0.532,0.026,0.799,0.028
				c0.557,0.004,0.615,0.06,0.619,0.607c0.001,0.089,0.002,0.178-0.004,0.267c-0.034,0.473-0.15,0.592-0.628,0.594
				c-1.282,0.005-2.565,0.002-3.847,0.002C89.242,19.711,89.242,19.712,89.242,19.713z M89.237,18.26
				c0.211-0.023,0.423-0.034,0.629-0.076c0.071-0.014,0.183-0.111,0.177-0.159c-0.01-0.088-0.075-0.215-0.149-0.243
				c-0.426-0.163-0.863-0.147-1.288,0.01c-0.066,0.024-0.156,0.146-0.141,0.192c0.028,0.084,0.115,0.186,0.196,0.207
				C88.845,18.238,89.042,18.24,89.237,18.26z M89.244,15.619c-0.18,0.018-0.392,0.027-0.597,0.068
				c-0.07,0.014-0.178,0.113-0.173,0.163c0.01,0.087,0.09,0.232,0.148,0.236c0.413,0.027,0.828,0.034,1.241,0.019
				c0.067-0.002,0.198-0.176,0.18-0.212c-0.046-0.094-0.147-0.194-0.246-0.221C89.632,15.626,89.45,15.635,89.244,15.619z"/>
			<path fill="#C80B17" d="M10.417,17.386c1.33-0.122,2.475,0.449,3.404,1.422c0.443,0.465,0.739,1.076,1.065,1.643
				c0.144,0.25,0.073,0.514-0.173,0.713c-0.387,0.314-0.538,0.729-0.531,1.225c0.006,0.416,0.27,0.686,0.498,0.974
				c0.307,0.389,0.311,0.447,0.085,0.896c-0.348,0.691-0.761,1.338-1.402,1.781c-0.432,0.298-0.92,0.52-1.398,0.744
				c-0.553,0.259-1.135,0.382-1.759,0.343c-1.331-0.083-2.467-0.542-3.392-1.535c-0.407-0.436-0.801-0.895-0.982-1.437
				c-0.288-0.864-0.596-1.746-0.3-2.705c0.166-0.538,0.21-1.11,0.522-1.607c0.558-0.889,1.235-1.615,2.223-2.062
				C8.952,17.475,9.625,17.355,10.417,17.386z M10.272,25.543c1.764-0.001,3.395-1.383,3.358-3.41
				c-0.031-1.713-1.295-3.225-3.25-3.217c-1.973,0.009-3.234,1.281-3.365,3.203C6.883,24.048,8.582,25.51,10.272,25.543z"/>
			<path fill="#C80B17" d="M10.259,13.52c0,0.053,0,0.107,0,0.16c-0.002,0.584-0.002,0.595-0.592,0.615
				C8.4,14.337,7.208,14.696,6.091,15.25c-1.39,0.69-2.551,1.681-3.385,3.009c-0.641,1.022-1.053,2.125-1.109,3.349
				c-0.026,0.567-0.152,0.665-0.723,0.682c-0.071,0.002-0.142,0.003-0.214,0.001c-0.51-0.012-0.704-0.165-0.654-0.678
				c0.073-0.753,0.11-1.502,0.406-2.238c0.28-0.694,0.577-1.371,0.962-2.005c0.471-0.776,1.05-1.468,1.744-2.067
				c0.744-0.643,1.559-1.175,2.44-1.597c0.476-0.228,0.989-0.383,1.495-0.542c0.338-0.106,0.702-0.135,1.038-0.247
				c0.554-0.184,1.119-0.193,1.689-0.174c0.43,0.014,0.472,0.063,0.48,0.51c0.002,0.089,0,0.178,0,0.267
				C10.26,13.52,10.26,13.52,10.259,13.52z"/>
			<path fill="#C80B17" d="M3.518,22.297c-0.053,0-0.107,0-0.16,0c-0.54-0.004-0.695-0.13-0.606-0.67
				c0.185-1.119,0.449-2.209,1.084-3.194c0.51-0.79,1.143-1.445,1.875-2.005c0.388-0.297,0.875-0.462,1.278-0.743
				c0.693-0.483,1.544-0.375,2.285-0.663c0.095-0.037,0.211-0.029,0.317-0.032c0.541-0.013,0.649,0.093,0.669,0.647
				c0.003,0.071,0.002,0.142,0.001,0.213c-0.006,0.515-0.029,0.547-0.53,0.582c-0.958,0.068-1.856,0.349-2.645,0.881
				c-0.923,0.622-1.711,1.407-2.181,2.431c-0.256,0.557-0.436,1.166-0.545,1.77C4.226,22.259,4.259,22.281,3.518,22.297z"/>
			<path fill="#C80B17" d="M17.836,22.294c0.011,0.657-0.537,1.211-1.217,1.231c-0.675,0.02-1.194-0.518-1.206-1.28
				c-0.012-0.767,0.416-1.212,1.167-1.242C17.319,20.974,17.78,21.453,17.836,22.294z"/>
			<path fill="#C80B17" d="M10.274,24.128c-1.127-0.055-1.802-0.886-1.839-1.913c-0.03-0.849,0.629-1.899,1.914-1.849
				c1,0.039,1.826,0.74,1.798,1.943C12.125,23.273,11.236,24.139,10.274,24.128z M9.795,22.121c-0.009,0.34,0.208,0.643,0.477,0.663
				c0.29,0.022,0.597-0.249,0.61-0.538c0.016-0.363-0.211-0.621-0.556-0.63C9.978,21.606,9.805,21.771,9.795,22.121z"/>
		</g>
	</g>
</g>
</svg>
