<?xml version="1.0" encoding="utf-8"?>
<!-- Generator: Adobe Illustrator 16.0.0, SVG Export Plug-In . SVG Version: 6.00 Build 0)  -->
<!DOCTYPE svg PUBLIC "-//W3C//DTD SVG 1.1//EN" "http://www.w3.org/Graphics/SVG/1.1/DTD/svg11.dtd">
<svg version="1.1" id="Logos" xmlns="http://www.w3.org/2000/svg" xmlns:xlink="http://www.w3.org/1999/xlink" x="0px" y="0px"
	 width="125px" height="40px" viewBox="0 0 125 40" enable-background="new 0 0 125 40" xml:space="preserve">
<title>Werkdiscs Logo</title>
<rect y="7.81" fill="#FFE400" width="24.381" height="24.38"/>
<path fill="#FF5A00" d="M12.238,10.904c-5.023,0-9.095,4.072-9.095,9.096c0,1.665,0.447,3.225,1.229,4.567
	c0.521,0.896-0.544,3.083-0.173,3.441c0.409,0.396,2.409-0.735,3.283-0.256c1.425,0.781,3.014,1.342,4.757,1.342
	c5.024,0,9.096-4.071,9.096-9.095S17.262,10.904,12.238,10.904z M16.587,22.849c0,0.531-0.635,1.595-1.85,1.595
	s-1.77-0.841-1.77-1.468c0-1.19,1.246-1.643,1.873-1.643c0.404,0,0.81,0.159,0.81,0.159v-4.651l-5.357,0.889c0,0,0,5.579,0,6.104
	c0,0.523-0.658,1.587-1.881,1.587c-1.222,0-1.754-0.937-1.754-1.469c0-1.143,1.286-1.643,1.901-1.643
	c0.417,0,0.792,0.167,0.792,0.167s0-6.542,0-6.679s0.125-0.297,0.327-0.333c0.202-0.036,6.163-0.861,6.496-0.901
	c0.326-0.038,0.413,0.223,0.413,0.374C16.587,14.937,16.587,22.316,16.587,22.849z"/>
<g>
	<rect x="31.786" y="12.391" width="1.466" height="14.004"/>
</g>
<g>
	<polygon points="37.805,26.403 33.704,21.096 37.604,16.464 38.726,17.408 35.587,21.136 38.965,25.506 	"/>
</g>
<g>
	<rect x="50.043" y="12.391" width="1.466" height="14.004"/>
</g>
<g>
	<polygon points="56.062,26.403 51.96,21.096 55.86,16.464 56.982,17.408 53.844,21.136 57.222,25.506 	"/>
</g>
<g>
	<path d="M45.632,16.775c-1.424-0.637-3.466-0.247-4.751,0.904l0.979,1.092c0.853-0.763,2.276-1.059,3.175-0.657
		c0.558,0.249,0.829,0.718,0.829,1.433v1.06h-2.393c-0.738,0-1.866,0.169-2.602,0.999c-0.536,0.605-0.768,1.352-0.67,2.158
		c0.229,1.877,2.273,2.484,3.229,2.484c0.961,0,1.859-0.513,2.541-1.054l0.246,1.115h1.042v-6.763
		C47.257,18.268,46.711,17.257,45.632,16.775z M43.428,25.039c-0.268,0-1.652-0.466-1.772-1.453
		c-0.048-0.388,0.055-0.718,0.312-1.009c0.432-0.485,1.152-0.712,1.504-0.712h2.393v1.926
		C45.672,24.067,44.883,25.039,43.428,25.039z"/>
</g>
<g>
	<path d="M64.206,16.775c-1.424-0.637-3.466-0.247-4.751,0.904l0.979,1.092c0.852-0.763,2.276-1.059,3.174-0.657
		c0.559,0.249,0.83,0.718,0.83,1.433v1.06h-2.393c-0.738,0-1.867,0.169-2.602,0.999c-0.536,0.605-0.768,1.352-0.67,2.158
		c0.229,1.877,2.273,2.484,3.229,2.484c0.961,0,1.859-0.513,2.541-1.054l0.246,1.115h1.041v-6.763
		C65.83,18.268,65.285,17.257,64.206,16.775z M62.002,25.039c-0.269,0-1.652-0.466-1.772-1.453
		c-0.048-0.388,0.055-0.718,0.312-1.009c0.431-0.485,1.152-0.712,1.504-0.712h2.393v1.926
		C64.246,24.067,63.457,25.039,62.002,25.039z"/>
</g>
<g>
	<path d="M72.015,26.419c-2.009,0-4.155-1.322-4.155-5.034c0-3.717,2.238-5.035,4.155-5.035c2.067,0,4.154,1.557,4.154,5.035
		C76.169,24.862,74.082,26.419,72.015,26.419z M72.015,17.816c-1.684,0-2.689,1.334-2.689,3.568c0,2.301,0.955,3.568,2.689,3.568
		c1.658,0,2.688-1.367,2.688-3.568S73.673,17.816,72.015,17.816z"/>
</g>
<g>
	<path d="M99.606,23.901c-2.272,1.394-3.3,0.146-3.3-1.319c0-1.467,0-6.306,0-6.306h-2.273c0,0,0,5.206,0,6.672
		c0,1.467,1.027,3.373,3.008,3.373c0.965,0,2.164-0.901,2.738-1.386l0.34,1.165l1.76,0.001v-9.825h-2.272V23.901z"/>
	<path d="M88.608,16.276c-1.064,0-2.413,1.096-2.896,1.521c-0.404-0.851-1.137-1.521-2.31-1.521c-0.965,0-2.164,0.901-2.738,1.386
		l-0.341-1.166h-1.76v9.825h2.273v-7.625c2.272-1.394,3.006-0.146,3.006,1.319c0,1.467,0,6.306,0,6.306h2.272c0,0,0-5.206,0-6.672
		c0-0.284-0.028-0.586-0.087-0.886l0.014-0.067c2.273-1.394,3.007-0.146,3.007,1.319c0,1.467,0,6.306,0,6.306h2.272
		c0,0,0-5.206,0-6.672C91.321,18.183,90.588,16.276,88.608,16.276z"/>
	<rect x="112.804" y="16.496" width="2.42" height="9.825"/>
	<path d="M106.133,19.282c-0.201-1.266,2.003-1.905,3.714-0.488l0.831-1.271c0,0-1.173-1.173-3.079-1.173s-3.471,1.173-3.471,2.982
		c0,2.688,4.399,2.737,4.399,4.252c0,0.391-0.293,1.075-1.467,1.075c-1.173,0-2.33-1.121-2.33-1.121l-0.944,1.463
		c0,0,1.49,1.345,3.348,1.345s3.634-0.812,3.546-2.862C110.569,20.946,106.339,20.586,106.133,19.282z"/>
	
		<rect x="112.644" y="12.231" transform="matrix(-0.7071 -0.7071 0.7071 -0.7071 184.9432 103.6607)" width="2.592" height="2.592"/>
	<path d="M123.974,23.878c0,0-1.026,0.83-2.199,0.83c-1.174,0-2.396-0.978-2.396-3.372c0-2.396,1.368-3.227,2.396-3.227
		c1.026,0,2.149,0.636,2.149,0.636l0.856-1.369c0,0-1.052-1.075-2.958-1.075c-2.15,0-4.741,0.929-4.741,5.328
		c0,4.229,3.177,4.839,4.741,4.839S125,25.246,125,25.246L123.974,23.878z"/>
</g>
<rect fill="none" width="125" height="40"/>
</svg>
