<?xml version="1.0" encoding="utf-8"?>
<!-- Generator: Adobe Illustrator 19.2.0, SVG Export Plug-In . SVG Version: 6.00 Build 0)  -->
<svg version="1.1" xmlns="http://www.w3.org/2000/svg" xmlns:xlink="http://www.w3.org/1999/xlink" x="0px" y="0px"
	 viewBox="0 0 125 40" enable-background="new 0 0 125 40" xml:space="preserve">
<g id="bg" display="none">
	<rect display="inline" fill="#FFFFFF" width="125" height="40"/>
</g>
<g id="icons">
	<g>
		<g>
			<path fill-rule="evenodd" clip-rule="evenodd" fill="#023C9F" d="M23.801,13.436c-0.001-0.254-0.107-0.55-0.226-0.811
				c-1.648-3.587-3.291-7.178-4.914-10.777c-0.309-0.684-0.653-1.293-1.421-1.532c-5.748,0-11.494,0-17.241,0
				C0,4.69,0,9.063,0,13.436c0.062-0.005,0.124,0,0.187,0c3.839-0.001,7.681-0.001,11.52,0H23.801z"/>
			<path fill-rule="evenodd" clip-rule="evenodd" fill="#023C9F" d="M63.592,39.672c-0.429-0.067-0.859-0.125-1.286-0.197
				c-1.421-0.24-2.781-0.679-4.095-1.267c-0.037-0.018-0.07-0.043-0.145-0.094c0.619-1.365,1.241-2.73,1.853-4.071
				c0.803,0.269,1.577,0.567,2.373,0.789c1.294,0.358,2.611,0.458,3.893-0.041c1.787-0.7,2.806-2.077,3.27-3.899
				c0.015-0.059,0.015-0.125,0.015-0.187c0-0.072-0.007-0.143-0.014-0.278c-0.12,0.089-0.209,0.149-0.291,0.216
				c-1.75,1.415-3.767,1.851-5.966,1.67c-3.773-0.31-7.303-3.079-7.948-7.699c-0.331-2.388-0.038-4.698,1.256-6.791
				c1.43-2.311,3.551-3.627,6.196-4.121c1.676-0.315,3.341-0.252,4.923,0.446c0.63,0.279,1.207,0.68,1.829,1.038
				c0-0.542,0-1.123,0-1.723c1.532,0,3.016,0,4.554,0c0,0.104,0,0.214,0,0.322c0,5.693,0.01,11.388-0.008,17.082
				c-0.005,1.338-0.483,2.569-1.131,3.721c-1.507,2.684-3.754,4.369-6.807,4.926c-0.324,0.061-0.65,0.105-0.972,0.158
				C64.59,39.672,64.091,39.672,63.592,39.672z M64.796,27.818c1.226-0.007,2.319-0.384,3.189-1.26
				c1.382-1.388,1.767-3.075,1.288-4.94c-0.856-3.341-4.73-4.653-7.37-2.495c-1.379,1.129-1.934,2.628-1.766,4.405
				C60.372,26.034,62.301,27.815,64.796,27.818z"/>
			<path fill-rule="evenodd" clip-rule="evenodd" fill="#023C9F" d="M44.95,32.25c-1.569,0-3.124,0-4.711,0c0-0.411,0-0.801,0-1.249
				c-0.11,0.069-0.18,0.105-0.24,0.151c-1.381,1.06-2.949,1.587-4.685,1.653c-5.35,0.21-8.976-3.667-9.713-8.067
				c-0.838-4.999,2.743-10.274,8.053-11.087c1.996-0.307,3.918-0.071,5.682,1c0.292,0.177,0.559,0.39,0.887,0.622
				c0-2.54,0-5.038,0-7.556c1.599,0,3.154,0,4.727,0C44.95,15.896,44.95,24.063,44.95,32.25z M30.454,23.135
				c-0.082,2.55,1.954,5.126,4.988,5.157c2.641,0.028,4.923-2.346,4.924-5.071c0.002-2.806-2.253-5.164-4.933-5.159
				C32.705,18.066,30.457,20.358,30.454,23.135z"/>
			<path fill-rule="evenodd" clip-rule="evenodd" fill="#023C9F" d="M114.352,32.25c-0.103,0.008-0.194,0.021-0.285,0.021
				c-1.374,0.001-2.748-0.004-4.121,0.006c-0.239,0.001-0.342-0.057-0.323-0.313c0.02-0.299,0.005-0.6,0.005-0.945
				c-0.099,0.053-0.163,0.076-0.215,0.114c-1.394,1.085-2.982,1.616-4.74,1.671c-2.582,0.083-4.859-0.697-6.746-2.48
				c-1.709-1.617-2.673-3.628-2.977-5.96c-0.581-4.456,2.3-8.817,6.32-10.251c2.258-0.806,4.523-0.835,6.74,0.156
				c0.553,0.247,1.051,0.615,1.609,0.95c0-0.576,0-1.158,0-1.759c1.604,0,3.16,0,4.733,0
				C114.352,19.729,114.352,25.977,114.352,32.25z M109.768,23.196c0.011-2.752-2.247-5.115-4.904-5.134
				c-2.736-0.021-5.029,2.303-5.037,5.098c-0.008,2.799,2.27,5.138,5.001,5.138C107.481,28.298,109.759,25.946,109.768,23.196z"/>
			<path fill-rule="evenodd" clip-rule="evenodd" fill="#023C9F" d="M83.786,13.44c0.691,0,1.361,0,2.071,0c0-1.926,0-3.816,0-5.724
				c1.603,0,3.167,0,4.764,0c0,1.899,0,3.788,0,5.717c0.992,0,1.952,0,2.936,0c0,1.47,0,2.899,0,4.353c-0.972,0-1.926,0-2.93,0
				c0,0.134,0,0.243,0,0.352c0,2.322-0.005,4.642,0.003,6.962c0,0.321,0.03,0.645,0.077,0.964c0.117,0.782,0.53,1.357,1.227,1.74
				c0.691,0.379,1.372,0.78,2.099,1.193c-0.604,1.325-1.205,2.642-1.818,3.986c-1.736-0.859-3.508-1.604-4.841-3.048
				c-0.944-1.023-1.43-2.257-1.459-3.626c-0.059-2.695-0.042-5.39-0.056-8.083c-0.002-0.134,0-0.265,0-0.43c-0.708,0-1.38,0-2.073,0
				C83.786,16.335,83.786,14.907,83.786,13.44z"/>
			<path fill-rule="evenodd" clip-rule="evenodd" fill="#023C9F" d="M116.828,7.71c1.606,0,3.165,0,4.768,0c0,0.158,0,0.299,0,0.441
				c0,5.601-0.002,11.201,0.002,16.802c0,0.364,0.036,0.727,0.073,1.087c0.078,0.76,0.462,1.322,1.126,1.695
				c0.633,0.358,1.265,0.721,1.896,1.083c0.097,0.056,0.191,0.118,0.307,0.189c-0.605,1.326-1.204,2.635-1.814,3.977
				c-1.734-0.862-3.508-1.602-4.84-3.047c-0.912-0.987-1.361-2.178-1.456-3.502c-0.05-0.684-0.058-1.371-0.061-2.057
				c-0.003-5.414-0.001-10.827-0.001-16.24C116.828,8.004,116.828,7.871,116.828,7.71z"/>
			<path fill-rule="evenodd" clip-rule="evenodd" fill="#023C9F" d="M48.067,32.257c0-6.276,0-12.527,0-18.796
				c1.579,0,3.145,0,4.736,0c0.006,0.126,0.014,0.238,0.014,0.35c0.001,6.028,0,12.054,0.008,18.082c0,0.297-0.075,0.39-0.382,0.386
				c-1.343-0.016-2.684-0.007-4.028-0.008C48.305,32.271,48.192,32.261,48.067,32.257z"/>
			<path fill-rule="evenodd" clip-rule="evenodd" fill="#023C9F" d="M76.632,13.459c1.583,0,3.138,0,4.718,0
				c0.007,0.128,0.016,0.24,0.016,0.352c0.001,6.024-0.002,12.05,0.007,18.074c0.001,0.324-0.096,0.398-0.404,0.394
				c-1.342-0.018-2.684-0.013-4.027-0.002c-0.259,0.004-0.334-0.077-0.334-0.335c0.005-6.056,0.005-12.113,0.005-18.168
				C76.613,13.673,76.625,13.571,76.632,13.459z"/>
			<path fill-rule="evenodd" clip-rule="evenodd" fill="#023C9F" d="M47.546,9.055c0-1.624,1.287-2.906,2.911-2.901
				c1.598,0.007,2.885,1.304,2.883,2.906c-0.002,1.612-1.329,2.934-2.919,2.909C48.808,11.944,47.545,10.665,47.546,9.055z"/>
			<path fill-rule="evenodd" clip-rule="evenodd" fill="#023C9F" d="M76.093,9.051c0.002-1.606,1.286-2.893,2.89-2.897
				c1.618-0.003,2.906,1.288,2.905,2.912c-0.001,1.6-1.282,2.886-2.892,2.904C77.401,11.987,76.091,10.67,76.093,9.051z"/>
		</g>
		<linearGradient id="SVGID_1_" gradientUnits="userSpaceOnUse" x1="6.3033" y1="29.854" x2="26.6089" y2="18.1306">
			<stop  offset="0" style="stop-color:#1C8A93"/>
			<stop  offset="1" style="stop-color:#164D93"/>
		</linearGradient>
		<path fill-rule="evenodd" clip-rule="evenodd" fill="url(#SVGID_1_)" d="M23.745,13.171c0.02,0.324-0.189,0.33-0.428,0.33
			c-3.798-0.002-7.597,0-11.394,0.002c-0.254,0.575-0.507,1.151-0.764,1.727c-0.239,0.548-0.481,1.095-0.722,1.643
			c-0.041,0.072-0.086,0.142-0.122,0.217c-1.407,3.084-2.816,6.169-4.211,9.259c-0.065,0.146-0.061,0.371,0.005,0.519
			c0.432,0.992,0.889,1.973,1.338,2.956c1.451,3.179,2.905,6.358,4.357,9.536c0.045,0.094,0.1,0.185,0.175,0.324
			c0.074-0.145,0.119-0.225,0.156-0.308c2.353-5.147,4.706-10.291,7.057-15.438c0.379-0.831,0.749-1.669,1.122-2.503
			c0.491-1.062,0.987-2.124,1.475-3.189c0.598-1.301,1.193-2.603,1.787-3.905C23.744,13.968,23.882,13.59,23.745,13.171z"/>
	</g>
</g>
</svg>
