<?xml version="1.0" encoding="utf-8"?>
<!-- Generator: Adobe Illustrator 25.4.0, SVG Export Plug-In . SVG Version: 6.00 Build 0)  -->
<svg version="1.1" id="Layer_2" xmlns="http://www.w3.org/2000/svg" xmlns:xlink="http://www.w3.org/1999/xlink" x="0px" y="0px"
	 viewBox="0 0 125 40" style="enable-background:new 0 0 125 40;" xml:space="preserve">
<style type="text/css">
	.st0{fill:#1048F0;}
	.st1{fill:none;}
</style>
<g>
	<g>
		<path class="st0" d="M28.97535,12.41146V9.00011h-2.8693c-2.38867-3.0113-6.07755-4.94371-10.21998-4.94371
			S8.05476,5.98881,5.6661,9.00011H2.81482v3.35281C1.15046,13.1548,0,14.8539,0,16.82509
			c0,1.97256,1.15208,3.67259,2.81832,4.47377c0.07462,7.14888,5.9106,12.94215,13.07681,12.94215
			c7.186,0,13.03535-5.82507,13.07821-13.00118c1.5994-0.82462,2.69367-2.49124,2.69367-4.41475
			C31.66702,14.90241,30.57363,13.23645,28.97535,12.41146z M15.88608,7.18531c2.80696,0,5.33852,1.16885,7.1419,3.04372
			c-0.58059,0.30324-1.13784,0.64891-1.66156,1.04061c-1.66299-0.82262-3.50483-1.25908-5.39527-1.25908
			c-1.91727,0-3.78146,0.44774-5.46039,1.29146c-0.54832-0.41393-1.13334-0.77814-1.74492-1.09451
			C10.56784,8.34549,13.0901,7.18531,15.88608,7.18531z M25.45534,21.16089c0,5.27143-4.28868,9.56011-9.5602,9.56011
			s-9.5603-4.28868-9.5603-9.56011v-8.29902l0.23522-0.00012c1.40778,0.59967,2.62417,1.56166,3.53225,2.76876
			c1.54263-1.42431,3.60362-2.29548,5.8688-2.29548c2.23393,0,4.26991,0.84665,5.80533,2.2362
			c0.90322-1.17921,2.10252-2.11967,3.48699-2.70955l0.19192,0.00258V21.16089z"/>
		<polygon class="st0" points="48.34843,25.10746 40.2731,13.85722 36.96014,13.85722 36.96014,30.42199 40.2731,30.42199 
			40.2731,19.1487 48.21039,30.42199 51.7304,30.42199 51.7304,13.85722 48.34843,13.85722 		"/>
		<path class="st0" d="M62.87711,21.0525c-0.96468-1.52457-2.61236-2.57094-4.34825-2.57094
			c-2.99232,0-5.41806,2.72704-5.41806,6.091c0,3.36398,2.42574,6.09101,5.41806,6.09101c2.51213,0,3.68446-1.06568,4.34825-2.64888
			l0.20706,2.40731h3.10589V18.75764h-3.10589L62.87711,21.0525z M59.44912,27.67271c-1.67087,0-3.02537-1.35451-3.02537-3.02537
			c0-1.67087,1.3545-3.02537,3.02537-3.02537s3.02537,1.3545,3.02537,3.02537C62.47449,26.3182,61.12,27.67271,59.44912,27.67271z"
			/>
		<path class="st0" d="M75.71481,18.48156c-1.7359,0-3.38358,1.04637-4.34825,2.57094l-0.20706-2.29486H68.0536v17.18596h3.41648
			l-0.10353-7.9289c0.66379,1.5832,1.83612,2.64888,4.34825,2.64888c2.99232,0,5.41806-2.72703,5.41806-6.09101
			C81.13287,21.2086,78.70712,18.48156,75.71481,18.48156z M74.79454,27.67271c-1.67087,0-3.02537-1.35451-3.02537-3.02537
			c0-1.67087,1.3545-3.02537,3.02537-3.02537s3.02537,1.3545,3.02537,3.02537C77.81991,26.3182,76.46541,27.67271,74.79454,27.67271
			z"/>
		<path class="st0" d="M85.44661,22.07059c0-0.39687,0.37961-0.81098,1.41491-0.81098c1.03529,0,1.50117,0.48314,1.62196,0.94902
			h3.24394c0-0.41411-0.58667-3.72706-4.90041-3.72706c-2.0706,0-4.72786,1.24235-4.72786,3.72706
			c0,3.80353,6.88096,3.08056,6.88096,5.00395c0,0.46589-0.49663,0.91451-1.7735,0.91451c-1.27686,0-1.86353-0.5349-2.05334-1.2251
			h-3.33021c0,0.75923,0.44863,3.81335,5.50434,3.81335c3.34746,0,4.96942-1.63922,4.96942-3.50275
			C92.29683,23.12315,85.44661,23.79609,85.44661,22.07059z"/>
		<polygon class="st0" points="98.2728,15.23762 94.95985,15.23762 94.95985,18.73464 92.98128,18.73464 92.98128,21.90955 
			94.95985,21.90955 94.95985,30.66357 98.2728,30.66357 98.2728,21.90955 100.98759,21.90955 100.98759,18.73464 98.2728,18.73464 
					"/>
		<path class="st0" d="M107.45245,18.45855c-3.31631,0-6.00472,2.74378-6.00472,6.1284s2.68841,6.12839,6.00472,6.12839
			c2.49259,0,4.63014-1.55019,5.5384-3.75732l-2.91564-0.35511c0,0-0.75922,1.28836-2.53073,1.28836
			c-2.50772,0-2.77229-2.23164-2.77229-2.23164h8.3399c0.06033-0.3485,0.09357-0.70653,0.09357-1.07268
			C113.20565,21.20233,110.76877,18.45855,107.45245,18.45855z M104.77218,23.45099c0,0,0.10353-1.97856,2.55374-1.97856
			c2.4502,0,2.55373,1.97856,2.55373,1.97856H104.77218z"/>
		<path class="st0" d="M121.76257,19.05672c0,0-0.41412-0.57516-1.31138-0.57516c-0.80911,0-1.87875,0.78627-2.55373,1.71669
			l-0.18405-1.4176h-3.03687v11.73338h3.22092v-5.49859c0-1.77151,1.08131-4.23322,3.451-3.1289L121.76257,19.05672z"/>
		<path class="st0" d="M123.11433,27.22084c-1.03985,0-1.88586,0.84601-1.88586,1.88586c0,1.03985,0.84601,1.88567,1.88586,1.88567
			S125,30.14655,125,29.1067C125,28.06685,124.15418,27.22084,123.11433,27.22084z M123.11433,30.60126
			c-0.82424,0-1.49474-0.67051-1.49474-1.49455c0-0.82424,0.6705-1.49475,1.49474-1.49475
			c0.82405,0,1.49455,0.67051,1.49455,1.49475C124.60889,29.93075,123.93839,30.60126,123.11433,30.60126z"/>
		<path class="st0" d="M123.87766,28.75397c0-0.38538-0.31358-0.69877-0.69897-0.69877h-0.70297v2.00732h0.34222v-0.60958h0.209
			l0.44402,0.61381h0.42235l-0.4763-0.65841C123.68487,29.31037,123.87766,29.05531,123.87766,28.75397z M122.81794,29.11071
			v-0.71328h0.36075c0.1967,0,0.35674,0.16003,0.35674,0.35655c0,0.1967-0.16004,0.35674-0.35674,0.35674H122.81794z"/>
	</g>
	<rect class="st1" width="125" height="40"/>
</g>
</svg>
