<?xml version="1.0" encoding="utf-8"?>
<!-- Generator: Adobe Illustrator 20.1.0, SVG Export Plug-In . SVG Version: 6.00 Build 0)  -->
<svg version="1.1" id="logos" xmlns="http://www.w3.org/2000/svg" xmlns:xlink="http://www.w3.org/1999/xlink" x="0px" y="0px"
	 viewBox="0 0 125 40" enable-background="new 0 0 125 40" xml:space="preserve">
<g>
	<title>Mark with Circle Shape + Logotype on light</title>
	<desc>Created with Sketch.</desc>
	<g id="MXM-Logos">
		<g id="Mark-with-Circle-Shape-_x2B_-Logotype-on-light">
			<g id="MXM-LOGO-Copy-_x2B_-musixmatch-Copy" transform="translate(208.000000, 235.000000)">
				<g id="Oval-1-_x2B_-MXM-LOGO-Copy-2">
					<g id="MXM-LOGO" transform="translate(42.352201, 45.784567)">
					</g>
					<g id="Group">
						
							<linearGradient id="Oval-1_1_" gradientUnits="userSpaceOnUse" x1="-240.8888" y1="-146.8662" x2="-240.8888" y2="-147.0205" gradientTransform="matrix(182 0 0 -182 43647.9961 -26958.8887)">
							<stop  offset="0" style="stop-color:#FF6633"/>
							<stop  offset="1" style="stop-color:#FF0E83"/>
						</linearGradient>
						<circle id="Oval-1" fill="url(#Oval-1_1_)" cx="-193.766" cy="-215" r="14.234"/>
						<path id="Imported-Layers" fill="#FFFFFF" fill-opacity="0.7" d="M-188.674-221.7l-5.078,3.808
							c-0.015,0.011-0.044,0.033-0.044,0.033l-5.17-3.808c-0.285-0.215-0.617-0.311-0.941-0.312c-0.753,0-1.468,0.521-1.468,1.289
							v2.888l-0.001,8.584c0,0.768,0.714,1.289,1.468,1.289c0.324,0,0.656-0.097,0.941-0.312l5.171-3.841
							c2.573,1.94,5.121,3.841,5.121,3.841c0.285,0.215,0.617,0.312,0.941,0.312c0.753,0,1.518-0.521,1.518-1.289v-8.584v-2.946
							c0-0.768-0.763-1.264-1.517-1.264C-188.057-222.011-188.389-221.915-188.674-221.7z"/>
						<polygon id="Fill-3-Copy" fill="#FFFFFF" fill-opacity="0.6" points="-197.59,-214.964 -193.796,-212.081 -190.026,-214.965 
							-193.796,-217.858 						"/>
						<polyline id="Fill-4-Copy" fill="#FFFFFF" fill-opacity="0.6" points="-201.374,-217.811 -201.374,-212.116 -197.59,-214.964 
							-201.374,-217.811 						"/>
						<polyline id="Fill-5-Copy" fill="#FFFFFF" fill-opacity="0.6" points="-190.026,-214.965 -186.216,-212.081 
							-186.216,-217.858 -190.026,-214.965 						"/>
						<path id="Fill-6-Copy" fill="#FFFFFF" d="M-188.743-221.65l-5.053,3.792l3.77,2.894l3.81-2.894v-2.889
							C-186.216-221.845-187.66-222.553-188.743-221.65z"/>
						<path id="Fill-7-Copy" fill="#FFFFFF" d="M-198.961-221.689c-0.948-0.714-2.412-0.121-2.412,0.977v2.901l3.783,2.848
							l3.794-2.895L-198.961-221.689z"/>
						<path id="musixmatch" fill="#2C3E50" d="M-168.885-215.466v4.689h1.856v-4.667c0-1.26,0.687-2.108,1.841-2.108
							c1.283,0,1.787,0.878,1.787,2.062v4.712h1.864v-5.155c0-1.894-0.924-3.383-3.047-3.383c-1.275,0-2.093,0.474-2.902,1.367
							c-0.474-0.833-1.306-1.367-2.574-1.367c-0.664,0-1.696,0.244-2.497,1.314v-1.123h-1.818v8.348h1.864v-4.651
							c0-1.26,0.687-2.123,1.841-2.123C-169.389-217.551-168.885-216.65-168.885-215.466L-168.885-215.466z M-157.837-214.45v-4.674
							h-1.864v5.132c0,1.894,1.039,3.391,3.131,3.391c0.657,0,1.749-0.221,2.551-1.298v1.123h1.818v-8.348h-1.864v4.644
							c0,1.26-0.748,2.116-1.932,2.116C-157.279-212.365-157.837-213.267-157.837-214.45L-157.837-214.45z M-147.453-210.632
							c2.077,0,3.047-1.314,3.047-2.604c0-1.191-0.84-2.184-2.368-2.513l-1.146-0.244c-0.466-0.099-0.84-0.374-0.84-0.863
							c0-0.565,0.558-0.947,1.146-0.947c0.985,0,1.39,0.626,1.512,1.169l1.573-0.443c-0.145-0.802-0.894-2.23-3.086-2.23
							c-1.703,0-2.948,1.23-2.948,2.612c0,1.092,0.687,2.039,2.207,2.398l1.069,0.252c0.703,0.168,0.993,0.466,0.993,0.917
							c0,0.58-0.42,0.978-1.191,0.978c-0.955,0-1.52-0.619-1.673-1.329l-1.596,0.42
							C-150.646-212.129-149.721-210.632-147.453-210.632L-147.453-210.632z M-143.195-221.836c0-0.68,0.55-1.237,1.222-1.237
							c0.68,0,1.23,0.558,1.23,1.237s-0.55,1.222-1.23,1.222C-142.645-220.614-143.195-221.156-143.195-221.836L-143.195-221.836z
							 M-142.897-210.777v-8.348h1.864v8.348H-142.897z M-137.913-210.777l2.1-2.91l2.108,2.91h2.139l-3.162-4.254l3.063-4.094h-2.1
							l-2.024,2.765l-2.001-2.765h-2.131l3.055,4.124l-3.17,4.224H-137.913z M-125.07-215.466v4.689h1.856v-4.667
							c0-1.26,0.687-2.108,1.841-2.108c1.283,0,1.787,0.878,1.787,2.062v4.712h1.864v-5.155c0-1.894-0.924-3.383-3.047-3.383
							c-1.275,0-2.093,0.474-2.902,1.367c-0.474-0.833-1.306-1.367-2.574-1.367c-0.664,0-1.696,0.244-2.497,1.314v-1.123h-1.818
							v8.348h1.864v-4.651c0-1.26,0.687-2.123,1.841-2.123C-125.574-217.551-125.07-216.65-125.07-215.466L-125.07-215.466z
							 M-116.359-214.962c0,2.245,1.696,4.315,4.109,4.315c0.664,0,2.085-0.328,2.772-1.398v1.268h1.841v-8.348h-1.841v1.214
							c-0.687-1.031-1.993-1.382-2.727-1.382C-114.816-219.293-116.359-217.07-116.359-214.962L-116.359-214.962z M-109.469-214.962
							c0,1.428-0.993,2.627-2.505,2.627c-1.505,0-2.505-1.191-2.505-2.627c0-1.451,0.993-2.643,2.505-2.643
							C-110.462-217.605-109.469-216.413-109.469-214.962L-109.469-214.962z M-100.896-217.452v-1.673h-2.123v-2.589h-1.856v2.589
							h-1.619v1.673h1.619v4.086c0,2.032,0.924,2.666,2.566,2.666c0.229,0,0.825-0.015,1.337-0.168v-1.581
							c-0.359,0.046-0.588,0.061-0.756,0.061c-0.932,0-1.291-0.359-1.291-1.077v-3.987H-100.896z M-95.774-210.632
							c2.276,0,3.567-1.466,3.941-2.734l-1.703-0.55c-0.244,0.642-0.771,1.589-2.2,1.589c-1.421,0-2.475-1.115-2.475-2.673
							c0-1.581,1.1-2.612,2.459-2.612c1.382,0,1.993,0.909,2.184,1.558l1.688-0.55c-0.351-1.413-1.795-2.696-3.865-2.696
							c-2.49,0-4.376,1.948-4.376,4.331C-100.12-212.51-98.234-210.632-95.774-210.632L-95.774-210.632z M-84.864-215.451v4.674H-83
							v-5.14c0-1.902-1.008-3.383-3.131-3.383c-0.657,0-1.703,0.214-2.505,1.23v-5.446H-90.5v12.74h1.864v-4.651
							c0-1.26,0.748-2.108,1.932-2.108C-85.421-217.536-84.864-216.642-84.864-215.451L-84.864-215.451z"/>
					</g>
				</g>
			</g>
		</g>
	</g>
</g>
<rect x="0" y="0" fill="none" width="125" height="40"/>
</svg>
