<?xml version="1.0" encoding="utf-8"?>
<!-- Generator: Adobe Illustrator 23.0.1, SVG Export Plug-In . SVG Version: 6.00 Build 0)  -->
<svg version="1.1" xmlns="http://www.w3.org/2000/svg" xmlns:xlink="http://www.w3.org/1999/xlink" x="0px" y="0px"
	 viewBox="0 0 125 40" enable-background="new 0 0 125 40" xml:space="preserve">
<g id="bg" display="none">
	<rect display="inline" fill="#FFFFFF" width="125" height="40"/>
</g>
<g id="icons">
	<g id="icons_and_logos">
		<g>
			<g>
				<g>
					<g>
						<g>
							<path fill="#FFFFFF" d="M23.812,22.379c-0.313-0.635-0.368-1.2-0.165-1.68c0.361-0.85,1.433-1.19,2.142-1.415
								c0.163-0.051,0.303-0.096,0.41-0.138c1.09-0.431,1.168-0.805,1.167-0.909c-0.004-0.184-0.221-0.387-0.529-0.495l-0.018-0.007
								c-0.122-0.051-0.269-0.077-0.408-0.077c-0.122,0-0.237,0.02-0.323,0.06c-0.587,0.275-1.127,0.424-1.607,0.442h-0.012h-0.012
								c-0.725-0.028-1.052-0.369-1.086-0.408l-0.087-0.096l0.007-0.129c0.016-0.301,0.036-0.616,0.056-0.94
								c0.129-2.047,0.29-4.596-0.338-6.002c-1.906-4.272-5.949-4.587-7.123-4.587c-0.025,0-0.048,0-0.07,0
								c0,0-0.516,0.005-0.546,0.005c-1.188,0-5.212,0.328-7.11,4.585c-0.627,1.407-0.467,3.953-0.338,6.001
								c0.021,0.324,0.04,0.639,0.056,0.939l0.007,0.129l-0.084,0.094c-0.037,0.042-0.39,0.411-1.183,0.411
								c-0.503,0-1.078-0.15-1.708-0.444c-0.056-0.027-0.133-0.041-0.22-0.041c-0.387,0-0.831,0.26-0.88,0.517
								c-0.042,0.222,0.241,0.589,1.162,0.953c0.107,0.042,0.247,0.087,0.41,0.138c0.71,0.226,1.782,0.566,2.142,1.416
								c0.203,0.479,0.148,1.044-0.165,1.68c-0.129,0.301-2.154,4.864-6.712,5.615c0.001,0.021,0.006,0.046,0.019,0.074
								c0.078,0.182,0.568,0.811,3.624,1.283c0.478,0.074,0.595,0.613,0.732,1.236c0.049,0.223,0.099,0.453,0.167,0.687
								c0.023,0.08,0.026,0.086,0.136,0.086c0.135,0,0.342-0.04,0.58-0.087c0.433-0.085,1.027-0.2,1.785-0.2
								c0.423,0,0.859,0.037,1.297,0.109c0.935,0.156,1.696,0.694,2.501,1.263c1.081,0.764,2.199,1.555,3.905,1.555
								c0.043,0,0.085-0.002,0.127-0.005l0.019-0.002l0.019,0.001c0.073,0.004,0.146,0.006,0.22,0.006
								c1.706,0,2.824-0.79,3.905-1.555c0.806-0.569,1.566-1.107,2.501-1.263c0.437-0.072,0.874-0.109,1.297-0.109
								c0.758,0,1.352,0.104,1.785,0.188c0.239,0.047,0.445,0.075,0.58,0.075c0.014,0,0.025,0,0.036,0c0.076,0,0.08-0.004,0.1-0.075
								c0.069-0.233,0.119-0.458,0.167-0.681c0.136-0.623,0.253-1.159,0.732-1.233c3.055-0.472,3.547-1.1,3.624-1.282
								c0.012-0.028,0.017-0.052,0.019-0.073C25.966,27.243,23.941,22.68,23.812,22.379z"/>
							<path fill="#030303" d="M30.63,27.356c-4.238-0.698-6.144-5.047-6.224-5.231c-0.005-0.011-0.009-0.021-0.015-0.031
								c-0.226-0.459-0.276-0.843-0.15-1.141c0.244-0.576,1.146-0.862,1.742-1.051c0.167-0.053,0.324-0.103,0.453-0.154
								c1.057-0.417,1.587-0.93,1.575-1.523c-0.009-0.466-0.372-0.882-0.949-1.088l-0.002-0.001c-0.194-0.08-0.424-0.124-0.65-0.124
								c-0.154,0-0.383,0.021-0.597,0.121c-0.503,0.235-0.954,0.363-1.344,0.381c-0.258-0.012-0.427-0.077-0.523-0.13
								c0.012-0.215,0.026-0.436,0.04-0.667l0.005-0.09c0.134-2.118,0.299-4.754-0.393-6.306c-2.057-4.612-6.424-4.97-7.713-4.97
								h-0.001c-0.027,0-0.052,0-0.076,0c0,0-0.5,0.005-0.539,0.005c-1.286,0-5.644,0.358-7.7,4.968
								c-0.691,1.551-0.526,4.185-0.393,6.301c0.016,0.25,0.032,0.509,0.047,0.759c-0.106,0.059-0.301,0.132-0.606,0.132
								c-0.408,0-0.891-0.129-1.433-0.383c-0.144-0.068-0.31-0.101-0.494-0.101c-0.636,0-1.397,0.418-1.515,1.042
								c-0.085,0.449,0.116,1.104,1.559,1.674c0.13,0.052,0.287,0.101,0.452,0.153c0.596,0.189,1.498,0.475,1.742,1.052
								c0.127,0.299,0.076,0.683-0.15,1.142c-0.005,0.01-0.01,0.021-0.014,0.031c-0.079,0.185-1.987,4.534-6.223,5.232
								c-0.326,0.054-0.559,0.344-0.54,0.674c0.006,0.098,0.029,0.196,0.069,0.29c0.318,0.743,1.659,1.288,4.101,1.667
								c0.082,0.11,0.166,0.5,0.218,0.738c0.051,0.234,0.104,0.476,0.179,0.731c0.074,0.251,0.265,0.55,0.756,0.55
								c0.199,0,0.433-0.046,0.704-0.099c0.407-0.079,0.964-0.188,1.661-0.188c0.387,0,0.788,0.034,1.191,0.101
								c0.788,0.131,1.457,0.605,2.233,1.152c1.11,0.785,2.368,1.674,4.279,1.674c0.052,0,0.105-0.002,0.157-0.005
								c0.062,0.003,0.143,0.005,0.228,0.005c1.912,0,3.169-0.889,4.278-1.673c0.777-0.549,1.446-1.022,2.234-1.153
								c0.403-0.067,0.804-0.101,1.191-0.101c0.665,0,1.192,0.085,1.661,0.176c0.294,0.058,0.531,0.087,0.704,0.087h0.018h0.018
								c0.363,0,0.619-0.192,0.721-0.54c0.074-0.25,0.126-0.485,0.179-0.724c0.052-0.237,0.136-0.625,0.218-0.735
								c2.443-0.379,3.784-0.923,4.101-1.663c0.041-0.095,0.064-0.193,0.07-0.292C31.188,27.7,30.955,27.41,30.63,27.356z
								 M26.882,29.349c-0.478,0.074-0.596,0.609-0.732,1.233c-0.049,0.223-0.099,0.448-0.167,0.681
								c-0.021,0.07-0.025,0.075-0.1,0.075c-0.01,0-0.022,0-0.036,0c-0.135,0-0.342-0.028-0.58-0.075
								c-0.433-0.085-1.027-0.188-1.785-0.188c-0.423,0-0.859,0.037-1.297,0.109c-0.935,0.156-1.696,0.694-2.501,1.263
								c-1.081,0.765-2.199,1.555-3.905,1.555c-0.074,0-0.147-0.002-0.22-0.006l-0.019-0.001l-0.019,0.002
								c-0.042,0.004-0.084,0.005-0.127,0.005c-1.705,0-2.824-0.79-3.905-1.555c-0.805-0.569-1.566-1.107-2.501-1.263
								c-0.437-0.072-0.873-0.109-1.297-0.109c-0.758,0-1.352,0.115-1.785,0.2c-0.238,0.047-0.445,0.087-0.58,0.087
								c-0.111,0-0.113-0.006-0.136-0.086c-0.068-0.233-0.119-0.464-0.167-0.687c-0.136-0.623-0.254-1.162-0.732-1.236
								c-3.056-0.472-3.547-1.102-3.624-1.283c-0.012-0.028-0.017-0.053-0.019-0.074c4.558-0.751,6.583-5.314,6.712-5.615
								c0.313-0.636,0.369-1.2,0.165-1.68c-0.361-0.85-1.433-1.19-2.142-1.416c-0.163-0.051-0.303-0.096-0.41-0.138
								c-0.921-0.364-1.204-0.73-1.162-0.953c0.049-0.256,0.493-0.517,0.88-0.517c0.087,0,0.163,0.014,0.22,0.041
								c0.629,0.294,1.204,0.444,1.708,0.444c0.792,0,1.145-0.369,1.183-0.411l0.086-0.096l-0.007-0.129
								c-0.016-0.3-0.036-0.615-0.056-0.939c-0.129-2.047-0.289-4.594,0.338-6.001c1.898-4.257,5.922-4.585,7.11-4.585
								c0.029,0,0.546-0.005,0.546-0.005c0.022,0,0.045,0,0.07,0c1.174,0,5.218,0.315,7.123,4.587
								c0.627,1.406,0.467,3.955,0.338,6.002c-0.02,0.325-0.04,0.639-0.056,0.94l-0.007,0.129l0.087,0.096
								c0.035,0.039,0.361,0.38,1.086,0.408h0.012h0.012c0.479-0.018,1.02-0.167,1.607-0.442c0.086-0.041,0.201-0.06,0.323-0.06
								c0.139,0,0.286,0.026,0.408,0.077l0.018,0.007c0.307,0.108,0.525,0.311,0.529,0.495c0.002,0.104-0.076,0.479-1.167,0.909
								c-0.107,0.042-0.247,0.087-0.41,0.138c-0.71,0.226-1.782,0.565-2.142,1.415c-0.203,0.48-0.148,1.045,0.165,1.68
								c0.129,0.301,2.154,4.864,6.713,5.615c-0.001,0.021-0.006,0.045-0.019,0.073C30.429,28.249,29.937,28.877,26.882,29.349z"/>
						</g>
					</g>
				</g>
			</g>
			<g>
				<path d="M46.353,15.099c-0.318-0.443-0.727-0.8-1.226-1.07c-0.498-0.27-1.101-0.405-1.808-0.405
					c-0.36,0-0.727,0.055-1.101,0.166s-0.714,0.281-1.018,0.509c-0.305,0.229-0.551,0.516-0.739,0.863
					c-0.186,0.346-0.28,0.755-0.28,1.226s0.09,0.859,0.269,1.164c0.18,0.305,0.418,0.565,0.715,0.779
					c0.297,0.215,0.636,0.392,1.015,0.53c0.38,0.138,0.777,0.277,1.192,0.416c0.511,0.166,1.025,0.346,1.543,0.54
					c0.519,0.194,0.985,0.447,1.399,0.758c0.415,0.312,0.754,0.706,1.015,1.185c0.262,0.478,0.395,1.084,0.395,1.818
					c0,0.734-0.14,1.368-0.42,1.901c-0.281,0.534-0.644,0.974-1.092,1.32c-0.448,0.346-0.958,0.602-1.533,0.769
					c-0.575,0.166-1.154,0.249-1.735,0.249c-0.444,0-0.886-0.045-1.33-0.135c-0.444-0.091-0.866-0.225-1.267-0.405
					c-0.402-0.18-0.776-0.408-1.122-0.686c-0.346-0.277-0.651-0.596-0.915-0.956l1.289-0.956c0.318,0.526,0.765,0.966,1.34,1.319
					s1.25,0.529,2.026,0.529c0.374,0,0.755-0.058,1.142-0.176c0.388-0.117,0.739-0.298,1.05-0.54s0.568-0.54,0.769-0.894
					c0.2-0.353,0.301-0.765,0.301-1.236c0-0.513-0.101-0.938-0.301-1.278c-0.201-0.339-0.468-0.624-0.801-0.852
					c-0.333-0.228-0.713-0.419-1.142-0.571c-0.429-0.153-0.88-0.305-1.351-0.457c-0.485-0.153-0.963-0.326-1.433-0.519
					c-0.471-0.194-0.894-0.447-1.267-0.759c-0.374-0.311-0.675-0.696-0.904-1.153s-0.343-1.018-0.343-1.683
					c0-0.706,0.141-1.316,0.426-1.829c0.284-0.512,0.654-0.935,1.112-1.267c0.457-0.333,0.962-0.575,1.517-0.727
					c0.553-0.152,1.101-0.228,1.641-0.228c0.998,0,1.849,0.176,2.556,0.529c0.706,0.353,1.239,0.773,1.6,1.257L46.353,15.099z"/>
				<path d="M52.129,17.718c0.028,0.263,0.049,0.554,0.063,0.873c0.013,0.318,0.02,0.581,0.02,0.789h0.042
					c0.277-0.568,0.727-1.028,1.351-1.382c0.624-0.353,1.281-0.53,1.973-0.53c1.233,0,2.158,0.367,2.774,1.102
					c0.616,0.734,0.925,1.704,0.925,2.909v5.964h-1.413v-5.382c0-0.512-0.042-0.977-0.124-1.392
					c-0.083-0.416-0.226-0.772-0.426-1.07c-0.201-0.298-0.471-0.53-0.811-0.696c-0.34-0.166-0.765-0.249-1.278-0.249
					c-0.374,0-0.738,0.076-1.09,0.228c-0.354,0.153-0.669,0.385-0.946,0.696c-0.277,0.312-0.498,0.706-0.664,1.185
					c-0.167,0.478-0.25,1.042-0.25,1.693v4.987h-1.413v-7.585c0-0.263-0.007-0.603-0.02-1.018c-0.014-0.416-0.035-0.79-0.062-1.122
					C50.78,17.718,52.129,17.718,52.129,17.718z"/>
				<path d="M69.064,21.149c0-0.839-0.222-1.464-0.664-1.877c-0.444-0.412-1.088-0.619-1.933-0.619c-0.582,0-1.122,0.104-1.62,0.312
					c-0.499,0.208-0.922,0.485-1.267,0.831l-0.79-0.935c0.402-0.402,0.932-0.734,1.59-0.997s1.403-0.395,2.234-0.395
					c0.526,0,1.018,0.073,1.475,0.218c0.458,0.145,0.859,0.364,1.205,0.655S69.91,19,70.105,19.444
					c0.193,0.443,0.291,0.963,0.291,1.558v4.26c0,0.374,0.013,0.762,0.041,1.164s0.069,0.742,0.125,1.018h-1.267
					c-0.042-0.235-0.076-0.491-0.104-0.769c-0.028-0.277-0.042-0.547-0.042-0.81h-0.042c-0.444,0.652-0.945,1.119-1.507,1.403
					c-0.561,0.284-1.236,0.426-2.025,0.426c-0.374,0-0.759-0.052-1.154-0.156s-0.755-0.274-1.08-0.511s-0.596-0.542-0.811-0.918
					c-0.215-0.375-0.322-0.834-0.322-1.376c0-0.751,0.19-1.345,0.572-1.783c0.381-0.437,0.89-0.764,1.528-0.98
					c0.637-0.216,1.367-0.355,2.192-0.417c0.824-0.063,1.679-0.094,2.566-0.094v-0.31H69.064z M68.649,22.58
					c-0.582,0-1.168,0.024-1.756,0.073c-0.589,0.049-1.122,0.145-1.6,0.291c-0.478,0.145-0.87,0.357-1.174,0.634
					c-0.305,0.277-0.458,0.644-0.458,1.102c0,0.346,0.066,0.637,0.197,0.872c0.132,0.236,0.308,0.426,0.53,0.572
					c0.222,0.145,0.468,0.249,0.738,0.312c0.271,0.062,0.544,0.093,0.821,0.093c0.498,0,0.942-0.086,1.331-0.259
					c0.388-0.173,0.713-0.408,0.977-0.706c0.262-0.298,0.464-0.641,0.602-1.028c0.138-0.388,0.208-0.797,0.208-1.226v-0.727h-0.416
					V22.58z"/>
				<path d="M75.443,32.429h-1.412V17.718h1.413v1.683h0.063c0.401-0.637,0.938-1.118,1.61-1.444
					c0.671-0.325,1.354-0.488,2.047-0.488c0.762,0,1.451,0.132,2.067,0.395c0.616,0.263,1.143,0.623,1.58,1.08
					c0.436,0.457,0.775,0.997,1.018,1.621c0.242,0.623,0.363,1.295,0.363,2.015c0,0.721-0.121,1.393-0.363,2.016
					c-0.243,0.624-0.582,1.164-1.018,1.621s-0.963,0.817-1.58,1.08s-1.305,0.395-2.067,0.395c-0.693,0-1.375-0.163-2.047-0.488
					s-1.21-0.793-1.61-1.402h-0.063L75.443,32.429L75.443,32.429z M82.695,22.58c0-0.54-0.082-1.049-0.249-1.527
					c-0.166-0.478-0.405-0.894-0.717-1.247c-0.311-0.353-0.696-0.634-1.153-0.841c-0.458-0.208-0.977-0.312-1.558-0.312
					c-0.54,0-1.04,0.101-1.496,0.301c-0.457,0.201-0.851,0.478-1.184,0.832c-0.333,0.353-0.592,0.769-0.779,1.247
					s-0.281,0.994-0.281,1.548s0.094,1.07,0.281,1.548s0.447,0.89,0.779,1.236c0.333,0.346,0.727,0.62,1.184,0.82
					c0.457,0.201,0.956,0.302,1.496,0.302c0.582,0,1.101-0.1,1.558-0.302c0.457-0.2,0.841-0.478,1.153-0.831
					c0.312-0.353,0.551-0.769,0.717-1.247C82.613,23.629,82.695,23.12,82.695,22.58z"/>
				<path d="M94.228,19.941c-0.236-0.374-0.579-0.682-1.028-0.925c-0.451-0.242-0.939-0.364-1.465-0.364
					c-0.569,0-1.08,0.101-1.538,0.301c-0.457,0.201-0.848,0.478-1.174,0.832c-0.326,0.353-0.575,0.769-0.748,1.247
					c-0.173,0.478-0.259,0.994-0.259,1.548s0.086,1.067,0.259,1.538c0.173,0.471,0.419,0.883,0.738,1.236
					c0.318,0.353,0.707,0.631,1.164,0.831c0.457,0.201,0.969,0.302,1.538,0.302c0.623,0,1.149-0.117,1.579-0.353
					c0.429-0.235,0.782-0.54,1.06-0.914l1.059,0.789c-0.415,0.513-0.925,0.922-1.527,1.226c-0.602,0.305-1.326,0.457-2.171,0.457
					c-0.79,0-1.504-0.128-2.14-0.385c-0.638-0.256-1.182-0.613-1.632-1.07c-0.451-0.457-0.8-0.997-1.049-1.621
					c-0.25-0.624-0.374-1.302-0.374-2.037c0-0.734,0.124-1.413,0.374-2.036c0.249-0.624,0.598-1.164,1.049-1.621
					c0.45-0.457,0.994-0.813,1.632-1.07c0.637-0.256,1.35-0.385,2.14-0.385c0.65,0,1.312,0.142,1.984,0.426
					c0.672,0.284,1.216,0.703,1.632,1.257L94.228,19.941z"/>
				<path d="M99.111,19.317c0.263-0.568,0.7-1.018,1.309-1.35c0.609-0.333,1.26-0.499,1.953-0.499c1.233,0,2.158,0.367,2.774,1.102
					c0.616,0.734,0.925,1.704,0.925,2.909v5.964h-1.413v-5.382c0-0.512-0.042-0.977-0.125-1.392
					c-0.082-0.416-0.225-0.772-0.425-1.07c-0.201-0.298-0.471-0.53-0.811-0.696c-0.34-0.166-0.766-0.249-1.278-0.249
					c-0.374,0-0.738,0.076-1.092,0.228c-0.353,0.153-0.668,0.385-0.945,0.696c-0.278,0.312-0.498,0.706-0.665,1.185
					c-0.166,0.478-0.249,1.042-0.249,1.693v4.987h-1.413v-15.71h1.413v7.584H99.111z"/>
				<path d="M115.859,21.149c0-0.839-0.222-1.464-0.664-1.877c-0.444-0.412-1.088-0.619-1.933-0.619
					c-0.582,0-1.122,0.104-1.62,0.312c-0.499,0.208-0.922,0.485-1.267,0.831l-0.79-0.935c0.402-0.402,0.932-0.734,1.59-0.997
					s1.403-0.395,2.234-0.395c0.526,0,1.018,0.073,1.475,0.218c0.458,0.145,0.859,0.364,1.205,0.655s0.616,0.658,0.811,1.102
					c0.193,0.443,0.291,0.963,0.291,1.558v4.26c0,0.374,0.013,0.762,0.041,1.164s0.069,0.742,0.125,1.018h-1.267
					c-0.042-0.235-0.076-0.491-0.104-0.769c-0.028-0.277-0.042-0.547-0.042-0.81h-0.043c-0.444,0.652-0.945,1.119-1.507,1.403
					c-0.561,0.284-1.236,0.426-2.025,0.426c-0.374,0-0.759-0.052-1.154-0.156s-0.755-0.274-1.08-0.511
					c-0.326-0.237-0.596-0.542-0.811-0.918s-0.322-0.834-0.322-1.376c0-0.751,0.19-1.345,0.572-1.783
					c0.381-0.437,0.89-0.764,1.528-0.98c0.637-0.216,1.367-0.355,2.192-0.417c0.824-0.063,1.679-0.094,2.566-0.094v-0.31H115.859z
					 M115.444,22.58c-0.582,0-1.168,0.024-1.756,0.073c-0.589,0.049-1.122,0.145-1.6,0.291c-0.478,0.145-0.87,0.357-1.174,0.634
					c-0.305,0.277-0.458,0.644-0.458,1.102c0,0.346,0.066,0.637,0.197,0.872c0.132,0.236,0.308,0.426,0.53,0.572
					c0.222,0.145,0.468,0.249,0.738,0.312c0.271,0.062,0.544,0.093,0.821,0.093c0.498,0,0.942-0.086,1.331-0.259
					c0.388-0.173,0.713-0.408,0.977-0.706c0.262-0.298,0.464-0.641,0.602-1.028c0.138-0.388,0.208-0.797,0.208-1.226v-0.727h-0.416
					V22.58z"/>
				<path d="M125.001,18.902h-2.743v5.673c0,0.361,0.035,0.658,0.104,0.894c0.069,0.235,0.17,0.419,0.301,0.551
					c0.132,0.132,0.288,0.222,0.468,0.27s0.374,0.073,0.582,0.073c0.194,0,0.398-0.028,0.613-0.083s0.418-0.131,0.612-0.228
					l0.063,1.224c-0.249,0.097-0.509,0.169-0.779,0.218c-0.27,0.048-0.565,0.073-0.883,0.073c-0.263,0-0.54-0.035-0.831-0.104
					s-0.561-0.201-0.81-0.395c-0.25-0.194-0.455-0.457-0.613-0.79c-0.16-0.332-0.239-0.769-0.239-1.309v-6.067h-2.015v-1.184h2.015
					v-2.743h1.413v2.743h2.742V18.902z"/>
			</g>
		</g>
	</g>
</g>
</svg>
