<?xml version="1.0" encoding="utf-8"?>
<!-- Generator: Adobe Illustrator 20.0.0, SVG Export Plug-In . SVG Version: 6.00 Build 0)  -->
<svg version="1.1" xmlns="http://www.w3.org/2000/svg" xmlns:xlink="http://www.w3.org/1999/xlink" x="0px" y="0px"
	 viewBox="0 0 125 40" enable-background="new 0 0 125 40" xml:space="preserve">
<g id="bg" display="none">
	<rect display="inline" fill="#FFFFFF" width="125" height="40"/>
</g>
<g id="logo">
	<g id="logos_3_">
		<g>
			<path fill="#030303" d="M92.185,11.055c0.449-0.06,3.741-0.054,4.156,0.007c0.042,0.67,0.013,1.347,0.018,2.021
				c0.004,0.664,0,1.328,0,1.994v2.106c0.106-0.1,0.174-0.153,0.228-0.219c0.835-0.992,1.921-1.459,3.2-1.51
				c1.347-0.054,2.565,0.298,3.592,1.201c0.794,0.697,1.305,1.579,1.636,2.569c0.347,1.034,0.459,2.093,0.412,3.178
				c-0.044,1.036-0.219,2.041-0.595,3.007c-0.319,0.822-0.766,1.56-1.404,2.174c-0.828,0.796-1.821,1.23-2.958,1.36
				c-0.602,0.069-1.198,0.063-1.791-0.071c-0.896-0.204-1.632-0.666-2.218-1.368c-0.071-0.086-0.141-0.17-0.214-0.251
				c-0.005-0.008-0.029,0-0.07,0c-0.056,0.431,0.006,0.87-0.035,1.308c-0.045,0.023-0.086,0.061-0.125,0.061
				c-1.263,0.003-2.529,0.002-3.785,0.002c-0.133-0.125-0.084-0.276-0.084-0.409c-0.004-1.455-0.003-2.911-0.003-4.364V11.558
				c0.002-0.17-0.029-0.345,0.04-0.504L92.185,11.055z M101.212,22.144c0-0.205,0.016-0.412-0.003-0.616
				c-0.057-0.634-0.206-1.246-0.545-1.796c-0.543-0.879-1.495-1.25-2.498-0.987c-0.741,0.195-1.243,0.661-1.571,1.333
				c-0.219,0.447-0.316,0.925-0.36,1.415c-0.084,0.922-0.027,1.835,0.269,2.715c0.306,0.908,0.932,1.441,1.902,1.545
				c0.893,0.094,1.623-0.192,2.13-0.946c0.167-0.246,0.292-0.524,0.397-0.804c0.223-0.595,0.303-1.222,0.28-1.859L101.212,22.144z
				 M80.793,17.104v-6.031c0.394-0.076,3.707-0.081,4.141-0.015c0.063,0.374,0.09,16.487,0.027,17.526
				c-0.081,0.015-0.169,0.042-0.257,0.042c-1.155,0.004-2.31,0.003-3.466,0.003c-0.061,0-0.123-0.007-0.213-0.014
				c-0.094-0.452,0-0.908-0.056-1.357c-0.167-0.019-0.198,0.136-0.271,0.222c-0.606,0.731-1.366,1.242-2.302,1.399
				c-2.054,0.34-3.827-0.18-5.171-1.844c-0.585-0.725-0.953-1.563-1.186-2.46c-0.449-1.733-0.488-3.469,0.038-5.196
				c0.285-0.934,0.739-1.777,1.428-2.482c0.87-0.887,1.938-1.341,3.164-1.439c0.555-0.044,1.107-0.01,1.65,0.119
				c0.856,0.205,1.581,0.632,2.167,1.288c0.073,0.084,0.15,0.162,0.228,0.24c0.008,0.008,0.029,0,0.084-0.004L80.793,17.104z
				 M80.934,22.257c-0.013-0.268-0.01-0.538-0.04-0.804c-0.063-0.602-0.215-1.177-0.519-1.708c-0.835-1.464-2.955-1.357-3.776-0.182
				c-0.258,0.369-0.433,0.768-0.543,1.201c-0.205,0.809-0.2,1.629-0.063,2.445c0.101,0.595,0.299,1.157,0.653,1.66
				c0.896,1.279,3.073,1.218,3.803-0.269c0.097-0.198,0.185-0.403,0.251-0.611c0.182-0.564,0.228-1.143,0.233-1.731L80.934,22.257z
				 M48.739,19.789h-3.865c-0.075-0.251-0.007-0.449,0.024-0.647c0.221-1.368,0.978-2.337,2.206-2.949
				c0.731-0.362,1.511-0.546,2.314-0.653c1.104-0.146,2.207-0.122,3.31,0.01c0.708,0.086,1.399,0.247,2.046,0.559
				c1.175,0.564,1.848,1.497,2.018,2.788c0.045,0.341,0.067,0.691,0.069,1.038c0.007,2.054,0.008,4.11,0.01,6.165
				c0,0.812,0.104,1.606,0.412,2.365c0.018,0.042,0.017,0.091,0.026,0.15h-4.149c-0.207-0.33-0.177-0.726-0.295-1.111
				c-0.079,0.052-0.157,0.094-0.222,0.149c-0.892,0.775-1.947,1.146-3.104,1.28c-0.873,0.1-1.736,0.068-2.581-0.192
				c-0.255-0.078-0.508-0.174-0.747-0.297c-1.08-0.553-1.687-1.451-1.852-2.642c-0.084-0.595-0.073-1.198,0.073-1.791
				c0.195-0.786,0.621-1.407,1.284-1.869c0.487-0.338,1.028-0.551,1.592-0.714c0.854-0.244,1.731-0.359,2.607-0.48
				c0.61-0.087,1.218-0.185,1.827-0.282c0.123-0.021,0.243-0.063,0.365-0.094c0.919-0.247,0.923-1.43,0.388-1.873
				c-0.226-0.186-0.476-0.313-0.749-0.397c-0.477-0.15-0.969-0.165-1.455-0.086c-0.733,0.118-1.236,0.53-1.467,1.249
				c-0.027,0.088-0.05,0.177-0.09,0.317L48.739,19.789z M52.797,22.723c-0.532,0.129-1.034,0.259-1.539,0.378
				c-0.23,0.054-0.467,0.084-0.696,0.139c-0.477,0.115-0.957,0.217-1.378,0.483c-0.543,0.345-0.738,0.85-0.65,1.466
				c0.084,0.578,0.441,0.927,0.99,1.089c0.529,0.155,1.061,0.128,1.592,0.01c0.668-0.149,1.133-0.543,1.389-1.171
				c0.318-0.773,0.334-1.587,0.292-2.394L52.797,22.723z M124.945,23.239l-2.307,0.003h-6.962c-0.146,1.138,0.592,2.339,1.671,2.715
				c1.086,0.38,2.715,0.275,3.508-1.196h3.905c-0.052,0.174-0.088,0.324-0.139,0.468c-0.501,1.399-1.446,2.393-2.772,3.031
				c-0.881,0.424-1.817,0.632-2.788,0.7c-1.052,0.076-2.088-0.003-3.096-0.306c-2.457-0.737-3.926-2.375-4.413-4.89
				c-0.255-1.312-0.224-2.621,0.243-3.879c0.843-2.266,2.49-3.644,4.808-4.236c1.201-0.306,2.418-0.282,3.617,0.024
				c1.971,0.501,3.341,1.725,4.135,3.592c0.516,1.213,0.675,2.493,0.642,3.803c-0.002,0.045-0.027,0.089-0.052,0.171H124.945z
				 M120.768,20.867c-0.008-0.532-0.167-0.985-0.428-1.404c-0.992-1.594-3.067-1.444-4.027-0.24
				c-0.342,0.428-0.55,0.917-0.665,1.447c-0.01,0.057,0,0.119,0,0.198h5.119L120.768,20.867z M70.799,28.617h-3.982
				c-0.089-0.548,0.007-1.096-0.066-1.718c-0.096,0.129-0.146,0.202-0.203,0.269c-1.041,1.28-2.395,1.867-4.033,1.808
				c-0.522-0.019-1.038-0.084-1.543-0.232c-1.153-0.342-1.952-1.065-2.391-2.186c-0.311-0.79-0.42-1.618-0.454-2.458
				c-0.023-0.553-0.01-1.107-0.013-1.66v-6.121c0-0.155,0.006-0.308,0.01-0.456c0.432-0.06,3.663-0.065,4.176-0.006
				c0.002,0.146,0.006,0.301,0.007,0.455c0,2.245-0.003,4.49,0.004,6.737c0,0.33,0.025,0.665,0.079,0.992
				c0.144,0.862,0.693,1.378,1.566,1.451c0.31,0.027,0.637,0.023,0.94-0.047c0.934-0.216,1.426-0.874,1.657-1.765
				c0.108-0.418,0.112-0.844,0.112-1.271v-6.074V15.84c0.72-0.046,1.412-0.017,2.102-0.021c0.677-0.006,1.354-0.002,1.999-0.002
				c0.044,0.042,0.057,0.05,0.066,0.063c0.008,0.013,0.013,0.029,0.013,0.044l0.007,12.289c0,0.094-0.003,0.19-0.008,0.284
				c-0.002,0.029-0.021,0.056-0.046,0.118L70.799,28.617z M110.53,28.619h-4.077c-0.115-0.167-0.063-0.345-0.063-0.512
				c-0.004-2.973-0.003-5.945-0.003-8.917c0-2.546,0-5.09,0.002-7.635c0-0.169-0.045-0.347,0.048-0.505
				c0.452-0.056,3.734-0.052,4.112,0.006c0.01,0.01,0.024,0.021,0.031,0.034c0.006,0.014,0.01,0.029,0.01,0.045
				c0.002,5.707,0.005,11.412,0.006,17.119c0,0.094-0.007,0.188-0.014,0.282c0.002,0.013-0.015,0.025-0.052,0.078L110.53,28.619z
				 M90.645,28.612h-4.07c-0.031-0.028-0.048-0.037-0.055-0.05c-0.008-0.013-0.01-0.029-0.01-0.046
				c-0.002-4.189-0.003-8.378-0.003-12.568c0-0.028,0.023-0.056,0.034-0.084c0.376-0.057,3.536-0.069,4.103-0.015
				c0.01,0.01,0.024,0.021,0.031,0.033c0.008,0.013,0.01,0.029,0.01,0.044c0.004,4.095,0.006,8.19,0.008,12.284
				c0,0.094,0,0.19-0.005,0.284c0,0.031-0.021,0.057-0.042,0.115L90.645,28.612z M90.671,14.209h-4.124
				c-0.1-0.334-0.031-0.679-0.044-1.019c-0.014-0.363-0.003-0.728-0.003-1.091v-1.025c0.388-0.073,3.638-0.084,4.142-0.021
				c0.067,0.352,0.088,2.228,0.031,3.157L90.671,14.209z"/>
		</g>
		<path fill="#030303" d="M0,21.128v-2.721c0.029-0.034,0.038-0.052,0.05-0.056c0.013-0.004,0.029,0.005,0.044,0.01
			c0.044,0.017,0.09,0.031,0.132,0.052c6.512,3.252,13.025,6.505,19.537,9.759c0.015,0.006,0.031,0.007,0.086,0.021
			c6.564-3.283,13.156-6.578,19.759-9.877c0.076,0.397,0.094,1.892,0.042,2.756c-0.392,0.282-17.587,8.917-19.849,9.964
			C13.222,27.751,6.614,24.448,0,21.128z"/>
		<g>
			<path fill="#FF9B04" d="M34.866,17.329c-1-1.694-2.278-3.149-3.801-4.385c-2.871-2.33-6.165-3.617-9.839-3.923
				c-1.086-0.09-2.178-0.076-3.268,0.052c-0.957,0.112-1.902,0.287-2.83,0.553c-2.344,0.67-4.446,1.799-6.309,3.367
				c-1.476,1.242-2.711,2.694-3.698,4.354c-0.066,0.111-0.106,0.238-0.155,0.36c0.07-0.073,0.144-0.143,0.205-0.222
				c0.829-1.086,1.778-2.055,2.859-2.895c2.433-1.895,5.185-3.001,8.248-3.294c1.368-0.132,2.743-0.084,4.111,0.143
				c1.664,0.277,3.252,0.776,4.756,1.54c2.806,1.426,5.033,3.472,6.614,6.205c0.063,0.109,0.134,0.212,0.209,0.328
				c0.067-0.025,0.127-0.042,0.181-0.068l2.802-1.394c0.078-0.04,0.144-0.104,0.23-0.169c-0.115-0.198-0.213-0.378-0.317-0.553
				L34.866,17.329z M4.921,17.759l0.034-0.025c0.003-0.008,0.006-0.018,0.01-0.025l-0.018,0.018L4.92,17.758L4.921,17.759z"/>
		</g>
		<g>
			<path fill="#990B60" d="M22.226,19.809c-1.072-0.47-2.195-0.606-3.337-0.424c-1.785,0.286-3.185,1.235-4.267,2.666
				c-0.075,0.099-0.128,0.213-0.192,0.321c-0.08,0.052-0.115,0.115-0.073,0.206l0.146-0.133l0.365-0.219
				c1.488-0.883,3.031-0.997,4.625-0.324c1.032,0.433,1.848,1.134,2.488,2.051c0.089,0.125,0.182,0.246,0.266,0.363
				c0.591-0.228,2.929-1.407,3.208-1.62c-0.783-1.295-1.838-2.274-3.229-2.885L22.226,19.809z M14.32,22.595l0.042-0.006
				c-0.002-0.005-0.002-0.01-0.005-0.014l-0.002,0.003l-0.034,0.016V22.595z"/>
		</g>
		<path fill="#F15F25" d="M30.258,20.234c-0.037-0.07-0.076-0.14-0.119-0.206c-2.224-3.366-5.285-5.358-9.347-5.737
			c-1.242-0.115-2.464-0.016-3.668,0.275c-2.855,0.689-5.166,2.234-6.985,4.527c-0.146,0.185-0.261,0.394-0.39,0.59l-0.024,0.131
			l0.084-0.071c0.169-0.14,0.342-0.275,0.507-0.42c1.838-1.612,3.966-2.577,6.4-2.802c1.464-0.136,2.905,0.046,4.302,0.519
			c2.471,0.835,4.408,2.362,5.843,4.537c0.076,0.117,0.157,0.23,0.235,0.339c0.561-0.204,2.89-1.368,3.188-1.589
			c-0.008-0.031-0.01-0.063-0.024-0.09L30.258,20.234z"/>
	</g>
</g>
</svg>
