<?xml version="1.0" encoding="utf-8"?>
<!-- Generator: Adobe Illustrator 20.1.0, SVG Export Plug-In . SVG Version: 6.00 Build 0)  -->
<svg version="1.1" id="logos" xmlns="http://www.w3.org/2000/svg" xmlns:xlink="http://www.w3.org/1999/xlink" x="0px" y="0px"
	 viewBox="0 0 125 40" enable-background="new 0 0 125 40" xml:space="preserve">
<g>
	<path fill="#D1016E" d="M1.987,6.983c-1.579,0-2.354,1.393-1.633,3.117s4.008,8.176,4.168,8.817c0.16,0.641,0.24,1.803-0.321,2.966
		c-0.561,1.162-3.687,7.454-4.048,8.336s-0.16,2.605,1.403,2.605s96.063,0,97.786,0c1.723,0,3.246-0.842,4.128-1.884
		c0.882-1.042,6.092-8.536,6.613-9.538c0.521-1.002,0.681-2.324-0.281-3.887c-0.962-1.563-5.05-7.574-6.052-8.657
		c-1.002-1.082-1.803-1.874-3.607-1.874S1.987,6.983,1.987,6.983z"/>
	<path fill="#FFFFFF" d="M15.841,20.213v-6.681c0-0.125-0.102-0.227-0.227-0.227h-4.161c-0.125,0-0.227,0.102-0.227,0.227v6.681
		c0,0,0,5.067,0,5.414c0,0.347,0.347,1.094,1.147,1.094c0.8,0,1.227,0,3.254,0s7.388-0.853,10.562-3.441
		c0.267-0.213,0.32-0.32,0.32-0.64s0-1.494,0-2.08s-0.33-0.599-0.587-0.32c-1.2,1.307-6.028,3.547-8.721,3.547
		c-0.267,0-0.587,0-0.933,0c-0.347,0-0.507-0.24-0.507-0.613C15.761,22.8,15.841,20.213,15.841,20.213z"/>
	<path fill="#FFFFFF" d="M38.271,13.306c-0.933,0-5.761,0-5.761,0h-3.734c-0.132,0-0.24,0.108-0.24,0.24v2.187
		c0,0.132,0.108,0.24,0.24,0.24h3.734c0,0,4.214,0,4.934,0c0.72,0,2.427,0.4,2.427,3.654v0.32c0,3.254-1.707,3.654-2.427,3.654
		c-0.72,0-4.934,0-4.934,0h-3.734c-0.132,0-0.24,0.108-0.24,0.24v2.187c0,0.132,0.108,0.24,0.24,0.24h3.734c0,0,4.827,0,5.761,0
		c1.68,0,5.948-1.494,5.948-6.481C44.219,14.799,39.951,13.306,38.271,13.306z"/>
	<path fill="#FFFFFF" d="M64.182,15.706c0.125,0,0.227-0.102,0.227-0.227v-1.947c0-0.125-0.102-0.227-0.227-0.227H47.433
		c-0.125,0-0.227,0.102-0.227,0.227v1.947c0,0.125,0.102,0.227,0.227,0.227h6.708v2.827h-6.708c-0.125,0-0.227,0.102-0.227,0.227
		v1.947c0,0.125,0.102,0.227,0.227,0.227h6.708v0.427c0,2.054-1.547,2.48-2.374,2.48c-0.827,0-4.334,0-4.334,0
		c-0.125,0-0.227,0.102-0.227,0.227v1.947c0,0.125,0.102,0.227,0.227,0.227c0,0,3.987,0,5.828,0c1.797,0,5.374-1.248,5.54-5.307
		h5.382c0.125,0,0.227-0.102,0.227-0.227V18.76c0-0.125-0.102-0.227-0.227-0.227h-5.374c0-1.093,0-2.23,0-2.827H64.182z"/>
	<path fill="#FFFFFF" d="M74.73,15.466c-1.28,0-6.961,0-6.961,0c-0.161,0-0.293,0.132-0.293,0.293v1.52
		c0,0.161,0.132,0.293,0.293,0.293c0,0,5.414,0,6.161,0c0.747,0,1.44,0.48,1.44,1.627c0,0.228,0,0.422,0,0.587h-7.601
		c-0.161,0-0.293,0.132-0.293,0.293v1.36c0,0.161,0.132,0.293,0.293,0.293h7.601c0,0.141,0,0.299,0,0.48
		c0,1.147-0.693,1.627-1.44,1.627c-0.747,0-6.161,0-6.161,0c-0.161,0-0.293,0.132-0.293,0.293v1.52c0,0.161,0.132,0.293,0.293,0.293
		c0,0,5.681,0,6.961,0c1.28,0,4.347-0.773,4.347-4.961v-0.56C79.077,16.239,76.01,15.466,74.73,15.466z"/>
	<path fill="#FFFFFF" d="M88.492,13.306c-1.04,0-3.441,0.667-4.481,2.32s-2.054,4.801-2.214,5.334
		c-0.16,0.533,0.053,0.72,0.373,0.72c0.32,0,3.227,0,3.627,0s0.587-0.213,0.72-0.533s1.307-3.574,1.627-4.161
		c0.32-0.587,1.013-1.28,2.08-1.28c1.067,0,3.094,0,4.081,0s1.574,1.067,1.2,2.08c-0.373,1.013-3.12,7.601-3.254,7.948
		s-0.027,0.533,0.347,0.533s3.627,0,3.841,0c0.213,0,0.427-0.24,0.533-0.48c0.107-0.24,2.187-4.934,2.454-5.681
		c0.267-0.747,0.64-1.547,0.64-3.014c0-1.467-1.227-3.787-4.641-3.787C93.693,13.306,88.492,13.306,88.492,13.306z"/>
</g>
<rect y="0" fill="none" width="125" height="40"/>
</svg>
