<?xml version="1.0" encoding="utf-8"?>
<!-- Generator: Adobe Illustrator 19.2.0, SVG Export Plug-In . SVG Version: 6.00 Build 0)  -->
<svg version="1.1" xmlns="http://www.w3.org/2000/svg" xmlns:xlink="http://www.w3.org/1999/xlink" x="0px" y="0px"
	 viewBox="0 0 125 40" enable-background="new 0 0 125 40" xml:space="preserve">
<g id="bg" display="none">
	<rect display="inline" fill="#FFFFFF" width="125" height="40"/>
</g>
<g id="icons">
	<g>
		<path fill-rule="evenodd" clip-rule="evenodd" fill="#EF5224" d="M0,36.668c0.465-0.786,0.93-1.573,1.436-2.429
			c0.231,0,0.491,0,0.751,0c2.921,0,5.842,0.003,8.762-0.002c1.959-0.003,3.162-0.994,3.547-2.919
			c0.179-0.895,0.339-1.793,0.522-2.767c-1.885,0-3.695,0.073-5.497-0.027c-1.116-0.061-2.269-0.243-3.318-0.616
			c-3.04-1.081-4.601-3.782-4.096-7.062c0.517-3.359,1.143-6.701,1.726-10.05C4.013,9.777,4.156,8.746,4.41,7.743
			c1.098-4.339,4.014-6.719,8.299-7.562c0.681-0.134,1.39-0.164,2.086-0.167c3.379-0.016,6.759-0.007,10.138-0.007
			c0.261,0,0.522,0,0.84,0c-0.414,2.353-0.812,4.628-1.214,6.901c-1.424,8.047-2.877,16.09-4.267,24.143
			c-0.943,5.467-4.965,8.924-10.518,8.931C6.517,39.987,3.259,39.994,0,40C0,38.889,0,37.779,0,36.668z M15.951,22.797
			c0.057-0.111,0.09-0.151,0.097-0.195c0.827-4.676,1.664-9.351,2.468-14.032c0.309-1.801-0.569-2.817-2.413-2.865
			c-0.844-0.022-1.69-0.009-2.534-0.003c-1.963,0.013-3.224,1.029-3.609,2.973c-0.338,1.702-0.626,3.414-0.926,5.123
			c-0.374,2.137-0.784,4.269-1.09,6.417c-0.212,1.49,0.59,2.502,2.059,2.563C11.977,22.859,13.956,22.797,15.951,22.797z"/>
		<path fill-rule="evenodd" clip-rule="evenodd" fill="#EF5224" d="M75.144,0.007c0.258,0,0.448,0,0.64,0
			c3.596,0,7.193-0.002,10.789,0.001c1.498,0.002,2.923,0.335,4.239,1.052c1.913,1.043,2.907,2.681,3.065,4.846
			c0.137,1.883-0.35,3.69-0.665,5.515c-0.926,5.369-1.884,10.732-2.831,16.097c-0.058,0.327-0.127,0.653-0.195,1.002
			c-1.912,0-3.786,0-5.712,0c0.452-2.599,0.899-5.159,1.345-7.72c0.719-4.132,1.443-8.264,2.152-12.398
			c0.241-1.407-0.417-2.433-1.832-2.591c-1.284-0.143-2.605-0.148-3.894-0.033c-1.506,0.134-2.589,1.247-2.881,2.835
			c-0.649,3.533-1.252,7.074-1.873,10.611c-0.541,3.084-1.081,6.169-1.635,9.327c-0.449,0-0.878,0.007-1.307-0.001
			c-2.098-0.037-4.198-0.042-6.295-0.129c-2.302-0.096-4.311-0.83-5.61-2.971c-0.449,0.469-0.845,0.915-1.274,1.326
			c-1.234,1.183-2.66,1.898-4.425,1.776c-1.368-0.094-2.759-0.042-4.1-0.282c-2.22-0.398-3.983-1.548-5.044-3.88
			c-0.331,1.49-0.621,2.802-0.924,4.169c-3.157,0.136-6.124-0.123-8.177-3.082c-0.194,0.216-0.38,0.423-0.563,0.631
			c-1.447,1.637-3.161,2.611-5.449,2.464c-1.489-0.096-2.984,0-4.444-0.444c-3.375-1.025-5.221-3.752-4.681-7.24
			c0.641-4.144,1.286-8.295,2.162-12.395c0.798-3.74,2.856-6.639,6.644-7.943c0.92-0.317,1.929-0.502,2.902-0.517
			c3.837-0.059,7.675-0.028,11.513-0.027c0.14,0,0.281,0.028,0.484,0.05c-0.287,1.619-0.567,3.205-0.849,4.79
			c-0.883,4.96-1.769,9.92-2.646,14.881c-0.177,0.999,0.234,1.8,1.084,2.256c0.744,0.399,1.591,0.608,2.296,0.865
			c0.422-2.593,0.809-5.035,1.22-7.473c0.38-2.258,0.682-4.537,1.206-6.762c0.984-4.184,3.264-7.277,7.67-8.349
			c0.673-0.164,1.383-0.243,2.077-0.247c3.789-0.024,7.579-0.012,11.368-0.012c0.118,0,0.236,0.01,0.441,0.019
			c-0.061,0.426-0.105,0.819-0.174,1.208c-1.078,6.077-2.152,12.154-3.241,18.228c-0.337,1.879,0.213,2.746,2.089,3.16
			c0.396,0.088,0.803,0.127,1.319,0.207C72.471,15.2,73.804,7.62,75.144,0.007z M64.453,5.705c-2.052,0-3.956-0.018-5.861,0.008
			c-0.928,0.013-1.743,0.363-2.375,1.065c-0.601,0.668-0.875,1.477-1.024,2.352c-0.36,2.114-0.748,4.223-1.116,6.335
			c-0.276,1.59-0.56,3.18-0.802,4.776c-0.136,0.9,0.124,1.679,0.944,2.184c1.111,0.685,5.119,0.6,6.188-0.136
			c0.983-0.678,1.385-1.683,1.584-2.814c0.552-3.132,1.124-6.26,1.686-9.39C63.934,8.647,64.186,7.208,64.453,5.705z M40.569,5.701
			c-1.926,0-3.755-0.009-5.583,0.003c-1.901,0.012-3.193,1.064-3.57,2.936c-0.295,1.463-0.54,2.937-0.802,4.408
			c-0.397,2.229-0.796,4.457-1.182,6.689c-0.341,1.974,0.539,3.04,2.56,3.104c0.747,0.023,1.495,0.009,2.243,0.003
			c2.24-0.014,3.469-1.076,3.851-3.297c0.307-1.78,0.635-3.556,0.954-5.334C39.541,11.419,40.044,8.625,40.569,5.701z"/>
		<path fill-rule="evenodd" clip-rule="evenodd" fill="#EF5224" d="M115.656,22.908c-0.318,1.88-0.63,3.726-0.956,5.655
			c-2.557-0.182-4.789-0.918-6.377-3.094c-0.624,0.623-1.179,1.255-1.814,1.793c-1.045,0.886-2.26,1.373-3.66,1.29
			c-1.464-0.086-2.965-0.001-4.384-0.301c-3.978-0.841-5.934-3.783-5.272-7.809c0.657-3.994,1.303-7.994,2.133-11.954
			c0.722-3.444,2.577-6.16,5.893-7.67c1.176-0.536,2.429-0.799,3.721-0.804c3.426-0.013,6.852-0.006,10.277-0.006
			c0.093,0,0.187,0.015,0.371,0.032c0,0.336,0,0.664,0,0.993c0,0.917-0.056,1.837,0.01,2.75c0.233,3.246-0.54,6.371-1.08,9.525
			c-0.365,2.137-0.762,4.269-1.13,6.407C113.067,21.59,113.666,22.471,115.656,22.908z M110.152,5.701
			c-1.954,0-3.762-0.01-5.569,0.003c-1.939,0.014-3.278,1.166-3.616,3.079c-0.658,3.728-1.319,7.455-1.975,11.182
			c-0.283,1.607,0.54,2.709,2.178,2.829c0.96,0.07,1.93,0.06,2.894,0.03c2.03-0.061,3.21-1.095,3.572-3.086
			c0.617-3.392,1.233-6.784,1.844-10.176C109.705,8.309,109.917,7.054,110.152,5.701z"/>
	</g>
</g>
</svg>
