<?xml version="1.0" encoding="utf-8"?>
<!-- Generator: Adobe Illustrator 20.1.0, SVG Export Plug-In . SVG Version: 6.00 Build 0)  -->
<svg version="1.1" id="logos" xmlns="http://www.w3.org/2000/svg" xmlns:xlink="http://www.w3.org/1999/xlink" x="0px" y="0px"
	 viewBox="0 0 125 40" enable-background="new 0 0 125 40" xml:space="preserve">
<g>
	<g>
		<path fill="#09CEF6" d="M23.275,7.827H18c-1.15,0-2.251,0.464-3.053,1.288l-8.871,9.102v-9.62c0-0.425-0.344-0.769-0.769-0.769
			H0.769C0.344,7.827,0,8.172,0,8.597V31.32c0,0.425,0.344,0.769,0.769,0.769h4.538c0.425,0,0.769-0.344,0.769-0.769v-9.548
			l8.709,9.305c0.712,0.761,1.708,1.193,2.75,1.193h5.475c0.47,0,0.71-0.566,0.382-0.903L12.477,20.131L23.581,8.545
			C23.84,8.276,23.649,7.827,23.275,7.827z"/>
		<path fill="#09CEF6" d="M48.631,7.827h-5.274c-1.15,0-2.251,0.464-3.053,1.288l-8.871,9.102v-9.62
			c0-0.425-0.344-0.769-0.769-0.769h-4.538c-0.425,0-0.769,0.344-0.769,0.769V31.32c0,0.425,0.344,0.769,0.769,0.769h4.538
			c0.425,0,0.769-0.344,0.769-0.769v-9.548l8.709,9.305c0.712,0.761,1.708,1.193,2.75,1.193h5.475c0.47,0,0.71-0.566,0.382-0.903
			L37.832,20.131L48.937,8.545C49.196,8.276,49.004,7.827,48.631,7.827z"/>
		<path fill="#09CEF6" d="M67.161,19.53c1.775-0.848,3.868-2.941,3.868-5.617c0-3.683-2.914-6.205-8.279-6.205
			c-2.742,0-10.924,0-10.924,0c-0.464,0-0.839,0.376-0.839,0.839V31.43c0,0.464,0.376,0.839,0.839,0.839c0,0,8.235,0,11.944,0
			c3.709,0,8.186-1.109,8.186-6.355S67.161,19.53,67.161,19.53z M57.365,12.608c0,0,1.848-0.06,3.438-0.06
			c2.563,0,3.815,0.815,3.815,2.464c0,1.967-1.133,2.702-3.755,2.702s-3.497,0-3.497,0V12.608z M61.378,27.69
			c-1.709,0-3.974-0.099-3.974-0.099v-5.623c0,0,2.007-0.02,4.411-0.02c2.404,0,3.477,1.331,3.477,3.12
			C65.293,27.451,63.087,27.69,61.378,27.69z"/>
		<path fill="#09CEF6" d="M87.15,6.985c-7.034,0-13.114,3.696-13.114,12.995c0,7.153,4.093,13.035,12.478,13.035
			s13.512-5.603,13.512-12.478S96.21,6.985,87.15,6.985z M86.872,27.769c-4.133,0-6.716-3.418-6.716-7.948s3.378-7.59,6.796-7.59
			c4.65,0,7.074,4.014,7.074,8.067C94.025,24.709,91.004,27.769,86.872,27.769z"/>
		<path fill="#09CEF6" d="M124.884,31.374l-8.446-11.579l7.967-11.346c0.17-0.242-0.003-0.576-0.299-0.576h-5.812
			c-0.893,0-1.727,0.45-2.217,1.197l-3.824,5.824l-3.902-5.841c-0.492-0.737-1.32-1.179-2.206-1.179h-5.765
			c-0.298,0-0.471,0.337-0.298,0.579l8.117,11.343l-8.518,11.577c-0.291,0.396-0.009,0.954,0.482,0.954h5.479
			c0.984,0,1.903-0.492,2.449-1.312l4.187-6.292l4.187,6.292c0.545,0.819,1.464,1.312,2.449,1.312h5.485
			C124.89,32.326,125.173,31.77,124.884,31.374z"/>
	</g>
	<rect x="0" y="0" fill="none" width="125" height="40"/>
</g>
</svg>
