<?xml version="1.0" encoding="utf-8"?>
<!-- Generator: Adobe Illustrator 19.1.0, SVG Export Plug-In . SVG Version: 6.00 Build 0)  -->
<svg version="1.1" id="Layer_1" xmlns="http://www.w3.org/2000/svg" xmlns:xlink="http://www.w3.org/1999/xlink" x="0px" y="0px"
	 viewBox="0 0 125 40" style="enable-background:new 0 0 125 40;" xml:space="preserve">
<style type="text/css">
	.st0{fill:#142C37;}
	.st1{fill:#C1D848;}
	.st2{fill-rule:evenodd;clip-rule:evenodd;fill:none;}
	.st3{fill-rule:evenodd;clip-rule:evenodd;}
	.st4{fill:#231F20;}
	.st5{fill:#00B6BD;}
	.st6{fill:#88257E;}
	.st7{fill:#2D3032;}
	.st8{fill:url(#SVGID_1_);}
	.st9{fill:none;}
	.st10{fill:url(#SVGID_2_);}
	.st11{fill:#272223;}
	.st12{fill:#C62F34;}
	.st13{fill:url(#SVGID_3_);}
	.st14{fill:url(#SVGID_4_);}
	.st15{fill:url(#SVGID_5_);}
	.st16{fill:url(#SVGID_6_);}
	.st17{fill:url(#SVGID_7_);}
	.st18{fill:url(#SVGID_8_);}
	.st19{fill:url(#SVGID_9_);}
	.st20{fill:url(#SVGID_10_);}
	.st21{fill:url(#SVGID_11_);}
	.st22{fill:url(#SVGID_12_);}
	.st23{fill:url(#SVGID_13_);}
	.st24{fill:url(#SVGID_14_);}
	.st25{fill:#010101;}
	.st26{fill:#050505;}
	.st27{fill:#EAECEB;}
	.st28{fill:#E7EBEA;}
	.st29{fill:#F6FAE9;}
	.st30{fill:#C1C4CE;}
	.st31{fill:#DDE7C8;}
	.st32{fill:#EAEEF6;}
	.st33{fill:#AFB1D4;}
	.st34{fill:#CFD6D2;}
	.st35{fill:#D5DCCB;}
	.st36{fill:#CCCED5;}
	.st37{fill:#DAD8E0;}
	.st38{fill:#C6C0DD;}
	.st39{fill:#B2A5E6;}
	.st40{fill:#C0B9DE;}
	.st41{fill:#B8AFE1;}
	.st42{fill:#BDACE7;}
	.st43{fill:#A7A1E1;}
	.st44{fill:#CCB4EA;}
	.st45{fill:#ACA1E6;}
	.st46{fill:#CCCAE0;}
	.st47{fill:#002319;}
	.st48{fill:url(#SVGID_15_);}
	.st49{fill:url(#SVGID_16_);}
	.st50{fill:#3CB84D;}
	.st51{fill:#72041C;}
</style>
<g>
	<circle cx="20.2" cy="20" r="1.5"/>
	<path d="M21.2,1C9.9,0.5,0.7,9.7,1.2,21c0.5,9.7,8.3,17.5,18,18c11.3,0.6,20.5-8.7,20-20C38.7,9.4,30.8,1.5,21.2,1z M15.1,6.4
		c0.1,0.4-0.1,0.7-0.5,0.9c-0.9,0.3-2.5,1.2-4.4,3c-1.9,1.9-2.7,3.6-3.1,4.5c-0.1,0.3-0.5,0.5-0.8,0.5h0c-0.5-0.1-0.7-0.6-0.6-1
		c0.4-1,1.3-2.9,3.4-5c2.1-2.1,3.9-3,5-3.4C14.6,5.6,15.1,5.9,15.1,6.4L15.1,6.4z M16,11c0.1,0.3-0.1,0.7-0.4,0.8
		c-0.5,0.2-1.2,0.7-2,1.5c-0.8,0.8-1.3,1.6-1.5,2c-0.1,0.3-0.5,0.5-0.8,0.4l0,0c-0.5-0.1-0.8-0.6-0.5-1.1c0.3-0.6,0.8-1.5,1.8-2.5
		s1.8-1.5,2.5-1.8C15.4,10.3,15.9,10.5,16,11L16,11z M20.9,25.7c-3.7,0.5-6.9-2.7-6.4-6.4c0.3-2.5,2.4-4.6,4.9-4.9
		c3.7-0.5,6.9,2.7,6.4,6.4C25.5,23.3,23.5,25.3,20.9,25.7z M24.6,29.1c-0.1-0.3,0.1-0.7,0.4-0.8c0.5-0.2,1.2-0.7,2-1.5
		c0.8-0.8,1.2-1.5,1.5-2c0.2-0.3,0.5-0.5,0.8-0.4l0,0c0.5,0.1,0.8,0.6,0.5,1.1c-0.3,0.6-0.8,1.5-1.8,2.5s-1.8,1.5-2.5,1.8
		C25.2,29.8,24.7,29.6,24.6,29.1L24.6,29.1z M31.2,31.2c-2.1,2.1-3.9,3-5,3.4c-0.4,0.2-0.9-0.1-1-0.6l0,0c-0.1-0.4,0.1-0.7,0.5-0.9
		c0.9-0.3,2.5-1.2,4.4-3c1.9-1.9,2.7-3.6,3.1-4.4c0.1-0.3,0.5-0.5,0.8-0.5h0c0.5,0.1,0.7,0.6,0.6,1C34.2,27.2,33.2,29.1,31.2,31.2z"
		/>
</g>
<g>
	<path d="M49.5,26.5L46.7,11h3.1l1.9,11.1h0L57.2,11h3.4l-8.2,15.4H49.5z"/>
	<path d="M60,26.5l2-11.7h3l-2,11.7H60z M62.3,13.1l0.5-2.7h2.9l-0.5,2.7H62.3z"/>
	<path d="M65.8,26.5l2-11.7h2.8l-0.2,1.1h0c0.8-1,1.9-1.5,3.3-1.5c1.2,0,2.1,0.4,2.8,1.3c0.7,0.8,0.9,2,0.6,3.6l-1.3,7.2h-2.9
		l1.2-6.9c0.3-1.6-0.3-2.4-1.7-2.4c-0.7,0-1.2,0.2-1.7,0.6c-0.4,0.4-0.7,0.9-0.8,1.5l-1.3,7.3H65.8z"/>
	<path d="M81.7,31.4h-3l3.2-5.7l-2.7-10.9h3l1.7,7.4h0l4-7.4h3.3L81.7,31.4z"/>
	<path d="M90.7,26.5l2.8-16.1h3l-2.8,16.1H90.7z"/>
</g>
</svg>
