<?xml version="1.0" encoding="utf-8"?>
<!-- Generator: Adobe Illustrator 19.2.0, SVG Export Plug-In . SVG Version: 6.00 Build 0)  -->
<svg version="1.1" xmlns="http://www.w3.org/2000/svg" xmlns:xlink="http://www.w3.org/1999/xlink" x="0px" y="0px"
	 viewBox="0 0 125 40" enable-background="new 0 0 125 40" xml:space="preserve">
<g id="bg" display="none">
	<rect display="inline" fill="#FFFFFF" width="125" height="40"/>
</g>
<g id="icons">
	<g>
		<path fill-rule="evenodd" clip-rule="evenodd" fill="none" d="M0,12.675c0-2.88,0-5.762,0-8.642c19.041,0,38.084,0,57.125,0
			c0.011,0.066-0.031,0.087-0.083,0.106c-0.811,0.293-1.621,0.583-2.43,0.879c-0.93,0.34-1.841,0.729-2.79,1.023
			c-0.629,0.195-0.809,0.491-0.809,1.159c0,9.238,0,18.477,0,27.715c0,0.123-0.009,0.247,0.002,0.369
			c0.029,0.33,0.186,0.473,0.521,0.473c1.845,0.001,3.688,0.001,5.533-0.001c0.307-0.001,0.469-0.165,0.477-0.466
			c0.003-0.088,0.001-0.175,0.001-0.263c0-2.811-0.006-5.621,0.006-8.431c0.003-0.547-0.019-1.091,0.076-1.647
			c0.093-0.541,0.165-1.085,0.345-1.602c0.225-0.649,0.521-1.264,0.904-1.839c0.225-0.34,0.527-0.626,0.733-0.963
			c0.301-0.492,0.776-0.77,1.187-1.106c0.46-0.377,1.005-0.659,1.567-0.904c0.656-0.288,1.331-0.457,2.022-0.586
			c0.481-0.09,0.952,0.095,1.431,0.102c0.106,0.203,0.314,0.072,0.469,0.138c0.911,0.384,1.657,0.979,2.188,1.797
			c0.28,0.43,0.498,0.916,0.606,1.432c0.068,0.326,0.147,0.656,0.157,0.986c0.009,0.389,0.092,0.793-0.097,1.168
			c0.005,0.68-0.254,1.293-0.534,1.885c-0.445,0.94-0.998,1.814-1.761,2.541c-0.163,0.156-0.368,0.245-0.519,0.406
			c-0.467,0.498-1.111,0.705-1.688,1.018c-0.177,0.095-0.404,0.161-0.601,0.191c-0.232,0.034-0.441,0.165-0.685,0.141
			c-0.226-0.022-0.494-0.077-0.676,0.014c-0.244,0.122-0.472,0.065-0.704,0.082c-0.216,0.017-0.405-0.154-0.642-0.107
			c-0.159,0.03-0.347,0.053-0.482-0.099c-0.227,0.09-0.407-0.171-0.646-0.087c0,2.064,0,4.126,0,6.2c0.37,0,0.72,0,1.069,0
			c0.369,0,0.739,0,1.107,0c0.351,0,0.705,0.015,1.054-0.004c0.36-0.02,0.725,0.076,1.082-0.057c0.319-0.119,0.682,0.037,0.992-0.15
			c0.447,0.048,0.84-0.214,1.277-0.223c0.959-0.4,1.96-0.677,2.867-1.231c0.839-0.513,1.57-1.142,2.329-1.748
			c0.193-0.154,0.252-0.4,0.44-0.56c0.179-0.152,0.322-0.343,0.463-0.539c0.768-1.07,0.984-1.325,1.565-2.728
			c0.12-0.286,0.227-0.573,0.323-0.867c0.097-0.294,0.189-0.589,0.272-0.887c0.084-0.302,0.178-0.622,0.188-0.915
			c0.015-0.448,0.167-0.876,0.132-1.325c-0.063-0.845,0.066-1.691-0.088-2.541c-0.098-0.539-0.2-1.073-0.325-1.608
			c-0.169-0.721-0.425-1.401-0.743-2.066c-0.162-0.34-0.335-0.669-0.526-0.993c-0.283-0.478-0.615-0.918-0.977-1.331
			c-0.334-0.383-0.715-0.726-1.075-1.085c-0.074-0.074-0.139-0.165-0.227-0.218c-0.48-0.288-0.933-0.62-1.409-0.914
			c-0.467-0.289-0.964-0.479-1.465-0.668c-0.663-0.249-1.333-0.477-2.047-0.529c-0.207-0.191-0.48-0.03-0.689-0.117
			c-0.252-0.106-0.499-0.103-0.751-0.091c-0.777,0.038-1.552-0.073-2.331,0.086c-0.39,0.079-0.786,0.144-1.171,0.239
			c-0.2,0.048-0.401,0.131-0.601,0.2c-0.829,0.288-1.579,0.72-2.273,1.253c-0.363,0.278-0.725,0.558-1.117,0.86
			c0-0.222,0-0.396,0-0.57c0-3.249-0.004-6.499,0.007-9.748c0.001-0.258-0.065-0.46-0.218-0.65c22.554,0,45.11,0,67.664,0
			c0,10.645,0,21.29,0,31.935c-41.666,0-83.333,0-125,0c0-0.141,0-0.281,0-0.421c0.167,0.165,0.319,0.324,0.599,0.323
			c1.826-0.013,3.652-0.005,5.479-0.008c0.271,0,0.445-0.175,0.455-0.434c0.004-0.105,0.002-0.211,0.002-0.317
			c0-2.845-0.002-5.69,0.003-8.536c0-0.133-0.048-0.277,0.03-0.394c0.75,0.522,1.337,1.213,1.979,1.843
			c0.654,0.639,1.294,1.29,1.941,1.936c1.502,1.503,3.008,3.002,4.505,4.51c0.312,0.314,0.681,0.54,1.057,0.759
			c0.699,0.409,1.487,0.584,2.267,0.615c1.561,0.063,3.126,0.012,4.689,0.027c0.2,0.003,0.355-0.098,0.532-0.134
			c0.152-0.03,0.286-0.197,0.296-0.434c0.011-0.262-0.156-0.372-0.298-0.513c-3.402-3.404-6.803-6.808-10.208-10.209
			c-0.511-0.51-0.491-0.447,0.02-0.958c3.428-3.426,6.855-6.855,10.283-10.281c0.168-0.167,0.343-0.329,0.404-0.576
			c-0.09-0.098-0.184-0.286-0.272-0.283c-0.2,0.009-0.336-0.137-0.537-0.133c-0.912,0.022-1.826-0.008-2.739,0.015
			c-0.899,0.025-1.8-0.095-2.698,0.087c-0.226,0.046-0.465,0.056-0.691,0.119c-0.778,0.215-1.463,0.607-2.053,1.145
			c-0.862,0.785-1.655,1.643-2.519,2.429c-1.588,1.448-2.999,3.082-4.62,4.5c-0.464,0.405-0.878,0.869-1.366,1.357
			c0-0.257,0-0.43,0-0.603c0-2.793,0-5.585-0.002-8.376c0-0.429-0.232-0.663-0.658-0.664c-1.633-0.001-3.266-0.001-4.899-0.001
			C0.383,12.359,0.383,12.359,0,12.675z M77.252,23.866c0.012,0.389,0.013,0.704,0.094,1.028c0.081,0.322,0.022,0.669,0.099,1.012
			c0.057,0.253,0.115,0.524,0.147,0.792c0.03,0.264,0.128,0.542,0.219,0.798c0.328,0.92,0.684,1.828,1.23,2.653
			c0.514,0.775,1.045,1.528,1.698,2.192c0.409,0.416,0.863,0.772,1.329,1.117c0.413,0.306,0.829,0.607,1.28,0.854
			c0.615,0.336,1.24,0.647,1.91,0.857c0.42,0.131,0.838,0.286,1.269,0.366c0.278,0.051,0.551,0.193,0.849,0.117
			c0.32,0.192,0.691,0.02,1.005,0.12c0.343,0.108,0.679,0.053,1.014,0.097c0.234,0.03,0.42-0.119,0.642-0.113
			c0.677,0.015,1.321-0.153,1.98-0.298c0.824-0.182,1.582-0.504,2.344-0.835c0.288-0.125,0.545-0.295,0.818-0.443
			c0.801-0.436,1.489-1.023,2.174-1.612c0.298-0.257,0.542-0.571,0.798-0.874c0.296-0.348,0.581-0.705,0.841-1.08
			c0.504-0.726,0.916-1.508,1.235-2.331c0.17-0.441,0.284-0.901,0.428-1.351c0.146-0.457,0.179-0.937,0.305-1.4
			c0.062-0.229,0.027-0.489,0.006-0.734c-0.024-0.262,0.121-0.483,0.126-0.746c0.008-0.35-0.125-0.669-0.125-1.011
			c-0.002-0.304-0.024-0.601-0.084-0.907c-0.121-0.615-0.255-1.223-0.436-1.825c-0.283-0.943-0.688-1.831-1.207-2.66
			c-0.503-0.804-1.127-1.524-1.779-2.215c-0.213-0.224-0.497-0.358-0.709-0.589c-0.205-0.223-0.446-0.428-0.704-0.583
			c-0.725-0.438-1.422-0.923-2.231-1.225c-0.503-0.187-1.01-0.361-1.517-0.531c-0.513-0.173-1.062-0.293-1.593-0.333
			c-0.527-0.04-1.054-0.152-1.587-0.128c-0.495,0.023-0.982,0.159-1.484,0.102c-0.231,0.152-0.511,0.042-0.739,0.125
			c-0.284,0.102-0.582,0.127-0.857,0.223c-0.292,0.102-0.59,0.182-0.881,0.288c-0.844,0.309-1.659,0.676-2.406,1.187
			c-0.488,0.333-0.933,0.721-1.407,1.065c-0.616,0.444-1.05,1.039-1.528,1.592c-0.36,0.415-0.641,0.912-0.926,1.397
			c-0.359,0.61-0.659,1.236-0.897,1.897c-0.141,0.397-0.28,0.799-0.385,1.209c-0.107,0.416-0.2,0.853-0.221,1.269
			C77.361,22.912,77.186,23.414,77.252,23.866z M32.04,26.373c2.042,1.846,3.936,3.786,5.855,5.701
			c0.858,0.856,1.714,1.714,2.571,2.571c0.087,0.086,0.16,0.198,0.263,0.257c0.439,0.247,0.884,0.478,1.362,0.654
			c0.492,0.182,1.008,0.272,1.506,0.287c1.563,0.05,3.126,0.012,4.689,0.027c0.198,0.003,0.354-0.097,0.532-0.133
			c0.162-0.031,0.292-0.193,0.306-0.423c0.017-0.256-0.142-0.376-0.285-0.518c-3.427-3.429-6.854-6.858-10.285-10.282
			c-0.402-0.402-0.403-0.409,0-0.811c3.555-3.548,7.105-7.101,10.665-10.66c-0.027-0.158,0.069-0.336-0.065-0.488
			c-0.06-0.066-0.443-0.193-0.603-0.197c-0.088-0.003-0.177-0.001-0.264-0.001c-1.23,0-2.459-0.011-3.688,0.005
			c-0.477,0.006-0.966-0.102-1.432,0.1c-0.382-0.061-0.719,0.114-1.072,0.21c-0.619,0.165-1.153,0.498-1.623,0.909
			c-0.667,0.583-1.273,1.233-1.926,1.832c-1.572,1.44-2.976,3.056-4.583,4.464c-0.553,0.484-1.047,1.038-1.569,1.559
			c-0.102,0.101-0.203,0.203-0.355,0.354c0-0.258,0-0.433,0-0.605c0-2.651,0.002-5.303-0.003-7.956c0-0.151,0.019-0.298-0.045-0.455
			c-0.137-0.338-0.393-0.42-0.72-0.419c-1.703,0.003-3.407,0.002-5.11,0.002c-0.07,0-0.143-0.009-0.211,0.001
			c-0.309,0.044-0.441,0.193-0.446,0.497c-0.001,0.07,0,0.14,0,0.211c0,7.358,0,14.718,0,22.076c0,0.071-0.001,0.141,0,0.21
			c0.006,0.351,0.151,0.507,0.49,0.507c1.807,0.003,3.616-0.004,5.426,0.007c0.265,0.001,0.393-0.118,0.519-0.327
			c0.099-0.162,0.097-0.32,0.097-0.488c0.001-1.194,0.001-2.389,0.001-3.582C32.04,29.784,32.04,28.101,32.04,26.373z
			 M112.665,19.467c-0.081-0.079-0.143-0.136-0.198-0.197c-0.425-0.46-0.777-0.981-1.142-1.481c-0.67-0.917-1.37-1.812-2.029-2.738
			c-0.418-0.586-0.863-1.155-1.31-1.72c-0.223-0.283-0.543-0.51-0.883-0.649c-0.493-0.202-1.031-0.298-1.553-0.311
			c-1.544-0.036-3.09-0.007-4.636-0.021c-0.2-0.002-0.334,0.156-0.533,0.137c-0.053-0.006-0.136,0.117-0.155,0.24
			c-0.051,0.296,0.134,0.5,0.28,0.676c0.443,0.534,0.864,1.083,1.3,1.623c0.379,0.473,0.731,0.968,1.119,1.434
			c0.549,0.662,1.077,1.341,1.603,2.022c0.411,0.536,0.822,1.076,1.268,1.581c0.508,0.573,0.947,1.198,1.431,1.788
			c0.522,0.637,1.04,1.282,1.541,1.937c0.131,0.171,0.158,0.335,0.032,0.503c-0.343,0.456-0.675,0.924-1.047,1.355
			c-0.333,0.387-0.633,0.8-0.948,1.197c-0.469,0.589-0.919,1.197-1.391,1.789c-0.284,0.356-0.583,0.709-0.841,1.078
			c-0.375,0.535-0.791,1.039-1.188,1.553c-0.321,0.415-0.648,0.831-0.978,1.239c-0.496,0.613-0.975,1.245-1.455,1.872
			c-0.177,0.232-0.392,0.445-0.518,0.728c-0.097,0.218-0.048,0.369,0.056,0.533c0.042,0.069,0.109,0.154,0.21,0.118
			c0.189-0.07,0.301,0.139,0.485,0.113c0.171-0.025,0.351-0.006,0.526-0.006c1.176,0,2.353,0.007,3.53-0.006
			c0.248-0.002,0.493,0.04,0.756-0.081c0.226-0.104,0.52-0.039,0.794-0.108c0.692-0.177,1.249-0.495,1.674-1.087
			c0.281-0.393,0.55-0.794,0.827-1.188c0.317-0.449,0.633-0.899,0.956-1.343c0.412-0.568,0.829-1.132,1.241-1.699
			c0.255-0.35,0.502-0.708,0.762-1.054c0.122-0.161,0.255-0.32,0.446-0.412c0.413,0.518,0.831,1.005,1.202,1.524
			c0.215,0.301,0.448,0.586,0.663,0.884c0.352,0.486,0.702,0.973,1.057,1.456c0.317,0.43,0.661,0.845,0.943,1.297
			c0.211,0.336,0.434,0.656,0.739,0.9c0.254,0.203,0.493,0.432,0.845,0.503c0.289,0.058,0.568,0.159,0.858,0.221
			c0.394,0.085,0.792,0.166,1.183,0.178c1.247,0.035,2.495,0.004,3.74,0.022c0.231,0.003,0.411-0.139,0.642-0.125
			c0.164,0.01,0.301-0.223,0.332-0.394c0.066-0.37-0.156-0.616-0.371-0.847c-0.234-0.252-0.442-0.526-0.652-0.793
			c-0.309-0.392-0.617-0.791-0.913-1.194c-0.332-0.452-0.724-0.86-1.072-1.299c-0.48-0.604-0.92-1.245-1.427-1.827
			c-0.346-0.398-0.644-0.832-0.984-1.236c-0.412-0.488-0.808-0.993-1.196-1.504c-0.167-0.218-0.364-0.407-0.525-0.625
			c-0.338-0.461-0.682-0.916-1.046-1.356c-0.17-0.205-0.321-0.425-0.482-0.638c0.161-0.185,0.29-0.369,0.433-0.525
			c0.482-0.526,0.872-1.124,1.315-1.68c0.573-0.721,1.142-1.45,1.679-2.201c0.157-0.219,0.353-0.402,0.501-0.629
			c0.249-0.378,0.522-0.744,0.82-1.082c0.337-0.384,0.649-0.792,0.945-1.198c0.492-0.676,1.041-1.31,1.512-2.001
			c0.302-0.444,0.696-0.818,0.969-1.285c0.084-0.143,0.235-0.227,0.304-0.401c0.147-0.375,0.124-0.418-0.247-0.581
			c-0.152-0.067-0.286-0.092-0.436-0.092c-0.825-0.003-1.652-0.017-2.477,0.003c-0.828,0.021-1.66-0.083-2.488,0.087
			c-0.226,0.046-0.464,0.06-0.692,0.121c-0.503,0.133-0.981,0.371-1.313,0.749c-0.439,0.5-0.83,1.054-1.192,1.612
			c-0.517,0.793-1.102,1.536-1.62,2.327c-0.328,0.502-0.682,0.987-1.044,1.464C113.023,18.956,112.923,19.249,112.665,19.467z"/>
		<path fill-rule="evenodd" clip-rule="evenodd" fill="#01ADDB" d="M57.336,4.033c0.152,0.19,0.219,0.392,0.218,0.65
			c-0.012,3.249-0.007,6.498-0.007,9.748c0,0.174,0,0.348,0,0.57c0.392-0.302,0.754-0.581,1.117-0.86
			c0.694-0.533,1.444-0.966,2.273-1.253c0.2-0.069,0.4-0.152,0.601-0.2c0.385-0.095,0.781-0.16,1.171-0.239
			c0.779-0.159,1.554-0.048,2.331-0.086c0.252-0.012,0.498-0.015,0.751,0.091c0.209,0.087,0.482-0.074,0.689,0.117
			c0.715,0.052,1.384,0.28,2.047,0.529c0.501,0.189,0.998,0.379,1.465,0.668c0.476,0.294,0.929,0.626,1.409,0.914
			c0.088,0.053,0.152,0.143,0.227,0.218c0.36,0.359,0.741,0.702,1.075,1.085c0.363,0.413,0.695,0.852,0.977,1.331
			c0.191,0.325,0.364,0.654,0.526,0.993c0.319,0.666,0.575,1.345,0.743,2.066c0.125,0.534,0.227,1.069,0.325,1.608
			c0.154,0.85,0.025,1.696,0.088,2.541c0.035,0.449-0.117,0.877-0.132,1.325c-0.01,0.293-0.104,0.613-0.188,0.915
			c-0.083,0.297-0.175,0.593-0.272,0.887c-0.095,0.294-0.203,0.581-0.323,0.867c-0.581,1.403-0.797,1.658-1.565,2.728
			c-0.141,0.196-0.284,0.387-0.463,0.539c-0.188,0.16-0.247,0.406-0.44,0.56c-0.759,0.606-1.489,1.235-2.329,1.748
			c-0.907,0.554-1.908,0.831-2.867,1.231c-0.437,0.009-0.83,0.272-1.277,0.223c-0.31,0.187-0.673,0.031-0.992,0.15
			c-0.357,0.133-0.721,0.037-1.082,0.057c-0.349,0.019-0.703,0.004-1.054,0.004c-0.368,0-0.738,0-1.107,0c-0.349,0-0.699,0-1.069,0
			c0-2.074,0-4.136,0-6.2c0.239-0.084,0.418,0.177,0.646,0.087c0.135,0.152,0.322,0.129,0.482,0.099
			c0.237-0.046,0.426,0.124,0.642,0.107c0.232-0.017,0.46,0.04,0.704-0.082c0.182-0.091,0.449-0.035,0.676-0.014
			c0.245,0.025,0.454-0.107,0.685-0.141c0.196-0.03,0.424-0.095,0.601-0.191c0.578-0.312,1.221-0.52,1.688-1.018
			c0.151-0.16,0.356-0.25,0.519-0.406c0.763-0.728,1.316-1.601,1.761-2.541c0.28-0.593,0.539-1.205,0.534-1.885
			c0.189-0.375,0.106-0.779,0.097-1.168c-0.01-0.33-0.089-0.66-0.157-0.986c-0.107-0.516-0.325-1.001-0.606-1.432
			c-0.532-0.818-1.277-1.414-2.188-1.797c-0.156-0.065-0.363,0.065-0.469-0.138c-0.479-0.007-0.95-0.192-1.431-0.102
			c-0.692,0.13-1.367,0.299-2.022,0.586c-0.562,0.245-1.107,0.527-1.567,0.904c-0.411,0.337-0.886,0.614-1.187,1.106
			c-0.205,0.337-0.508,0.623-0.733,0.963c-0.382,0.575-0.679,1.191-0.904,1.839c-0.18,0.517-0.252,1.061-0.345,1.602
			c-0.095,0.555-0.072,1.1-0.076,1.647c-0.012,2.81-0.006,5.62-0.006,8.431c0,0.087,0.002,0.175-0.001,0.263
			c-0.007,0.301-0.17,0.465-0.477,0.466c-1.845,0.002-3.688,0.002-5.533,0.001c-0.335,0-0.493-0.144-0.521-0.473
			c-0.011-0.121-0.002-0.246-0.002-0.369c0-9.238,0-18.477,0-27.715c0-0.667,0.18-0.964,0.809-1.159
			c0.949-0.294,1.861-0.683,2.79-1.023c0.809-0.297,1.619-0.587,2.43-0.879c0.052-0.019,0.094-0.04,0.083-0.106
			C57.196,4.033,57.265,4.033,57.336,4.033z"/>
		<path fill-rule="evenodd" clip-rule="evenodd" fill="#01ADDB" d="M0,12.675c0.383-0.316,0.383-0.316,0.976-0.316
			c1.633,0,3.266,0,4.899,0.001c0.426,0.001,0.658,0.234,0.658,0.664c0.002,2.792,0.002,5.584,0.002,8.376c0,0.173,0,0.346,0,0.603
			c0.488-0.488,0.902-0.952,1.366-1.357c1.621-1.419,3.032-3.052,4.62-4.5c0.865-0.786,1.657-1.644,2.519-2.429
			c0.591-0.539,1.276-0.93,2.053-1.145c0.226-0.063,0.465-0.073,0.691-0.119c0.898-0.183,1.799-0.063,2.698-0.087
			c0.914-0.023,1.828,0.007,2.739-0.015c0.201-0.004,0.337,0.142,0.537,0.133c0.088-0.003,0.182,0.185,0.272,0.283
			c-0.06,0.247-0.235,0.409-0.404,0.576c-3.428,3.426-6.855,6.855-10.283,10.281c-0.511,0.51-0.531,0.448-0.02,0.958
			c3.405,3.401,6.806,6.805,10.208,10.209c0.142,0.141,0.309,0.251,0.298,0.513c-0.009,0.237-0.144,0.404-0.296,0.434
			c-0.177,0.037-0.332,0.137-0.532,0.134c-1.563-0.015-3.128,0.035-4.689-0.027c-0.78-0.031-1.568-0.206-2.267-0.615
			c-0.376-0.219-0.744-0.444-1.057-0.759c-1.497-1.508-3.003-3.007-4.505-4.51C9.84,29.313,9.2,28.662,8.546,28.023
			c-0.642-0.63-1.229-1.32-1.979-1.843c-0.078,0.117-0.03,0.261-0.03,0.394c-0.004,2.845-0.003,5.691-0.003,8.536
			c0,0.106,0.003,0.211-0.002,0.317c-0.01,0.259-0.184,0.434-0.455,0.434c-1.827,0.003-3.653-0.005-5.479,0.008
			C0.319,35.87,0.167,35.711,0,35.546C0,27.923,0,20.299,0,12.675z"/>
		<path fill-rule="evenodd" clip-rule="evenodd" fill="#01ADDB" d="M77.252,23.866c-0.066-0.452,0.109-0.954,0.136-1.468
			c0.021-0.416,0.115-0.852,0.221-1.269c0.106-0.41,0.244-0.811,0.385-1.209c0.239-0.661,0.538-1.287,0.897-1.897
			c0.285-0.485,0.566-0.982,0.926-1.397c0.479-0.552,0.912-1.147,1.528-1.592c0.474-0.343,0.918-0.732,1.407-1.065
			c0.747-0.511,1.562-0.878,2.406-1.187c0.291-0.106,0.589-0.186,0.881-0.288c0.275-0.096,0.573-0.12,0.857-0.223
			c0.228-0.083,0.508,0.028,0.739-0.125c0.501,0.057,0.989-0.079,1.484-0.102c0.532-0.025,1.059,0.087,1.587,0.128
			c0.532,0.04,1.081,0.16,1.593,0.333c0.506,0.17,1.014,0.345,1.517,0.531c0.809,0.301,1.506,0.786,2.231,1.225
			c0.259,0.156,0.499,0.361,0.704,0.583c0.212,0.231,0.496,0.364,0.709,0.589c0.652,0.691,1.276,1.411,1.779,2.215
			c0.519,0.829,0.924,1.717,1.207,2.66c0.181,0.601,0.315,1.209,0.436,1.825c0.06,0.306,0.083,0.604,0.084,0.907
			c0.001,0.342,0.133,0.661,0.125,1.011c-0.006,0.263-0.15,0.484-0.126,0.746c0.021,0.245,0.056,0.505-0.006,0.734
			c-0.126,0.463-0.159,0.943-0.305,1.4c-0.143,0.45-0.258,0.91-0.428,1.351c-0.319,0.823-0.731,1.605-1.235,2.331
			c-0.26,0.374-0.545,0.731-0.841,1.08c-0.256,0.302-0.5,0.617-0.798,0.874c-0.685,0.589-1.374,1.176-2.174,1.612
			c-0.273,0.148-0.531,0.318-0.818,0.443c-0.762,0.331-1.52,0.653-2.344,0.835c-0.658,0.144-1.303,0.313-1.98,0.298
			c-0.223-0.006-0.408,0.144-0.642,0.113c-0.335-0.045-0.671,0.011-1.014-0.097c-0.315-0.1-0.685,0.072-1.005-0.12
			c-0.298,0.076-0.571-0.066-0.849-0.117c-0.431-0.079-0.849-0.234-1.269-0.366c-0.67-0.21-1.295-0.521-1.91-0.857
			c-0.451-0.247-0.867-0.548-1.28-0.854c-0.466-0.345-0.92-0.7-1.329-1.117c-0.653-0.664-1.183-1.417-1.698-2.192
			c-0.546-0.825-0.902-1.734-1.23-2.653c-0.091-0.256-0.188-0.534-0.219-0.798c-0.032-0.268-0.09-0.539-0.147-0.792
			c-0.078-0.343-0.019-0.69-0.099-1.012C77.265,24.57,77.264,24.255,77.252,23.866z M89.171,18.367
			c-0.123,0-0.246,0.006-0.369-0.001c-0.824-0.045-1.571,0.215-2.281,0.594c-0.476,0.253-0.904,0.574-1.291,0.959
			c-0.425,0.421-0.784,0.883-1.073,1.401c-0.445,0.796-0.568,1.677-0.684,2.56c-0.033,0.244,0.1,0.466,0.097,0.695
			c-0.004,0.395,0.123,0.754,0.221,1.122c0.18,0.679,0.537,1.277,0.981,1.801c0.42,0.492,0.891,0.941,1.463,1.281
			c0.706,0.421,1.443,0.705,2.266,0.76c0.133,0.009,0.253-0.007,0.392,0.073c0.152,0.087,0.392,0.089,0.548-0.003
			c0.122-0.071,0.227-0.071,0.342-0.069c0.646,0.006,1.234-0.215,1.803-0.48c0.943-0.438,1.703-1.115,2.277-1.968
			c0.56-0.832,0.916-1.756,0.888-2.788c-0.015-0.549,0.03-1.096-0.094-1.644c-0.104-0.47-0.266-0.918-0.493-1.323
			c-0.157-0.283-0.334-0.573-0.553-0.835c-0.163-0.194-0.336-0.385-0.514-0.565c-0.19-0.192-0.367-0.39-0.613-0.54
			c-0.407-0.247-0.79-0.525-1.241-0.697c-0.483-0.183-0.964-0.36-1.493-0.337C89.557,18.374,89.364,18.367,89.171,18.367z"/>
		<path fill-rule="evenodd" clip-rule="evenodd" fill="#01ADDB" d="M32.04,26.373c0,1.727,0,3.411,0,5.097
			c0,1.193,0.001,2.388-0.001,3.582c0,0.168,0.001,0.326-0.097,0.488c-0.126,0.209-0.254,0.328-0.519,0.327
			c-1.81-0.011-3.619-0.004-5.426-0.007c-0.34,0-0.484-0.156-0.49-0.507c-0.001-0.069,0-0.139,0-0.21c0-7.358,0-14.718,0-22.076
			c0-0.071-0.001-0.141,0-0.211c0.005-0.304,0.138-0.453,0.446-0.497c0.068-0.01,0.141-0.001,0.211-0.001
			c1.703,0,3.407,0.001,5.11-0.002c0.327-0.001,0.583,0.081,0.72,0.419c0.064,0.157,0.045,0.304,0.045,0.455
			c0.004,2.653,0.003,5.304,0.003,7.956c0,0.173,0,0.347,0,0.605c0.151-0.151,0.253-0.253,0.355-0.354
			c0.522-0.522,1.016-1.075,1.569-1.559c1.608-1.408,3.011-3.024,4.583-4.464c0.653-0.599,1.259-1.249,1.926-1.832
			c0.469-0.411,1.004-0.743,1.623-0.909c0.353-0.095,0.689-0.271,1.072-0.21c0.465-0.202,0.955-0.094,1.432-0.1
			c1.23-0.015,2.458-0.005,3.688-0.005c0.087,0,0.176-0.002,0.264,0.001c0.16,0.004,0.543,0.131,0.603,0.197
			c0.135,0.152,0.038,0.33,0.065,0.488c-3.559,3.559-7.11,7.113-10.665,10.66c-0.403,0.402-0.402,0.41,0,0.811
			c3.43,3.424,6.857,6.853,10.285,10.282c0.143,0.143,0.302,0.262,0.285,0.518c-0.014,0.23-0.143,0.392-0.306,0.423
			c-0.177,0.036-0.333,0.135-0.532,0.133c-1.564-0.015-3.126,0.022-4.689-0.027c-0.498-0.015-1.014-0.105-1.506-0.287
			c-0.478-0.177-0.923-0.407-1.362-0.654c-0.103-0.06-0.176-0.171-0.263-0.257c-0.857-0.857-1.712-1.715-2.571-2.571
			C35.976,30.159,34.082,28.22,32.04,26.373z"/>
		<path fill-rule="evenodd" clip-rule="evenodd" fill="#01ADDB" d="M112.665,19.467c0.258-0.218,0.358-0.511,0.535-0.744
			c0.361-0.477,0.715-0.963,1.044-1.464c0.518-0.791,1.103-1.534,1.62-2.327c0.362-0.558,0.752-1.112,1.192-1.612
			c0.333-0.378,0.81-0.616,1.313-0.749c0.227-0.061,0.466-0.075,0.692-0.121c0.828-0.17,1.66-0.066,2.488-0.087
			c0.825-0.02,1.652-0.006,2.477-0.003c0.151,0,0.285,0.025,0.436,0.092c0.371,0.163,0.394,0.206,0.247,0.581
			c-0.069,0.174-0.22,0.258-0.304,0.401c-0.273,0.467-0.668,0.842-0.969,1.285c-0.47,0.692-1.02,1.326-1.512,2.001
			c-0.296,0.406-0.608,0.814-0.945,1.198c-0.298,0.338-0.572,0.704-0.82,1.082c-0.149,0.227-0.345,0.41-0.501,0.629
			c-0.537,0.751-1.106,1.48-1.679,2.201c-0.442,0.556-0.832,1.153-1.315,1.68c-0.143,0.156-0.272,0.34-0.433,0.525
			c0.161,0.213,0.311,0.433,0.482,0.638c0.364,0.44,0.708,0.896,1.046,1.356c0.161,0.218,0.358,0.407,0.525,0.625
			c0.388,0.51,0.784,1.016,1.196,1.504c0.34,0.404,0.638,0.837,0.984,1.236c0.507,0.583,0.947,1.223,1.427,1.827
			c0.348,0.439,0.74,0.847,1.072,1.299c0.296,0.402,0.604,0.801,0.913,1.194c0.209,0.267,0.418,0.541,0.652,0.793
			c0.215,0.231,0.437,0.476,0.371,0.847c-0.031,0.172-0.167,0.404-0.332,0.394c-0.231-0.015-0.411,0.128-0.642,0.125
			c-1.246-0.017-2.493,0.013-3.74-0.022c-0.391-0.012-0.789-0.093-1.183-0.178c-0.291-0.062-0.569-0.163-0.858-0.221
			c-0.351-0.071-0.591-0.3-0.845-0.503c-0.305-0.244-0.528-0.564-0.739-0.9c-0.282-0.452-0.626-0.867-0.943-1.297
			c-0.355-0.483-0.705-0.971-1.057-1.456c-0.215-0.299-0.448-0.584-0.663-0.884c-0.371-0.519-0.788-1.006-1.202-1.524
			c-0.19,0.091-0.324,0.25-0.446,0.412c-0.26,0.345-0.506,0.703-0.762,1.054c-0.412,0.567-0.83,1.13-1.241,1.699
			c-0.322,0.444-0.639,0.894-0.956,1.343c-0.278,0.394-0.546,0.795-0.827,1.188c-0.425,0.591-0.982,0.91-1.674,1.087
			c-0.274,0.069-0.568,0.004-0.794,0.108c-0.263,0.122-0.508,0.079-0.756,0.081c-1.177,0.012-2.354,0.006-3.53,0.006
			c-0.175,0-0.355-0.02-0.526,0.006c-0.184,0.027-0.296-0.183-0.485-0.113c-0.101,0.037-0.168-0.048-0.21-0.118
			c-0.103-0.164-0.153-0.315-0.056-0.533c0.126-0.283,0.341-0.496,0.518-0.728c0.48-0.628,0.958-1.259,1.455-1.872
			c0.33-0.408,0.658-0.824,0.978-1.239c0.397-0.514,0.813-1.018,1.188-1.553c0.258-0.369,0.557-0.722,0.841-1.078
			c0.472-0.592,0.922-1.2,1.391-1.789c0.315-0.398,0.616-0.811,0.948-1.197c0.372-0.431,0.704-0.899,1.047-1.355
			c0.126-0.168,0.1-0.332-0.032-0.503c-0.501-0.656-1.019-1.3-1.541-1.937c-0.484-0.59-0.923-1.215-1.431-1.788
			c-0.446-0.505-0.857-1.046-1.268-1.581c-0.526-0.682-1.054-1.36-1.603-2.022c-0.388-0.465-0.739-0.961-1.119-1.434
			c-0.436-0.54-0.857-1.09-1.3-1.623c-0.146-0.175-0.331-0.379-0.28-0.676c0.019-0.123,0.103-0.246,0.155-0.24
			c0.199,0.019,0.333-0.139,0.533-0.137c1.546,0.014,3.091-0.015,4.636,0.021c0.522,0.014,1.06,0.109,1.553,0.311
			c0.34,0.139,0.66,0.366,0.883,0.649c0.447,0.565,0.892,1.134,1.31,1.72c0.659,0.925,1.359,1.821,2.029,2.738
			c0.366,0.5,0.717,1.021,1.142,1.481C112.522,19.331,112.583,19.388,112.665,19.467z"/>
		<path fill-rule="evenodd" clip-rule="evenodd" fill="none" d="M89.171,18.367c0.193,0,0.386,0.007,0.579-0.002
			c0.529-0.023,1.01,0.154,1.493,0.337c0.451,0.172,0.834,0.45,1.241,0.697c0.245,0.149,0.423,0.348,0.613,0.54
			c0.179,0.179,0.351,0.371,0.514,0.565c0.219,0.262,0.395,0.552,0.553,0.835c0.227,0.405,0.389,0.853,0.493,1.323
			c0.123,0.548,0.078,1.095,0.094,1.644c0.028,1.031-0.328,1.956-0.888,2.788c-0.574,0.853-1.333,1.531-2.277,1.968
			c-0.569,0.265-1.157,0.485-1.803,0.48c-0.115-0.001-0.219-0.002-0.342,0.069c-0.157,0.092-0.396,0.09-0.548,0.003
			c-0.139-0.08-0.26-0.064-0.392-0.073c-0.823-0.055-1.561-0.339-2.266-0.76c-0.572-0.34-1.043-0.789-1.463-1.281
			c-0.444-0.524-0.801-1.122-0.981-1.801c-0.099-0.368-0.226-0.728-0.221-1.122c0.003-0.229-0.13-0.451-0.097-0.695
			c0.117-0.883,0.239-1.765,0.684-2.56c0.289-0.519,0.648-0.981,1.073-1.401c0.387-0.384,0.815-0.705,1.291-0.959
			c0.711-0.379,1.458-0.639,2.281-0.594C88.925,18.372,89.048,18.367,89.171,18.367z"/>
	</g>
</g>
</svg>
