<?xml version="1.0" encoding="utf-8"?>
<!-- Generator: Adobe Illustrator 20.1.0, SVG Export Plug-In . SVG Version: 6.00 Build 0)  -->
<svg version="1.1" id="logos" xmlns="http://www.w3.org/2000/svg" xmlns:xlink="http://www.w3.org/1999/xlink" x="0px" y="0px"
	 viewBox="0 0 125 40" enable-background="new 0 0 125 40" xml:space="preserve">
<g>
	<path d="M3.419,2.421c0.246,0.107,0.46,0.251,0.642,0.432c0.182,0.181,0.326,0.395,0.433,0.64C4.601,3.738,4.655,4,4.655,4.277
		v1.28c0,0.15-0.07,0.246-0.209,0.288L2.985,6.07c-0.139,0.043-0.209-0.01-0.209-0.16V4.357c0-0.106-0.038-0.197-0.112-0.272
		C2.589,4.011,2.498,3.973,2.392,3.973H2.263c-0.107,0-0.198,0.038-0.273,0.112C1.915,4.16,1.878,4.251,1.878,4.357v7.234
		c0,0.107,0.037,0.198,0.112,0.272c0.075,0.075,0.166,0.112,0.273,0.112h0.128c0.107,0,0.198-0.037,0.273-0.112
		c0.075-0.075,0.112-0.165,0.112-0.272V9.35c0-0.149,0.07-0.203,0.209-0.16l1.461,0.192c0.139,0.043,0.209,0.139,0.209,0.288v2.001
		c0,0.278-0.053,0.539-0.161,0.784c-0.107,0.246-0.251,0.459-0.433,0.64c-0.182,0.182-0.396,0.326-0.642,0.432
		c-0.246,0.106-0.509,0.16-0.786,0.16h-0.61c-0.278,0-0.54-0.053-0.786-0.16c-0.247-0.107-0.459-0.25-0.642-0.432
		c-0.182-0.181-0.326-0.394-0.433-0.64C0.054,12.21,0,11.949,0,11.671V4.277C0,4,0.054,3.738,0.161,3.493
		c0.107-0.245,0.251-0.458,0.433-0.64C0.776,2.672,0.99,2.528,1.236,2.421c0.246-0.106,0.508-0.16,0.786-0.16h0.61
		C2.91,2.261,3.173,2.314,3.419,2.421L3.419,2.421z"/>
	<path d="M10.031,2.597v10.755c0,0.15-0.075,0.224-0.225,0.224H8.378c-0.15,0-0.225-0.074-0.225-0.224V8.774H7.094v4.577
		c0,0.15-0.075,0.224-0.225,0.224H5.441c-0.15,0-0.225-0.074-0.225-0.224V2.597c0-0.149,0.075-0.224,0.225-0.224h1.428
		c0.15,0,0.225,0.075,0.225,0.224v4.305h1.059V2.597c0-0.149,0.075-0.224,0.225-0.224h1.428C9.957,2.373,10.031,2.447,10.031,2.597
		L10.031,2.597z"/>
	<path d="M15.489,13.351c0.021,0.15-0.043,0.224-0.193,0.224h-1.461c-0.139,0-0.219-0.074-0.241-0.224l-0.128-1.728h-0.995
		l-0.128,1.728c-0.021,0.15-0.102,0.224-0.241,0.224h-1.46c-0.15,0-0.214-0.074-0.193-0.224l1.204-10.755
		c0.021-0.149,0.107-0.224,0.257-0.224h2.119c0.15,0,0.235,0.075,0.257,0.224L15.489,13.351L15.489,13.351z M13.338,9.83
		l-0.305-4.337h-0.128L12.599,9.83H13.338L13.338,9.83z"/>
	<path d="M18.538,2.373c0.278,0,0.54,0.054,0.786,0.16c0.246,0.107,0.46,0.251,0.642,0.432c0.182,0.181,0.326,0.395,0.433,0.64
		c0.107,0.246,0.161,0.507,0.161,0.784v2.609c0,0.277-0.054,0.539-0.161,0.784c-0.107,0.246-0.252,0.459-0.433,0.64
		c-0.182,0.182-0.396,0.326-0.642,0.432c-0.246,0.107-0.508,0.16-0.786,0.16h-0.754v4.337c0,0.15-0.075,0.224-0.225,0.224H16.13
		c-0.15,0-0.225-0.074-0.225-0.224V2.597c0-0.149,0.075-0.224,0.225-0.224H18.538L18.538,2.373z M18.682,4.469
		c0-0.106-0.038-0.197-0.112-0.272c-0.075-0.075-0.166-0.112-0.273-0.112h-0.513v3.217h0.513c0.107,0,0.198-0.037,0.273-0.112
		c0.075-0.075,0.112-0.165,0.112-0.272V4.469L18.682,4.469z"/>
	<path d="M25.1,2.597v1.424c0,0.15-0.075,0.224-0.225,0.224h-1.14v9.106c0,0.15-0.075,0.224-0.225,0.224h-1.429
		c-0.054,0-0.104-0.021-0.152-0.064c-0.048-0.042-0.072-0.096-0.072-0.16V4.245h-0.758c-0.15,0-0.225-0.075-0.225-0.224V2.597
		c0-0.149,0.075-0.224,0.225-0.224h3.776C25.025,2.373,25.1,2.447,25.1,2.597L25.1,2.597z"/>
	<path d="M29.579,11.927v1.425c0,0.15-0.075,0.224-0.224,0.224h-3.483c-0.15,0-0.225-0.074-0.225-0.224V2.597
		c0-0.149,0.075-0.224,0.225-0.224h3.483c0.149,0,0.224,0.075,0.224,0.224v1.424c0,0.15-0.075,0.224-0.224,0.224h-1.83V6.55h1.589
		c0.15,0,0.225,0.075,0.225,0.224v1.424c0,0.15-0.075,0.224-0.225,0.224h-1.589v3.281h1.83
		C29.504,11.703,29.579,11.778,29.579,11.927L29.579,11.927z"/>
	<path d="M35.086,13.351c0.032,0.15-0.022,0.224-0.161,0.224h-1.46c-0.064,0-0.126-0.021-0.185-0.064
		c-0.059-0.042-0.099-0.096-0.121-0.16L31.988,9.43v3.985c-0.032,0.107-0.107,0.16-0.225,0.16h-1.428
		c-0.15,0-0.225-0.074-0.225-0.224V2.597c0-0.149,0.075-0.224,0.225-0.224h2.407c0.278,0,0.54,0.054,0.787,0.16
		c0.246,0.107,0.46,0.251,0.642,0.432c0.181,0.181,0.326,0.395,0.433,0.64c0.107,0.246,0.161,0.507,0.161,0.784v2.609
		c0,0.395-0.102,0.749-0.305,1.064c-0.203,0.315-0.471,0.557-0.803,0.728L35.086,13.351L35.086,13.351z M31.988,7.302h0.513
		c0.107,0,0.198-0.037,0.273-0.112c0.074-0.075,0.112-0.165,0.112-0.272V4.469c0-0.106-0.038-0.197-0.112-0.272
		c-0.075-0.075-0.166-0.112-0.273-0.112h-0.513V7.302L31.988,7.302z"/>
	<path d="M10.824,33.083c0,0.641-0.124,1.245-0.372,1.811c-0.248,0.567-0.583,1.06-1.005,1.478
		c-0.422,0.419-0.918,0.752-1.489,0.998c-0.571,0.246-1.178,0.37-1.823,0.37H4.721c-0.646,0-1.253-0.124-1.823-0.37
		c-0.571-0.246-1.067-0.579-1.489-0.998c-0.422-0.418-0.757-0.911-1.005-1.478c-0.248-0.566-0.372-1.17-0.372-1.811V19.704
		c0-0.64,0.124-1.244,0.372-1.811c0.248-0.567,0.583-1.059,1.005-1.478c0.422-0.418,0.918-0.752,1.489-0.998
		c0.57-0.246,1.177-0.37,1.823-0.37h1.414c0.645,0,1.252,0.124,1.823,0.37c0.571,0.246,1.066,0.579,1.489,0.998
		c0.421,0.419,0.756,0.912,1.005,1.478c0.248,0.567,0.372,1.171,0.372,1.811V33.083L10.824,33.083z M6.47,19.888
		c0-0.246-0.087-0.456-0.26-0.628c-0.174-0.172-0.385-0.259-0.633-0.259H5.28c-0.248,0-0.459,0.086-0.632,0.259
		c-0.174,0.172-0.26,0.382-0.26,0.628v13.01c0,0.247,0.086,0.456,0.26,0.628c0.173,0.173,0.384,0.259,0.632,0.259h0.298
		c0.248,0,0.459-0.086,0.633-0.259c0.173-0.172,0.26-0.381,0.26-0.628V19.888L6.47,19.888z"/>
	<path d="M24.219,15.823v21.14c0,0.345-0.174,0.517-0.521,0.517h-2.381c-0.149,0-0.292-0.049-0.428-0.148
		c-0.137-0.098-0.23-0.209-0.279-0.333l-3.944-9.646v9.609c0,0.345-0.174,0.517-0.521,0.517h-3.312
		c-0.347,0-0.521-0.172-0.521-0.517v-21.14c0-0.345,0.173-0.517,0.521-0.517h2.456c0.149,0,0.291,0.05,0.428,0.148
		c0.136,0.099,0.229,0.209,0.279,0.333l3.869,10.755V15.823c0-0.345,0.173-0.517,0.521-0.517h3.311
		C24.045,15.306,24.219,15.479,24.219,15.823L24.219,15.823z"/>
	<path d="M35.195,33.674v3.289c0,0.345-0.174,0.517-0.521,0.517h-8.075c-0.347,0-0.521-0.172-0.521-0.517v-21.14
		c0-0.345,0.173-0.517,0.521-0.517h8.075c0.347,0,0.521,0.173,0.521,0.517v3.289c0,0.346-0.174,0.517-0.521,0.517h-4.242v4.213
		h3.683c0.347,0,0.521,0.173,0.521,0.517v3.289c0,0.346-0.174,0.517-0.521,0.517h-3.683v4.99h4.242
		C35.021,33.157,35.195,33.329,35.195,33.674L35.195,33.674z"/>
</g>
<rect x="0" y="0" fill="none" width="125" height="40"/>
</svg>
