<?xml version="1.0" encoding="utf-8"?>
<!-- Generator: Adobe Illustrator 20.0.0, SVG Export Plug-In . SVG Version: 6.00 Build 0)  -->
<svg version="1.1" xmlns="http://www.w3.org/2000/svg" xmlns:xlink="http://www.w3.org/1999/xlink" x="0px" y="0px"
	 viewBox="0 0 125 40" enable-background="new 0 0 125 40" xml:space="preserve">
<g id="bg" display="none">
	<rect display="inline" fill="#FFFFFF" width="125" height="40"/>
</g>
<g id="icons">
	<g>
		<path fill="#043566" d="M13.409,8.825c0.636,0.311,0.843,0.816,0.832,1.519c-0.033,2.247,0.007,4.495-0.026,6.741
			c-0.008,0.549,0.172,0.663,0.676,0.649c1.218-0.033,2.438,0,3.656-0.016c0.529-0.007,0.932,0.155,1.151,0.66
			c0.229,0.528,0.061,0.939-0.334,1.331c-2.515,2.494-5.017,5.002-7.526,7.502c-0.664,0.661-1.205,0.658-1.867-0.001
			c-2.497-2.485-4.989-4.976-7.491-7.456c-0.398-0.395-0.635-0.803-0.384-1.369C2.33,17.855,2.754,17.71,3.3,17.718
			c1.257,0.018,2.514-0.01,3.77,0.015c0.406,0.008,0.51-0.119,0.507-0.515c-0.018-2.285,0.012-4.571-0.021-6.856
			c-0.01-0.704,0.188-1.217,0.822-1.538C10.055,8.825,11.732,8.825,13.409,8.825z M0.026,30.49c-0.102,0.533,0.087,0.649,0.63,0.647
			c6.616-0.024,13.232-0.016,19.848-0.016c0.379,0,0.91,0.146,1.096-0.044c0.19-0.194,0.042-0.719,0.042-1.099
			c-0.277-0.451-0.678-0.582-1.204-0.581c-6.401,0.014-12.802,0.014-19.203,0c-0.525-0.001-0.926,0.13-1.204,0.581
			C0.031,30.149,0.058,30.325,0.026,30.49z"/>
		<path fill="#043566" d="M27.678,11.391h6.04v2.196h-3.719v5.117h3.37v2.146h-3.345v8.187h-2.346V11.391z M34.258,11.416h3.794
			c2.845,0,3.17,0.774,3.17,4.268c0,3.095-0.075,4.368-1.972,4.343v0.1c1.672,0.2,1.897,1.148,1.897,3.495v1.922
			c0,2.121,0.05,2.447,0.45,3.495h-2.421c-0.2-1.024-0.375-1.897-0.375-3.695v-1.248c0-0.674-0.025-2.071-0.3-2.645
			c-0.274-0.525-0.549-0.525-1.922-0.525v8.112h-2.321V11.416z M36.605,13.537v5.442h1.098c1.173,0,1.223-0.525,1.223-3.445
			c0-1.947-0.125-1.997-1.123-1.997H36.605z M42.283,11.416h5.815v2.221h-3.444v5.142h3.095v2.171h-3.095v5.866h3.469v2.221h-5.84
			V11.416z M48.762,11.416h5.815v2.221h-3.444v5.142h3.095v2.171h-3.095v5.866h3.469v2.221h-5.84V11.416z M59.168,11.416h4.268
			c2.496,0,2.696,1.423,2.696,2.845v11.732c0,2.321-0.6,3.045-2.496,3.045h-4.468V11.416z M61.489,13.562v13.304h1.548
			c0.674,0,0.749-0.4,0.749-0.974V14.786c0-0.674-0.025-1.223-0.949-1.223H61.489z M67.003,16.183c0-1.597,0.074-2.745,0.874-3.669
			c0.724-0.824,1.797-1.223,2.895-1.223c0.974,0,1.922,0.225,2.645,0.999c0.974,1.024,0.974,2.246,0.974,4.418v8.362
			c0,1.298-0.05,4.143-3.843,4.143c-0.475,0-2.271,0-3.121-1.722c-0.424-0.799-0.424-1.647-0.424-2.496V16.183z M72.095,16.008
			c0-1.523,0-2.695-1.348-2.695c-0.175,0-0.999,0-1.299,0.849c-0.124,0.349-0.124,0.724-0.124,1.822v9.46
			c0,0.874,0.074,1.847,1.348,1.847c1.373,0,1.423-1.148,1.423-2.396V16.008z M81.478,11.416l1.173,10.808
			c0.174,1.548,0.174,2.171,0.2,3.295h0.174c0-1.872,0.05-2.496,0.175-3.969l0.848-10.134h2.321l-2.047,17.622h-2.695l-0.974-9.585
			c-0.1-0.999-0.1-1.972-0.1-3.07H80.33c0,0.949,0,2.246-0.05,2.795l-0.948,9.86h-2.647l-1.972-17.622h2.271l0.898,11.058
			c0.126,1.323,0.126,1.972,0.15,3.069h0.15c0-1.597,0.026-2.371,0.126-3.319l1.072-10.808H81.478z M89.393,11.416l2.621,11.282
			c0.15,0.674,0.25,1.173,0.374,1.747h0.15c-0.1-0.824-0.2-1.647-0.25-2.496l-0.099-1.648l-0.1-8.886h2.171v17.622H91.69
			l-2.895-13.204h-0.15l0.124,1.523l0.1,1.523l0.2,10.159h-2.171V11.416H89.393z M97.601,11.391v15.5h3.843v2.147h-6.19V11.391
			H97.601z M101.836,16.183c0-1.597,0.074-2.745,0.874-3.669c0.724-0.824,1.797-1.223,2.895-1.223c0.974,0,1.922,0.225,2.645,0.999
			c0.974,1.024,0.974,2.246,0.974,4.418v8.362c0,1.298-0.05,4.143-3.843,4.143c-0.475,0-2.271,0-3.121-1.722
			c-0.424-0.799-0.424-1.647-0.424-2.496V16.183z M106.928,16.008c0-1.523,0-2.695-1.348-2.695c-0.175,0-0.999,0-1.299,0.849
			c-0.124,0.349-0.124,0.724-0.124,1.822v9.46c0,0.874,0.074,1.847,1.348,1.847c1.373,0,1.423-1.148,1.423-2.396V16.008z
			 M114.839,11.416l2.721,17.622h-2.271l-0.45-3.245h-2.645l-0.4,3.245h-2.247l2.471-17.622H114.839z M113.317,14.736
			c-0.076,2.296-0.076,2.546-0.126,2.845l-0.748,6.066h2.096l-0.874-6.116c-0.1-0.674-0.124-1.348-0.15-2.795H113.317z
			 M118.036,11.416h4.268c2.496,0,2.695,1.423,2.695,2.845v11.732c0,2.321-0.6,3.045-2.496,3.045h-4.468V11.416z M120.357,13.562
			v13.304h1.548c0.674,0,0.748-0.4,0.748-0.974V14.786c0-0.674-0.024-1.223-0.948-1.223H120.357z"/>
	</g>
</g>
</svg>
