<?xml version="1.0" encoding="utf-8"?>
<!-- Generator: Adobe Illustrator 21.1.0, SVG Export Plug-In . SVG Version: 6.00 Build 0)  -->
<svg version="1.1" xmlns="http://www.w3.org/2000/svg" xmlns:xlink="http://www.w3.org/1999/xlink" x="0px" y="0px"
	 viewBox="0 0 125 40" enable-background="new 0 0 125 40" xml:space="preserve">
<g id="bg" display="none">
	<rect display="inline" fill="#FFFFFF" width="125" height="40"/>
</g>
<g id="icons">
	<g>
		<path fill-rule="evenodd" clip-rule="evenodd" d="M47.104,27.23h-3.235v-1.599h-0.05c-0.802,1.235-1.872,1.854-3.214,1.854
			c-2.44,0-3.656-1.473-3.656-4.414v-6.333h3.236v6.047c0,1.48,0.589,2.221,1.767,2.221c0.581,0,1.044-0.203,1.395-0.609
			c0.35-0.406,0.522-0.958,0.522-1.654v-6.005h3.235V27.23L47.104,27.23L47.104,27.23z M35.792,27.23h-3.071v-1.508h-0.042
			c-0.704,1.175-1.749,1.763-3.131,1.763c-1.024,0-1.826-0.287-2.412-0.864c-0.585-0.577-0.875-1.35-0.875-2.312
			c0-2.035,1.209-3.211,3.625-3.526l2.857-0.378c0-1.147-0.625-1.721-1.872-1.721c-1.251,0-2.444,0.372-3.572,1.117v-2.438
			c0.452-0.234,1.07-0.437,1.854-0.616c0.782-0.178,1.498-0.265,2.142-0.265c2.997,0,4.498,1.493,4.498,4.477V27.23L35.792,27.23z
			 M32.742,22.967V22.26l-1.912,0.245c-1.054,0.137-1.581,0.612-1.581,1.427c0,0.368,0.126,0.671,0.383,0.906
			c0.26,0.234,0.607,0.353,1.044,0.353c0.61,0,1.104-0.21,1.49-0.63C32.549,24.141,32.742,23.61,32.742,22.967L32.742,22.967
			L32.742,22.967z M58.879,27.23h-3.246v-1.445h-0.038c-0.739,1.133-1.826,1.7-3.257,1.7c-1.315,0-2.373-0.462-3.172-1.388
			c-0.802-0.924-1.203-2.218-1.203-3.879c0-1.736,0.442-3.123,1.326-4.17c0.884-1.046,2.04-1.567,3.471-1.567
			c1.356,0,2.299,0.483,2.835,1.454h0.038v-6.239h3.246V27.23L58.879,27.23z M55.697,22.127v-0.791c0-0.681-0.2-1.248-0.596-1.7
			c-0.397-0.451-0.915-0.675-1.55-0.675c-0.718,0-1.283,0.279-1.686,0.843c-0.403,0.566-0.606,1.34-0.606,2.322
			c0,0.924,0.196,1.633,0.586,2.129c0.392,0.501,0.932,0.75,1.622,0.75c0.66,0,1.196-0.263,1.61-0.788
			C55.49,23.691,55.697,22.995,55.697,22.127L55.697,22.127L55.697,22.127z M61.937,15.077c-0.547,0-0.996-0.162-1.345-0.486
			c-0.351-0.325-0.523-0.721-0.523-1.193c0-0.488,0.172-0.882,0.523-1.19c0.35-0.308,0.799-0.462,1.345-0.462
			c0.554,0,1.007,0.154,1.35,0.462c0.348,0.308,0.519,0.702,0.519,1.19c0,0.492-0.171,0.894-0.519,1.209
			C62.943,14.919,62.491,15.077,61.937,15.077L61.937,15.077L61.937,15.077z M63.507,23.674c0,0.444,0.105,0.784,0.319,1.011
			c0.214,0.227,0.498,0.343,0.852,0.343c0.179,0,0.358-0.017,0.533-0.052c0.178-0.032,0.357-0.068,0.536-0.102v2.278
			c-0.392,0.1-0.803,0.185-1.238,0.248c-0.434,0.066-0.891,0.098-1.36,0.098c-0.431,0-0.824-0.07-1.178-0.213
			c-0.35-0.143-0.652-0.35-0.906-0.623c-0.247-0.269-0.441-0.595-0.577-0.976c-0.137-0.384-0.207-0.815-0.207-1.294v-7.653h3.225
			V23.674L63.507,23.674z M70.876,27.485c-1.753,0-3.131-0.49-4.133-1.468c-1.003-0.979-1.503-2.313-1.503-3.991
			c0-1.734,0.518-3.095,1.559-4.074c1.042-0.979,2.447-1.469,4.221-1.469c1.746,0,3.117,0.49,4.109,1.469s1.489,2.276,1.489,3.89
			c0,1.741-0.511,3.119-1.536,4.13C74.059,26.982,72.657,27.485,70.876,27.485L70.876,27.485L70.876,27.485z M70.961,18.962
			c1.567,0,2.351,0.979,2.351,2.942c0,2.066-0.778,3.103-2.331,3.103c-1.63,0-2.447-1.008-2.447-3.022
			c0-0.961,0.215-1.707,0.639-2.235C69.597,19.224,70.192,18.962,70.961,18.962L70.961,18.962L70.961,18.962z M94.175,27.23h-3.236
			v-5.985c0-1.521-0.561-2.283-1.683-2.283c-0.533,0-0.968,0.227-1.304,0.685c-0.337,0.458-0.505,1.028-0.505,1.71v5.873h-3.242
			v-6.048c0-1.48-0.554-2.221-1.655-2.221c-0.554,0-0.999,0.217-1.329,0.653c-0.333,0.437-0.501,1.032-0.501,1.785v5.83h-3.243
			V16.738h3.243v1.64h0.042c0.337-0.559,0.806-1.018,1.412-1.367c0.607-0.353,1.269-0.528,1.988-0.528
			c1.486,0,2.502,0.651,3.05,1.955c0.803-1.305,1.977-1.955,3.533-1.955c2.286,0,3.429,1.406,3.429,4.221V27.23L94.175,27.23z
			 M104.246,27.23h-3.071v-1.508h-0.042c-0.705,1.175-1.75,1.763-3.131,1.763c-1.024,0-1.826-0.287-2.411-0.864
			c-0.586-0.577-0.877-1.35-0.877-2.312c0-2.035,1.21-3.211,3.626-3.526l2.857-0.378c0-1.147-0.625-1.721-1.872-1.721
			c-1.252,0-2.444,0.372-3.572,1.117v-2.438c0.452-0.234,1.069-0.437,1.854-0.616c0.781-0.178,1.497-0.265,2.141-0.265
			c2.998,0,4.498,1.493,4.498,4.477V27.23L104.246,27.23z M101.197,22.967c0,0.644-0.193,1.174-0.575,1.594
			c-0.385,0.42-0.88,0.63-1.49,0.63c-0.438,0-0.785-0.119-1.044-0.353c-0.256-0.234-0.383-0.538-0.383-0.906
			c0-0.815,0.526-1.29,1.581-1.427l1.911-0.245V22.967L101.197,22.967z M113.536,26.852c-0.731,0.424-1.791,0.633-3.172,0.633
			c-1.616,0-2.923-0.486-3.923-1.465c-0.998-0.977-1.5-2.235-1.5-3.782c0-1.784,0.536-3.186,1.606-4.214
			c1.072-1.028,2.506-1.542,4.301-1.542c1.237,0,2.135,0.164,2.688,0.49v2.749c-0.676-0.507-1.433-0.759-2.267-0.759
			c-0.933,0-1.669,0.27-2.216,0.815c-0.543,0.542-0.816,1.29-0.816,2.249c0,0.926,0.263,1.658,0.782,2.186
			c0.518,0.532,1.236,0.795,2.145,0.795c0.81,0,1.599-0.253,2.372-0.759V26.852L113.536,26.852z M125,27.233h-3.892l-3.357-5.194
			h-0.042v5.194h-3.241v-15.5h3.241V21.6h0.042l3.133-4.837h3.847l-3.767,4.917L125,27.233L125,27.233z"/>
		<path fill-rule="evenodd" clip-rule="evenodd" fill="#FFA100" d="M0.278,20.856c0,0,0.455-0.075,0.642,0.121
			c0.187,0.196,0.065,0.6-0.184,0.607c-0.249,0.007-0.479,0.053-0.642-0.121C-0.07,21.29-0.026,20.942,0.278,20.856 M5.213,23.619
			c-0.044,0.005-0.09-0.015-0.138-0.049c-0.326-0.454-0.444-2.007-0.593-2.1c-0.155-0.096-0.717,0.86-1.834,0.758
			c-0.467-0.043-0.943-0.346-1.223-0.555c0.026-0.353,0.031-1.177,0.727-0.909c0.423,0.163,1.147,0.61,1.783-0.193
			c0.703-0.888,1.091-0.63,1.323-0.437c0.232,0.193,0.078,1.196,0.424,0.916s1.747-2.022,1.747-2.022s1.084-1.093,1.25,0.056
			c0.166,1.149,0.873,2.423,1.06,2.387c0.187-0.036,2.368-4.468,2.681-4.754c0.312-0.286,1.364-0.248,1.314,0.485
			c-0.05,0.733-0.157,5.292-0.157,5.292s-0.123,1.285,0.078,0.598c0.083-0.285,0.173-0.541,0.285-0.841
			c0.538-1.723,1.455-4.666,1.912-6.182c0.105-0.363,0.196-0.674,0.266-0.914l0-0.001c0.027-0.111,0.054-0.199,0.082-0.277
			c0.038-0.129,0.064-0.214,0.072-0.236c0.02-0.057,0.078-0.1,0.158-0.132c0.081-0.051,0.167-0.054,0.266-0.056
			c0.254-0.023,0.58,0.01,0.873,0.094c0.085,0.003,0.178,0.031,0.266,0.094v0c0,0,0.005,0.003,0.013,0.008
			c0.002,0.002,0.004,0.003,0.006,0.004c0.018,0.013,0.048,0.038,0.083,0.079c0.001,0.001,0.002,0.003,0.003,0.004
			c0.014,0.017,0.029,0.038,0.043,0.062c0.164,0.24,0.264,0.683,0.164,1.468c-0.251,1.959-0.446,5.99-0.446,5.99
			s-0.039,0.193,0.365-0.656c0.014-0.03,0.032-0.055,0.049-0.082c0.022-0.014,0.046-0.035,0.077-0.072
			c0.249-0.298,0.92-0.472,1.385-0.469c0.196,0.024,0.36,0.073,0.458,0.135c0.184,0.279,0.075,1.31,0.075,1.31
			c-0.387,0.036-1.125,0.244-1.386,0.282c-0.262,0.039-0.659,1.737-1.211,1.563c-0.552-0.174-1.783-0.945-1.783-1.052
			c0-0.092,0.097-1.22,0.122-1.512c0.002-0.02,0.003-0.039,0.005-0.057c0.001-0.005,0.001-0.012,0.001-0.012l0,0
			c0.018-0.229,0.002-0.329-0.104-0.101c-0.091,0.197-0.488,1.456-0.93,2.828c-0.047,0.12-0.882,2.648-0.992,2.956
			c-0.131,0.358-0.241,0.631-0.317,0.773c-0.116,0.157-0.271,0.255-0.489,0.189c-0.543-0.164-1.23-0.914-1.236-1.1
			c-0.013-1.049,0.051-6.689-0.203-6.219c-0.261,0.482-2.291,3.827-2.291,3.827c-0.034,0.006-0.059,0.005-0.089,0.007
			c-0.144-0.016-0.366-0.062-0.428-0.2c-0.003-0.008-0.008-0.015-0.011-0.024c-0.003-0.009-0.006-0.018-0.011-0.034
			c-0.028-0.092-0.039-0.192-0.063-0.274c-0.091-0.306-0.236-0.746-0.389-1.192c-0.234-0.762-0.474-1.541-0.514-1.627
			c-0.077-0.168-0.19-0.097-0.292,0C7.044,21.83,6.082,23.526,5.213,23.619"/>
	</g>
</g>
</svg>
