<?xml version="1.0" encoding="utf-8"?>
<!-- Generator: Adobe Illustrator 20.1.0, SVG Export Plug-In . SVG Version: 6.00 Build 0)  -->
<svg version="1.1" id="logos" xmlns="http://www.w3.org/2000/svg" xmlns:xlink="http://www.w3.org/1999/xlink" x="0px" y="0px"
	 viewBox="0 0 125 40" enable-background="new 0 0 125 40" xml:space="preserve">
<g>
	<path d="M31.01,6.258c-0.759,0-1.417,0.557-1.594,0.683c-0.177-0.025-0.228-0.38-0.228-0.38h-0.253l-1.139,5.543h0.569l0.569-2.506
		c0,0,0.38,0.582,1.19,0.582c1.031,0,2.101-0.785,2.379-2.025C32.782,6.916,31.769,6.258,31.01,6.258z M31.896,8.22
		c-0.202,0.797-1.139,1.379-1.62,1.379c-0.607,0-1.291-0.506-1.088-1.341c0.202-0.835,1.19-1.417,1.721-1.417
		C31.592,6.84,32.098,7.422,31.896,8.22z"/>
	<polygon points="34.629,4.335 33.971,4.335 32.706,10.029 33.364,10.029 	"/>
	<path d="M38.172,6.41l-0.127,0.177c0,0-1.193-0.614-2.252,0.025c-1.468,0.886-1.974,3.543,0.253,3.543
		c0.886,0,1.696-0.683,1.696-0.683l0.152,0.43h0.177l0.683-3.493H38.172z M36.945,9.327c-0.679,0.388-1.928,0.32-1.751-0.768
		s1.068-1.719,1.612-1.719c0.683,0,0.981,0.392,1.031,0.873C37.888,8.194,37.609,8.947,36.945,9.327z"/>
	<path d="M56.749,6.41l-0.127,0.177c0,0-1.193-0.614-2.252,0.025c-1.468,0.886-1.974,3.543,0.253,3.543
		c0.886,0,1.696-0.683,1.696-0.683l0.152,0.43h0.177l0.683-3.493H56.749z M55.522,9.327c-0.679,0.388-1.928,0.32-1.751-0.768
		s1.068-1.719,1.612-1.719c0.683,0,0.981,0.392,1.031,0.873C56.464,8.194,56.186,8.947,55.522,9.327z"/>
	<polygon points="42.639,6.404 40.822,9.296 40.134,6.404 39.583,6.404 40.408,9.955 39.014,12.174 39.659,12.174 43.209,6.404 	"/>
	<path d="M46.6,7.182l0.481-0.291c0,0-0.228-0.633-0.785-0.633s-1.291,0.506-1.367,1.265c-0.076,0.759,1.517,0.974,1.088,1.658
		c-0.468,0.747-0.86,0.19-0.962-0.038L44.5,9.472c0,0,0.253,0.734,0.987,0.734c0.734,0,1.375-0.931,1.265-1.519
		c-0.122-0.655-1.417-0.924-1.139-1.43C45.892,6.752,46.293,6.657,46.6,7.182z"/>
	<path d="M47.309,10.029l0.81-3.467l0.177,0.177c0.81-0.557,1.519-0.607,2.025,0c0.936-0.582,1.746-0.531,2.075,0.177
		c0.127,0.481,0.051,0.759-0.456,3.113h-0.607c0,0,0.356-1.619,0.506-2.328c0.177-0.835-0.607-1.164-1.291-0.43l-0.633,2.759h-0.607
		c0,0,0.456-2.025,0.557-2.556s-0.911-0.962-1.316-0.127c-0.152,0.582-0.633,2.683-0.633,2.683H47.309z"/>
	<path d="M58.432,6.739l-0.177-0.177l-0.81,3.467h0.607c0,0,0.481-2.101,0.633-2.683c0.231-0.489,1.214-0.64,1.343-0.211
		l0.311-0.605C59.844,6.066,59.178,6.226,58.432,6.739z"/>
	<polygon points="62.917,6.394 62.036,6.394 62.494,4.335 61.836,4.335 61.378,6.394 60.99,6.394 60.805,7.024 61.238,7.024 
		60.571,10.029 61.229,10.029 61.896,7.024 62.732,7.024 	"/>
	<circle cx="62.798" cy="9.687" r="0.456"/>
	<path d="M29.011,20.127c-0.038,0.121-1.772,8.478-1.822,8.706s0.202,0.202,0.304,0.202s0.886,0,1.038,0s0.253-0.076,0.304-0.278
		s1.215-5.644,1.392-6.327s1.19-1.392,2.101-1.392s1.367,0.81,1.19,1.67c-0.177,0.86-1.164,5.72-1.215,5.973
		s0.051,0.354,0.253,0.354s0.885,0,0.999,0s0.266-0.076,0.342-0.329c0.076-0.253,1.019-5.011,1.281-6.023s1.199-1.594,2.237-1.594
		c1.038,0,1.367,0.962,1.164,1.797s-1.19,5.568-1.24,5.796s0.025,0.355,0.228,0.355s0.847,0,1.069,0c0.222,0,0.285-0.077,0.38-0.406
		c0.095-0.329,0.905-4.125,1.183-5.846c0.278-1.721-0.531-3.366-2.581-3.366c-1.063,0-2.018,0.582-2.388,0.886
		c-0.294,0.177-0.396,0.101-0.598-0.051s-0.817-0.835-2.079-0.835c-1.262,0-2.097,0.506-2.527,0.911
		c-0.253,0.202-0.456-0.051-0.531-0.177S29.061,19.969,29.011,20.127z"/>
	<path d="M43.335,19.672c-0.202,0-0.405,0.051-0.456,0.228s-0.911,4.227-1.19,5.619c-0.278,1.392,0.177,3.796,3.012,3.796
		c1.569,0,2.759-1.038,3.113-1.038s0.785,0.531,0.886,0.152s1.746-7.998,1.822-8.301c0.076-0.304,0-0.405-0.202-0.405
		s-0.962,0-1.139,0c-0.177,0-0.253,0.202-0.329,0.481c-0.076,0.278-1.088,5.163-1.215,5.72c-0.127,0.557-1.417,1.797-2.581,1.797
		s-1.974-1.012-1.696-2.43c0.278-1.417,1.088-4.986,1.139-5.239s-0.025-0.38-0.253-0.38S43.335,19.672,43.335,19.672z"/>
	<path d="M55.382,19.343c-0.633,0-1.974,0.202-2.961,1.645c-0.987,1.443-0.607,3.088,0.759,3.847
		c1.367,0.759,2.48,1.367,1.265,2.581c-0.734,0.557-1.493,0.405-1.746-0.405c-0.152-0.278-0.759-0.076-1.19,0.127
		c-0.43,0.202-0.633,0.304-0.531,0.759s0.835,1.493,2.354,1.493c1.519,0,2.328-1.012,2.885-1.848s0.886-2.252-0.228-3.088
		c-1.114-0.835-2.252-1.291-2.379-1.898c-0.127-0.607,0.557-1.316,1.088-1.468c0.531-0.152,0.911,0.177,1.139,0.582
		c0.228,0.304,0.456,0.127,0.709,0.025s0.734-0.329,0.936-0.405s0.202-0.43-0.076-0.81C57.129,20.102,56.597,19.343,55.382,19.343z"
		/>
	<path d="M60.444,19.672c-0.228,0-0.456,0.253-0.481,0.38c-0.025,0.127-1.721,8.251-1.746,8.605
		c-0.025,0.354,0.228,0.405,0.456,0.405c0.228,0,0.557,0,0.835,0c0.278,0,0.456-0.152,0.506-0.38s1.746-8.301,1.822-8.605
		c0.076-0.304-0.025-0.405-0.228-0.405S60.444,19.672,60.444,19.672z"/>
	<circle cx="61.912" cy="15.546" r="1.341"/>
	<circle cx="72.433" cy="28.1" r="1.341"/>
	<circle cx="79.217" cy="15.576" r="1.341"/>
	<path d="M68.948,19.368c-0.873,0-3.663,0.285-5.543,3.303c-1.898,3.048-0.039,6.611,3.302,6.611c0.772,0,2.122-0.269,2.722-0.676
		c0.152-0.177,0.089-0.449-0.386-1.208c-0.171-0.209-0.513,0.304-1.974,0.304s-2.695-1.158-2.638-2.79
		c0.057-1.632,1.727-3.72,4.081-3.834c1.12,0,1.541,0.471,1.67,0.437c0.285-0.076,1.082-1.139,1.139-1.234
		C71.377,20.184,70.428,19.368,68.948,19.368z"/>
	<path d="M77.646,19.688c-0.149,0-0.296,0.085-0.372,0.439c-0.076,0.354-1.949,9.541-2.177,10.503s-1.19,1.696-1.721,1.949
		c-0.228,0.127-0.025,1.696,0.152,1.696c0.177,0,1.443-0.759,2.202-1.519c0.759-0.759,1.012-1.873,1.417-3.72
		c0.405-1.848,1.898-8.681,1.949-8.934c0.051-0.253,0-0.405-0.228-0.405C78.641,19.697,77.646,19.688,77.646,19.688z"/>
	<path d="M86.335,19.419c-1.62,0-2.835,0.81-3.265,1.164c-0.43,0.354-0.658,0.278-0.835,0.051s-0.43-0.531-0.43-0.531
		c-0.127-0.101-0.506,0-0.557,0.177c-0.051,0.177-2.784,13.363-2.835,13.641c-0.051,0.278,0.025,0.405,0.329,0.405s0.633,0,0.835,0
		c0.202,0,0.405-0.076,0.506-0.38c0.101-0.304,0.911-4.227,1.038-4.682c0.127-0.456,0.607-0.683,0.911-0.531
		s1.923,1.012,4.075,0.329c2.151-0.683,4.328-2.733,4.328-5.669S88.309,19.419,86.335,19.419z M84.766,27.72
		c-2.075,0-2.733-1.645-2.733-2.708c0-2.202,2.354-3.999,4.151-3.999c1.341,0,2.607,0.962,2.632,2.708
		C88.84,25.467,86.841,27.72,84.766,27.72z"/>
	<path d="M90.549,13.319c-1.027,0-1.86,0.833-1.86,1.86c0,1.027,0.833,1.86,1.86,1.86s1.86-0.833,1.86-1.86
		C92.409,14.152,91.576,13.319,90.549,13.319z M90.549,16.711c-0.846,0-1.531-0.686-1.531-1.531c0-0.846,0.686-1.531,1.531-1.531
		s1.531,0.686,1.531,1.531C92.08,16.025,91.394,16.711,90.549,16.711z"/>
	<path d="M90.169,15.382h0.493l0.301,0.721h0.247L90.9,15.361c0.28-0.07,0.426-0.316,0.426-0.561c0-0.289-0.202-0.582-0.588-0.582
		h-0.797v1.885h0.228V15.382z M90.169,14.445h0.569c0.249,0,0.361,0.178,0.361,0.354c0,0.176-0.112,0.354-0.361,0.354h-0.569V14.445
		z"/>
	<radialGradient id="SVGID_1_" cx="11.0128" cy="24.3194" r="11.0128" gradientUnits="userSpaceOnUse">
		<stop  offset="0" style="stop-color:#E29F7C"/>
		<stop  offset="1" style="stop-color:#9F443C"/>
	</radialGradient>
	<circle fill="url(#SVGID_1_)" cx="11.013" cy="24.319" r="11.013"/>
	<radialGradient id="SVGID_2_" cx="14.8344" cy="28.2675" r="12.5355" gradientUnits="userSpaceOnUse">
		<stop  offset="0" style="stop-color:#E29F7C"/>
		<stop  offset="0.2556" style="stop-color:#DA745C"/>
		<stop  offset="0.6922" style="stop-color:#CB2220"/>
		<stop  offset="1" style="stop-color:#7E181D"/>
	</radialGradient>
	<circle fill="url(#SVGID_2_)" cx="11.013" cy="24.319" r="10.525"/>
	<radialGradient id="SVGID_3_" cx="7.8655" cy="21.4828" r="12.5664" gradientUnits="userSpaceOnUse">
		<stop  offset="0" style="stop-color:#EB946A"/>
		<stop  offset="0.1435" style="stop-color:#E47456"/>
		<stop  offset="0.4563" style="stop-color:#D32525"/>
		<stop  offset="0.5335" style="stop-color:#CF1018"/>
		<stop  offset="0.871" style="stop-color:#931C22"/>
		<stop  offset="0.9355" style="stop-color:#A02628"/>
		<stop  offset="1" style="stop-color:#B13430"/>
	</radialGradient>
	<circle fill="url(#SVGID_3_)" cx="11.013" cy="24.319" r="8.225"/>
	<path fill="#FFFFFF" d="M6.89,19.836c-0.033,0.106-1.543,7.418-1.587,7.618c-0.044,0.199,0.176,0.177,0.265,0.177
		c0.088,0,0.772,0,0.904,0c0.132,0,0.22-0.066,0.265-0.244s1.058-4.938,1.213-5.536c0.154-0.598,1.036-1.218,1.83-1.218
		c0.794,0,1.19,0.709,1.036,1.462c-0.154,0.753-1.014,5.005-1.058,5.226c-0.044,0.221,0.044,0.31,0.22,0.31s0.771,0,0.871,0
		s0.232-0.066,0.298-0.288c0.066-0.221,0.888-4.385,1.116-5.27c0.229-0.886,1.044-1.395,1.948-1.395c0.904,0,1.19,0.841,1.014,1.572
		c-0.176,0.731-1.036,4.872-1.08,5.071c-0.044,0.199,0.022,0.311,0.198,0.311c0.176,0,0.738,0,0.931,0s0.248-0.067,0.331-0.355
		c0.083-0.288,0.788-3.609,1.031-5.115c0.243-1.506-0.463-2.945-2.249-2.945c-0.926,0-1.758,0.509-2.081,0.775
		c-0.256,0.155-0.345,0.089-0.521-0.044c-0.176-0.133-0.711-0.731-1.811-0.731s-1.827,0.443-2.202,0.797
		c-0.22,0.177-0.397-0.044-0.463-0.155C7.243,19.748,6.934,19.697,6.89,19.836z"/>
	<circle fill="#FFFFFF" cx="20.127" cy="26.48" r="1.114"/>
</g>
<rect x="0" y="0" fill="none" width="125" height="40"/>
</svg>
