<?xml version="1.0" encoding="utf-8"?>
<!-- Generator: Adobe Illustrator 19.2.0, SVG Export Plug-In . SVG Version: 6.00 Build 0)  -->
<svg version="1.1" xmlns="http://www.w3.org/2000/svg" xmlns:xlink="http://www.w3.org/1999/xlink" x="0px" y="0px"
	 viewBox="0 0 125 40" enable-background="new 0 0 125 40" xml:space="preserve">
<g id="bg" display="none">
	<rect display="inline" fill="#FFFFFF" width="125" height="40"/>
</g>
<g id="icons">
	<g>
		<g>
			<path fill="#252B2B" d="M49.618,12.92c-0.645-0.541-1.355-0.947-2.109-1.21c-0.756-0.261-1.579-0.393-2.447-0.393
				c-0.871,0-1.696,0.132-2.454,0.393c-0.76,0.263-1.473,0.669-2.116,1.209c-1.374,1.128-2.07,2.541-2.07,4.197v2.988
				c0,0.803,0.183,1.563,0.542,2.261c0.36,0.701,0.847,1.321,1.449,1.843c0.599,0.522,1.308,0.94,2.107,1.242
				c0.797,0.301,1.653,0.452,2.542,0.452c0.687,0,1.377-0.099,2.047-0.295c0.636-0.185,1.23-0.479,1.766-0.874
				c0.371,0.518,0.896,0.781,1.565,0.781h1.248v-8.399C51.688,15.477,50.993,14.065,49.618,12.92z M43.892,15.035
				c0.375-0.118,0.768-0.176,1.171-0.176c0.884,0,1.657,0.257,2.295,0.763c0.531,0.441,0.789,0.929,0.789,1.494v2.988
				c0,0.313-0.083,0.608-0.249,0.882c-0.17,0.275-0.397,0.516-0.676,0.717c-0.282,0.205-0.616,0.367-0.99,0.483
				c-0.751,0.235-1.591,0.234-2.34-0.001c-0.376-0.117-0.712-0.279-0.998-0.482c-0.284-0.199-0.512-0.443-0.682-0.717
				c-0.164-0.27-0.248-0.566-0.248-0.882v-2.988c0-0.314,0.084-0.61,0.248-0.881c0.169-0.276,0.398-0.516,0.682-0.717
				C43.178,15.314,43.515,15.152,43.892,15.035z"/>
			<path fill="#252B2B" d="M64.46,19.84c-0.207-0.46-0.462-0.881-0.759-1.253c-0.269-0.336-0.567-0.616-0.888-0.834
				c0.082-0.107,0.146-0.201,0.192-0.286l3.514-5.749h-2.896c-0.382,0-0.745,0.101-1.079,0.298c-0.334,0.2-0.616,0.481-0.837,0.839
				l-2.432,3.958c-0.077,0.127-0.172,0.193-0.288,0.207c-0.157,0.017-0.351,0.026-0.576,0.026h-0.434V7.101h-1.648
				c-1.256,0-1.893,0.62-1.893,1.842v14.744c0,1.213,0.637,1.828,1.893,1.828h1.648v-4.952h2.258c0.473,0,0.8,0.219,0.999,0.671
				l1.384,3.169c0.155,0.356,0.406,0.634,0.744,0.826c0.334,0.19,0.738,0.286,1.203,0.286h2.366L64.46,19.84z"/>
			<path fill="#252B2B" d="M78.906,12.92c-0.647-0.541-1.356-0.948-2.111-1.21c-0.753-0.261-1.576-0.393-2.447-0.393
				c-0.869,0-1.695,0.132-2.453,0.393c-0.759,0.261-1.47,0.668-2.117,1.209c-1.373,1.129-2.069,2.542-2.069,4.197v2.988
				c0,0.8,0.182,1.561,0.542,2.261c0.359,0.701,0.847,1.321,1.448,1.843c0.601,0.523,1.31,0.941,2.108,1.242
				c0.798,0.301,1.653,0.452,2.541,0.452c0.688,0,1.378-0.099,2.049-0.295c0.637-0.186,1.23-0.479,1.765-0.874
				c0.371,0.518,0.897,0.781,1.566,0.781h1.248v-8.399C80.975,15.477,80.279,14.065,78.906,12.92z M73.178,15.035
				c0.375-0.118,0.769-0.176,1.17-0.176c0.884,0,1.657,0.257,2.297,0.763c0.531,0.441,0.789,0.929,0.789,1.494v2.988
				c0,0.315-0.083,0.61-0.248,0.882c-0.169,0.275-0.397,0.516-0.678,0.718c-0.28,0.203-0.614,0.365-0.988,0.482
				c-0.752,0.234-1.59,0.235-2.341-0.001c-0.375-0.116-0.711-0.278-0.997-0.482c-0.285-0.201-0.514-0.443-0.681-0.717
				c-0.166-0.272-0.25-0.569-0.25-0.882v-2.988c0-0.312,0.084-0.609,0.25-0.881c0.167-0.273,0.397-0.515,0.681-0.717
				C72.467,15.314,72.803,15.152,73.178,15.035z"/>
			<path fill="#252B2B" d="M84.853,11.718c-1.213,0-1.828,0.637-1.828,1.893v1.622h5.721l-5.353,7.783
				c-0.132,0.195-0.237,0.38-0.308,0.55c-0.071,0.168-0.126,0.345-0.161,0.525c-0.036,0.18-0.057,0.38-0.062,0.594
				c-0.003,0.212-0.005,0.451-0.005,0.719v0.11h9.419c1.214,0,1.83-0.637,1.83-1.894v-1.648h-5.708l5.341-7.771
				c0.127-0.192,0.222-0.363,0.293-0.52c0.07-0.156,0.127-0.332,0.168-0.518c0.04-0.183,0.066-0.383,0.075-0.595
				c0.008-0.207,0.012-0.455,0.012-0.74v-0.109H84.853z"/>
			<path fill="#252B2B" d="M106.95,12.92c-0.644-0.541-1.354-0.947-2.109-1.21c-0.754-0.261-1.577-0.393-2.447-0.393
				c-0.871,0-1.696,0.132-2.454,0.393c-0.759,0.263-1.471,0.669-2.116,1.209c-1.373,1.129-2.069,2.541-2.069,4.197v2.988
				c0,0.8,0.182,1.561,0.541,2.261c0.359,0.701,0.847,1.321,1.447,1.843c0.601,0.523,1.311,0.941,2.11,1.242
				c0.798,0.301,1.652,0.452,2.54,0.452c0.853,0,1.678-0.141,2.448-0.42c0.769-0.276,1.478-0.67,2.111-1.17
				c0.637-0.559,1.146-1.203,1.512-1.915c0.368-0.715,0.555-1.485,0.555-2.294v-2.988C109.02,15.477,108.324,14.065,106.95,12.92z
				 M103.563,22.185c-0.75,0.234-1.589,0.235-2.34-0.001c-0.374-0.115-0.709-0.277-0.996-0.482
				c-0.286-0.202-0.514-0.444-0.682-0.717c-0.166-0.272-0.25-0.567-0.25-0.882v-2.988c0-0.314,0.084-0.61,0.25-0.881
				c0.166-0.272,0.395-0.514,0.682-0.717c0.287-0.204,0.621-0.366,0.996-0.483c0.375-0.118,0.769-0.176,1.171-0.176
				c0.883,0,1.657,0.257,2.296,0.763c0.53,0.44,0.788,0.929,0.788,1.494v2.988c0,0.315-0.083,0.611-0.249,0.882
				c-0.168,0.274-0.395,0.516-0.676,0.717C104.27,21.907,103.937,22.069,103.563,22.185z"/>
			<path fill="#252B2B" d="M121.931,12.92c-0.646-0.541-1.356-0.947-2.111-1.21c-0.752-0.261-1.575-0.393-2.447-0.393
				c-0.87,0-1.696,0.132-2.453,0.393c-0.759,0.263-1.472,0.669-2.116,1.209c-1.374,1.128-2.07,2.541-2.07,4.197v2.988
				c0,0.8,0.183,1.56,0.542,2.261c0.358,0.701,0.845,1.321,1.446,1.843c0.603,0.523,1.313,0.942,2.11,1.242
				c0.797,0.301,1.652,0.452,2.541,0.452c0.853,0,1.678-0.141,2.447-0.42c0.768-0.276,1.477-0.67,2.112-1.171
				c0.637-0.559,1.146-1.203,1.512-1.914c0.368-0.715,0.555-1.485,0.555-2.294v-2.988C124,15.477,123.304,14.065,121.931,12.92z
				 M118.544,22.185c-0.752,0.234-1.59,0.235-2.341-0.001c-0.374-0.116-0.71-0.278-0.997-0.482
				c-0.285-0.201-0.514-0.443-0.682-0.717c-0.165-0.272-0.248-0.567-0.248-0.882v-2.988c0-0.313,0.083-0.61,0.248-0.881
				c0.168-0.273,0.397-0.515,0.682-0.717c0.286-0.204,0.622-0.366,0.997-0.483c0.375-0.118,0.769-0.176,1.171-0.176
				c0.884,0,1.657,0.257,2.297,0.763c0.53,0.439,0.787,0.927,0.787,1.494v2.988c0,0.315-0.084,0.61-0.25,0.882
				c-0.168,0.275-0.395,0.516-0.674,0.717C119.25,21.907,118.918,22.069,118.544,22.185z"/>
		</g>
		<g>
			<linearGradient id="SVGID_1_" gradientUnits="userSpaceOnUse" x1="9.8184" y1="37.9009" x2="13.8334" y2="19.0119">
				<stop  offset="0" style="stop-color:#603664;stop-opacity:0"/>
				<stop  offset="0.5092" style="stop-color:#603664"/>
			</linearGradient>
			<path fill="url(#SVGID_1_)" d="M3.884,16.897c0,0-5.619,10.493-3.34,15.409c1.874,4.042,7.109,7.383,14.192,3.058
				c4.528-2.765,5.155-3.742,8.231-3.605C24.595,31.831,3.884,16.897,3.884,16.897z"/>
			<linearGradient id="SVGID_2_" gradientUnits="userSpaceOnUse" x1="15.3813" y1="35.5742" x2="22.1005" y2="3.9629">
				<stop  offset="0.2" style="stop-color:#603664;stop-opacity:0"/>
				<stop  offset="1" style="stop-color:#603664"/>
			</linearGradient>
			<path fill="url(#SVGID_2_)" d="M33.374,22.492c-1.212-8.187-11.29-19.718-17.448-19.718c-6.158,0-14.173,17.277-14.561,23.421
				c-0.385,6.11,5.613,10.716,14.613,5.437c2.412-1.416,4.57-0.636,8.187,0.571C29.623,34.02,34.543,30.393,33.374,22.492z"/>
			
				<linearGradient id="SVGID_3_" gradientUnits="userSpaceOnUse" x1="1387.6832" y1="-544.7623" x2="1401.0155" y2="-576.1711" gradientTransform="matrix(1 0 0 1 -1376.4131 582.1133)">
				<stop  offset="0.1656" style="stop-color:#52104C"/>
				<stop  offset="0.5399" style="stop-color:#9C2266"/>
				<stop  offset="1" style="stop-color:#CD156B"/>
			</linearGradient>
			<path fill="url(#SVGID_3_)" d="M15.777,2.609c-5.607,0-14.745,17.126-15.098,23.103c-0.35,5.944,5.026,13.309,13.222,8.173
				c2.195-1.377,5.054-3.338,8.348-2.163c4.97,1.768,10.561-0.665,9.94-8.406C31.545,15.28,21.384,2.609,15.777,2.609z"/>
			<linearGradient id="SVGID_4_" gradientUnits="userSpaceOnUse" x1="6.5619" y1="35.0972" x2="19.6804" y2="4.1921">
				<stop  offset="0.5092" style="stop-color:#CD156B"/>
				<stop  offset="1" style="stop-color:#FFFFFF;stop-opacity:0.64"/>
			</linearGradient>
			<path opacity="0.17" fill="url(#SVGID_4_)" d="M15.777,2.609C10.177,2.907,1.032,19.735,0.68,25.711
				c-0.35,5.944,4.658,12.569,13.222,8.173C29.822,25.71,18.674,2.453,15.777,2.609z"/>
			<g opacity="0.5">
				
					<linearGradient id="SVGID_5_" gradientUnits="userSpaceOnUse" x1="1538.2518" y1="-306.1529" x2="1538.2693" y2="-306.1737" gradientTransform="matrix(0.9838 -0.1793 0.1793 0.9838 -1447.2576 592.5407)">
					<stop  offset="0.0859" style="stop-color:#92278F"/>
					<stop  offset="0.5276" style="stop-color:#EE2A7B"/>
				</linearGradient>
				<path fill="url(#SVGID_5_)" d="M11.176,15.536c0.002,0.001,0.004,0.001,0.006,0.002C11.182,15.538,11.226,15.495,11.176,15.536z
					"/>
				
					<radialGradient id="SVGID_6_" cx="1486.9447" cy="-301.4065" r="4.6993" gradientTransform="matrix(0.921 -0.1785 0.1671 0.9839 -1311.8776 592.4537)" gradientUnits="userSpaceOnUse">
					<stop  offset="0.0859" style="stop-color:#FFFFFF"/>
					<stop  offset="0.5276" style="stop-color:#FFF3D1"/>
				</radialGradient>
				<path opacity="0.23" fill="url(#SVGID_6_)" d="M2.606,29.997c0.805,2.479,2.118,3.22,3.758,4.002
					c3.852,1.834,9.596-1.276,2.793-3.542c-1.022-0.341-2.929-1.363-3.817-2.068C2.884,26.433,1.231,25.761,2.606,29.997z"/>
			</g>
			
				<linearGradient id="SVGID_7_" gradientUnits="userSpaceOnUse" x1="24.8363" y1="98.9075" x2="17.3223" y2="88.8238" gradientTransform="matrix(1.1026 8.000000e-04 8.000000e-04 1.0908 -6.9144 -84.6357)">
				<stop  offset="0" style="stop-color:#70586D;stop-opacity:0.84"/>
				<stop  offset="1" style="stop-color:#70586D;stop-opacity:0.84"/>
			</linearGradient>
			<path fill="url(#SVGID_7_)" d="M12.474,22.661c-0.001-0.745-0.022-7.455-0.022-7.455c0.058-3.765,0.719-4.854,4.014-3.375
				c1.522,0.682,8.938,3.821,8.406,6.475c-0.465,2.321-4.404,5.282-6.988,6.622C12.76,27.586,12.475,23.783,12.474,22.661z"/>
			<g>
				<path fill="#FFFFFF" d="M13.774,21.767l0.007-5.821c0-1.657,0.054-4.026,3.689-2.316c0.965,0.454,6.553,2.926,5.994,4.836
					c-0.476,1.635-3.547,3.915-5.345,5.044C14.651,25.687,13.774,24.818,13.774,21.767z"/>
			</g>
			<g>
				<linearGradient id="SVGID_8_" gradientUnits="userSpaceOnUse" x1="19.4665" y1="22.3607" x2="15.7116" y2="13.5147">
					<stop  offset="0" style="stop-color:#C7C8CA"/>
					<stop  offset="0.7975" style="stop-color:#FAFAF8;stop-opacity:0"/>
				</linearGradient>
				<path fill="url(#SVGID_8_)" d="M14.593,22.173c0,0,0.007-4.256-0.008-6.416c-0.006-0.916,0.015-1.549,0.304-1.834
					c0.426-0.422,0.952-0.136,2.055,0.399c0.098,0.047,0.238,0.116,0.413,0.199c5.474,2.609,5.449,3.689,5.446,3.735
					c-0.319,1.089-4.296,4.568-6.474,5.436C15.587,23.987,14.594,24.18,14.593,22.173z"/>
			</g>
			<g>
				<linearGradient id="SVGID_9_" gradientUnits="userSpaceOnUse" x1="15.5687" y1="31.3665" x2="25.436" y2="27.7751">
					<stop  offset="0" style="stop-color:#231F20"/>
					<stop  offset="0.638" style="stop-color:#231F20;stop-opacity:0"/>
				</linearGradient>
				<path fill="url(#SVGID_9_)" d="M21.745,24.232c-0.813,3.196-2.566,6.158-5.719,8.391c1.816-0.994,3.932-1.739,6.267-0.906
					c1.582,0.563,3.227,0.698,4.713,0.374C24.142,31.697,21.884,28.36,21.745,24.232z"/>
			</g>
		</g>
	</g>
</g>
</svg>
