<?xml version="1.0" encoding="utf-8"?>
<!-- Generator: Adobe Illustrator 20.1.0, SVG Export Plug-In . SVG Version: 6.00 Build 0)  -->
<svg version="1.1" id="logos" xmlns="http://www.w3.org/2000/svg" xmlns:xlink="http://www.w3.org/1999/xlink" x="0px" y="0px"
	 viewBox="0 0 125 40" enable-background="new 0 0 125 40" xml:space="preserve">
<path fill="#FFA100" d="M40.459,7.197c-1.875,0-2.657,2.605,0,5.47C43.167,10.062,42.178,7.197,40.459,7.197z"/>
<g>
	<path fill="#F11D8C" d="M31.335,15.813c2.137,2.336,7.275,8.93,10.498,21.145c4.138-0.179,7.06-1.614,6.995-2.134
		c-0.487-1.413-2.579-3.609-4.121-4.988c2.46-1.021,5.13-2.636,7.823-4.086c-7.422-7.305-13.586-10.828-15.547-11.851
		C35.487,14.527,33.592,15.269,31.335,15.813z"/>
	<path fill="#46449F" d="M25.039,16.574c-2.265,0-4.085-0.124-5.661-0.303c0.848,1.219,2.653,3.899,4.145,6.686
		c5.545,3.077,9.468,5.706,12.81,7.018c-1.524,1.384-3.495,3.483-3.966,4.849c-0.069,0.556,3.264,2.153,7.849,2.153h0.764
		c0.29,0,0.574-0.007,0.853-0.019c-3.223-12.215-8.36-18.809-10.498-21.145C29.474,16.261,27.369,16.574,25.039,16.574z"/>
	<path fill="#FFA100" d="M8.213,14.907C2.066,14.907,0,18.085,0,18.085s3.195-0.174,5.036-0.174s9.898,0.313,18.093,4.827
		c0.134,0.074,0.262,0.146,0.394,0.219c-1.492-2.787-3.297-5.467-4.145-6.686C15.152,15.791,12.69,14.907,8.213,14.907z"/>
	<path fill="#FFA100" d="M40.459,12.667c-0.615-0.035-1.793,0.525-3.476,1.232c1.961,1.023,8.125,4.546,15.547,11.851
		c1.245-0.67,2.494-1.306,3.73-1.831c1.933-0.821,4.403-1.383,6.804-2.142c-1.54-1.213-3.577-2.597-4.771-3.39
		C51.649,17.587,41.574,12.731,40.459,12.667z"/>
	<path fill="#46449F" d="M71.818,12.389c0-3.89-3.612-7.918-8.474-7.918c-2.987,0-6.737,2.57-6.737,6.251
		c0,3.681,3.195,5.695,5.348,5.695c2.57,0,4.584-1.945,4.584-3.751c0-1.459-1.389-3.021-2.952-3.021s-2.568,1.612-1.667,2.448
		c0.729,0.677,1.783-0.529,2.344,0.313c0.417,0.625-0.052,1.927-2.032,1.927c-1.98,0-3.49-1.459-3.49-3.594s1.875-4.063,4.532-4.063
		c2.657,0,5.782,2.084,5.782,5.522s-2.605,6.303-9.064,6.303c-0.532,0-1.104-0.042-1.701-0.114c1.194,0.793,3.231,2.177,4.771,3.39
		C67.564,20.353,71.818,18.233,71.818,12.389z"/>
</g>
<path fill="#46449F" d="M83.068,14.43c-2.385,0-4.319,1.775-4.319,3.964s1.934,3.964,4.319,3.964c2.385,0,4.319-1.775,4.319-3.964
	S85.454,14.43,83.068,14.43z M83.096,20.771c-1.253,0-2.269-1.077-2.269-2.405c0-1.328,1.016-2.405,2.269-2.405
	s2.269,1.077,2.269,2.405C85.365,19.694,84.349,20.771,83.096,20.771z"/>
<polygon fill="#46449F" points="94.33,17.273 91.761,17.273 91.761,14.102 89.793,14.102 89.793,22.466 91.761,22.466 
	91.761,18.913 94.33,18.913 "/>
<path fill="#46449F" d="M110.622,19.241h-2.296v-5.139h-2.077v9.409c-1.499,0.766-3.061,1.524-5.303,1.524
	c-1.585,0-2.843-1.039-2.843-2.569c0-0.656,0-0.984,0-0.984h5.358l0.055-6.123H96.08v1.64h5.194v3.007H96.08c0,0,0,1.531,0,1.749
	c0,2.187,0.711,4.756,4.92,4.756c2.204,0,4.203-1.097,5.248-1.792v6.166h2.077V20.771h2.296V19.241z"/>
<path fill="#46449F" d="M122.868,14.102v6.573c-1.239,0.802-3.038,1.683-4.975,1.683c-1.64,0-2.843-0.875-2.843-2.241
	c0-1.367,0-3.444,0-3.444h5.303V15.14h-7.621c0,0,0,3.608,0,4.866c0,1.257,1.224,3.663,4.832,3.663c2.353,0,4.258-1.044,5.303-1.772
	v4.232H125V14.102H122.868z"/>
<path fill="#46449F" d="M116.909,25.309h-2.132c0,0,0,1.039,0,1.913c0,1.749,1.039,3.663,3.827,3.663c2.788,0,6.396,0,6.396,0v-1.64
	c0,0-5.488,0-6.134,0s-1.957-0.109-1.957-1.695S116.909,25.309,116.909,25.309z"/>
<path fill="#46449F" d="M81.738,23.468v1.421h7.8v1.458h-7.8v1.458c0,1.531,1.276,3.08,4.228,3.08c2.952,0,6.096,0,6.096,0v-1.549
	c0,0-6.132,0-7.116,0s-1.312-0.547-1.312-1.604h8.164v-4.264H81.738z"/>
<rect fill="none" width="125" height="40"/>
</svg>
