<svg width="140" height="25" viewBox="0 0 140 25" fill="none" xmlns="http://www.w3.org/2000/svg">
<path d="M19.9019 4.52143H30.2519V7.91071H23.7341V10.7292H29.7567V14.0601H23.7341V16.8787H30.5388V20.1643H19.9019V4.52143ZM32.39 4.52143H38.933C42.2971 4.52143 44.4865 6.5548 44.4865 9.50117C44.4865 12.2392 43.1054 13.7773 40.7842 14.3511L45.012 20.1653H40.2114L36.2232 14.3269V20.1653H32.39V4.52143ZM39.2994 11.3C40.1601 11.3 40.7338 10.4142 40.7338 9.50117C40.7338 8.58817 40.0554 7.78086 39.1947 7.78086H36.2232V11.304L39.2994 11.3ZM54.0715 4C57.0441 4 59.1046 5.12137 60.7726 6.86786L58.1393 9.37132C57.0441 8.30229 55.6358 7.62383 54.0715 7.62383C51.2822 7.62383 49.4834 9.70954 49.4834 12.3429C49.4834 14.9762 51.2822 17.0629 54.0715 17.0629C55.6358 17.0629 57.0441 16.3844 58.1393 15.3154L60.6941 17.8189C59.1298 19.4607 56.9696 20.6867 54.0715 20.6867C49.1179 20.6867 45.5978 17.0105 45.5978 12.3429C45.5978 7.67516 49.1179 4 54.0715 4ZM62.2976 4.52143H66.1308V10.6749H72.2581V4.52143H76.0641V20.1653H72.2581V13.9857H66.1308V20.1653H62.2976V4.52143ZM78.2414 4.52143H84.5509C87.1581 4.52143 89.2438 6.45112 89.2438 8.90123C89.2438 10.3618 88.6398 11.2748 87.5486 12.1083V12.1607C89.1653 13.3082 89.8437 14.4034 89.8437 16.02C89.8437 18.1833 88.1224 20.1653 85.1509 20.1653H78.2414V4.52143ZM83.8725 10.7524C84.7593 10.7524 85.3824 10.1484 85.3824 9.2928C85.3824 8.48751 84.7563 7.85837 83.8725 7.85837H82.0434V10.7524H83.8725ZM84.3687 16.7498C85.2545 16.7498 85.8283 16.2284 85.8283 15.3939C85.8283 14.6379 85.2545 14.0118 84.3687 14.0118H82.0434V16.7498H84.3687ZM97.691 4H98.369L106.034 20.1653H101.915L101.133 18.5487H94.953L94.197 20.1653H90.078L97.691 4ZM99.829 15.8107L98.031 11.8456H97.978L96.153 15.8086L99.829 15.8107ZM107.378 4.52143H113.921C117.284 4.52143 119.475 6.5548 119.475 9.50117C119.475 12.2392 118.092 13.7773 115.772 14.3511L120 20.1653H115.202L111.213 14.3269V20.1653H107.381L107.378 4.52143ZM114.286 11.3C115.147 11.3 115.721 10.4142 115.721 9.50117C115.721 8.58817 115.042 7.78086 114.183 7.78086H111.21V11.304L114.286 11.3ZM13.535 4.52042L8.9025 13.118L4.3003 4.52042H0V20.1653H4.1191V13.3233L7.7781 20.1653H10.0259L13.686 13.425V20.1653H17.7739V4.52042H13.535Z" fill="black"/>
</svg>
