<?xml version="1.0" encoding="utf-8"?>
<!-- Generator: Adobe Illustrator 20.1.0, SVG Export Plug-In . SVG Version: 6.00 Build 0)  -->
<svg version="1.1" id="logos" xmlns="http://www.w3.org/2000/svg" xmlns:xlink="http://www.w3.org/1999/xlink" x="0px" y="0px"
	 viewBox="0 0 125 40" style="enable-background:new 0 0 125 40;" xml:space="preserve">
<style type="text/css">
	.st0{fill:#650995;}
	.st1{fill:none;}
</style>
<g>
	<path class="st0" d="M78.3,21.9c-0.2-0.3-0.5-0.5-0.8-0.6c-0.4,0-1.7-0.1-1.9-0.1s-0.1,0.8,0.3,1.1c0.4,0.4,0.7,0.5,2.7,0.5
		C78.6,22.8,78.4,22.2,78.3,21.9z"/>
	<path class="st0" d="M79.6,21.9c-0.2,0.3-0.4,0.9-0.3,1c2,0,2.3-0.1,2.7-0.5c0.4-0.4,0.6-1.2,0.3-1.1c-0.2,0-1.5,0-1.9,0.1
		C80.1,21.4,79.8,21.6,79.6,21.9z"/>
	<path class="st0" d="M77.8,23.8c0.1,0.1,1,0.6,1.1,0.6H79c0.1,0,1-0.5,1.1-0.6s0-0.3-0.1-0.3h-2.2C77.7,23.5,77.7,23.7,77.8,23.8z"
		/>
	<path class="st0" d="M79.9,24.7c-0.3,0.1-0.7,0.1-0.9,0.1l0,0c-0.2,0-0.7,0-0.9-0.1c-0.3-0.1-0.5,0.3-0.3,0.5s0.7,0.3,1.3,0.3l0,0
		c0.6,0,1.1-0.1,1.3-0.3C80.4,25,80.1,24.6,79.9,24.7z"/>
	<path class="st0" d="M86,19.7c0-0.9-0.5-1.8-1.2-2.3c0-1.1,0-2,0-2c-0.5,0-1,0.1-1.5,0.3c0,0,0,0-0.1-0.1c-1.1-1.2-2.6-1.9-4.4-1.9
		c-1.7,0-3.3,0.8-4.4,2c-0.4-0.1-0.9-0.2-1.4-0.2c0,0,0,0.9,0,2c-0.7,0.5-1.2,1.3-1.2,2.3s0.5,1.8,1.3,2.3c0.3,2.8,2.4,5.1,5.6,5.1
		h0.5c3.1,0,5.3-2.3,5.6-5.1C85.5,21.5,86,20.7,86,19.7z M78.9,14.7c1,0,2,0.3,2.8,0.9c0.2,0.1,0.4,0.3,0.6,0.5
		c-0.4,0.2-0.6,0.3-0.6,0.3s-1.1-0.7-2.7-0.7h-0.1c-1.6,0-2.7,0.7-2.7,0.7S76,16.2,75.5,16c0.1-0.1,0.3-0.3,0.4-0.4
		C76.8,15.1,77.8,14.7,78.9,14.7z M83.7,21.6c0,2.8-2.6,4.5-4.5,4.5h-0.5c-1.9,0-4.5-1.7-4.5-4.5c0-2.4,0-4.9,0-4.9s1.1,0.1,2,1.1
		c0,0,1.2-0.9,2.7-0.9l0,0H79l0,0c1.5,0,2.7,0.9,2.7,0.9c1-1,2-1.1,2-1.1S83.7,19.2,83.7,21.6z"/>
</g>
<path class="st0" d="M88.2,17.8l-1.4,5h1.6c0,0,0.9-3.3,1-3.5s1.1-0.4,1.7-0.4c0.4,0,0.4,0.3,0.3,0.5c-0.2,0.6-1,3.4-1,3.4h1.5
	c0,0,0.8-2.7,1-3.5s0.1-1.6-1.3-1.6c-0.7,0-1.8,0.4-2.1,0.6l-0.1-0.5H88.2z"/>
<path class="st0" d="M97,17.8c-1.3,0-2.4,0.3-2.4,0.3l-0.3,1.1c0,0,1.6-0.4,2.2-0.4c0.6,0,0.7,0,0.6,0.8c0,0,0,0,0,0.1
	c-0.2,0-0.9,0-1.3,0c-0.6,0-2.6,0.3-2.6,2.1c0,0.7,0.4,1.1,1.5,1.1c0.7,0,1.6-0.5,1.6-0.5l0.1,0.4h1.3c0,0,0.9-3,1-3.7
	C98.7,18.5,98.4,17.8,97,17.8z M95.3,21.8c-0.3,0-0.8-0.1-0.6-0.7c0.2-0.5,0.7-0.7,2-0.7c-0.1,0.5-0.2,0.9-0.3,1
	C96.3,21.6,95.6,21.8,95.3,21.8z"/>
<path class="st0" d="M104.5,18.9c-0.1-1.1-1.2-1.2-1.9-1.2s-1.4,0.4-1.4,0.4l-0.2-0.4h-1.2L98,24.4h1.5c0,0,0.2-0.8,0.5-1.8
	c0.2,0,0.8,0.2,1.1,0.2c0.4,0,1.7-0.2,2.3-0.9C104.1,21.1,104.6,20,104.5,18.9z M102.6,20.7c-0.5,1.1-1.1,1.1-1.5,1.1
	c-0.3,0-0.6-0.1-0.8-0.1c0.4-1.3,0.7-2.5,0.7-2.6c0.1-0.2,1.1-0.5,1.5-0.3S103.1,19.7,102.6,20.7z"/>
<path class="st0" d="M109,19l0.3-1c0,0-1-0.4-2.5-0.2c-1.4,0.2-2.1,1.4-1.7,2.2c0.4,0.7,1.3,0.8,1.7,1s0.4,0.8-0.8,0.8
	c-0.7,0-1.5-0.3-1.5-0.3l-0.3,1.1c0,0,0.7,0.2,1.9,0.2s2.5-0.5,2.5-1.9c0.1-0.7-0.7-1.1-1.5-1.3c-0.7-0.1-0.7-0.9,0.3-0.9
	C108.4,18.8,109,19,109,19z"/>
<path class="st0" d="M111.9,18.8h1.3l0.4-0.9h-1.4c0.2-0.8,0.4-1.4,0.4-1.4l-1.7,0.4c0,0-0.1,0.4-0.3,1h-0.8l-0.3,0.9h0.9
	c-0.3,1.1-0.7,2.4-0.8,2.7c-0.2,0.6,0,1.4,1.3,1.4c0.7,0,1.5-0.3,1.5-0.3l0.3-1.1c0,0-0.8,0.2-1.2,0.2s-0.4-0.1-0.3-0.6
	C111.3,21,111.6,19.9,111.9,18.8z"/>
<path class="st0" d="M118,20.7c0.3-0.7,1-3-1.4-3c-1,0-2.8,0.2-3.5,2.8c-0.4,1.3,0.3,2.3,2.2,2.3c0.9,0,1.9-0.3,1.9-0.3l0.3-1.1
	c0,0-1,0.3-1.8,0.3c-0.7,0-1.3-0.2-1.1-1H118z M116.3,18.7c0.5,0,0.7,0.5,0.5,1.1h-1.9C115.3,18.9,115.8,18.6,116.3,18.7z"/>
<path class="st0" d="M120.7,17.8h-1.2l-1.4,5.1h1.6c0,0,0.9-3.2,0.9-3.5c0.1-0.3,1-0.5,1.8-0.2l0.4-1.3c0,0-1.1-0.3-1.9,0.3
	C120.9,18.1,120.7,17.8,120.7,17.8z"/>
<g>
	<g>
		<path class="st0" d="M124,17.6V17h0.3c0.1,0,0.1,0,0.1,0s0.1,0,0.1,0.1v0.1v0.1c0,0-0.1,0-0.1,0.1c0,0,0,0,0.1,0.1
			c0,0,0,0.1,0.1,0.1l0.1,0.1h-0.1l-0.1-0.1l-0.1-0.1l0,0c0,0,0,0-0.1,0l0,0v0.3H124V17.6z M124.1,17.2L124.1,17.2
			c0.2,0,0.2,0,0.2,0l0,0l0,0c0,0,0,0,0-0.1l0,0c0,0,0,0-0.1,0h-0.1L124.1,17.2L124.1,17.2z"/>
	</g>
</g>
<g>
	<path class="st0" d="M124.2,18c-0.4,0-0.8-0.3-0.8-0.8s0.3-0.8,0.8-0.8s0.8,0.3,0.8,0.8S124.7,18,124.2,18z M124.2,16.7
		c-0.3,0-0.6,0.3-0.6,0.6s0.3,0.6,0.6,0.6s0.6-0.3,0.6-0.6S124.6,16.7,124.2,16.7z"/>
</g>
<path class="st0" d="M0.1,15.4c-0.1,0-0.1,0-0.1,0.1s0,0.9,0,1s0,0.2,0.2,0.2c0.1,0,0.4,0,0.4,0s1.8,6.4,1.8,6.5s0.1,0.1,0.2,0.1
	s1.5,0,1.6,0s0.2,0,0.2-0.2s1.9-6.4,1.9-6.4s0.3,0,0.4,0s0.2,0,0.2-0.2c0-0.1,0-1,0-1.1s-0.1-0.1-0.1-0.1c-0.1,0-1.8,0-1.9,0
	c-0.1,0-0.1,0-0.1,0.2c0,0.1-1,3.9-1.1,4.5s-0.2,1.3-0.2,1.3S3.4,20.4,3.3,20c-0.1-0.4-0.9-4.4-0.9-4.5s-0.1-0.2-0.2-0.2
	S0.1,15.4,0.1,15.4z"/>
<path class="st0" d="M16.1,17.6h-1.6c-0.1,0-0.1,0.1-0.1,0.1c0,0.1-0.7,2.5-0.8,2.8s-0.2,1.2-0.2,1.2s-0.2-0.9-0.2-1.2
	s-0.7-2.6-0.7-2.8c0-0.1-0.1-0.1-0.1-0.1h-1.8c-0.1,0-0.1,0.1-0.1,0.1v1.1c0,0.1,0.1,0.1,0.1,0.1H11c0,0,1.5,4.3,1.5,4.4
	c0,0.1,0.1,0.1,0.2,0.1c0.1,0,0.4,0,0.6,0c0.1,0,0.2,0,0.2,0c0.2,0,0.5,0,0.6,0s0.2,0,0.2-0.1s1.5-4.4,1.5-4.4h0.4
	c0.1,0,0.1-0.1,0.1-0.1v-1.1C16.2,17.7,16.2,17.6,16.1,17.6z"/>
<g>
	<circle class="st0" cx="8.7" cy="15.8" r="1.1"/>
	<path class="st0" d="M10.3,21.9H9.6v-3.1v-0.7v-0.4c0-0.1-0.1-0.1-0.1-0.1H7.1C7,17.6,7,17.7,7,17.7v1.1c0,0.1,0.1,0.1,0.1,0.1h0.7
		v3H7.1C7,21.9,7,22,7,22v1.1c0,0.1,0.1,0.1,0.1,0.1h3.2c0.1,0,0.1-0.1,0.1-0.1V22C10.4,22,10.4,21.9,10.3,21.9z"/>
</g>
<g>
	<circle class="st0" cx="46.9" cy="15.8" r="1.1"/>
	<path class="st0" d="M48.5,21.9h-0.7v-3.1v-0.7v-0.4c0-0.1-0.1-0.1-0.1-0.1h-2.4c-0.1,0-0.1,0.1-0.1,0.1v1.1c0,0.1,0.1,0.1,0.1,0.1
		H46v3h-0.7c-0.1,0-0.1,0.1-0.1,0.1v1.1c0,0.1,0.1,0.1,0.1,0.1h3.2c0.1,0,0.1-0.1,0.1-0.1V22C48.7,22,48.6,21.9,48.5,21.9z"/>
</g>
<path class="st0" d="M19.3,17.4c-1.8,0-2.7,1.4-2.7,2.9c0,2.3,1.3,3,2.6,3h0.1c1.3,0,2.6-0.8,2.6-3C21.9,18.8,21.1,17.4,19.3,17.4z
	 M19.4,22.2L19.4,22.2c-0.4,0-0.9-0.2-0.9-1.7c0-1.4,0.4-1.8,0.9-1.8s0.9,0.4,0.9,1.8C20.2,22,19.6,22.2,19.4,22.2z"/>
<path class="st0" d="M28.3,17.2c0.2,0.5,0.4,1.4,0.5,1.6c0,0.2,0.1,0.6,0.1,0.6s0.1-0.3,0.1-0.6s1-3.1,1.1-3.2s0.1-0.2,0.2-0.2
	s2.1,0,2.3,0s0.2,0.1,0.2,0.2c0,0.1,0,0.9,0,1s-0.1,0.2-0.2,0.2s-0.5,0-0.5,0l0.3,5.1c0,0,0.3,0,0.5,0s0.2,0.1,0.2,0.2s0,0.8,0,0.9
	s-0.1,0.2-0.2,0.2s-1.8,0-2,0c-0.1,0-0.2-0.1-0.2-0.2c0-0.1-0.1-3,0-3.5c0-0.5,0-1.7,0-1.7s-0.1,0.4-0.2,0.8
	c-0.1,0.4-0.8,2.7-0.8,2.8s-0.1,0.2-0.2,0.2s-0.8,0-0.9,0s-0.2,0-0.2-0.1s-1-3.6-1-3.6s0,0.4,0,1.1c0,0.6-0.1,4.2-0.1,4.2
	c0,0.1-0.1,0.1-0.1,0.1h-2.1c-0.1,0-0.1-0.1-0.1-0.1V22c0-0.1,0.1-0.1,0.1-0.1h0.4l0.3-5.1h-0.5c-0.1,0-0.1-0.1-0.1-0.1v-1.1
	c0-0.1,0.1-0.1,0.1-0.1h2.4c0.1,0,0.1,0.1,0.2,0.3C27.9,15.8,28.3,17.2,28.3,17.2z"/>
<path class="st0" d="M33.8,17.6c-0.1,0-0.2,0.1-0.2,0.2c0,0.1,0,0.9,0,1s0,0.2,0.1,0.2s0.5,0,0.5,0s0,2,0,2.8s0.3,1.7,1.8,1.7
	c1.1,0,1.5-0.6,1.5-0.6l0,0c0,0,0,0.2,0.1,0.2c0,0.1,0.1,0.2,0.2,0.2c0.2,0,1.6,0,1.7,0s0.2-0.1,0.2-0.2c0-0.1,0-0.9,0-1
	S39.6,22,39.6,22h-0.4c0,0-0.1-0.2-0.1-0.5c0-0.2,0-3.6,0-3.7c0-0.1,0-0.1-0.1-0.1s-1.4,0-1.5,0s-0.1,0-0.1,0.1s0,4,0,4
	s-0.4,0.4-0.8,0.4S36,22,36,21.3c0-0.6,0-3.4,0-3.5s0-0.2-0.2-0.2C35.7,17.6,33.8,17.6,33.8,17.6z"/>
<path class="st0" d="M37.9,14.2c-0.1-0.1-0.2-0.1-0.3,0c-0.1,0.1-1.8,1.6-1.9,1.7c0,0.1-0.1,0.1,0,0.2s0.7,0.7,0.7,0.7s0.1,0,0.2,0
	s2.5-1.5,2.5-1.6c0.1-0.1,0.2-0.2,0-0.3S37.9,14.2,37.9,14.2z"/>
<path class="st0" d="M42.5,17.4c-0.7,0-2.2,0.4-2.2,1.8c0,1.1,0.8,1.5,1.6,1.8c0.9,0.3,1,0.4,1,0.7s-0.3,0.4-0.7,0.4
	c-0.4,0-0.7-0.1-0.7-0.1s0-0.4,0-0.5s0-0.1-0.1-0.1s-1,0-1.1,0s-0.1,0.1-0.1,0.1s0,1,0,1.1s0,0.2,0.2,0.2c0.1,0.1,1,0.5,2.1,0.5
	s2.1-0.5,2.1-1.8c0-0.9-0.5-1.3-1.2-1.6C42.6,19.6,42,19.4,42,19c0-0.3,0.3-0.5,0.7-0.5c0.2,0,0.3,0.1,0.3,0.1s0,0.3,0,0.4
	s0.1,0.1,0.1,0.1s0.9,0,1,0s0.2-0.1,0.2-0.2c0-0.1,0-0.9,0-1s0-0.2-0.2-0.3C44,17.7,43.5,17.4,42.5,17.4z"/>
<path class="st0" d="M52,17.4c-0.8,0-2.8,0.3-2.8,3.1c0,1.3,0.5,2.9,2.6,2.9c0.9,0,1.5-0.3,1.7-0.4s0.2-0.2,0.1-0.3
	s-0.3-0.8-0.3-0.9c0-0.1-0.1-0.1-0.2,0s-0.6,0.3-1.1,0.3c-0.4,0-1.1-0.1-1.1-1.7c0-1.3,0.4-1.7,1-1.7c0.1,0,0.2,0,0.2,0s0,0.6,0,0.7
	c0,0.1,0.1,0.2,0.1,0.2c0.1,0,1,0,1.1,0s0.2,0,0.2-0.1s0-1.4,0-1.5C53.6,17.9,53.2,17.4,52,17.4z"/>
<path class="st0" d="M59.5,21.9c-0.1,0-0.5,0-0.5,0s-0.1-0.3-0.1-0.5s0-1.5,0-2.1s-0.1-1.9-2.1-1.9c-0.7,0-1.7,0.2-2.2,0.5
	c0,0.1,0.1,0.3,0.2,0.6s0.1,0.3,0.2,0.4c0,0.1,0.1,0.1,0.3,0.1c0.1,0,0.8-0.3,1.4-0.3c0.4,0,0.6,0.1,0.7,0.5c0,0.3,0,0.4,0,0.4
	s0,0-0.2,0s-2.8-0.1-2.8,1.9c0,1,0.6,1.8,1.9,1.8c0.7,0,1.2-0.4,1.4-0.6c0,0,0.1,0.2,0.1,0.3c0.1,0.1,0.1,0.1,0.3,0.1s1.4,0,1.5,0
	s0.2-0.1,0.2-0.1v-1C59.8,22,59.6,21.9,59.5,21.9z M57.3,21.9c0,0.1-0.4,0.4-0.8,0.4s-0.6-0.4-0.6-0.7s0.1-0.6,0.5-0.7
	c0.4-0.1,0.9-0.1,0.9-0.1V21.9z"/>
<g>
	<rect x="65.6" y="12.8" class="st0" width="0.4" height="4"/>
	<rect x="65.6" y="23.8" class="st0" width="0.4" height="3.4"/>
</g>
<path class="st0" d="M67.8,18.5c-0.3-0.2-0.4-0.3-0.9-0.4c-0.4-0.1-2.4-0.8-2.4-0.8v0.5c0,0,1,0.3,1.8,0.6l-1.8,0.7v0.5l2.4-1
	c0.4,0.1,0.7,0.4,0.7,0.8h0.5C68.2,19.1,68.1,18.7,67.8,18.5z"/>
<path class="st0" d="M66,19.7c-0.7,0-0.9,0.5-0.9,0.8c0,0-0.2-0.5-0.8-0.5c-0.5,0-0.9,0.5-0.9,1c0,0.6,0,1.3,0,1.3H67
	c0,0,0-1.1,0-1.5C66.9,20.5,66.7,19.7,66,19.7z M64.9,21.9h-1.1c0,0,0-0.3,0-0.8s0.3-0.6,0.5-0.6c0.5,0,0.6,0.5,0.6,0.8
	C64.9,21.5,64.9,21.8,64.9,21.9z M66.5,21.9h-1.2c0-0.2,0-0.6,0-0.9c0-0.4,0.2-0.8,0.6-0.8c0.5,0,0.6,0.5,0.6,0.7
	C66.5,21.1,66.5,21.9,66.5,21.9z"/>
<rect x="0" class="st1" width="125" height="40"/>
</svg>
