<svg width="125" height="27" viewBox="0 0 125 27" fill="none" xmlns="http://www.w3.org/2000/svg">
<path d="M38.36 20.52H33.63L32.49 23.88H30.49L34.97 11.46H37.05L41.53 23.88H39.49L38.36 20.52ZM34.11 18.98H37.86L36.01 13.53H35.96L34.11 18.98Z" fill="black"/>
<path d="M51.22 19.35C51.22 22.16 49.71 23.97 47.44 23.97C46.15 23.97 45.13 23.39 44.59 22.39H44.55V26.87H42.69V14.83H44.49V16.34H44.52C45.04 15.37 46.14 14.74 47.4 14.74C49.7 14.73 51.22 16.55 51.22 19.35ZM49.31 19.35C49.31 17.52 48.36 16.31 46.92 16.31C45.5 16.31 44.54 17.54 44.54 19.35C44.54 21.17 45.5 22.4 46.92 22.4C48.36 22.4 49.31 21.2 49.31 19.35Z" fill="black"/>
<path d="M61.18 19.35C61.18 22.16 59.67 23.97 57.4 23.97C56.11 23.97 55.09 23.39 54.55 22.39H54.51V26.87H52.65V14.83H54.45V16.34H54.48C55 15.37 56.1 14.74 57.36 14.74C59.67 14.73 61.18 16.55 61.18 19.35ZM59.27 19.35C59.27 17.52 58.32 16.31 56.88 16.31C55.46 16.31 54.5 17.54 54.5 19.35C54.5 21.17 55.46 22.4 56.88 22.4C58.32 22.4 59.27 21.2 59.27 19.35Z" fill="black"/>
<path d="M62.68 11.46H64.54V23.88H62.68V11.46Z" fill="black"/>
<path d="M74.22 21.22C73.97 22.86 72.37 23.99 70.32 23.99C67.69 23.99 66.05 22.23 66.05 19.39C66.05 16.55 67.69 14.71 70.24 14.71C72.74 14.71 74.32 16.43 74.32 19.18V19.82H67.93V19.93C67.93 21.48 68.9 22.49 70.37 22.49C71.4 22.49 72.21 22 72.46 21.22H74.22ZM67.94 18.52H72.47C72.43 17.13 71.54 16.22 70.25 16.22C68.96 16.22 68.03 17.15 67.94 18.52Z" fill="black"/>
<path d="M90.37 23.88V14.74H90.31L86.57 23.78H85.14L81.39 14.74H81.33V23.88H79.57V11.46H81.8L85.82 21.26H85.89L89.9 11.46H92.14V23.88H90.37Z" fill="black"/>
<path d="M102.04 23.88H100.26V22.32H100.22C99.7 23.4 98.8 23.98 97.41 23.98C95.44 23.98 94.23 22.71 94.23 20.63V14.82H96.09V20.27C96.09 21.65 96.74 22.38 98.03 22.38C99.37 22.38 100.18 21.45 100.18 20.04V14.82H102.04V23.88Z" fill="black"/>
<path d="M107.33 14.72C109.34 14.72 110.77 15.83 110.82 17.43H109.07C108.99 16.63 108.31 16.14 107.28 16.14C106.27 16.14 105.6 16.6 105.6 17.31C105.6 17.85 106.05 18.21 106.99 18.45L108.51 18.8C110.33 19.24 111.02 19.91 111.02 21.24C111.02 22.87 109.47 23.99 107.26 23.99C105.13 23.99 103.69 22.9 103.55 21.24H105.39C105.52 22.11 106.22 22.57 107.34 22.57C108.45 22.57 109.15 22.11 109.15 21.39C109.15 20.83 108.81 20.53 107.86 20.29L106.24 19.89C104.61 19.49 103.78 18.66 103.78 17.4C103.79 15.82 105.23 14.72 107.33 14.72Z" fill="black"/>
<path d="M112.48 12.44C112.48 11.85 112.96 11.37 113.56 11.37C114.16 11.37 114.64 11.84 114.64 12.44C114.64 13.02 114.16 13.5 113.56 13.5C112.96 13.5 112.48 13.03 112.48 12.44ZM112.63 14.83H114.49V23.88H112.63V14.83Z" fill="black"/>
<path d="M122.49 17.94C122.33 16.98 121.58 16.27 120.36 16.27C118.93 16.27 117.98 17.47 117.98 19.35C117.98 21.28 118.94 22.44 120.37 22.44C121.52 22.44 122.28 21.86 122.49 20.81H124.28C124.07 22.71 122.55 23.99 120.36 23.99C117.78 23.99 116.09 22.23 116.09 19.35C116.09 16.54 117.78 14.71 120.34 14.71C122.66 14.71 124.11 16.17 124.26 17.94H122.49Z" fill="black"/>
<path d="M33.48 1.59C34.66 1.59 35.48 2.41 35.48 3.61C35.48 4.79 34.64 5.61 33.45 5.61H32.05V7.65H31.11V1.59H33.48ZM32.05 4.78H33.23C34.04 4.78 34.51 4.36 34.51 3.61C34.51 2.84 34.05 2.42 33.23 2.42H32.05V4.78Z" fill="black"/>
<path d="M36.7 3.08H37.57V3.78H37.64C37.77 3.33 38.28 3 38.87 3C39 3 39.18 3.01 39.27 3.04V3.93C39.19 3.9 38.93 3.88 38.77 3.88C38.09 3.88 37.6 4.31 37.6 4.95V7.65H36.7V3.08Z" fill="black"/>
<path d="M44.01 6.42C43.8 7.24 43.07 7.74 42.03 7.74C40.72 7.74 39.92 6.84 39.92 5.38C39.92 3.92 40.74 2.99 42.03 2.99C43.3 2.99 44.07 3.86 44.07 5.29V5.6H40.84V5.65C40.87 6.45 41.34 6.96 42.06 6.96C42.61 6.96 42.98 6.76 43.15 6.41H44.01V6.42ZM40.84 4.94H43.15C43.13 4.22 42.69 3.76 42.03 3.76C41.37 3.76 40.89 4.23 40.84 4.94Z" fill="black"/>
<path d="M45.29 5.65V4.77H48.04V5.66L45.29 5.65Z" fill="black"/>
<path d="M49.22 6.36C49.22 5.54 49.83 5.06 50.92 5L52.16 4.93V4.53C52.16 4.05 51.84 3.78 51.22 3.78C50.72 3.78 50.37 3.96 50.27 4.29H49.4C49.49 3.5 50.23 3 51.27 3C52.42 3 53.06 3.57 53.06 4.54V7.66H52.19V7.01H52.12C51.85 7.47 51.35 7.73 50.75 7.73C49.87 7.73 49.22 7.19 49.22 6.36ZM52.16 5.97V5.58L51.04 5.65C50.41 5.69 50.12 5.91 50.12 6.31C50.12 6.72 50.48 6.96 50.97 6.96C51.66 6.97 52.16 6.53 52.16 5.97Z" fill="black"/>
<path d="M54.24 5.36C54.24 3.92 54.98 3 56.14 3C56.76 3 57.29 3.3 57.54 3.8H57.61V1.3H58.51V7.65H57.65V6.93H57.58C57.31 7.43 56.77 7.73 56.15 7.73C54.97 7.73 54.24 6.81 54.24 5.36ZM55.17 5.36C55.17 6.33 55.63 6.91 56.39 6.91C57.15 6.91 57.62 6.32 57.62 5.36C57.62 4.41 57.15 3.81 56.39 3.81C55.63 3.81 55.17 4.4 55.17 5.36Z" fill="black"/>
<path d="M59.75 5.36C59.75 3.92 60.49 3 61.65 3C62.27 3 62.8 3.3 63.05 3.8H63.12V1.3H64.02V7.65H63.16V6.93H63.09C62.82 7.43 62.28 7.73 61.66 7.73C60.48 7.73 59.75 6.81 59.75 5.36ZM60.68 5.36C60.68 6.33 61.14 6.91 61.9 6.91C62.66 6.91 63.13 6.32 63.13 5.36C63.13 4.41 62.66 3.81 61.9 3.81C61.14 3.81 60.68 4.4 60.68 5.36Z" fill="black"/>
<path d="M67.74 5.36C67.74 3.89 68.56 2.99 69.9 2.99C71.23 2.99 72.05 3.89 72.05 5.36C72.05 6.84 71.23 7.74 69.9 7.74C68.56 7.74 67.74 6.84 67.74 5.36ZM71.12 5.36C71.12 4.37 70.67 3.79 69.89 3.79C69.11 3.79 68.66 4.37 68.66 5.36C68.66 6.36 69.1 6.93 69.89 6.93C70.67 6.94 71.12 6.36 71.12 5.36Z" fill="black"/>
<path d="M73.25 3.08H74.12V3.81H74.19C74.41 3.3 74.87 3 75.55 3C76.57 3 77.13 3.61 77.13 4.7V7.66H76.23V4.92C76.23 4.19 75.91 3.82 75.24 3.82C74.57 3.82 74.15 4.27 74.15 4.98V7.65H73.25V3.08Z" fill="black"/>
<path fill-rule="evenodd" clip-rule="evenodd" d="M25.16 7.87C25.16 7.57 25.16 7.27 25.16 6.97C25.16 6.72 25.16 6.46 25.15 6.21C25.14 5.66 25.1 5.1 25 4.56C24.9 4.01 24.74 3.49 24.48 2.99C24.23 2.5 23.9 2.04 23.51 1.65C23.12 1.26 22.67 0.93 22.17 0.68C21.67 0.42 21.15 0.26 20.6 0.16C20.05 0.06 19.5 0.03 18.95 0.01C18.7 0.01 18.45 0 18.19 0C17.89 0 17.59 0 17.29 0H7.87C7.57 0 7.27 0 6.97 0C6.72 0 6.46 0 6.21 0.01C5.66 0.03 5.1 0.06 4.56 0.16C4 0.26 3.49 0.42 2.99 0.68C2.49 0.93 2.04 1.26 1.65 1.65C1.26 2.04 0.93 2.49 0.68 2.99C0.42 3.49 0.26 4 0.16 4.56C0.06 5.11 0.03 5.66 0.01 6.21C0.01 6.46 0 6.72 0 6.97C0 7.27 0 7.57 0 7.87V17.29C0 17.59 0 17.89 0 18.19C0 18.44 0 18.7 0.01 18.95C0.02 19.5 0.06 20.06 0.16 20.6C0.26 21.15 0.42 21.67 0.68 22.17C0.93 22.66 1.26 23.12 1.65 23.51C2.04 23.9 2.49 24.23 2.99 24.48C3.49 24.74 4 24.91 4.56 25C5.11 25.1 5.66 25.13 6.21 25.15C6.46 25.16 6.72 25.16 6.97 25.16C7.27 25.16 7.57 25.16 7.87 25.16H17.29C17.59 25.16 17.89 25.16 18.19 25.16C18.44 25.16 18.7 25.16 18.95 25.15C19.5 25.14 20.06 25.1 20.6 25C21.15 24.9 21.67 24.74 22.17 24.48C22.66 24.23 23.12 23.9 23.51 23.51C23.9 23.12 24.23 22.67 24.48 22.17C24.74 21.67 24.9 21.15 25 20.6C25.1 20.05 25.13 19.5 25.15 18.95C25.16 18.7 25.16 18.44 25.16 18.19C25.16 17.89 25.16 17.59 25.16 17.29V7.87Z" fill="url(#paint0_linear)"/>
<path fill-rule="evenodd" clip-rule="evenodd" d="M17.79 3.84C17.73 3.85 17.19 3.94 17.12 3.95L9.64001 5.47C9.44001 5.51 9.29001 5.58 9.17001 5.68C9.03001 5.8 8.95001 5.97 8.92001 6.16C8.92001 6.21 8.91001 6.29 8.91001 6.42C8.91001 6.42 8.91001 14.06 8.91001 15.78C8.91001 16 8.89001 16.21 8.74001 16.39C8.59001 16.57 8.41001 16.63 8.19001 16.67C8.03001 16.7 7.86001 16.74 7.70001 16.77C7.08001 16.89 6.68001 16.98 6.32001 17.12C5.97001 17.26 5.71001 17.43 5.50001 17.64C5.09001 18.07 4.92001 18.66 4.98001 19.2C5.03001 19.67 5.24001 20.11 5.60001 20.45C5.84001 20.67 6.15001 20.84 6.51001 20.92C6.88001 20.99 7.28001 20.97 7.86001 20.85C8.17001 20.79 8.46001 20.69 8.73001 20.53C9.00001 20.37 9.24001 20.15 9.42001 19.89C9.60001 19.63 9.72001 19.34 9.79001 19.03C9.86001 18.71 9.87001 18.42 9.87001 18.1V9.98C9.87001 9.54 9.99001 9.43 10.34 9.35C10.34 9.35 16.56 8.1 16.85 8.04C17.26 7.96 17.45 8.08 17.45 8.5V14.04C17.45 14.26 17.45 14.48 17.3 14.66C17.15 14.84 16.97 14.9 16.75 14.94C16.59 14.97 16.42 15.01 16.26 15.04C15.64 15.16 15.24 15.25 14.88 15.39C14.53 15.53 14.27 15.7 14.06 15.91C13.65 16.34 13.47 16.93 13.52 17.47C13.57 17.94 13.79 18.38 14.16 18.72C14.4 18.94 14.71 19.11 15.07 19.18C15.44 19.25 15.84 19.23 16.42 19.11C16.73 19.05 17.02 18.96 17.29 18.79C17.56 18.63 17.8 18.41 17.98 18.15C18.16 17.89 18.28 17.6 18.35 17.29C18.42 16.97 18.42 16.68 18.42 16.36V4.51C18.42 4.07 18.19 3.81 17.79 3.84Z" fill="white"/>
<defs>
<linearGradient id="paint0_linear" x1="12.58" y1="25.0655" x2="12.58" y2="0.542101" gradientUnits="userSpaceOnUse">
<stop stop-color="#FA233B"/>
<stop offset="1" stop-color="#FB5C74"/>
</linearGradient>
</defs>
</svg>
