<?xml version="1.0" encoding="utf-8"?>
<!-- Generator: Adobe Illustrator 19.2.0, SVG Export Plug-In . SVG Version: 6.00 Build 0)  -->
<svg version="1.1" xmlns="http://www.w3.org/2000/svg" xmlns:xlink="http://www.w3.org/1999/xlink" x="0px" y="0px"
	 viewBox="0 0 125 40" enable-background="new 0 0 125 40" xml:space="preserve">
<g id="bg" display="none">
	<rect display="inline" fill="#FFFFFF" width="125" height="40"/>
</g>
<g id="icons">
	<g>
		<path fill-rule="evenodd" clip-rule="evenodd" fill="#0F0F05" d="M122.643,1.74c1.301,0,2.357,1.056,2.357,2.357
			c0,1.301-1.056,2.357-2.357,2.357c-1.3,0-2.356-1.056-2.356-2.357C120.287,2.796,121.343,1.74,122.643,1.74z M122.657,2.059
			c1.132,0,2.048,0.919,2.048,2.051c0,1.134-0.916,2.051-2.048,2.051c-1.132,0-2.051-0.918-2.051-2.051
			C120.606,2.978,121.525,2.059,122.657,2.059z M121.699,2.726v2.689h0.504V4.27h0.508l0.533,1.145h0.586l-0.613-1.251
			c0,0,0.267-0.023,0.425-0.213c0.162-0.191,0.188-0.427,0.188-0.427V3.392c0,0-0.031-0.382-0.374-0.533
			c-0.326-0.144-0.744-0.133-0.744-0.133H121.699z M122.203,3.071v0.88h0.481c0,0,0.612-0.017,0.612-0.348c0-0.328,0,0.064,0-0.185
			c0-0.332-0.452-0.347-0.452-0.347H122.203z"/>
		<g>
			<path fill-rule="evenodd" clip-rule="evenodd" fill="#0F0F05" d="M9.391,1.74v24.522c0,1.352-1.267,2.608-2.608,2.608H0v9.391
				h6.678c5.612,0,12.104-4.458,12.104-11.999V1.74H9.391z"/>
			<path fill="#0F0F05" d="M98.4,19.998L87.966,38.26h9.388l5.74-9.913l5.74,9.913h9.388l-10.434-18.263L118.223,1.74h-9.388
				l-5.74,9.914l-5.74-9.914h-9.388L98.4,19.998z"/>
			<path fill-rule="evenodd" clip-rule="evenodd" fill="#0F0F05" d="M71.164,1.113c-4.942,0-9.436,1.901-12.803,5.006
				c2.161,2.697,3.708,5.905,4.425,9.414c1.597-2.992,4.751-5.028,8.378-5.028c5.245,0,9.496,4.251,9.496,9.495
				s-4.251,9.492-9.496,9.492c-3.629,0-6.782-2.034-8.378-5.026c-0.718,3.511-2.264,6.719-4.425,9.414
				c3.367,3.106,7.861,5.006,12.803,5.006c10.433,0,18.887-8.456,18.887-18.886S81.597,1.113,71.164,1.113z"/>
			<path fill-rule="evenodd" clip-rule="evenodd" fill="#0F0F05" d="M41.008,17.915c1.152,0,2.088,0.932,2.088,2.086
				s-0.935,2.088-2.088,2.088c-1.151,0-2.086-0.935-2.086-2.088S39.857,17.915,41.008,17.915z"/>
			<path fill-rule="evenodd" clip-rule="evenodd" fill="#0F0F05" d="M59.895,19.998c0-10.429-8.456-18.885-18.888-18.885
				c-10.43,0-18.887,8.456-18.887,18.885c0,10.433,8.457,18.889,18.887,18.889c2.649,0,5.169-0.548,7.455-1.533l5.382,1.533
				l-0.325-4.744C57.427,30.682,59.895,25.632,59.895,19.998z M53.112,8.313c3.032,3.083,3.652,6.887,3.652,6.887
				s-2.06-3.862-4.266-6.243c-2.289-2.469-5.75-4.14-5.75-4.14S50.213,5.364,53.112,8.313z M30.261,25.842
				c0,0,0.688,1.134,1.983,2.506c1.174,1.241,2.504,2.191,2.504,2.191s-1.257-0.026-2.923-1.67
				C30.041,27.107,30.261,25.842,30.261,25.842z M31.055,29.723c1.718,1.731,4.101,3.196,4.101,3.196s-2.437-0.262-4.745-2.614
				c-2.494-2.547-2.883-5.032-2.883-5.032S29.248,27.902,31.055,29.723z M28.945,31.55c-3.033-3.068-3.679-6.623-3.679-6.623
				s2.11,3.703,4.368,6.029c2.341,2.41,5.873,4.1,5.873,4.1S32.045,34.682,28.945,31.55z M41.008,29.493
				c-5.243,0-9.493-4.248-9.493-9.495c0-5.241,4.25-9.494,9.493-9.494c5.245,0,9.494,4.253,9.494,9.494
				C50.503,25.245,46.253,29.493,41.008,29.493z M51.86,14.156c0,0-0.791-1.305-2.102-2.666c-1.174-1.221-2.356-1.997-2.356-1.997
				s1.176-0.185,2.832,1.502C51.997,12.788,51.86,14.156,51.86,14.156z M51.081,10.264c-1.68-1.776-4.043-3.195-4.043-3.195
				s2.236,0.163,4.7,2.627c2.525,2.523,2.676,4.993,2.676,4.993S52.847,12.128,51.081,10.264z"/>
		</g>
	</g>
</g>
</svg>
