<?xml version="1.0" encoding="utf-8"?>
<!-- Generator: Adobe Illustrator 20.1.0, SVG Export Plug-In . SVG Version: 6.00 Build 0)  -->
<svg version="1.1" id="logos" xmlns="http://www.w3.org/2000/svg" xmlns:xlink="http://www.w3.org/1999/xlink" x="0px" y="0px"
	 viewBox="0 0 125 40" enable-background="new 0 0 125 40" xml:space="preserve">
<g id="Layer_2_3_">
</g>
<g id="Layer_2_1_">
</g>
<g>
	<g>
		<linearGradient id="SVGID_1_" gradientUnits="userSpaceOnUse" x1="-1.1997" y1="19.9868" x2="44.8952" y2="19.9868">
			<stop  offset="0" style="stop-color:#F68439"/>
			<stop  offset="0.5369" style="stop-color:#F2655C"/>
		</linearGradient>
		<path fill="url(#SVGID_1_)" d="M35.781,15.32c-5.565-1.052-6.859,2.739-9.552,2.278c-3.33-0.57-2.804-7.011-9.859-7.405
			C12.74,9.99,6.337,12.998,0.115,28.027c-0.613,1.534,1.402,2.498,2.016,1.052c0.613-1.446,6.485-16.782,14.372-16.606
			c5.608,0.394,4.684,6.643,9.377,7.361c3.724,0.57,5.592-3.082,8.851-2.41c2.76,0.57,4.951,2.629,7.668,11.348
			c0.613,1.84,2.454,0.833,2.191-0.394C44.326,27.15,41.346,16.371,35.781,15.32z"/>
		<linearGradient id="SVGID_2_" gradientUnits="userSpaceOnUse" x1="-1.1997" y1="24.8858" x2="44.8952" y2="24.8858">
			<stop  offset="0" style="stop-color:#F68439"/>
			<stop  offset="0.5369" style="stop-color:#F2655C"/>
		</linearGradient>
		<path fill="url(#SVGID_2_)" d="M30.655,22.506c-3.242-0.131-4.069,2.506-5.521,2.541c-1.796,0.044-2.016-4.951-6.879-5.039
			c-2.716-0.049-5.696,2.059-8.588,8.15c-0.438,1.227,1.314,2.366,2.059,0.876c0.613-1.227,3.155-6.792,6.529-6.792
			s3.242,4.82,6.529,4.995s3.768-2.848,5.871-2.498s2.41,2.147,3.549,4.382c0.482,1.183,2.41,0.613,2.059-0.745
			C35.913,27.019,34.115,22.646,30.655,22.506z"/>
	</g>
	<polygon fill="#231F20" points="53.412,14.27 53.019,14.27 51.336,26.533 52.627,26.533 53.889,18.086 57.986,24.849 
		58.435,24.849 62.588,18.143 63.739,26.533 65.114,26.533 63.374,14.27 63.037,14.27 58.225,22.324 	"/>
	<polygon fill="#231F20" points="79.032,14.27 78.64,14.27 76.956,26.533 78.247,26.533 79.509,18.086 83.606,24.849 84.055,24.849 
		88.208,18.143 89.359,26.533 90.734,26.533 88.994,14.27 88.657,14.27 83.845,22.324 	"/>
	<polygon fill="#231F20" points="68.088,17.413 66.601,17.413 70.361,25.747 68.622,29.816 69.997,29.816 75.469,17.413 
		74.009,17.413 71.035,24.148 	"/>
	<path fill="#231F20" d="M94.466,17.413h-1.375c0,0,0,4.209,0,4.714c0,2.582,1.038,4.574,3.985,4.574s4.013-1.936,4.013-4.35
		s0-4.939,0-4.939h-1.431c0,0,0,4.882,0,5.219c0,1.824-0.954,2.806-2.568,2.806c-1.277,0-2.624-0.673-2.624-2.918
		S94.466,17.413,94.466,17.413z"/>
	<path fill="#231F20" d="M108.132,19.377l0.898-0.842c0,0-1.207-1.375-2.582-1.375s-2.61,1.01-2.61,2.554
		c0,2.722,3.816,2.497,3.816,4.293c0,0.505-0.337,1.487-1.628,1.487c-0.898,0-1.768-1.122-1.768-1.122l-0.87,1.01
		c0,0,0.954,1.319,2.722,1.319c1.768,0,2.918-1.151,2.918-2.694c0-2.582-3.901-2.75-3.901-4.378c0-0.73,0.589-1.094,1.319-1.094
		C107.178,18.535,108.132,19.377,108.132,19.377z"/>
	<rect x="111.724" y="17.413" fill="#231F20" width="1.403" height="9.092"/>
	<ellipse fill="#231F20" cx="112.404" cy="14.81" rx="1.115" ry="1.059"/>
	<path fill="#231F20" d="M123.921,23.846c-0.65,1.009-1.816,1.683-3.148,1.683c-2.039,0-3.692-1.579-3.692-3.526
		c0-1.947,1.653-3.526,3.692-3.526c1.328,0,2.493,0.67,3.143,1.676l1.069-0.747c-0.866-1.345-2.408-2.245-4.226-2.245
		c-2.821,0-5.107,2.136-5.107,4.77c0,2.635,1.89,4.77,5.107,4.77c1.952,0,3.421-0.84,4.24-2.121L123.921,23.846z"/>
</g>
<rect x="0" y="0" fill="none" width="125" height="40"/>
</svg>
