<?xml version="1.0" encoding="utf-8"?>
<!-- Generator: Adobe Illustrator 20.1.0, SVG Export Plug-In . SVG Version: 6.00 Build 0)  -->
<svg version="1.1" id="logos" xmlns="http://www.w3.org/2000/svg" xmlns:xlink="http://www.w3.org/1999/xlink" x="0px" y="0px"
	 viewBox="0 0 125 40" enable-background="new 0 0 125 40" xml:space="preserve">
<g id="Layer_2_1_">
</g>
<g>
	<path fill="#585656" d="M53.626,11.345c0,0-6.359-0.664-13.383-0.38v3.132c0,0,8.922,0,13.383,0.475V11.345z"/>
	<path fill="#585656" d="M48.88,15.616c-5.22,0-11.295,1.519-11.295,1.519v3.512c0,0,14.617-4.271,15.281,0.854
		c0.664,5.125-10.63,5.41-12.054,5.315v3.322c8.068,0,17.188-2.134,15.85-9.776C55.998,16.565,51.827,15.616,48.88,15.616z"/>
	<path fill="#585656" d="M77.639,15.616v-2.883H67.315c0.11-0.829,0.2-1.644,0.263-2.432h-3.512c0,0-0.094,0.914-0.304,2.432h-3.777
		v2.883h3.339c-0.625,3.797-1.687,9.089-3.339,14.047h3.417c0,0,2.219-7.02,3.463-14.047H77.639z"/>
	<rect x="68.147" y="17.609" fill="#585656" width="10.915" height="2.942"/>
	<path fill="#585656" d="M70.52,26.104c-1.708-1.186,1.044-4.034,1.044-4.034h-3.417c-2.752,3.417-2.278,8.068,5.03,8.068
		c4.176,0,6.359-0.475,6.359-0.475v-3.559C79.537,26.104,72.699,27.617,70.52,26.104z"/>
	<path fill="#585656" d="M86.56,12.733c0,8.483-1.708,11.33-4.366,13.371v4.034c5.315-2.278,8.068-8.589,8.068-19.243H86.56V12.733z
		"/>
	<path fill="#585656" d="M97.95,12.733v-1.839h-3.702c0,10.654,2.752,16.965,8.068,19.243v-4.034
		C99.658,24.063,97.95,21.216,97.95,12.733z"/>
	<path fill="#585656" d="M119.26,20.526c1.718-2.616,2.83-5.703,2.83-9.213H106.46v3.29h11.453c0,0-1.835,8.542-12.592,12.149v3.385
		c3.472-0.711,8.03-2.992,11.518-6.598c0.725,1.493,2.96,5.14,8.161,7.072v-3.986C125,26.626,120.852,24.626,119.26,20.526z"/>
	<path fill="#585656" d="M101.106,9.703c-1.28,0-2.317,1.038-2.317,2.317c0,1.28,1.038,2.317,2.317,2.317s2.317-1.038,2.317-2.317
		C103.423,10.741,102.386,9.703,101.106,9.703z M101.106,13.231c-0.668,0-1.21-0.542-1.21-1.21c0-0.668,0.542-1.21,1.21-1.21
		c0.668,0,1.21,0.542,1.21,1.21C102.316,12.689,101.774,13.231,101.106,13.231z"/>
</g>
<g>
	<circle fill="#FFFFFF" cx="15.044" cy="19.744" r="14.854"/>
	<path fill="#585656" d="M15.044,34.788C6.749,34.788,0,28.04,0,19.744C0,11.449,6.749,4.701,15.044,4.701
		s15.044,6.749,15.044,15.044C30.087,28.04,23.339,34.788,15.044,34.788z M15.044,5.08C6.958,5.08,0.38,11.659,0.38,19.744
		s6.578,14.664,14.664,14.664s14.664-6.578,14.664-14.664S23.129,5.08,15.044,5.08z"/>
</g>
<g>
	<path fill="#EB5405" d="M10.745,8.573v10.681c-3.563-0.759-4.86,1.835-4.86,2.911c0,1.376,1.708,2.8,4.129,1.756
		c1.614-0.807,2.23-2.088,2.23-3.18c0-0.505,0-3.053,0-5.645c2.797-0.665,7.31-0.163,9.131,0.085v4.073
		c-3.563-0.759-4.86,1.835-4.86,2.911c0,1.376,1.708,2.8,4.129,1.756c1.614-0.807,2.23-2.088,2.23-3.18c0-1.091,0-11.901,0-11.901
		C17.63,6.836,10.745,8.573,10.745,8.573z"/>
</g>
<g>
	<g>
		<path fill="#EB5405" d="M9.396,25.93c-0.5,0-0.954,0.21-1.297,0.55v-0.392H7.34v5.284h0.759v-1.784
			c0.343,0.341,0.797,0.551,1.297,0.551c1.064,0,1.93-0.944,1.93-2.104S10.461,25.93,9.396,25.93z M9.396,29.378
			c-0.645,0-1.171-0.603-1.171-1.345c0-0.741,0.525-1.344,1.171-1.344c0.645,0,1.171,0.603,1.171,1.344
			C10.567,28.775,10.042,29.378,9.396,29.378z"/>
	</g>
	<g>
		<path fill="#EB5405" d="M15.376,26.59c-0.352-0.406-0.849-0.661-1.401-0.661c-1.064,0-1.93,0.944-1.93,2.104
			s0.866,2.104,1.93,2.104c0.552,0,1.048-0.255,1.401-0.661v0.661h0.759v-4.05h-0.759V26.59z M13.975,29.378
			c-0.645,0-1.171-0.603-1.171-1.345c0-0.741,0.525-1.344,1.171-1.344s1.17,0.603,1.17,1.344
			C15.146,28.775,14.621,29.378,13.975,29.378z"/>
	</g>
	<g>
		<path fill="#EB5405" d="M18.482,27.671c-0.532-0.176-0.686-0.265-0.686-0.523c0-0.228,0.171-0.459,0.498-0.459
			c0.301,0,0.546,0.206,0.546,0.459h0.759c0-0.671-0.585-1.218-1.305-1.218c-0.705,0-1.258,0.535-1.258,1.218
			c0,0.006,0.002,0.01,0.002,0.016h-0.002c0,0.836,0.722,1.075,1.2,1.233c0.532,0.176,0.686,0.265,0.686,0.523
			c0,0.228-0.171,0.459-0.498,0.459c-0.301,0-0.546-0.206-0.546-0.459H17.12c0,0.671,0.585,1.218,1.305,1.218
			c0.705,0,1.258-0.535,1.258-1.218c0-0.006-0.002-0.01-0.002-0.016h0.002C19.683,28.067,18.96,27.829,18.482,27.671z"/>
	</g>
	<g>
		<path fill="#EB5405" d="M23.135,28.903c0-0.836-0.722-1.075-1.2-1.233c-0.532-0.176-0.686-0.265-0.686-0.523
			c0-0.228,0.171-0.459,0.498-0.459c0.301,0,0.546,0.206,0.546,0.459h0.759c0-0.671-0.585-1.218-1.305-1.218
			c-0.705,0-1.258,0.535-1.258,1.218c0,0.006,0.002,0.01,0.002,0.016h-0.002c0,0.836,0.722,1.075,1.2,1.233
			c0.532,0.176,0.686,0.265,0.686,0.523c0,0.228-0.171,0.459-0.498,0.459c-0.301,0-0.546-0.206-0.546-0.459h-0.759
			c0,0.671,0.585,1.218,1.305,1.218c0.705,0,1.258-0.535,1.258-1.218c0-0.006-0.002-0.01-0.002-0.016H23.135z"/>
	</g>
</g>
<rect x="0" fill="none" width="125" height="40"/>
</svg>
