<?xml version="1.0" encoding="utf-8"?>
<!-- Generator: Adobe Illustrator 16.0.0, SVG Export Plug-In . SVG Version: 6.00 Build 0)  -->
<!DOCTYPE svg PUBLIC "-//W3C//DTD SVG 1.1//EN" "http://www.w3.org/Graphics/SVG/1.1/DTD/svg11.dtd">
<svg version="1.1" xmlns="http://www.w3.org/2000/svg" xmlns:xlink="http://www.w3.org/1999/xlink" x="0px" y="0px" width="125px"
	 height="40px" viewBox="0 0 125 40" enable-background="new 0 0 125 40" xml:space="preserve">
<g id="Layer_1">
	<g>
		<path fill="#0071CE" d="M31.5,12.2V8.4h5.2v3.8H31.5z M36.6,31.2V13.8h-4.9v17.4H36.6z"/>
		<path fill="#0071CE" d="M12.8,13.8c-0.7-0.2-1.4-0.4-2.3-0.3c-2.9-0.1-4.6,1.4-5.6,3.8v-3.5H0v17.4h4.9v-6.4c0-4,1.8-5.9,4.8-6.1
			C10.4,16.6,11.4,15,12.8,13.8z"/>
		<path fill="#0071CE" d="M59.8,17.5c-2.5,0.1-5.6-1.9-6.8-2.7c-0.1-0.1-0.2-0.1-0.3-0.2c-0.1-0.1-0.3-0.1-0.4-0.2v7.3h0
			c0,0.7-0.2,1.4-0.6,2l0,0.1c-1.2,1.9-3.7,3-6,2.2c-2.3-0.8-2.9-3-1.7-4.9l0-0.1c1.2-1.9,3.7-3,6-2.2c0.2,0.1,0.3,0.1,0.5,0.2v-5.3
			c-0.8-0.2-1.7-0.4-2.7-0.4c-5.4,0-9.5,4.1-9.5,9.1v0.1c0,5,4,9,9.4,9c5.4,0,9.5-4.1,9.5-9.1v-0.1c0-0.4,0-0.8-0.1-1.1
			C60,20.6,61.2,17.6,59.8,17.5z"/>
		<g>
			<path fill="#0071CE" d="M55.9,29.8h-0.5v-0.3h1.4v0.3h-0.5v1.4h-0.4V29.8z"/>
			<path fill="#0071CE" d="M57,29.5h0.5l0.4,1.2h0l0.4-1.2h0.5v1.7h-0.4V30h0l-0.4,1.2h-0.3L57.4,30h0v1.2H57V29.5z"/>
		</g>
		<path fill="#0071CE" d="M24.5,31.2v-2.5c-1.2,1.6-2.9,2.8-5.4,2.8c-4.1,0-7.9-3.2-7.9-9v-0.1c0-5.8,3.8-9,7.9-9
			c2.6,0,4.3,1.2,5.4,2.6V8.4h4.9v22.8H24.5z M16.5,21.1L16.5,21.1c-1.2,2-0.6,4.2,1.6,5c2.3,0.8,4.8-0.3,6-2.2l0-0.1
			c1.2-2,0.6-4.2-1.7-4.9C20.2,18.1,17.7,19.2,16.5,21.1z"/>
	</g>
</g>
<g id="Layer_2">
</g>
<g id="Layer_3">
</g>
<g id="Layer_4">
</g>
</svg>
