<?xml version="1.0" encoding="utf-8"?>
<!-- Generator: Adobe Illustrator 21.0.0, SVG Export Plug-In . SVG Version: 6.00 Build 0)  -->
<svg version="1.1" xmlns="http://www.w3.org/2000/svg" xmlns:xlink="http://www.w3.org/1999/xlink" x="0px" y="0px"
	 viewBox="0 0 125 40" enable-background="new 0 0 125 40" xml:space="preserve">
<g id="bg" display="none">
	<rect display="inline" fill="#FFFFFF" width="125" height="40"/>
</g>
<g id="icons">
	<g id="K9isuE.tif">
		<g>
			<path d="M29.199,11.156c0.101-0.023,0.218-0.074,0.335-0.073c3.135,0.04,6.283-0.079,9.4,0.178
				c3.048,0.251,5.586,1.666,7.079,4.491c1.119,2.118,1.251,4.391,0.752,6.705c-0.778,3.613-3.021,5.849-6.514,6.943
				c-1.599,0.501-3.241,0.552-4.879,0.612c-1.861,0.068-3.726,0.017-5.589,0.012c-0.182,0-0.364-0.039-0.526-0.057
				C29.022,29.244,28.973,12.089,29.199,11.156z M34.961,26.38c0.912-0.101,1.71-0.141,2.489-0.287
				c1.234-0.231,2.146-0.943,2.684-2.08c0.853-1.803,0.995-3.704,0.579-5.627c-0.587-2.716-2.962-4.119-5.752-3.418
				C34.961,18.69,34.961,22.426,34.961,26.38z"/>
			<path d="M14.101,29.973c-1.568,0-2.983,0-4.482,0c0-6.279,0-12.503,0-18.877c1.298-0.045,2.616-0.023,3.971-0.009
				c2.637,3.284,5.176,6.628,7.799,9.904c0.081-0.031,0.162-0.062,0.243-0.092c0-3.233,0-6.466,0-9.762c1.57,0,3.016,0,4.461,0
				c0.213,0.66,0.251,17.718,0.019,18.875c-1.078,0-2.188,0.048-3.288-0.032c-0.291-0.021-0.596-0.405-0.82-0.683
				c-2.051-2.532-4.085-5.079-6.127-7.619c-0.503-0.626-1.015-1.245-1.68-2.061c-0.159,1.014-0.076,1.828-0.09,2.632
				c-0.015,0.87-0.004,1.74-0.004,2.609c0,0.839-0.002,1.677-0.002,2.516C14.1,28.208,14.101,29.043,14.101,29.973z"/>
			<path fill="#D20100" d="M108.242,20.461c0.133,3.05-0.906,5.607-3.167,7.647c-1.481,1.336-3.239,2.033-5.222,2.171
				c-1.855,0.129-3.662-0.042-5.336-0.936c-3.071-1.64-4.679-4.256-4.987-7.676c-0.183-2.033-0.009-4.044,0.981-5.886
				c1.567-2.914,4.008-4.556,7.303-4.952c2.03-0.244,3.976-0.001,5.743,1.045c3.005,1.778,4.578,4.44,4.683,7.947
				C108.248,20.038,108.242,20.256,108.242,20.461z M102.201,20.665c0.028-1.352-0.067-2.642-0.556-3.875
				c-0.509-1.284-1.536-1.992-2.859-1.966c-1.28,0.025-2.286,0.73-2.712,2.02c-0.81,2.454-0.808,4.934-0.006,7.386
				c0.494,1.511,1.586,2.049,2.791,2.047c1.249-0.002,2.162-0.42,2.815-2.008C102.155,23.097,102.233,21.866,102.201,20.665z"/>
			<path fill="#D20100" d="M113.038,19.803c-1.572-2.775-3.112-5.493-4.737-8.362c2.014-0.387,3.919-0.339,5.863-0.633
				c0.726,1.538,1.423,3.014,2.187,4.632c1.104-1.482,1.703-3.123,2.724-4.602c1.614,0.093,3.243,0.187,5.049,0.291
				c-0.191,0.388-0.302,0.687-0.472,0.947c-1.408,2.156-2.807,4.317-4.256,6.446c-0.408,0.6-0.414,1.044-0.027,1.669
				c1.764,2.847,3.473,5.728,5.2,8.598c0.126,0.21,0.236,0.429,0.432,0.788c-2.025,0.325-3.972,0.474-5.96,0.712
				c-1.08-2.033-2.136-4.02-3.281-6.174c-0.871,1.009-1.326,2.091-1.932,3.068c-0.62,0.998-1.192,2.025-1.821,3.099
				c-1.639-0.215-3.246-0.425-5.031-0.659C108.89,26.188,111.058,23.11,113.038,19.803z"/>
			<path fill="#D20100" d="M76.823,30.055c-2.252-6.184-4.483-12.312-6.769-18.591c2.117-0.23,4.07-0.443,6.088-0.662
				c1.331,4.293,2.63,8.482,3.929,12.67c0.083,0.006,0.166,0.011,0.249,0.017c0.813-2.048,1.404-4.178,2.117-6.262
				c0.714-2.087,1.375-4.192,2.101-6.417c1.629,0.166,3.209,0.327,4.951,0.504c-0.205,0.64-0.344,1.167-0.541,1.67
				c-2.11,5.401-4.23,10.799-6.346,16.197c-0.305,0.777-0.41,0.866-1.221,0.871C79.895,30.061,78.409,30.055,76.823,30.055z"/>
			<path d="M70.341,26.298c0,1.293,0,2.433,0,3.561c-0.704,0.205-11.479,0.254-12.548,0.067c-0.208-0.676-0.26-17.771-0.044-18.793
				c3.785,0,7.583,0,11.438,0c0,1.221,0,2.381,0,3.652c-1.895,0-3.742,0-5.662,0c0,1.17,0,2.232,0,3.402c1.823,0,3.61,0,5.476,0
				c0,1.289,0,2.472,0,3.768c-1.837,0-3.651,0-5.493,0c0,1.493,0,2.873,0,4.342C65.791,26.298,68.012,26.298,70.341,26.298z"/>
			<path d="M54.712,29.956c-1.873,0-3.693,0-5.502,0c-0.205-0.692-0.272-17.637-0.075-18.823c1.835,0,3.682,0,5.531,0
				C54.882,11.744,54.942,28.676,54.712,29.956z"/>
			<path d="M5.612,29.942c-1.786,0-3.542,0-5.369,0c0-4.49,0-8.937,0-13.447c1.805,0,3.555,0,5.369,0
				C5.612,20.975,5.612,25.427,5.612,29.942z"/>
			<path fill="#D20100" d="M2.877,15.38c-1.706-0.005-2.787-1.161-2.874-2.834c-0.076-1.461,1.32-2.923,2.982-2.86
				c1.424,0.053,2.796,1.132,2.784,2.877C5.755,14.489,4.247,15.555,2.877,15.38z"/>
		</g>
	</g>
</g>
</svg>
