<?xml version="1.0" encoding="utf-8"?>
<!-- Generator: Adobe Illustrator 20.1.0, SVG Export Plug-In . SVG Version: 6.00 Build 0)  -->
<svg version="1.1" id="logos" xmlns="http://www.w3.org/2000/svg" xmlns:xlink="http://www.w3.org/1999/xlink" x="0px" y="0px"
	 viewBox="0 0 125 40" enable-background="new 0 0 125 40" xml:space="preserve">
<g>
	<g>
		<path fill="#23ADE5" d="M5.186,39.97c-0.215,0.003-0.299-0.095-0.316-0.305c-0.123-1.5-0.246-2.999-0.383-4.497
			c-0.124-1.359-0.263-2.717-0.401-4.075c-0.142-1.396-0.284-2.793-0.437-4.188c-0.135-1.233-0.277-2.466-0.429-3.698
			c-0.189-1.532-0.379-3.063-0.59-4.592c-0.288-2.082-0.561-4.167-0.904-6.24c-0.46-2.785-0.978-5.561-1.475-8.34
			C0.185,3.66,0.099,3.289,0.013,2.919C-0.016,2.794-0.003,2.721,0.13,2.668c2.023-0.813,4.044-1.633,6.067-2.444
			C6.419,0.135,6.656,0.079,6.89,0.026c0.259-0.059,0.306-0.017,0.299,0.247C7.157,1.53,7.115,2.787,7.09,4.044
			C7.07,5.099,7.041,6.155,7.066,7.21c0.051,2.133,0.114,4.266,0.214,6.397c0.079,1.689,0.204,3.376,0.339,5.061
			c0.129,1.616,0.295,3.228,0.446,4.842c0.046,0.494,0.104,0.987,0.149,1.481c0.013,0.148,0.05,0.236,0.224,0.209
			c2.228-0.345,4.443-0.168,6.647,0.205c2.381,0.402,4.694,1.047,6.901,2.042c0.986,0.445,1.931,0.96,2.758,1.672
			c1.031,0.887,1.264,1.742,0.822,3.156c-0.221,0.708-0.64,1.308-1.136,1.852c-1.182,1.295-2.641,2.2-4.199,2.962
			c-2.311,1.13-4.747,1.877-7.285,2.269c-1.448,0.223-2.905,0.39-4.361,0.547C7.891,39.979,5.621,39.964,5.186,39.97z
			 M12.379,36.103c0.103-0.064,0.164-0.096,0.219-0.136c0.993-0.717,1.996-1.422,2.976-2.157c0.806-0.604,1.592-1.236,2.373-1.872
			c0.278-0.226,0.264-0.276-0.071-0.412c-1.056-0.428-2.11-0.863-3.179-1.258c-0.981-0.363-1.978-0.683-2.972-1.011
			c-0.279-0.092-0.302-0.057-0.263,0.222c0.224,1.627,0.446,3.255,0.671,4.882C12.211,34.928,12.292,35.493,12.379,36.103z"/>
		<path fill="#23ADE5" d="M52.001,39.969c-0.427,0-0.854-0.005-1.281,0.002c-0.22,0.003-0.317-0.084-0.336-0.311
			c-0.137-1.67-0.275-3.339-0.429-5.007c-0.137-1.49-0.29-2.979-0.445-4.468c-0.154-1.481-0.312-2.962-0.481-4.441
			c-0.184-1.61-0.371-3.22-0.578-4.828c-0.228-1.777-0.463-3.553-0.727-5.325c-0.332-2.232-0.669-4.464-1.053-6.688
			c-0.344-1.995-0.754-3.978-1.14-5.965c-0.029-0.147-0.01-0.22,0.139-0.281c1.856-0.752,3.707-1.514,5.563-2.264
			c0.33-0.133,0.674-0.237,1.017-0.331c0.448-0.122,0.461-0.097,0.451,0.379c-0.045,2.25-0.129,4.5-0.115,6.75
			c0.013,2.141,0.104,4.282,0.209,6.42c0.092,1.874,0.23,3.747,0.385,5.618c0.16,1.932,0.367,3.86,0.55,5.79
			c0.014,0.152,0.077,0.203,0.226,0.18c1.976-0.306,3.945-0.19,5.911,0.093c2.259,0.325,4.458,0.883,6.585,1.713
			c1.276,0.498,2.514,1.076,3.591,1.941c0.294,0.236,0.566,0.511,0.803,0.804c0.539,0.667,0.514,1.44,0.324,2.217
			c-0.207,0.851-0.677,1.561-1.263,2.197c-1.176,1.278-2.625,2.172-4.168,2.926c-2.311,1.129-4.747,1.877-7.285,2.268
			c-1.448,0.223-2.905,0.39-4.361,0.546c-0.693,0.074-1.394,0.066-2.092,0.095C52.001,39.99,52.001,39.979,52.001,39.969z
			 M57.893,36.103c0.103-0.064,0.164-0.096,0.219-0.136c0.993-0.717,1.996-1.422,2.976-2.157c0.806-0.604,1.592-1.236,2.373-1.872
			c0.278-0.227,0.264-0.277-0.07-0.412c-1.056-0.428-2.11-0.863-3.179-1.258c-0.981-0.363-1.978-0.683-2.972-1.011
			c-0.279-0.092-0.302-0.057-0.264,0.221c0.224,1.627,0.446,3.255,0.671,4.882C57.725,34.927,57.807,35.493,57.893,36.103z"/>
		<path fill="#23ADE5" d="M37.801,35.734c-0.437-0.021-0.854-0.042-1.271-0.059c-0.674-0.029-1.349-0.061-2.024-0.078
			c-0.171-0.005-0.249-0.048-0.263-0.231c-0.065-0.851-0.138-1.701-0.215-2.55c-0.096-1.066-0.194-2.132-0.299-3.197
			c-0.113-1.15-0.232-2.299-0.353-3.448c-0.128-1.203-0.258-2.406-0.395-3.608c-0.144-1.264-0.291-2.527-0.446-3.789
			c-0.152-1.239-0.305-2.479-0.479-3.715c-0.265-1.882-0.533-3.763-0.827-5.64c-0.217-1.387-0.478-2.767-0.718-4.15
			c-0.065-0.374-0.136-0.37,0.295-0.431c1.237-0.176,2.472-0.364,3.726-0.356c0.054,0,0.109-0.001,0.163,0.001
			c0.599,0.022,0.648,0.067,0.688,0.647c0.124,1.78,0.241,3.56,0.372,5.34c0.144,1.957,0.301,3.913,0.451,5.87
			c0.128,1.67,0.252,3.341,0.385,5.011c0.114,1.43,0.239,2.86,0.358,4.29c0.114,1.376,0.222,2.752,0.341,4.128
			c0.112,1.298,0.235,2.595,0.353,3.893c0.059,0.649,0.117,1.298,0.174,1.947C37.82,35.636,37.81,35.666,37.801,35.734z"/>
		<path fill="#23ADE5" d="M83.326,35.735c-0.44-0.021-0.856-0.041-1.272-0.059c-0.674-0.029-1.349-0.063-2.023-0.078
			c-0.186-0.004-0.256-0.058-0.271-0.247c-0.081-1.013-0.17-2.025-0.262-3.037c-0.096-1.058-0.196-2.116-0.301-3.173
			c-0.114-1.15-0.231-2.3-0.354-3.449c-0.125-1.172-0.252-2.344-0.388-3.515c-0.158-1.363-0.322-2.727-0.494-4.088
			c-0.186-1.47-0.364-2.941-0.581-4.406c-0.334-2.256-0.695-4.507-1.052-6.759c-0.097-0.613-0.217-1.222-0.338-1.831
			c-0.03-0.153,0.013-0.215,0.16-0.235c1.298-0.18,2.594-0.39,3.911-0.378c0.078,0.001,0.156,0,0.233,0.006
			c0.549,0.046,0.565,0.069,0.603,0.61c0.133,1.888,0.268,3.776,0.404,5.664c0.127,1.764,0.252,3.528,0.388,5.292
			c0.144,1.871,0.301,3.742,0.451,5.613c0.145,1.801,0.282,3.603,0.435,5.404c0.174,2.048,0.362,4.095,0.544,6.142
			c0.069,0.78,0.139,1.561,0.207,2.341C83.329,35.597,83.326,35.643,83.326,35.735z"/>
		<path fill="#23ADE5" d="M29.166,20.262c0.17,0.016,0.432,0.041,0.694,0.064c0.178,0.016,0.274,0.105,0.303,0.289
			c0.165,1.065,0.358,2.126,0.501,3.193c0.186,1.391,0.343,2.785,0.498,4.18c0.156,1.402,0.295,2.807,0.441,4.21
			c0.15,1.442,0.298,2.884,0.451,4.326c0.031,0.295,0.022,0.327-0.266,0.357c-0.848,0.087-1.698,0.167-2.546,0.25
			c-0.208,0.021-0.419,0.033-0.623,0.075c-0.198,0.041-0.278-0.022-0.315-0.218c-0.195-1.029-0.4-2.055-0.603-3.082
			c-0.645-3.256-1.295-6.511-1.936-9.768c-0.199-1.012-0.376-2.028-0.565-3.042c-0.026-0.14-0.019-0.236,0.151-0.275
			C26.577,20.542,27.809,20.304,29.166,20.262z"/>
		<path fill="#23ADE5" d="M74.661,20.262c0.173,0.015,0.436,0.038,0.698,0.061c0.183,0.016,0.291,0.101,0.321,0.298
			c0.164,1.065,0.356,2.126,0.499,3.193c0.186,1.391,0.342,2.786,0.499,4.18c0.139,1.24,0.263,2.483,0.392,3.724
			c0.135,1.303,0.267,2.607,0.402,3.91c0.033,0.324,0.067,0.648,0.107,0.971c0.021,0.17-0.027,0.258-0.213,0.275
			c-0.71,0.064-1.42,0.137-2.13,0.209c-0.363,0.037-0.727,0.063-1.086,0.121c-0.205,0.033-0.292-0.013-0.333-0.223
			c-0.351-1.804-0.712-3.606-1.068-5.409c-0.568-2.876-1.136-5.752-1.7-8.629c-0.121-0.616-0.222-1.236-0.337-1.854
			c-0.027-0.145-0.006-0.233,0.16-0.27C72.091,20.543,73.315,20.306,74.661,20.262z"/>
		<path fill="#23ADE5" d="M89.742,37.318c0,0.324,0.001,0.329-0.332,0.338c-1.055,0.028-2.11,0.05-3.165,0.079
			c-0.151,0.004-0.219-0.036-0.234-0.203c-0.118-1.352-0.242-2.703-0.37-4.054c-0.131-1.374-0.272-2.747-0.402-4.121
			c-0.134-1.413-0.262-2.826-0.388-4.239c-0.106-1.182-0.203-2.364-0.31-3.546c-0.046-0.511-0.044-0.526,0.484-0.555
			c0.906-0.05,1.812-0.122,2.718-0.126c0.498-0.002,0.998,0.114,1.496,0.184c0.191,0.027,0.263,0.149,0.269,0.343
			c0.044,1.637,0.113,3.273,0.139,4.91C89.671,27.864,89.742,35.192,89.742,37.318z"/>
		<path fill="#23ADE5" d="M44.274,37.309c0,0.335,0.002,0.339-0.322,0.347c-1.055,0.028-2.11,0.049-3.165,0.08
			c-0.165,0.005-0.229-0.042-0.244-0.217c-0.149-1.676-0.304-3.352-0.463-5.027c-0.146-1.544-0.305-3.087-0.449-4.631
			c-0.151-1.621-0.292-3.244-0.435-4.866c-0.049-0.556-0.086-1.113-0.136-1.67c-0.016-0.182,0.044-0.269,0.233-0.287
			c1.329-0.128,2.658-0.261,3.992-0.07c0.702,0.1,0.709,0.102,0.762,0.79c0.038,0.479,0.063,0.96,0.076,1.441
			c0.026,0.939,0.049,1.878,0.055,2.817C44.188,27.42,44.274,34.949,44.274,37.309z"/>
		<path fill="#23ADE5" d="M27.943,11.91c0.326,0.035,0.657,0.077,0.988,0.103c0.167,0.013,0.225,0.099,0.24,0.252
			c0.092,0.918,0.19,1.835,0.283,2.753c0.101,0.995,0.194,1.991,0.305,2.985c0.022,0.195-0.019,0.26-0.217,0.271
			c-0.581,0.032-1.161,0.078-1.74,0.129c-0.19,0.017-0.263-0.06-0.285-0.24c-0.172-1.408-0.348-2.816-0.523-4.224
			c-0.069-0.554-0.129-1.109-0.211-1.661c-0.028-0.187,0.027-0.257,0.203-0.272C27.302,11.977,27.618,11.943,27.943,11.91z"/>
		<path fill="#23ADE5" d="M73.438,11.909c0.337,0.035,0.667,0.077,0.999,0.102c0.179,0.013,0.235,0.106,0.251,0.267
			c0.075,0.756,0.157,1.511,0.233,2.267c0.117,1.157,0.226,2.315,0.351,3.471c0.02,0.185-0.017,0.246-0.206,0.257
			c-0.581,0.032-1.161,0.077-1.74,0.13c-0.205,0.019-0.274-0.067-0.297-0.254c-0.218-1.793-0.441-3.586-0.663-5.379
			c-0.021-0.169-0.034-0.34-0.069-0.507c-0.032-0.154,0.005-0.236,0.171-0.251C72.792,11.982,73.115,11.944,73.438,11.909z"/>
		<path fill="#23ADE5" d="M87.086,12.853c-0.006-0.195,0.045-0.289,0.258-0.272c0.633,0.049,1.266,0.092,1.9,0.129
			c0.188,0.011,0.226,0.104,0.226,0.27c-0.004,1.915-0.005,3.83-0.001,5.746c0,0.183-0.06,0.246-0.244,0.235
			c-0.596-0.036-1.192-0.066-1.788-0.084c-0.197-0.006-0.203-0.119-0.206-0.259C87.213,17.735,87.116,13.806,87.086,12.853z"/>
		<path fill="#23ADE5" d="M41.575,12.898c-0.008-0.31-0.002-0.326,0.303-0.311c0.588,0.028,1.175,0.078,1.763,0.109
			c0.245,0.013,0.318,0.114,0.316,0.362c-0.014,1.474-0.009,2.949-0.01,4.423c0,0.404-0.006,0.807,0.006,1.21
			c0.006,0.198-0.048,0.281-0.261,0.268c-0.596-0.037-1.193-0.063-1.79-0.084c-0.19-0.007-0.182-0.126-0.182-0.254
			C41.721,17.652,41.599,13.836,41.575,12.898z"/>
		<path fill="#23ADE5" d="M26.708,18.008c0.016,0.477,0.015,0.476-0.452,0.582c-0.371,0.084-0.742,0.166-1.111,0.257
			c-0.148,0.037-0.216-0.01-0.243-0.157c-0.348-1.939-0.697-3.878-1.052-5.816c-0.033-0.181,0.014-0.254,0.196-0.278
			c0.523-0.07,1.043-0.156,1.565-0.23c0.329-0.047,0.382-0.023,0.424,0.291c0.23,1.698,0.45,3.398,0.671,5.097
			C26.717,17.836,26.708,17.923,26.708,18.008z"/>
		<path fill="#23ADE5" d="M72.223,17.804c0.014,0.681,0.014,0.68-0.443,0.784c-0.371,0.084-0.742,0.164-1.111,0.257
			c-0.16,0.04-0.226-0.008-0.255-0.167c-0.346-1.931-0.694-3.862-1.047-5.792c-0.031-0.171-0.007-0.26,0.184-0.286
			c0.53-0.072,1.058-0.161,1.588-0.235c0.176-0.025,0.352-0.057,0.398,0.214C71.844,14.383,72.083,16.196,72.223,17.804z"/>
		<path fill="#23ADE5" d="M40.831,18.597c0.001,0.216-0.089,0.304-0.302,0.318c-0.441,0.028-0.882,0.066-1.321,0.113
			c-0.147,0.016-0.189-0.029-0.199-0.17c-0.105-1.501-0.217-3.002-0.325-4.503c-0.032-0.449-0.056-0.898-0.09-1.347
			c-0.013-0.169,0.047-0.228,0.222-0.235c0.542-0.021,1.084-0.067,1.626-0.091c0.302-0.013,0.319,0.01,0.329,0.306
			C40.807,14.02,40.825,17.759,40.831,18.597z"/>
		<path fill="#23ADE5" d="M86.343,18.623c0.001,0.198-0.091,0.275-0.28,0.289c-0.449,0.032-0.897,0.07-1.345,0.115
			c-0.126,0.013-0.185-0.01-0.194-0.149c-0.073-1.045-0.153-2.089-0.229-3.133c-0.056-0.774-0.11-1.548-0.164-2.321
			c-0.007-0.101-0.017-0.201-0.02-0.302c-0.01-0.34-0.009-0.333,0.34-0.349c0.511-0.025,1.022-0.055,1.533-0.094
			c0.224-0.017,0.301,0.074,0.307,0.291C86.316,14.007,86.339,17.778,86.343,18.623z"/>
	</g>
	<rect x="0" y="0" fill="none" width="125" height="40"/>
</g>
</svg>
