<?xml version="1.0" encoding="utf-8"?>
<!-- Generator: Adobe Illustrator 20.0.0, SVG Export Plug-In . SVG Version: 6.00 Build 0)  -->
<svg version="1.1" xmlns="http://www.w3.org/2000/svg" xmlns:xlink="http://www.w3.org/1999/xlink" x="0px" y="0px"
	 viewBox="0 0 125 40" enable-background="new 0 0 125 40" xml:space="preserve">
<g id="bg" display="none">
	<rect display="inline" fill="#FFFFFF" width="125" height="40"/>
</g>
<g id="logo">
	<g id="Layer_1_5_">
		<g>
			<g>
				<g>
					<path fill="#2980C2" d="M40.397,15.088v13.031h-3.408V15.088h-4.711v-2.907h12.831v2.907H40.397z"/>
					<path fill="#2980C2" d="M52.626,12.181c1.203,0,2.205,0.2,3.208,0.501c1.002,0.301,1.804,0.802,2.606,1.504
						c0.702,0.702,1.303,1.504,1.704,2.506s0.601,2.105,0.601,3.408c0,1.203-0.2,2.306-0.601,3.308
						c-0.401,1.002-0.902,1.804-1.604,2.506c-0.702,0.702-1.504,1.203-2.506,1.604c-1.002,0.401-2.105,0.601-3.208,0.601h-5.613
						V13.986c0-0.601,0.2-1.103,0.501-1.403s0.802-0.501,1.303-0.501h3.609V12.181z M57.237,20.1c0-1.103-0.2-2.105-0.601-3.007
						s-1.103-1.504-2.005-1.804c-0.301-0.1-0.601-0.2-1.002-0.301c-0.401,0-0.802,0-1.203,0h-1.804v10.425h1.905
						c0.802,0,1.504-0.1,2.105-0.401s1.103-0.601,1.504-1.103c0.401-0.501,0.702-1.002,0.902-1.604
						C57.137,21.504,57.237,20.902,57.237,20.1z"/>
					<path fill="#2980C2" d="M70.67,11.78c0.702,0,1.403,0.1,2.205,0.2c0.802,0.2,1.704,0.501,2.506,1.103l-1.504,2.506
						c-0.301-0.2-0.501-0.301-0.802-0.501c-0.301-0.2-0.501-0.2-0.702-0.301c-0.2-0.1-0.501-0.1-0.802-0.1s-0.501,0-0.902,0
						c-0.601,0-1.203,0.1-1.804,0.301c-0.601,0.2-1.002,0.601-1.403,1.002c-0.401,0.501-0.702,1.002-1.002,1.704
						c-0.2,0.702-0.301,1.504-0.301,2.406s0.1,1.704,0.401,2.406c0.2,0.702,0.601,1.203,1.002,1.704
						c0.401,0.501,0.902,0.802,1.403,1.002c0.501,0.2,1.103,0.301,1.604,0.301c0.301,0,0.601,0,0.902,0c0.301,0,0.601-0.1,0.802-0.2
						c0.301-0.1,0.501-0.2,0.802-0.301c0.301-0.1,0.601-0.301,0.902-0.501l1.403,2.506c-0.702,0.501-1.504,0.902-2.306,1.103
						c-0.902,0.2-1.804,0.301-2.807,0.301c-1.103,0-2.105-0.2-3.007-0.501c-0.902-0.401-1.704-0.902-2.406-1.604
						c-0.702-0.702-1.203-1.604-1.604-2.606c-0.401-1.002-0.601-2.205-0.601-3.609c0-1.303,0.2-2.406,0.601-3.508
						c0.401-1.002,1.002-1.905,1.704-2.606c0.702-0.702,1.504-1.303,2.506-1.704C68.464,11.981,69.567,11.78,70.67,11.78z"/>
					<path fill="#2980C2" d="M88.011,12.181c0.802,0,1.504,0.1,2.205,0.401c0.702,0.2,1.203,0.601,1.704,1.002
						c0.501,0.501,0.902,1.002,1.103,1.704c0.301,0.702,0.401,1.403,0.401,2.306c0,0.702-0.1,1.303-0.301,2.005
						c-0.2,0.601-0.501,1.203-1.002,1.704c-0.501,0.501-1.103,0.902-1.905,1.203c-0.802,0.301-1.704,0.501-2.807,0.501
						c-0.501,0-1.002,0-1.303-0.1c-0.401-0.1-0.601-0.1-0.702-0.1v5.313h-3.308V13.986c0-0.601,0.2-1.103,0.501-1.403
						c0.301-0.301,0.802-0.501,1.303-0.501h4.11V12.181z M90.116,17.494c0-0.902-0.301-1.604-0.802-2.105
						c-0.601-0.401-1.303-0.702-2.205-0.702h-1.704V20.1c0.1,0,0.301,0.1,0.601,0.1c0.301,0,0.601,0.1,1.002,0.1
						c0.601,0,1.103-0.1,1.504-0.301c0.401-0.2,0.702-0.401,1.002-0.702c0.2-0.301,0.401-0.601,0.501-0.902
						C90.116,18.196,90.116,17.895,90.116,17.494z"/>
					<path fill="#2980C2" d="M99.038,11.279v16.84H95.83v-16.84H99.038z"/>
					<path fill="#2980C2" d="M106.756,15.99c0.702,0,1.303,0.1,1.905,0.301c0.601,0.2,1.203,0.501,1.704,0.902
						c0.501,0.401,0.902,0.902,1.103,1.604c0.301,0.601,0.401,1.403,0.401,2.406v7.017c-0.2,0.1-0.702,0.2-1.604,0.301
						c-0.902,0.1-2.105,0.2-3.609,0.2c-1.002,0-1.905-0.1-2.606-0.301c-0.702-0.2-1.203-0.501-1.604-0.802
						c-0.401-0.301-0.702-0.702-0.902-1.203s-0.301-1.002-0.301-1.504c0-1.403,0.401-2.306,1.203-3.007
						c0.802-0.601,2.105-0.902,3.909-0.902c0.601,0,1.203,0,1.504,0c0.401,0,0.601,0.1,0.601,0.1v-0.301
						c0-0.401-0.1-0.802-0.2-1.103c-0.1-0.301-0.301-0.501-0.501-0.702c-0.2-0.2-0.501-0.301-0.802-0.401
						c-0.301-0.1-0.601-0.1-0.902-0.1c-0.401,0-0.902,0.1-1.403,0.2c-0.501,0.1-1.103,0.401-1.704,0.802l-1.303-2.005
						c0.702-0.501,1.403-0.802,2.205-1.002C105.052,15.99,105.854,15.99,106.756,15.99z M108.761,22.907c-0.1,0-0.301-0.1-0.601-0.1
						s-0.702,0-1.203,0c-0.501,0-0.902,0-1.203,0.1s-0.501,0.2-0.702,0.401c-0.2,0.2-0.301,0.401-0.301,0.601
						c-0.1,0.2-0.1,0.501-0.1,0.702c0,0.2,0,0.401,0.1,0.601c0.1,0.2,0.2,0.401,0.301,0.501c0.2,0.2,0.401,0.301,0.702,0.401
						c0.301,0.1,0.702,0.2,1.103,0.2c0.501,0,0.902,0,1.203-0.1c0.301,0,0.501-0.1,0.702-0.1V22.907z"/>
					<path fill="#2980C2" d="M119.286,30.425c0.802,0,1.504-0.2,2.005-0.702c0.501-0.401,0.702-1.103,0.702-2.105
						c-0.301,0.1-0.601,0.1-0.902,0.1c-0.301,0-0.601,0-0.902,0c-0.702,0-1.403-0.1-2.105-0.301s-1.303-0.501-1.804-0.902
						c-0.501-0.401-0.902-0.902-1.303-1.604c-0.301-0.601-0.501-1.504-0.501-2.406V15.99h3.208v6.115c0,0.902,0.2,1.704,0.601,2.205
						s1.203,0.702,2.205,0.702c0.301,0,0.601,0,0.802,0c0.2,0,0.401,0,0.501-0.1V15.99H125v11.127c0,1.002-0.1,1.804-0.401,2.506
						c-0.301,0.702-0.702,1.303-1.203,1.704c-0.501,0.501-1.103,0.802-1.804,1.002c-0.702,0.2-1.504,0.301-2.306,0.301
						c-1.103,0-2.005-0.1-2.807-0.301c-0.802-0.2-1.604-0.501-2.506-0.902l1.103-2.406c0.501,0.301,1.002,0.501,1.604,0.702
						C117.783,30.325,118.484,30.425,119.286,30.425z"/>
				</g>
			</g>
			<g>
				<path fill="#2980C2" d="M16.74,17.494l-4.31-2.506c-0.401-0.2-0.702,0-0.702,0.401v5.012c0,0.401,0.301,0.601,0.702,0.401
					l4.31-2.506C17.141,18.095,17.141,17.694,16.74,17.494z"/>
				<path fill="#2980C2" d="M13.031,6.969C5.814,6.969,0,12.783,0,20s5.814,13.031,13.031,13.031S26.063,27.217,26.063,20
					C25.962,12.783,20.148,6.969,13.031,6.969z M14.435,23.709h-1.504v2.606c0,1.604-1.103,2.606-2.606,2.606
					s-2.606-1.002-2.606-2.606V14.387c0-1.604,1.103-2.606,2.606-2.606h4.21c3.007,0,6.014,1.905,6.014,6.014
					S17.442,23.709,14.435,23.709z"/>
			</g>
		</g>
	</g>
</g>
</svg>
