<?xml version="1.0" encoding="utf-8"?>
<!-- Generator: Adobe Illustrator 25.4.0, SVG Export Plug-In . SVG Version: 6.00 Build 0)  -->
<svg version="1.1" id="logos" xmlns="http://www.w3.org/2000/svg" xmlns:xlink="http://www.w3.org/1999/xlink" x="0px" y="0px"
	 viewBox="0 0 125 40" enable-background="new 0 0 125 40" xml:space="preserve">
<rect x="0" y="0" fill="none" width="125" height="40"/>
<g>
	<path fill="#5E8E3E" d="M30.783,7.762c-0.025-0.169-0.165-0.298-0.336-0.31L27.26,7.241l-2.392-2.342
		c-0.094-0.092-0.21-0.153-0.333-0.181l-1.707,35.281l12.337-2.674L30.783,7.762z"/>
	<path fill="#95BF46" d="M24.176,4.731l-1.373,0.424c-0.176-0.579-1.323-3.941-4.16-3.941c-0.057,0-0.113,0.001-0.169,0.004
		C17.964,0.481,17.247,0,16.256,0c-2.338,0-6.149,1.584-8.247,9.724l-4.275,1.32c-0.328,0.101-0.567,0.384-0.611,0.725L0,35.726
		L22.821,40l0.007-0.002l1.707-35.281C24.418,4.691,24.294,4.694,24.176,4.731z M21.535,5.547l-1.941,0.599
		c0.014-1.134-0.109-2.467-0.484-3.601C20.427,2.636,21.206,4.468,21.535,5.547z M17.76,2.793c0.382,1.042,0.504,2.491,0.522,3.758
		l-4.026,1.243C14.691,6.126,15.84,3.592,17.76,2.793z M16.24,1.376c0.261,0,0.49,0.073,0.69,0.206
		c-2.134,0.951-3.647,3.631-4.187,6.68l-3.206,0.99C9.797,8.077,11.906,1.376,16.24,1.376z"/>
	<path fill="#FFFFFF" d="M14.217,18.112c1.602,0,2.876,0.718,2.876,0.718l1.532-4.521c0,0-0.896-0.615-3.313-0.615
		c-5.19,0-7.91,3.755-7.91,7.235c0,4.759,4.419,4.403,4.419,7.478c0,0.388-0.324,1.424-1.586,1.424s-2.671-0.842-3.788-1.748
		l-1.036,3.448c0,0,2.137,2.46,5.714,2.46s5.876-2.574,5.876-6.086c0-5.18-5.422-5.795-5.422-8.012
		C11.579,19.65,11.773,18.112,14.217,18.112z"/>
</g>
</svg>
