<?xml version="1.0" encoding="utf-8"?>
<!-- Generator: Adobe Illustrator 20.1.0, SVG Export Plug-In . SVG Version: 6.00 Build 0)  -->
<svg version="1.1" id="logos" xmlns="http://www.w3.org/2000/svg" xmlns:xlink="http://www.w3.org/1999/xlink" x="0px" y="0px"
	 viewBox="0 0 125 40" enable-background="new 0 0 125 40" xml:space="preserve">
<g id="icons">
	<g>
		<g>
			<path fill="#00CF00" d="M8.215,23.625H3.188v-8.689c0-0.88-0.713-1.594-1.594-1.594S0,14.055,0,14.935v10.029
				c0,0.88,0.713,1.593,1.593,1.593h6.621c0.88,0,1.593-0.712,1.593-1.593C9.807,24.082,9.095,23.625,8.215,23.625z"/>
			<path fill="#00CF00" d="M15.332,13.334c-0.88,0-1.593,0.713-1.593,1.593V25.06c0,0.882,0.713,1.595,1.593,1.595
				c0.881,0,1.594-0.712,1.594-1.595V14.926C16.926,14.048,16.212,13.334,15.332,13.334z"/>
			<path fill="#142A59" d="M107.256,13.238c-0.88,0-1.593,0.713-1.593,1.593v10.228c0,0.882,0.712,1.595,1.593,1.595
				s1.594-0.712,1.594-1.595V14.831C108.848,13.951,108.135,13.238,107.256,13.238z"/>
			<path fill="#00CF00" d="M29.521,26.039c-0.024-0.028-0.043-0.06-0.062-0.09l-4.884-7.578v6.687c0,0.882-0.713,1.595-1.593,1.595
				c-0.881,0-1.594-0.712-1.594-1.595v-9.6c0-0.772,0.48-1.56,1.279-1.916c0.061-0.025,0.124-0.047,0.189-0.065
				c0.741-0.207,1.808,0.012,2.268,0.724l4.985,7.462v-6.739c0-0.88,0.713-1.593,1.593-1.593c0.881,0,1.594,0.713,1.594,1.593v9.249
				c0,1.315-0.755,2.469-2.162,2.469C30.21,26.644,29.73,26.288,29.521,26.039z"/>
			<path fill="#00CF00" d="M46.262,16.418c0.792,0,1.435-0.641,1.435-1.434c0-0.792-0.643-1.434-1.435-1.434h-6.576
				c-0.051,0-0.102,0.003-0.151,0.008c-0.078-0.011-0.155-0.019-0.236-0.019c-0.88,0-1.593,0.713-1.593,1.594v9.773
				c0,0.882,0.713,1.595,1.593,1.595c0.064,0,0.127-0.004,0.189-0.012c0.037,0.004,0.074,0.006,0.111,0.006h6.663
				c0.792,0,1.435-0.643,1.435-1.435c0-0.79-0.643-1.433-1.435-1.433h-5.369v-2.156h5.138c0.792,0,1.434-0.643,1.434-1.435
				s-0.642-1.435-1.434-1.435h-5.138v-2.186L46.262,16.418z"/>
			<path fill="#142A59" d="M67.427,14.664c-0.006,0.011-0.01,0.022-0.016,0.034l-3.373,7.609l-3.558-7.923
				c-0.014-0.031-0.029-0.061-0.044-0.09c-0.389-0.725-1.298-1.054-2.216-0.841c-0.527,0.123-1.491,0.614-1.491,1.675v9.932
				c0,0.882,0.713,1.595,1.594,1.595c0.88,0,1.593-0.712,1.593-1.595v-5.313l2.355,5.249c0.247,0.593,0.87,1.173,1.759,1.173
				c0.854,0,1.437-0.599,1.673-1.112c0.003-0.006,0.005-0.01,0.007-0.016l2.522-5.386v5.404c0,0.882,0.713,1.595,1.594,1.595
				s1.594-0.712,1.594-1.595v-9.741C71.417,13.778,68.738,12.111,67.427,14.664z"/>
			<path fill="#142A59" d="M85.55,13.307c-0.88,0-1.595,0.713-1.595,1.593v5.538c0,2.659-0.954,3.421-2.603,3.425
				c-1.647-0.004-2.601-0.766-2.601-3.425V14.9c0-0.88-0.714-1.593-1.594-1.593s-1.595,0.713-1.595,1.593v5.538
				c0,5.546,3.587,6.324,5.755,6.324c0.011,0,0.024-0.002,0.035-0.002c0.013,0,0.026,0.002,0.037,0.002
				c2.167,0,5.754-0.779,5.754-6.324V14.9C87.142,14.02,86.429,13.307,85.55,13.307z"/>
			<path fill="#142A59" d="M124.323,22.044c-0.863-0.664-1.793,0.04-2.399,0.712c-0.638,0.706-1.525,1.137-2.475,1.137
				c-2.318,0-3.346-1.834-3.346-3.949c0-2.117,1.185-3.839,3.346-3.839c0.974,0,1.897,0.526,2.524,1.358
				c0.198,0.265,1.168,1.314,2.31,0.451c1.141-0.863,0.424-2.03,0.064-2.423c-1.213-1.33-2.95-2.141-4.898-2.141
				c-3.972,0-6.533,2.72-6.533,6.593c0,4.356,2.93,6.757,6.533,6.757c2.152,0,4.075-1.024,5.258-2.686
				C125.117,23.439,125.186,22.706,124.323,22.044z"/>
		</g>
		<path fill="#142A59" d="M96.082,13.346c-1.455,0-4.763,0.676-4.763,3.91c0,4.811,7.07,3.409,7.07,5.615
			c0,0.529-0.325,1.106-2.106,1.106c-1.372,0-2.669-0.84-3.284-1.256c-1.342-0.902-2.43,0.559-2.099,1.474
			c0.181,0.497,1.726,2.471,5.617,2.471c2.617,0,4.993-1.129,4.993-3.865c0-4.734-7.078-3.3-7.078-5.59
			c0-0.459,0.378-1.115,1.833-1.115c1.453,0,2.231,1.048,3.119,1.048c0.891,0,1.436-0.597,1.436-1.407
			C100.82,14.926,98.985,13.346,96.082,13.346z"/>
	</g>
</g>
<rect y="0" fill="none" width="125" height="40"/>
</svg>
