<?xml version="1.0" encoding="utf-8"?>
<!-- Generator: Adobe Illustrator 20.1.0, SVG Export Plug-In . SVG Version: 6.00 Build 0)  -->
<svg version="1.1" id="logos" xmlns="http://www.w3.org/2000/svg" xmlns:xlink="http://www.w3.org/1999/xlink" x="0px" y="0px"
	 viewBox="0 0 125 40" style="enable-background:new 0 0 125 40;" xml:space="preserve">
<style type="text/css">
	.st0{fill:url(#SVGID_1_);}
	.st1{fill:url(#SVGID_2_);}
	.st2{fill:url(#SVGID_3_);}
	.st3{fill:url(#SVGID_4_);}
	.st4{fill:url(#SVGID_5_);}
	.st5{fill:url(#SVGID_6_);}
	.st6{fill:url(#SVGID_7_);}
	.st7{fill:url(#SVGID_8_);}
	.st8{fill:url(#SVGID_9_);}
	.st9{fill:none;}
</style>
<g>
	<g>
		
			<linearGradient id="SVGID_1_" gradientUnits="userSpaceOnUse" x1="9.0817" y1="772.5819" x2="9.0817" y2="755.3367" gradientTransform="matrix(1 0 0 1 0 -750)">
			<stop  offset="0" style="stop-color:#B40204"/>
			<stop  offset="0.3872" style="stop-color:#D1010B"/>
			<stop  offset="0.7555" style="stop-color:#E6000F"/>
			<stop  offset="1" style="stop-color:#ED0011"/>
		</linearGradient>
		<path class="st0" d="M8.3,8.9C9.2,9.3,9.5,10,9.5,10s0.4-0.8,1-1.5c0.7-1,0.6-2,0.2-2.1c-1-0.3-1.2,1.3-1.6,1.4
			C8.7,7.9,8.2,6.5,7.4,6.9C6.7,7.2,7.2,8.4,8.3,8.9z"/>
		<path d="M9.5,10.1L9.5,10.1C9.5,10,9.1,9.3,8.3,9l0,0C7.6,8.7,7.1,8.1,7.1,7.5c0-0.3,0.1-0.6,0.4-0.7C8,6.5,8.4,7,8.8,7.4
			C9,7.6,9.2,7.8,9.2,7.8c0.1,0,0.2-0.2,0.3-0.5c0.2-0.5,0.6-1.1,1.3-0.9c0.2,0,0.3,0.2,0.4,0.4c0.1,0.4,0.1,1.1-0.5,1.9
			c-0.5,0.7-1,1.5-1,1.5L9.5,10.1z M7.7,6.8c-0.1,0-0.1,0-0.2,0.1C7.2,7,7.2,7.3,7.2,7.5c0,0.4,0.4,1,1.1,1.3l0,0
			c0.7,0.3,1.1,0.8,1.2,1C9.6,9.6,10,9,10.4,8.4c0.5-0.6,0.6-1.3,0.5-1.7c-0.1-0.2-0.1-0.3-0.2-0.3c-0.6-0.2-0.8,0.4-1.1,0.8
			C9.5,7.5,9.3,7.7,9.2,7.8C9,7.9,8.8,7.6,8.6,7.4C8.3,7.1,8,6.8,7.7,6.8z"/>
	</g>
	<g>
		
			<linearGradient id="SVGID_2_" gradientUnits="userSpaceOnUse" x1="5.8348" y1="772.5819" x2="5.8348" y2="755.3367" gradientTransform="matrix(1 0 0 1 0 -750)">
			<stop  offset="0" style="stop-color:#B40204"/>
			<stop  offset="0.3872" style="stop-color:#D1010B"/>
			<stop  offset="0.7555" style="stop-color:#E6000F"/>
			<stop  offset="1" style="stop-color:#ED0011"/>
		</linearGradient>
		<path class="st1" d="M5.7,13.7c1.1,0,1.7,0.6,1.8,1.1c0.5-0.7,0.8-1.4,0.8-2.5S8,10.1,7.2,10.1c-1.1-0.1-0.4,1.5-0.5,1.7
			c-0.2,0.4-1,0-1.6-0.3s-1.8-0.1-1.8,0.8C3.2,13.3,4.5,13.8,5.7,13.7z"/>
		<path d="M7.4,15.1v-0.2c-0.1-0.4-0.6-1.1-1.7-1l0,0c-0.9,0-1.7-0.2-2.2-0.7c-0.3-0.3-0.4-0.6-0.4-0.9c0-0.3,0.2-0.6,0.5-0.8
			c0.4-0.2,1-0.3,1.4-0.1s1.3,0.7,1.5,0.4c0,0,0-0.2-0.1-0.3c-0.1-0.4-0.2-0.9,0.1-1.2c0.1-0.1,0.3-0.2,0.6-0.2
			c0.8,0.1,1.2,1.3,1.2,2.3c0,1.1-0.4,1.9-0.8,2.5L7.4,15.1z M5.8,13.6c1,0,1.5,0.5,1.7,1c0.4-0.7,0.7-1.3,0.7-2.3s-0.3-2.1-1-2.1
			c-0.2,0-0.3,0-0.4,0.1c-0.2,0.2-0.1,0.7,0,1.1c0.1,0.2,0.1,0.3,0,0.4c-0.3,0.4-1,0.1-1.7-0.3c-0.3-0.2-0.9-0.2-1.2,0.1
			c-0.2,0.1-0.4,0.3-0.4,0.6s0.1,0.5,0.3,0.8C4,13.4,4.8,13.7,5.8,13.6C5.7,13.6,5.7,13.6,5.8,13.6z"/>
	</g>
	<g>
		
			<linearGradient id="SVGID_3_" gradientUnits="userSpaceOnUse" x1="2.0565" y1="772.5819" x2="2.0565" y2="755.3367" gradientTransform="matrix(1 0 0 1 0 -750)">
			<stop  offset="0" style="stop-color:#B40204"/>
			<stop  offset="0.3872" style="stop-color:#D1010B"/>
			<stop  offset="0.7555" style="stop-color:#E6000F"/>
			<stop  offset="1" style="stop-color:#ED0011"/>
		</linearGradient>
		<path class="st2" d="M3.5,14.5c-0.9-0.2-1.2,1.4-1.6,1.5c-0.1,0-0.3-0.1-0.7-0.5c-0.4-0.5-1.5-0.1-1,0.6c0.5,0.7,1.4,1.3,1.6,2.1
			c0.1-0.4,1.4-1.4,1.8-1.9C4,15.6,4.2,14.7,3.5,14.5z"/>
		<path d="M1.8,18.6l-0.1-0.3c-0.1-0.5-0.5-0.9-0.9-1.3c-0.3-0.3-0.5-0.5-0.7-0.8c-0.2-0.3-0.2-0.6,0.1-0.8s0.8-0.2,1.1,0.1
			C1.7,15.9,1.8,16,1.9,16c0.1,0,0.3-0.3,0.4-0.5c0.3-0.5,0.6-1.1,1.3-1l0,0c0.2,0,0.4,0.2,0.5,0.4C4.3,15.3,4,16,3.7,16.4
			c-0.2,0.2-0.5,0.6-0.9,1s-0.8,0.8-0.9,1L1.8,18.6z M0.7,15.4c-0.1,0-0.3,0-0.4,0.1c-0.2,0.1-0.2,0.3,0,0.6
			c0.2,0.3,0.4,0.5,0.7,0.8c0.3,0.3,0.7,0.7,0.9,1.1c0.2-0.2,0.5-0.5,0.8-0.8c0.4-0.3,0.7-0.7,0.9-0.9c0.3-0.5,0.5-1.1,0.4-1.4
			c-0.1-0.1-0.2-0.2-0.3-0.3l0,0c-0.5-0.1-0.8,0.4-1.1,0.9c-0.2,0.3-0.3,0.6-0.5,0.6S1.8,16,1.3,15.5C1,15.4,0.9,15.4,0.7,15.4z"/>
	</g>
	<g>
		
			<linearGradient id="SVGID_4_" gradientUnits="userSpaceOnUse" x1="13.6552" y1="772.5819" x2="13.6552" y2="755.3367" gradientTransform="matrix(1 0 0 1 0 -750)">
			<stop  offset="0" style="stop-color:#B40204"/>
			<stop  offset="0.3872" style="stop-color:#D1010B"/>
			<stop  offset="0.7555" style="stop-color:#E6000F"/>
			<stop  offset="1" style="stop-color:#ED0011"/>
		</linearGradient>
		<path class="st3" d="M13.6,11.4c0.6,0,1.7-0.4,2-1.1c0.3-0.8-0.6-1.6-2.2-0.4c-0.2,0.1-0.2-1.6-0.9-1.6s-1.5,1.6-0.3,3.8
			C12.4,11.6,12.9,11.4,13.6,11.4z"/>
		<path d="M12.2,12.3l-0.1-0.2c-0.9-1.6-0.7-2.9-0.3-3.5c0.2-0.3,0.4-0.4,0.7-0.4C13,8.3,13.1,9,13.3,9.5c0,0.1,0.1,0.3,0.1,0.3
			C14.2,9.2,15,9,15.5,9.4c0.3,0.2,0.4,0.6,0.3,0.9c-0.2,0.7-1.4,1.2-2.1,1.2s-1.2,0.2-1.3,0.6L12.2,12.3z M12.4,8.4
			c-0.2,0-0.3,0.1-0.4,0.3c-0.4,0.6-0.5,1.8,0.2,3.2c0.2-0.4,0.7-0.6,1.4-0.6c0.6,0,1.7-0.4,1.9-1c0.1-0.3,0-0.6-0.2-0.7
			c-0.4-0.3-1.1-0.1-1.9,0.4h-0.1c-0.1,0-0.1-0.2-0.2-0.5C13,9.1,12.8,8.4,12.4,8.4L12.4,8.4z"/>
	</g>
	<g>
		
			<linearGradient id="SVGID_5_" gradientUnits="userSpaceOnUse" x1="11.4215" y1="772.5819" x2="11.4215" y2="755.3367" gradientTransform="matrix(1 0 0 1 0 -750)">
			<stop  offset="0" style="stop-color:#B40204"/>
			<stop  offset="0.3872" style="stop-color:#D1010B"/>
			<stop  offset="0.7555" style="stop-color:#E6000F"/>
			<stop  offset="1" style="stop-color:#ED0011"/>
		</linearGradient>
		<path class="st4" d="M12.7,13c-0.9,0.1-1.2,1.2-1.6,1.3c-0.2,0.1-0.7-1.2-1.3-1.1c-0.6,0.1-1.2,2.1,1.3,3.6
			c0.7-0.9,1.5-1.7,2.1-2.1C13.7,14.2,13.6,12.9,12.7,13z"/>
		<path d="M11,17L11,17c-2-1.3-2-2.6-1.9-3s0.3-0.8,0.6-0.8c0.4-0.1,0.8,0.4,1.1,0.8c0.1,0.1,0.2,0.3,0.3,0.3c0.2,0,0.3-0.2,0.5-0.5
			c0.3-0.3,0.6-0.8,1.1-0.8l0,0c0.3-0.1,0.6,0.1,0.8,0.4c0.2,0.5,0.1,1.1-0.3,1.4C12.4,15.4,11.7,16.1,11,17L11,17z M9.8,13.3
			L9.8,13.3c-0.2,0-0.5,0.3-0.5,0.7c-0.1,0.3-0.1,1.6,1.7,2.7c0.6-0.8,1.3-1.5,2-2.1c0.3-0.3,0.4-0.8,0.3-1.2
			c-0.1-0.2-0.2-0.3-0.6-0.3l0,0c-0.5,0.1-0.8,0.4-1,0.8c-0.2,0.3-0.4,0.5-0.6,0.5c-0.1,0-0.3-0.1-0.5-0.4
			C10.4,13.7,10.1,13.3,9.8,13.3z"/>
	</g>
	<g>
		
			<linearGradient id="SVGID_6_" gradientUnits="userSpaceOnUse" x1="7.0143" y1="772.5819" x2="7.0143" y2="755.3367" gradientTransform="matrix(1 0 0 1 0 -750)">
			<stop  offset="0" style="stop-color:#B40204"/>
			<stop  offset="0.3872" style="stop-color:#D1010B"/>
			<stop  offset="0.7555" style="stop-color:#E6000F"/>
			<stop  offset="1" style="stop-color:#ED0011"/>
		</linearGradient>
		<path class="st5" d="M8.6,16.7c-0.9,0-0.5,1.8-0.7,1.9c-0.3,0.1-0.7-0.7-1.3-1.1S4.4,17,4.3,18.1c-0.1,1,1.3,1.6,2.2,1.9
			c0.9,0.3,1.8,1.4,1.8,1.4s1.1-1.4,1.3-2.5C9.8,17.7,9.5,16.7,8.6,16.7z"/>
		<path d="M8.2,21.5L8.2,21.5c-0.1-0.1-0.9-1.2-1.8-1.5c-0.9-0.3-2.5-0.9-2.3-2c0-0.3,0.2-0.6,0.5-0.8c0.6-0.3,1.4-0.1,1.9,0.1
			c0.3,0.2,0.6,0.5,0.8,0.7c0.2,0.2,0.4,0.4,0.4,0.4s0-0.3,0-0.5c0-0.6,0-1.4,0.7-1.5c0.3,0,0.6,0.1,0.8,0.3c0.3,0.4,0.5,1.1,0.3,2
			C9.5,20,8.4,21.4,8.2,21.5L8.2,21.5z M5.4,17.4c-0.2,0-0.5,0-0.7,0.1c-0.3,0.1-0.4,0.3-0.4,0.6c-0.1,1,1.4,1.5,2.2,1.8
			S8,21,8.3,21.3c0.2-0.3,1.1-1.5,1.3-2.4c0.1-0.8,0-1.4-0.3-1.8c-0.2-0.2-0.4-0.3-0.6-0.3c-0.5,0-0.5,0.6-0.5,1.3
			c0,0.4,0,0.6-0.2,0.7c-0.2,0.1-0.4-0.1-0.6-0.4c-0.2-0.2-0.5-0.5-0.8-0.7C6.2,17.5,5.8,17.4,5.4,17.4z"/>
	</g>
	<g>
		
			<linearGradient id="SVGID_7_" gradientUnits="userSpaceOnUse" x1="18.292" y1="772.5819" x2="18.292" y2="755.3367" gradientTransform="matrix(1 0 0 1 0 -750)">
			<stop  offset="0" style="stop-color:#B40204"/>
			<stop  offset="0.3872" style="stop-color:#D1010B"/>
			<stop  offset="0.7555" style="stop-color:#E6000F"/>
			<stop  offset="1" style="stop-color:#ED0011"/>
		</linearGradient>
		<path class="st6" d="M20.5,12.3c-0.8-0.3-1.9,0.4-2.3,1.1c-0.4,0.7-0.6,0.3-0.6,0.3c-0.1,0-0.4-1.8-1.3-1.9c-1-0.1-1,1.6-0.3,2.7
			c0.7,1.1,1.3,2.2,1.3,2.7c0.8-0.9,2.3-1.7,3-2.4C21.1,14.1,21.3,12.6,20.5,12.3z"/>
		<path d="M17.2,17.5v-0.3c0-0.4-0.6-1.5-1.3-2.6c-0.5-0.7-0.6-1.9-0.3-2.4c0.2-0.3,0.4-0.4,0.7-0.4c0.8,0.1,1.1,1.1,1.3,1.7
			c0,0.1,0.1,0.2,0.1,0.2l0,0v0.1l0,0c0,0,0,0,0.1,0c0,0,0.1,0,0.4-0.4c0.5-0.8,1.6-1.5,2.4-1.2c0.3,0.1,0.5,0.4,0.6,0.7
			c0.1,0.6-0.2,1.5-0.7,2c-0.3,0.3-0.8,0.7-1.3,1c-0.6,0.4-1.3,0.9-1.7,1.3L17.2,17.5z M16.2,12c-0.2,0-0.4,0.1-0.5,0.3
			c-0.3,0.5-0.2,1.6,0.3,2.2c0.6,0.9,1.2,1.9,1.3,2.5c0.4-0.4,1-0.8,1.6-1.2c0.5-0.4,1-0.7,1.3-1c0.5-0.4,0.7-1.2,0.6-1.8
			c0-0.2-0.1-0.5-0.4-0.6c-0.8-0.3-1.8,0.3-2.2,1.1C18,13.8,17.8,14,17.7,14c-0.1,0-0.2-0.1-0.2-0.1c-0.1,0-0.1-0.1-0.2-0.4
			C17.2,13,16.9,12,16.2,12C16.3,12,16.2,12,16.2,12z"/>
	</g>
	<g>
		
			<linearGradient id="SVGID_8_" gradientUnits="userSpaceOnUse" x1="15.4924" y1="772.5819" x2="15.4924" y2="755.3367" gradientTransform="matrix(1 0 0 1 0 -750)">
			<stop  offset="0" style="stop-color:#B40204"/>
			<stop  offset="0.3872" style="stop-color:#D1010B"/>
			<stop  offset="0.7555" style="stop-color:#E6000F"/>
			<stop  offset="1" style="stop-color:#ED0011"/>
		</linearGradient>
		<path class="st7" d="M15.1,18.7c-0.2,0,0.3-1,0-1.7c-0.3-0.6-1.4-0.4-1.6,0.3c-0.2,0.8,0.1,3.1,0.1,3.1s1.3,0.1,2.2,0
			c0.9,0,2-0.9,1.6-1.6C16.8,17.7,15.3,18.6,15.1,18.7z"/>
		<path d="M15.3,20.6c-0.9,0-1.8-0.1-1.8-0.1h-0.1v-0.1c0-0.1-0.3-2.3-0.1-3.1c0.1-0.5,0.5-0.8,0.9-0.8s0.7,0.1,0.9,0.4
			c0.2,0.4,0.1,1,0.1,1.4c0,0.1,0,0.2,0,0.2s0.1,0,0.2-0.1c0.5-0.2,1.6-0.7,2.2,0.4c0.1,0.3,0.1,0.5-0.1,0.8c-0.3,0.5-1,0.9-1.7,0.9
			C15.6,20.6,15.4,20.6,15.3,20.6z M13.6,20.3c0.3,0,1.4,0.1,2.1,0c0.6,0,1.2-0.4,1.5-0.8c0.1-0.2,0.2-0.4,0.1-0.6
			c-0.4-0.9-1.4-0.5-1.9-0.3c-0.1,0.1-0.2,0.1-0.3,0.1l0,0H15c-0.1-0.1,0-0.2,0-0.4c0.1-0.3,0.2-0.9,0-1.2c-0.1-0.2-0.4-0.4-0.7-0.3
			c-0.3,0-0.7,0.3-0.8,0.7C13.3,18.1,13.5,19.9,13.6,20.3z"/>
	</g>
</g>
<linearGradient id="SVGID_9_" gradientUnits="userSpaceOnUse" x1="10.4361" y1="780.6399" x2="10.4361" y2="768.783" gradientTransform="matrix(1 0 0 1 0 -750)">
	<stop  offset="0.2151" style="stop-color:#171717"/>
	<stop  offset="0.3809" style="stop-color:#434343"/>
	<stop  offset="0.5803" style="stop-color:#727272"/>
	<stop  offset="0.7573" style="stop-color:#949494"/>
	<stop  offset="0.9032" style="stop-color:#A8A8A8"/>
	<stop  offset="1" style="stop-color:#B0B0B0"/>
</linearGradient>
<path class="st8" d="M12.2,19.1h-0.7c0,0-2.9,3.1-2.9,11.6h1.8C10.4,30.6,9.7,22.7,12.2,19.1z"/>
<g>
	<rect x="24.4" y="17.7" width="1.5" height="13"/>
	<path d="M36.1,17.5h-6.4v13.2h1.5V19h4.9c1.4,0,2.1,0.7,2.1,2.1v9.6h1.5v-9.6C39.7,18.9,38.3,17.5,36.1,17.5z"/>
	<polygon points="41.3,19 45.2,19 45.2,30.6 46.7,30.6 46.7,19 51.2,19 51.2,17.5 41.3,17.5 	"/>
	<path d="M53,26.7c0,2.5,1.5,4.1,3.9,4.1h5v-1.5h-5c-2,0-2.4-1.4-2.4-2.6v-2.2h7.4V23h-7.4v-4h7.4v-1.5H53V26.7z"/>
	<path d="M87.2,21.4c0-2.4-1.9-4-4.9-4h-5.9v13.2h2.2v-11h3.7c0.8,0,2.7,0.2,2.7,1.7V22c0,0.9-0.2,1.9-2.2,1.9h-3.3l1.6,2h1.7
		c3.9,0,4.4-2.5,4.4-3.9L87.2,21.4L87.2,21.4z"/>
</g>
<path d="M65.8,19h4.1c1.4,0,2.5,1,2.5,2.3c0,1.2-0.6,2.4-2.1,2.4h-3.6l5.2,6.9h1.9l-4.1-5.5h0.6c2.1,0,3.6-1.6,3.6-3.9
	c0-2.1-1.8-3.8-4-3.8h-5.6v13.2h1.5V19z"/>
<path d="M89,30.8L93,20l0,0c0,0,0.1,0.2,0.3,0.5c0.4,0.9,2.7,7.3,3.7,10.3h2.4c-0.9-2.5-3.6-10-4-11.1c-0.7-1.8-1.7-1.9-2.6-1.9
	h-1.3l-4.8,13H89z"/>
<path d="M103.1,19.6h3.7c0.8,0,2.8,0.3,2.8,1.9c0,1.2-0.6,2-2.4,2h-3.5l5.3,7.2h2.7l-4-5.5c2.3-0.3,3.9-1.6,3.9-3.9
	c0-2.4-1.9-3.6-4.9-3.6h-5.9v12.9h2.2L103.1,19.6L103.1,19.6z"/>
<polygon points="125,17.7 122.1,17.7 116.7,23.3 116.1,23.4 116.1,17.7 113.9,17.7 113.9,30.6 116.1,30.6 116.1,24.3 116.7,24.3 
	121.9,30.6 124.9,30.6 118.7,23.8 "/>
<rect class="st9" width="125" height="40"/>
</svg>
