<?xml version="1.0" encoding="utf-8"?>
<!-- Generator: Adobe Illustrator 21.0.0, SVG Export Plug-In . SVG Version: 6.00 Build 0)  -->
<svg version="1.1" xmlns="http://www.w3.org/2000/svg" xmlns:xlink="http://www.w3.org/1999/xlink" x="0px" y="0px"
	 viewBox="0 0 125 40" enable-background="new 0 0 125 40" xml:space="preserve">
<g id="bg" display="none">
	<rect display="inline" fill="#FFFFFF" width="125" height="40"/>
</g>
<g id="icons">
	<g id="Amazon_3_">
		<g>
			<path fill-rule="evenodd" clip-rule="evenodd" fill="#FF9900" d="M77.548,30.806c-7.263,5.451-17.793,8.351-26.859,8.351
				c-12.709,0-24.15-4.778-32.809-12.73c-0.681-0.625-0.075-1.477,0.743-0.994c9.342,5.53,20.894,8.86,32.828,8.86
				c8.05,0,16.898-1.698,25.041-5.211C77.72,28.552,78.75,29.904,77.548,30.806z"/>
			<path fill-rule="evenodd" clip-rule="evenodd" fill="#FF9900" d="M80.571,27.297c-0.93-1.21-6.141-0.573-8.483-0.288
				c-0.708,0.086-0.818-0.544-0.179-1c4.157-2.97,10.97-2.113,11.761-1.118c0.798,1.004-0.209,7.95-4.105,11.264
				c-0.599,0.51-1.169,0.239-0.903-0.435C79.537,33.494,81.499,28.508,80.571,27.297z"/>
		</g>
		<g>
			<path fill-rule="evenodd" clip-rule="evenodd" d="M72.254,5.027V2.142c0.001-0.438,0.329-0.731,0.72-0.73l12.715-0.001
				c0.406,0,0.732,0.3,0.734,0.727l-0.001,2.475c-0.001,0.416-0.345,0.958-0.958,1.818l-6.586,9.565
				c2.447-0.057,5.033,0.315,7.253,1.585c0.502,0.286,0.636,0.711,0.675,1.125v3.081c0,0.424-0.457,0.915-0.937,0.659
				c-3.913-2.084-9.108-2.313-13.435,0.026c-0.443,0.24-0.904-0.244-0.904-0.668v-2.928c0-0.468,0.008-1.27,0.472-1.983
				l7.631-11.136l-6.644-0.001C72.582,5.754,72.256,5.461,72.254,5.027z"/>
			<path fill-rule="evenodd" clip-rule="evenodd" d="M25.866,23.052h-3.868c-0.368-0.025-0.662-0.306-0.691-0.666l0.003-20.195
				c0-0.404,0.333-0.727,0.746-0.727l3.603-0.001c0.376,0.019,0.678,0.31,0.702,0.678v2.636h0.072c0.94-2.549,2.71-3.74,5.093-3.74
				c2.42,0,3.936,1.191,5.021,3.74c0.938-2.549,3.069-3.74,5.344-3.74c1.626,0,3.395,0.681,4.479,2.211
				c1.227,1.699,0.975,4.165,0.975,6.331l-0.003,12.747c0,0.402-0.334,0.726-0.746,0.726H42.73
				c-0.389-0.025-0.694-0.337-0.694-0.724l-0.001-10.706c0-0.851,0.074-2.976-0.109-3.783c-0.288-1.36-1.155-1.743-2.274-1.743
				c-0.938,0-1.915,0.638-2.312,1.657c-0.398,1.02-0.361,2.721-0.361,3.869v10.705c0,0.402-0.334,0.726-0.746,0.726h-3.864
				c-0.389-0.025-0.694-0.337-0.694-0.724L31.67,11.622c0-2.253,0.361-5.569-2.383-5.569c-2.782,0-2.673,3.23-2.673,5.569
				l-0.001,10.705C26.613,22.729,26.279,23.052,25.866,23.052z"/>
			<path fill-rule="evenodd" clip-rule="evenodd" d="M97.369,1.038c5.743,0,8.849,5.015,8.849,11.39
				c0,6.162-3.43,11.051-8.849,11.051c-5.633,0-8.703-5.016-8.703-11.264C88.667,5.925,91.773,1.038,97.369,1.038z M97.406,5.161
				c-2.853,0-3.033,3.951-3.033,6.417c0,2.465-0.037,7.735,2.997,7.735c2.999,0,3.142-4.25,3.142-6.841
				c0-1.701-0.071-3.74-0.577-5.356C99.501,5.713,98.634,5.161,97.406,5.161z"/>
			<path fill-rule="evenodd" clip-rule="evenodd" d="M113.663,23.052h-3.854c-0.387-0.025-0.694-0.337-0.694-0.724L109.11,2.124
				c0.033-0.37,0.353-0.659,0.743-0.659l3.59-0.001c0.337,0.018,0.615,0.252,0.686,0.566v3.089h0.074
				c1.083-2.763,2.599-4.081,5.271-4.081c1.733,0,3.431,0.637,4.514,2.38C125,5.033,125,7.752,125,9.708v12.709
				c-0.044,0.357-0.36,0.636-0.742,0.636h-3.879c-0.357-0.023-0.646-0.291-0.689-0.636V11.451c0-2.209,0.252-5.44-2.419-5.44
				c-0.94,0-1.806,0.638-2.238,1.615c-0.541,1.233-0.615,2.466-0.615,3.826v10.875C114.411,22.729,114.075,23.052,113.663,23.052z"
				/>
			<path fill-rule="evenodd" clip-rule="evenodd" d="M62.117,13.408c0,1.533,0.034,2.811-0.724,4.173
				c-0.616,1.107-1.593,1.789-2.68,1.789c-1.482,0-2.351-1.151-2.351-2.855c0-3.351,2.956-3.961,5.756-3.961V13.408z M66.017,23.002
				c-0.256,0.235-0.625,0.25-0.914,0.091c-1.285-1.087-1.515-1.588-2.218-2.621c-2.124,2.2-3.628,2.86-6.379,2.86
				c-3.257,0-5.79-2.044-5.79-6.133c0-3.194,1.699-5.367,4.124-6.432c2.1-0.937,5.031-1.108,7.276-1.363V8.893
				c0-0.937,0.072-2.044-0.472-2.853c-0.471-0.724-1.375-1.023-2.171-1.023c-1.476,0-2.788,0.769-3.11,2.364
				c-0.067,0.355-0.322,0.705-0.672,0.723l-3.749-0.412c-0.318-0.072-0.668-0.331-0.577-0.822c0.862-4.628,4.97-6.026,8.651-6.026
				c1.882,0,4.344,0.51,5.828,1.96c1.882,1.788,1.699,4.173,1.699,6.772v6.131c0,1.844,0.754,2.653,1.462,3.647
				c0.247,0.357,0.303,0.784-0.014,1.045c-0.79,0.675-2.194,1.915-2.968,2.615L66.017,23.002z"/>
			<path fill-rule="evenodd" clip-rule="evenodd" d="M11.399,13.408c0,1.533,0.037,2.811-0.723,4.173
				c-0.616,1.107-1.593,1.789-2.679,1.789c-1.484,0-2.353-1.151-2.353-2.855c0-3.351,2.957-3.961,5.754-3.961V13.408z
				 M15.301,23.002c-0.258,0.235-0.626,0.25-0.915,0.091c-1.285-1.087-1.515-1.588-2.218-2.621c-2.124,2.2-3.628,2.86-6.377,2.86
				C2.533,23.332,0,21.288,0,17.199c0-3.194,1.701-5.367,4.124-6.432c2.1-0.937,5.033-1.108,7.275-1.363V8.893
				c0-0.937,0.074-2.044-0.469-2.853C10.46,5.315,9.554,5.017,8.757,5.017c-1.474,0-2.786,0.769-3.108,2.364
				C5.582,7.735,5.329,8.085,4.977,8.103L1.226,7.691C0.91,7.619,0.558,7.36,0.649,6.869C1.511,2.241,5.619,0.843,9.3,0.843
				c1.882,0,4.344,0.51,5.828,1.96c1.882,1.788,1.699,4.173,1.699,6.772v6.131c0,1.844,0.754,2.653,1.462,3.647
				c0.247,0.357,0.303,0.784-0.014,1.045c-0.79,0.675-2.193,1.915-2.966,2.615L15.301,23.002z"/>
		</g>
	</g>
</g>
</svg>
