<?xml version="1.0" encoding="utf-8"?>
<!-- Generator: Adobe Illustrator 16.0.0, SVG Export Plug-In . SVG Version: 6.00 Build 0)  -->
<!DOCTYPE svg PUBLIC "-//W3C//DTD SVG 1.1//EN" "http://www.w3.org/Graphics/SVG/1.1/DTD/svg11.dtd">
<svg version="1.1" id="Logos" xmlns="http://www.w3.org/2000/svg" xmlns:xlink="http://www.w3.org/1999/xlink" x="0px" y="0px"
	 width="125px" height="40px" viewBox="0 0 125 40" enable-background="new 0 0 125 40" xml:space="preserve">
<path fill="#6340A4" d="M12.154,34.184h6.033v-1.431l2.327,1.431h12.54l2.137-2.713l0.38,2.713h7.446v-2.665l3.099,2.665h6.744
	l0.542-2.724l2.625,2.724h7.487l2.776-2.775v2.775h4.294l3.563-2.828v2.828h4.869l7.575-5.094V14.691l-4.61-4.686H76.64V5.531
	h-9.456l-4.432,4.474h-4.65l-2.722,2.624v-2.624h-4.474V5.531H41.5l0,0h-7.394v4.474H13.879L9.406,5.531H0v19.699l4.726,4.549
	L12.154,34.184z"/>
<polygon fill="#FFFFFF" points="11.902,17.478 11.902,11.983 7.427,11.983 7.427,7.508 1.978,7.508 1.978,24.388 5.522,27.801 
	11.902,27.801 11.902,22.307 7.427,22.307 7.427,17.478 "/>
<polygon fill="#FFFFFF" points="53.401,17.478 53.401,11.983 48.927,11.983 48.927,7.508 43.478,7.508 43.478,24.388 47.022,27.801 
	53.401,27.801 53.401,22.307 48.927,22.307 48.927,17.478 "/>
<polygon fill="#FFFFFF" points="28.667,11.983 28.667,22.307 26.7,22.307 26.7,11.983 21.25,11.983 21.25,22.307 19.282,22.307 
	19.282,11.983 13.833,11.983 13.833,27.801 15.499,27.801 19.282,27.801 21.25,27.801 26.7,27.801 28.667,27.801 29.109,27.801 
	30.655,27.801 34.116,24.216 34.116,11.983 "/>
<rect x="36.083" y="11.983" fill="#FFFFFF" width="5.45" height="15.817"/>
<rect x="36.083" y="7.509" fill="#FFFFFF" width="5.45" height="2.429"/>
<polygon fill="#FFFFFF" points="55.354,24.388 58.899,27.801 67.246,27.801 67.246,22.307 60.859,22.307 60.859,17.478 
	67.246,17.478 67.246,11.983 58.899,11.983 55.354,15.398 "/>
<polygon fill="#FFFFFF" points="81.152,11.983 74.663,11.983 74.663,7.509 69.161,7.509 69.161,27.801 74.663,27.801 74.663,17.478 
	79.112,17.478 79.112,27.801 84.613,27.801 84.613,15.501 "/>
<rect fill="none" width="125" height="40"/>
</svg>
