<?xml version="1.0" encoding="utf-8"?>
<!-- Generator: Adobe Illustrator 16.0.0, SVG Export Plug-In . SVG Version: 6.00 Build 0)  -->
<!DOCTYPE svg PUBLIC "-//W3C//DTD SVG 1.1//EN" "http://www.w3.org/Graphics/SVG/1.1/DTD/svg11.dtd">
<svg version="1.1" xmlns="http://www.w3.org/2000/svg" xmlns:xlink="http://www.w3.org/1999/xlink" x="0px" y="0px" width="125px"
	 height="40px" viewBox="0 0 125 40" enable-background="new 0 0 125 40" xml:space="preserve">
<g id="Layer_1">
	<g>
		<g>
			<path fill-rule="evenodd" clip-rule="evenodd" fill="#DF0615" d="M66.439,26.766c-1.225,0-2.087,0-3.119,0
				c0-4.439,0-8.832,0-13.365c1.113-0.213,2.285-0.647,3.383,0.579c2.436-1.438,4.804-1.357,6.91,0.78
				c0.66-0.412,1.231-0.832,1.856-1.148c3.307-1.673,6.683,0.183,6.862,3.892c0.146,2.998,0.029,6.009,0.029,9.169
				c-1.047,0-1.971,0-3.211,0c-0.021-1.953-0.045-3.955-0.063-5.956c-0.008-0.798,0.069-1.606-0.025-2.394
				c-0.173-1.441-1-2.242-2.175-2.246c-1.378-0.005-2.4,1.007-2.434,2.532c-0.045,2.039-0.013,4.08-0.013,6.121
				c0,0.606,0,1.213,0,1.958c-1.108,0-2.037,0-3.284,0c0-1.823,0-3.654,0-5.485c0-0.799,0.045-1.601-0.012-2.395
				c-0.135-1.918-0.836-2.767-2.2-2.749c-1.556,0.019-2.438,0.958-2.493,2.788c-0.051,1.685-0.012,3.37-0.012,5.056
				C66.439,24.776,66.439,25.651,66.439,26.766z"/>
			<path fill-rule="evenodd" clip-rule="evenodd" fill="#181818" d="M54.129,17.627c1.343-1.612,2.471-2.967,3.588-4.307
				c1.008,0,1.953,0,3.008,0c0,4.503,0,8.89,0,13.401c-1.064,0-2.009,0-3.269,0c0-2.35,0-4.756,0-7.593
				c-1.304,1.384-2.243,2.382-3.358,3.564c-1.086-1.183-2.014-2.193-3.223-3.509c0,2.693,0,5.017,0,7.499c-1.222,0-2.234,0-3.398,0
				c0-4.405,0-8.792,0-13.366c0.963-0.045,1.903-0.089,2.897-0.136C51.593,14.623,52.776,16.024,54.129,17.627z"/>
			<path fill-rule="evenodd" clip-rule="evenodd" fill="#DF0614" d="M95.629,26.912c-1.31-0.31-2.564,0.497-3.354-0.859
				c-0.546,0.257-1.07,0.602-1.646,0.76c-3.188,0.878-5.905-0.831-6.11-4.07c-0.195-3.079-0.043-6.18-0.043-9.402
				c1.094,0,2.024,0,3.232,0c0,2.258-0.001,4.454,0,6.649c0,0.622-0.042,1.249,0.018,1.865c0.141,1.446,0.922,2.258,2.117,2.274
				c1.345,0.018,2.604-1.06,2.639-2.419c0.061-2.309,0.013-4.621,0.021-6.93c0.001-0.433,0.053-0.864,0.091-1.431
				c1.009,0,1.938,0,3.034,0C95.629,17.789,95.629,22.176,95.629,26.912z"/>
			<path fill-rule="evenodd" clip-rule="evenodd" fill="#E00C1B" d="M101.432,17.024c0.773,0.549,1.552,1.093,2.319,1.651
				c0.784,0.57,1.637,1.075,2.323,1.747c2.186,2.138,1.21,5.633-1.78,6.426c-2.256,0.599-4.354,0.131-6.381-1.122
				c0-1.134,0-2.265,0-3.612c1.878,0.902,3.498,2.449,5.953,1.274c-0.397-0.512-0.652-1.039-1.071-1.343
				c-1.07-0.778-2.28-1.372-3.311-2.196c-1.493-1.196-1.995-2.778-1.415-4.225c0.655-1.63,1.925-2.475,3.685-2.594
				c1.725-0.116,3.336,0.193,4.882,1.245c0,0.999,0,2.038,0,3.324c-0.913-0.441-1.696-0.957-2.558-1.195
				c-0.774-0.215-1.633-0.127-2.456-0.172C101.559,16.496,101.495,16.759,101.432,17.024z"/>
			<path fill-rule="evenodd" clip-rule="evenodd" fill="#E00B1A" d="M124.772,14.22c0,1.059,0,2.169,0,3.448
				c-0.849-0.436-1.521-0.84-2.237-1.136c-1.421-0.588-2.788-0.446-3.955,0.597c-1.003,0.895-1.383,3.106-0.814,4.467
				c0.613,1.471,1.781,2.229,3.337,2.136c1.216-0.074,2.417-0.411,3.779-0.659c0,0.951,0,2.02,0,3.106
				c-3.899,1.627-7.614,0.964-9.55-1.715c-1.898-2.626-1.725-6.98,0.377-9.42C117.713,12.716,121.42,12.354,124.772,14.22z"/>
			<path fill-rule="evenodd" clip-rule="evenodd" fill="#1A1A1A" d="M41.735,13.318c0,1.028,0,1.883,0,2.921
				c-1.394,0-2.693,0-4.151,0c0,3.521,0,6.862,0,10.406c-1.177,0-2.189,0-3.468,0c0-3.299,0-6.714,0-10.309
				c-1.558,0-2.864,0-4.346,0c0-1.087,0-1.991,0-3.018C33.729,13.318,37.605,13.318,41.735,13.318z"/>
			<path fill-rule="evenodd" clip-rule="evenodd" fill="#080808" d="M45.957,26.764c-1.107,0-1.978,0-2.828,0
				c-0.557-1.729-0.637-11.252-0.107-13.432c0.918,0,1.858,0,2.936,0C45.957,17.802,45.957,22.18,45.957,26.764z"/>
			<path fill-rule="evenodd" clip-rule="evenodd" fill="#DF0614" d="M112.158,26.755c-1.084,0-1.947,0-2.964,0
				c0-4.462,0-8.855,0-13.401c0.935,0,1.86,0,2.964,0C112.158,17.773,112.158,22.158,112.158,26.755z"/>
		</g>
		<g>
			<path fill-rule="evenodd" clip-rule="evenodd" fill="#DD010F" d="M11.177,32.907c-0.853-0.474-1.706-0.946-2.559-1.42
				c0.039-0.18,0.025-0.401,0.128-0.534c0.856-1.113,1.044-2.403,1.008-3.745c-0.078-2.911-0.694-5.648-2.222-8.203
				c-0.917-1.533-2.136-2.516-3.735-3.142c-0.974-0.574-1.962-1.126-2.91-1.739c-0.229-0.147-0.323-0.5-0.48-0.758
				c0.187-0.19,0.341-0.434,0.562-0.563c3.05-1.782,6.125-3.519,9.154-5.334c0.883-0.529,1.594-0.536,2.473-0.009
				c2.988,1.791,6.021,3.51,9.021,5.281c0.332,0.197,0.568,0.556,0.851,0.839c-2.159,1.232-4.318,2.463-6.478,3.695
				c-0.188,0.096-0.373,0.193-0.56,0.29c-0.474,0.281-0.947,0.562-1.42,0.842c-0.808,0.407-1.616,0.812-2.423,1.223
				c-0.463,0.235-0.439,0.652-0.389,1.077c0.012,3.493,0.023,6.986,0.034,10.48c0.002,0.186,0.003,0.373,0.005,0.559
				c-0.045,0.088-0.056,0.18-0.031,0.276C11.197,32.316,11.187,32.611,11.177,32.907z"/>
			<path fill-rule="evenodd" clip-rule="evenodd" fill="#8F0B12" d="M15.99,17.275c2.159-1.232,4.318-2.463,6.478-3.695
				c0,4.335,0,8.669,0,13.183c-2.271,1.281-4.597,2.595-6.923,3.907c-0.227-0.199-0.452-0.398-0.678-0.597
				c0.211-0.181,0.422-0.363,0.633-0.545c0.082-0.003,0.157-0.028,0.224-0.075c0.101-0.079,0.201-0.159,0.302-0.238l-0.003,0.014
				c1.711-0.909,3.422-1.818,5.187-2.755c-0.193-0.252-0.252-0.397-0.355-0.454c-1.229-0.667-2.465-1.32-3.698-1.977
				c-0.001-0.077-0.012-0.153-0.032-0.227c0.938-1.33,0.562-2.797,0.456-4.242C17.5,18.481,17.164,17.597,15.99,17.275z"/>
			<path fill-rule="evenodd" clip-rule="evenodd" fill="#C20412" d="M0.406,13.367c0.157,0.258,0.252,0.611,0.48,0.758
				c0.948,0.613,1.937,1.166,2.91,1.739c0.106,0.248,0.161,0.54,0.328,0.736c1.275,1.5,2.365,3.132,3.062,4.965
				c0.62,1.632,1.167,3.316,1.147,5.104c-0.017,1.444-0.313,2.838-0.846,4.181c-0.586-0.352-1.171-0.702-1.757-1.053
				c0.687-0.297,0.974-0.8,0.915-1.563c-0.054-0.703-0.044-1.415-0.006-2.12c0.135-2.427-0.849-4.506-1.985-6.545
				c-0.814-1.464-2.095-2.483-3.378-3.486c-0.255-0.198-0.7-0.152-1.058-0.219C0.188,15.024-0.079,14.168,0.406,13.367z"/>
			<path fill-rule="evenodd" clip-rule="evenodd" fill="#D0010F" d="M7.489,30.85c0.532-1.343,0.829-2.737,0.846-4.181
				c0.02-1.788-0.527-3.472-1.147-5.104C6.49,19.732,5.4,18.101,4.125,16.6c-0.167-0.196-0.222-0.488-0.328-0.736
				c1.6,0.626,2.818,1.609,3.735,3.142c1.527,2.555,2.144,5.292,2.222,8.203c0.036,1.342-0.151,2.632-1.008,3.745
				c-0.103,0.132-0.089,0.354-0.128,0.534C8.242,31.275,7.865,31.062,7.489,30.85z"/>
			<path fill-rule="evenodd" clip-rule="evenodd" fill="#B4010D" d="M0.221,15.864c0.357,0.066,0.803,0.021,1.058,0.219
				c1.283,1.002,2.563,2.022,3.378,3.486c1.137,2.039,2.12,4.118,1.985,6.545c-0.038,0.705-0.048,1.417,0.006,2.12
				c0.059,0.763-0.229,1.266-0.915,1.563c-0.36-0.201-0.72-0.403-1.08-0.604c0.094-0.375,0.188-0.75,0.281-1.125
				c0.487-0.167,0.559-0.541,0.576-1.006c0.125-3.403-1.211-6.258-3.429-8.699c-0.416-0.458-0.954-1.23-1.86-1.081
				C0.221,16.809,0.221,16.336,0.221,15.864z"/>
			<path fill-rule="evenodd" clip-rule="evenodd" fill="#900A15" d="M2.304,27.813C2.212,27.795,2.107,27.8,2.03,27.756
				c-2.114-1.217-1.888-0.788-1.884-3.116c0.002-1.128,0.046-2.257,0.071-3.385c0.678,0.067,1.036,0.507,1.3,1.083
				c0.437,0.958,0.895,1.906,1.215,2.584c0.057,0.784,0.029,1.319,0.149,1.818C3.021,27.324,2.817,27.629,2.304,27.813z"/>
			<path fill-rule="evenodd" clip-rule="evenodd" fill="#9D020E" d="M2.304,27.813c0.514-0.185,0.718-0.489,0.578-1.073
				c-0.12-0.5-0.093-1.035-0.149-1.818c-0.32-0.678-0.778-1.626-1.215-2.584c-0.264-0.577-0.622-1.016-1.3-1.083
				c0.001-0.567,0.003-1.134,0.005-1.701c0.59-0.016,0.964,0.269,1.389,0.699c2.006,2.033,2.276,4.618,2.471,7.247
				c-0.1,0.395-0.199,0.791-0.299,1.186C3.29,28.395,2.797,28.104,2.304,27.813z"/>
			<path fill-rule="evenodd" clip-rule="evenodd" fill="#AA000C" d="M0.221,17.281c0.906-0.149,1.444,0.623,1.86,1.081
				c2.218,2.441,3.554,5.296,3.429,8.699c-0.018,0.465-0.089,0.838-0.576,1.006c-0.189-0.189-0.378-0.379-0.567-0.568
				c0.095-0.352,0.263-0.701,0.271-1.055c0.078-2.876-1.04-5.305-2.939-7.382c-0.331-0.362-0.976-0.438-1.476-0.646
				C0.222,18.038,0.222,17.66,0.221,17.281z"/>
			<path fill-rule="evenodd" clip-rule="evenodd" fill="#A5000C" d="M0.223,18.416c0.5,0.208,1.145,0.284,1.476,0.646
				c1.899,2.078,3.018,4.506,2.939,7.382c-0.009,0.354-0.177,0.703-0.271,1.055c-0.095,0-0.189,0-0.284,0
				c-0.194-2.628-0.465-5.213-2.471-7.247c-0.425-0.43-0.799-0.715-1.389-0.699C0.223,19.175,0.223,18.795,0.223,18.416z"/>
			<path fill-rule="evenodd" clip-rule="evenodd" fill="#8A1717" d="M14.867,30.073c0.226,0.199,0.451,0.398,0.678,0.597
				c-1.215,0.74-2.421,1.493-3.65,2.207c-0.184,0.107-0.476,0.025-0.718,0.031c0.01-0.296,0.021-0.591,0.03-0.886
				c0.094-0.08,0.188-0.161,0.281-0.24c0.559-0.296,1.118-0.593,1.677-0.888C13.732,30.619,14.3,30.346,14.867,30.073z"/>
			<path fill-rule="evenodd" clip-rule="evenodd" fill="#A7050F" d="M4.082,27.5c0.095,0,0.189,0,0.284,0
				c0.189,0.189,0.378,0.379,0.567,0.568c-0.094,0.375-0.188,0.75-0.281,1.125c-0.289-0.169-0.58-0.338-0.869-0.508
				C3.883,28.29,3.982,27.895,4.082,27.5z"/>
			<path fill-rule="evenodd" clip-rule="evenodd" fill="#B78C01" d="M11.233,31.186c-0.011-3.494-0.022-6.987-0.034-10.48
				c0.853,0.46,1.706,0.921,2.559,1.382c-0.556,0.185-0.661,0.624-0.591,1.123c0.187,1.32-0.306,2.525-0.954,3.546
				c-0.68,1.07-0.814,2.128-0.747,3.299C11.389,30.433,11.311,30.809,11.233,31.186z"/>
			<path fill-rule="evenodd" clip-rule="evenodd" fill="#D9B101" d="M11.233,31.186c0.077-0.377,0.155-0.753,0.232-1.13
				c0.683-0.01,0.944-0.499,1.202-1.022c0.49-0.998,0.806-2.08,1.234-3.07c0.488-1.13,0.67-2.196,0.699-3.358
				c0.278,0.135,0.558,0.27,0.837,0.404c0.019,2.582-0.594,4.968-2.134,7.086c-0.142,0.196-0.098,0.528-0.14,0.797
				c-0.559,0.295-1.118,0.592-1.677,0.888c-0.082-0.021-0.165-0.033-0.25-0.036C11.236,31.559,11.235,31.372,11.233,31.186z"/>
			<path fill-rule="evenodd" clip-rule="evenodd" fill="#7C090F" d="M15.438,23.009c-0.279-0.134-0.559-0.269-0.837-0.404
				c-0.107-0.146-0.215-0.293-0.321-0.44c0.006-0.615,0.052-1.232,0.007-1.843c-0.047-0.642-0.182-1.277-0.276-1.915
				c0.473-0.281,0.946-0.562,1.42-0.842c0.189,0.24,0.527,0.467,0.547,0.72c0.133,1.671,0.197,3.349,0.284,5.023
				C15.987,23.208,15.713,23.108,15.438,23.009z"/>
			<path fill-rule="evenodd" clip-rule="evenodd" fill="#850811" d="M16.262,23.308c-0.087-1.675-0.151-3.352-0.284-5.023
				c-0.02-0.253-0.357-0.48-0.547-0.72c0.187-0.097,0.372-0.193,0.56-0.29c1.174,0.322,1.51,1.206,1.589,2.299
				c0.105,1.445,0.482,2.912-0.456,4.242c-0.175-0.033-0.35-0.066-0.523-0.098C16.486,23.582,16.374,23.445,16.262,23.308z"/>
			<path fill-rule="evenodd" clip-rule="evenodd" fill="#6E090D" d="M14.011,18.407c0.095,0.638,0.229,1.273,0.276,1.915
				c0.045,0.611-0.001,1.229-0.007,1.843c-0.175-0.026-0.349-0.051-0.522-0.077c-0.853-0.461-1.706-0.921-2.559-1.382
				c-0.051-0.424-0.074-0.841,0.389-1.077C12.395,19.219,13.203,18.814,14.011,18.407z"/>
			<path fill-rule="evenodd" clip-rule="evenodd" fill="#B78C01" d="M11.238,31.745c0.085,0.002,0.168,0.014,0.25,0.036
				c-0.094,0.08-0.188,0.16-0.281,0.24C11.183,31.925,11.193,31.833,11.238,31.745z"/>
			<path fill-rule="evenodd" clip-rule="evenodd" fill="#F9CA01" d="M17.155,24.043c1.233,0.657,2.47,1.31,3.698,1.977
				c0.104,0.056,0.162,0.201,0.355,0.454c-1.765,0.937-3.476,1.846-5.187,2.755c0.114-0.63,0.041-1.396,0.38-1.862
				C17.162,26.327,17.129,25.198,17.155,24.043z"/>
			<path fill-rule="evenodd" clip-rule="evenodd" fill="#E5BB01" d="M16.262,23.308c0.112,0.137,0.225,0.273,0.338,0.41
				c-0.059,0.498,0.037,1.101-0.214,1.468c-0.319,0.47-0.39,0.907-0.39,1.417c-0.001,0.179-0.039,0.366-0.104,0.533
				c-0.229,0.582-0.516,1.145-0.692,1.741c-0.051,0.172,0.192,0.432,0.3,0.65c-0.211,0.182-0.422,0.364-0.633,0.545
				c-0.567,0.273-1.135,0.546-1.702,0.82c0.042-0.269-0.002-0.602,0.14-0.797c1.54-2.118,2.152-4.505,2.134-7.086
				C15.713,23.108,15.987,23.208,16.262,23.308z"/>
			<path fill-rule="evenodd" clip-rule="evenodd" fill="#F0C402" d="M15.5,29.527c-0.107-0.219-0.351-0.478-0.3-0.65
				c0.177-0.596,0.464-1.159,0.692-1.741c0.064-0.167,0.103-0.354,0.104-0.533c0-0.51,0.07-0.947,0.39-1.417
				c0.251-0.368,0.155-0.97,0.214-1.468c0.174,0.032,0.349,0.065,0.523,0.098c0.021,0.074,0.031,0.15,0.032,0.227
				c-0.026,1.155,0.007,2.284-0.753,3.323c-0.339,0.465-0.266,1.232-0.38,1.862l0.003-0.014c-0.101,0.08-0.201,0.159-0.302,0.238
				C15.657,29.5,15.582,29.524,15.5,29.527z"/>
			<path fill-rule="evenodd" clip-rule="evenodd" fill="#F9CA01" d="M15.724,29.453c0.101-0.079,0.201-0.159,0.302-0.238
				C15.925,29.294,15.824,29.374,15.724,29.453z"/>
			<path fill-rule="evenodd" clip-rule="evenodd" fill="#CBA501" d="M13.758,22.088c0.174,0.026,0.348,0.051,0.522,0.077
				c0.106,0.146,0.214,0.293,0.321,0.44c-0.029,1.162-0.211,2.228-0.699,3.358c-0.429,0.991-0.744,2.072-1.234,3.07
				c-0.258,0.523-0.52,1.012-1.202,1.022c-0.067-1.171,0.067-2.229,0.747-3.299c0.648-1.021,1.141-2.227,0.954-3.546
				C13.097,22.711,13.202,22.273,13.758,22.088z"/>
		</g>
	</g>
</g>
<g id="Layer_2">
</g>
<g id="template" display="none">
</g>
</svg>
