<?xml version="1.0" encoding="utf-8"?>
<!-- Generator: Adobe Illustrator 16.0.0, SVG Export Plug-In . SVG Version: 6.00 Build 0)  -->
<!DOCTYPE svg PUBLIC "-//W3C//DTD SVG 1.1//EN" "http://www.w3.org/Graphics/SVG/1.1/DTD/svg11.dtd">
<svg version="1.1" xmlns="http://www.w3.org/2000/svg" xmlns:xlink="http://www.w3.org/1999/xlink" x="0px" y="0px" width="125px"
	 height="40px" viewBox="0 0 125 40" enable-background="new 0 0 125 40" xml:space="preserve">
<g id="Layer_1">
	<g>
		<rect fill-rule="evenodd" clip-rule="evenodd" width="110" height="40"/>
		<path fill-rule="evenodd" clip-rule="evenodd" fill="#FA5D01" d="M26.578,13.158c-0.462,0.244-0.909,0.434-1.297,0.691
			c-1.193,0.791-2.051,1.83-2.749,2.975c-0.902,1.481-1.498,3.044-1.583,4.733c-0.016,0.319,0.029,0.641,0.054,0.962
			c0.017,0.201-0.046,0.26-0.269,0.155c-1.441-0.678-2.758-1.487-3.679-2.703c-0.462-0.609-0.57-1.225-0.204-1.932
			c0.629-1.216,1.518-2.242,2.669-3.104c0.085-0.063,0.162-0.133,0.294-0.242c-0.44-0.107-0.82-0.207-1.205-0.292
			c-1.752-0.39-3.518-0.708-5.338-0.683c-0.739,0.011-1.471,0.08-2.151,0.36c-0.939,0.387-1.271,1.042-0.97,1.909
			c0.267,0.765,0.773,1.411,1.375,1.997c2.209,2.15,4.846,3.835,7.659,5.317c3.827,2.014,7.906,3.498,12.247,4.42
			c1.475,0.313,2.97,0.564,4.496,0.495c0.632-0.028,1.285-0.129,1.876-0.319c0.925-0.297,1.251-0.965,0.991-1.803
			c-0.238-0.763-0.709-1.429-1.308-1.998c-0.932-0.884-1.907-1.738-2.916-2.555c-0.407-0.331-0.254-0.712-0.348-1.073
			c0.075-0.004,0.178-0.037,0.225-0.006c0.513,0.338,1.047,0.659,1.518,1.039c1.096,0.885,2.194,1.771,3.225,2.712
			c0.842,0.77,1.579,1.625,1.944,2.671c0.078,0.219,0.133,0.449,0.154,0.677c0.064,0.671-0.269,1.164-0.936,1.487
			c-0.835,0.409-1.755,0.534-2.689,0.558c-2.299,0.061-4.526-0.336-6.727-0.862c-3.012-0.72-5.906-1.711-8.707-2.917
			c-0.204-0.088-0.413-0.169-0.699-0.285c0.555,1.587,1.67,2.744,3.091,3.711c-0.016,0.034-0.031,0.066-0.046,0.1
			c-0.463-0.063-0.941-0.087-1.388-0.197c-3.549-0.873-5.794-2.885-6.797-5.979c-0.051-0.156-0.179-0.32-0.327-0.42
			c-1.474-1.005-3.01-1.946-4.43-3.007c-1.467-1.097-2.817-2.317-3.676-3.868c-0.184-0.33-0.312-0.694-0.393-1.054
			c-0.199-0.886,0.212-1.565,1.155-1.934c1.115-0.436,2.3-0.435,3.487-0.374c2.797,0.145,5.481,0.755,8.126,1.522
			c0.309,0.09,0.545,0.072,0.831-0.062c1.553-0.724,3.224-0.973,4.967-0.889C26.269,13.1,26.403,13.132,26.578,13.158z"/>
		<path fill-rule="evenodd" clip-rule="evenodd" fill="#FCFCFC" d="M96.1,18.2c0,0.876-0.016,1.728,0.004,2.579
			c0.037,1.647,0.095,3.295,0.145,4.942c0.023,0.763,0.038,1.527,0.074,2.29c0.008,0.142-0.031,0.164-0.174,0.164
			c-1.059-0.004-2.114-0.008-3.173,0.001c-0.293,0.003-0.195-0.171-0.195-0.288c-0.004-2.655-0.004-5.31-0.004-7.964
			c0-1.801,0.005-3.6-0.007-5.401c-0.001-0.238,0.071-0.298,0.342-0.296c1.333,0.013,2.668,0.014,4.001-0.001
			c0.274-0.003,0.363,0.071,0.423,0.298c0.844,3.166,1.699,6.329,2.555,9.492c0.014,0.054,0.04,0.106,0.137,0.153
			c0-0.36,0.007-0.719-0.002-1.08c-0.023-1.104-0.056-2.208-0.082-3.313c-0.041-1.718-0.079-3.436-0.119-5.153
			c-0.01-0.39-0.011-0.39,0.42-0.39c0.908,0,1.817,0.005,2.726-0.004c0.221-0.003,0.317,0.024,0.317,0.253
			c-0.009,4.485-0.009,8.97,0,13.455c0,0.212-0.084,0.24-0.291,0.239c-1.357-0.007-2.714-0.01-4.07,0.003
			c-0.242,0.002-0.301-0.086-0.35-0.263c-0.859-3.162-1.727-6.322-2.593-9.482C96.163,18.359,96.132,18.289,96.1,18.2z"/>
		<path fill-rule="evenodd" clip-rule="evenodd" fill="#FCFCFC" d="M80.443,19.941c0,1.648-0.042,3.299,0.009,4.946
			c0.069,2.185-1.557,3.277-3.628,3.508c-1.217,0.136-2.413,0.052-3.522-0.454c-1.244-0.567-1.89-1.486-1.896-2.702
			c-0.019-3.57-0.004-7.14-0.015-10.709c0-0.259,0.086-0.311,0.365-0.306c0.941,0.016,1.885,0.017,2.826,0
			c0.297-0.006,0.382,0.051,0.381,0.324c-0.014,3.369-0.009,6.737-0.007,10.106c0.002,0.239,0.015,0.485,0.075,0.717
			c0.11,0.422,0.44,0.63,0.917,0.623c0.474-0.006,0.782-0.229,0.881-0.662c0.045-0.195,0.061-0.399,0.061-0.6
			c0.004-3.398,0.007-6.797-0.004-10.195c0-0.248,0.059-0.319,0.353-0.314c0.966,0.019,1.932,0.017,2.896,0.001
			c0.271-0.005,0.315,0.069,0.313,0.286C80.438,16.321,80.443,18.131,80.443,19.941z"/>
		<path fill-rule="evenodd" clip-rule="evenodd" fill="#FCFCFC" d="M91.801,28.171c-1.178,0-2.336,0.003-3.496-0.009
			c-0.07-0.001-0.179-0.128-0.203-0.212c-0.488-1.66-0.966-3.322-1.447-4.984c-0.154-0.536-0.302-1.072-0.465-1.606
			c-0.061-0.199-0.02-0.279,0.236-0.32c0.71-0.113,1.065-0.565,1.231-1.13c0.224-0.76,0.225-1.534,0.008-2.296
			c-0.233-0.813-0.868-1.176-1.822-1.07c-0.062,0.006-0.13,0.095-0.163,0.158c-0.027,0.049-0.006,0.118-0.006,0.179
			c0,3.659-0.005,7.318,0.008,10.978c0.002,0.271-0.081,0.325-0.373,0.32c-0.967-0.019-1.932-0.013-2.896-0.002
			c-0.212,0.002-0.268-0.044-0.268-0.232c0.007-4.494,0.007-8.987,0.002-13.48c0-0.184,0.051-0.237,0.267-0.236
			c1.506,0.011,3.012-0.016,4.516,0.017c2.379,0.05,4.035,1.362,4.314,3.418c0.146,1.068,0.099,2.141-0.444,3.131
			c-0.229,0.417-0.585,0.784-0.925,1.143c-0.136,0.143-0.183,0.234-0.119,0.411c0.656,1.847,1.303,3.695,1.952,5.544
			C91.737,27.976,91.765,28.062,91.801,28.171z"/>
		<path fill-rule="evenodd" clip-rule="evenodd" fill="#FCFCFC" d="M45.804,23.646c0.471,0,0.942,0.012,1.413-0.005
			c0.236-0.008,0.312,0.044,0.31,0.262c-0.001,0.46,0,0.926,0.072,1.381c0.077,0.487,0.491,0.813,0.939,0.834
			c0.456,0.02,0.771-0.157,0.922-0.54c0.214-0.543,0.151-1.066-0.183-1.563c-0.416-0.615-1.007-1.088-1.623-1.547
			c-0.793-0.591-1.646-1.145-2.328-1.825c-1.265-1.26-1.462-2.765-0.873-4.325c0.518-1.372,2.211-2.299,4.096-2.347
			c0.923-0.023,1.812,0.084,2.625,0.493c1.408,0.709,1.941,1.844,2.002,3.2c0.013,0.302,0.012,0.604-0.008,0.904
			c-0.003,0.062-0.12,0.166-0.186,0.167c-1,0.011-2.001,0.004-3.001,0.012c-0.181,0.001-0.205-0.066-0.206-0.198
			c-0.002-0.361,0.005-0.725-0.033-1.083c-0.021-0.195-0.101-0.394-0.199-0.572c-0.148-0.272-0.407-0.436-0.77-0.424
			c-0.363,0.011-0.645,0.157-0.795,0.45c-0.311,0.611-0.264,1.21,0.219,1.73c0.322,0.348,0.713,0.654,1.098,0.952
			c0.8,0.619,1.659,1.183,2.42,1.836c1.602,1.376,1.81,3.064,1.175,4.852c-0.347,0.972-1.197,1.577-2.296,1.894
			c-1.218,0.352-2.453,0.396-3.688,0.055c-1.749-0.482-2.822-1.74-2.867-3.349c-0.01-0.342,0.008-0.685-0.006-1.025
			c-0.007-0.173,0.059-0.226,0.254-0.221C44.793,23.653,45.298,23.646,45.804,23.646z"/>
		<path fill-rule="evenodd" clip-rule="evenodd" fill="#FCFCFC" d="M58.663,17.436c-0.08,0.512-0.162,1.025-0.237,1.538
			c-0.338,2.292-0.674,4.583-1.012,6.875c-0.103,0.698-0.214,1.394-0.305,2.093c-0.021,0.174-0.072,0.237-0.287,0.235
			c-1.069-0.01-2.139-0.007-3.206-0.002c-0.171,0-0.237-0.015-0.198-0.196c0.696-3.277,1.384-6.556,2.072-9.833
			c0.255-1.215,0.514-2.428,0.758-3.644c0.041-0.209,0.117-0.277,0.37-0.275c1.367,0.014,2.736,0.01,4.104,0.002
			c0.221-0.002,0.307,0.039,0.351,0.248c0.812,3.911,1.636,7.819,2.458,11.728c0.125,0.593,0.248,1.185,0.383,1.776
			c0.03,0.137,0.021,0.196-0.168,0.195c-1.094-0.006-2.186-0.009-3.277,0.001c-0.245,0.002-0.213-0.144-0.229-0.257
			c-0.126-0.836-0.241-1.674-0.359-2.511c-0.297-2.094-0.594-4.188-0.891-6.283c-0.078-0.564-0.156-1.128-0.235-1.693
			C58.725,17.433,58.694,17.434,58.663,17.436z"/>
		<path fill-rule="evenodd" clip-rule="evenodd" fill="#FCFCFC" d="M64.983,22.435c0-1.81-0.005-3.62,0.008-5.43
			c0-0.232-0.058-0.309-0.337-0.3c-0.677,0.019-1.356-0.001-2.034,0.01c-0.216,0.003-0.272-0.052-0.269-0.238
			c0.013-0.673,0.014-1.348-0.002-2.021c-0.004-0.197,0.078-0.229,0.279-0.228c2.574,0.006,5.15,0.006,7.726,0
			c0.225-0.001,0.291,0.052,0.286,0.25c-0.015,0.664-0.015,1.328,0.001,1.992c0.004,0.205-0.073,0.252-0.292,0.246
			c-0.494-0.014-0.99,0.01-1.482-0.01c-0.266-0.011-0.319,0.062-0.319,0.284c0.008,3.609,0.001,7.221,0.015,10.83
			c0.001,0.287-0.066,0.368-0.405,0.36c-0.965-0.024-1.932-0.015-2.896-0.003c-0.229,0.002-0.282-0.056-0.282-0.25
			C64.986,26.095,64.983,24.266,64.983,22.435z"/>
	</g>
</g>
<g id="Layer_2">
</g>
<g id="template" display="none">
</g>
</svg>
