<?xml version="1.0" encoding="utf-8"?>
<!-- Generator: Adobe Illustrator 20.1.0, SVG Export Plug-In . SVG Version: 6.00 Build 0)  -->
<svg version="1.1" id="logos" xmlns="http://www.w3.org/2000/svg" xmlns:xlink="http://www.w3.org/1999/xlink" x="0px" y="0px"
	 viewBox="0 0 125 40" enable-background="new 0 0 125 40" xml:space="preserve">
<g>
	<rect x="0" y="0" width="72.657" height="40"/>
	<g>
		<path fill="#E4167E" d="M11.17,14.377H4.259c-0.213,0-0.386,0.173-0.386,0.386v1.543c0,0.213,0.173,0.386,0.386,0.386h2.218v8.743
			c0,0.213,0.173,0.386,0.386,0.386h1.672c0.213,0,0.386-0.173,0.386-0.386v-8.743h2.25c0.213,0,0.386-0.173,0.386-0.386v-1.543
			C11.556,14.55,11.383,14.377,11.17,14.377z"/>
		<path fill="#E3167F" d="M22.177,25.501l-2.392-4.276c0,0,1.575-0.707,1.575-2.732c0-0.643,0-1.286,0-1.286
			c0-1.414-1.157-2.829-2.861-2.829c-1.061,0-1.704,0-1.704,0c-2.218,0-2.957,1.607-2.957,2.764v8.293
			c0,0.213,0.173,0.386,0.386,0.386h1.672c0.213,0,0.386-0.173,0.386-0.386v-3.289c0-0.119,0.096-0.215,0.215-0.215h0.786
			c0.077,0,0.148,0.041,0.186,0.107l2.126,3.675c0.038,0.067,0.109,0.107,0.186,0.107h2.209
			C22.154,25.821,22.258,25.644,22.177,25.501z M17.535,19.617h-1.038c-0.119,0-0.215-0.096-0.215-0.215v-1.874
			c0-0.579,0.354-1.029,1.35-1.029s1.318,0.546,1.318,1.447C18.949,19.231,18.403,19.617,17.535,19.617z"/>
		<linearGradient id="SVGID_1_" gradientUnits="userSpaceOnUse" x1="60.7051" y1="20.0992" x2="69.072" y2="20.0992">
			<stop  offset="0" style="stop-color:#C5218A"/>
			<stop  offset="1" style="stop-color:#C3258F"/>
		</linearGradient>
		<path fill="url(#SVGID_1_)" d="M69.044,25.501l-2.392-4.276c0,0,1.575-0.707,1.575-2.732c0-0.643,0-1.286,0-1.286
			c0-1.414-1.157-2.829-2.861-2.829c-1.061,0-1.704,0-1.704,0c-2.218,0-2.957,1.607-2.957,2.764v8.293
			c0,0.213,0.173,0.386,0.386,0.386h1.672c0.213,0,0.386-0.173,0.386-0.386v-3.289c0-0.119,0.096-0.215,0.215-0.215h0.786
			c0.077,0,0.148,0.041,0.186,0.107l2.126,3.675c0.038,0.067,0.109,0.107,0.186,0.107h2.209
			C69.021,25.821,69.125,25.644,69.044,25.501z M64.402,19.617h-1.038c-0.119,0-0.215-0.096-0.215-0.215v-1.874
			c0-0.579,0.354-1.029,1.35-1.029c0.996,0,1.318,0.546,1.318,1.447C65.816,19.231,65.27,19.617,64.402,19.617z"/>
		<g>
			<linearGradient id="SVGID_2_" gradientUnits="userSpaceOnUse" x1="38.8691" y1="25.5062" x2="49.5882" y2="25.5062">
				<stop  offset="0" style="stop-color:#D02D81"/>
				<stop  offset="1" style="stop-color:#BE2184"/>
			</linearGradient>
			<path fill="url(#SVGID_2_)" d="M45.07,23.474h2.761c0.151,0,0.273,0.122,0.273,0.273v1.8c0,0.151-0.122,0.273-0.273,0.273h-3.681
				c-0.146,0-0.288-0.015-0.428-0.038l-4.854,8.316c6.812-1.236,10.719-7.047,10.719-13.157c0-1.21-0.382-2.916-0.689-4.029
				L45.07,23.474z"/>
			<linearGradient id="SVGID_3_" gradientUnits="userSpaceOnUse" x1="23.8899" y1="12.9748" x2="37.2502" y2="12.9748">
				<stop  offset="0" style="stop-color:#EC3F7C"/>
				<stop  offset="1" style="stop-color:#BA1E85"/>
			</linearGradient>
			<path fill="url(#SVGID_3_)" d="M26.198,14.377h2.057c0.151,0,0.273,0.122,0.273,0.273v2.111l5.116-8.816l0.491,0.284l3.114-5.453
				L36.771,2.5l-2.123,3.667C28.544,7.283,23.89,12.628,23.89,19.054c0,1.542,0.267,3.022,0.757,4.396l1.278-2.202v-6.597
				C25.925,14.5,26.047,14.377,26.198,14.377z"/>
			<linearGradient id="SVGID_4_" gradientUnits="userSpaceOnUse" x1="24.0574" y1="22.7918" x2="42.5757" y2="22.7918">
				<stop  offset="0" style="stop-color:#ED417B"/>
				<stop  offset="1" style="stop-color:#CD2B81"/>
			</linearGradient>
			<path fill="url(#SVGID_4_)" d="M32.868,14.651c0-0.151,0.122-0.273,0.273-0.273h2.041c0.089,0,0.161,0.072,0.161,0.161V22
				l7.233-12.527c-4.212-2.001-7.971-1.273-8.507-1.206l-5.54,9.572v7.709c0,0.151-0.122,0.273-0.273,0.273h-2.057
				c-0.151,0-0.273-0.122-0.273-0.273v-3.21l-1.867,3.226c1.075,3.013,2.934,5.16,5.403,6.587l-2.935,5.071l0.479,0.277l3.919-6.771
				c-0.152-0.097-0.298-0.202-0.44-0.312l3.108-5.383c-0.447-0.463-0.723-1.091-0.723-1.785V14.651z"/>
			<linearGradient id="SVGID_5_" gradientUnits="userSpaceOnUse" x1="30.9459" y1="20.0878" x2="52.0856" y2="20.0878">
				<stop  offset="0" style="stop-color:#E0387E"/>
				<stop  offset="1" style="stop-color:#BA1D87"/>
			</linearGradient>
			<path fill="url(#SVGID_5_)" d="M41.579,23.249v-8.599c0-0.151,0.122-0.273,0.273-0.273h2.041c0.089,0,0.161,0.072,0.161,0.161
				v8.406c0,0.235,0.154,0.432,0.365,0.501l4.01-6.928c0.165,0.073,0.325,0.157,0.485,0.244l3.172-5.459l-0.479-0.277l-2.209,3.802
				C48.435,12,46.532,9.606,44.061,8.02l-8.704,15.039c0.053,0.237,0.264,0.415,0.517,0.415h3.247c0.151,0,0.273,0.122,0.273,0.273
				v1.8c0,0.151-0.122,0.273-0.273,0.273h-3.681c-0.529,0-1.021-0.16-1.43-0.435l-3.063,5.293c1.809,0.943,3.865,1.476,6.046,1.476
				c0.865,0,1.709-0.085,2.527-0.244l3.64-6.289C42.231,25.234,41.579,24.318,41.579,23.249z"/>
		</g>
		<linearGradient id="SVGID_6_" gradientUnits="userSpaceOnUse" x1="51.8461" y1="20.0992" x2="58.2302" y2="20.0992">
			<stop  offset="0" style="stop-color:#CB1F87"/>
			<stop  offset="1" style="stop-color:#C3228A"/>
		</linearGradient>
		<path fill="url(#SVGID_6_)" d="M55.096,16.683h2.868c0.147,0,0.267-0.119,0.267-0.267v-1.773c0-0.147-0.119-0.267-0.267-0.267
			h-3.235c-1.592,0-2.882,1.29-2.882,2.882v5.679c0,1.592,1.29,2.882,2.882,2.882h3.235c0.147,0,0.267-0.119,0.267-0.267v-1.752
			c0-0.147-0.119-0.267-0.267-0.267h-2.868c-0.407,0-0.738-0.33-0.738-0.738v-1.613h2.684c0.147,0,0.267-0.119,0.267-0.267v-1.795
			c0-0.147-0.119-0.267-0.267-0.267h-2.684v-1.437C54.358,17.014,54.688,16.683,55.096,16.683z"/>
	</g>
	<rect x="0" y="0" fill="none" width="125" height="40"/>
</g>
</svg>
