<?xml version="1.0" encoding="utf-8"?>
<!-- Generator: Adobe Illustrator 16.0.0, SVG Export Plug-In . SVG Version: 6.00 Build 0)  -->
<!DOCTYPE svg PUBLIC "-//W3C//DTD SVG 1.1//EN" "http://www.w3.org/Graphics/SVG/1.1/DTD/svg11.dtd">
<svg version="1.1" xmlns="http://www.w3.org/2000/svg" xmlns:xlink="http://www.w3.org/1999/xlink" x="0px" y="0px" width="125px"
	 height="40px" viewBox="0 0 125 40" enable-background="new 0 0 125 40" xml:space="preserve">
<g id="Layer_1">
</g>
<g id="Layer_2">
	<g>
		<path fill-rule="evenodd" clip-rule="evenodd" fill="#053C71" d="M17.7,12.5c0.2-0.1,0.3-0.2,0.5-0.2c2,0,4,0,5.9,0
			c0.4,0.2,0.3,0.5,0.3,0.8c0,1.8,0,3.5,0,5.3c0,2.1,0,4.2,0,6.2c0,0.1,0,0.2,0,0.4c0,1,0.5,1.4,1.4,1.4c0.4,0,0.9,0,1.3,0
			c0.2,0,0.5,0.1,0.7,0.1c0,1.5,0,3,0,4.5c-0.6,0.2-2.5,0.3-4.5,0.2C23,31,23,30.7,23,30.5c0-1.3,0-2.7,0-4c0-1.9,0-3.9,0-5.8
			c0-0.2,0-0.5,0-0.7c-0.1-0.6-0.5-1-1.1-1c-0.6,0-1.1,0-1.7,0c-0.7,0-1.1,0.4-1.2,1.1c0,0.3,0,0.5,0,0.8c0,3.1,0,6.3,0,9.4
			c0,0.3-0.1,0.6-0.1,0.9c-2.2,0-4.2,0-6.3,0c-0.3-0.3-0.2-0.7-0.2-1c0-3.4,0-6.8,0-10.2c0-1,0-2,0-3c0-0.3-0.1-0.5-0.2-0.8
			c-0.1-0.4-0.5-0.6-0.9-0.7c-0.6,0-1.1,0-1.7,0c-0.8,0-1.2,0.6-1.2,1.3c0,0.6,0,1.3,0,1.9c0,3.9,0,7.8,0,11.7
			c0,0.3-0.1,0.5-0.1,0.9c-2.7,0-5.4,0-8.1,0c0-0.2-0.1-0.5-0.1-0.7c0-2.2,0-4.5,0-6.7c0-0.3,0-0.6,0.4-0.8c1.6,0,3.2,0,4.9,0
			c0.2,0,0.4,0,0.7,0c0.8-0.1,1.2-0.5,1.2-1.3c0-1.3,0-2.6,0-3.8c0-2.9,0-5.8,0-8.7C7.3,9,7.5,8.8,7.7,8.8c1.7,0,3.3-0.1,5-0.1
			c0.3,0,0.6,0.1,1,0.2c0,0.3,0,0.6,0,0.8c0,4.4,0,8.7,0,13.1c0,0.3,0,0.5,0,0.8c0.1,0.5,0.3,0.8,0.8,1c0.8,0.2,1.5,0.2,2.3,0
			c0.5-0.1,0.8-0.5,0.8-1c0-0.3,0-0.6,0-0.9c0-3.1,0-6.2,0-9.4C17.7,13.1,17.7,12.9,17.7,12.5z"/>
		<path fill-rule="evenodd" clip-rule="evenodd" fill="#043B71" d="M52.4,31.2c-1,0-1.9,0-2.9,0c-0.1-0.1-0.3-0.3-0.4-0.4
			c0-0.4,0-0.7,0-1.1c0-2.5,0-5.1,0-7.6c0-1.6-0.7-1.7-1.7-1.7c0,0-0.1,0-0.1,0c-1.2,0.1-1.6,0.4-1.6,1.7c0,2.6,0,5.2,0,7.8
			c0,0.2,0,0.4,0,0.6c-0.1,0.5-0.3,0.7-0.9,0.8c-0.6,0-1.3,0-1.9,0c-0.7,0-1-0.2-1-1c0-2.3,0-4.6,0-7c0-0.5,0-0.9,0-1.4
			c0-0.9-0.4-1.4-1.3-1.4c-0.5,0-1,0-1.4,0.1c-0.5,0.1-0.7,0.5-0.8,1c0,0.2,0,0.5,0,0.7c0,2.6,0,5.2,0,7.8c0,0.5-0.1,0.9-0.5,1.1
			c-0.9,0-1.8,0-2.7,0c-0.5-0.2-0.5-0.6-0.5-1c0-2.2,0-4.4,0-6.5c0-1.9,0-3.8,0-5.7c0-1.1,0.1-1.3,1.2-1.3c4.1,0,8.2,0,12.3,0
			c1.2,0,2.4,0,3.6,0c0.7,0,1.2,0.4,1.2,1.2c0,4,0,8.1,0,12.1C52.9,30.4,52.8,30.8,52.4,31.2z"/>
		<path fill-rule="evenodd" clip-rule="evenodd" fill="#043B71" d="M104,20.9c-0.2-0.2-0.4-0.4-0.7-0.6c-0.3,0-0.7,0-1,0
			c-2.8,0-5.5,0-8.3,0c-0.4,0-0.7-0.1-1-0.1c-0.3-0.3-0.4-0.6-0.4-0.9c0-0.7,0-1.3,0-1.9c0.2-0.5,0.6-0.6,1.1-0.6
			c3.9,0,7.8,0,11.7,0c0.5,0,0.9,0,1.4,0c0.7,0,1,0.2,1,0.9c0,1.7,0.1,3.4,0.1,5.1c0,2.5-0.1,5-0.1,7.5c0,0.4,0,0.8-0.6,1
			c-0.1,0-0.4,0-0.7,0c-4.2,0-8.5,0-12.7,0c-0.1,0-0.3,0-0.4,0c-0.5,0-0.7-0.3-0.7-0.7c0-0.2,0-0.3,0-0.5c0-2,0-4.1,0-6.1
			c0-1.2,0.2-1.4,1.4-1.4c2.7,0,5.5,0,8.2,0c0.2,0,0.5,0,0.7-0.1c0.7-0.1,0.9-0.4,0.9-1.1C104,21.2,104,21,104,20.9z M104,26
			c-0.6-0.7-0.8-0.8-1.6-0.8c-1.4,0-2.8,0-4.1,0c-0.3,0-0.6,0.1-0.9,0.1c-0.6,0.2-0.9,0.6-0.9,1.2c0,0.6,0.5,1,1,1.1
			c0.2,0,0.4,0,0.6,0c1.4,0,2.9,0,4.4,0c0.1,0,0.3,0,0.4,0c0.7-0.1,1.1-0.5,1.1-1.2C104.1,26.4,104,26.2,104,26z"/>
		<path fill-rule="evenodd" clip-rule="evenodd" fill="#043B71" d="M57.1,31.2c-0.5-0.3-0.5-0.7-0.5-1.2c0-2.7,0-5.5,0-8.2
			c0-1.3,0-2.6,0-3.8c0-0.3,0.1-0.6,0.1-0.9c0.4-0.3,0.7-0.4,1-0.4c4.3,0,8.5,0,12.8,0c0.2,0,0.5,0.1,0.7,0.1
			c0.3,0.1,0.4,0.3,0.5,0.6c0,0.2,0,0.5,0,0.7c0,4,0,7.9,0,11.9c0,0.2,0,0.4,0,0.7c-0.2,0.2-0.3,0.3-0.4,0.5
			C66.5,31.2,61.8,31.2,57.1,31.2z M64.2,20.4C64.2,20.4,64.2,20.4,64.2,20.4c-0.8,0-1.7,0-2.5,0c-1,0-1.1,0.5-1.3,1.2
			c0,0.2,0,0.3,0,0.5c0,1,0,2,0,3c0,0.4,0,0.7,0,1.1c0.1,0.7,0.3,1,0.9,1.2c0.2,0.1,0.4,0.1,0.6,0.1c1.5,0,3,0,4.6,0
			c1.1,0,1.5-0.4,1.5-1.6c0-1.4,0-2.8,0-4.1c0-0.9-0.4-1.3-1.4-1.3C65.7,20.4,64.9,20.4,64.2,20.4z"/>
		<path fill-rule="evenodd" clip-rule="evenodd" fill="#043B71" d="M75.7,16.8c0.4,0,0.7-0.1,1.1-0.1c3.9,0,7.8,0,11.7,0
			c0.1,0,0.2,0,0.4,0c0.7,0,0.9,0.3,0.9,0.9c0,0.6,0,1.3,0,1.9c0,0.7-0.2,0.9-1,1c-2.5,0-5,0-7.5,0c-0.3,0-0.6,0-0.9,0.1
			c-0.5,0.1-0.8,0.4-0.9,0.9c-0.1,0.3-0.1,0.7-0.1,1c0,2.5,0,5,0,7.5c0,0.2,0,0.4,0,0.6c0,0.4-0.3,0.6-0.7,0.6c-0.8,0-1.6,0-2.5,0
			c-0.4,0-0.6-0.3-0.7-0.6c0-0.3,0-0.5,0-0.8c0-1.8,0-3.6,0-5.4c0-2-0.1-4-0.1-6C75.3,17.8,75.4,17.3,75.7,16.8z"/>
		<path fill-rule="evenodd" clip-rule="evenodd" fill="none" d="M104,26c0,0.2,0,0.3,0,0.5c0,0.7-0.4,1.1-1.1,1.2
			c-0.1,0-0.3,0-0.4,0c-1.5,0-2.9,0-4.4,0c-0.2,0-0.4,0-0.6,0c-0.6-0.1-1-0.6-1-1.1c0-0.6,0.3-1,0.9-1.2c0.3-0.1,0.6-0.1,0.9-0.1
			c1.4,0,2.8,0,4.1,0C103.2,25.3,103.4,25.4,104,26z"/>
		<path fill-rule="evenodd" clip-rule="evenodd" fill="none" d="M64.2,20.4c0.8,0,1.5,0,2.3,0c1,0,1.4,0.4,1.4,1.3
			c0,1.4,0,2.8,0,4.1c0,1.1-0.4,1.6-1.5,1.6c-1.5,0.1-3,0-4.6,0c-0.2,0-0.4-0.1-0.6-0.1c-0.5-0.1-0.8-0.5-0.9-1.2c0-0.4,0-0.7,0-1.1
			c0-1,0-2,0-3c0-0.2,0-0.3,0-0.5c0.1-0.7,0.3-1.2,1.3-1.2C62.5,20.4,63.3,20.4,64.2,20.4C64.2,20.4,64.2,20.4,64.2,20.4z"/>
	</g>
</g>
<g id="Layer_3">
</g>
<g id="Layer_4">
</g>
</svg>
