<?xml version="1.0" encoding="utf-8"?>
<!-- Generator: Adobe Illustrator 25.4.0, SVG Export Plug-In . SVG Version: 6.00 Build 0)  -->
<svg version="1.1" id="logos" xmlns="http://www.w3.org/2000/svg" xmlns:xlink="http://www.w3.org/1999/xlink" x="0px" y="0px"
	 viewBox="0 0 125 40" enable-background="new 0 0 125 40" xml:space="preserve">
<g>
	<g>
		<polygon points="52.135,9.767 38.389,9.767 38.389,13.298 43.473,13.298 43.473,30.009 47.004,30.009 47.004,13.298 
			52.135,13.298 		"/>
		<path d="M57.513,14.623c-3.451,0-6.249,2.876-6.249,7.939c0,5.415,2.798,7.939,6.249,7.939c2.793,0,5.158-1.195,5.959-4.893H60.26
			c-0.486,1.008-1.295,1.79-2.574,1.79c-0.946,0-2.795-0.328-3.091-3.808h6.025h2.058h1.056c0.019-0.329,0.029-0.671,0.029-1.029
			C63.762,17.202,60.964,14.623,57.513,14.623z M54.656,21.055c0.27-1.874,1.116-3.223,2.934-3.223c1.52,0,2.486,0.942,2.767,3.223
			H54.656z"/>
		<path d="M123.916,23.591h1.056C124.99,23.262,125,22.92,125,22.562c0-5.36-2.798-7.939-6.249-7.939s-6.249,2.876-6.249,7.939
			c0,5.415,2.798,7.939,6.249,7.939c2.793,0,5.158-1.195,5.959-4.893h-3.211c-0.486,1.008-1.295,1.79-2.574,1.79
			c-0.946,0-2.795-0.328-3.091-3.808h6.025H123.916z M115.894,21.055c0.27-1.874,1.116-3.223,2.934-3.223
			c1.52,0,2.486,0.942,2.767,3.223H115.894z"/>
		<polygon points="76.438,15.068 72.546,15.068 70.522,19.444 68.432,15.068 64.384,15.068 68.499,22.451 64.251,30.009 
			68.165,30.009 70.344,25.52 72.546,30.009 76.616,30.009 72.324,22.362 		"/>
		<path d="M82.376,10.998H79.14v4.159h-1.768v2.802h1.768v9.596c0,1.449,1.175,2.624,2.624,2.624h2.635V27.21h-1.368
			c-0.362,0-0.656-0.294-0.656-0.656v-8.595h2.024v-2.802h-2.024V10.998z"/>
		<polygon points="102.035,25.72 98.943,9.753 93.817,9.753 93.817,30.009 97.075,30.009 97.075,13.177 100.278,30.009 
			103.658,30.009 106.86,13.133 106.86,30.009 110.174,30.009 110.174,9.753 105.081,9.753 		"/>
		<path d="M30.58,14.819v-0.84c0-6.163-4.996-11.159-11.159-11.159h-8.263C4.996,2.82,0,7.816,0,13.979v0.84
			c0,5.359,3.778,9.835,8.816,10.912v4.837c0,1.444,1.757,2.155,2.761,1.117l5.522-5.707h2.322
			C25.584,25.977,30.58,20.981,30.58,14.819z M7.701,10.852h15.023c0.443,0,0.803,0.359,0.803,0.803
			c0,0.443-0.359,0.803-0.803,0.803H7.701c-0.443,0-0.803-0.359-0.803-0.803C6.898,11.212,7.257,10.852,7.701,10.852z M16.72,18.301
			h-9.02c-0.443,0-0.803-0.359-0.803-0.803c0-0.443,0.359-0.803,0.803-0.803h9.02c0.443,0,0.803,0.359,0.803,0.803
			C17.523,17.942,17.163,18.301,16.72,18.301z"/>
		<path d="M32.444,15.437c-0.25,6.924-5.758,12.459-12.517,12.459h-1.997l-0.408,0.397c1.344,2.572,4.035,4.328,7.137,4.328h1.888
			l3.942,4.167c0.773,0.817,2.148,0.27,2.148-0.855v-3.454c3.727-0.705,6.546-3.976,6.546-7.907v-1.193
			C39.184,19.38,36.266,16.064,32.444,15.437z"/>
	</g>
	<rect x="0" y="0" fill="none" width="125" height="40"/>
</g>
</svg>
