<?xml version="1.0" encoding="utf-8"?>
<!-- Generator: Adobe Illustrator 19.1.0, SVG Export Plug-In . SVG Version: 6.00 Build 0)  -->
<svg version="1.1" xmlns="http://www.w3.org/2000/svg" xmlns:xlink="http://www.w3.org/1999/xlink" x="0px" y="0px"
	 viewBox="0 0 125 40" enable-background="new 0 0 125 40" xml:space="preserve">
<g id="Layer_1">
</g>
<g id="Layer_2">
</g>
<g id="Layer_3">
	<g>
		<path fill="#010101" d="M13.3,0.1l-12,9.4L0,23.7l10,11.6l43.9,4.1l3.3-35.2L13.3,0.1z M4.3,18.4c-0.7-0.1-1.2-0.7-1.1-1.3
			c0.1-0.7,0.7-1.2,1.3-1.1c0.7,0.1,1.2,0.7,1.1,1.3C5.6,18,5,18.5,4.3,18.4z"/>
		<path fill="#F6EB16" d="M13.6,0.9L2.1,9.8L0.7,23.4l9.6,11.1l42.8,4.1L56.3,5L13.6,0.9z M6.4,17.4c-0.1,1.1-1,1.9-2.1,1.8
			C3.2,19,2.4,18.1,2.5,17c0.1-1.1,1.1-1.8,2.1-1.7C5.7,15.4,6.5,16.3,6.4,17.4z"/>
		<polygon fill="#010101" points="21.8,8.2 31.5,9.2 31.2,12.1 26.9,11.7 26.8,12.6 30.8,13 30.5,15.6 26.5,15.3 26.4,16.3 
			30.9,16.7 30.6,19.5 20.9,18.6 		"/>
		<path fill="#010101" d="M33,16.1l-1.8,2.7c0,0,2.3,1.2,5.5,1.5c3.2,0.3,5.5-0.6,6.3-2.2c0.8-1.5-0.1-3.3-1.6-3.7
			c-1.5-0.5-4-1-3.8-1.5c0.3-0.5,1.9-0.4,2.9,0c1,0.4,1.2,0.7,1.2,0.7l1.7-2.4c0,0-1.8-1.3-5.1-1.5c-3.3-0.2-5.8,1.5-6,3
			c-0.2,1.6,0.8,2.5,2.3,3c0,0,1.3,0.4,2.3,0.6c1,0.2,1.6,0.9,0.4,1.1C36,17.7,33.7,16.8,33,16.1z"/>
		<polygon fill="#010101" points="46.3,14 43.4,13.7 43.7,10.4 54.7,11.4 54.4,14.8 51.6,14.5 50.9,21.5 45.7,21 		"/>
		<path fill="#010101" d="M22.6,20l5,0.5l-0.5,5.9c0,0-0.5,1.4,1.2,1.6c1.7,0.2,1.6-1.3,1.6-1.3l0.6-5.8l5.1,0.5l-0.6,6.8
			c0,0-0.6,3.7-6.8,3.1c-6.2-0.6-6.1-4.5-6.1-4.5L22.6,20z"/>
		<polygon fill="#010101" points="41.3,21.8 42.8,24.7 44.7,22.1 50.5,22.7 45,28.1 44.6,32.6 39.5,32.1 39.9,27.7 35.5,21.3 		"/>
		<path fill="#010101" d="M19.4,24.8c0,0,2.1-0.4,2.1-2.6c-0.1-2.2-4.4-2.7-4.4-2.7l-7.2-0.7l-1,10.4c0,0,5.7,0.6,7.4,0.7
			c1.7,0.1,5,0,5.3-2.2C22,25.6,19.4,24.8,19.4,24.8z M14.5,21.8c0,0,2.2-0.2,2.1,0.8c-0.1,1-2.2,0.6-2.2,0.6L14.5,21.8z M14,27.1
			l0.1-1.7c0,0,2.7-0.1,2.7,1.1C16.7,27.7,14,27.1,14,27.1z"/>
		<path fill="#010101" d="M18.3,12.9c0,0,2.1-0.4,2.1-2.6C20.3,8.2,16,7.6,16,7.6L8.9,6.9l-1,10.4c0,0,5.7,0.6,7.4,0.7
			c1.7,0.1,5,0,5.3-2.1C20.9,13.7,18.3,12.9,18.3,12.9z M13.5,10c0,0,2.2-0.2,2.1,0.8c-0.1,1-2.2,0.6-2.2,0.6L13.5,10z M13,15.3
			l0.1-1.7c0,0,2.7-0.1,2.7,1.1C15.7,15.9,13,15.3,13,15.3z"/>
		<path fill="#010101" d="M50.6,23.7c0-0.5,0.5-0.8,0.9-0.8c0.5,0,0.8,0.5,0.8,0.9c0,0.5-0.5,0.8-0.9,0.8
			C50.9,24.6,50.5,24.2,50.6,23.7z M52,23.9c0-0.4-0.2-0.7-0.6-0.7c-0.3,0-0.7,0.2-0.7,0.6c0,0.4,0.2,0.7,0.6,0.7
			C51.7,24.5,52,24.2,52,23.9z M51.1,23.3l0.3,0c0.2,0,0.3,0.1,0.3,0.3c0,0.2-0.1,0.2-0.3,0.2l0.2,0.4l-0.2,0l-0.2-0.4l-0.1,0l0,0.4
			l-0.2,0L51.1,23.3z M51.3,23.7l0.2,0c0.1,0,0.2,0,0.2-0.1c0-0.1-0.1-0.1-0.2-0.1l-0.2,0L51.3,23.7z"/>
	</g>
</g>
</svg>
