<?xml version="1.0" encoding="utf-8"?>
<!-- Generator: Adobe Illustrator 25.4.0, SVG Export Plug-In . SVG Version: 6.00 Build 0)  -->
<svg version="1.1" id="Layer_2" xmlns="http://www.w3.org/2000/svg" xmlns:xlink="http://www.w3.org/1999/xlink" x="0px" y="0px"
	 viewBox="0 0 125 40" style="enable-background:new 0 0 125 40;" xml:space="preserve">
<style type="text/css">
	.st0{fill:none;}
	.st1{fill:#221F1F;}
	.st2{fill:#EED22A;}
	.st3{fill:#726523;}
</style>
<rect class="st0" width="125" height="40"/>
<g>
	<circle class="st1" cx="20" cy="20" r="20"/>
	<polygon class="st2" points="20.1,9.9 8.6,9.9 6.3,12.4 14.9,12.4 3.9,23.9 18.1,23.9 20.3,21.6 9.1,21.6 	"/>
	<rect x="20.5" y="9.9" class="st2" width="2.4" height="14"/>
	<path class="st2" d="M33.7,15.4C30.2,9.9,24,9.9,24,9.9v14h2.1v-5.7h6.5c1.3,2.7,1.3,5.4,1.3,5.7h2.2
		C36.1,23.9,36.2,19.6,33.7,15.4z M25.9,12c1.3,0.5,3.3,1.3,5.4,4h-5.4V12z"/>
	<path class="st2" d="M6.1,27.6c0,0,1.1-0.2,1.1-1.4c0-1.3-1-1.6-1.7-1.6s-1.5,0-1.5,0v5.3h1v-2.1h0.1l1.2,2.1h1.2L6.1,27.6z
		 M5.4,27.1H5v-1.6h0.5c0.3,0,0.6,0.3,0.6,0.6v0.3C6.1,26.7,5.8,27.1,5.4,27.1z"/>
	<path class="st2" d="M25.4,27.6c0,0,1.1-0.2,1.1-1.4c0-1.3-1-1.6-1.7-1.6c-0.7,0-1.5,0-1.5,0v5.3h1v-2.1h0.1l1.2,2.1h1.2L25.4,27.6
		z M24.7,27.1h-0.4v-1.6h0.5c0.3,0,0.6,0.3,0.6,0.6v0.3C25.4,26.7,25.1,27.1,24.7,27.1z"/>
	<polygon class="st2" points="11.2,25.5 11.2,24.6 8.5,24.6 8.5,29.9 11.2,29.9 11.2,29 9.5,29 9.5,27.5 11.2,27.5 11.2,26.7 
		9.5,26.7 9.5,25.5 	"/>
	<path class="st2" d="M16,28.5c-0.3,0.3-0.7,0.5-1.1,0.5c-0.9,0-1.6-0.8-1.6-1.8c0-1,0.7-1.8,1.6-1.8c0.4,0,0.8,0.2,1.1,0.5v-1.2
		c-0.4-0.2-0.8-0.3-1.2-0.3c-1.4,0-2.6,1.2-2.6,2.8c0,1.5,1.2,2.8,2.6,2.8c0.4,0,0.8-0.1,1.2-0.3V28.5z"/>
	<path class="st2" d="M29.3,24.6h-1.5v5.3h1.5c1.4,0,2.5-1.1,2.5-2.5v-0.3C31.8,25.7,30.7,24.6,29.3,24.6z M30.8,27.4
		c0,0.9-0.7,1.7-1.7,1.7h-0.3v-3.6h0.3c0.9,0,1.7,0.7,1.7,1.7V27.4z"/>
	<path class="st2" d="M35.4,25.7l0.5-0.7c0,0-0.5-0.6-1.5-0.6c-0.7,0-1.5,0.5-1.5,1.6c0,1.6,2.1,1.2,2.1,2.4c0,0.3-0.2,0.7-0.7,0.7
		s-0.8-0.5-0.9-0.8L32.7,29c0,0,0.5,1,1.6,1c0.8,0,1.8-0.6,1.8-1.8c0-1.6-2.1-1.5-2.1-2.3c0-0.3,0.3-0.6,0.7-0.6
		C35.1,25.3,35.4,25.7,35.4,25.7z"/>
	<path class="st2" d="M19.7,24.3c-1.6,0-3,1.3-3,3c0,1.6,1.3,3,3,3c1.6,0,3-1.3,3-3C22.6,25.6,21.3,24.3,19.7,24.3z M19.7,28.6
		c-0.8,0-1.4-0.6-1.4-1.4c0-0.8,0.6-1.4,1.4-1.4c0.8,0,1.4,0.6,1.4,1.4C21.1,28,20.4,28.6,19.7,28.6z"/>
	<path class="st3" d="M19.7,24.5c-1.5,0-2.7,1.2-2.7,2.7c0,1.5,1.2,2.7,2.7,2.7c1.5,0,2.7-1.2,2.7-2.7
		C22.3,25.7,21.1,24.5,19.7,24.5z M19.7,28.6c-0.8,0-1.4-0.6-1.4-1.4c0-0.8,0.6-1.4,1.4-1.4c0.8,0,1.4,0.6,1.4,1.4
		C21.1,28,20.4,28.6,19.7,28.6z"/>
	<path class="st2" d="M19.7,26.2c-0.6,0-1,0.5-1,1s0.5,1,1,1c0.6,0,1-0.5,1-1S20.2,26.2,19.7,26.2z M19.7,28.2c-0.5,0-1-0.4-1-1
		c0-0.5,0.4-1,1-1c0.5,0,1,0.4,1,1C20.6,27.8,20.2,28.2,19.7,28.2z"/>
	<path class="st2" d="M19.7,27.1c-0.1,0-0.1,0.1-0.1,0.1s0.1,0.1,0.1,0.1c0.1,0,0.1-0.1,0.1-0.1S19.7,27.1,19.7,27.1z M19.7,27.3
		C19.6,27.3,19.6,27.3,19.7,27.3c-0.1-0.1,0-0.1,0-0.1C19.7,27.2,19.7,27.2,19.7,27.3C19.7,27.3,19.7,27.3,19.7,27.3z"/>
</g>
</svg>
