<?xml version="1.0" encoding="utf-8"?>
<!-- Generator: Adobe Illustrator 20.1.0, SVG Export Plug-In . SVG Version: 6.00 Build 0)  -->
<svg version="1.1" id="logos" xmlns="http://www.w3.org/2000/svg" xmlns:xlink="http://www.w3.org/1999/xlink" x="0px" y="0px"
	 viewBox="0 0 125 40" enable-background="new 0 0 125 40" xml:space="preserve">
<g>
	<g>
		<polygon fill="#5000FF" points="8.686,26.471 8.01,26.471 5.136,12.903 0,12.903 0,27.084 2.568,27.084 2.568,15.206 
			2.113,13.537 2.98,13.537 6.023,27.084 10.737,27.084 13.738,13.516 14.625,13.516 14.118,15.185 14.118,27.084 16.718,27.084 
			16.718,12.903 11.561,12.903 		"/>
		<rect x="19.444" y="18.715" fill="#5000FF" width="14.266" height="2.557"/>
		<polygon fill="#5000FF" points="42.692,17.869 35.993,12.966 35.993,15.988 41.72,20.004 35.993,24.125 35.993,27.021 
			42.671,22.181 43.474,22.181 50.195,27.021 50.195,24.083 44.489,19.993 50.195,15.946 50.195,12.966 43.474,17.869 		"/>
		<path fill="#5000FF" d="M59.262,14.91c2.705,0,3.889,1.839,4.1,3.424h2.578c0,0-0.359-5.664-6.827-5.664
			c-4.84,0-7.017,3.952-7.017,7.323c0,3.434,2.219,7.302,6.922,7.302c2.504,0,6.203-0.845,6.922-5.664h-2.578
			c-0.338,1.754-1.416,3.466-4.206,3.466c-2.79,0-4.481-1.966-4.481-5.199S56.557,14.91,59.262,14.91z"/>
		<path fill="#5000FF" d="M69.766,24.442c0,0,1.036-0.38,1.036-0.951s0-10.631,0-10.631h-2.557v13.203
			c0,0.787,0.71,1.383,1.485,1.248l10.478-1.833v-2.494l-10.145,1.775L69.766,24.442z"/>
		<path fill="#5000FF" d="M88.814,12.703c-4.386,0-7.009,3.267-7.009,7.296s2.597,7.296,7.009,7.296
			c4.492,0,7.009-3.267,7.009-7.296S93.412,12.703,88.814,12.703z M88.84,25.045c-3.167,0-4.465-2.266-4.465-5.062
			s1.378-5.062,4.465-5.062c3.061,0,4.465,2.266,4.465,5.062S91.954,25.045,88.84,25.045z"/>
		<path fill="#5000FF" d="M107.536,21.308c0,1.537-0.132,3.737-3.525,3.737c-3.392,0-3.551-2.279-3.551-3.869s0-8.268,0-8.268H97.89
			c0,0,0,5.698,0,8.533s0.928,5.855,6.254,5.855c5.327,0,5.989-3.576,5.989-5.775s0-8.613,0-8.613h-2.597
			C107.536,12.908,107.536,19.771,107.536,21.308z"/>
		<path fill="#5000FF" d="M117.5,12.908c-2.915,0-4.956,0-4.956,0v14.204c0,0,2.041,0,5.194,0c3.154,0,7.261-0.822,7.261-7.394
			C125,17.333,124.496,12.908,117.5,12.908z M117.818,24.859c-0.424,0-1.511,0-1.855,0c-0.345,0-1.259,0.557-1.259,0.557
			l-0.411-0.477c0,0,0.822-0.345,0.822-1.034c0-0.689,0-6.705,0-7.579s-0.822-1.272-0.822-1.272l0.451-0.451
			c0,0,0.742,0.504,1.06,0.504c0.318,0,0.61,0,2.147,0c3.233,0,4.505,1.59,4.505,4.903
			C122.456,24.038,120.495,24.859,117.818,24.859z"/>
	</g>
	<rect x="0" y="0" fill="none" width="125" height="40"/>
</g>
</svg>
