<?xml version="1.0" encoding="utf-8"?>
<!-- Generator: Adobe Illustrator 16.0.0, SVG Export Plug-In . SVG Version: 6.00 Build 0)  -->
<!DOCTYPE svg PUBLIC "-//W3C//DTD SVG 1.1//EN" "http://www.w3.org/Graphics/SVG/1.1/DTD/svg11.dtd">
<svg version="1.1" xmlns="http://www.w3.org/2000/svg" xmlns:xlink="http://www.w3.org/1999/xlink" x="0px" y="0px" width="125px"
	 height="40px" viewBox="0 0 125 40" enable-background="new 0 0 125 40" xml:space="preserve">
<g id="Layer_1">
	<g>
		<path fill-rule="evenodd" clip-rule="evenodd" fill="#333333" d="M70.905,10.316c0.154,0.235,0.116,0.501,0.116,0.757
			c0.001,4.567,0.002,9.134-0.001,13.7c0,0.233,0.045,0.477-0.12,0.76c-0.687,0.084-1.411,0.043-2.135,0.022
			c-0.239-0.374-0.027-0.79-0.177-1.156c-2.072,2.006-5.204,2.012-7.061,0.028c-0.652-0.697-1.048-1.537-1.26-2.454
			c-0.3-1.305-0.312-2.626-0.004-3.927c1.06-4.473,6.042-4.71,8.216-2.26c0.103-1.869-0.051-3.674,0.085-5.471
			C69.344,10.316,70.125,10.316,70.905,10.316z M68.548,20.013c0.049-0.761-0.088-1.504-0.436-2.189
			c-0.511-1.01-1.33-1.541-2.493-1.546c-1.152-0.005-2.019,0.457-2.519,1.493c-0.681,1.412-0.727,2.874-0.15,4.334
			c0.45,1.136,1.323,1.763,2.54,1.788c1.216,0.027,2.1-0.564,2.625-1.669C68.446,21.528,68.598,20.796,68.548,20.013z"/>
		<path fill-rule="evenodd" clip-rule="evenodd" fill="#333333" d="M114.056,29.684c-0.018-0.216-0.051-0.431-0.051-0.646
			c-0.002-4.592-0.002-9.185,0-13.777c0-0.191,0.016-0.384,0.029-0.663c0.758-0.08,1.499-0.052,2.208-0.019
			c0.249,0.359,0.051,0.735,0.197,1.051c0.047-0.003,0.104,0.011,0.125-0.011c2.347-2.302,6.219-1.703,7.657,1.258
			c1.074,2.212,1.045,4.508-0.098,6.691c-1.372,2.622-5.074,3.167-7.239,1.136c-0.077-0.072-0.156-0.143-0.243-0.224
			c-0.191,0.139-0.122,0.325-0.123,0.48c-0.007,1.321-0.002,2.642-0.006,3.965c0,0.256,0.039,0.522-0.115,0.758
			C115.615,29.684,114.835,29.684,114.056,29.684z M122.396,20.187c0.021-1.011-0.193-1.892-0.705-2.709
			c-1.067-1.705-3.949-1.631-4.809,0.324c-0.688,1.564-0.693,3.154,0.124,4.683c0.514,0.959,1.389,1.419,2.458,1.41
			c1.127-0.01,1.984-0.529,2.486-1.568C122.288,21.631,122.407,20.89,122.396,20.187z"/>
		<path fill-rule="evenodd" clip-rule="evenodd" fill="#333333" d="M105.031,25.533c-0.75,0.084-1.521,0.039-2.259,0.03
			c-0.243-0.26-0.161-0.532-0.162-0.781c-0.007-1.992-0.003-3.985-0.003-5.978c0-0.174,0.001-0.347-0.001-0.52
			c-0.019-1.035-0.37-1.672-1.051-1.911c-0.92-0.325-1.976-0.009-2.569,0.768c-0.455,0.596-0.6,1.286-0.601,2.017
			c-0.004,1.861,0,3.726-0.004,5.589c-0.001,0.255,0.046,0.52-0.065,0.765c-0.181,0.165-0.404,0.148-0.618,0.15
			c-1.343,0.011-2.68,0.118-4.018,0.236c-0.98,0.088-1.805-0.154-2.244-1.199c-0.927,0.696-1.936,1.041-3.026,1.174
			c-0.926,0.113-1.817,0.005-2.667-0.371c-1.23-0.545-1.891-1.635-1.851-3.011c0.041-1.388,0.697-2.33,1.997-2.825
			c1.125-0.431,2.326-0.478,3.5-0.653c0.429-0.064,0.856-0.121,1.267-0.266c0.428-0.147,0.693-0.442,0.747-0.894
			c0.058-0.485-0.098-0.898-0.508-1.189c-0.776-0.555-2.65-0.513-3.41,0.059c-0.406,0.306-0.56,0.753-0.728,1.244
			c-0.798,0.047-1.585,0.049-2.366,0c-0.114-1.277,0.615-2.54,1.884-3.106c1.862-0.83,3.784-0.884,5.676-0.102
			c1.239,0.514,1.856,1.492,1.844,2.86c-0.015,1.755-0.006,3.509-0.001,5.265c0,0.276-0.056,0.567,0.178,0.896
			c0.556,0.237,1.18,0.145,1.887,0.042c0-3.085,0-6.128,0-9.218c0.82-0.079,1.562-0.067,2.308-0.015
			c0.163,0.438,0.019,0.856,0.127,1.262c2.458-2.209,4.755-2.19,6.446,0.031c0.102,0.01,0.145-0.071,0.197-0.133
			c1.23-1.465,2.819-1.758,4.587-1.354c1.4,0.32,2.277,1.322,2.313,2.846c0.066,2.705,0.016,5.414,0.012,8.121
			c0,0.038-0.032,0.077-0.071,0.164c-0.744,0.107-1.513,0.031-2.246,0.042c-0.244-0.266-0.163-0.538-0.164-0.787
			c-0.007-1.95-0.004-3.898-0.004-5.849c0-0.499-0.011-0.996-0.142-1.482c-0.194-0.717-0.638-1.088-1.387-1.153
			c-1.759-0.156-2.67,0.724-2.691,2.649c-0.021,1.928-0.003,3.855-0.008,5.783C105.137,24.981,105.194,25.247,105.031,25.533z
			 M91.258,20.199c-0.953,0.389-1.906,0.411-2.839,0.558c-0.447,0.07-0.89,0.175-1.284,0.42c-0.534,0.331-0.743,0.836-0.703,1.434
			c0.038,0.566,0.431,0.876,0.925,1.057c0.984,0.359,1.951,0.297,2.878-0.19c0.521-0.273,0.891-0.688,0.992-1.286
			C91.336,21.553,91.291,20.913,91.258,20.199z"/>
		<path fill-rule="evenodd" clip-rule="evenodd" fill="#333333" d="M39.733,17.947c-0.839,0-1.628,0-2.456,0
			c0.053-1.456,0.692-2.517,1.958-3.088c1.857-0.838,3.784-0.885,5.672-0.097c1.235,0.517,1.85,1.502,1.838,2.868
			c-0.016,1.755-0.006,3.508-0.001,5.262c0,0.276-0.058,0.568,0.187,0.895c0.554,0.22,1.177,0.145,1.882,0.029
			c0-3.087,0-6.13,0-9.225c0.822-0.066,1.563-0.042,2.286-0.017c0.192,0.461,0.029,0.884,0.146,1.295
			c0.214,0.005,0.28-0.182,0.382-0.297c1.432-1.624,3.772-1.635,5.3-0.783c1.111,0.619,1.59,1.669,1.615,2.868
			c0.053,2.553,0.013,5.108,0.009,7.662c0,0.042-0.025,0.081-0.073,0.223c-0.747,0.074-1.532,0.021-2.286,0.022
			c-0.227-0.271-0.152-0.542-0.153-0.791c-0.007-1.884-0.003-3.768-0.003-5.652c0-0.15,0.002-0.303-0.001-0.454
			c-0.031-1.479-0.593-2.27-1.687-2.371c-1.49-0.139-2.606,0.623-2.908,1.992c-0.08,0.358-0.111,0.725-0.11,1.096
			c0.007,1.818,0.006,3.637,0.001,5.457c-0.001,0.232,0.051,0.476-0.082,0.697c-0.233,0.161-0.499,0.121-0.755,0.125
			c-1.256,0.022-2.507,0.113-3.757,0.228c-0.992,0.091-1.871-0.069-2.308-1.109c-0.271-0.026-0.404,0.181-0.585,0.281
			c-1.505,0.838-3.088,1.113-4.752,0.593c-1.477-0.463-2.273-1.605-2.249-3.123c0.025-1.514,0.813-2.543,2.322-2.987
			c1.042-0.307,2.125-0.387,3.196-0.536c0.407-0.059,0.813-0.114,1.205-0.247c0.45-0.153,0.745-0.447,0.791-0.93
			c0.048-0.515-0.116-0.984-0.589-1.209c-1.074-0.512-2.178-0.524-3.241,0.041C40.038,16.923,39.845,17.428,39.733,17.947z
			 M44.193,20.225c-0.956,0.349-1.927,0.397-2.882,0.542c-0.404,0.061-0.803,0.164-1.166,0.373
			c-0.565,0.327-0.817,0.839-0.772,1.462c0.042,0.585,0.456,0.901,0.981,1.084c0.969,0.334,1.913,0.266,2.82-0.202
			c0.574-0.295,0.942-0.765,1.021-1.412C44.268,21.476,44.262,20.874,44.193,20.225z"/>
		<path fill-rule="evenodd" clip-rule="evenodd" fill="#333333" d="M80.582,21.403c0.828-0.033,1.598-0.049,2.458,0.01
			c-0.272,1.713-0.924,3.089-2.452,3.895c-3.696,1.95-7.819-0.482-8.002-4.707c-0.035-0.806,0.043-1.6,0.242-2.382
			c0.742-2.914,3.043-4.15,5.747-3.96c0.67,0.047,1.327,0.182,1.95,0.454c1.303,0.568,2.121,1.534,2.433,2.923
			c0.042,0.188,0.093,0.378-0.027,0.627c-0.742,0.072-1.514,0.028-2.207,0.024c-0.22-0.094-0.229-0.237-0.266-0.355
			c-0.289-0.946-0.92-1.506-1.9-1.624c-1.154-0.139-2.216,0.103-2.805,1.19c-0.906,1.668-0.911,3.408-0.038,5.099
			c0.494,0.957,1.379,1.358,2.438,1.284c1.141-0.08,1.856-0.737,2.219-1.803C80.439,21.874,80.5,21.667,80.582,21.403z"/>
		<path fill-rule="evenodd" clip-rule="evenodd" fill="#333333" d="M35.337,17.12c-1.303-3.166-5.612-3.794-7.606-1.551
			c-0.043,0.048-0.096,0.087-0.238,0.018c0-1.733,0-3.501,0-5.271c-0.823,0-1.646,0-2.469,0v15.23
			c0.818,0.035,1.552,0.073,2.252-0.019c0.185-0.394,0.015-0.772,0.159-1.133c1.014,1.084,1.831,1.44,3.429,1.52
			c1.982,0.099,3.633-0.864,4.424-2.678C36.169,21.218,36.178,19.163,35.337,17.12z M32.956,22.265
			c-0.454,1.055-1.314,1.6-2.445,1.628c-1.094,0.027-1.998-0.425-2.517-1.414c-0.841-1.6-0.829-3.243-0.027-4.852
			c0.457-0.912,1.308-1.339,2.363-1.343c1.16-0.037,1.966,0.478,2.478,1.425C33.609,19.193,33.614,20.731,32.956,22.265z"/>
		<polygon fill="#619AA9" points="18.016,25.529 0,25.529 7.008,10.367 25.024,10.367 		"/>
	</g>
</g>
<g id="Layer_2">
</g>
<g id="template" display="none">
</g>
</svg>
