<?xml version="1.0" encoding="utf-8"?>
<!-- Generator: Adobe Illustrator 20.1.0, SVG Export Plug-In . SVG Version: 6.00 Build 0)  -->
<svg version="1.1" id="logos" xmlns="http://www.w3.org/2000/svg" xmlns:xlink="http://www.w3.org/1999/xlink" x="0px" y="0px"
	 viewBox="0 0 125 40" enable-background="new 0 0 125 40" xml:space="preserve">
<g>
	<g>
		<path d="M9.003,8.316c-5.439,0-9.003,0-9.003,0V32h6.073v-9.166c0.47,0,1.212,0,1.705,0c3.677,0,8.349-0.919,8.349-7.43
			C16.127,12.11,14.442,8.316,9.003,8.316z M7.701,18.545c-0.724,0-1.275,0-1.628,0v-5.898c0,0,1.169,0,1.552,0
			c1.226,0,2.375,0.613,2.375,2.911S9.003,18.545,7.701,18.545z"/>
		<path d="M26.008,7.668c-4.569,0-8.273,2.911-8.273,8.273v8.12c0,5.822,3.704,8.273,8.273,8.273s8.273-2.502,8.273-8.273v-8.12
			C34.281,10.323,30.577,7.668,26.008,7.668z M28.23,24.213c0,1.634-0.306,4.085-2.221,4.085s-2.221-2.451-2.221-4.085
			s0-2.655,0-7.507s1.583-4.953,2.221-4.953c0.638,0,2.221,0.102,2.221,4.953S28.23,22.579,28.23,24.213z"/>
		<path d="M45.592,8.316c-6.332,0-8.477,0-8.477,0V32c0,0,5.056,0,8.579,0c3.524,0,7.711-1.148,7.711-9.115c0,0,0-5.464,0-5.668
			C53.405,12.417,51.924,8.316,45.592,8.316z M47.379,24.162c0,2.86-1.174,3.524-2.604,3.524c-0.511,0-1.532,0-1.532,0V12.646
			c0,0,0.715,0,2.017,0s2.119,1.251,2.119,3.447S47.379,21.302,47.379,24.162z"/>
		<path d="M63.789,7.668c-4.483,0-8.117,2.911-8.117,8.273v8.12c0,5.822,3.634,8.273,8.117,8.273s7.898-2.043,7.898-8.273v-1.736
			h-5.745c0,0.71,0,1.255,0,1.889c0,1.634-0.083,4.085-1.998,4.085s-2.221-2.451-2.221-4.085s0-2.655,0-7.507
			s1.583-4.953,2.221-4.953c0.626,0,1.944,0.11,1.993,4.698h5.75V15.94C71.687,10.323,69.031,7.668,63.789,7.668z"/>
		<path d="M78.121,8.316L72.402,32h6.332l0.667-4.059h5.141L85.219,32h6.281L85.832,8.316H78.121z M80.164,23.294l1.787-10.877
			l1.815,10.877H80.164z"/>
		<path d="M102.276,17.855c-3.319-1.098-4.085-2.426-4.085-3.907s0.753-2.349,1.909-2.349c1.296,0,1.972,0.868,1.972,2.247v0.919
			h5.515c0-2.196-0.511-7.098-7.302-7.098c-4.8,0-8.017,2.553-8.017,6.792v1.277c0,2.911,2.196,5.107,5.158,6.179
			c2.962,1.072,4.698,2.043,4.698,4.136c0,1.94-1.481,2.196-2.196,2.196c-1.277,0-2.043-0.919-2.043-2.043v-1.123h-5.885v1.43
			c0,2.604,1.647,5.822,8.03,5.822c5.515,0,8.171-3.421,8.171-6.639v-1.889C108.199,20.945,105.595,18.953,102.276,17.855z"/>
		<polygon points="125,8.316 109.374,8.316 109.374,13.54 114.123,13.54 114.123,32 120.251,32 120.251,13.54 125,13.54 		"/>
	</g>
	<rect x="0" y="0" fill="none" width="125" height="40"/>
</g>
</svg>
