<?xml version="1.0" encoding="utf-8"?>
<!-- Generator: Adobe Illustrator 20.1.0, SVG Export Plug-In . SVG Version: 6.00 Build 0)  -->
<svg version="1.1" id="logos" xmlns="http://www.w3.org/2000/svg" xmlns:xlink="http://www.w3.org/1999/xlink" x="0px" y="0px"
	 viewBox="0 0 125 40" enable-background="new 0 0 125 40" xml:space="preserve">
<g>
	<g>
		<g>
			<g>
				<g>
					<path fill="#FF004F" d="M18.944,11.247v2.487c-2.906,0-4.668-1.49-4.668-1.49v6.826c0,3.39-2.748,6.137-6.137,6.137
						c-1.372,0-2.64-0.451-3.662-1.212c1.124,1.269,2.765,2.069,4.594,2.069c3.39,0,6.137-2.748,6.137-6.137V13.1
						c0,0,1.762,1.49,4.668,1.49v-3.241C19.569,11.349,19.256,11.314,18.944,11.247z"/>
					<path fill="#FF004F" d="M8.195,16.24c-1.559,0-2.823,1.264-2.823,2.823c0,1.051,0.575,1.967,1.426,2.453
						c-0.312-0.454-0.494-1.004-0.494-1.596c0-1.559,1.264-2.823,2.823-2.823c0.409,0,0.819,0.102,0.819,0.102l0.02-3.344
						C9.673,13.812,9.374,13.79,9.07,13.79c-0.014,0-0.027,0.001-0.041,0.001l-0.015,2.552C9.014,16.342,8.603,16.24,8.195,16.24z"
						/>
					<path fill="#00F2EA" d="M9.127,22.744c1.559,0,2.823-1.264,2.823-2.823V6.703h2.4c-0.048-0.272-0.075-0.558-0.075-0.857h-3.257
						v13.217c0,1.559-1.264,2.823-2.823,2.823c-0.509,0-0.985-0.135-1.397-0.37C7.306,22.257,8.159,22.744,9.127,22.744z"/>
					<path fill="#00F2EA" d="M18.944,11.247v-0.755c-0.912,0-1.893-0.304-2.719-0.881C16.936,10.474,17.936,11.032,18.944,11.247z"
						/>
					<path fill="#00F2EA" d="M9.029,13.791l0.004-0.793c-0.292-0.043-0.591-0.065-0.895-0.065c-3.39,0.001-6.137,2.748-6.137,6.138
						c0,2.017,0.973,3.807,2.475,4.925c-0.96-1.083-1.544-2.507-1.544-4.068C2.932,16.552,5.658,13.813,9.029,13.791z"/>
					<path d="M16.224,9.611c-0.617-0.748-1.018-1.724-1.018-2.908H14.35h-2.4v13.217c0,1.559-1.264,2.823-2.823,2.823
						c-0.967,0-1.82-0.486-2.329-1.227c-0.851-0.486-1.426-1.402-1.426-2.453c0-1.559,1.264-2.823,2.823-2.823
						c0.409,0,0.819,0.102,0.819,0.102l0.015-2.552c-3.37,0.022-6.096,2.76-6.096,6.136c0,1.561,0.584,2.985,1.544,4.068
						c1.022,0.761,2.29,1.212,3.662,1.212c3.39,0,6.137-2.748,6.137-6.137v-6.828c0,0,1.762,1.49,4.668,1.49v-2.487
						C17.936,11.032,16.936,10.474,16.224,9.611z"/>
				</g>
				<g>
					<polygon points="0,31.04 1.142,31.04 1.142,34.804 2.27,34.804 2.27,31.04 3.201,31.04 3.54,30.056 0,30.056 					"/>
					<rect x="3.791" y="31.54" width="1.129" height="3.263"/>
					<circle cx="4.324" cy="30.62" r="0.565"/>
					<polygon points="7.916,34.804 9.132,34.804 7.523,32.538 8.95,31.185 7.618,31.185 6.456,32.303 6.456,30.056 5.379,30.056 
						5.379,34.804 6.456,34.804 6.456,33.55 6.819,33.206 					"/>
					<polygon points="9.422,31.04 10.563,31.04 10.563,34.804 11.692,34.804 11.692,31.04 12.623,31.04 12.962,30.056 9.422,30.056 
											"/>
					<polygon points="19.968,34.804 21.184,34.804 19.575,32.538 21.002,31.185 19.671,31.185 18.508,32.303 18.508,30.056 
						17.431,30.056 17.431,34.804 18.508,34.804 18.508,33.55 18.871,33.206 					"/>
				</g>
				<path d="M14.796,30.943c-1.083,0-1.961,0.864-1.961,1.931c0,1.066,0.878,1.931,1.961,1.931s1.961-0.864,1.961-1.931
					C16.757,31.807,15.879,30.943,14.796,30.943z M14.796,33.841c-0.543,0-0.983-0.433-0.983-0.968s0.44-0.968,0.983-0.968
					c0.543,0,0.983,0.433,0.983,0.968S15.339,33.841,14.796,33.841z"/>
				<g>
					<path fill="#00F2EA" d="M12.835,32.873c0-1.019,0.803-1.853,1.819-1.925c-0.048-0.004-0.097-0.006-0.146-0.006
						c-1.083,0-1.961,0.864-1.961,1.931c0,1.066,0.878,1.931,1.961,1.931c0.049,0,0.098-0.002,0.146-0.006
						C13.637,34.727,12.835,33.893,12.835,32.873z"/>
					<path fill="#FF004F" d="M15.073,30.943c-0.047,0-0.094,0.002-0.141,0.005c1.02,0.069,1.825,0.904,1.825,1.925
						c0,1.021-0.805,1.857-1.825,1.925c0.046,0.003,0.094,0.005,0.141,0.005c1.083,0,1.961-0.864,1.961-1.931
						C17.034,31.807,16.156,30.943,15.073,30.943z"/>
					<path d="M14.654,34.798c0.047,0.003,0.094,0.006,0.142,0.006c0.046,0,0.091-0.002,0.136-0.005
						c-0.048-0.003-0.095-0.008-0.141-0.015C14.745,34.79,14.7,34.795,14.654,34.798z"/>
					<path d="M14.932,30.948c-0.045-0.003-0.09-0.005-0.136-0.005c-0.048,0-0.095,0.002-0.142,0.006
						c0.046,0.003,0.091,0.008,0.136,0.015C14.837,30.956,14.884,30.951,14.932,30.948z"/>
					<path d="M16.757,32.873c0-1.021-0.805-1.857-1.825-1.925c-0.048,0.003-0.095,0.008-0.141,0.015
						c-0.045-0.006-0.09-0.011-0.136-0.015c-1.017,0.072-1.819,0.906-1.819,1.925c0,1.019,0.803,1.853,1.819,1.925
						c0.046-0.003,0.091-0.008,0.136-0.015c0.047,0.007,0.094,0.012,0.141,0.015C15.951,34.73,16.757,33.894,16.757,32.873z
						 M14.796,33.841c-0.543,0-0.983-0.433-0.983-0.968s0.44-0.968,0.983-0.968c0.543,0,0.983,0.433,0.983,0.968
						S15.339,33.841,14.796,33.841z"/>
				</g>
			</g>
		</g>
		<path fill="#FE2B54" d="M110.959,4.818H39.712c-7.755,0-14.041,6.265-14.041,13.992v2.379c0,7.728,6.286,13.992,14.041,13.992
			h71.247c7.755,0,14.041-6.265,14.041-13.992V18.81C125,11.082,118.714,4.818,110.959,4.818z"/>
		<path fill="#FFFFFF" d="M49.027,16.512l-2.969,3.011v-1.935c0-1.203-0.975-2.178-2.178-2.178h-4.748
			c-1.203,0-2.178,0.975-2.178,2.178v4.984c0,1.203,0.975,2.178,2.178,2.178h4.748c1.203,0,2.178-0.975,2.178-2.178v-2.132
			l2.966,3.05c0.361,0.371,0.99,0.116,0.99-0.402v-6.17C50.015,16.401,49.389,16.144,49.027,16.512z"/>
		<path fill="#FFFFFF" d="M58.051,22.625c1.369,0,1.73-0.993,1.73-1.565c0-0.572,0-3.987,0-3.987h0.767c0,0,0,2.858,0,3.776
			c0,0.918-0.466,2.347-2.452,2.347s-2.542-1.113-2.542-2.362c0-1.249,0-3.761,0-3.761h0.767c0,0,0,2.693,0,3.806
			S57.028,22.625,58.051,22.625z"/>
		<path fill="#FFFFFF" d="M64.79,19.586v-0.632c0,0-0.617-0.241-1.264-0.241S61.842,19.045,61.842,20
			c0,1.271,2.422,1.046,2.422,2.009c0,0.301-0.301,0.632-1.023,0.632s-1.113-0.271-1.399-0.481v0.752c0,0,0.647,0.286,1.474,0.286
			s1.771-0.562,1.685-1.294c-0.165-1.414-2.467-1.098-2.467-2.031c0-0.376,0.481-0.602,1.083-0.602
			C64.219,19.271,64.79,19.586,64.79,19.586z"/>
		<path fill="#FFFFFF" d="M70.063,20.685c0-0.754-0.463-1.972-1.885-1.972s-2.245,0.995-2.245,2.314
			c0,1.319,0.788,2.169,2.279,2.169c0.805,0,1.491-0.404,1.491-0.404V22.21c0,0-0.428,0.411-1.542,0.411
			c-1.019,0-1.448-0.709-1.515-1.457c0.601,0,3.417,0,3.417,0V20.685z M66.678,20.565c0.144-0.692,0.666-1.337,1.517-1.337
			c0.805,0,1.131,0.925,1.131,1.337H66.678z"/>
		<polygon fill="#FFFFFF" points="75.084,17.074 74.056,17.074 74.056,23.119 74.776,23.119 74.776,17.858 77.312,23.119 
			77.654,23.119 80.208,17.892 80.139,23.119 80.876,23.119 80.876,17.074 79.951,17.074 77.466,22.125 		"/>
		<path fill="#FFFFFF" d="M82.795,18.801H81.99l1.902,4.318c0,0-0.583,1.457-1.234,1.457c-0.36,0-0.583-0.103-0.583-0.103v0.548
			c0,0,0.514,0.24,1.131,0c0.617-0.24,0.925-0.923,1.457-2.132c0.531-1.209,1.834-4.088,1.834-4.088h-0.788l-1.465,3.667
			L82.795,18.801z"/>
		<path fill="#FFFFFF" d="M93.522,17.961v-0.788c0,0-0.531-0.206-1.491-0.206s-2.262,0.446-2.262,1.628
			c0,1.662,3.29,1.748,3.29,3.033c0,0.377-0.223,0.977-1.414,0.977s-1.876-0.497-1.876-0.497v0.754c0,0,0.891,0.36,1.876,0.36
			s2.185-0.446,2.185-1.696c0-1.662-3.307-1.833-3.307-2.999c0-0.668,0.754-1.011,1.576-1.011S93.522,17.961,93.522,17.961z"/>
		<path fill="#FFFFFF" d="M97.257,18.681c-0.908,0-2.485,0.428-2.485,2.33s1.662,2.21,2.399,2.21c0.737,0,2.313-0.446,2.313-2.365
			C99.485,19.537,98.577,18.681,97.257,18.681z M97.129,22.656c-0.471,0-1.585-0.428-1.585-1.576c0-1.388,0.874-1.782,1.679-1.782
			c0.96,0,1.542,0.634,1.542,1.679C98.765,22.279,97.703,22.656,97.129,22.656z"/>
		<path fill="#FFFFFF" d="M103.923,18.766v2.785c-0.146,0.388-0.509,1.036-1.302,1.036c-1.131,0-1.217-0.925-1.217-1.319
			c0-0.394,0-2.502,0-2.502h-0.72c0,0,0,1.885,0,2.553c0,0.668,0.188,1.902,1.748,1.902c0.544,0,1.167-0.295,1.491-0.931v0.828
			h0.685v-4.352H103.923z"/>
		<path fill="#FFFFFF" d="M106.961,23.123v-2.785c0.146-0.388,0.509-1.036,1.302-1.036c1.131,0,1.217,0.925,1.217,1.319
			c0,0.394,0,2.502,0,2.502h0.72c0,0,0-1.885,0-2.553c0-0.668-0.188-1.902-1.748-1.902c-0.544,0-1.167,0.295-1.491,0.931V18.77
			h-0.685v4.352H106.961z"/>
		<path fill="#FFFFFF" d="M115.134,16.731v2.719c-0.206-0.292-0.669-0.783-1.465-0.783c-0.823,0-2.198,0.429-2.198,2.408
			s1.568,2.146,2.031,2.146c0.38,0,1.081-0.2,1.632-0.877v0.778h0.72v-6.391H115.134z M113.656,22.643
			c-0.54,0-1.427-0.218-1.427-1.649c0-1.431,0.964-1.718,1.555-1.718c0.579,0,1.148,0.366,1.349,1.057v1.134
			C114.888,22.32,114.107,22.643,113.656,22.643z"/>
	</g>
	<rect x="0" y="0" fill="none" width="125" height="40"/>
</g>
</svg>
