<?xml version="1.0" encoding="utf-8"?>
<!-- Generator: Adobe Illustrator 25.4.0, SVG Export Plug-In . SVG Version: 6.00 Build 0)  -->
<svg version="1.1" id="Layer_2" xmlns="http://www.w3.org/2000/svg" xmlns:xlink="http://www.w3.org/1999/xlink" x="0px" y="0px"
	 viewBox="0 0 125 40" style="enable-background:new 0 0 125 40;" xml:space="preserve">
<style type="text/css">
	.st0{fill:none;}
</style>
<g>
	<g>
		<polygon points="12.55612,6.68749 5.62757,6.68749 0,33.61506 15.73297,33.61506 16.9432,27.86649 8.16904,27.86649 		"/>
		<polygon points="19.78722,33.61506 26.80656,33.61506 32.55514,6.68749 25.59633,6.68749 		"/>
		<path d="M36.30684,14.49347c0,6.59572,7.14035,8.048,7.14035,11.49715c0,0.84718-0.66563,2.35996-3.08607,2.35996
			c-2.42046,0-5.99065-1.75483-6.8983-2.42046v6.11166c0,0,2.78352,1.57329,7.20086,1.57329s9.74232-1.93637,9.74232-8.29008
			c0-6.69059-7.24616-7.25619-7.24616-11.27183c0-1.41396,1.24427-2.20579,3.05415-2.20579
			c1.80987,0,4.73661,1.67792,4.73661,1.67792l2.48096-5.20398c0,0-2.66248-1.93637-7.92699-1.93637
			C42.53951,6.38494,36.30684,7.89772,36.30684,14.49347z"/>
		<polygon points="76.19,6.68749 57.58226,6.68749 56.33796,12.3564 62.1949,12.3564 57.69537,33.61506 64.48238,33.61506 
			68.93082,12.3564 74.83259,12.3564 		"/>
		<polygon points="94.91087,12.3564 96.09859,6.68749 80.48844,6.68749 74.71947,33.61506 90.38619,33.61506 91.68703,27.85343 
			82.80735,27.85343 84.05165,22.25415 92.36572,22.25415 93.49691,17.05076 85.06969,17.05076 86.14429,12.3564 		"/>
		<path d="M119.0048,6.68749c0,0-2.0361,8.72305-2.65825,12.00345c-0.62215,3.2804-0.96149,6.278-0.96149,6.278h-0.45246
			L109.7292,6.68749h-7.97476l-5.65585,26.92757h5.93866c0,0,2.14922-10.73879,2.88448-14.30197
			c0.73526-3.56318,0.50903-4.7509,0.50903-4.7509h0.56557l5.25993,19.05287h8.14442L125,6.68749H119.0048z"/>
	</g>
	<rect class="st0" width="125" height="40"/>
</g>
<g>
</g>
<g>
</g>
<g>
</g>
<g>
</g>
<g>
</g>
<g>
</g>
</svg>
