<?xml version="1.0" encoding="utf-8"?>
<!-- Generator: Adobe Illustrator 25.4.0, SVG Export Plug-In . SVG Version: 6.00 Build 0)  -->
<svg version="1.1" id="logos" xmlns="http://www.w3.org/2000/svg" xmlns:xlink="http://www.w3.org/1999/xlink" x="0px" y="0px"
	 viewBox="0 0 125 40" enable-background="new 0 0 125 40" xml:space="preserve">
<g>
	<rect fill="#FDD000" width="125" height="40"/>
	<polygon fill="#D6000F" points="9.946,15.93 9.697,13.982 8.459,13.982 6.306,13.982 4.951,13.982 5.2,15.93 6.544,15.93 
		7.778,25.993 9.946,25.993 8.7,15.93 	"/>
	<path fill="#D6000F" d="M16.952,24.669l-1.143-9.235c-0.103-0.83-0.808-1.453-1.643-1.453h-2.388c-0.732,0-1.299,0.641-1.21,1.367
		l1.106,9.028c0.113,0.922,0.896,1.616,1.826,1.616h2.283C16.49,25.993,17.039,25.372,16.952,24.669z M14.434,24.191h-0.584
		c-0.124,0-0.229-0.092-0.244-0.216l-0.986-7.964c-0.024-0.195,0.128-0.368,0.325-0.368h0.429c0.165,0,0.305,0.123,0.325,0.288
		l0.978,7.983C14.696,24.062,14.582,24.191,14.434,24.191z"/>
	<path fill="#D6000F" d="M64.455,24.669l-1.143-9.235c-0.103-0.83-0.808-1.453-1.643-1.453H59.28c-0.732,0-1.299,0.641-1.21,1.367
		l1.106,9.028c0.113,0.922,0.896,1.616,1.826,1.616h2.283C63.993,25.993,64.542,25.372,64.455,24.669z M61.937,24.191h-0.584
		c-0.124,0-0.229-0.092-0.244-0.216l-0.986-7.964c-0.024-0.195,0.128-0.368,0.325-0.368h0.429c0.165,0,0.305,0.123,0.325,0.288
		l0.978,7.983C62.199,24.062,62.085,24.191,61.937,24.191z"/>
	<path fill="#D6000F" d="M26.452,24.161l-1.229-10.179h-2.029l1.165,9.883c0.02,0.174-0.115,0.326-0.29,0.326h-0.419
		c-0.155,0-0.285-0.115-0.305-0.268l-1.299-9.941h-2.082l1.245,9.883c0.02,0.174-0.115,0.326-0.29,0.326h-0.566
		c-0.155,0-0.285-0.115-0.305-0.268l-1.234-9.941H16.83l1.313,10.554c0.103,0.832,0.811,1.457,1.649,1.457c0,0,1.107,0,1.669,0
		c0.562,0,0.906-0.467,0.962-0.663c0,0,0.45,0.663,1.173,0.663c0.555,0,1.331,0,1.331,0C25.855,25.993,26.563,25.083,26.452,24.161z
		"/>
	<polygon fill="#D6000F" points="31.416,24.191 29.722,24.191 29.33,20.983 31.023,20.983 30.803,19.138 29.104,19.138 
		28.676,15.644 30.397,15.644 30.199,13.982 26.376,13.982 27.846,25.993 31.63,25.993 	"/>
	<polygon fill="#D6000F" points="52.095,24.191 50.401,24.191 50.009,20.983 51.702,20.983 51.482,19.138 49.783,19.138 
		49.355,15.644 51.076,15.644 50.878,13.982 47.055,13.982 48.525,25.993 52.309,25.993 	"/>
	<path fill="#D6000F" d="M37.521,21.276c-0.128-0.851-0.604-1.24-1.149-1.344c0,0,0.961-0.113,0.791-1.66l-0.33-2.776
		c-0.103-0.863-0.835-1.513-1.704-1.513h-3.764l1.488,12.011h2.05l-0.613-5.157h0.764c0.197,0,0.363,0.147,0.387,0.342l0.593,4.815
		h2.047L37.521,21.276z M34.897,19.093h-0.814l-0.407-3.427h0.739c0.226,0,0.416,0.171,0.441,0.396l0.297,2.746
		C35.17,18.96,35.051,19.093,34.897,19.093z"/>
	<path fill="#D6000F" d="M46.852,21.276c-0.128-0.851-0.604-1.24-1.149-1.344c0,0,0.961-0.113,0.791-1.66l-0.33-2.776
		c-0.103-0.863-0.835-1.513-1.704-1.513h-3.764l1.488,12.011h2.05l-0.613-5.157h0.764c0.197,0,0.363,0.147,0.387,0.342l0.593,4.815
		h2.047L46.852,21.276z M44.228,19.093h-0.814l-0.407-3.427h0.739c0.226,0,0.416,0.171,0.441,0.396l0.297,2.746
		C44.501,18.96,44.381,19.093,44.228,19.093z"/>
	<path fill="#D6000F" d="M70.497,21.276c-0.128-0.851-0.604-1.24-1.149-1.344c0,0,0.961-0.113,0.791-1.66l-0.33-2.776
		c-0.103-0.863-0.835-1.513-1.704-1.513h-3.764l1.488,12.011h2.05l-0.613-5.157h0.764c0.197,0,0.363,0.147,0.387,0.342l0.593,4.815
		h2.047L70.497,21.276z M67.873,19.093h-0.814l-0.407-3.427h0.739c0.226,0,0.416,0.171,0.441,0.396l0.297,2.746
		C68.145,18.96,68.026,19.093,67.873,19.093z"/>
	<path fill="#D6000F" d="M57.949,22.104h-1.97l0.222,1.812c0.018,0.147-0.096,0.276-0.244,0.276h-0.584
		c-0.124,0-0.229-0.092-0.244-0.216l-0.986-7.964c-0.024-0.195,0.128-0.368,0.325-0.368h0.429c0.165,0,0.305,0.123,0.325,0.288
		l0.256,2.085h1.965l-0.356-2.876c-0.082-0.662-0.644-1.159-1.312-1.159H53.3c-0.732,0-1.299,0.641-1.21,1.367l1.106,9.028
		c0.113,0.922,0.896,1.616,1.826,1.616h2.301c0.588,0,1.043-0.515,0.971-1.099L57.949,22.104z"/>
	<path fill="#D6000F" d="M119.398,22.104h-1.97l0.222,1.812c0.018,0.147-0.096,0.276-0.244,0.276h-0.584
		c-0.124,0-0.229-0.092-0.244-0.216l-0.986-7.964c-0.024-0.195,0.128-0.368,0.325-0.368h0.429c0.165,0,0.305,0.123,0.325,0.288
		l0.256,2.085h1.965l-0.356-2.876c-0.082-0.662-0.644-1.159-1.312-1.159h-2.476c-0.732,0-1.299,0.641-1.21,1.367l1.106,9.028
		c0.113,0.922,0.896,1.616,1.826,1.616h2.301c0.588,0,1.043-0.515,0.971-1.099L119.398,22.104z"/>
	<path fill="#D6000F" d="M77.347,24.669l-1.101-8.898c-0.126-1.022-0.995-1.789-2.024-1.789h-3.426l1.472,12.011h3.91
		C76.886,25.993,77.434,25.372,77.347,24.669z M74.83,24.191h-0.584c-0.124,0-0.229-0.092-0.244-0.216l-0.986-7.964
		c-0.024-0.195,0.128-0.368,0.325-0.368h0.429c0.165,0,0.305,0.123,0.325,0.288l0.978,7.983
		C75.092,24.062,74.977,24.191,74.83,24.191z"/>
	<path fill="#D6000F" d="M83.865,24.784l-0.494-3.993c-0.045-0.366-0.276-0.683-0.611-0.839L80.16,18.74
		c-0.113-0.053-0.191-0.159-0.207-0.283l-0.316-2.446c-0.024-0.195,0.128-0.368,0.325-0.368h0.314c0.231,0,0.426,0.172,0.454,0.402
		l0.266,2.169h2.056l-0.344-2.781c-0.103-0.83-0.808-1.453-1.643-1.453h-2.388c-0.732,0-1.299,0.641-1.21,1.367l0.496,3.943
		c0.055,0.438,0.341,0.812,0.749,0.981l2.011,0.832c0.391,0.162,0.666,0.519,0.722,0.938l0.251,1.873
		c0.018,0.147-0.096,0.276-0.244,0.276h-0.584c-0.124,0-0.229-0.092-0.244-0.216l-0.237-1.916h-2.097l0.346,2.826
		c0.077,0.632,0.614,1.107,1.251,1.107h2.911C83.444,25.993,83.945,25.426,83.865,24.784z"/>
	<path fill="#D6000F" d="M110.203,24.784l-0.494-3.993c-0.045-0.366-0.276-0.683-0.611-0.839l-2.601-1.212
		c-0.113-0.053-0.191-0.159-0.207-0.283l-0.316-2.446c-0.024-0.195,0.128-0.368,0.325-0.368h0.314c0.231,0,0.426,0.172,0.454,0.402
		l0.266,2.169h2.056l-0.344-2.781c-0.103-0.83-0.808-1.453-1.643-1.453h-2.388c-0.732,0-1.299,0.641-1.21,1.367l0.496,3.943
		c0.055,0.438,0.341,0.812,0.749,0.981l2.011,0.832c0.391,0.162,0.666,0.519,0.722,0.938l0.251,1.873
		c0.018,0.147-0.096,0.276-0.244,0.276h-0.584c-0.124,0-0.229-0.092-0.244-0.216l-0.237-1.916h-2.097l0.346,2.826
		c0.077,0.632,0.614,1.107,1.251,1.107h2.911C109.781,25.993,110.282,25.426,110.203,24.784z"/>
	<path fill="#D6000F" d="M96.344,15.667c-0.115-0.961-0.93-1.685-1.898-1.685h-1.67c-0.966,0-1.325,0.777-1.325,0.777
		s-0.304-0.777-1.49-0.777h-1.275c-1.083,0-1.923,0.946-1.795,2.022l1.194,9.989h2.374l-1.282-10.01
		c-0.023-0.179,0.117-0.338,0.297-0.338h0.513c0.222,0,0.409,0.165,0.437,0.386l1.249,9.963h2.346l-1.249-9.962
		c-0.026-0.205,0.134-0.386,0.341-0.386h0.593c0.211,0,0.389,0.158,0.415,0.367l1.225,9.981h2.236L96.344,15.667z"/>
	<path fill="#D6000F" d="M103.895,24.621l-1.349-10.639h-2.139l1.221,9.99c0.015,0.121-0.079,0.227-0.201,0.227h-0.599
		c-0.142,0-0.262-0.106-0.28-0.247l-1.24-9.97h-1.977l1.294,10.405c0.114,0.917,0.894,1.606,1.818,1.606h2.243
		C103.42,25.993,103.987,25.349,103.895,24.621z"/>
	<polygon fill="#D6000F" points="110.135,13.982 111.612,25.993 113.648,25.993 112.169,13.982 	"/>
</g>
</svg>
