<?xml version="1.0" encoding="utf-8"?>
<!-- Generator: Adobe Illustrator 16.0.0, SVG Export Plug-In . SVG Version: 6.00 Build 0)  -->
<!DOCTYPE svg PUBLIC "-//W3C//DTD SVG 1.1//EN" "http://www.w3.org/Graphics/SVG/1.1/DTD/svg11.dtd">
<svg version="1.1" xmlns="http://www.w3.org/2000/svg" xmlns:xlink="http://www.w3.org/1999/xlink" x="0px" y="0px" width="125px"
	 height="40px" viewBox="0 0 125 40" enable-background="new 0 0 125 40" xml:space="preserve">
<g id="Layer_1">
</g>
<g id="Layer_2">
</g>
<g id="Layer_3">
	<g>
		<path fill-rule="evenodd" clip-rule="evenodd" fill="#0078D6" d="M23.1,8.2c-0.7,0.5-1.3,0.9-1.9,1.4c-6.8-4.1-14.1-0.9-17.1,4
			c-3.2,5.3-2.1,12,2.5,15.9c4.9,4.1,11.8,3.8,16.2-0.3c4.7-4.3,5-10.9,2.4-15.2c-1,0.7-1.9,1.3-2.9,2c-0.4-0.6-0.9-1.2-1.3-1.9
			c1.6-1.1,3.2-2.2,4.8-3.4c4.1,4.6,4.9,12.7,0,18.6c-5.4,6.4-14.6,6.9-20.6,1.9c-6.4-5.3-6.9-14.5-1.9-20.5
			C8.8,4.2,17.7,4.1,23.1,8.2z"/>
		<path fill-rule="evenodd" clip-rule="evenodd" fill="#0078D6" d="M14.6,25.5c-3,0-5.4-2.4-5.4-5.5c0-3,2.4-5.4,5.5-5.4
			c3,0,5.4,2.5,5.4,5.5C20.1,23.1,17.6,25.5,14.6,25.5z M16.4,20c0-1-0.8-1.8-1.8-1.8c-1,0-1.8,0.8-1.8,1.8c0,1,0.8,1.9,1.8,1.8
			C15.6,21.8,16.4,21,16.4,20z"/>
		<g>
			<path fill="#0078D6" d="M53.1,27.8c-1.7,1-3.6,1.5-5.7,1.5c-2.4,0-4.4-0.8-5.9-2.4c-1.5-1.6-2.3-3.7-2.3-6.2
				c0-2.6,0.8-4.8,2.5-6.5c1.7-1.7,3.8-2.5,6.4-2.5c1.9,0,3.4,0.3,4.7,0.9v2.2c-1.4-0.9-3-1.3-4.9-1.3c-1.9,0-3.5,0.7-4.7,2
				c-1.2,1.3-1.8,3-1.8,5.1c0,2.2,0.6,3.9,1.7,5.1c1.1,1.2,2.7,1.9,4.6,1.9c1.3,0,2.5-0.3,3.5-0.8v-4.8h-3.7V20h5.7V27.8z"/>
			<path fill="#0078D6" d="M62.8,18.7c-0.3-0.3-0.8-0.4-1.5-0.4c-0.8,0-1.5,0.4-2.1,1.2c-0.6,0.8-0.8,1.9-0.8,3.2v6.2h-2V16.7h2v2.5
				h0c0.3-0.9,0.7-1.5,1.3-2c0.6-0.5,1.2-0.7,1.9-0.7c0.5,0,0.9,0.1,1.2,0.2V18.7z"/>
			<path fill="#0078D6" d="M69.4,29.2c-1.8,0-3.2-0.6-4.3-1.7c-1.1-1.1-1.6-2.7-1.6-4.5c0-2.1,0.6-3.7,1.7-4.8
				c1.1-1.2,2.6-1.7,4.5-1.7c1.8,0,3.2,0.6,4.3,1.7c1,1.1,1.5,2.7,1.5,4.7c0,1.9-0.5,3.5-1.7,4.7C72.7,28.6,71.2,29.2,69.4,29.2z
				 M69.5,18.1c-1.3,0-2.2,0.4-3,1.3c-0.7,0.9-1.1,2-1.1,3.5c0,1.4,0.4,2.6,1.1,3.4c0.7,0.8,1.7,1.3,3,1.3c1.3,0,2.2-0.4,2.9-1.2
				c0.7-0.8,1-2,1-3.5c0-1.5-0.3-2.7-1-3.5C71.8,18.5,70.8,18.1,69.5,18.1z"/>
			<path fill="#0078D6" d="M83.3,29.2c-1.8,0-3.2-0.6-4.3-1.7c-1.1-1.1-1.6-2.7-1.6-4.5c0-2.1,0.6-3.7,1.7-4.8
				c1.1-1.2,2.6-1.7,4.5-1.7c1.8,0,3.2,0.6,4.3,1.7c1,1.1,1.5,2.7,1.5,4.7c0,1.9-0.6,3.5-1.7,4.7C86.6,28.6,85.2,29.2,83.3,29.2z
				 M83.5,18.1c-1.3,0-2.2,0.4-3,1.3c-0.7,0.9-1.1,2-1.1,3.5c0,1.4,0.4,2.6,1.1,3.4c0.7,0.8,1.7,1.3,3,1.3c1.3,0,2.2-0.4,2.9-1.2
				c0.7-0.8,1-2,1-3.5c0-1.5-0.3-2.7-1-3.5C85.7,18.5,84.7,18.1,83.5,18.1z"/>
			<path fill="#0078D6" d="M101.8,16.7l-4.9,12.2H95l-4.6-12.2h2.1l3.1,8.9c0.2,0.7,0.4,1.2,0.4,1.7h0c0.1-0.6,0.2-1.2,0.4-1.7
				l3.2-8.9H101.8z"/>
			<path fill="#0078D6" d="M113.2,23.3h-8.6c0,1.4,0.4,2.4,1.1,3.1c0.7,0.7,1.7,1.1,2.9,1.1c1.4,0,2.6-0.5,3.8-1.4v1.8
				c-1.1,0.8-2.5,1.2-4.3,1.2c-1.7,0-3.1-0.6-4.1-1.7c-1-1.1-1.5-2.7-1.5-4.7c0-1.9,0.5-3.4,1.6-4.6c1.1-1.2,2.4-1.8,4-1.8
				c1.6,0,2.8,0.5,3.7,1.6c0.9,1,1.3,2.5,1.3,4.3V23.3z M111.2,21.7c0-1.1-0.3-2-0.8-2.6c-0.5-0.6-1.3-0.9-2.2-0.9
				c-0.9,0-1.7,0.3-2.3,1c-0.6,0.7-1,1.5-1.2,2.6H111.2z"/>
		</g>
	</g>
</g>
</svg>
