<?xml version="1.0" encoding="utf-8"?>
<!-- Generator: Adobe Illustrator 16.0.0, SVG Export Plug-In . SVG Version: 6.00 Build 0)  -->
<!DOCTYPE svg PUBLIC "-//W3C//DTD SVG 1.1//EN" "http://www.w3.org/Graphics/SVG/1.1/DTD/svg11.dtd">
<svg version="1.1" xmlns="http://www.w3.org/2000/svg" xmlns:xlink="http://www.w3.org/1999/xlink" x="0px" y="0px" width="125px"
	 height="40px" viewBox="0 0 125 40" enable-background="new 0 0 125 40" xml:space="preserve">
<g id="Layer_1">
	<g id="Claro_musica">
		<path fill-rule="evenodd" clip-rule="evenodd" fill="#242021" d="M71.617,30.615c-0.956,0-1.868,0-2.807,0
			c0-0.125,0-0.233,0-0.343c0-2.135,0.001-4.27-0.002-6.405c0-0.192-0.001-0.389-0.037-0.576c-0.206-1.08-0.946-1.621-2.061-1.521
			c-0.95,0.084-1.594,0.847-1.599,1.931c-0.008,2.104-0.002,4.209-0.002,6.314c0,0.192,0,0.384,0,0.596c-0.947,0-1.874,0-2.814,0
			c0-3.75,0-7.489,0-11.252c0.892,0,1.791,0,2.713,0c0,0.295,0,0.604,0,0.937c2.029-1.489,3.96-1.588,5.828,0.275
			c0.042-0.04,0.117-0.106,0.187-0.176c1.595-1.586,4.174-1.425,5.418-0.578c1.064,0.724,1.642,1.777,1.669,3.033
			c0.056,2.58,0.017,5.162,0.017,7.762c-0.916,0-1.835,0-2.79,0c0-0.109,0-0.218,0-0.326c-0.003-2.227,0-4.453-0.014-6.68
			c-0.006-0.866-0.477-1.525-1.205-1.761c-0.766-0.248-1.64-0.007-2.099,0.584c-0.321,0.415-0.402,0.903-0.403,1.408
			c-0.002,2.145-0.001,4.291-0.001,6.436C71.617,30.382,71.617,30.491,71.617,30.615z"/>
		<path fill-rule="evenodd" clip-rule="evenodd" fill="#E21E1B" d="M14.464,21.295c-0.957,0-1.88,0.007-2.804-0.011
			c-0.09-0.002-0.204-0.138-0.261-0.237c-0.719-1.252-1.762-2.053-3.197-2.306c-2.348-0.414-4.768,1.422-5.068,3.794
			C2.8,25.18,4.372,26.803,5.853,27.429c1.822,0.771,4.208,0.287,5.467-1.888c0.166-0.286,0.338-0.38,0.66-0.369
			c0.822,0.025,1.645,0.008,2.572,0.008c-0.272,0.619-0.468,1.209-0.773,1.736c-1.321,2.275-3.29,3.51-5.942,3.658
			c-4.161,0.233-7.322-3.208-7.511-6.764c-0.174-3.264,1.535-6.252,4.44-7.413c4.206-1.681,8.466,0.648,9.669,4.707
			C14.448,21.152,14.45,21.203,14.464,21.295z"/>
		<path fill-rule="evenodd" clip-rule="evenodd" fill="#E21E1B" d="M23.387,22.737c-0.947,0-1.869,0-2.791,0
			c0.061-2.255,1.288-3.423,2.864-3.775c1.525-0.341,3.035-0.303,4.526,0.232c1.387,0.498,2.026,1.506,2.036,2.928
			c0.02,2.775,0.006,5.55,0.005,8.325c0,0.049-0.008,0.099-0.014,0.166c-0.931,0-1.852,0-2.798,0c0-0.349,0-0.701,0-1.106
			c-0.12,0.082-0.198,0.137-0.278,0.188c-1.374,0.897-2.875,1.162-4.455,0.77c-1.186-0.294-1.897-1.113-2.072-2.328
			c-0.157-1.09-0.084-2.157,0.636-3.073c0.577-0.734,1.393-1.079,2.268-1.266c0.952-0.203,1.917-0.342,2.879-0.499
			c0.518-0.084,0.877-0.388,0.93-0.819c0.06-0.485-0.185-0.938-0.652-1.123c-0.695-0.273-1.418-0.3-2.117-0.049
			C23.722,21.536,23.485,22.092,23.387,22.737z M27.054,24.972c-0.462,0.139-0.902,0.283-1.348,0.402
			c-0.489,0.13-0.994,0.208-1.476,0.357c-0.843,0.263-1.222,0.951-1.053,1.834c0.139,0.729,0.688,1.123,1.579,1.03
			c1.408-0.147,2.183-0.819,2.292-2.146C27.089,25.947,27.054,25.438,27.054,24.972z"/>
		<path fill-rule="evenodd" clip-rule="evenodd" fill="#E21E1B" d="M38.649,24.743c0.002-3.334,2.595-5.964,5.875-5.959
			c3.257,0.005,5.812,2.656,5.826,6.01c0.015,3.411-2.907,5.989-5.984,5.938C41.462,30.684,38.556,28.043,38.649,24.743z
			 M44.416,27.875c1.693,0.027,3.148-1.369,3.155-3.084c0.008-1.918-1.468-3.069-2.828-3.164c-2.064-0.144-3.282,1.612-3.335,2.985
			C41.345,26.234,42.719,27.888,44.416,27.875z"/>
		<path fill-rule="evenodd" clip-rule="evenodd" fill="#242021" d="M121.934,30.616c0-0.298,0-0.578,0-0.874
			c-0.05,0.017-0.084,0.018-0.102,0.036c-0.938,0.937-2.106,1.055-3.338,0.931c-0.942-0.095-1.802-0.403-2.376-1.195
			c-0.838-1.156-0.993-2.441-0.421-3.746c0.517-1.178,1.562-1.685,2.777-1.786c1.021-0.085,2.05-0.047,3.076-0.063
			c0.099-0.001,0.197,0,0.353,0c-0.039-0.417-0.043-0.803-0.117-1.175c-0.125-0.637-0.577-0.988-1.186-1.061
			c-0.538-0.064-1.093-0.059-1.633-0.003c-0.548,0.057-0.96,0.413-1.313,0.833c-0.578-0.61-1.147-1.211-1.737-1.834
			c0.54-0.64,1.296-1.144,2.231-1.326c1.24-0.241,2.488-0.242,3.718,0.069c1.792,0.454,2.784,1.68,2.806,3.533
			c0.03,2.511,0.007,5.022,0.006,7.533c0,0.039-0.011,0.077-0.018,0.127C123.759,30.616,122.867,30.616,121.934,30.616z
			 M121.896,25.872c-0.708,0-1.356-0.004-2.005,0.002c-0.253,0.002-0.51,0.008-0.757,0.051c-0.652,0.115-1.034,0.564-1.043,1.193
			c-0.01,0.653,0.353,1.149,1.018,1.235c0.504,0.065,1.038,0.071,1.537-0.02c0.618-0.113,1.065-0.512,1.162-1.174
			C121.867,26.751,121.866,26.333,121.896,25.872z"/>
		<path fill-rule="evenodd" clip-rule="evenodd" fill="#231F20" d="M86.688,19.347c0.96,0,1.881,0,2.813,0c0,3.762,0,7.51,0,11.271
			c-0.906,0-1.798,0-2.732,0c0-0.308,0-0.613,0-0.994c-0.551,0.52-1.117,0.859-1.78,1.015c-2.493,0.587-4.677-0.841-4.77-3.45
			c-0.09-2.508-0.033-5.021-0.041-7.532c0-0.1,0-0.2,0-0.311c0.94,0,1.853,0,2.808,0c0,0.106,0,0.214,0,0.32
			c0,2.125-0.001,4.25,0.002,6.375c0,0.232,0.01,0.469,0.055,0.696c0.197,0.992,0.941,1.545,1.959,1.471
			c0.971-0.07,1.657-0.773,1.674-1.795c0.026-1.545,0.009-3.09,0.01-4.636C86.688,20.975,86.688,20.173,86.688,19.347z"/>
		<path fill-rule="evenodd" clip-rule="evenodd" fill="#242021" d="M90.593,29.184c0.7-0.676,1.314-1.268,1.942-1.875
			c0.549,0.524,1.226,0.849,1.999,0.963c0.75,0.112,1.5,0.147,2.22-0.152c0.622-0.257,0.882-0.791,0.654-1.34
			c-0.185-0.446-0.587-0.562-1.012-0.615c-0.877-0.107-1.763-0.16-2.63-0.316c-1.125-0.202-2.01-0.759-2.361-1.932
			c-0.57-1.903,0.337-3.739,2.262-4.383c1.805-0.604,3.602-0.455,5.333,0.35c0.191,0.089,0.363,0.222,0.538,0.344
			c0.115,0.081,0.218,0.18,0.348,0.29c-0.604,0.564-1.194,1.116-1.813,1.695c-0.691-0.558-1.617-0.698-2.573-0.673
			c-0.334,0.009-0.685,0.1-0.994,0.233c-0.413,0.178-0.577,0.544-0.53,0.969c0.043,0.391,0.262,0.667,0.727,0.749
			c0.649,0.114,1.312,0.139,1.963,0.242c0.558,0.088,1.13,0.17,1.655,0.364c1.239,0.459,1.849,1.42,1.896,2.717
			c0.067,1.853-0.789,3.094-2.574,3.621c-1.842,0.545-3.698,0.514-5.482-0.25C91.623,29.955,91.159,29.552,90.593,29.184z"/>
		<path fill-rule="evenodd" clip-rule="evenodd" fill="#242021" d="M113.054,27.347c0.635,0.634,1.253,1.251,1.894,1.89
			c-0.496,0.549-1.084,0.99-1.801,1.215c-1.876,0.589-3.656,0.446-5.219-0.851c-0.846-0.702-1.282-1.664-1.496-2.724
			c-0.31-1.528-0.301-3.052,0.204-4.541c0.628-1.852,2.144-2.987,4.099-3.12c1.617-0.111,3.065,0.254,4.203,1.469
			c-0.644,0.628-1.286,1.255-1.933,1.885c-0.4-0.414-0.898-0.783-1.596-0.812c-0.991-0.04-1.749,0.436-2.094,1.38
			c-0.327,0.892-0.29,1.818-0.211,2.741c0.026,0.3,0.102,0.602,0.195,0.889c0.549,1.678,2.431,1.794,3.408,0.907
			C112.827,27.566,112.943,27.452,113.054,27.347z"/>
		<path fill-rule="evenodd" clip-rule="evenodd" fill="#E21E1B" d="M34.694,30.622c-0.948,0-1.853,0-2.776,0
			c0-3.766,0-7.522,0-11.292c0.878,0,1.756,0,2.665,0c0,0.458,0,0.888,0,1.422c0.987-1.329,2.267-1.876,3.814-1.932
			c0,0.971,0,1.913,0,2.891c-0.174-0.009-0.352-0.012-0.528-0.029c-1.551-0.152-2.95,0.977-3.111,2.523
			c-0.04,0.383-0.059,0.77-0.061,1.155c-0.006,1.647-0.002,3.294-0.002,4.941C34.694,30.408,34.694,30.515,34.694,30.622z"/>
		<path fill-rule="evenodd" clip-rule="evenodd" fill="#E21E1B" d="M15.912,30.61c0-4.91,0-9.806,0-14.723c0.921,0,1.84,0,2.782,0
			c0,4.898,0,9.8,0,14.723C17.783,30.61,16.863,30.61,15.912,30.61z"/>
		<path fill-rule="evenodd" clip-rule="evenodd" fill="#231F20" d="M104.518,19.351c0,3.759,0,7.5,0,11.26c-0.925,0-1.844,0-2.782,0
			c0-3.749,0-7.495,0-11.26C102.649,19.351,103.569,19.351,104.518,19.351z"/>
		<path fill-rule="evenodd" clip-rule="evenodd" fill="#E21E1B" d="M50.771,19.117c-0.524-0.506-1.123-1.083-1.756-1.694
			c2.31-2.25,4.6-4.479,6.875-6.695c0.497,0.496,1.089,1.087,1.719,1.715C55.327,14.67,53.038,16.904,50.771,19.117z"/>
		<path fill-rule="evenodd" clip-rule="evenodd" fill="#E21E1B" d="M43.567,16.5c0-2.439,0-4.862,0-7.307c0.828,0,1.656,0,2.505,0
			c0,2.432,0,4.861,0,7.307C45.235,16.5,44.409,16.5,43.567,16.5z"/>
		<path fill-rule="evenodd" clip-rule="evenodd" fill="#E21E1B" d="M52.068,24.569c0-0.84,0-1.659,0-2.499c2.467,0,4.921,0,7.399,0
			c0,0.823,0,1.65,0,2.499C57.018,24.569,54.557,24.569,52.068,24.569z"/>
		<path fill-rule="evenodd" clip-rule="evenodd" fill="#242021" d="M104.87,16.174c-0.009,1.001-0.785,1.765-1.787,1.756
			c-0.956-0.009-1.741-0.821-1.733-1.792c0.009-1,0.8-1.755,1.83-1.747C104.132,14.398,104.878,15.186,104.87,16.174z"/>
		<path fill-rule="evenodd" clip-rule="evenodd" fill="#242021" d="M83.635,17.553c0.384-1.031,0.75-2.017,1.119-3.001
			c0.267-0.712,0.268-0.711,1.017-0.711c0.721,0,1.441,0,2.198,0c-0.048,0.086-0.081,0.155-0.122,0.217
			c-0.729,1.099-1.455,2.2-2.196,3.29c-0.069,0.102-0.232,0.19-0.355,0.196C84.758,17.566,84.22,17.553,83.635,17.553z"/>
		<path fill-rule="evenodd" clip-rule="evenodd" fill="none" d="M27.054,24.972c0,0.467,0.035,0.975-0.007,1.478
			c-0.109,1.328-0.884,2-2.292,2.146c-0.891,0.093-1.439-0.301-1.579-1.03c-0.168-0.884,0.21-1.572,1.053-1.834
			c0.482-0.15,0.987-0.228,1.476-0.357C26.152,25.255,26.591,25.111,27.054,24.972z"/>
		<path fill-rule="evenodd" clip-rule="evenodd" fill="none" d="M44.416,27.875c-1.697,0.013-3.071-1.641-3.008-3.263
			c0.053-1.373,1.271-3.129,3.335-2.985c1.36,0.095,2.836,1.246,2.828,3.164C47.563,26.506,46.109,27.902,44.416,27.875z"/>
		<path fill-rule="evenodd" clip-rule="evenodd" fill="none" d="M121.896,25.872c-0.029,0.462-0.028,0.879-0.088,1.289
			c-0.097,0.662-0.543,1.061-1.162,1.174c-0.499,0.09-1.032,0.085-1.537,0.02c-0.666-0.086-1.028-0.583-1.018-1.235
			c0.009-0.629,0.391-1.078,1.043-1.193c0.247-0.043,0.504-0.049,0.757-0.051C120.539,25.867,121.187,25.872,121.896,25.872z"/>
	</g>
</g>
<g id="Layer_2">
</g>
<g id="template" display="none">
</g>
</svg>
