<?xml version="1.0" encoding="utf-8"?>
<!-- Generator: Adobe Illustrator 20.1.0, SVG Export Plug-In . SVG Version: 6.00 Build 0)  -->
<svg version="1.1" id="logos" xmlns="http://www.w3.org/2000/svg" xmlns:xlink="http://www.w3.org/1999/xlink" x="0px" y="0px"
	 viewBox="0 0 125 40" enable-background="new 0 0 125 40" xml:space="preserve">
<g>
	
		<linearGradient id="SVGID_1_" gradientUnits="userSpaceOnUse" x1="-639.6129" y1="-819.6848" x2="-604.3087" y2="-819.6848" gradientTransform="matrix(4.489659e-11 1 -1 4.489659e-11 -802.0327 641.9608)">
		<stop  offset="0.261" style="stop-color:#01A8FF"/>
		<stop  offset="0.4238" style="stop-color:#0993FF"/>
		<stop  offset="0.8062" style="stop-color:#1A67FF"/>
		<stop  offset="1" style="stop-color:#2156FF"/>
	</linearGradient>
	<circle fill="url(#SVGID_1_)" cx="17.652" cy="20" r="17.652"/>
	<path fill="#FFFFFF" d="M16.117,8.427c-0.49-0.585-1.83-1.032-2.972,0.047s-3.504,3.441-4.787,4.865s-2.133,3.368-1.966,5.975
		s1.71,4.943,3.504,6.173s4.651,1.919,7.237,1.022c1.251-0.438,2.252-1.022,3.295-2.065c1.043-1.043,1.605-1.624,1.94-2.002
		c0.48-0.542,0.751-1.835-0.25-2.67c-1.001-0.834-2.152-0.608-2.878,0.083c-0.438,0.417-1.147,1.126-1.919,1.898
		c-0.876,0.876-3.726,2.04-5.756-0.209c-1.168-1.293-1.752-3.692-0.188-5.443s3.942-4.046,4.651-4.755
		C16.738,10.638,17.061,9.553,16.117,8.427z"/>
	<path fill="#FFFFFF" d="M19.197,31.573c0.488,0.587,1.825,1.041,2.972-0.033c1.147-1.074,3.519-3.425,4.809-4.843
		c1.289-1.418,2.148-3.359,1.993-5.966c-0.155-2.608-1.688-4.951-3.476-6.189c-1.788-1.239-4.642-1.94-7.232-1.055
		c-1.253,0.432-2.257,1.012-3.305,2.05s-1.612,1.617-1.949,1.993c-0.482,0.54-0.759,1.832,0.238,2.671s2.149,0.618,2.879-0.07
		c0.44-0.415,1.152-1.121,1.927-1.889c0.88-0.872,3.735-2.023,5.755,0.235c1.162,1.298,1.735,3.699,0.163,5.444
		c-1.572,1.745-3.96,4.028-4.673,4.734C18.587,29.36,18.259,30.443,19.197,31.573z"/>
	<path fill="#232323" d="M48.03,12.682c-1.689,0-3.171,0.344-4.231,1.075c-1.06,0.731-1.697,1.85-1.697,3.398
		c0,0.954,0.262,1.842,0.96,2.583c0.698,0.741,1.832,1.335,3.576,1.703c1.048,0.188,1.693,0.321,2.077,0.489
		c0.383,0.168,0.504,0.372,0.504,0.7c0,0.328-0.145,0.594-0.452,0.778c-0.307,0.184-0.776,0.285-1.425,0.285
		c-0.649,0-1.392-0.137-2.123-0.403c-0.731-0.266-1.451-0.661-2.053-1.177c-0.227,0.023-0.571,0.309-0.858,0.704
		s-0.518,0.899-0.518,1.361s0.192,1.146,0.968,1.715s2.137,1.023,4.476,1.023c1.877,0,3.445-0.34,4.544-1.091
		c1.099-0.751,1.728-1.912,1.728-3.555c0-1.103-0.442-1.943-1.108-2.578c-0.667-0.635-1.558-1.065-2.458-1.348
		c-0.937-0.295-1.884-0.416-2.596-0.571c-0.712-0.155-1.19-0.344-1.19-0.774c0-0.305,0.109-0.59,0.399-0.8
		c0.289-0.209,0.759-0.342,1.478-0.342s1.47,0.223,2.121,0.52c0.651,0.297,1.202,0.669,1.523,0.966
		c0.063,0.031,0.438-0.184,0.798-0.573c0.36-0.389,0.704-0.952,0.704-1.617s-0.43-1.283-1.289-1.734
		C51.029,12.967,49.743,12.682,48.03,12.682z"/>
	<path fill="#232323" d="M66.292,12.807h-0.555h-0.555c-0.45,0-0.858,0.198-1.154,0.508c-0.296,0.31-0.48,0.732-0.48,1.182v1.783
		v1.783h-2.159H59.23v-1.783v-1.783c0-0.45-0.184-0.872-0.48-1.182c-0.296-0.31-0.705-0.508-1.154-0.508H57.04h-0.555
		c-0.45,0-0.858,0.198-1.154,0.508c-0.296,0.31-0.48,0.732-0.48,1.182v5.297v5.297c0,0.45,0.184,0.858,0.48,1.154
		c0.296,0.296,0.705,0.48,1.154,0.48h0.555h0.555c0.45,0,0.837-0.184,1.113-0.48c0.275-0.296,0.438-0.705,0.438-1.154v-1.794v-1.794
		h2.2h2.2v1.794v1.794c0,0.45,0.184,0.858,0.48,1.154c0.296,0.296,0.705,0.48,1.154,0.48h0.555h0.555c0.45,0,0.858-0.184,1.154-0.48
		c0.296-0.296,0.48-0.705,0.48-1.154v-2.106v-2.106v-1.116v-1.116v-2.075v-2.075c0-0.45-0.184-0.872-0.48-1.182
		C67.15,13.004,66.742,12.807,66.292,12.807z"/>
	<path fill="#232323" d="M75.289,12.598c-1.158,0-2.498,0.271-3.548,0.787s-1.812,1.277-1.812,2.258c0,0.74,0.355,1.283,0.863,1.627
		c0.508,0.344,1.171,0.49,1.786,0.438c0,0,0.089-0.443,0.472-0.886s1.061-0.886,2.239-0.886c0.747,0,1.365,0.207,1.798,0.599
		c0.432,0.393,0.679,0.971,0.684,1.716h-0.667h-0.667c-1.543,0-3.347,0.261-4.766,0.975c-1.418,0.714-2.451,1.882-2.451,3.697
		c0,1.283,0.568,2.284,1.444,2.964c0.876,0.68,2.06,1.04,3.29,1.04c1.126,0,2.023-0.214,2.685-0.566s1.09-0.842,1.277-1.395
		c0.073,0.417,0.334,0.892,0.733,1.262c0.399,0.37,0.936,0.636,1.562,0.636c0.323,0,0.704-0.078,1.017-0.18s0.558-0.227,0.61-0.321
		c0,0,0-1.622,0-3.499s0-4.01,0-5.032c0-1.022-0.261-2.331-1.21-3.384S78.042,12.598,75.289,12.598z M75.185,23.986
		c-0.542,0-0.965-0.156-1.251-0.415c-0.287-0.258-0.438-0.618-0.438-1.025c0-0.407,0.235-0.892,0.777-1.275
		c0.542-0.383,1.392-0.665,2.623-0.665c0.176,0,0.34,0,0.488,0c0.147,0,0.278,0,0.388,0c0,0.141,0,0.282,0,0.427
		c0,0.145,0,0.293,0,0.449c0,0.511-0.177,1.137-0.589,1.635C76.77,23.616,76.123,23.986,75.185,23.986z"/>
	<path fill="#232323" d="M102.277,12.598c-1.158,0-2.498,0.271-3.548,0.787s-1.812,1.277-1.812,2.258
		c0,0.74,0.355,1.283,0.863,1.627c0.508,0.344,1.171,0.49,1.786,0.438c0,0,0.089-0.443,0.472-0.886
		c0.383-0.443,1.061-0.886,2.239-0.886c0.747,0,1.365,0.207,1.798,0.599c0.432,0.393,0.679,0.971,0.684,1.716h-0.667h-0.667
		c-1.543,0-3.347,0.261-4.766,0.975c-1.418,0.714-2.451,1.882-2.451,3.697c0,1.283,0.568,2.284,1.444,2.964
		c0.876,0.68,2.06,1.04,3.29,1.04c1.126,0,2.023-0.214,2.685-0.566c0.662-0.352,1.09-0.842,1.277-1.395
		c0.073,0.417,0.334,0.892,0.733,1.262c0.399,0.37,0.936,0.636,1.562,0.636c0.323,0,0.704-0.078,1.017-0.18s0.558-0.227,0.61-0.321
		c0,0,0-1.622,0-3.499s0-4.01,0-5.032c0-1.022-0.261-2.331-1.21-3.384C106.667,13.396,105.03,12.598,102.277,12.598z
		 M102.173,23.986c-0.542,0-0.965-0.156-1.251-0.415c-0.287-0.258-0.438-0.618-0.438-1.025c0-0.407,0.235-0.892,0.777-1.275
		c0.542-0.383,1.392-0.665,2.623-0.665c0.176,0,0.34,0,0.488,0c0.147,0,0.278,0,0.388,0c0,0.141,0,0.282,0,0.427
		c0,0.145,0,0.293,0,0.449c0,0.511-0.177,1.137-0.589,1.635C103.758,23.616,103.111,23.986,102.173,23.986z"/>
	<path fill="#232323" d="M89.059,23.081h2.409h2.409c0.408,0,0.78,0.175,1.049,0.457s0.436,0.671,0.436,1.099v0.259v0.259
		c0,0.428-0.167,0.817-0.436,1.099s-0.64,0.457-1.049,0.457h-4.413H85.05c-0.408,0-0.866-0.175-1.222-0.457
		c-0.356-0.282-0.609-0.671-0.609-1.099v-0.259v-0.259"/>
	<path fill="#232323" d="M93.876,23.081H91.27h-2.607l2.912-3.184l2.912-3.184c0.19-0.206,0.367-0.458,0.497-0.749
		c0.13-0.291,0.212-0.621,0.212-0.984v-0.247v-0.247c0-0.408-0.254-0.78-0.609-1.049c-0.356-0.269-0.814-0.436-1.222-0.436h-4.248
		h-4.248c-0.408,0-0.78,0.167-1.049,0.436s-0.436,0.64-0.436,1.049v0.247v0.247c0,0.408,0.167,0.78,0.436,1.049
		s0.64,0.436,1.049,0.436h2.409h2.409c0,0-1.274,1.402-2.625,2.893s-2.778,3.071-3.083,3.425s-0.495,0.656-0.608,0.942
		c-0.113,0.287-0.151,0.559-0.151,0.856"/>
	<path fill="#232323" d="M123.196,12.817c0,0-0.159-0.003-0.42-0.005c-0.261-0.003-0.623-0.005-1.03-0.005
		c-0.454,0-0.798,0.102-1.066,0.285s-0.459,0.45-0.608,0.778c-0.135,0.298-0.627,1.507-1.124,2.739
		c-0.497,1.232-1,2.487-1.157,2.878c-0.156-0.391-0.659-1.646-1.157-2.878c-0.497-1.232-0.99-2.441-1.124-2.739
		c-0.149-0.328-0.34-0.594-0.608-0.778c-0.268-0.184-0.612-0.285-1.066-0.285c-0.407,0-0.809,0.003-1.111,0.005
		s-0.501,0.005-0.501,0.005c-0.381,0-0.832,0.086-1.188,0.373s-0.617,0.774-0.617,1.577c0,0.803,0,3.082,0,5.269s0,4.283,0,4.721
		c0,0.438,0.076,0.933,0.308,1.319s0.62,0.662,1.246,0.662c0,0,0.209,0,0.433,0s0.464,0,0.527,0c0.532,0,0.881-0.156,1.098-0.443
		c0.216-0.287,0.3-0.704,0.3-1.225s0-2.027,0-3.402c0-1.375,0-2.62,0-2.62s0.407,0.94,0.836,1.934s0.88,2.044,0.969,2.263
		c0.089,0.219,0.222,0.378,0.472,0.482c0.25,0.104,0.618,0.154,1.176,0.154h0.008h0.008c0.558,0,0.925-0.05,1.176-0.154
		c0.25-0.104,0.383-0.263,0.472-0.482c0.089-0.219,0.499-1.268,0.888-2.263s0.755-1.934,0.755-1.934s0,1.245,0,2.62
		c0,1.375,0,2.881,0,3.402s0.083,0.939,0.3,1.225c0.216,0.287,0.566,0.443,1.098,0.443c0.063,0,0.302,0,0.527,0
		c0.224,0,0.433,0,0.433,0c0.626,0,1.014-0.276,1.246-0.662c0.232-0.386,0.308-0.881,0.308-1.319c0-0.438,0-2.534,0-4.721
		s0-4.466,0-5.269c0-0.803-0.261-1.29-0.617-1.577C124.028,12.903,123.577,12.817,123.196,12.817z"/>
</g>
<rect x="0" y="0" fill="none" width="125" height="40"/>
</svg>
