<?xml version="1.0" encoding="utf-8"?>
<!-- Generator: Adobe Illustrator 16.0.0, SVG Export Plug-In . SVG Version: 6.00 Build 0)  -->
<!DOCTYPE svg PUBLIC "-//W3C//DTD SVG 1.1//EN" "http://www.w3.org/Graphics/SVG/1.1/DTD/svg11.dtd">
<svg version="1.1" id="Layer_2" xmlns="http://www.w3.org/2000/svg" xmlns:xlink="http://www.w3.org/1999/xlink" x="0px" y="0px"
	 width="125px" height="40px" viewBox="0 0 125 40" enable-background="new 0 0 125 40" xml:space="preserve">
<path fill="#0066FF" d="M19.6,22.2c-1.9,0.8-12.2,3.2-14.1-0.8c4.5-0.3,15.4-1.9,15.5-4.8c0.2-3.2-7.1-4.4-13.4-2.7
	s-9.1,6.1-6.7,9.4c2.4,3.3,12.5,4.6,20.7,1.1C22.7,23.3,21.7,21.3,19.6,22.2z M15.9,16.3c0.6,0.9-0.2,1.6-10.6,3.1
	C6.6,16.3,14.5,14.2,15.9,16.3z"/>
<path fill="#0066FF" d="M121,22.2c-1.9,0.8-12.2,3.2-14.1-0.8c4.5-0.3,15.4-1.9,15.5-4.8c0.2-3.2-7.1-4.4-13.4-2.7
	c-6.2,1.7-9.1,6.1-6.7,9.4c2.4,3.3,12.5,4.6,20.7,1.1C124.2,23.3,123.1,21.3,121,22.2z M117.3,16.3c0.6,0.9-0.2,1.6-10.6,3.1
	C108,16.3,115.9,14.2,117.3,16.3z"/>
<path fill="#0066FF" d="M50.2,22.4c-0.4-1.2-0.4-3.2-1.6-6.3c-1.1-3.1-5.5-5.5-9.6-1.2c-0.9-2.3-2.6-2.4-3.3-2.5
	c-1.6-0.3-3.8,0.7-6.3,2.9c0-0.1,0-0.1,0-0.2c0-1.4-0.6-2.8-1.8-2.8c-1.6,0-2.8,1.3-2.8,2.7c0,1.5,0,7.1,0,8.3
	c0,1.3,0.8,2.7,2.3,2.7c1.5,0,2.4-1,2.4-2.5c0-0.8,0-2.9,0-4.8c1-0.9,2.8-2.5,4-2.7c1.4-0.3,2.1,0.6,2.1,2.3c0,1.7,0.3,5.3,0.7,6.8
	c0.6,2.2,3.9,1.2,3.7-0.2c-0.2-1.4-0.7-4.1-0.5-6.3c0-2.2,2.1-3.3,3.8-2.8c1,0.3,2.3,1.2,3,5.8c0.6,3.7,1.5,5.3,3.2,4.9
	C51.1,26.1,50.5,23.6,50.2,22.4z"/>
<path fill="#0066FF" d="M98.8,22.4c-0.4-1.2-0.5-3.2-1.6-6.3c-1.1-3.1-5.5-5.5-9.6-1.2c-0.9-2.3-2.6-2.4-3.3-2.5
	c-1.6-0.3-3.8,0.7-6.3,2.9c0-0.1,0-0.1,0-0.2c0-1.4-0.6-2.8-1.8-2.8c-1.6,0-2.8,1.3-2.8,2.7c0,1.5,0,7.1,0,8.3
	c0,1.3,0.8,2.7,2.3,2.7s2.4-1,2.4-2.5c0-0.8,0-2.9,0-4.8c1-0.9,2.8-2.5,4-2.7c1.4-0.3,2.1,0.6,2.1,2.3c0,1.7,0.3,5.3,0.7,6.8
	c0.6,2.2,3.9,1.2,3.7-0.2c-0.2-1.4-0.7-4.1-0.5-6.3c0-2.2,2.1-3.3,3.8-2.8c1,0.3,2.3,1.2,3,5.8c0.6,3.7,1.5,5.3,3.2,4.9
	C99.7,26.1,99.2,23.6,98.8,22.4z"/>
<g>
	<path fill="#FF830B" d="M61.7,13.4c-4.7,0-8.6,2.9-8.6,6.5c0,3.6,3.8,6.5,8.6,6.5c4.7,0,8.6-2.9,8.6-6.5
		C70.3,16.3,66.5,13.4,61.7,13.4z M61.7,23.5c-2.7,0-4.9-1.6-4.9-3.6s2.2-3.6,4.9-3.6c2.7,0,4.9,1.6,4.9,3.6S64.4,23.5,61.7,23.5z"
		/>
</g>
<g>
	<path fill="#0101FF" d="M54.6,13.8c-0.2,0-0.4-0.1-0.6-0.2l-4.1-2.7c-0.5-0.3-0.7-1.1-0.3-1.6c0.3-0.5,1.1-0.7,1.6-0.3l4.1,2.7
		c0.5,0.3,0.7,1.1,0.3,1.6C55.3,13.6,54.9,13.8,54.6,13.8z"/>
</g>
<g>
	<path fill="#0101FF" d="M52.2,34.4c-0.2,0-0.4-0.1-0.6-0.2c-0.5-0.4-0.7-1.1-0.3-1.6l2.8-4.2c0.4-0.5,1.1-0.7,1.6-0.3
		c0.5,0.4,0.7,1.1,0.3,1.6l-2.8,4.2C52.9,34.2,52.6,34.4,52.2,34.4z"/>
</g>
<g>
	<path fill="#0101FF" d="M62.1,34.6c-0.4,0-0.8-0.2-1-0.6L59,29.9c-0.3-0.6-0.1-1.2,0.5-1.5c0.6-0.3,1.2-0.1,1.5,0.5l2.1,4.1
		c0.3,0.6,0.1,1.2-0.5,1.5C62.4,34.6,62.3,34.6,62.1,34.6z"/>
</g>
<g>
	<path fill="#0101FF" d="M67.6,34.5c-0.4,0-0.8-0.2-1-0.5l-2.5-4.1c-0.3-0.5-0.2-1.2,0.4-1.6c0.5-0.3,1.2-0.2,1.6,0.4l2.5,4.1
		c0.3,0.5,0.2,1.2-0.4,1.6C68,34.5,67.8,34.5,67.6,34.5z"/>
</g>
<g>
	<path fill="#0101FF" d="M74.1,33.5c-0.4,0-0.7-0.2-0.9-0.5l-3.1-4.4c-0.4-0.5-0.2-1.2,0.3-1.6c0.5-0.4,1.2-0.2,1.6,0.3l3.1,4.4
		c0.4,0.5,0.2,1.2-0.3,1.6C74.5,33.4,74.3,33.5,74.1,33.5z"/>
</g>
<g>
	<path fill="#0101FF" d="M68.8,13.5c-0.2,0-0.4,0-0.6-0.1c-0.5-0.3-0.7-1-0.4-1.6l2.4-4.2c0.3-0.5,1-0.7,1.6-0.4
		c0.5,0.3,0.7,1,0.4,1.6L69.8,13C69.6,13.3,69.2,13.5,68.8,13.5z"/>
</g>
<g>
	<path fill="#0101FF" d="M64,12c-0.1,0-0.2,0-0.2,0c-0.6-0.1-1-0.7-0.9-1.3l1-4.9c0.1-0.6,0.7-1,1.3-0.9c0.6,0.1,1,0.7,0.9,1.3
		l-1,4.9C65,11.6,64.6,12,64,12z"/>
</g>
<g>
	<path fill="#0101FF" d="M60.6,10.9c-0.5,0-0.9-0.3-1.1-0.8l-1.4-4c-0.2-0.6,0.1-1.2,0.7-1.4c0.6-0.2,1.2,0.1,1.4,0.7l1.4,4
		c0.2,0.6-0.1,1.2-0.7,1.4C60.9,10.9,60.7,10.9,60.6,10.9z"/>
</g>
</svg>
