<?xml version="1.0" encoding="utf-8"?>
<!-- Generator: Adobe Illustrator 16.0.0, SVG Export Plug-In . SVG Version: 6.00 Build 0)  -->
<!DOCTYPE svg PUBLIC "-//W3C//DTD SVG 1.1//EN" "http://www.w3.org/Graphics/SVG/1.1/DTD/svg11.dtd">
<svg version="1.1" xmlns="http://www.w3.org/2000/svg" xmlns:xlink="http://www.w3.org/1999/xlink" x="0px" y="0px" width="125px"
	 height="40px" viewBox="0 0 125 40" enable-background="new 0 0 125 40" xml:space="preserve">
<g id="Layer_1">
	<g>
		<g id="g3088_1_" transform="matrix(1.7710572,0,0,-1.7710572,-700.90896,889.4348)">
			<g id="g3090_1_" transform="translate(575.334,40.658)">
				<path id="path3092_1_" fill="#E7AD0F" d="M-160.678,451.3c-0.44,0.026-0.787,0.074-1.084,0.184
					c-0.541,0.2-1.419,0.76-1.408,1.843v0.134c-0.011,1.075,0.867,1.635,1.408,1.836c0.297,0.11,0.645,0.159,1.084,0.184
					c1.629,0.095,2.32-0.446,2.611-0.915l0.588,3.716l-19.076,3.021l-0.928-5.856h0.412c-0.01,0.165-0.024,0.889,0.51,1.349
					c0,0,0.586,0.577,2.286,0.441c0,0,1.735-0.144,1.735-1.404h-1.208c0,0-0.044,0.701-1.124,0.669c0,0-1.103,0.022-1.008-1.055
					h3.34v-0.552c0.098,0.151,0.352,0.401,0.995,0.575c0,0,2.743,0.604,3.019-1.351v-2.751l-1.207-0.001v2.283
					c-0.18,1.23-1.548,1.005-1.548,1.005c-0.935-0.08-1.195-0.612-1.259-1.002v-2.285h-1.207v3.254h-2.115v-3.254l-1.207,0.001
					v3.253h-0.545l-1.963-12.393l19.077-3.022l1.986,12.541C-158.925,451.456-159.594,451.238-160.678,451.3"/>
			</g>
		</g>
		<g id="g3094_1_" transform="matrix(1.7710572,0,0,-1.7710572,-700.90896,889.4348)">
			<g id="g3096_1_" transform="translate(575.856,46.371)">
				<path id="path3098_1_" fill="#E7AD0F" d="M-160.891,448.968c0,0-1.492,0.092-1.544-1.268l0-0.042
					c0.051-1.363,1.544-1.271,1.544-1.271c0.674-0.004,1.039,0.213,1.227,0.599h0.779l0.219,1.382h-0.998
					C-159.852,448.755-160.217,448.972-160.891,448.968"/>
			</g>
		</g>
		<g id="g3100_1_" transform="matrix(1.7710572,0,0,-1.7710572,-700.90896,889.4348)">
			<g id="g3102_1_" transform="translate(570.807,44.918)">
				<path id="path3104_1_" fill="#FFFFFF" d="M-158.829,449.561l0.03-2.453l-1.198-0.001l-0.04,0.46v0.018
					c-0.474-0.594-1.631-0.558-1.631-0.558c-2.167-0.04-2.135,1.152-2.135,1.152c-0.168,1.239,1.409,1.218,2.735,1.296
					c1.318,0.077,1.008,0.592,1.008,0.592c-0.056,0.432-1.008,0.474-1.008,0.474c-1.319,0.104-1.33-0.707-1.33-0.707h-1.235
					c0,0,0.004,1.041,1.307,1.34c0.012,0.004,0.777,0.228,2.107,0.006C-160.22,451.18-158.726,450.979-158.829,449.561z
					 M-160.049,449.017c-0.002,0.02-0.01,0-0.01,0c-0.132-0.18-0.793-0.182-0.793-0.182c-0.659-0.045-1.643-0.014-1.627-0.595
					c0.016-0.615,0.819-0.546,1.194-0.532c0.423,0.018,0.787,0.131,1.089,0.5C-159.932,448.529-160.047,448.998-160.049,449.017"/>
			</g>
		</g>
	</g>
</g>
<g id="Layer_2">
</g>
<g id="template" display="none">
</g>
</svg>
