<?xml version="1.0" encoding="utf-8"?>
<!-- Generator: Adobe Illustrator 25.4.0, SVG Export Plug-In . SVG Version: 6.00 Build 0)  -->
<svg version="1.1" id="logos" xmlns="http://www.w3.org/2000/svg" xmlns:xlink="http://www.w3.org/1999/xlink" x="0px" y="0px"
	 viewBox="0 0 125 40" enable-background="new 0 0 125 40" xml:space="preserve">
<g>
	<rect x="0" y="0" fill="none" width="125" height="40"/>
	<g>
		<g>
			<path d="M15.821,7.023C8.666,7.023,2.845,12.845,2.845,20c0,7.155,5.821,12.977,12.977,12.977c1.459,0,2.89-0.243,4.245-0.711
				v-2.039c-1.336,0.555-2.774,0.844-4.245,0.844c-6.104,0-11.07-4.966-11.07-11.07c0-6.104,4.966-11.07,11.07-11.07
				s11.07,4.966,11.07,11.07v13.555l1.906,0.364V20C28.798,12.845,22.977,7.023,15.821,7.023z"/>
			<path d="M15.821,9.913C10.259,9.913,5.734,14.438,5.734,20s4.525,10.087,10.087,10.087c1.495,0,2.937-0.323,4.245-0.929v-2.162
				c-1.26,0.767-2.717,1.185-4.245,1.185c-4.511,0-8.181-3.67-8.181-8.181s3.67-8.181,8.181-8.181s8.181,3.67,8.181,8.181v13.003
				l1.906,0.364V20C25.909,14.438,21.384,9.913,15.821,9.913z"/>
			<path d="M15.821,4.179C7.097,4.179,0,11.276,0,20s7.097,15.821,15.821,15.821c2.705,0,5.316-0.677,7.647-1.968l-3.332-0.62
				c-1.38,0.449-2.831,0.683-4.315,0.683C8.149,33.915,1.906,27.673,1.906,20S8.149,6.085,15.821,6.085S29.737,12.327,29.737,20
				v14.098l1.906,0.364V20C31.643,11.276,24.545,4.179,15.821,4.179z"/>
			<path d="M23.02,32.815V20c0-3.969-3.229-7.198-7.198-7.198S8.623,16.031,8.623,20c0,3.969,3.229,7.198,7.198,7.198
				c1.555,0,3.034-0.5,4.245-1.384v-2.655c-0.991,1.331-2.556,2.133-4.245,2.133c-2.918,0-5.292-2.374-5.292-5.292
				c0-2.918,2.374-5.292,5.292-5.292s5.292,2.374,5.292,5.292v12.451L23.02,32.815z"/>
		</g>
		<g>
			<g>
				<path d="M43.132,13.686c-3.45,0-6.247,2.797-6.247,6.247s2.797,6.247,6.247,6.247c0.557,0,1.096-0.074,1.61-0.21v-3.964
					c-0.445,0.346-1.003,0.554-1.61,0.554c-1.451,0-2.627-1.176-2.627-2.627s1.176-2.627,2.627-2.627
					c1.451,0,2.627,1.176,2.627,2.627v6.119h3.62v-6.119C49.379,16.482,46.582,13.686,43.132,13.686z"/>
				<path d="M94.326,13.686c-3.45,0-6.247,2.797-6.247,6.247s2.797,6.247,6.247,6.247c0.557,0,1.096-0.074,1.61-0.21v-3.964
					c-0.445,0.346-1.003,0.554-1.61,0.554c-1.451,0-2.627-1.176-2.627-2.627s1.176-2.627,2.627-2.627s2.627,1.176,2.627,2.627v6.119
					h3.62v-6.119C100.573,16.482,97.776,13.686,94.326,13.686z"/>
				<path d="M56.131,13.686L56.131,13.686c-2.906,0-5.262,2.356-5.262,5.262v7.112h3.556v-7.004c0-0.936,0.758-1.694,1.694-1.694
					c0.936,0,1.694,0.758,1.694,1.694v7.004h3.58v-7.112C61.392,16.041,59.037,13.686,56.131,13.686z"/>
				<path d="M114.3,13.686L114.3,13.686c-1.334,0-2.55,0.497-3.478,1.315c-0.927-0.818-2.144-1.315-3.478-1.315h0
					c-2.906,0-5.262,2.356-5.262,5.262v7.112h3.556v-7.004c0-0.936,0.758-1.694,1.694-1.694s1.694,0.758,1.694,1.694v7.004h0.012
					h3.556h0.012v-7.112c0-0.025-0.002-0.05-0.002-0.076c0.092-0.849,0.81-1.51,1.684-1.51c0.936,0,1.694,0.758,1.694,1.694v7.004
					h3.58v-7.112C119.562,16.041,117.206,13.686,114.3,13.686z"/>
				<path d="M68.761,13.686c-3.45,0-6.247,2.797-6.247,6.247s2.797,6.247,6.247,6.247c0.939,0,1.828-0.208,2.627-0.579v0.019
					c0,1.442-1.169,2.611-2.611,2.611h-0.016v3.652h0c3.45,0,6.247-2.797,6.247-6.247v-5.702
					C75.008,16.482,72.211,13.686,68.761,13.686z M68.761,22.56c-1.451,0-2.627-1.176-2.627-2.627s1.176-2.627,2.627-2.627
					c1.451,0,2.627,1.176,2.627,2.627S70.212,22.56,68.761,22.56z"/>
				<path d="M81.543,13.686L81.543,13.686c-0.606,0-1.188,0.104-1.73,0.292V10.29h-3.532v8.658v7.112h3.532h0.024v-7.004
					c0-0.936,0.758-1.694,1.694-1.694c0.936,0,1.694,0.758,1.694,1.694v7.004h3.58v-7.112
					C86.805,16.041,84.449,13.686,81.543,13.686z"/>
				<rect x="121.001" y="14.312" width="3.607" height="11.748"/>
				<circle cx="122.83" cy="11.253" r="2.17"/>
			</g>
		</g>
	</g>
</g>
</svg>
