<?xml version="1.0" encoding="utf-8"?>
<!-- Generator: Adobe Illustrator 19.2.0, SVG Export Plug-In . SVG Version: 6.00 Build 0)  -->
<svg version="1.1" xmlns="http://www.w3.org/2000/svg" xmlns:xlink="http://www.w3.org/1999/xlink" x="0px" y="0px"
	 viewBox="0 0 125 40" enable-background="new 0 0 125 40" xml:space="preserve">
<g id="bg" display="none">
	<rect display="inline" fill="#FFFFFF" width="125" height="40"/>
</g>
<g id="icons">
	<g>
		<g>
			<g>
				<g>
					<path fill-rule="evenodd" clip-rule="evenodd" fill="#3D3D3D" d="M0,40C0,26.666,0,13.334,0,0c26.574,0,53.147,0,79.721,0
						c0,13.334,0,26.666,0,40C53.147,40,26.574,40,0,40z"/>
				</g>
			</g>
			<g>
				<g>
					<path fill-rule="evenodd" clip-rule="evenodd" fill="#B3FFBE" d="M5.087,27.756c0-6.609,0-13.103,0-19.575
						c0.341-0.225,0.668-0.142,0.976-0.143c3.291-0.007,6.58,0.003,9.871-0.009c0.826-0.004,1.62,0.131,2.39,0.408
						c1.6,0.574,2.759,1.575,3.079,3.328c0.346,1.888-0.11,3.503-1.695,4.704c-0.14,0.105-0.272,0.221-0.405,0.337
						c-0.021,0.017-0.021,0.058-0.031,0.088c2.711,1.687,3.539,3.593,2.865,6.486c-0.439,1.887-1.602,3.108-3.368,3.793
						c-1.064,0.412-2.183,0.629-3.318,0.638c-3.256,0.028-6.51,0.012-9.765,0.009C5.516,27.818,5.345,27.785,5.087,27.756z
						 M10.344,23.523c1.665,0,3.249,0.08,4.82-0.026c1.214-0.082,1.877-0.904,1.914-2.026c0.038-1.159-0.599-2.01-1.839-2.218
						c-1.601-0.267-3.217-0.09-4.896-0.104C10.344,20.64,10.344,22.005,10.344,23.523z M10.369,15.705
						c1.488-0.019,2.932,0.124,4.365-0.079c0.918-0.13,1.478-0.806,1.513-1.67c0.032-0.81-0.253-1.544-1.081-1.752
						c-1.585-0.394-3.197-0.233-4.847-0.113C10.27,13.34,10.21,14.458,10.369,15.705z"/>
					<path fill-rule="evenodd" clip-rule="evenodd" fill="#B3FFBE" d="M64.302,33.525c-1.567,0-3.041,0-4.6,0
						c0-6.598,0-13.159,0-19.8c1.476,0,2.943,0,4.372,0c0.364,0.324,0.065,0.795,0.38,1.165c1.231-1.227,2.684-1.748,4.422-1.586
						c2.305,0.214,3.912,1.398,4.866,3.429c1.039,2.211,1.232,4.526,0.667,6.934c-1.199,5.123-6.619,6.325-9.889,3.289
						C64.276,29.17,64.594,31.308,64.302,33.525z M64.305,20.694c0.006,1.003,0.074,1.737,0.323,2.449
						c0.366,1.04,1.069,1.63,2.186,1.714c1.106,0.083,1.954-0.346,2.437-1.334c0.802-1.641,0.863-3.339,0.139-5.025
						c-0.392-0.913-1.119-1.451-2.134-1.503c-1.048-0.054-1.836,0.413-2.384,1.298C64.368,19.111,64.32,20.029,64.305,20.694z"/>
					<path fill-rule="evenodd" clip-rule="evenodd" fill="#B3FFBE" d="M43.16,21.647c-3.473,0-6.893,0-10.314,0
						c0.034,1.508,0.661,2.481,1.808,2.901c1.342,0.491,2.657,0.182,3.567-0.861c0.236-0.27,0.42-0.542,0.846-0.536
						c1.268,0.02,2.538,0.007,3.809,0.007c-0.106,2.702-3.386,5.238-7.923,4.878c-4.7-0.373-7.463-3.77-6.984-8.678
						c0.407-4.158,4.471-7.178,8.862-6.586C41.106,13.349,43.882,17.154,43.16,21.647z M32.852,18.789c1.879,0,3.688,0,5.498,0
						c-0.09-1.611-1.106-2.693-2.54-2.774C34.327,15.93,33.109,17.043,32.852,18.789z"/>
					<path fill-rule="evenodd" clip-rule="evenodd" fill="#B3FFBE" d="M59.083,21.65c-3.509,0-6.959,0-10.414,0
						c0.097,1.616,0.757,2.556,1.985,2.94c1.515,0.474,2.681,0.059,3.804-1.375c1.415,0,2.85,0,4.289,0
						c-0.263,3.105-3.958,5.261-8.206,4.791c-4.876-0.541-7.109-4.005-6.739-8.39c0.375-4.437,4.341-7.397,8.841-6.86
						C57.109,13.288,59.443,17.076,59.083,21.65z M48.669,18.769c1.899,0,3.743,0,5.6,0c-0.3-1.745-1.273-2.725-2.663-2.761
						C50.155,15.973,49.078,16.96,48.669,18.769z"/>
					<path fill-rule="evenodd" clip-rule="evenodd" fill="#B3FFBE" d="M22.774,8.082c1.579,0,3.09,0,4.682,0
						c0,6.568,0,13.089,0,19.677c-1.57,0-3.078,0-4.682,0C22.774,21.231,22.774,14.71,22.774,8.082z"/>
				</g>
			</g>
		</g>
	</g>
</g>
</svg>
