<?xml version="1.0" encoding="utf-8"?>
<!-- Generator: Adobe Illustrator 20.1.0, SVG Export Plug-In . SVG Version: 6.00 Build 0)  -->
<svg version="1.1" id="logos" xmlns="http://www.w3.org/2000/svg" xmlns:xlink="http://www.w3.org/1999/xlink" x="0px" y="0px"
	 viewBox="0 0 125 40" enable-background="new 0 0 125 40" xml:space="preserve">
<g>
	<g>
		<g>
			<rect x="30.424" y="4.701" width="4.868" height="30.076"/>
		</g>
		<g>
			<path d="M110.396,35.299c-8.053,0-14.604-6.863-14.604-15.299s6.551-15.299,14.604-15.299S125,11.564,125,20
				S118.449,35.299,110.396,35.299z M110.396,9.569c-5.368,0-9.736,4.679-9.736,10.431s4.368,10.431,9.736,10.431
				s9.736-4.679,9.736-10.431S115.764,9.569,110.396,9.569z"/>
		</g>
		<g>
			<path d="M79.624,35.299c-8.053,0-14.604-6.863-14.604-15.299S71.572,4.701,79.624,4.701c5.681,0,10.889,3.493,13.268,8.9
				l-4.455,1.961c-1.603-3.641-5.062-5.993-8.814-5.993c-5.368,0-9.736,4.679-9.736,10.431s4.368,10.431,9.736,10.431
				c3.902,0,7.416-2.484,8.953-6.328l4.52,1.809C90.816,31.614,85.529,35.299,79.624,35.299z"/>
		</g>
		<g>
			<path d="M9.649,34.43H0V4.701h9.649c8.196,0,14.864,6.668,14.864,14.864C24.513,27.762,17.845,34.43,9.649,34.43z M4.868,29.562
				h4.781c5.512,0,9.997-4.485,9.997-9.997c0-5.512-4.484-9.997-9.997-9.997H4.868V29.562z"/>
		</g>
		<g>
			<path d="M51.1,35.299c-6.253,0-10.545-4.338-11.408-8.421l4.762-1.008c0.401,1.893,2.728,4.561,6.646,4.561
				c3.877,0,5.518-2.363,5.518-3.303c0-2.399-1.224-3.091-5.743-4.39c-3.839-1.102-9.098-2.612-10.075-8.605
				c-0.342-2.097,0.335-4.386,1.813-6.124c1.283-1.51,3.729-3.309,8.094-3.309c7.823,0,10.498,6.534,10.608,6.812l-4.517,1.814
				c-0.162-0.385-1.707-3.758-6.091-3.758c-1.983,0-3.499,0.551-4.386,1.594c-0.664,0.781-0.806,1.642-0.717,2.187
				c0.435,2.67,2.35,3.486,6.615,4.71c3.911,1.124,9.266,2.661,9.266,9.068C61.485,31.074,57.312,35.299,51.1,35.299z"/>
		</g>
	</g>
	<rect x="0" y="0" fill="none" width="125" height="40"/>
</g>
</svg>
