<?xml version="1.0" encoding="utf-8"?>
<!-- Generator: Adobe Illustrator 21.0.0, SVG Export Plug-In . SVG Version: 6.00 Build 0)  -->
<svg version="1.1" xmlns="http://www.w3.org/2000/svg" xmlns:xlink="http://www.w3.org/1999/xlink" x="0px" y="0px"
	 viewBox="0 0 125 40" enable-background="new 0 0 125 40" xml:space="preserve">
<g id="bg" display="none">
	<rect display="inline" fill="#FFFFFF" width="125" height="40"/>
</g>
<g id="icons">
	<g id="_x33_1SIRE_1_">
		<g>
			<path fill="#5C5C5C" d="M66.895,27.372c-0.798,0-1.543,0-2.33,0c0-0.151,0-0.288,0-0.426c-0.002-3.448-0.04-6.897,0.009-10.344
				c0.024-1.698-1.194-2.159-2.413-1.947c-1.041,0.18-1.847,0.797-2.661,1.417c-0.401,0.306-0.538,0.641-0.534,1.148
				c0.026,3.249,0.013,6.499,0.013,9.748c0,0.126,0,0.252,0,0.398c-0.742,0-1.448,0-2.196,0c0-0.146,0-0.284,0-0.421
				c-0.002-3.658-0.006-7.317-0.003-10.975c0.001-1-0.084-1.983-0.535-2.935c0.759-0.178,1.472-0.345,2.251-0.527
				c0.121,0.339,0.262,0.667,0.353,1.008c0.09,0.334,0.129,0.681,0.196,1.056c0.07-0.053,0.136-0.09,0.187-0.143
				c0.682-0.695,1.506-1.184,2.378-1.587c1.967-0.911,4.093-0.087,4.96,1.9c0.013,0.03,0.036,0.056,0.076,0.115
				c0.14-0.133,0.27-0.259,0.403-0.382c0.959-0.882,2.023-1.59,3.31-1.889c2.354-0.547,4.367,0.939,4.554,3.347
				c0.021,0.268,0.032,0.537,0.032,0.805c0.002,3.401,0.001,6.803,0.001,10.204c0,0.138,0,0.276,0,0.428c-0.793,0-1.549,0-2.35,0
				c0-0.149,0-0.285,0-0.421c0-3.378,0.004-6.756-0.006-10.134c-0.001-0.37-0.041-0.75-0.135-1.107
				c-0.182-0.695-0.67-1.075-1.38-1.161c-0.805-0.098-1.544,0.121-2.186,0.582c-0.643,0.462-1.242,0.988-1.839,1.51
				c-0.107,0.093-0.151,0.307-0.151,0.465c-0.008,3.273-0.006,6.546-0.006,9.818C66.895,27.062,66.895,27.201,66.895,27.372z"/>
			<path fill="#F03143" d="M43.973,20.481c0.002,1.348-0.014,2.638,0.802,3.747c0.695,0.944,1.67,1.404,2.806,1.532
				c1.519,0.171,2.9-0.176,4.082-1.185c0.043-0.036,0.092-0.065,0.162-0.113c0.285,0.471,0.562,0.929,0.84,1.388
				c-0.016,0.037-0.022,0.075-0.044,0.096c-2.011,1.93-5.793,2.349-8.173,0.906c-1.143-0.693-1.942-1.687-2.408-2.92
				c-0.906-2.396-1.037-4.86-0.204-7.277c0.728-2.112,2.168-3.626,4.455-4.095c2.637-0.541,5.196,0.729,6.123,3.058
				c0.276,0.694,0.4,1.462,0.495,2.209c0.11,0.865,0.112,1.744,0.163,2.654C50.019,20.481,47.023,20.481,43.973,20.481z
				 M43.974,18.75c2.232,0,4.412,0,6.661,0c-0.071-0.665-0.101-1.307-0.213-1.933c-0.248-1.386-1.082-2.231-2.379-2.478
				c-1.388-0.265-2.581,0.183-3.258,1.244C44.175,16.54,44.022,17.618,43.974,18.75z"/>
			<path fill="#5B5B5B" d="M89.532,27.989c-0.776-0.604-1.353-1.301-1.579-2.287c-0.203,0.221-0.374,0.421-0.559,0.607
				c-1.529,1.535-4.157,2.031-6.148,1.166c-1.261-0.548-1.888-1.549-2.044-2.876c-0.048-0.405-0.063-0.816-0.064-1.224
				c-0.005-3.354-0.001-6.708-0.007-10.062c0-0.245,0.035-0.37,0.32-0.412c0.633-0.093,1.259-0.237,1.939-0.37
				c0,0.155,0,0.279,0,0.403c0.003,3.436,0.007,6.872,0.01,10.308c0,0.082,0.007,0.164,0.005,0.245
				c-0.025,1.494,0.707,2.196,2.417,2.413c0.759,0.096,1.468-0.143,2.088-0.568c0.41-0.281,0.787-0.624,1.132-0.983
				c0.507-0.528,0.747-1.135,0.734-1.919c-0.049-2.991-0.02-5.983-0.02-8.975c0-0.139,0-0.278,0-0.448
				c0.738-0.126,1.459-0.248,2.236-0.381c0,0.171,0,0.305,0,0.439c0.002,3.576,0.003,7.152,0.009,10.728
				c0.001,0.657,0.042,1.315,0.384,1.901c0.157,0.269,0.36,0.511,0.562,0.792C90.499,26.963,90.028,27.463,89.532,27.989z"/>
			<path fill="#5B5B5B" d="M93.456,26.367c0.312-0.607,0.588-1.146,0.882-1.719c0.153,0.085,0.291,0.162,0.43,0.238
				c1.269,0.701,2.619,1.108,4.077,1.121c0.738,0.007,1.447-0.107,2.067-0.54c0.774-0.54,1.055-1.311,0.984-2.226
				c-0.068-0.883-0.537-1.516-1.354-1.791c-0.848-0.285-1.733-0.463-2.608-0.665c-0.869-0.201-1.726-0.422-2.44-0.997
				c-2.168-1.744-1.906-5.154,0.515-6.663c1.395-0.87,2.929-1.01,4.496-0.723c0.865,0.159,1.701,0.482,2.545,0.746
				c0.196,0.061,0.372,0.182,0.579,0.286c-0.289,0.577-0.563,1.125-0.828,1.655c-0.741-0.274-1.439-0.571-2.161-0.79
				c-0.872-0.264-1.767-0.336-2.655-0.036c-1.176,0.398-1.801,1.496-1.545,2.713c0.151,0.719,0.595,1.194,1.289,1.387
				c0.752,0.209,1.529,0.332,2.281,0.54c0.751,0.207,1.522,0.396,2.219,0.729c1.607,0.766,2.212,2.19,2.034,3.875
				c-0.216,2.048-1.384,3.37-3.319,3.954C98.309,28.259,95.859,27.578,93.456,26.367z"/>
			<path fill="#5B5B5B" d="M124.613,14.057c-0.427,0.539-0.824,1.042-1.227,1.551c-0.332-0.232-0.641-0.456-0.958-0.667
				c-1.292-0.861-3.813-0.717-4.733,1.486c-0.379,0.908-0.521,1.864-0.588,2.833c-0.087,1.248-0.131,2.5,0.165,3.731
				c0.309,1.282,0.916,2.35,2.269,2.747c1.419,0.416,2.673,0.038,3.758-0.945c0.154-0.14,0.312-0.276,0.487-0.43
				c0.387,0.448,0.789,0.915,1.214,1.408c-0.795,0.83-1.694,1.469-2.816,1.743c-1.265,0.309-2.529,0.27-3.767-0.137
				c-1.634-0.537-2.61-1.745-3.245-3.274c-0.673-1.619-0.725-3.318-0.589-5.032c0.109-1.369,0.462-2.667,1.235-3.825
				c1.511-2.262,3.862-3.225,6.329-2.589C123.085,12.898,123.867,13.412,124.613,14.057z"/>
			<path fill="#F03042" d="M17.995,16.642c1.863-0.006,3.372,1.482,3.391,3.344c0.019,1.861-1.506,3.397-3.375,3.4
				c-1.874,0.003-3.393-1.515-3.389-3.384C14.626,18.142,16.126,16.648,17.995,16.642z"/>
			<path fill="#5B5B5B" d="M110.745,27.367c-0.797,0-1.564,0-2.378,0c0-0.151,0-0.287,0-0.422c0-4.535,0.003-9.069-0.007-13.604
				c-0.001-0.323,0.05-0.472,0.418-0.505c0.649-0.059,1.291-0.191,1.967-0.298C110.745,17.492,110.745,22.414,110.745,27.367z"/>
			<path fill="#5B5B5B" d="M28.624,26.984c1.696,0.217,2.943,1.441,3.083,3.028c0.144,1.617-0.815,3.07-2.35,3.563
				c-2.072,0.665-4.326-0.863-4.367-2.961C27.177,30.618,28.612,29.185,28.624,26.984z"/>
			<path fill="#5B5B5B" d="M24.976,9.428c0.098-1.81,1.65-3.167,3.421-3.14c1.71,0.027,3.134,1.338,3.308,3.023
				c0.176,1.706-0.923,3.255-2.595,3.649c-0.157,0.037-0.322,0.043-0.484,0.063c0.052-2.197-1.69-3.756-3.627-3.613l-0.019-0.001
				L24.976,9.428z"/>
			<path fill="#5A5A5A" d="M11.004,30.602c-0.069,1.648-1.393,2.976-3.114,3.126c-1.617,0.141-3.171-1.016-3.531-2.63
				c-0.447-2.004,0.882-3.827,3.004-4.117c0.025,0.219,0.048,0.438,0.077,0.656C7.684,29.471,9.165,30.702,11.004,30.602z"/>
			<path fill="#5A5A5A" d="M7.377,13.023c-1.687-0.12-3.045-1.518-3.095-3.187C4.229,8.054,5.446,6.57,7.154,6.335
				c1.717-0.237,3.3,0.772,3.745,2.397c0.061,0.221,0.071,0.456,0.105,0.684c-0.312,0.019-0.633-0.004-0.934,0.065
				C8.397,9.866,7.396,11.196,7.377,13.023z"/>
			<path fill="#5B5B5B" d="M30.373,22.607c-1.448,1.126-3.066,0.915-4.133,0.156c-1.506-1.072-1.877-3.163-0.829-4.666
				c1.07-1.536,3.17-1.919,4.718-0.861c0.087,0.059,0.169,0.123,0.254,0.185c0,0.024,0,0.047,0,0.071
				c-1.525,1.165-1.527,3.776-0.004,5.05C30.378,22.563,30.376,22.585,30.373,22.607z"/>
			<path fill="#5B5B5B" d="M20.559,7.607c1.165,1.388,1.077,3.381-0.204,4.629c-1.271,1.239-3.271,1.278-4.607,0.09
				c-1.334-1.186-1.493-3.187-0.37-4.649c0.069,0.035,0.153,0.057,0.206,0.109c0.834,0.814,1.83,1.13,2.974,0.947
				c0.779-0.125,1.468-0.431,1.938-1.108C20.516,7.619,20.538,7.614,20.559,7.607z"/>
			<path fill="#E1E1E1" d="M7.442,26.951c0.039-1.604,1.529-3.045,3.13-3.088c0.986-0.027,1.862,0.226,2.556,0.912
				c0.781,0.773,1.145,1.724,1.009,2.849c-0.132,1.084-0.675,1.889-1.579,2.468c-0.46,0.294-0.952,0.49-1.513,0.45
				c-0.015-0.645-0.084-1.277-0.43-1.845C9.89,27.512,8.818,26.955,7.442,26.951z"/>
			<path fill="#E1E1E1" d="M11.042,9.418c1.489,0.2,2.516,0.989,2.991,2.423c0.575,1.735-0.552,3.709-2.316,4.198
				c-1.728,0.479-3.478-0.435-4.068-2.019c-0.112-0.3-0.138-0.631-0.204-0.948c1.235-0.033,2.27-0.464,3.006-1.5
				C10.913,10.925,11.038,10.189,11.042,9.418z"/>
			<path fill="#5B5B5B" d="M15.449,32.415c-1.177-1.36-1.078-3.419,0.223-4.655c1.318-1.252,3.381-1.243,4.684,0.021
				c1.275,1.236,1.373,3.303,0.218,4.596c-0.819-0.817-1.781-1.272-2.959-1.127c-0.845,0.104-1.59,0.421-2.109,1.14
				C15.484,32.394,15.465,32.402,15.449,32.415z"/>
			<path fill="#E1E1E1" d="M20.559,7.607c-0.021,0.006-0.042,0.012-0.064,0.017c-0.646-0.956-1.946-1.305-3.157-1.109
				c-0.744,0.12-1.331,0.537-1.882,1.017c-0.471-0.384-0.689-0.927-0.76-1.487c-0.113-0.888-0.049-1.763,0.507-2.544
				c0.686-0.964,1.624-1.488,2.777-1.493C19.715,2,21.198,3.289,21.345,5.089C21.424,6.053,21.149,6.871,20.559,7.607z"/>
			<path fill="#E1E1E1" d="M28.557,13.072c-0.086,1.369-1.037,2.631-2.552,3.01c-1.813,0.455-3.674-0.71-4.093-2.565
				c-0.449-1.985,1.024-3.951,3.063-4.09c0,0,0.005-0.018,0.005-0.018S25,9.41,24.999,9.41c-0.066,0.542,0.002,1.064,0.227,1.565
				C25.872,12.413,27.038,13.023,28.557,13.072z"/>
			<path fill="#5B5B5B" d="M5.604,17.488c0.484-0.528,1.12-0.751,1.8-0.826c1.551-0.171,2.981,0.688,3.536,2.084
				c0.566,1.423,0.119,3.031-1.099,3.952c-1.234,0.933-2.85,0.92-4.126-0.033c-0.028-0.021-0.058-0.038-0.087-0.057
				c-0.004-0.022-0.006-0.045-0.006-0.068c0.965-0.852,1.31-1.938,1.091-3.176C6.582,18.624,6.256,17.946,5.604,17.488z"/>
			<path fill="#E1E1E1" d="M24.954,30.543c-1.424,0.027-2.768-1.185-3.052-2.645c-0.368-1.887,0.83-3.69,2.728-4.001
				c2.173-0.356,3.819,1.223,3.931,3.055c-0.058,0.003-0.116,0.008-0.174,0.01c-1.282,0.039-2.272,0.585-2.962,1.678
				C25.054,29.226,24.971,29.874,24.954,30.543z"/>
			<path fill="#E1E1E1" d="M30.382,17.491c0-0.024,0-0.047,0-0.071c0.335-0.18,0.659-0.388,1.007-0.536
				c1.394-0.592,3.101-0.072,3.975,1.167c1.484,2.103,0.234,4.96-2.371,5.319c-0.798,0.11-1.549-0.104-2.228-0.547
				c-0.125-0.081-0.261-0.145-0.392-0.217c0.003-0.022,0.005-0.044,0.005-0.066C31.962,21.338,31.964,18.682,30.382,17.491z"/>
			<path fill="#E1E1E1" d="M5.621,22.541c0,0.023,0.002,0.045,0.006,0.068c-0.222,0.123-0.443,0.25-0.668,0.368
				c-1.222,0.643-2.419,0.555-3.528-0.228c-1.064-0.752-1.552-1.837-1.406-3.128c0.19-1.679,1.552-2.913,3.256-2.976
				c0.728-0.027,1.381,0.171,1.979,0.566c0.095,0.063,0.149,0.189,0.222,0.286c-0.113,0.147-0.226,0.294-0.34,0.441
				C4.028,19.382,4.245,21.475,5.621,22.541z"/>
			<path fill="#E1E1E1" d="M15.449,32.415c0.017-0.013,0.035-0.021,0.056-0.024c0.042,0.068,0.074,0.145,0.128,0.201
				c0.844,0.876,1.89,1.097,3.048,0.913c0.756-0.12,1.344-0.556,1.885-1.067c0.547,0.606,0.818,1.344,0.817,2.135
				c-0.001,1.854-1.448,3.321-3.193,3.415c-1.817,0.098-3.206-1.249-3.469-2.596C14.509,34.304,14.701,33.284,15.449,32.415z"/>
			<path fill="#A7A7A7" d="M7.442,26.951c1.376,0.004,2.448,0.561,3.172,1.748c0.346,0.568,0.415,1.2,0.43,1.845
				c-0.014,0.02-0.027,0.039-0.041,0.059c-1.839,0.1-3.32-1.131-3.564-2.965c-0.029-0.218-0.051-0.438-0.077-0.656
				C7.389,26.97,7.416,26.961,7.442,26.951z"/>
			<path fill="#A7A7A7" d="M24.954,30.543c0.017-0.669,0.1-1.317,0.471-1.904c0.69-1.093,1.68-1.638,2.962-1.678
				c0.058-0.002,0.116-0.007,0.174-0.01c0.021,0.011,0.042,0.021,0.063,0.032c-0.012,2.201-1.447,3.634-3.634,3.63
				C24.978,30.59,24.966,30.567,24.954,30.543z"/>
			<path fill="#A7A7A7" d="M28.557,13.072c-1.519-0.049-2.685-0.66-3.331-2.097c-0.225-0.5-0.293-1.023-0.227-1.565
				c1.937-0.143,3.679,1.416,3.627,3.613C28.603,13.04,28.58,13.056,28.557,13.072z"/>
			<path fill="#A7A7A7" d="M20.566,32.438c-0.541,0.511-1.129,0.947-1.885,1.067c-1.158,0.184-2.204-0.037-3.048-0.913
				c-0.054-0.056-0.086-0.134-0.128-0.201c0.52-0.72,1.264-1.036,2.109-1.141c1.179-0.145,2.141,0.31,2.959,1.127
				C20.576,32.398,20.573,32.418,20.566,32.438z"/>
			<path fill="#A7A7A7" d="M5.621,22.541c-1.376-1.066-1.594-3.159-0.479-4.603c0.113-0.147,0.226-0.294,0.34-0.441
				c0.041-0.003,0.081-0.006,0.122-0.009c0.653,0.458,0.978,1.136,1.109,1.877C6.931,20.603,6.586,21.689,5.621,22.541z"/>
			<path fill="#A8A8A8" d="M11.042,9.418c-0.004,0.771-0.129,1.506-0.59,2.155c-0.737,1.036-1.771,1.468-3.006,1.5
				c-0.023-0.017-0.046-0.033-0.069-0.05c0.019-1.828,1.02-3.158,2.693-3.542c0.3-0.069,0.622-0.046,0.934-0.065
				C11.017,9.404,11.03,9.405,11.042,9.418z"/>
			<path fill="#A7A7A7" d="M15.456,7.532c0.552-0.479,1.138-0.896,1.882-1.017c1.211-0.196,2.511,0.154,3.157,1.109
				c-0.47,0.677-1.159,0.983-1.938,1.108c-1.145,0.184-2.14-0.133-2.974-0.947c-0.053-0.052-0.136-0.073-0.206-0.109
				C15.404,7.629,15.43,7.58,15.456,7.532z"/>
			<path fill="#A7A7A7" d="M30.382,17.491c1.583,1.191,1.58,3.847-0.004,5.05C28.855,21.267,28.857,18.656,30.382,17.491z"/>
		</g>
	</g>
</g>
</svg>
