<?xml version="1.0" encoding="utf-8"?>
<!-- Generator: Adobe Illustrator 16.0.0, SVG Export Plug-In . SVG Version: 6.00 Build 0)  -->
<!DOCTYPE svg PUBLIC "-//W3C//DTD SVG 1.1//EN" "http://www.w3.org/Graphics/SVG/1.1/DTD/svg11.dtd">
<svg version="1.1" xmlns="http://www.w3.org/2000/svg" xmlns:xlink="http://www.w3.org/1999/xlink" x="0px" y="0px" width="125px"
	 height="40px" viewBox="0 0 125 40" enable-background="new 0 0 125 40" xml:space="preserve">
<g id="Layer_1">
	<g>
		<path fill-rule="evenodd" clip-rule="evenodd" fill="#242021" d="M90.178,25.465c-0.54,0-1.071,0.018-1.6-0.005
			c-0.422-0.019-0.729-0.265-0.837-0.663c-0.111-0.411-0.193-0.841-0.201-1.265c-0.026-1.437,0.008-2.875-0.028-4.312
			c-0.014-0.559-0.11-1.126-0.248-1.671c-0.215-0.853-0.757-1.195-1.638-1.106c-0.977,0.098-1.776,0.473-2.167,1.447
			c-0.058,0.144-0.091,0.309-0.092,0.465c-0.003,1.539,0.004,3.078,0.004,4.616c0,0.53-0.084,1.046-0.355,1.51
			c-0.4,0.685-1.051,0.918-1.798,0.944c-0.532,0.019-1.065,0-1.597,0.015c-0.28,0.008-0.449-0.122-0.545-0.364
			c-0.112-0.282-0.058-0.594,0.173-0.729c0.228-0.134,0.487-0.229,0.745-0.287c0.497-0.11,0.697-0.321,0.697-0.822
			c-0.002-1.843,0.007-3.687-0.019-5.529c-0.005-0.379-0.119-0.764-0.233-1.132c-0.1-0.323-0.347-0.489-0.711-0.496
			c-0.569-0.011-0.769-0.236-0.773-0.768c-0.002-0.271,0.149-0.42,0.372-0.475c0.276-0.069,0.565-0.111,0.849-0.118
			c0.786-0.021,1.572-0.018,2.357-0.023c0.599-0.003,0.812,0.208,0.815,0.798c0,0.075,0,0.151,0,0.283
			c0.118-0.097,0.198-0.164,0.281-0.229c1.192-0.947,2.535-1.222,4.004-0.875c0.844,0.199,1.461,0.709,1.868,1.474
			c0.035,0.066,0.071,0.133,0.107,0.198c0.004,0.006,0.014,0.01,0.031,0.02c0.526-0.587,1.115-1.101,1.843-1.43
			c1.102-0.5,2.244-0.547,3.386-0.195c1.172,0.361,1.762,1.264,1.987,2.411c0.123,0.625,0.197,1.271,0.205,1.908
			c0.025,2.028,0.01,4.058,0.01,6.087c0,0.093,0,0.186,0,0.312c-0.568,0-1.124,0.019-1.679-0.006
			c-0.401-0.018-0.691-0.264-0.8-0.639c-0.11-0.376-0.197-0.774-0.202-1.163c-0.021-1.86-0.008-3.72-0.008-5.581
			c0-1.024-0.764-1.728-1.787-1.646c-0.544,0.044-1.013,0.255-1.392,0.646c-0.663,0.683-1.027,1.493-1.025,2.456
			c0.003,1.827,0.001,3.653,0.001,5.479C90.178,25.147,90.178,25.289,90.178,25.465z"/>
		<path fill-rule="evenodd" clip-rule="evenodd" fill="#242021" d="M49.767,21.829c-2.027-1.247-2.018-4.325-0.685-5.738
			c0.875-0.927,1.949-1.395,3.193-1.512c1.125-0.108,2.203,0.024,3.188,0.645c2.034,1.282,2.338,3.87,1.327,5.492
			c-0.568,0.913-1.436,1.45-2.431,1.758c-0.557,0.173-1.154,0.225-1.737,0.303c-0.35,0.047-0.713,0.007-1.06,0.068
			c-0.29,0.051-0.579,0.164-0.838,0.305c-0.113,0.06-0.191,0.254-0.203,0.395c-0.006,0.06,0.193,0.187,0.309,0.199
			c0.56,0.059,1.125,0.134,1.687,0.121c0.842-0.02,1.667,0.02,2.473,0.292c2.064,0.698,2.893,2.581,2.013,4.58
			c-0.667,1.512-2.675,3.232-5.089,3.017c-0.533-0.048-1.057-0.117-1.55-0.339c-0.926-0.416-1.493-1.366-1.337-2.249
			c0.138-0.79,0.565-1.258,1.277-1.329c0.511-0.05,0.998,0.091,1.382,0.444c0.363,0.335,0.361,0.78,0.254,1.225
			c-0.035,0.146-0.089,0.295-0.169,0.42c-0.123,0.19-0.015,0.289,0.134,0.309c0.238,0.032,0.487,0.039,0.725,0.006
			c0.947-0.129,1.756-0.495,2.084-1.475c0.128-0.383,0.164-0.809,0.177-1.218c0.013-0.382-0.227-0.658-0.547-0.856
			c-0.472-0.292-1.001-0.416-1.542-0.444c-0.868-0.047-1.739-0.069-2.608-0.054c-1.324,0.022-2.355-0.804-2.495-2.113
			c-0.03-0.289,0.111-0.626,0.256-0.898c0.296-0.56,0.818-0.884,1.372-1.155C49.46,21.962,49.599,21.904,49.767,21.829z
			 M54.465,18.833c-0.065-0.599-0.082-1.074-0.175-1.534c-0.118-0.59-0.373-1.111-1.012-1.312c-0.798-0.251-1.569,0.108-1.919,0.933
			c-0.471,1.111-0.467,2.255-0.108,3.392c0.224,0.71,0.719,1.051,1.409,1.057c0.758,0.006,1.315-0.333,1.531-1.042
			C54.349,19.81,54.391,19.257,54.465,18.833z"/>
		<path fill-rule="evenodd" clip-rule="evenodd" fill="#242021" d="M61.7,15.615c0.508-0.278,0.975-0.623,1.497-0.801
			c1.438-0.49,2.837-0.421,4.054,0.598c0.668,0.559,0.921,1.359,1.046,2.193c0.058,0.391,0.079,0.79,0.08,1.186
			c0.007,2.113,0.003,4.227,0.003,6.341c0,0.093,0,0.186,0,0.3c-0.072,0.007-0.135,0.021-0.198,0.021
			c-0.457,0.007-0.913,0.016-1.369,0.016c-0.441,0-0.793-0.194-0.928-0.611c-0.126-0.386-0.212-0.803-0.219-1.208
			c-0.024-1.547-0.004-3.095-0.014-4.642c-0.002-0.361-0.036-0.727-0.1-1.083c-0.211-1.181-0.981-1.675-2.154-1.402
			c-0.898,0.208-1.646,1.143-1.647,2.068c-0.002,1.479,0.005,2.957-0.006,4.436c-0.002,0.302-0.039,0.609-0.11,0.903
			c-0.237,0.989-0.938,1.542-1.996,1.571c-0.574,0.016-1.149-0.007-1.724-0.014c-0.239-0.003-0.362-0.161-0.441-0.358
			c-0.106-0.266-0.062-0.582,0.152-0.712c0.232-0.14,0.499-0.245,0.764-0.303c0.497-0.108,0.704-0.328,0.704-0.847
			c0-3.508,0.005-7.017-0.009-10.526c-0.001-0.39-0.086-0.786-0.183-1.167c-0.073-0.287-0.285-0.458-0.615-0.473
			c-0.241-0.01-0.486-0.06-0.718-0.13c-0.345-0.104-0.409-0.229-0.403-0.655c0.003-0.342,0.09-0.487,0.419-0.568
			c0.26-0.063,0.532-0.097,0.799-0.1c0.896-0.012,1.792-0.006,2.688-0.004c0.448,0.001,0.625,0.185,0.625,0.635
			c0,1.691,0,3.381,0,5.072C61.7,15.441,61.7,15.534,61.7,15.615z"/>
		<path fill-rule="evenodd" clip-rule="evenodd" fill="#242021" d="M39.741,15.706c0.488-0.287,0.952-0.614,1.458-0.846
			c0.954-0.436,1.958-0.454,2.942-0.121c1.247,0.421,1.87,1.387,2.083,2.634c0.082,0.479,0.097,0.975,0.1,1.464
			c0.011,1.673,0.004,3.347,0.004,5.021c0,0.53,0,1.061,0,1.604c-0.583,0-1.123,0.021-1.66-0.007
			c-0.461-0.023-0.741-0.333-0.854-0.751c-0.095-0.354-0.155-0.729-0.159-1.096c-0.016-1.682-0.004-3.364-0.011-5.046
			c0-0.261-0.023-0.526-0.075-0.78c-0.22-1.069-0.847-1.475-1.915-1.259c-1.143,0.23-1.812,1.034-1.854,2.319
			c-0.046,1.394-0.036,2.788-0.063,4.182c-0.006,0.301-0.041,0.61-0.117,0.9c-0.299,1.135-1.14,1.509-2.087,1.526
			c-0.498,0.009-0.997-0.01-1.495-0.014c-0.318-0.002-0.503-0.131-0.585-0.409c-0.092-0.319-0.01-0.604,0.269-0.744
			c0.23-0.113,0.487-0.184,0.738-0.242c0.385-0.087,0.631-0.312,0.631-0.7c-0.002-2.021-0.014-4.04-0.037-6.059
			c-0.002-0.221-0.079-0.45-0.16-0.659c-0.148-0.379-0.427-0.587-0.854-0.593c-0.441-0.006-0.623-0.175-0.636-0.549
			c-0.018-0.468,0.166-0.706,0.59-0.757c0.142-0.018,0.286-0.026,0.43-0.026c0.844-0.002,1.69,0.003,2.536-0.003
			c0.531-0.003,0.782,0.232,0.782,0.756C39.742,15.543,39.741,15.636,39.741,15.706z"/>
		<path fill-rule="evenodd" clip-rule="evenodd" fill="#242021" d="M35.002,25.426c-0.98,0.149-1.766-0.159-2.346-0.977
			c-0.884,0.683-1.876,0.977-2.961,0.999c-1.188,0.024-2.3-0.3-2.776-1.489c-0.509-1.272-0.371-2.904,1.088-3.86
			c0.896-0.587,1.903-0.847,2.956-0.952c0.468-0.047,0.939-0.061,1.419-0.09c-0.005-0.682,0.052-1.341-0.147-1.984
			c-0.34-1.091-1.631-1.53-2.573-0.873c-0.25,0.174-0.319,0.384-0.224,0.682c0.064,0.2,0.16,0.396,0.188,0.601
			c0.027,0.198,0.043,0.433-0.038,0.603c-0.247,0.52-0.742,0.7-1.27,0.738c-0.56,0.04-1.047-0.192-1.242-0.731
			c-0.217-0.602-0.207-1.24,0.167-1.801c0.466-0.7,1.149-1.14,1.921-1.423c1.116-0.41,2.266-0.433,3.415-0.144
			c1.499,0.376,2.411,1.532,2.428,3.147c0.025,2.485,0.006,4.971,0.006,7.456C35.014,25.36,35.007,25.393,35.002,25.426z
			 M32.386,20.381c-0.187,0.029-0.337,0.047-0.486,0.076c-0.631,0.125-1.251,0.283-1.792,0.653
			c-0.687,0.471-0.893,1.189-0.565,1.956c0.12,0.281,0.312,0.5,0.623,0.534c0.8,0.085,1.527-0.091,2.118-0.672
			c0.049-0.048,0.095-0.126,0.096-0.191C32.387,21.961,32.386,21.184,32.386,20.381z"/>
		<path fill-rule="evenodd" clip-rule="evenodd" fill="#242021" d="M78.324,25.44c-1.009,0.043-1.499,0.029-2.382-0.978
			c-0.863,0.673-1.857,0.965-2.94,0.986c-1.151,0.022-2.259-0.264-2.764-1.467c-0.531-1.266-0.375-2.903,1.038-3.852
			c0.913-0.613,1.943-0.88,3.022-0.983c0.46-0.045,0.923-0.06,1.398-0.089c0.012-0.672,0.038-1.323-0.145-1.958
			c-0.32-1.113-1.651-1.568-2.601-0.893c-0.225,0.16-0.298,0.386-0.21,0.671c0.057,0.185,0.122,0.367,0.182,0.551
			c0.134,0.407,0.06,0.728-0.277,0.993c-0.414,0.326-0.878,0.491-1.417,0.366c-0.527-0.122-0.886-0.548-0.949-1.081
			c-0.109-0.916,0.242-1.598,0.959-2.149c1.024-0.787,2.186-1.057,3.448-1.006c0.603,0.024,1.194,0.112,1.749,0.363
			c1.156,0.52,1.752,1.435,1.862,2.681c0.026,0.302,0.026,0.607,0.026,0.911c0.002,2.215,0.001,4.43,0.001,6.646
			C78.324,25.242,78.324,25.333,78.324,25.44z M75.701,20.379c-0.197,0.031-0.355,0.049-0.512,0.081
			c-0.689,0.14-1.367,0.314-1.931,0.769c-0.604,0.487-0.741,1.367-0.317,2.012c0.137,0.209,0.326,0.349,0.576,0.369
			c0.773,0.062,1.476-0.114,2.056-0.657c0.057-0.054,0.121-0.137,0.122-0.206C75.704,21.969,75.701,21.192,75.701,20.379z"/>
		<path fill-rule="evenodd" clip-rule="evenodd" fill="#91278E" d="M91.885,32.13c0.21,0.004,0.422,0.024,0.629,0.004
			c0.065-0.006,0.147-0.109,0.175-0.185c0.133-0.373,0.23-0.759,0.383-1.123c0.092-0.221,0.238-0.431,0.401-0.607
			c0.283-0.307,0.662-0.24,0.848,0.135c0.171,0.345,0.164,0.706,0.021,1.056c-0.107,0.262-0.244,0.513-0.394,0.823
			c0.269,0,0.509,0.005,0.749-0.001c0.164-0.004,0.234,0.075,0.23,0.229c-0.003,0.149-0.05,0.27-0.229,0.271
			c-0.279,0.001-0.559,0-0.837,0c-0.301,0-0.615,0.273-0.635,0.581c-0.021,0.328-0.028,0.659-0.014,0.988
			c0.015,0.363,0.271,0.531,0.611,0.398c0.226-0.089,0.438-0.218,0.643-0.35c0.061-0.039,0.08-0.149,0.106-0.231
			c0.126-0.38,0.202-0.787,0.383-1.138c0.226-0.439,0.689-0.612,1.113-0.51c0.476,0.114,0.713,0.568,0.523,1.019
			c-0.223,0.529-0.651,0.824-1.193,0.999c0.096,0.214,0.254,0.307,0.465,0.241c0.255-0.08,0.506-0.182,0.746-0.298
			c0.07-0.035,0.104-0.155,0.145-0.24c0.182-0.376,0.311-0.791,0.555-1.12c0.166-0.223,0.479-0.356,0.75-0.475
			c0.149-0.064,0.202-0.115,0.223-0.273c0.089-0.679,0.219-1.354,0.565-1.956c0.124-0.214,0.293-0.42,0.485-0.574
			c0.381-0.305,0.773-0.165,0.879,0.311c0.113,0.512,0.081,1.028-0.103,1.521c-0.233,0.623-0.484,1.239-0.737,1.855
			c-0.132,0.323-0.26,0.643-0.188,1.002c0.047,0.231,0.144,0.285,0.359,0.184c0.129-0.06,0.25-0.14,0.369-0.219
			c0.111-0.076,0.215-0.162,0.323-0.244c0.212,0.38,0.17,0.601-0.157,0.826c-0.146,0.1-0.295,0.198-0.453,0.277
			c-0.436,0.218-0.753,0.125-1.015-0.285c-0.021-0.035-0.042-0.07-0.049-0.083c-0.294,0.161-0.563,0.357-0.863,0.461
			c-0.346,0.119-0.646-0.03-0.841-0.34c-1.227,0.534-1.519,0.513-2.149-0.166c-0.202,0.108-0.407,0.222-0.616,0.327
			c-0.742,0.373-1.03,0.28-1.389-0.398c-0.376,0.188-0.738,0.403-1.126,0.554c-0.311,0.121-0.636,0.103-0.829-0.2
			c-0.264,0.085-0.504,0.192-0.754,0.238c-0.293,0.054-0.441-0.048-0.477-0.345c-0.045-0.366-0.033-0.74-0.045-1.11
			c-0.001-0.046,0-0.093-0.049-0.15c-0.167,0.417-0.332,0.836-0.501,1.252c-0.035,0.084-0.067,0.196-0.135,0.235
			c-0.115,0.067-0.268,0.131-0.389,0.108c-0.085-0.015-0.207-0.174-0.206-0.269c0.001-0.377,0.043-0.754,0.073-1.13
			c0.006-0.082,0.021-0.162-0.017-0.262c-0.085,0.169-0.171,0.337-0.254,0.506c-0.134,0.273-0.266,0.546-0.398,0.82
			c-0.084,0.176-0.163,0.401-0.401,0.345c-0.16-0.038-0.293-0.188-0.478-0.315c-0.427,0.181-0.92,0.595-1.51,0.074
			c-0.475,0.157-1.019,0.586-1.396-0.214c-0.248,0.122-0.482,0.249-0.727,0.354c-0.582,0.251-0.843,0.089-0.876-0.55
			c-0.017-0.344-0.003-0.689-0.003-1.019c-0.109,0.21-0.234,0.451-0.358,0.692c-0.13,0.255-0.261,0.511-0.387,0.77
			c-0.08,0.165-0.202,0.24-0.386,0.218c-0.195-0.024-0.282-0.16-0.293-0.329c-0.018-0.26-0.025-0.524,0.002-0.781
			c0.052-0.486,0.128-0.969,0.204-1.453c0.015-0.096,0.047-0.227,0.115-0.269c0.116-0.073,0.275-0.13,0.403-0.112
			c0.074,0.011,0.167,0.184,0.173,0.289c0.01,0.199-0.036,0.401-0.058,0.603c-0.013,0.117-0.024,0.234,0.005,0.368
			c0.034-0.06,0.071-0.118,0.101-0.179c0.127-0.257,0.245-0.519,0.381-0.771c0.154-0.285,0.389-0.403,0.615-0.329
			c0.203,0.066,0.287,0.295,0.234,0.63c-0.056,0.358-0.13,0.715-0.154,1.076c-0.013,0.179,0.067,0.366,0.105,0.549
			c0.158-0.062,0.316-0.125,0.474-0.187c0.202-0.08,0.24-0.206,0.215-0.432c-0.088-0.786,0.109-1.542,0.313-2.293
			c0.16-0.584,0.394-1.136,0.787-1.6c0.153-0.181,0.355-0.347,0.571-0.442c0.368-0.164,0.678,0.039,0.681,0.441
			c0.002,0.317-0.07,0.634-0.11,0.95c-0.011,0.088-0.024,0.176-0.036,0.263l0.004-0.006c-0.019,0.035-0.037,0.071-0.055,0.106
			l0.003-0.005c-0.075,0.146-0.147,0.292-0.226,0.437c-0.304,0.564-0.613,1.125-0.913,1.692c-0.146,0.275-0.288,0.556-0.189,0.889
			c0.049,0.165,0.125,0.218,0.295,0.149c0.309-0.124,0.533-0.274,0.585-0.663c0.058-0.43,0.217-0.847,0.345-1.266
			c0.065-0.213,0.438-0.382,0.632-0.272c0.071,0.041,0.12,0.213,0.099,0.308c-0.105,0.477-0.241,0.947-0.356,1.421
			c-0.034,0.138-0.049,0.283-0.048,0.424c0,0.177,0.101,0.233,0.271,0.182c0.33-0.1,0.565-0.399,0.625-0.735
			c0.083-0.463,0.183-0.925,0.298-1.382c0.062-0.246,0.298-0.354,0.51-0.231c0.078,0.044,0.127,0.209,0.119,0.315
			c-0.02,0.31-0.074,0.616-0.12,0.954c0.192-0.32,0.366-0.616,0.546-0.907c0.058-0.093,0.13-0.178,0.205-0.256
			c0.122-0.126,0.29-0.202,0.428-0.086c0.095,0.079,0.164,0.251,0.157,0.377c-0.014,0.258-0.087,0.513-0.136,0.771
			c-0.01,0.031-0.019,0.062-0.029,0.093c0.01,0.003,0.02,0.006,0.03,0.009c0.006-0.028,0.013-0.055,0.02-0.083
			c0.167-0.262,0.332-0.525,0.502-0.784c0.07-0.105,0.149-0.206,0.231-0.301c0.121-0.14,0.289-0.187,0.429-0.078
			c0.093,0.074,0.173,0.235,0.166,0.351c-0.025,0.395-0.102,0.786-0.141,1.18c-0.018,0.182-0.006,0.369,0.013,0.552
			c0.015,0.142,0.117,0.176,0.243,0.119c0.231-0.105,0.388-0.242,0.441-0.53c0.088-0.479,0.213-0.957,0.388-1.409
			c0.063-0.162,0.318-0.249,0.507-0.328c0.069-0.099,0.137-0.198,0.206-0.296L91.885,32.13z M92.551,32.638
			c-0.208-0.036-0.41-0.07-0.589-0.102c-0.086,0.325-0.172,0.616-0.24,0.911c-0.085,0.376-0.166,0.756-0.227,1.137
			c-0.012,0.074,0.057,0.211,0.12,0.236c0.194,0.076,0.935-0.491,0.935-0.699C92.553,33.634,92.551,33.146,92.551,32.638z
			 M98.314,33.084c-0.028-0.016-0.056-0.031-0.084-0.046c-0.125,0.115-0.286,0.21-0.371,0.351c-0.191,0.315-0.392,0.631-0.334,1.041
			c0.038,0.265,0.112,0.367,0.33,0.302c0.204-0.061,0.46-0.407,0.459-0.616C98.313,33.771,98.314,33.428,98.314,33.084z
			 M99.015,33.083c0.048-0.074,0.072-0.097,0.081-0.124c0.182-0.543,0.378-1.082,0.534-1.632c0.069-0.247,0.062-0.517,0.074-0.777
			c0.003-0.062-0.059-0.125-0.091-0.187c-0.06,0.04-0.127,0.072-0.176,0.122c-0.039,0.04-0.064,0.1-0.082,0.155
			C99.1,31.416,99.042,32.217,99.015,33.083z M85.286,30.43c-0.411,0.197-1.006,1.959-0.856,2.454
			C84.813,32.098,85.237,31.348,85.286,30.43z M93.212,32.113c0.024,0.018,0.049,0.036,0.074,0.054
			c0.044-0.008,0.119-0.003,0.13-0.026c0.184-0.394,0.365-0.788,0.527-1.19c0.021-0.053-0.067-0.151-0.106-0.229
			c-0.064,0.046-0.164,0.079-0.187,0.141C93.494,31.275,93.355,31.695,93.212,32.113z M95.296,33.983
			c0.338-0.044,0.55-0.221,0.718-0.466c0.104-0.151,0.124-0.337-0.021-0.426c-0.086-0.053-0.308-0.001-0.392,0.081
			C95.389,33.383,95.321,33.671,95.296,33.983z"/>
		<path fill-rule="evenodd" clip-rule="evenodd" fill="#91278E" d="M64.493,35.175c-0.249,0.086-0.479,0.212-0.72,0.24
			c-0.617,0.072-1.05-0.375-0.964-0.992c0.098-0.702,0.242-1.396,0.345-2.098c0.051-0.34,0.08-0.687,0.075-1.03
			c-0.004-0.282-0.204-0.394-0.432-0.229c-0.211,0.152-0.397,0.366-0.528,0.592c-0.366,0.629-0.503,1.339-0.653,2.04
			c-0.096,0.445-0.174,0.894-0.251,1.343c-0.042,0.245-0.17,0.384-0.421,0.385c-0.248,0-0.356-0.167-0.345-0.381
			c0.018-0.357,0.057-0.715,0.116-1.068c0.109-0.657,0.251-1.31,0.352-1.968c0.036-0.237,0.008-0.489-0.026-0.729
			c-0.015-0.096-0.113-0.221-0.203-0.252c-0.072-0.026-0.219,0.044-0.275,0.116c-0.164,0.213-0.312,0.441-0.442,0.676
			c-0.552,1.001-0.843,2.095-1.077,3.203c-0.082,0.387-0.315,0.426-0.581,0.399c-0.207-0.021-0.344-0.128-0.302-0.349
			c0.101-0.521,0.2-1.044,0.336-1.557c0.197-0.745,0.21-1.5,0.181-2.261c-0.001-0.039-0.022-0.079-0.043-0.147
			c-0.44,0.078-0.654,0.442-0.98,0.781c-0.035-0.157-0.093-0.262-0.07-0.346c0.104-0.387,0.263-0.753,0.578-1.02
			c0.107-0.089,0.243-0.157,0.377-0.196c0.391-0.115,0.689,0.064,0.785,0.458c0.118,0.483,0.011,0.957-0.068,1.431
			c-0.002,0.014,0.004,0.029,0.016,0.101c0.049-0.103,0.073-0.166,0.107-0.224c0.271-0.464,0.525-0.94,0.828-1.383
			c0.122-0.176,0.336-0.31,0.536-0.408c0.374-0.184,0.75-0.034,0.84,0.367c0.075,0.329,0.044,0.682,0.051,1.024
			c0.002,0.116-0.024,0.232-0.011,0.354c0.111-0.268,0.211-0.54,0.337-0.8c0.171-0.354,0.402-0.666,0.75-0.871
			c0.563-0.333,1.028-0.155,1.227,0.464c0.181,0.561,0.09,1.12-0.014,1.678c-0.109,0.588-0.224,1.177-0.315,1.769
			c-0.021,0.133,0.05,0.28,0.078,0.419c0.154-0.041,0.33-0.045,0.456-0.128c0.449-0.291,0.42-0.792,0.51-1.241
			c0.039-0.198,0.084-0.397,0.16-0.582c0.044-0.11,0.138-0.232,0.241-0.276c0.108-0.046,0.266-0.035,0.379,0.009
			c0.049,0.02,0.067,0.189,0.052,0.284c-0.08,0.5-0.179,0.996-0.261,1.496c-0.028,0.167-0.11,0.405,0.113,0.463
			c0.214,0.057,0.359-0.149,0.41-0.337c0.111-0.416,0.187-0.84,0.275-1.261c0.029-0.14,0.057-0.281,0.088-0.421
			c0.054-0.232,0.203-0.321,0.472-0.283c0.223,0.031,0.266,0.174,0.234,0.367c-0.069,0.425-0.139,0.85-0.208,1.274
			c-0.017,0.1-0.05,0.202-0.042,0.3c0.011,0.127,0.056,0.25,0.087,0.376c0.151-0.059,0.332-0.083,0.449-0.183
			c0.64-0.545,1.13-1.225,1.634-1.89c0.15-0.2,0.356-0.282,0.604-0.224c0.212,0.048,0.288,0.206,0.194,0.402
			c-0.033,0.067-0.07,0.142-0.126,0.187c-0.244,0.198-0.218,0.427-0.148,0.703c0.071,0.28,0.068,0.579,0.099,0.887
			c0.176-0.084,0.374-0.171,0.562-0.276c0.053-0.03,0.093-0.11,0.111-0.175c0.13-0.462,0.248-0.929,0.38-1.391
			c0.066-0.232,0.405-0.398,0.638-0.324c0.17,0.053,0.146,0.18,0.114,0.31c-0.13,0.515-0.27,1.027-0.381,1.546
			c-0.032,0.152,0.02,0.322,0.033,0.483c0.161-0.049,0.326-0.086,0.48-0.15c0.165-0.068,0.213-0.198,0.204-0.385
			c-0.022-0.533,0.14-1.019,0.467-1.439c0.312-0.397,0.819-0.516,1.252-0.313c0.49,0.229,0.557,0.908,0.107,1.209
			c-0.086,0.057-0.257,0.067-0.346,0.02c-0.065-0.036-0.08-0.2-0.085-0.308c-0.005-0.129,0.024-0.261,0.038-0.391
			c-0.025-0.021-0.049-0.04-0.074-0.06c-0.114,0.078-0.271,0.13-0.335,0.237c-0.218,0.363-0.318,0.764-0.23,1.189
			c0.079,0.385,0.381,0.551,0.72,0.348c0.364-0.217,0.687-0.505,1.05-0.779c0.042,0.069,0.109,0.18,0.208,0.341
			c-0.285,0.272-0.547,0.575-0.859,0.811c-0.611,0.461-1.18,0.396-1.7-0.134c-0.305,0.134-0.594,0.29-0.902,0.389
			c-0.417,0.134-0.626,0.038-0.831-0.286c-0.476,0.119-0.933,0.266-1.402,0.341c-0.426,0.067-0.855,0.033-1.094-0.424
			c-0.221,0.101-0.428,0.213-0.648,0.292c-0.554,0.2-0.73,0.11-0.93-0.435c-0.234,0.167-0.457,0.362-0.712,0.496
			C64.892,35.529,64.685,35.441,64.493,35.175z M67.765,34.657c0.137,0.114,0.218,0.202,0.318,0.26
			c0.2,0.117,0.474,0.028,0.505-0.193c0.039-0.281,0.009-0.571,0.009-0.794C68.344,34.15,68.068,34.392,67.765,34.657z"/>
		<path fill-rule="evenodd" clip-rule="evenodd" fill="#242021" d="M102.082,25.467c-0.573,0-1.097,0.017-1.618-0.005
			c-0.483-0.021-0.78-0.325-0.898-0.767c-0.093-0.346-0.156-0.713-0.157-1.071c-0.011-2.129-0.001-4.259,0.001-6.389
			c0-0.127,0.005-0.256-0.017-0.38c-0.059-0.354-0.068-0.608-0.567-0.672c-0.232-0.03-0.453-0.15-0.685-0.177
			c-0.332-0.038-0.365-0.288-0.407-0.52c-0.055-0.303,0.065-0.561,0.319-0.649c0.209-0.075,0.442-0.113,0.666-0.118
			c0.836-0.019,1.673-0.018,2.509-0.023c0.598-0.003,0.841,0.232,0.854,0.836c0.008,0.346,0.001,0.693,0.001,1.04
			c0,2.147,0,4.294,0,6.44C102.082,23.815,102.082,24.616,102.082,25.467z"/>
		<path fill-rule="evenodd" clip-rule="evenodd" fill="#91278E" d="M80.784,31.076c-0.055,1.123-0.208,2.281-0.759,3.35
			c-0.255,0.495-0.583,0.929-1.07,1.224c-1.028,0.623-2.11,0.183-2.404-0.98c-0.194-0.764-0.117-1.528,0.043-2.284
			c0.108-0.51,0.257-1.011,0.406-1.512c0.059-0.198,0.171-0.363,0.424-0.368c0.429-0.01,0.602,0.208,0.485,0.628
			c-0.199,0.714-0.43,1.421-0.583,2.145c-0.083,0.395-0.07,0.82-0.036,1.227c0.028,0.335,0.233,0.597,0.584,0.69
			c0.359,0.097,0.649-0.036,0.878-0.309c0.453-0.54,0.677-1.189,0.809-1.861c0.151-0.776,0.242-1.565,0.35-2.35
			c0.029-0.213,0.104-0.372,0.324-0.431c0.378-0.1,0.546,0.028,0.549,0.419C80.784,30.782,80.784,30.901,80.784,31.076z"/>
		<path fill-rule="evenodd" clip-rule="evenodd" fill="#242021" d="M100.246,10.157c0.823,0,1.48,0.654,1.48,1.472
			c0.001,0.814-0.662,1.471-1.483,1.47c-0.831,0-1.48-0.649-1.476-1.474C98.771,10.794,99.413,10.157,100.246,10.157z"/>
		<path fill-rule="evenodd" clip-rule="evenodd" fill="#91278E" d="M71.124,31.11c0.335-0.004,0.525,0.155,0.527,0.441
			c0.003,0.326-0.239,0.551-0.592,0.549c-0.32-0.002-0.521-0.177-0.523-0.457C70.534,31.346,70.789,31.114,71.124,31.11z"/>
		<path fill-rule="evenodd" clip-rule="evenodd" fill="#91278E" d="M85.804,31.417c0.151-0.22,0.356-0.329,0.625-0.302
			c0.214,0.022,0.401,0.087,0.445,0.335c0.048,0.27-0.075,0.502-0.313,0.599c-0.446,0.182-0.764-0.031-0.804-0.536l-0.003,0.005
			c0.018-0.035,0.036-0.071,0.055-0.106L85.804,31.417z"/>
		<path fill-rule="evenodd" clip-rule="evenodd" fill="#91278E" d="M91.89,32.126c-0.073-0.015-0.147-0.031-0.221-0.044
			c-0.347-0.064-0.5-0.41-0.314-0.711c0.133-0.214,0.438-0.312,0.719-0.231c0.202,0.058,0.315,0.186,0.322,0.399
			c0.008,0.268-0.14,0.449-0.434,0.542c-0.028,0.009-0.052,0.033-0.078,0.05L91.89,32.126z"/>
		<path fill-rule="evenodd" clip-rule="evenodd" fill="#91278E" d="M101.279,35.429c-0.336,0.002-0.508-0.151-0.507-0.452
			c0-0.321,0.207-0.521,0.545-0.525c0.338-0.004,0.517,0.147,0.52,0.439C101.84,35.225,101.631,35.427,101.279,35.429z"/>
		<path fill-rule="evenodd" clip-rule="evenodd" fill="#91278E" d="M75.01,35.429c-0.312-0.002-0.494-0.166-0.495-0.445
			c0-0.326,0.223-0.535,0.57-0.532c0.322,0.003,0.522,0.182,0.513,0.458C75.587,35.236,75.365,35.431,75.01,35.429z"/>
		<g>
			<path fill-rule="evenodd" clip-rule="evenodd" fill="#91278E" d="M15.221,12.359c0.744,0.504,1.527,0.871,2.385,1.002
				c0.671,0.102,1.358,0.109,2.039,0.138c0.169,0.007,0.301,0.027,0.428,0.152c1.928,1.901,2.762,4.195,2.398,6.878
				c-0.226,1.664-0.944,3.122-2.122,4.334c-0.627,0.646-1.335,1.186-2.146,1.59c-2.627,1.31-5.25,1.26-7.829-0.092
				c-1.414-0.741-2.491-1.864-3.261-3.309c0.119-0.034,0.229-0.061,0.335-0.096c1.222-0.401,2.262-1.034,2.926-2.191
				c1.425-2.481,2.866-4.954,4.3-7.43C14.854,13.023,15.028,12.704,15.221,12.359z M14.384,16.998c-1.358,0-2.47,1.082-2.468,2.399
				c0.002,1.317,1.12,2.408,2.466,2.406c1.351-0.002,2.467-1.09,2.471-2.405C16.856,18.084,15.738,16.998,14.384,16.998z
				 M16.783,21.621c0.908,0.888,1.83,1.79,2.765,2.705c0.521-0.455,0.915-1.007,1.219-1.649c-1.154-0.626-2.281-1.239-3.412-1.854
				C17.168,21.083,16.987,21.337,16.783,21.621z"/>
			<path fill-rule="evenodd" clip-rule="evenodd" fill="#91278E" d="M8.913,16.105c0.36-0.621,0.705-1.218,1.05-1.815
				c1.012-1.751,2.023-3.503,3.035-5.255c0.869-1.506,1.739-3.013,2.606-4.521c0.17-0.296,0.413-0.46,0.763-0.446
				c0.294,0.013,0.541,0.136,0.65,0.405c0.076,0.186,0.087,0.409,0.081,0.614c-0.036,1.177,0.157,2.308,0.684,3.366
				c0.662,1.332,1.733,2.199,3.137,2.664c0.084,0.028,0.167,0.057,0.247,0.112c-1.184,0.284-2.364,0.292-3.54-0.013
				c-1.188-0.308-2.172-0.947-2.971-1.907c-0.488,0.844-0.96,1.662-1.435,2.479c-0.875,1.508-1.753,3.014-2.627,4.523
				c-0.557,0.963-1.118,1.925-1.659,2.898c-0.549,0.988-1.41,1.524-2.484,1.744c-2.39,0.489-5.165-0.959-6.111-3.204
				c-0.496-1.174-0.497-2.333,0.301-3.397c0.607-0.808,1.456-1.225,2.438-1.349c1.86-0.237,3.454,0.372,4.779,1.657
				c0.398,0.386,0.669,0.905,0.999,1.362C8.872,16.043,8.886,16.065,8.913,16.105z"/>
			<path fill-rule="evenodd" clip-rule="evenodd" fill="none" d="M14.384,16.998c1.354,0,2.473,1.087,2.469,2.4
				c-0.003,1.315-1.12,2.402-2.471,2.405c-1.346,0.002-2.464-1.088-2.466-2.406C11.914,18.079,13.025,16.998,14.384,16.998z"/>
			<path fill-rule="evenodd" clip-rule="evenodd" fill="none" d="M16.783,21.621c0.204-0.284,0.385-0.538,0.572-0.798
				c1.131,0.615,2.258,1.227,3.412,1.854c-0.305,0.643-0.699,1.195-1.219,1.649C18.613,23.411,17.691,22.508,16.783,21.621z"/>
		</g>
		<path fill-rule="evenodd" clip-rule="evenodd" fill="none" d="M54.465,18.833c-0.074,0.424-0.116,0.976-0.274,1.493
			c-0.216,0.71-0.773,1.048-1.531,1.042c-0.69-0.006-1.185-0.347-1.409-1.057c-0.359-1.137-0.363-2.281,0.108-3.392
			c0.35-0.824,1.122-1.184,1.919-0.933c0.639,0.201,0.894,0.722,1.012,1.312C54.383,17.759,54.399,18.235,54.465,18.833z"/>
		<path fill-rule="evenodd" clip-rule="evenodd" fill="none" d="M32.386,20.381c0,0.803,0.001,1.58-0.005,2.356
			c0,0.064-0.047,0.143-0.096,0.191c-0.591,0.581-1.318,0.757-2.118,0.672c-0.311-0.034-0.503-0.253-0.623-0.534
			c-0.328-0.767-0.122-1.485,0.565-1.956c0.541-0.37,1.16-0.528,1.792-0.653C32.049,20.429,32.2,20.41,32.386,20.381z"/>
		<path fill-rule="evenodd" clip-rule="evenodd" fill="none" d="M75.701,20.379c0,0.813,0.003,1.59-0.006,2.367
			c-0.001,0.069-0.065,0.152-0.122,0.206c-0.58,0.543-1.283,0.719-2.056,0.657c-0.25-0.02-0.439-0.159-0.576-0.369
			c-0.424-0.646-0.288-1.525,0.317-2.012c0.564-0.454,1.242-0.628,1.931-0.769C75.346,20.428,75.504,20.41,75.701,20.379z"/>
		<path fill-rule="evenodd" clip-rule="evenodd" fill="none" d="M92.551,32.638c0,0.509,0.001,0.996,0,1.483
			c0,0.208-0.741,0.775-0.935,0.699c-0.063-0.025-0.132-0.162-0.12-0.236c0.061-0.381,0.141-0.76,0.227-1.137
			c0.068-0.295,0.154-0.586,0.24-0.911C92.142,32.568,92.344,32.602,92.551,32.638z"/>
		<path fill-rule="evenodd" clip-rule="evenodd" fill="none" d="M98.314,33.084c0,0.343-0.001,0.687,0,1.031
			c0.001,0.209-0.255,0.556-0.459,0.616c-0.218,0.065-0.292-0.038-0.33-0.302c-0.058-0.409,0.143-0.725,0.334-1.041
			c0.085-0.141,0.245-0.236,0.371-0.351C98.258,33.053,98.286,33.069,98.314,33.084z"/>
		<path fill-rule="evenodd" clip-rule="evenodd" fill="none" d="M99.015,33.083c0.027-0.866,0.085-1.667,0.339-2.442
			c0.018-0.055,0.042-0.115,0.082-0.155c0.049-0.05,0.116-0.083,0.176-0.122c0.032,0.062,0.094,0.125,0.091,0.187
			c-0.012,0.26-0.005,0.53-0.074,0.777c-0.156,0.55-0.352,1.089-0.534,1.632C99.086,32.986,99.063,33.009,99.015,33.083z"/>
		<path fill-rule="evenodd" clip-rule="evenodd" fill="none" d="M85.286,30.43c-0.049,0.918-0.472,1.668-0.856,2.454
			C84.279,32.389,84.875,30.626,85.286,30.43z"/>
		<path fill-rule="evenodd" clip-rule="evenodd" fill="none" d="M93.212,32.113c0.144-0.418,0.282-0.837,0.437-1.251
			c0.023-0.062,0.123-0.095,0.187-0.141c0.039,0.077,0.128,0.175,0.106,0.229c-0.162,0.402-0.343,0.796-0.527,1.19
			c-0.011,0.023-0.085,0.019-0.13,0.026C93.261,32.148,93.236,32.131,93.212,32.113z"/>
		<path fill-rule="evenodd" clip-rule="evenodd" fill="none" d="M95.296,33.983c0.025-0.312,0.092-0.601,0.306-0.812
			c0.083-0.083,0.306-0.134,0.392-0.081c0.145,0.089,0.125,0.275,0.021,0.426C95.846,33.762,95.635,33.939,95.296,33.983z"/>
		<path fill-rule="evenodd" clip-rule="evenodd" fill="none" d="M85.808,31.412c-0.019,0.035-0.037,0.071-0.055,0.106
			C85.771,31.483,85.79,31.447,85.808,31.412z"/>
		<path fill-rule="evenodd" clip-rule="evenodd" fill="none" d="M88.906,33.651c-0.007,0.028-0.014,0.055-0.02,0.083
			c-0.011-0.002-0.02-0.006-0.03-0.009c0.01-0.031,0.02-0.062,0.029-0.093C88.892,33.638,88.899,33.645,88.906,33.651z"/>
		<path fill-rule="evenodd" clip-rule="evenodd" fill="none" d="M67.765,34.657c0.303-0.265,0.58-0.506,0.832-0.727
			c0,0.223,0.03,0.513-0.009,0.794c-0.032,0.222-0.306,0.31-0.505,0.193C67.983,34.858,67.901,34.771,67.765,34.657z"/>
	</g>
</g>
<g id="Layer_2">
</g>
<g id="template" display="none">
</g>
</svg>
