<?xml version="1.0" encoding="utf-8"?>
<!-- Generator: Adobe Illustrator 20.0.0, SVG Export Plug-In . SVG Version: 6.00 Build 0)  -->
<svg version="1.1" xmlns="http://www.w3.org/2000/svg" xmlns:xlink="http://www.w3.org/1999/xlink" x="0px" y="0px"
	 viewBox="0 0 125 40" enable-background="new 0 0 125 40" xml:space="preserve">
<g id="bg" display="none">
	<rect display="inline" fill="#FFFFFF" width="125" height="40"/>
</g>
<g id="logo">
	<g>
		<g id="Layer_1_9_">
			<g>
				<path fill="#242021" d="M101.812,25.237c-0.16-0.092-0.315-0.193-0.481-0.275c-0.948-0.473-1.365-1.404-1.054-2.366
					c0.289-0.891,1.183-1.474,2.073-1.353c0.971,0.132,1.684,0.911,1.715,1.875c0.034,1.023-0.587,1.752-1.664,1.966
					c-0.091,0.019-0.169,0.101-0.252,0.153C102.036,25.237,101.924,25.237,101.812,25.237z"/>
				<path fill="#242021" d="M65.354,24.706c-1.21,0-2.295,0-3.45,0c0-1.988-0.013-3.944,0.006-5.898
					c0.007-0.817-0.207-1.392-1.268-1.322c0.224-0.809,0.402-1.554,0.65-2.277c0.059-0.17,0.336-0.348,0.534-0.376
					c1.608-0.229,2.394,0.067,3.404,1.224c2.231-1.678,3.806-1.712,5.346-0.082c0.894-0.68,1.87-1.184,3.043-1.149
					c1.584,0.046,2.586,0.872,2.641,2.448c0.084,2.457,0.022,4.918,0.022,7.444c-1.116,0-2.242,0-3.454,0
					c0-1.9,0.016-3.798-0.006-5.696c-0.012-1.039-0.463-1.332-1.455-1.094c-0.449,0.108-0.564,0.332-0.56,0.763
					c0.019,1.735,0.008,3.471,0.008,5.207c0,0.273,0,0.545,0,0.853c-1.18,0-2.268,0-3.486,0c0-0.446,0-0.907,0-1.368
					c0-1.483,0.018-2.968-0.01-4.451c-0.017-0.893-0.45-1.198-1.305-1.047c-0.488,0.086-0.686,0.295-0.676,0.833
					C65.376,20.696,65.354,22.678,65.354,24.706z"/>
				<path fill="#242021" d="M84.478,15.014c1.207,0,2.295,0,3.5,0c0,1.071,0,2.124,0,3.178c0,0.925,0.027,1.85-0.009,2.772
					c-0.03,0.768,0.104,1.354,1.124,1.327c-0.208,0.79-0.372,1.521-0.607,2.229c-0.058,0.172-0.341,0.361-0.536,0.38
					c-1.296,0.124-2.556,0.102-3.091-1.174c-0.948,0.411-1.797,0.966-2.718,1.139c-2.086,0.393-3.75-0.936-3.839-3.059
					c-0.096-2.233-0.022-4.474-0.022-6.761c1.154,0,2.286,0,3.509,0c0,1.742-0.036,3.471,0.023,5.196
					c0.016,0.475,0.241,1.282,0.501,1.34c0.554,0.121,1.222-0.076,1.781-0.299c0.215-0.086,0.361-0.597,0.367-0.917
					C84.496,18.607,84.478,16.847,84.478,15.014z"/>
				<path fill="#242021" d="M120.697,23.715c-0.852,0.409-1.61,0.936-2.447,1.142c-2.235,0.547-4.012-0.861-4.122-3.29
					c-0.097-2.149-0.021-4.306-0.021-6.521c1.156,0,2.288,0,3.538,0c0,1.301,0,2.63,0,3.961c0,0.56-0.017,1.121,0.014,1.679
					c0.041,0.747,0.448,1.105,1.209,1.058c0.825-0.05,1.431-0.53,1.435-1.202c0.011-1.816,0.003-3.632,0.003-5.504
					c1.177,0,2.308,0,3.535,0c0,1.971,0.019,3.949-0.009,5.925c-0.01,0.775,0.102,1.374,1.166,1.283
					c-0.229,0.832-0.418,1.578-0.647,2.312c-0.045,0.145-0.226,0.308-0.375,0.347C122.592,25.266,121.487,24.836,120.697,23.715z"/>
				<path fill="#242021" d="M95.599,21.734c0.742,0,1.301,0,1.86,0c0.527,0,1.054,0,1.624,0c0,1.029,0,1.994,0,3.004
					c-2.998,0-5.982,0-9.109,0c1.339-2.245,2.642-4.431,4.006-6.717c-1.226,0-2.353,0-3.541,0c0-1.035,0-1.998,0-3.014
					c2.963,0,5.945,0,9.031,0C98.197,17.219,96.939,19.404,95.599,21.734z"/>
				<path fill="#242021" d="M108.902,14.999c0,0.375,0,0.704,0,1.197c1.234-1.333,2.575-1.783,4.242-0.987
					c-0.256,0.957-0.509,1.892-0.756,2.813c-0.069,0.034-0.121,0.084-0.165,0.077c-2.124-0.343-3.221,0.589-3.315,2.845
					c-0.027,0.643-0.007,1.287-0.008,1.93c-0.001,0.609,0,1.218,0,1.867c-1.147,0-2.225,0-3.346,0c0-3.236,0-6.467,0-9.743
					C106.643,14.999,107.719,14.999,108.902,14.999z"/>
			</g>
			<g>
				<path fill="#E9138D" d="M29.491,18.636c-1.557-0.954-3.188-1.72-5.016-1.997c-2.346-0.355-4.596,0.068-6.806,0.821
					c-0.479,0.163-0.95,0.353-1.407,0.638c0.636-0.061,1.272-0.134,1.91-0.18c1.965-0.143,3.939-0.202,5.813,0.504
					c0.769,0.289,1.487,0.776,2.139,1.287c0.567,0.444,0.641,1.11,0.361,1.579c-0.261,0.437-0.837,0.61-1.526,0.429
					c-0.893-0.235-1.502-0.886-2.132-1.499c-0.18-0.175-0.344-0.366-0.572-0.492c0.766,1.673,1.989,2.878,3.716,3.548
					c1.751,0.68,3.488,0.468,5.229-0.149c0.276,0.59,0.153,1.163,0,1.723c-0.432,1.588-1.483,2.648-3.038,3.044
					c-4.074,1.037-7.668,0.006-10.807-2.736c-0.039-0.033-0.057-0.091-0.084-0.137c0.006-0.032,0.026-0.049,0.058-0.053
					c0.688,0.09,1.373,0.235,2.062,0.253c0.823,0.022,1.419-0.379,1.543-0.902c0.121-0.506-0.216-1.063-0.928-1.478
					c-0.977-0.568-2.065-0.728-3.169-0.788c-1.811-0.099-3.57,0.283-5.341,0.579c-2.631,0.438-5.259,0.476-7.828-0.374
					C1.551,21.554,0.451,20.344,0,18.211c0.289,0.14,0.515,0.221,0.711,0.348c2.428,1.581,5.06,1.816,7.811,1.153
					c0.505-0.121,1.01-0.349,1.446-0.633c0.964-0.629,1-1.672,0.018-2.27c-0.601-0.365-1.36-0.475-2.051-0.687
					c-0.128-0.04-0.274-0.021-0.53-0.036c1.029-0.839,2.105-1.288,3.28-1.528c1.64-0.335,3.286-0.138,4.933-0.073
					c1.062,0.042,2.125,0.055,3.188,0.045c0.302-0.003,0.655-0.056,0.89-0.221c0.251-0.178,0.529-0.512,0.538-0.785
					c0.008-0.239-0.293-0.609-0.544-0.711c-0.455-0.184-0.974-0.211-1.461-0.303c-0.003,0.008-0.001-0.039,0.021-0.051
					c2.967-1.717,6.092-2.559,9.463-1.435c2.59,0.863,3.897,2.833,4.143,5.482c0.07,0.755-0.203,1.541-0.418,2.359
					c-0.578-2.108-1.797-3.216-4.144-2.833c1.354,0.417,2.021,1.32,2.191,2.612L29.491,18.636z"/>
				<path fill="#E9138D" d="M29.485,18.646c0.022-0.001,0.046-0.001,0.068-0.003c-0.007,0.005-0.016,0.016-0.021,0.015
					c-0.014-0.006-0.027-0.016-0.042-0.022L29.485,18.646z"/>
				<path fill="#E9138D" d="M17.273,25.018c-0.027-0.021-0.054-0.043-0.08-0.063c0.045,0.004,0.091,0.008,0.138,0.012
					C17.312,24.983,17.292,25,17.273,25.018z"/>
				<path fill="#FDFDFD" d="M22.209,19.579c-0.011,0.01-0.021,0.02-0.032,0.028c-0.008-0.011-0.024-0.022-0.023-0.033
					c0-0.012,0.018-0.021,0.027-0.031C22.19,19.554,22.199,19.565,22.209,19.579z"/>
				<g>
					<path fill="#242021" d="M40.124,21.022c0.565-0.021,1.043-0.525,1.027-1.085c-0.016-0.574-0.498-1.025-1.084-1.011
						c-0.592,0.012-1.025,0.469-1.01,1.069C39.071,20.579,39.552,21.042,40.124,21.022z"/>
					<path fill="#242021" d="M54.861,19.05c-2.786-0.009-5.573,0.004-8.359-0.02c-0.334-0.004-0.722-0.129-0.991-0.326
						c-3.668-2.68-7.319-5.383-10.974-8.079c-0.153-0.112-0.309-0.22-0.479-0.341c0,6.51,0,12.946,0,19.432
						c0.201-0.143,0.35-0.248,0.496-0.354c3.605-2.642,7.212-5.281,10.81-7.932c0.355-0.262,0.7-0.389,1.15-0.386
						c2.987,0.018,5.976,0.007,8.964,0.006c0-0.624,0-1.248,0-1.87C55.272,19.135,55.067,19.051,54.861,19.05z M36.024,25.788
						c0-3.886,0-7.691,0-11.595c2.589,1.942,5.141,3.856,7.729,5.796C41.167,21.929,38.624,23.838,36.024,25.788z"/>
				</g>
			</g>
		</g>
	</g>
</g>
</svg>
